M48
;Layer_Color=9474304
;FILE_FORMAT=2:4
INCH,LZ
;TYPE=PLATED
T1F00S00C0.0098
T2F00S00C0.0236
T3F00S00C0.0276
T4F00S00C0.0400
;TYPE=NON_PLATED
T5F00S00C0.0346
T6F00S00C0.1250
%
T01
X025591Y00935
X025394Y012874
Y013465
X02874Y012205
Y010236
Y008268
X031102Y007874
X03061Y00689
X031102Y005906
Y003937
Y009843
Y011811
Y01378
X024606Y013878
X022795Y012795
X022598Y012992
X022244Y012795
X02313Y00935
X024606Y007382
X024114Y005413
X019685Y003937
Y000394
X012795
X010827
X010039Y003303
X010335Y003937
X010728Y005315
X01122Y005118
X011654Y005709
X01122Y006496
X012244Y004528
X012362Y004291
Y003425
X012638Y004921
X014272Y005413
X018504Y00689
Y008858
Y010827
Y01378
X016339Y012795
X01378Y011811
X012835Y013661
X009882Y013504
X010079Y013307
X010276Y012913
X010236Y012402
X011102Y011929
X01063Y011417
X010236Y011024
X010039Y010669
X009724Y010669
X011102Y010748
X009685Y014016
X008858Y013583
X007008Y013032
X005787Y012559
X005709Y009055
X007087Y008465
Y010039
X005709Y007087
X007185Y00502
X00874Y005315
X008957Y006496
X008366Y004035
X003051Y003445
X000394Y005906
Y007874
Y009843
Y011811
Y01378
Y015748
Y017717
X002854Y018307
X002087Y019646
X002283Y020551
X002756Y021161
X002677Y021654
X002953Y024055
X001614Y024331
X001378Y024921
X000866Y024803
X000984Y025591
X001181Y023622
X005512Y024409
X005906Y025512
X005Y025551
X004724Y027362
Y028346
X004409Y029134
X005315Y029606
X007795Y028386
X008465Y027874
X008858Y027559
X008661Y027323
X008169Y027264
X007441Y027244
X008583Y023701
X008169Y023031
X008858Y022835
X008169Y021634
X007283Y02126
X007087Y021457
X00689Y02126
X006693Y021457
X005906Y020276
X006102Y019606
X005906Y019409
X005709Y019213
X005906Y018504
X006496
X006693Y018803
X007087Y01811
X006457Y01752
X007559Y017323
X008701Y017008
X008701Y016299
X009094Y016024
X008268Y015039
X005906Y014567
X005709Y015472
Y016043
X005748Y016575
X007559Y02
X007756Y020315
X008701Y02
X008898Y020197
X009094Y02
X009685Y020197
X009882Y02
X010079Y020197
X010276Y02
X010945Y020276
Y020866
X012192Y02083
X01189Y020527
X012097Y021569
X012091Y021842
X011818Y021848
X011813Y02212
X01154Y022126
X011534Y022399
X011266Y022409
X010844Y022822
X010838Y023095
X010565Y0231
X01056Y023373
X010287Y023379
X010281Y023652
X010013Y023661
X009764Y024488
X010039Y024803
X010189Y025118
X010281Y025955
X010287Y026228
X010838Y026512
X010844Y026784
X011117Y02679
X011122Y027063
X011395Y027068
X011401Y027341
X011673Y027347
X011679Y02762
X011952Y027625
X01223Y027903
X012508Y028182
X012514Y028455
X012638Y028888
X012362Y028885
X012932Y028872
X013483Y029156
X013488Y029429
X013761Y029435
X013767Y029707
X01404Y029713
X015236Y028661
X01689Y027559
X017596Y029574
X017854Y029554
X017874Y029295
X018133Y029276
X018152Y029017
X018411Y028997
X018431Y028739
X01869Y028719
X018968Y028441
X018988Y028182
X019528Y028443
X019525Y027884
X019544Y027625
X019823Y027347
X020082Y027327
X020101Y027068
X02036Y027049
X02038Y02679
X020638Y02677
X020658Y026512
X020917Y026492
X02126Y026299
X021084Y026102
X021299Y025906
X021496Y025709
Y025197
X021486Y023937
X021693Y02374
X022323Y023465
X021102Y023207
X021157Y022874
X020876Y022598
X020546Y02265
X020281Y022636
X020267Y022372
X020003Y022358
X019989Y022094
X019724Y02208
X018753Y021102
X018504Y020118
X01804Y020145
X018054Y020409
X017776Y020131
X017762Y019866
X017497Y019852
X017483Y019588
X017219Y019574
X01676Y019197
X016968Y018711
X018189Y018307
X018386Y01811
X018701Y017814
X020114Y018071
X020066Y017283
X020426Y01748
X020541Y017087
X020591Y018543
X019843Y019331
X020079Y020039
X019488Y020315
X021102Y019961
Y020709
X022362Y020551
X022323Y021535
X022008Y021929
X02248Y022126
X024134Y022441
X024606Y022244
X024331Y022953
X02437Y023543
X024331Y024094
X024409Y025472
X024331Y025803
X023661Y026929
X023898Y027362
X024016Y028543
X023228Y029449
X02185Y029724
X022441Y028268
X022874Y027677
X02122Y028268
X019921Y028268
X019173Y029042
X020709Y023044
X017795Y021782
X014646Y021614
X013065Y020868
X013071Y020595
X013344Y020589
X013349Y020316
X0139Y020032
X013906Y01976
X014179Y019754
X014184Y019481
X014457Y019476
X014463Y019203
X014736Y019197
X014741Y018925
X014173Y017717
X015157Y01685
X016181Y016575
X017717Y016535
X018898Y014764
X02156Y015512
X021969Y016535
X021654Y017815
X022441Y018268
X023559Y018803
X023346Y019291
X023701Y019764
X02378Y020276
X024079Y020803
X024764Y019803
X024016Y018504
X023976Y015827
X023701Y014803
X022205Y014588
X022223Y014291
X015157Y015551
X013189Y014764
X012244Y016427
X012047Y016654
X01185Y01689
X012441Y016903
X012638Y017378
X011654Y017507
Y017795
X011535Y018504
X012917Y019606
X012792Y020873
X012787Y021146
X013386Y025984
X011811Y028081
X009961Y028583
X00937Y028189
X009921Y029764
X009449Y015669
X010472Y015
X010551Y014449
X02626Y014488
X026102Y015512
X026181Y016102
X025787Y016535
X026142Y017087
X025984Y01752
X026181Y01811
Y018504
X025591Y019488
X025787Y020079
X025591Y021024
X025394Y021535
X025157Y021929
X025Y022205
Y022717
X025197Y023425
X026181Y021378
X025Y020472
X028543Y020866
X029016Y022835
X029921Y023228
X031102Y023622
Y021654
Y019685
X03061Y019193
X029213Y018898
X029331Y01685
X029134Y016575
X028425Y016299
X028346Y015551
X031102Y015748
Y017717
Y025984
Y028346
X026969
Y027559
Y026575
Y024961
X02752Y02437
X028346Y024291
X02815Y024764
X029331Y025
X025591Y027953
X024961Y030276
X025071Y031803
X026969Y031299
X026772Y030118
X026969Y033071
X027165Y034567
X025197Y036811
X025Y039606
X025197Y041142
X025945Y041063
X026969Y040157
X026772Y042323
Y043307
Y044488
X025197Y04311
X031102Y042126
Y040157
Y038189
Y03622
Y034252
Y032283
Y030315
Y044094
X021063Y043819
X021043Y045207
X020276Y045079
X01997Y045261
X019655
X019291Y044685
X019161Y043256
X019173Y042756
X019161Y042256
X019291Y041142
X020276Y041732
Y03878
X019291Y038976
X019488Y036614
X018504Y037008
X015945
X016457Y035945
X01437Y03563
X013543Y036024
X013228
X012402Y03563
X012165Y03689
X013071Y037953
X013701Y037953
X014173Y038583
X01437Y038386
X01374Y039685
X013386Y040748
X012362Y040945
X011988Y04124
X012205Y041732
X012402Y04252
X010886Y042618
X010689Y042421
X009921Y042205
Y042815
X010039Y041339
X009961Y040079
X010039Y038346
X011457
X011614Y03878
X012244Y040079
Y040354
X014764Y042323
X016654Y042126
X017598Y042244
Y042756
X017185Y042815
X01752Y043307
X017165Y044528
Y044961
X016063Y045394
X01374Y044882
X013091Y044724
X011378Y04502
X010942Y04502
X010433Y044094
X009449
X009213Y037598
X009252Y035433
X010118Y035748
Y036063
X011024Y034843
Y033858
X011969Y034134
X013268Y034094
X013504Y034213
X014488Y034055
X013529Y032884
X013243
X013346Y031969
X014336Y030787
X014621
X015433Y030748
X015748Y029843
X01676Y030409
X016741Y030668
X017019Y030389
X017039Y030131
X017298Y030111
X017317Y029852
X017576Y029833
X020197Y029882
X02126Y030945
X021575Y031654
X021122Y032303
X020413Y031988
X022441Y03062
X023031Y030315
X024567Y030803
X024803Y031102
X024016Y033858
X024213Y035827
X021142Y036299
X021122Y036555
X020709Y035315
X02Y035709
X017126Y033465
X014318Y029991
X014045Y029986
X01252Y030315
X01189Y030315
X011811Y031299
X011339Y032283
X009961Y032244
X010433Y031693
X009449Y03092
X016142Y03878
X016654Y040827
X02315Y038307
X008465Y037894
X008898Y037402
X006693Y037205
Y037992
X006496Y039567
X004685Y03937
X004724Y041339
X006071Y041803
X006496Y041929
X006693Y043898
X004724Y043307
X004528Y045276
X001772Y043307
X000394Y044291
X001969Y040551
X001772Y03937
Y038386
Y037402
Y035433
Y034252
X001969Y033465
X004921Y032283
X005709Y031339
X006614Y031063
X008661Y033071
X005512Y034646
X005197Y037205
X008091Y047421
X007874Y048425
X000394Y04626
X009449Y045669
X010433
X010128Y046575
X009813
X011535Y046654
X012165
X012371Y045669
X012874
X014724Y046791
X015157Y046378
X016319Y04565
X017165Y046417
X017126Y047087
X016811Y046772
X017933Y047421
X017717Y048425
X016732Y048819
X014764Y048622
X012598
X011811Y048425
X011594Y047421
X021437
X021654Y048425
X022638Y048819
X024606
X024094Y046457
X022874Y045748
X026575Y048819
X028543
X031102Y046063
T02
X020079Y009843
X021079
X022079
T03
X008411Y039945
X008911
Y040445
X008411
Y040945
X008911
Y041445
X008411
Y041945
X008911
T04
X025248Y002303
X026248
X027248
X026748Y004803
Y005803
Y006803
Y007803
Y008803
Y009803
Y010803
Y011803
Y012803
Y013803
X027748
Y012803
Y011803
Y010803
Y009803
Y008803
Y007803
Y006803
Y005803
Y004803
X024248Y002303
X023248
X022248
X017248Y000872
X014248
X009248Y002303
Y003303
X008248
X007248
X006248
X005248
X004248
Y002303
X005248
X006248
X007248
X008248
X004748Y004803
X003748
Y005803
Y006803
Y007803
Y008803
Y009803
Y010803
Y011803
Y012803
Y013803
X004748
Y012803
Y011803
Y010803
Y009803
Y008803
Y007803
Y006803
Y005803
Y014803
X003748
Y015803
Y016803
Y017803
Y018803
Y019803
Y020803
Y021803
Y022803
Y023803
X004748
Y022803
Y021803
Y020803
Y019803
Y018803
Y017803
Y016803
Y015803
X003748Y025803
X002748
Y026803
Y027803
Y028803
X003748
Y027803
Y026803
X027748
Y027803
Y028803
X028748
Y027803
Y026803
Y025803
X027748
Y023803
X026748
Y022803
Y021803
Y020803
Y019803
Y018803
Y017803
Y016803
Y015803
Y014803
X027748
Y015803
Y016803
Y017803
Y018803
Y019803
Y020803
Y021803
Y022803
Y029803
Y030803
Y031803
Y032803
Y033803
Y034803
Y035803
Y036803
Y037803
Y038803
Y039803
Y040803
Y041803
Y042803
Y043803
Y044803
X028748
Y043803
Y042803
Y041803
Y040803
Y039803
Y038803
Y037803
Y036803
Y035803
Y034803
Y033803
Y032803
Y031803
Y030803
Y029803
X023217Y040406
Y041406
X022217
Y040406
X008689Y035736
Y034736
X007689
Y035736
X003748Y035803
X002748
Y036803
Y037803
Y038803
Y039803
Y040803
Y041803
Y042803
Y043803
Y044803
X003748
Y043803
Y042803
Y041803
Y040803
Y039803
Y038803
Y037803
Y036803
Y034803
X002748
Y033803
Y032803
Y031803
Y030803
Y029803
X003748
Y030803
Y031803
Y032803
Y033803
X003998Y048372
X005998
T05
X018386Y041756
X018786Y043756
X017986
T06
X030118Y001378
X001378
Y047835
X030118
M30
