%FSLAX25Y25*%
%MOIN*%
G70*
G01*
G75*
G04 Layer_Color=8388736*
G04:AMPARAMS|DCode=10|XSize=78.74mil|YSize=177.16mil|CornerRadius=0mil|HoleSize=0mil|Usage=FLASHONLY|Rotation=45.000|XOffset=0mil|YOffset=0mil|HoleType=Round|Shape=Rectangle|*
%AMROTATEDRECTD10*
4,1,4,0.03480,-0.09048,-0.09048,0.03480,-0.03480,0.09048,0.09048,-0.03480,0.03480,-0.09048,0.0*
%
%ADD10ROTATEDRECTD10*%

%ADD11R,0.05500X0.04000*%
%ADD12O,0.06000X0.11024*%
%ADD13R,0.06000X0.11024*%
G04:AMPARAMS|DCode=14|XSize=74.8mil|YSize=129.92mil|CornerRadius=0mil|HoleSize=0mil|Usage=FLASHONLY|Rotation=0.000|XOffset=0mil|YOffset=0mil|HoleType=Round|Shape=Octagon|*
%AMOCTAGOND14*
4,1,8,-0.01870,0.06496,0.01870,0.06496,0.03740,0.04626,0.03740,-0.04626,0.01870,-0.06496,-0.01870,-0.06496,-0.03740,-0.04626,-0.03740,0.04626,-0.01870,0.06496,0.0*
%
%ADD14OCTAGOND14*%

%ADD15R,0.02756X0.07087*%
%ADD16R,0.02756X0.05315*%
%ADD17R,0.04000X0.05500*%
%ADD18R,0.06000X0.06000*%
%ADD19R,0.07500X0.10000*%
%ADD20R,0.03500X0.03000*%
%ADD21R,0.06000X0.10000*%
%ADD22R,0.10000X0.06000*%
%ADD23R,0.04725X0.13779*%
%ADD24R,0.04725X0.13779*%
%ADD25R,0.06299X0.01181*%
%ADD26R,0.01181X0.06299*%
%ADD27C,0.02500*%
%ADD28C,0.05000*%
%ADD29C,0.01200*%
%ADD30C,0.01000*%
%ADD31C,0.02000*%
%ADD32C,0.03000*%
%ADD33C,0.01500*%
%ADD34C,0.06000*%
%ADD35R,0.05906X0.05906*%
%ADD36C,0.05906*%
%ADD37C,0.06500*%
%ADD38O,0.07874X0.15748*%
%ADD39O,0.15748X0.07874*%
%ADD40O,0.16535X0.07874*%
%ADD41R,0.10236X0.10236*%
%ADD42C,0.10236*%
%ADD43R,0.09449X0.09449*%
%ADD44C,0.09449*%
%ADD45R,0.05906X0.05906*%
%ADD46C,0.08000*%
%ADD47C,0.02000*%
%ADD48R,0.05000X0.06000*%
%ADD49C,0.00800*%
%ADD50C,0.01600*%
%ADD51C,0.00100*%
%ADD52C,0.01969*%
%ADD53C,0.04000*%
%ADD54C,0.00787*%
%ADD55C,0.00600*%
%ADD56R,0.05000X0.00400*%
%ADD57R,0.00400X0.05000*%
G04:AMPARAMS|DCode=58|XSize=86.74mil|YSize=185.17mil|CornerRadius=0mil|HoleSize=0mil|Usage=FLASHONLY|Rotation=45.000|XOffset=0mil|YOffset=0mil|HoleType=Round|Shape=Rectangle|*
%AMROTATEDRECTD58*
4,1,4,0.03480,-0.09613,-0.09613,0.03480,-0.03480,0.09613,0.09613,-0.03480,0.03480,-0.09613,0.0*
%
%ADD58ROTATEDRECTD58*%

%ADD59R,0.06300X0.04800*%
%ADD60O,0.06800X0.11824*%
%ADD61R,0.06800X0.11824*%
G04:AMPARAMS|DCode=62|XSize=82.8mil|YSize=137.92mil|CornerRadius=0mil|HoleSize=0mil|Usage=FLASHONLY|Rotation=0.000|XOffset=0mil|YOffset=0mil|HoleType=Round|Shape=Octagon|*
%AMOCTAGOND62*
4,1,8,-0.02070,0.06896,0.02070,0.06896,0.04140,0.04826,0.04140,-0.04826,0.02070,-0.06896,-0.02070,-0.06896,-0.04140,-0.04826,-0.04140,0.04826,-0.02070,0.06896,0.0*
%
%ADD62OCTAGOND62*%

%ADD63R,0.03556X0.07887*%
%ADD64R,0.03556X0.06115*%
%ADD65R,0.04800X0.06300*%
%ADD66R,0.06800X0.06800*%
%ADD67R,0.08300X0.10800*%
%ADD68R,0.04300X0.03800*%
%ADD69R,0.06800X0.10800*%
%ADD70R,0.10800X0.06800*%
%ADD71R,0.05525X0.14579*%
%ADD72R,0.05525X0.14579*%
%ADD73R,0.07099X0.01981*%
%ADD74R,0.01981X0.07099*%
%ADD75C,0.06800*%
%ADD76R,0.06706X0.06706*%
%ADD77C,0.06706*%
%ADD78C,0.07300*%
%ADD79O,0.08674X0.16548*%
%ADD80O,0.16548X0.08674*%
%ADD81O,0.17335X0.08674*%
%ADD82R,0.11036X0.11036*%
%ADD83C,0.11036*%
%ADD84R,0.10249X0.10249*%
%ADD85C,0.10249*%
%ADD86R,0.06706X0.06706*%
%ADD87C,0.08800*%
D47*
X195000Y-235000D02*
D03*
X80000Y-220000D02*
D03*
X70000Y-75000D02*
D03*
X75000Y-125000D02*
D03*
X190000Y-65000D02*
D03*
X275000Y-100000D02*
D03*
X200000Y-25000D02*
D03*
X225000D02*
D03*
X10000Y-275000D02*
D03*
Y-250000D02*
D03*
Y-225000D02*
D03*
Y-200000D02*
D03*
Y-175000D02*
D03*
Y-150000D02*
D03*
X55000Y-188000D02*
D03*
X65000Y-178000D02*
D03*
X75000Y-168000D02*
D03*
X132000Y-145000D02*
D03*
X25000Y-75000D02*
D03*
X60000Y-235000D02*
D03*
X92500Y-187500D02*
D03*
X155000Y-202000D02*
D03*
X147000D02*
D03*
X163000D02*
D03*
X147000Y-194000D02*
D03*
X155000D02*
D03*
X163000D02*
D03*
X147000Y-186000D02*
D03*
X155000D02*
D03*
X163000D02*
D03*
X136000Y-148000D02*
D03*
X140000Y-151000D02*
D03*
X144000Y-154000D02*
D03*
X110000Y-250000D02*
D03*
X120000D02*
D03*
X115000Y-255000D02*
D03*
Y-267500D02*
D03*
Y-275000D02*
D03*
Y-287500D02*
D03*
X155000Y-275000D02*
D03*
Y-287500D02*
D03*
Y-267500D02*
D03*
Y-255000D02*
D03*
X150000Y-250000D02*
D03*
X160000D02*
D03*
X155000Y-245000D02*
D03*
X190000Y-250000D02*
D03*
X200000D02*
D03*
X195000Y-255000D02*
D03*
Y-267500D02*
D03*
Y-275000D02*
D03*
Y-287500D02*
D03*
X192500Y-190500D02*
D03*
X172000Y-176000D02*
D03*
X130000Y-175000D02*
D03*
X117500Y-165000D02*
D03*
X105000D02*
D03*
X90000D02*
D03*
X102500Y-187500D02*
D03*
X95000Y-210000D02*
D03*
X115000D02*
D03*
X128500Y-201000D02*
D03*
X174000Y-211500D02*
D03*
X191000Y-218000D02*
D03*
X177500Y-235000D02*
D03*
X136000Y-210000D02*
D03*
X197500Y-180000D02*
D03*
X10000Y-295000D02*
D03*
X25000Y-275000D02*
D03*
X50000Y-295000D02*
D03*
X25000D02*
D03*
X75000D02*
D03*
X60000Y-275000D02*
D03*
X100000Y-235000D02*
D03*
X60000Y-250000D02*
D03*
X120000Y-230000D02*
D03*
X80000Y-250000D02*
D03*
X300000Y-150000D02*
D03*
X275000D02*
D03*
X250000Y-125000D02*
D03*
Y-150000D02*
D03*
X225000D02*
D03*
X275000Y-175000D02*
D03*
X250000D02*
D03*
X225000Y-125000D02*
D03*
X200000D02*
D03*
Y-100000D02*
D03*
X235000Y-65000D02*
D03*
X275000Y-25000D02*
D03*
X288000Y-68000D02*
D03*
X175000Y-125000D02*
D03*
X125000D02*
D03*
X150000D02*
D03*
X100000D02*
D03*
X50000D02*
D03*
Y-100000D02*
D03*
X80000Y-235000D02*
D03*
X275000Y-275000D02*
D03*
Y-295000D02*
D03*
X250000D02*
D03*
Y-275000D02*
D03*
X275000Y-250000D02*
D03*
X250000Y-225000D02*
D03*
X275000Y-215000D02*
D03*
X250000Y-200000D02*
D03*
X140000Y-230000D02*
D03*
X10000Y-100000D02*
D03*
Y-125000D02*
D03*
Y-75000D02*
D03*
X170000Y-145000D02*
D03*
X51000Y-223500D02*
D03*
X305000Y-90000D02*
D03*
Y-75000D02*
D03*
Y-25000D02*
D03*
Y-50000D02*
D03*
X50000Y-75000D02*
D03*
D58*
X177628Y-140128D02*
D03*
X201291Y-163791D02*
D03*
D59*
X105000Y-215500D02*
D03*
Y-207500D02*
D03*
X217500Y-179500D02*
D03*
Y-187500D02*
D03*
X234500D02*
D03*
Y-179500D02*
D03*
X217500Y-199500D02*
D03*
Y-207500D02*
D03*
X234500D02*
D03*
Y-199500D02*
D03*
X164500Y-104000D02*
D03*
Y-112000D02*
D03*
X217500Y-227500D02*
D03*
Y-219500D02*
D03*
X234500D02*
D03*
Y-227500D02*
D03*
X172500Y-104000D02*
D03*
Y-112000D02*
D03*
X139500Y-104000D02*
D03*
Y-112000D02*
D03*
X147500Y-104000D02*
D03*
Y-112000D02*
D03*
X219500Y-280000D02*
D03*
Y-272000D02*
D03*
X179500D02*
D03*
Y-280000D02*
D03*
X114500Y-104000D02*
D03*
Y-112000D02*
D03*
X122500Y-104000D02*
D03*
Y-112000D02*
D03*
X210500Y-280000D02*
D03*
Y-272000D02*
D03*
X170500D02*
D03*
Y-280000D02*
D03*
X89500Y-104000D02*
D03*
Y-112000D02*
D03*
X139500Y-272000D02*
D03*
Y-280000D02*
D03*
X99500Y-272000D02*
D03*
Y-280000D02*
D03*
X97500Y-104000D02*
D03*
Y-112000D02*
D03*
X130500Y-280000D02*
D03*
Y-272000D02*
D03*
X90500Y-280000D02*
D03*
Y-272000D02*
D03*
X156500Y-104000D02*
D03*
Y-112000D02*
D03*
X131500D02*
D03*
Y-104000D02*
D03*
X106500D02*
D03*
Y-112000D02*
D03*
X81500D02*
D03*
Y-104000D02*
D03*
X209000Y-179500D02*
D03*
Y-187500D02*
D03*
X226000D02*
D03*
Y-179500D02*
D03*
X209000Y-199500D02*
D03*
Y-207500D02*
D03*
X226000D02*
D03*
Y-199500D02*
D03*
X209000Y-219500D02*
D03*
Y-227500D02*
D03*
X226000D02*
D03*
Y-219500D02*
D03*
X181000Y-217000D02*
D03*
Y-225000D02*
D03*
X113500Y-203500D02*
D03*
Y-195500D02*
D03*
X239500Y-49000D02*
D03*
Y-41000D02*
D03*
X82000Y-272000D02*
D03*
Y-280000D02*
D03*
X122000Y-272000D02*
D03*
Y-280000D02*
D03*
X108000D02*
D03*
Y-272000D02*
D03*
X148000Y-280000D02*
D03*
Y-272000D02*
D03*
X162000D02*
D03*
Y-280000D02*
D03*
X202000Y-272000D02*
D03*
Y-280000D02*
D03*
X188000D02*
D03*
Y-272000D02*
D03*
X228000Y-280000D02*
D03*
Y-272000D02*
D03*
D60*
X167500Y-37500D02*
D03*
Y-72500D02*
D03*
X157500Y-37500D02*
D03*
X142500D02*
D03*
Y-72500D02*
D03*
X132500Y-37500D02*
D03*
X117500D02*
D03*
Y-72500D02*
D03*
X107500Y-37500D02*
D03*
X92500D02*
D03*
Y-72500D02*
D03*
X82500Y-37500D02*
D03*
D61*
X157500Y-72500D02*
D03*
X132500D02*
D03*
X107500D02*
D03*
X82500D02*
D03*
D62*
X220406Y-38075D02*
D03*
D63*
X220406Y-48114D02*
D03*
D64*
X214500Y-49000D02*
D03*
X226311D02*
D03*
D65*
X228000Y-288000D02*
D03*
X220000D02*
D03*
X180000D02*
D03*
X188000D02*
D03*
X202000D02*
D03*
X210000D02*
D03*
X170000D02*
D03*
X162000D02*
D03*
X148000D02*
D03*
X140000D02*
D03*
X100000D02*
D03*
X108000D02*
D03*
X122000D02*
D03*
X130000D02*
D03*
X90000D02*
D03*
X82000D02*
D03*
X196500Y-49000D02*
D03*
X204500D02*
D03*
Y-40500D02*
D03*
X196500D02*
D03*
X219500Y-264000D02*
D03*
X227500D02*
D03*
X187500D02*
D03*
X179500D02*
D03*
X202500D02*
D03*
X210500D02*
D03*
X170500D02*
D03*
X162500D02*
D03*
X139500D02*
D03*
X147500D02*
D03*
X99500D02*
D03*
X107500D02*
D03*
X130500D02*
D03*
X122500D02*
D03*
X90500D02*
D03*
X82500D02*
D03*
X226000Y-72500D02*
D03*
X218000D02*
D03*
X292000Y-75000D02*
D03*
X284000D02*
D03*
Y-83500D02*
D03*
X292000D02*
D03*
D66*
X312500Y-189000D02*
D03*
X326000D02*
D03*
Y-200000D02*
D03*
X339500D02*
D03*
Y-189000D02*
D03*
X353000D02*
D03*
Y-200000D02*
D03*
X366500D02*
D03*
Y-189000D02*
D03*
X380000D02*
D03*
Y-200000D02*
D03*
X393500D02*
D03*
X312500D02*
D03*
X299000D02*
D03*
X326000Y-239000D02*
D03*
X312500D02*
D03*
X339500Y-250000D02*
D03*
X326000D02*
D03*
X353000Y-239000D02*
D03*
X339500D02*
D03*
X366500Y-250000D02*
D03*
X353000D02*
D03*
X380000Y-239000D02*
D03*
X366500D02*
D03*
X393500Y-250000D02*
D03*
X380000D02*
D03*
X299000D02*
D03*
X312500D02*
D03*
X325500Y-289000D02*
D03*
X312000D02*
D03*
X339000Y-300000D02*
D03*
X325500D02*
D03*
X352500Y-289000D02*
D03*
X339000D02*
D03*
X366000Y-300000D02*
D03*
X352500D02*
D03*
X379500Y-289000D02*
D03*
X366000D02*
D03*
X393000Y-300000D02*
D03*
X379500D02*
D03*
X298500D02*
D03*
X312000D02*
D03*
D67*
X255000Y-69500D02*
D03*
X272000D02*
D03*
Y-83500D02*
D03*
X255000D02*
D03*
D68*
X173500Y-217000D02*
D03*
Y-223500D02*
D03*
X134000Y-215500D02*
D03*
Y-222000D02*
D03*
X121000Y-215500D02*
D03*
Y-209000D02*
D03*
Y-195500D02*
D03*
Y-202000D02*
D03*
X106000Y-200000D02*
D03*
Y-193500D02*
D03*
X127500Y-222000D02*
D03*
Y-215500D02*
D03*
X99500Y-200000D02*
D03*
Y-193500D02*
D03*
D69*
X212500Y-61000D02*
D03*
X226000D02*
D03*
D70*
X251000Y-35500D02*
D03*
Y-49000D02*
D03*
D71*
X293000Y-127264D02*
D03*
D72*
X293000Y-97736D02*
D03*
D73*
X136913Y-205413D02*
D03*
Y-203445D02*
D03*
Y-201476D02*
D03*
Y-199508D02*
D03*
Y-197539D02*
D03*
Y-195571D02*
D03*
Y-193602D02*
D03*
Y-191634D02*
D03*
Y-189665D02*
D03*
Y-187697D02*
D03*
Y-185728D02*
D03*
Y-183760D02*
D03*
X172740D02*
D03*
Y-185728D02*
D03*
Y-187697D02*
D03*
Y-189665D02*
D03*
Y-191634D02*
D03*
Y-193602D02*
D03*
Y-195571D02*
D03*
Y-197539D02*
D03*
Y-199508D02*
D03*
Y-201476D02*
D03*
Y-203445D02*
D03*
Y-205413D02*
D03*
D74*
X144000Y-176673D02*
D03*
X145968D02*
D03*
X147937D02*
D03*
X149906D02*
D03*
X151874D02*
D03*
X153842D02*
D03*
X155811D02*
D03*
X157780D02*
D03*
X159748D02*
D03*
X161716D02*
D03*
X163685D02*
D03*
X165654D02*
D03*
Y-212500D02*
D03*
X163685D02*
D03*
X161716D02*
D03*
X159748D02*
D03*
X157780D02*
D03*
X155811D02*
D03*
X153842D02*
D03*
X151874D02*
D03*
X149906D02*
D03*
X147937D02*
D03*
X145968D02*
D03*
X144000D02*
D03*
D75*
X182500Y-145000D02*
D03*
X196419Y-158919D02*
D03*
X25000Y-250000D02*
D03*
Y-100000D02*
D03*
X299000Y-210000D02*
D03*
Y-260000D02*
D03*
X298500Y-310000D02*
D03*
X170500Y-231000D02*
D03*
X100000Y-225000D02*
D03*
X205000Y-75000D02*
D03*
X255000Y-97000D02*
D03*
X384000Y-25000D02*
D03*
X324000D02*
D03*
X225000Y-100000D02*
D03*
X240000Y-245000D02*
D03*
D76*
X210000Y-252500D02*
D03*
X170000D02*
D03*
X130000D02*
D03*
X90000D02*
D03*
X232500Y-15000D02*
D03*
X90000Y-20000D02*
D03*
D77*
X220000Y-252500D02*
D03*
X180000D02*
D03*
X140000D02*
D03*
X100000D02*
D03*
X167500Y-90000D02*
D03*
X157500D02*
D03*
X132500D02*
D03*
X142500D02*
D03*
X117500D02*
D03*
X107500D02*
D03*
X82500D02*
D03*
X92500D02*
D03*
X65000Y-255000D02*
D03*
X55000D02*
D03*
X242500Y-15000D02*
D03*
X40000Y-222165D02*
D03*
X30000D02*
D03*
X40000Y-212165D02*
D03*
X30000D02*
D03*
X40000Y-202165D02*
D03*
X30000D02*
D03*
X40000Y-192165D02*
D03*
X30000D02*
D03*
X40000Y-182165D02*
D03*
X30000D02*
D03*
X40000Y-172165D02*
D03*
X30000D02*
D03*
X40000Y-162165D02*
D03*
X30000D02*
D03*
X40000Y-152165D02*
D03*
X30000D02*
D03*
X40000Y-142165D02*
D03*
X30000D02*
D03*
X40000Y-132165D02*
D03*
X82500Y-205000D02*
D03*
Y-195000D02*
D03*
X65000Y-240000D02*
D03*
X55000D02*
D03*
X100000Y-20000D02*
D03*
X110000D02*
D03*
X120000D02*
D03*
X130000D02*
D03*
X140000D02*
D03*
X150000D02*
D03*
X160000D02*
D03*
D78*
X430000Y-33750D02*
D03*
X402000Y-26250D02*
D03*
D79*
X267315Y-42339D02*
D03*
D80*
X287000Y-30528D02*
D03*
D81*
Y-54937D02*
D03*
D82*
X425000Y-300000D02*
D03*
D83*
Y-260000D02*
D03*
Y-180000D02*
D03*
Y-220000D02*
D03*
D84*
X205000Y-312500D02*
D03*
X165000D02*
D03*
X125000D02*
D03*
X85000D02*
D03*
D85*
X225000D02*
D03*
X185000D02*
D03*
X145000D02*
D03*
X105000D02*
D03*
D86*
X30000Y-132165D02*
D03*
D87*
X293000Y-122343D02*
D03*
X293000Y-102657D02*
D03*
X445000Y-52323D02*
D03*
X360355Y-52323D02*
D03*
X330827Y-52323D02*
D03*
X330827Y-135000D02*
D03*
X445000Y-135000D02*
D03*
X345591Y-135000D02*
D03*
X360355Y-135000D02*
D03*
M02*
