%FSLAX25Y25*%
%MOIN*%
G70*
G01*
G75*
%ADD10C,0.00500*%
%ADD11C,0.00667*%
%ADD12C,0.00400*%
D10*
X181100Y-145000D02*
X183900D01*
X182500Y-146400D02*
Y-143600D01*
X195019Y-158919D02*
X197819D01*
X196419Y-160319D02*
Y-157519D01*
X23500Y-250000D02*
X26500D01*
X25000Y-251500D02*
Y-248500D01*
X23500Y-100000D02*
X26500D01*
X25000Y-101500D02*
Y-98500D01*
X297500Y-210000D02*
X300500D01*
X299000Y-211500D02*
Y-208500D01*
X297500Y-260000D02*
X300500D01*
X299000Y-261500D02*
Y-258500D01*
X297000Y-310000D02*
X300000D01*
X298500Y-311500D02*
Y-308500D01*
X169000Y-231000D02*
X172000D01*
X170500Y-232500D02*
Y-229500D01*
X98500Y-225000D02*
X101500D01*
X100000Y-226500D02*
Y-223500D01*
X203500Y-75000D02*
X206500D01*
X205000Y-76500D02*
Y-73500D01*
X253500Y-97000D02*
X256500D01*
X255000Y-98500D02*
Y-95500D01*
X208228Y-252500D02*
X211772D01*
X210000Y-254272D02*
Y-250728D01*
X218228Y-252500D02*
X221772D01*
X220000Y-254272D02*
Y-250728D01*
X178228Y-252500D02*
X181772D01*
X180000Y-254272D02*
Y-250728D01*
X168228Y-252500D02*
X171772D01*
X170000Y-254272D02*
Y-250728D01*
X128228Y-252500D02*
X131772D01*
X130000Y-254272D02*
Y-250728D01*
X138228Y-252500D02*
X141772D01*
X140000Y-254272D02*
Y-250728D01*
X98228Y-252500D02*
X101772D01*
X100000Y-254272D02*
Y-250728D01*
X88228Y-252500D02*
X91772D01*
X90000Y-254272D02*
Y-250728D01*
X427900Y-33750D02*
X432100D01*
X430000Y-35850D02*
Y-31650D01*
X399900Y-26250D02*
X404100D01*
X402000Y-28350D02*
Y-24150D01*
X265347Y-42339D02*
X269284D01*
X267315Y-44307D02*
Y-40370D01*
X285032Y-30528D02*
X288968D01*
X287000Y-32496D02*
Y-28559D01*
X285032Y-54937D02*
X288968D01*
X287000Y-56906D02*
Y-52969D01*
X165728Y-90000D02*
X169272D01*
X167500Y-91772D02*
Y-88228D01*
X155728Y-90000D02*
X159272D01*
X157500Y-91772D02*
Y-88228D01*
X130728Y-90000D02*
X134272D01*
X132500Y-91772D02*
Y-88228D01*
X140728Y-90000D02*
X144272D01*
X142500Y-91772D02*
Y-88228D01*
X115728Y-90000D02*
X119272D01*
X117500Y-91772D02*
Y-88228D01*
X105728Y-90000D02*
X109272D01*
X107500Y-91772D02*
Y-88228D01*
X80728Y-90000D02*
X84272D01*
X82500Y-91772D02*
Y-88228D01*
X90728Y-90000D02*
X94272D01*
X92500Y-91772D02*
Y-88228D01*
X63228Y-255000D02*
X66772D01*
X65000Y-256772D02*
Y-253228D01*
X53228Y-255000D02*
X56772D01*
X55000Y-256772D02*
Y-253228D01*
X422047Y-300000D02*
X427953D01*
X425000Y-302953D02*
Y-297047D01*
X422047Y-260000D02*
X427953D01*
X425000Y-262953D02*
Y-257047D01*
X422047Y-180000D02*
X427953D01*
X425000Y-182953D02*
Y-177047D01*
X422047Y-220000D02*
X427953D01*
X425000Y-222953D02*
Y-217047D01*
X202244Y-312500D02*
X207756D01*
X205000Y-315256D02*
Y-309744D01*
X222244Y-312500D02*
X227756D01*
X225000Y-315256D02*
Y-309744D01*
X182244Y-312500D02*
X187756D01*
X185000Y-315256D02*
Y-309744D01*
X162244Y-312500D02*
X167756D01*
X165000Y-315256D02*
Y-309744D01*
X122244Y-312500D02*
X127756D01*
X125000Y-315256D02*
Y-309744D01*
X142244Y-312500D02*
X147756D01*
X145000Y-315256D02*
Y-309744D01*
X102244Y-312500D02*
X107756D01*
X105000Y-315256D02*
Y-309744D01*
X82244Y-312500D02*
X87756D01*
X85000Y-315256D02*
Y-309744D01*
X230728Y-15000D02*
X234272D01*
X232500Y-16772D02*
Y-13228D01*
X240728Y-15000D02*
X244272D01*
X242500Y-16772D02*
Y-13228D01*
X38228Y-222165D02*
X41772D01*
X40000Y-223937D02*
Y-220394D01*
X28228Y-222165D02*
X31772D01*
X30000Y-223937D02*
Y-220394D01*
X38228Y-212165D02*
X41772D01*
X40000Y-213937D02*
Y-210394D01*
X28228Y-212165D02*
X31772D01*
X30000Y-213937D02*
Y-210394D01*
X38228Y-202165D02*
X41772D01*
X40000Y-203937D02*
Y-200394D01*
X28228Y-202165D02*
X31772D01*
X30000Y-203937D02*
Y-200394D01*
X38228Y-192165D02*
X41772D01*
X40000Y-193937D02*
Y-190394D01*
X28228Y-192165D02*
X31772D01*
X30000Y-193937D02*
Y-190394D01*
X38228Y-182165D02*
X41772D01*
X40000Y-183937D02*
Y-180394D01*
X28228Y-182165D02*
X31772D01*
X30000Y-183937D02*
Y-180394D01*
X38228Y-172165D02*
X41772D01*
X40000Y-173937D02*
Y-170394D01*
X28228Y-172165D02*
X31772D01*
X30000Y-173937D02*
Y-170394D01*
X38228Y-162165D02*
X41772D01*
X40000Y-163937D02*
Y-160394D01*
X28228Y-162165D02*
X31772D01*
X30000Y-163937D02*
Y-160394D01*
X38228Y-152165D02*
X41772D01*
X40000Y-153937D02*
Y-150394D01*
X28228Y-152165D02*
X31772D01*
X30000Y-153937D02*
Y-150394D01*
X38228Y-142165D02*
X41772D01*
X40000Y-143937D02*
Y-140394D01*
X28228Y-142165D02*
X31772D01*
X30000Y-143937D02*
Y-140394D01*
X38228Y-132165D02*
X41772D01*
X40000Y-133937D02*
Y-130394D01*
X28228Y-132165D02*
X31772D01*
X30000Y-133937D02*
Y-130394D01*
X291000Y-122343D02*
X295000D01*
X293000Y-124343D02*
Y-120343D01*
X291000Y-102657D02*
X295000D01*
X293000Y-104657D02*
Y-100657D01*
X382200Y-25000D02*
X385800D01*
X384000Y-26800D02*
Y-23200D01*
X322200Y-25000D02*
X325800D01*
X324000Y-26800D02*
Y-23200D01*
X223500Y-100000D02*
X226500D01*
X225000Y-101500D02*
Y-98500D01*
X238500Y-245000D02*
X241500D01*
X240000Y-246500D02*
Y-243500D01*
X80728Y-205000D02*
X84272D01*
X82500Y-206772D02*
Y-203228D01*
X80728Y-195000D02*
X84272D01*
X82500Y-196772D02*
Y-193228D01*
X63228Y-240000D02*
X66772D01*
X65000Y-241772D02*
Y-238228D01*
X53228Y-240000D02*
X56772D01*
X55000Y-241772D02*
Y-238228D01*
X88228Y-20000D02*
X91772D01*
X90000Y-21772D02*
Y-18228D01*
X98228Y-20000D02*
X101772D01*
X100000Y-21772D02*
Y-18228D01*
X108228Y-20000D02*
X111772D01*
X110000Y-21772D02*
Y-18228D01*
X118228Y-20000D02*
X121772D01*
X120000Y-21772D02*
Y-18228D01*
X128228Y-20000D02*
X131772D01*
X130000Y-21772D02*
Y-18228D01*
X138228Y-20000D02*
X141772D01*
X140000Y-21772D02*
Y-18228D01*
X148228Y-20000D02*
X151772D01*
X150000Y-21772D02*
Y-18228D01*
X158228Y-20000D02*
X161772D01*
X160000Y-21772D02*
Y-18228D01*
X443000Y-52323D02*
X447000D01*
X445000Y-54323D02*
Y-50323D01*
X358355Y-52323D02*
X362355D01*
X360355Y-54323D02*
Y-50323D01*
X328827Y-52323D02*
X332827D01*
X330827Y-54323D02*
Y-50323D01*
X328827Y-135000D02*
X332827D01*
X330827Y-137000D02*
Y-133000D01*
X443000Y-135000D02*
X447000D01*
X445000Y-137000D02*
Y-133000D01*
X343591Y-135000D02*
X347591D01*
X345591Y-137000D02*
Y-133000D01*
X358355Y-135000D02*
X362355D01*
X360355Y-137000D02*
Y-133000D01*
X194400Y-235000D02*
X195600D01*
X195000Y-235600D02*
Y-234400D01*
X79400Y-220000D02*
X80600D01*
X80000Y-220600D02*
Y-219400D01*
X69400Y-75000D02*
X70600D01*
X70000Y-75600D02*
Y-74400D01*
X74400Y-125000D02*
X75600D01*
X75000Y-125600D02*
Y-124400D01*
X189400Y-65000D02*
X190600D01*
X190000Y-65600D02*
Y-64400D01*
X274400Y-100000D02*
X275600D01*
X275000Y-100600D02*
Y-99400D01*
X199400Y-25000D02*
X200600D01*
X200000Y-25600D02*
Y-24400D01*
X224400Y-25000D02*
X225600D01*
X225000Y-25600D02*
Y-24400D01*
X9400Y-275000D02*
X10600D01*
X10000Y-275600D02*
Y-274400D01*
X9400Y-250000D02*
X10600D01*
X10000Y-250600D02*
Y-249400D01*
X9400Y-225000D02*
X10600D01*
X10000Y-225600D02*
Y-224400D01*
X9400Y-200000D02*
X10600D01*
X10000Y-200600D02*
Y-199400D01*
X9400Y-175000D02*
X10600D01*
X10000Y-175600D02*
Y-174400D01*
X9400Y-150000D02*
X10600D01*
X10000Y-150600D02*
Y-149400D01*
X54400Y-188000D02*
X55600D01*
X55000Y-188600D02*
Y-187400D01*
X64400Y-178000D02*
X65600D01*
X65000Y-178600D02*
Y-177400D01*
X74400Y-168000D02*
X75600D01*
X75000Y-168600D02*
Y-167400D01*
X131400Y-145000D02*
X132600D01*
X132000Y-145600D02*
Y-144400D01*
X24400Y-75000D02*
X25600D01*
X25000Y-75600D02*
Y-74400D01*
X59400Y-235000D02*
X60600D01*
X60000Y-235600D02*
Y-234400D01*
X91900Y-187500D02*
X93100D01*
X92500Y-188100D02*
Y-186900D01*
X154400Y-202000D02*
X155600D01*
X155000Y-202600D02*
Y-201400D01*
X146400Y-202000D02*
X147600D01*
X147000Y-202600D02*
Y-201400D01*
X162400Y-202000D02*
X163600D01*
X163000Y-202600D02*
Y-201400D01*
X146400Y-194000D02*
X147600D01*
X147000Y-194600D02*
Y-193400D01*
X154400Y-194000D02*
X155600D01*
X155000Y-194600D02*
Y-193400D01*
X162400Y-194000D02*
X163600D01*
X163000Y-194600D02*
Y-193400D01*
X146400Y-186000D02*
X147600D01*
X147000Y-186600D02*
Y-185400D01*
X154400Y-186000D02*
X155600D01*
X155000Y-186600D02*
Y-185400D01*
X162400Y-186000D02*
X163600D01*
X163000Y-186600D02*
Y-185400D01*
X135400Y-148000D02*
X136600D01*
X136000Y-148600D02*
Y-147400D01*
X139400Y-151000D02*
X140600D01*
X140000Y-151600D02*
Y-150400D01*
X143400Y-154000D02*
X144600D01*
X144000Y-154600D02*
Y-153400D01*
X109400Y-250000D02*
X110600D01*
X110000Y-250600D02*
Y-249400D01*
X119400Y-250000D02*
X120600D01*
X120000Y-250600D02*
Y-249400D01*
X114400Y-255000D02*
X115600D01*
X115000Y-255600D02*
Y-254400D01*
X114400Y-267500D02*
X115600D01*
X115000Y-268100D02*
Y-266900D01*
X114400Y-275000D02*
X115600D01*
X115000Y-275600D02*
Y-274400D01*
X114400Y-287500D02*
X115600D01*
X115000Y-288100D02*
Y-286900D01*
X154400Y-275000D02*
X155600D01*
X155000Y-275600D02*
Y-274400D01*
X154400Y-287500D02*
X155600D01*
X155000Y-288100D02*
Y-286900D01*
X154400Y-267500D02*
X155600D01*
X155000Y-268100D02*
Y-266900D01*
X154400Y-255000D02*
X155600D01*
X155000Y-255600D02*
Y-254400D01*
X149400Y-250000D02*
X150600D01*
X150000Y-250600D02*
Y-249400D01*
X159400Y-250000D02*
X160600D01*
X160000Y-250600D02*
Y-249400D01*
X154400Y-245000D02*
X155600D01*
X155000Y-245600D02*
Y-244400D01*
X189400Y-250000D02*
X190600D01*
X190000Y-250600D02*
Y-249400D01*
X199400Y-250000D02*
X200600D01*
X200000Y-250600D02*
Y-249400D01*
X194400Y-255000D02*
X195600D01*
X195000Y-255600D02*
Y-254400D01*
X194400Y-267500D02*
X195600D01*
X195000Y-268100D02*
Y-266900D01*
X194400Y-275000D02*
X195600D01*
X195000Y-275600D02*
Y-274400D01*
X194400Y-287500D02*
X195600D01*
X195000Y-288100D02*
Y-286900D01*
X191900Y-190500D02*
X193100D01*
X192500Y-191100D02*
Y-189900D01*
X171400Y-176000D02*
X172600D01*
X172000Y-176600D02*
Y-175400D01*
X129400Y-175000D02*
X130600D01*
X130000Y-175600D02*
Y-174400D01*
X116900Y-165000D02*
X118100D01*
X117500Y-165600D02*
Y-164400D01*
X104400Y-165000D02*
X105600D01*
X105000Y-165600D02*
Y-164400D01*
X89400Y-165000D02*
X90600D01*
X90000Y-165600D02*
Y-164400D01*
X101900Y-187500D02*
X103100D01*
X102500Y-188100D02*
Y-186900D01*
X94400Y-210000D02*
X95600D01*
X95000Y-210600D02*
Y-209400D01*
X114400Y-210000D02*
X115600D01*
X115000Y-210600D02*
Y-209400D01*
X127900Y-201000D02*
X129100D01*
X128500Y-201600D02*
Y-200400D01*
X173400Y-211500D02*
X174600D01*
X174000Y-212100D02*
Y-210900D01*
X190400Y-218000D02*
X191600D01*
X191000Y-218600D02*
Y-217400D01*
X176900Y-235000D02*
X178100D01*
X177500Y-235600D02*
Y-234400D01*
X135400Y-210000D02*
X136600D01*
X136000Y-210600D02*
Y-209400D01*
X196900Y-180000D02*
X198100D01*
X197500Y-180600D02*
Y-179400D01*
X9400Y-295000D02*
X10600D01*
X10000Y-295600D02*
Y-294400D01*
X24400Y-275000D02*
X25600D01*
X25000Y-275600D02*
Y-274400D01*
X49400Y-295000D02*
X50600D01*
X50000Y-295600D02*
Y-294400D01*
X24400Y-295000D02*
X25600D01*
X25000Y-295600D02*
Y-294400D01*
X74400Y-295000D02*
X75600D01*
X75000Y-295600D02*
Y-294400D01*
X59400Y-275000D02*
X60600D01*
X60000Y-275600D02*
Y-274400D01*
X99400Y-235000D02*
X100600D01*
X100000Y-235600D02*
Y-234400D01*
X59400Y-250000D02*
X60600D01*
X60000Y-250600D02*
Y-249400D01*
X119400Y-230000D02*
X120600D01*
X120000Y-230600D02*
Y-229400D01*
X79400Y-250000D02*
X80600D01*
X80000Y-250600D02*
Y-249400D01*
X299400Y-150000D02*
X300600D01*
X300000Y-150600D02*
Y-149400D01*
X274400Y-150000D02*
X275600D01*
X275000Y-150600D02*
Y-149400D01*
X249400Y-125000D02*
X250600D01*
X250000Y-125600D02*
Y-124400D01*
X249400Y-150000D02*
X250600D01*
X250000Y-150600D02*
Y-149400D01*
X224400Y-150000D02*
X225600D01*
X225000Y-150600D02*
Y-149400D01*
X274400Y-175000D02*
X275600D01*
X275000Y-175600D02*
Y-174400D01*
X249400Y-175000D02*
X250600D01*
X250000Y-175600D02*
Y-174400D01*
X224400Y-125000D02*
X225600D01*
X225000Y-125600D02*
Y-124400D01*
X199400Y-125000D02*
X200600D01*
X200000Y-125600D02*
Y-124400D01*
X199400Y-100000D02*
X200600D01*
X200000Y-100600D02*
Y-99400D01*
X234400Y-65000D02*
X235600D01*
X235000Y-65600D02*
Y-64400D01*
X274400Y-25000D02*
X275600D01*
X275000Y-25600D02*
Y-24400D01*
X287400Y-68000D02*
X288600D01*
X288000Y-68600D02*
Y-67400D01*
X174400Y-125000D02*
X175600D01*
X175000Y-125600D02*
Y-124400D01*
X124400Y-125000D02*
X125600D01*
X125000Y-125600D02*
Y-124400D01*
X149400Y-125000D02*
X150600D01*
X150000Y-125600D02*
Y-124400D01*
X99400Y-125000D02*
X100600D01*
X100000Y-125600D02*
Y-124400D01*
X49400Y-125000D02*
X50600D01*
X50000Y-125600D02*
Y-124400D01*
X49400Y-100000D02*
X50600D01*
X50000Y-100600D02*
Y-99400D01*
X79400Y-235000D02*
X80600D01*
X80000Y-235600D02*
Y-234400D01*
X274400Y-275000D02*
X275600D01*
X275000Y-275600D02*
Y-274400D01*
X274400Y-295000D02*
X275600D01*
X275000Y-295600D02*
Y-294400D01*
X249400Y-295000D02*
X250600D01*
X250000Y-295600D02*
Y-294400D01*
X249400Y-275000D02*
X250600D01*
X250000Y-275600D02*
Y-274400D01*
X274400Y-250000D02*
X275600D01*
X275000Y-250600D02*
Y-249400D01*
X249400Y-225000D02*
X250600D01*
X250000Y-225600D02*
Y-224400D01*
X274400Y-215000D02*
X275600D01*
X275000Y-215600D02*
Y-214400D01*
X249400Y-200000D02*
X250600D01*
X250000Y-200600D02*
Y-199400D01*
X139400Y-230000D02*
X140600D01*
X140000Y-230600D02*
Y-229400D01*
X9400Y-100000D02*
X10600D01*
X10000Y-100600D02*
Y-99400D01*
X9400Y-125000D02*
X10600D01*
X10000Y-125600D02*
Y-124400D01*
X9400Y-75000D02*
X10600D01*
X10000Y-75600D02*
Y-74400D01*
X169400Y-145000D02*
X170600D01*
X170000Y-145600D02*
Y-144400D01*
X50400Y-223500D02*
X51600D01*
X51000Y-224100D02*
Y-222900D01*
X304400Y-90000D02*
X305600D01*
X305000Y-90600D02*
Y-89400D01*
X304400Y-75000D02*
X305600D01*
X305000Y-75600D02*
Y-74400D01*
X304400Y-25000D02*
X305600D01*
X305000Y-25600D02*
Y-24400D01*
X304400Y-50000D02*
X305600D01*
X305000Y-50600D02*
Y-49400D01*
X49400Y-75000D02*
X50600D01*
X50000Y-75600D02*
Y-74400D01*
M02*
