%FSLAX25Y25*%
%MOIN*%
G70*
G01*
G75*
G04 Layer_Color=8421504*
G04:AMPARAMS|DCode=10|XSize=78.74mil|YSize=177.16mil|CornerRadius=0mil|HoleSize=0mil|Usage=FLASHONLY|Rotation=45.000|XOffset=0mil|YOffset=0mil|HoleType=Round|Shape=Rectangle|*
%AMROTATEDRECTD10*
4,1,4,0.03480,-0.09048,-0.09048,0.03480,-0.03480,0.09048,0.09048,-0.03480,0.03480,-0.09048,0.0*
%
%ADD10ROTATEDRECTD10*%

%ADD11R,0.05500X0.04000*%
%ADD12O,0.06000X0.11024*%
%ADD13R,0.06000X0.11024*%
G04:AMPARAMS|DCode=14|XSize=74.8mil|YSize=129.92mil|CornerRadius=0mil|HoleSize=0mil|Usage=FLASHONLY|Rotation=0.000|XOffset=0mil|YOffset=0mil|HoleType=Round|Shape=Octagon|*
%AMOCTAGOND14*
4,1,8,-0.01870,0.06496,0.01870,0.06496,0.03740,0.04626,0.03740,-0.04626,0.01870,-0.06496,-0.01870,-0.06496,-0.03740,-0.04626,-0.03740,0.04626,-0.01870,0.06496,0.0*
%
%ADD14OCTAGOND14*%

%ADD15R,0.02756X0.07087*%
%ADD16R,0.02756X0.05315*%
%ADD17R,0.04000X0.05500*%
%ADD18R,0.06000X0.06000*%
%ADD19R,0.07500X0.10000*%
%ADD20R,0.03500X0.03000*%
%ADD21R,0.06000X0.10000*%
%ADD22R,0.10000X0.06000*%
%ADD23R,0.04725X0.13779*%
%ADD24R,0.04725X0.13779*%
%ADD25R,0.06299X0.01181*%
%ADD26R,0.01181X0.06299*%
%ADD27C,0.02500*%
%ADD28C,0.05000*%
%ADD29C,0.01200*%
%ADD30C,0.01000*%
%ADD31C,0.02000*%
%ADD32C,0.03000*%
%ADD33C,0.01500*%
%ADD34C,0.06000*%
%ADD35R,0.05906X0.05906*%
%ADD36C,0.05906*%
%ADD37C,0.06500*%
%ADD38O,0.07874X0.15748*%
%ADD39O,0.15748X0.07874*%
%ADD40O,0.16535X0.07874*%
%ADD41R,0.10236X0.10236*%
%ADD42C,0.10236*%
%ADD43R,0.09449X0.09449*%
%ADD44C,0.09449*%
%ADD45R,0.05906X0.05906*%
%ADD46C,0.08000*%
%ADD47C,0.02000*%
%ADD48R,0.05000X0.06000*%
%ADD49C,0.00800*%
%ADD50C,0.01600*%
%ADD51C,0.00100*%
%ADD52C,0.01969*%
%ADD53C,0.04000*%
%ADD54C,0.00787*%
%ADD55C,0.00600*%
%ADD56R,0.05000X0.00400*%
%ADD57R,0.00400X0.05000*%
D10*
X177628Y-140128D02*
D03*
X201291Y-163791D02*
D03*
D11*
X105000Y-215500D02*
D03*
Y-207500D02*
D03*
X217500Y-179500D02*
D03*
Y-187500D02*
D03*
X234500D02*
D03*
Y-179500D02*
D03*
X217500Y-199500D02*
D03*
Y-207500D02*
D03*
X234500D02*
D03*
Y-199500D02*
D03*
X164500Y-104000D02*
D03*
Y-112000D02*
D03*
X217500Y-227500D02*
D03*
Y-219500D02*
D03*
X234500D02*
D03*
Y-227500D02*
D03*
X172500Y-104000D02*
D03*
Y-112000D02*
D03*
X139500Y-104000D02*
D03*
Y-112000D02*
D03*
X147500Y-104000D02*
D03*
Y-112000D02*
D03*
X219500Y-280000D02*
D03*
Y-272000D02*
D03*
X179500D02*
D03*
Y-280000D02*
D03*
X114500Y-104000D02*
D03*
Y-112000D02*
D03*
X122500Y-104000D02*
D03*
Y-112000D02*
D03*
X210500Y-280000D02*
D03*
Y-272000D02*
D03*
X170500D02*
D03*
Y-280000D02*
D03*
X89500Y-104000D02*
D03*
Y-112000D02*
D03*
X139500Y-272000D02*
D03*
Y-280000D02*
D03*
X99500Y-272000D02*
D03*
Y-280000D02*
D03*
X97500Y-104000D02*
D03*
Y-112000D02*
D03*
X130500Y-280000D02*
D03*
Y-272000D02*
D03*
X90500Y-280000D02*
D03*
Y-272000D02*
D03*
X156500Y-104000D02*
D03*
Y-112000D02*
D03*
X131500D02*
D03*
Y-104000D02*
D03*
X106500D02*
D03*
Y-112000D02*
D03*
X81500D02*
D03*
Y-104000D02*
D03*
X209000Y-179500D02*
D03*
Y-187500D02*
D03*
X226000D02*
D03*
Y-179500D02*
D03*
X209000Y-199500D02*
D03*
Y-207500D02*
D03*
X226000D02*
D03*
Y-199500D02*
D03*
X209000Y-219500D02*
D03*
Y-227500D02*
D03*
X226000D02*
D03*
Y-219500D02*
D03*
X181000Y-217000D02*
D03*
Y-225000D02*
D03*
X113500Y-203500D02*
D03*
Y-195500D02*
D03*
X239500Y-49000D02*
D03*
Y-41000D02*
D03*
X82000Y-272000D02*
D03*
Y-280000D02*
D03*
X122000Y-272000D02*
D03*
Y-280000D02*
D03*
X108000D02*
D03*
Y-272000D02*
D03*
X148000Y-280000D02*
D03*
Y-272000D02*
D03*
X162000D02*
D03*
Y-280000D02*
D03*
X202000Y-272000D02*
D03*
Y-280000D02*
D03*
X188000D02*
D03*
Y-272000D02*
D03*
X228000Y-280000D02*
D03*
Y-272000D02*
D03*
D12*
X167500Y-37500D02*
D03*
Y-72500D02*
D03*
X157500Y-37500D02*
D03*
X142500D02*
D03*
Y-72500D02*
D03*
X132500Y-37500D02*
D03*
X117500D02*
D03*
Y-72500D02*
D03*
X107500Y-37500D02*
D03*
X92500D02*
D03*
Y-72500D02*
D03*
X82500Y-37500D02*
D03*
D13*
X157500Y-72500D02*
D03*
X132500D02*
D03*
X107500D02*
D03*
X82500D02*
D03*
D14*
X220406Y-38075D02*
D03*
D15*
X220406Y-48114D02*
D03*
D16*
X214500Y-49000D02*
D03*
X226311D02*
D03*
D17*
X228000Y-288000D02*
D03*
X220000D02*
D03*
X180000D02*
D03*
X188000D02*
D03*
X202000D02*
D03*
X210000D02*
D03*
X170000D02*
D03*
X162000D02*
D03*
X148000D02*
D03*
X140000D02*
D03*
X100000D02*
D03*
X108000D02*
D03*
X122000D02*
D03*
X130000D02*
D03*
X90000D02*
D03*
X82000D02*
D03*
X196500Y-49000D02*
D03*
X204500D02*
D03*
Y-40500D02*
D03*
X196500D02*
D03*
X219500Y-264000D02*
D03*
X227500D02*
D03*
X187500D02*
D03*
X179500D02*
D03*
X202500D02*
D03*
X210500D02*
D03*
X170500D02*
D03*
X162500D02*
D03*
X139500D02*
D03*
X147500D02*
D03*
X99500D02*
D03*
X107500D02*
D03*
X130500D02*
D03*
X122500D02*
D03*
X90500D02*
D03*
X82500D02*
D03*
X226000Y-72500D02*
D03*
X218000D02*
D03*
X292000Y-75000D02*
D03*
X284000D02*
D03*
Y-83500D02*
D03*
X292000D02*
D03*
D18*
X312500Y-189000D02*
D03*
X326000D02*
D03*
Y-200000D02*
D03*
X339500D02*
D03*
Y-189000D02*
D03*
X353000D02*
D03*
Y-200000D02*
D03*
X366500D02*
D03*
Y-189000D02*
D03*
X380000D02*
D03*
Y-200000D02*
D03*
X393500D02*
D03*
X312500D02*
D03*
X299000D02*
D03*
X326000Y-239000D02*
D03*
X312500D02*
D03*
X339500Y-250000D02*
D03*
X326000D02*
D03*
X353000Y-239000D02*
D03*
X339500D02*
D03*
X366500Y-250000D02*
D03*
X353000D02*
D03*
X380000Y-239000D02*
D03*
X366500D02*
D03*
X393500Y-250000D02*
D03*
X380000D02*
D03*
X299000D02*
D03*
X312500D02*
D03*
X325500Y-289000D02*
D03*
X312000D02*
D03*
X339000Y-300000D02*
D03*
X325500D02*
D03*
X352500Y-289000D02*
D03*
X339000D02*
D03*
X366000Y-300000D02*
D03*
X352500D02*
D03*
X379500Y-289000D02*
D03*
X366000D02*
D03*
X393000Y-300000D02*
D03*
X379500D02*
D03*
X298500D02*
D03*
X312000D02*
D03*
D19*
X255000Y-69500D02*
D03*
X272000D02*
D03*
Y-83500D02*
D03*
X255000D02*
D03*
D20*
X173500Y-217000D02*
D03*
Y-223500D02*
D03*
X134000Y-215500D02*
D03*
Y-222000D02*
D03*
X121000Y-215500D02*
D03*
Y-209000D02*
D03*
Y-195500D02*
D03*
Y-202000D02*
D03*
X106000Y-200000D02*
D03*
Y-193500D02*
D03*
X127500Y-222000D02*
D03*
Y-215500D02*
D03*
X99500Y-200000D02*
D03*
Y-193500D02*
D03*
D21*
X212500Y-61000D02*
D03*
X226000D02*
D03*
D22*
X251000Y-35500D02*
D03*
Y-49000D02*
D03*
D23*
X293000Y-127264D02*
D03*
D24*
X293000Y-97736D02*
D03*
D25*
X136913Y-205413D02*
D03*
Y-203445D02*
D03*
Y-201476D02*
D03*
Y-199508D02*
D03*
Y-197539D02*
D03*
Y-195571D02*
D03*
Y-193602D02*
D03*
Y-191634D02*
D03*
Y-189665D02*
D03*
Y-187697D02*
D03*
Y-185728D02*
D03*
Y-183760D02*
D03*
X172740D02*
D03*
Y-185728D02*
D03*
Y-187697D02*
D03*
Y-189665D02*
D03*
Y-191634D02*
D03*
Y-193602D02*
D03*
Y-195571D02*
D03*
Y-197539D02*
D03*
Y-199508D02*
D03*
Y-201476D02*
D03*
Y-203445D02*
D03*
Y-205413D02*
D03*
D26*
X144000Y-176673D02*
D03*
X145968D02*
D03*
X147937D02*
D03*
X149906D02*
D03*
X151874D02*
D03*
X153842D02*
D03*
X155811D02*
D03*
X157780D02*
D03*
X159748D02*
D03*
X161716D02*
D03*
X163685D02*
D03*
X165654D02*
D03*
Y-212500D02*
D03*
X163685D02*
D03*
X161716D02*
D03*
X159748D02*
D03*
X157780D02*
D03*
X155811D02*
D03*
X153842D02*
D03*
X151874D02*
D03*
X149906D02*
D03*
X147937D02*
D03*
X145968D02*
D03*
X144000D02*
D03*
M02*
