%FSLAX25Y25*%
%MOIN*%
G70*
G01*
G75*
G04 Layer_Color=32896*
G04:AMPARAMS|DCode=10|XSize=78.74mil|YSize=177.16mil|CornerRadius=0mil|HoleSize=0mil|Usage=FLASHONLY|Rotation=45.000|XOffset=0mil|YOffset=0mil|HoleType=Round|Shape=Rectangle|*
%AMROTATEDRECTD10*
4,1,4,0.03480,-0.09048,-0.09048,0.03480,-0.03480,0.09048,0.09048,-0.03480,0.03480,-0.09048,0.0*
%
%ADD10ROTATEDRECTD10*%

%ADD11R,0.05500X0.04000*%
%ADD12O,0.06000X0.11024*%
%ADD13R,0.06000X0.11024*%
G04:AMPARAMS|DCode=14|XSize=74.8mil|YSize=129.92mil|CornerRadius=0mil|HoleSize=0mil|Usage=FLASHONLY|Rotation=0.000|XOffset=0mil|YOffset=0mil|HoleType=Round|Shape=Octagon|*
%AMOCTAGOND14*
4,1,8,-0.01870,0.06496,0.01870,0.06496,0.03740,0.04626,0.03740,-0.04626,0.01870,-0.06496,-0.01870,-0.06496,-0.03740,-0.04626,-0.03740,0.04626,-0.01870,0.06496,0.0*
%
%ADD14OCTAGOND14*%

%ADD15R,0.02756X0.07087*%
%ADD16R,0.02756X0.05315*%
%ADD17R,0.04000X0.05500*%
%ADD18R,0.06000X0.06000*%
%ADD19R,0.07500X0.10000*%
%ADD20R,0.03500X0.03000*%
%ADD21R,0.06000X0.10000*%
%ADD22R,0.10000X0.06000*%
%ADD23R,0.04725X0.13779*%
%ADD24R,0.04725X0.13779*%
%ADD25R,0.06299X0.01181*%
%ADD26R,0.01181X0.06299*%
%ADD27C,0.02500*%
%ADD28C,0.05000*%
%ADD29C,0.01200*%
%ADD30C,0.01000*%
%ADD31C,0.02000*%
%ADD32C,0.03000*%
%ADD33C,0.01500*%
%ADD34C,0.06000*%
%ADD35R,0.05906X0.05906*%
%ADD36C,0.05906*%
%ADD37C,0.06500*%
%ADD38O,0.07874X0.15748*%
%ADD39O,0.15748X0.07874*%
%ADD40O,0.16535X0.07874*%
%ADD41R,0.10236X0.10236*%
%ADD42C,0.10236*%
%ADD43R,0.09449X0.09449*%
%ADD44C,0.09449*%
%ADD45R,0.05906X0.05906*%
%ADD46C,0.08000*%
%ADD47C,0.02000*%
%ADD48R,0.05000X0.06000*%
%ADD49C,0.00800*%
%ADD50C,0.01600*%
%ADD51C,0.00100*%
%ADD52C,0.01969*%
%ADD53C,0.04000*%
%ADD54C,0.00787*%
%ADD55C,0.00600*%
%ADD56R,0.05000X0.00400*%
%ADD57R,0.00400X0.05000*%
G04:AMPARAMS|DCode=58|XSize=86.74mil|YSize=185.17mil|CornerRadius=0mil|HoleSize=0mil|Usage=FLASHONLY|Rotation=45.000|XOffset=0mil|YOffset=0mil|HoleType=Round|Shape=Rectangle|*
%AMROTATEDRECTD58*
4,1,4,0.03480,-0.09613,-0.09613,0.03480,-0.03480,0.09613,0.09613,-0.03480,0.03480,-0.09613,0.0*
%
%ADD58ROTATEDRECTD58*%

%ADD59R,0.06300X0.04800*%
%ADD60O,0.06800X0.11824*%
%ADD61R,0.06800X0.11824*%
G04:AMPARAMS|DCode=62|XSize=82.8mil|YSize=137.92mil|CornerRadius=0mil|HoleSize=0mil|Usage=FLASHONLY|Rotation=0.000|XOffset=0mil|YOffset=0mil|HoleType=Round|Shape=Octagon|*
%AMOCTAGOND62*
4,1,8,-0.02070,0.06896,0.02070,0.06896,0.04140,0.04826,0.04140,-0.04826,0.02070,-0.06896,-0.02070,-0.06896,-0.04140,-0.04826,-0.04140,0.04826,-0.02070,0.06896,0.0*
%
%ADD62OCTAGOND62*%

%ADD63R,0.03556X0.07887*%
%ADD64R,0.03556X0.06115*%
%ADD65R,0.04800X0.06300*%
%ADD66R,0.06800X0.06800*%
%ADD67R,0.08300X0.10800*%
%ADD68R,0.04300X0.03800*%
%ADD69R,0.06800X0.10800*%
%ADD70R,0.10800X0.06800*%
%ADD71R,0.05525X0.14579*%
%ADD72R,0.05525X0.14579*%
%ADD73R,0.07099X0.01981*%
%ADD74R,0.01981X0.07099*%
%ADD75C,0.06800*%
%ADD76R,0.06706X0.06706*%
%ADD77C,0.06706*%
%ADD78C,0.07300*%
%ADD79O,0.08674X0.16548*%
%ADD80O,0.16548X0.08674*%
%ADD81O,0.17335X0.08674*%
%ADD82R,0.11036X0.11036*%
%ADD83C,0.11036*%
%ADD84R,0.10249X0.10249*%
%ADD85C,0.10249*%
%ADD86R,0.06706X0.06706*%
%ADD87C,0.08800*%
%ADD88R,0.05800X0.06800*%
G36*
X139706Y-301131D02*
X139906Y-301153D01*
X140098Y-301183D01*
X140276Y-301227D01*
X140439Y-301279D01*
X140587Y-301331D01*
X140727Y-301397D01*
X140853Y-301456D01*
X140964Y-301516D01*
X141060Y-301575D01*
X141142Y-301634D01*
X141208Y-301686D01*
X141267Y-301730D01*
X141304Y-301760D01*
X141327Y-301782D01*
X141334Y-301789D01*
X141452Y-301923D01*
X141556Y-302056D01*
X141645Y-302204D01*
X141719Y-302352D01*
X141785Y-302507D01*
X141837Y-302655D01*
X141882Y-302803D01*
X141919Y-302944D01*
X141941Y-303077D01*
X141963Y-303203D01*
X141978Y-303314D01*
X141993Y-303410D01*
Y-303491D01*
X142000Y-303551D01*
Y-303588D01*
Y-303602D01*
X141993Y-303832D01*
X141970Y-304039D01*
X141941Y-304224D01*
X141911Y-304387D01*
X141896Y-304461D01*
X141882Y-304520D01*
X141867Y-304579D01*
X141852Y-304624D01*
X141837Y-304661D01*
X141830Y-304683D01*
X141822Y-304698D01*
Y-304705D01*
X141748Y-304875D01*
X141667Y-305023D01*
X141586Y-305156D01*
X141497Y-305267D01*
X141423Y-305356D01*
X141364Y-305423D01*
X141327Y-305467D01*
X141312Y-305475D01*
Y-305482D01*
X141186Y-305593D01*
X141053Y-305689D01*
X140920Y-305763D01*
X140794Y-305830D01*
X140683Y-305882D01*
X140594Y-305919D01*
X140564Y-305933D01*
X140542Y-305941D01*
X140527Y-305948D01*
X140520D01*
X140342Y-306000D01*
X140165Y-306037D01*
X139987Y-306059D01*
X139832Y-306074D01*
X139691Y-306089D01*
X139639D01*
X139588Y-306096D01*
X139491D01*
X139329Y-306089D01*
X139173Y-306074D01*
X139018Y-306052D01*
X138885Y-306030D01*
X138766Y-306007D01*
X138714Y-305993D01*
X138677Y-305985D01*
X138640Y-305978D01*
X138618Y-305970D01*
X138603Y-305963D01*
X138596D01*
X138426Y-305911D01*
X138263Y-305859D01*
X138122Y-305808D01*
X137989Y-305756D01*
X137886Y-305719D01*
X137804Y-305682D01*
X137775Y-305667D01*
X137752Y-305660D01*
X137745Y-305652D01*
X137738D01*
Y-303595D01*
X139647D01*
Y-304157D01*
X138367D01*
Y-305334D01*
X138552Y-305401D01*
X138640Y-305423D01*
X138729Y-305445D01*
X138803Y-305467D01*
X138862Y-305482D01*
X138899Y-305489D01*
X138914D01*
X139136Y-305526D01*
X139240Y-305534D01*
X139336Y-305541D01*
X139417Y-305549D01*
X139528D01*
X139684Y-305541D01*
X139824Y-305526D01*
X139958Y-305504D01*
X140091Y-305467D01*
X140209Y-305430D01*
X140313Y-305386D01*
X140416Y-305341D01*
X140505Y-305290D01*
X140587Y-305245D01*
X140653Y-305201D01*
X140712Y-305156D01*
X140764Y-305119D01*
X140801Y-305082D01*
X140831Y-305060D01*
X140846Y-305045D01*
X140853Y-305038D01*
X140942Y-304934D01*
X141016Y-304823D01*
X141082Y-304712D01*
X141134Y-304594D01*
X141186Y-304468D01*
X141223Y-304350D01*
X141282Y-304120D01*
X141297Y-304009D01*
X141312Y-303913D01*
X141327Y-303817D01*
X141334Y-303743D01*
X141341Y-303676D01*
Y-303632D01*
Y-303595D01*
Y-303588D01*
X141334Y-303425D01*
X141319Y-303277D01*
X141297Y-303129D01*
X141267Y-302996D01*
X141230Y-302870D01*
X141193Y-302759D01*
X141149Y-302655D01*
X141105Y-302559D01*
X141068Y-302470D01*
X141023Y-302396D01*
X140986Y-302337D01*
X140949Y-302285D01*
X140920Y-302241D01*
X140897Y-302211D01*
X140883Y-302196D01*
X140875Y-302189D01*
X140786Y-302100D01*
X140683Y-302019D01*
X140587Y-301952D01*
X140483Y-301886D01*
X140372Y-301841D01*
X140268Y-301797D01*
X140165Y-301760D01*
X140061Y-301738D01*
X139972Y-301715D01*
X139884Y-301701D01*
X139802Y-301686D01*
X139736Y-301678D01*
X139676Y-301671D01*
X139469D01*
X139351Y-301678D01*
X139247Y-301693D01*
X139151Y-301701D01*
X139077Y-301715D01*
X139018Y-301730D01*
X138981Y-301738D01*
X138966D01*
X138862Y-301760D01*
X138766Y-301789D01*
X138685Y-301819D01*
X138611Y-301841D01*
X138544Y-301863D01*
X138500Y-301886D01*
X138470Y-301893D01*
X138463Y-301900D01*
X138330Y-301974D01*
X138263Y-302004D01*
X138211Y-302041D01*
X138159Y-302071D01*
X138122Y-302093D01*
X138100Y-302108D01*
X138093Y-302115D01*
X138026Y-302159D01*
X137967Y-302196D01*
X137915Y-302226D01*
X137871Y-302256D01*
X137841Y-302278D01*
X137819Y-302293D01*
X137804Y-302307D01*
X137738D01*
Y-301560D01*
X137923Y-301479D01*
X138093Y-301405D01*
X138248Y-301353D01*
X138389Y-301301D01*
X138500Y-301271D01*
X138544Y-301257D01*
X138589Y-301242D01*
X138618Y-301234D01*
X138640D01*
X138655Y-301227D01*
X138663D01*
X138818Y-301190D01*
X138973Y-301168D01*
X139107Y-301146D01*
X139232Y-301138D01*
X139343Y-301131D01*
X139417Y-301123D01*
X139491D01*
X139706Y-301131D01*
D02*
G37*
G36*
X131707Y-306000D02*
X130500D01*
X130264Y-305993D01*
X130056Y-305985D01*
X129879Y-305970D01*
X129797Y-305963D01*
X129723Y-305956D01*
X129657Y-305948D01*
X129605Y-305941D01*
X129553Y-305933D01*
X129516Y-305926D01*
X129487Y-305919D01*
X129457Y-305911D01*
X129442D01*
X129294Y-305874D01*
X129154Y-305830D01*
X129028Y-305778D01*
X128924Y-305734D01*
X128835Y-305689D01*
X128769Y-305652D01*
X128724Y-305630D01*
X128710Y-305623D01*
X128539Y-305504D01*
X128391Y-305371D01*
X128266Y-305230D01*
X128155Y-305097D01*
X128066Y-304986D01*
X128036Y-304934D01*
X128007Y-304890D01*
X127984Y-304853D01*
X127970Y-304823D01*
X127955Y-304809D01*
Y-304801D01*
X127859Y-304594D01*
X127785Y-304394D01*
X127733Y-304194D01*
X127703Y-304009D01*
X127688Y-303928D01*
X127681Y-303854D01*
X127674Y-303787D01*
Y-303728D01*
X127666Y-303684D01*
Y-303647D01*
Y-303625D01*
Y-303617D01*
X127681Y-303366D01*
X127711Y-303136D01*
X127755Y-302929D01*
X127777Y-302840D01*
X127799Y-302759D01*
X127829Y-302677D01*
X127851Y-302611D01*
X127873Y-302559D01*
X127896Y-302507D01*
X127918Y-302470D01*
X127925Y-302441D01*
X127940Y-302426D01*
Y-302418D01*
X128051Y-302233D01*
X128177Y-302078D01*
X128303Y-301937D01*
X128421Y-301819D01*
X128532Y-301730D01*
X128621Y-301656D01*
X128658Y-301634D01*
X128680Y-301619D01*
X128695Y-301604D01*
X128702D01*
X128813Y-301538D01*
X128932Y-301486D01*
X129050Y-301434D01*
X129161Y-301397D01*
X129257Y-301368D01*
X129339Y-301345D01*
X129368Y-301331D01*
X129383D01*
X129398Y-301323D01*
X129405D01*
X129568Y-301286D01*
X129753Y-301264D01*
X129938Y-301242D01*
X130116Y-301234D01*
X130197Y-301227D01*
X130271D01*
X130338Y-301220D01*
X131707D01*
Y-306000D01*
D02*
G37*
G36*
X283857Y-12684D02*
X283709Y-12654D01*
X283635Y-12647D01*
X283568Y-12632D01*
X283501Y-12625D01*
X283457Y-12617D01*
X283427Y-12610D01*
X283413D01*
X283213Y-12580D01*
X283124Y-12573D01*
X283035D01*
X282969Y-12565D01*
X282754D01*
X282658Y-12573D01*
X282569Y-12580D01*
X282488Y-12588D01*
X282421Y-12602D01*
X282377Y-12610D01*
X282340Y-12617D01*
X282332D01*
X282243Y-12639D01*
X282162Y-12669D01*
X282095Y-12691D01*
X282036Y-12721D01*
X281992Y-12750D01*
X281955Y-12765D01*
X281933Y-12780D01*
X281925Y-12787D01*
X281822Y-12876D01*
X281748Y-12965D01*
X281725Y-13002D01*
X281703Y-13032D01*
X281688Y-13054D01*
Y-13061D01*
X281659Y-13128D01*
X281637Y-13202D01*
X281622Y-13268D01*
X281607Y-13335D01*
Y-13394D01*
X281600Y-13439D01*
Y-13468D01*
Y-13483D01*
Y-13572D01*
X281614Y-13661D01*
X281622Y-13735D01*
X281637Y-13801D01*
X281651Y-13853D01*
X281659Y-13890D01*
X281674Y-13920D01*
Y-13927D01*
X281740Y-14060D01*
X281777Y-14112D01*
X281807Y-14164D01*
X281836Y-14201D01*
X281866Y-14230D01*
X281881Y-14245D01*
X281888Y-14253D01*
X281955Y-14312D01*
X282021Y-14356D01*
X282088Y-14393D01*
X282147Y-14430D01*
X282199Y-14452D01*
X282236Y-14467D01*
X282266Y-14482D01*
X282273D01*
X282428Y-14519D01*
X282502Y-14526D01*
X282569Y-14534D01*
X282628Y-14541D01*
X282710D01*
X282835Y-14534D01*
X282961Y-14526D01*
X283080Y-14504D01*
X283183Y-14482D01*
X283272Y-14467D01*
X283346Y-14445D01*
X283390Y-14438D01*
X283398Y-14430D01*
X283405D01*
X283531Y-14386D01*
X283649Y-14334D01*
X283753Y-14290D01*
X283842Y-14238D01*
X283916Y-14201D01*
X283975Y-14171D01*
X284005Y-14149D01*
X284019Y-14142D01*
X284064D01*
Y-14822D01*
X283968Y-14859D01*
X283864Y-14896D01*
X283768Y-14933D01*
X283672Y-14963D01*
X283583Y-14985D01*
X283516Y-15000D01*
X283472Y-15007D01*
X283464Y-15015D01*
X283457D01*
X283324Y-15044D01*
X283183Y-15059D01*
X283057Y-15074D01*
X282946Y-15089D01*
X282843D01*
X282769Y-15096D01*
X282702D01*
X282547Y-15089D01*
X282406Y-15074D01*
X282280Y-15059D01*
X282177Y-15037D01*
X282088Y-15015D01*
X282021Y-14993D01*
X281977Y-14985D01*
X281962Y-14978D01*
X281844Y-14926D01*
X281740Y-14874D01*
X281644Y-14815D01*
X281563Y-14763D01*
X281496Y-14711D01*
X281444Y-14674D01*
X281415Y-14645D01*
X281407Y-14637D01*
X281333Y-14556D01*
X281267Y-14467D01*
X281207Y-14378D01*
X281163Y-14297D01*
X281126Y-14223D01*
X281096Y-14171D01*
X281082Y-14134D01*
X281074Y-14119D01*
X281030Y-14008D01*
X281000Y-13890D01*
X280978Y-13786D01*
X280963Y-13690D01*
X280956Y-13601D01*
X280948Y-13542D01*
Y-13498D01*
Y-13483D01*
X280956Y-13335D01*
X280971Y-13194D01*
X280993Y-13076D01*
X281022Y-12980D01*
X281052Y-12898D01*
X281074Y-12839D01*
X281089Y-12802D01*
X281096Y-12787D01*
X281156Y-12684D01*
X281215Y-12595D01*
X281281Y-12521D01*
X281348Y-12454D01*
X281407Y-12403D01*
X281452Y-12358D01*
X281481Y-12336D01*
X281496Y-12329D01*
X281592Y-12269D01*
X281681Y-12218D01*
X281777Y-12181D01*
X281859Y-12144D01*
X281933Y-12121D01*
X281984Y-12107D01*
X282021Y-12092D01*
X282036D01*
X282147Y-12070D01*
X282266Y-12055D01*
X282377Y-12040D01*
X282480Y-12033D01*
X282569Y-12025D01*
X282880D01*
X282917Y-12033D01*
X282969D01*
X283072Y-12040D01*
X283161Y-12047D01*
X283191D01*
X283220Y-12055D01*
X283242D01*
Y-10782D01*
X280978D01*
Y-10220D01*
X283857D01*
Y-12684D01*
D02*
G37*
G36*
X99706Y-301131D02*
X99906Y-301153D01*
X100098Y-301183D01*
X100276Y-301227D01*
X100439Y-301279D01*
X100587Y-301331D01*
X100727Y-301397D01*
X100853Y-301456D01*
X100964Y-301516D01*
X101060Y-301575D01*
X101142Y-301634D01*
X101208Y-301686D01*
X101267Y-301730D01*
X101304Y-301760D01*
X101327Y-301782D01*
X101334Y-301789D01*
X101452Y-301923D01*
X101556Y-302056D01*
X101645Y-302204D01*
X101719Y-302352D01*
X101785Y-302507D01*
X101837Y-302655D01*
X101882Y-302803D01*
X101919Y-302944D01*
X101941Y-303077D01*
X101963Y-303203D01*
X101978Y-303314D01*
X101993Y-303410D01*
Y-303491D01*
X102000Y-303551D01*
Y-303588D01*
Y-303602D01*
X101993Y-303832D01*
X101970Y-304039D01*
X101941Y-304224D01*
X101911Y-304387D01*
X101896Y-304461D01*
X101882Y-304520D01*
X101867Y-304579D01*
X101852Y-304624D01*
X101837Y-304661D01*
X101830Y-304683D01*
X101822Y-304698D01*
Y-304705D01*
X101748Y-304875D01*
X101667Y-305023D01*
X101586Y-305156D01*
X101497Y-305267D01*
X101423Y-305356D01*
X101364Y-305423D01*
X101327Y-305467D01*
X101312Y-305475D01*
Y-305482D01*
X101186Y-305593D01*
X101053Y-305689D01*
X100920Y-305763D01*
X100794Y-305830D01*
X100683Y-305882D01*
X100594Y-305919D01*
X100564Y-305933D01*
X100542Y-305941D01*
X100527Y-305948D01*
X100520D01*
X100342Y-306000D01*
X100165Y-306037D01*
X99987Y-306059D01*
X99832Y-306074D01*
X99691Y-306089D01*
X99639D01*
X99588Y-306096D01*
X99491D01*
X99329Y-306089D01*
X99173Y-306074D01*
X99018Y-306052D01*
X98885Y-306030D01*
X98766Y-306007D01*
X98714Y-305993D01*
X98677Y-305985D01*
X98640Y-305978D01*
X98618Y-305970D01*
X98603Y-305963D01*
X98596D01*
X98426Y-305911D01*
X98263Y-305859D01*
X98122Y-305808D01*
X97989Y-305756D01*
X97886Y-305719D01*
X97804Y-305682D01*
X97775Y-305667D01*
X97752Y-305660D01*
X97745Y-305652D01*
X97738D01*
Y-303595D01*
X99647D01*
Y-304157D01*
X98367D01*
Y-305334D01*
X98552Y-305401D01*
X98640Y-305423D01*
X98729Y-305445D01*
X98803Y-305467D01*
X98862Y-305482D01*
X98899Y-305489D01*
X98914D01*
X99136Y-305526D01*
X99240Y-305534D01*
X99336Y-305541D01*
X99417Y-305549D01*
X99528D01*
X99684Y-305541D01*
X99824Y-305526D01*
X99958Y-305504D01*
X100091Y-305467D01*
X100209Y-305430D01*
X100313Y-305386D01*
X100416Y-305341D01*
X100505Y-305290D01*
X100587Y-305245D01*
X100653Y-305201D01*
X100712Y-305156D01*
X100764Y-305119D01*
X100801Y-305082D01*
X100831Y-305060D01*
X100846Y-305045D01*
X100853Y-305038D01*
X100942Y-304934D01*
X101016Y-304823D01*
X101082Y-304712D01*
X101134Y-304594D01*
X101186Y-304468D01*
X101223Y-304350D01*
X101282Y-304120D01*
X101297Y-304009D01*
X101312Y-303913D01*
X101327Y-303817D01*
X101334Y-303743D01*
X101341Y-303676D01*
Y-303632D01*
Y-303595D01*
Y-303588D01*
X101334Y-303425D01*
X101319Y-303277D01*
X101297Y-303129D01*
X101267Y-302996D01*
X101230Y-302870D01*
X101193Y-302759D01*
X101149Y-302655D01*
X101105Y-302559D01*
X101068Y-302470D01*
X101023Y-302396D01*
X100986Y-302337D01*
X100949Y-302285D01*
X100920Y-302241D01*
X100897Y-302211D01*
X100883Y-302196D01*
X100875Y-302189D01*
X100786Y-302100D01*
X100683Y-302019D01*
X100587Y-301952D01*
X100483Y-301886D01*
X100372Y-301841D01*
X100268Y-301797D01*
X100165Y-301760D01*
X100061Y-301738D01*
X99972Y-301715D01*
X99884Y-301701D01*
X99802Y-301686D01*
X99736Y-301678D01*
X99676Y-301671D01*
X99469D01*
X99351Y-301678D01*
X99247Y-301693D01*
X99151Y-301701D01*
X99077Y-301715D01*
X99018Y-301730D01*
X98981Y-301738D01*
X98966D01*
X98862Y-301760D01*
X98766Y-301789D01*
X98685Y-301819D01*
X98611Y-301841D01*
X98544Y-301863D01*
X98500Y-301886D01*
X98470Y-301893D01*
X98463Y-301900D01*
X98330Y-301974D01*
X98263Y-302004D01*
X98211Y-302041D01*
X98159Y-302071D01*
X98122Y-302093D01*
X98100Y-302108D01*
X98093Y-302115D01*
X98026Y-302159D01*
X97967Y-302196D01*
X97915Y-302226D01*
X97871Y-302256D01*
X97841Y-302278D01*
X97819Y-302293D01*
X97804Y-302307D01*
X97738D01*
Y-301560D01*
X97923Y-301479D01*
X98093Y-301405D01*
X98248Y-301353D01*
X98389Y-301301D01*
X98500Y-301271D01*
X98544Y-301257D01*
X98589Y-301242D01*
X98618Y-301234D01*
X98640D01*
X98655Y-301227D01*
X98663D01*
X98818Y-301190D01*
X98973Y-301168D01*
X99107Y-301146D01*
X99232Y-301138D01*
X99343Y-301131D01*
X99417Y-301123D01*
X99491D01*
X99706Y-301131D01*
D02*
G37*
G36*
X91707Y-306000D02*
X90500D01*
X90264Y-305993D01*
X90056Y-305985D01*
X89879Y-305970D01*
X89797Y-305963D01*
X89723Y-305956D01*
X89657Y-305948D01*
X89605Y-305941D01*
X89553Y-305933D01*
X89516Y-305926D01*
X89487Y-305919D01*
X89457Y-305911D01*
X89442D01*
X89294Y-305874D01*
X89154Y-305830D01*
X89028Y-305778D01*
X88924Y-305734D01*
X88835Y-305689D01*
X88769Y-305652D01*
X88724Y-305630D01*
X88710Y-305623D01*
X88539Y-305504D01*
X88391Y-305371D01*
X88266Y-305230D01*
X88155Y-305097D01*
X88066Y-304986D01*
X88036Y-304934D01*
X88007Y-304890D01*
X87984Y-304853D01*
X87970Y-304823D01*
X87955Y-304809D01*
Y-304801D01*
X87859Y-304594D01*
X87785Y-304394D01*
X87733Y-304194D01*
X87703Y-304009D01*
X87688Y-303928D01*
X87681Y-303854D01*
X87674Y-303787D01*
Y-303728D01*
X87666Y-303684D01*
Y-303647D01*
Y-303625D01*
Y-303617D01*
X87681Y-303366D01*
X87711Y-303136D01*
X87755Y-302929D01*
X87777Y-302840D01*
X87799Y-302759D01*
X87829Y-302677D01*
X87851Y-302611D01*
X87873Y-302559D01*
X87896Y-302507D01*
X87918Y-302470D01*
X87925Y-302441D01*
X87940Y-302426D01*
Y-302418D01*
X88051Y-302233D01*
X88177Y-302078D01*
X88303Y-301937D01*
X88421Y-301819D01*
X88532Y-301730D01*
X88621Y-301656D01*
X88658Y-301634D01*
X88680Y-301619D01*
X88695Y-301604D01*
X88702D01*
X88813Y-301538D01*
X88932Y-301486D01*
X89050Y-301434D01*
X89161Y-301397D01*
X89257Y-301368D01*
X89339Y-301345D01*
X89368Y-301331D01*
X89383D01*
X89398Y-301323D01*
X89405D01*
X89568Y-301286D01*
X89753Y-301264D01*
X89938Y-301242D01*
X90116Y-301234D01*
X90197Y-301227D01*
X90271D01*
X90338Y-301220D01*
X91707D01*
Y-306000D01*
D02*
G37*
G36*
X136628D02*
X136036D01*
Y-301730D01*
X133771Y-306000D01*
X132979D01*
Y-301220D01*
X133571D01*
Y-305127D01*
X135643Y-301220D01*
X136628D01*
Y-306000D01*
D02*
G37*
G36*
X259962Y-15000D02*
X259111D01*
X257365Y-10220D01*
X258016D01*
X259518Y-14438D01*
X261028Y-10220D01*
X261701D01*
X259962Y-15000D01*
D02*
G37*
G36*
X289059Y-10131D02*
X289236Y-10153D01*
X289399Y-10175D01*
X289547Y-10205D01*
X289666Y-10242D01*
X289710Y-10257D01*
X289754Y-10264D01*
X289784Y-10279D01*
X289806Y-10286D01*
X289821Y-10294D01*
X289828D01*
X289984Y-10360D01*
X290124Y-10434D01*
X290250Y-10516D01*
X290354Y-10590D01*
X290443Y-10664D01*
X290509Y-10715D01*
X290546Y-10752D01*
X290561Y-10767D01*
X290672Y-10893D01*
X290768Y-11026D01*
X290850Y-11159D01*
X290916Y-11285D01*
X290968Y-11396D01*
X291012Y-11478D01*
X291027Y-11515D01*
X291035Y-11537D01*
X291042Y-11552D01*
Y-11559D01*
X291094Y-11737D01*
X291138Y-11922D01*
X291168Y-12099D01*
X291183Y-12262D01*
X291190Y-12336D01*
X291197Y-12403D01*
Y-12462D01*
X291205Y-12514D01*
Y-12558D01*
Y-12588D01*
Y-12610D01*
Y-12617D01*
X291197Y-12839D01*
X291175Y-13054D01*
X291153Y-13239D01*
X291116Y-13394D01*
X291101Y-13468D01*
X291086Y-13527D01*
X291072Y-13587D01*
X291064Y-13631D01*
X291049Y-13668D01*
X291042Y-13690D01*
X291035Y-13705D01*
Y-13712D01*
X290968Y-13883D01*
X290887Y-14031D01*
X290805Y-14164D01*
X290731Y-14275D01*
X290657Y-14364D01*
X290605Y-14430D01*
X290568Y-14475D01*
X290554Y-14489D01*
X290428Y-14600D01*
X290302Y-14689D01*
X290176Y-14771D01*
X290065Y-14837D01*
X289962Y-14882D01*
X289888Y-14919D01*
X289858Y-14933D01*
X289836Y-14941D01*
X289821Y-14948D01*
X289814D01*
X289651Y-14993D01*
X289481Y-15030D01*
X289325Y-15052D01*
X289177Y-15074D01*
X289051Y-15081D01*
X289000D01*
X288955Y-15089D01*
X288763D01*
X288674Y-15081D01*
X288585Y-15074D01*
X288511Y-15067D01*
X288452Y-15059D01*
X288400Y-15052D01*
X288371Y-15044D01*
X288363D01*
X288200Y-15007D01*
X288126Y-14993D01*
X288060Y-14978D01*
X288008Y-14963D01*
X287971Y-14956D01*
X287941Y-14948D01*
X287934D01*
X287853Y-14919D01*
X287779Y-14896D01*
X287719Y-14874D01*
X287660Y-14852D01*
X287623Y-14830D01*
X287586Y-14822D01*
X287571Y-14808D01*
X287564D01*
X287453Y-14756D01*
X287342Y-14704D01*
X287305Y-14689D01*
X287268Y-14674D01*
X287246Y-14660D01*
X287238D01*
Y-13912D01*
X287290D01*
X287423Y-14023D01*
X287557Y-14119D01*
X287682Y-14201D01*
X287801Y-14267D01*
X287897Y-14319D01*
X287978Y-14356D01*
X288008Y-14371D01*
X288030Y-14378D01*
X288038Y-14386D01*
X288045D01*
X288193Y-14438D01*
X288348Y-14475D01*
X288489Y-14504D01*
X288622Y-14519D01*
X288741Y-14534D01*
X288785D01*
X288822Y-14541D01*
X288903D01*
X289029Y-14534D01*
X289140Y-14526D01*
X289251Y-14504D01*
X289347Y-14482D01*
X289429Y-14467D01*
X289488Y-14445D01*
X289525Y-14438D01*
X289540Y-14430D01*
X289643Y-14386D01*
X289747Y-14327D01*
X289836Y-14267D01*
X289910Y-14208D01*
X289969Y-14156D01*
X290021Y-14112D01*
X290050Y-14082D01*
X290058Y-14075D01*
X290139Y-13986D01*
X290206Y-13890D01*
X290265Y-13794D01*
X290317Y-13698D01*
X290361Y-13616D01*
X290391Y-13550D01*
X290406Y-13505D01*
X290413Y-13498D01*
Y-13490D01*
X290457Y-13350D01*
X290487Y-13194D01*
X290517Y-13054D01*
X290531Y-12913D01*
X290539Y-12795D01*
Y-12743D01*
X290546Y-12699D01*
Y-12669D01*
Y-12639D01*
Y-12625D01*
Y-12617D01*
X290539Y-12440D01*
X290524Y-12284D01*
X290509Y-12136D01*
X290487Y-12010D01*
X290465Y-11907D01*
X290443Y-11833D01*
X290435Y-11803D01*
Y-11781D01*
X290428Y-11774D01*
Y-11766D01*
X290376Y-11633D01*
X290317Y-11515D01*
X290265Y-11411D01*
X290206Y-11322D01*
X290154Y-11256D01*
X290117Y-11204D01*
X290087Y-11167D01*
X290080Y-11159D01*
X289991Y-11071D01*
X289902Y-10997D01*
X289814Y-10930D01*
X289732Y-10878D01*
X289666Y-10841D01*
X289614Y-10812D01*
X289577Y-10797D01*
X289562Y-10789D01*
X289451Y-10752D01*
X289340Y-10723D01*
X289229Y-10701D01*
X289125Y-10686D01*
X289044Y-10678D01*
X288970Y-10671D01*
X288911D01*
X288748Y-10678D01*
X288593Y-10693D01*
X288452Y-10723D01*
X288326Y-10745D01*
X288223Y-10775D01*
X288141Y-10804D01*
X288112Y-10812D01*
X288089Y-10819D01*
X288082Y-10826D01*
X288075D01*
X287927Y-10886D01*
X287786Y-10960D01*
X287653Y-11041D01*
X287534Y-11115D01*
X287438Y-11189D01*
X287357Y-11248D01*
X287327Y-11270D01*
X287305Y-11285D01*
X287298Y-11293D01*
X287290Y-11300D01*
X287238D01*
Y-10545D01*
X287409Y-10464D01*
X287571Y-10397D01*
X287719Y-10338D01*
X287845Y-10294D01*
X287949Y-10264D01*
X288030Y-10234D01*
X288060Y-10227D01*
X288082D01*
X288089Y-10220D01*
X288097D01*
X288237Y-10190D01*
X288378Y-10160D01*
X288511Y-10146D01*
X288622Y-10138D01*
X288726Y-10131D01*
X288800Y-10123D01*
X288866D01*
X289059Y-10131D01*
D02*
G37*
G36*
X296000Y-15000D02*
X294794D01*
X294557Y-14993D01*
X294350Y-14985D01*
X294172Y-14970D01*
X294091Y-14963D01*
X294017Y-14956D01*
X293950Y-14948D01*
X293898Y-14941D01*
X293847Y-14933D01*
X293810Y-14926D01*
X293780Y-14919D01*
X293750Y-14911D01*
X293736D01*
X293588Y-14874D01*
X293447Y-14830D01*
X293321Y-14778D01*
X293218Y-14734D01*
X293129Y-14689D01*
X293062Y-14652D01*
X293018Y-14630D01*
X293003Y-14623D01*
X292833Y-14504D01*
X292685Y-14371D01*
X292559Y-14230D01*
X292448Y-14097D01*
X292359Y-13986D01*
X292330Y-13934D01*
X292300Y-13890D01*
X292278Y-13853D01*
X292263Y-13823D01*
X292248Y-13809D01*
Y-13801D01*
X292152Y-13594D01*
X292078Y-13394D01*
X292026Y-13194D01*
X291997Y-13009D01*
X291982Y-12928D01*
X291974Y-12854D01*
X291967Y-12787D01*
Y-12728D01*
X291960Y-12684D01*
Y-12647D01*
Y-12625D01*
Y-12617D01*
X291974Y-12366D01*
X292004Y-12136D01*
X292048Y-11929D01*
X292071Y-11840D01*
X292093Y-11759D01*
X292122Y-11677D01*
X292145Y-11611D01*
X292167Y-11559D01*
X292189Y-11507D01*
X292211Y-11470D01*
X292219Y-11441D01*
X292233Y-11426D01*
Y-11418D01*
X292344Y-11233D01*
X292470Y-11078D01*
X292596Y-10937D01*
X292714Y-10819D01*
X292825Y-10730D01*
X292914Y-10656D01*
X292951Y-10634D01*
X292973Y-10619D01*
X292988Y-10604D01*
X292996D01*
X293107Y-10538D01*
X293225Y-10486D01*
X293343Y-10434D01*
X293454Y-10397D01*
X293551Y-10368D01*
X293632Y-10345D01*
X293662Y-10331D01*
X293676D01*
X293691Y-10323D01*
X293699D01*
X293861Y-10286D01*
X294046Y-10264D01*
X294231Y-10242D01*
X294409Y-10234D01*
X294490Y-10227D01*
X294564D01*
X294631Y-10220D01*
X296000D01*
Y-15000D01*
D02*
G37*
G36*
X272009Y-12033D02*
X272113Y-12047D01*
X272202Y-12070D01*
X272283Y-12099D01*
X272342Y-12129D01*
X272394Y-12151D01*
X272424Y-12166D01*
X272431Y-12173D01*
X272512Y-12232D01*
X272579Y-12299D01*
X272646Y-12358D01*
X272697Y-12417D01*
X272734Y-12477D01*
X272771Y-12521D01*
X272786Y-12551D01*
X272794Y-12558D01*
X272882Y-12750D01*
X272919Y-12847D01*
X272949Y-12928D01*
X272971Y-13002D01*
X272986Y-13061D01*
X273001Y-13098D01*
Y-13113D01*
X273038Y-13335D01*
X273053Y-13446D01*
X273060Y-13535D01*
Y-13616D01*
X273067Y-13683D01*
Y-13720D01*
Y-13727D01*
Y-13735D01*
X272535D01*
X272527Y-13624D01*
X272520Y-13513D01*
X272512Y-13416D01*
X272498Y-13328D01*
X272483Y-13246D01*
X272468Y-13172D01*
X272453Y-13106D01*
X272431Y-13046D01*
X272401Y-12943D01*
X272372Y-12876D01*
X272357Y-12839D01*
X272350Y-12824D01*
X272283Y-12728D01*
X272209Y-12654D01*
X272128Y-12602D01*
X272054Y-12573D01*
X271987Y-12551D01*
X271935Y-12543D01*
X271898Y-12536D01*
X271883D01*
X271824Y-12543D01*
X271772Y-12551D01*
X271676Y-12588D01*
X271632Y-12610D01*
X271602Y-12625D01*
X271587Y-12632D01*
X271580Y-12639D01*
X271513Y-12691D01*
X271439Y-12765D01*
X271365Y-12847D01*
X271284Y-12935D01*
X271210Y-13017D01*
X271151Y-13083D01*
X271129Y-13113D01*
X271114Y-13135D01*
X271099Y-13143D01*
Y-13150D01*
X271003Y-13261D01*
X270907Y-13357D01*
X270825Y-13439D01*
X270744Y-13498D01*
X270685Y-13542D01*
X270640Y-13579D01*
X270603Y-13594D01*
X270596Y-13601D01*
X270507Y-13646D01*
X270411Y-13675D01*
X270322Y-13698D01*
X270241Y-13712D01*
X270167Y-13720D01*
X270115Y-13727D01*
X270063D01*
X269945Y-13720D01*
X269841Y-13705D01*
X269752Y-13683D01*
X269671Y-13653D01*
X269612Y-13631D01*
X269567Y-13609D01*
X269538Y-13594D01*
X269530Y-13587D01*
X269456Y-13527D01*
X269390Y-13468D01*
X269323Y-13402D01*
X269271Y-13342D01*
X269234Y-13283D01*
X269205Y-13239D01*
X269182Y-13209D01*
X269175Y-13202D01*
X269123Y-13106D01*
X269079Y-13009D01*
X269042Y-12921D01*
X269012Y-12839D01*
X268990Y-12765D01*
X268975Y-12706D01*
X268960Y-12669D01*
Y-12654D01*
X268923Y-12425D01*
X268909Y-12321D01*
X268901Y-12225D01*
X268894Y-12144D01*
X268886Y-12077D01*
Y-12040D01*
Y-12025D01*
X269419D01*
X269434Y-12218D01*
X269449Y-12395D01*
X269478Y-12543D01*
X269508Y-12669D01*
X269538Y-12765D01*
X269567Y-12839D01*
X269582Y-12884D01*
X269589Y-12891D01*
Y-12898D01*
X269619Y-12958D01*
X269656Y-13002D01*
X269730Y-13083D01*
X269811Y-13135D01*
X269893Y-13180D01*
X269967Y-13202D01*
X270026Y-13209D01*
X270063Y-13217D01*
X270078D01*
X270144Y-13209D01*
X270211Y-13194D01*
X270278Y-13172D01*
X270329Y-13143D01*
X270374Y-13120D01*
X270403Y-13098D01*
X270426Y-13083D01*
X270433Y-13076D01*
X270500Y-13017D01*
X270566Y-12943D01*
X270640Y-12861D01*
X270707Y-12787D01*
X270766Y-12721D01*
X270810Y-12662D01*
X270840Y-12625D01*
X270855Y-12610D01*
X270958Y-12491D01*
X271047Y-12395D01*
X271136Y-12321D01*
X271210Y-12255D01*
X271277Y-12210D01*
X271321Y-12173D01*
X271358Y-12158D01*
X271365Y-12151D01*
X271454Y-12107D01*
X271550Y-12077D01*
X271639Y-12055D01*
X271721Y-12040D01*
X271795Y-12033D01*
X271846Y-12025D01*
X271898D01*
X272009Y-12033D01*
D02*
G37*
G36*
X264076Y-10131D02*
X264195Y-10146D01*
X264313Y-10168D01*
X264424Y-10197D01*
X264624Y-10271D01*
X264713Y-10316D01*
X264794Y-10353D01*
X264868Y-10397D01*
X264927Y-10442D01*
X264987Y-10479D01*
X265031Y-10516D01*
X265068Y-10545D01*
X265098Y-10567D01*
X265112Y-10582D01*
X265120Y-10590D01*
X265201Y-10678D01*
X265275Y-10775D01*
X265342Y-10871D01*
X265401Y-10967D01*
X265445Y-11071D01*
X265482Y-11167D01*
X265542Y-11352D01*
X265564Y-11441D01*
X265579Y-11522D01*
X265586Y-11589D01*
X265593Y-11655D01*
X265601Y-11707D01*
Y-11744D01*
Y-11766D01*
Y-11774D01*
X265593Y-11929D01*
X265579Y-12062D01*
X265556Y-12188D01*
X265527Y-12292D01*
X265505Y-12380D01*
X265482Y-12447D01*
X265468Y-12484D01*
X265460Y-12499D01*
X265401Y-12610D01*
X265334Y-12706D01*
X265268Y-12787D01*
X265194Y-12861D01*
X265135Y-12921D01*
X265083Y-12958D01*
X265053Y-12987D01*
X265038Y-12995D01*
X264950Y-13054D01*
X264861Y-13106D01*
X264779Y-13143D01*
X264705Y-13172D01*
X264646Y-13194D01*
X264594Y-13209D01*
X264565Y-13224D01*
X264557D01*
X264372Y-13254D01*
X264284Y-13261D01*
X264202Y-13268D01*
X264128Y-13276D01*
X263914D01*
X263803Y-13261D01*
X263706Y-13254D01*
X263625Y-13239D01*
X263551Y-13224D01*
X263499Y-13217D01*
X263470Y-13202D01*
X263455D01*
X263351Y-13172D01*
X263255Y-13128D01*
X263159Y-13083D01*
X263070Y-13046D01*
X263003Y-13002D01*
X262944Y-12972D01*
X262907Y-12950D01*
X262892Y-12943D01*
X262907Y-13076D01*
X262929Y-13209D01*
X262959Y-13328D01*
X262989Y-13439D01*
X263026Y-13550D01*
X263063Y-13646D01*
X263107Y-13735D01*
X263144Y-13809D01*
X263188Y-13883D01*
X263225Y-13942D01*
X263262Y-13994D01*
X263292Y-14038D01*
X263322Y-14075D01*
X263344Y-14097D01*
X263351Y-14112D01*
X263359Y-14119D01*
X263440Y-14193D01*
X263521Y-14260D01*
X263610Y-14312D01*
X263699Y-14364D01*
X263795Y-14401D01*
X263884Y-14438D01*
X264062Y-14489D01*
X264143Y-14504D01*
X264224Y-14519D01*
X264291Y-14526D01*
X264350Y-14534D01*
X264402Y-14541D01*
X264469D01*
X264617Y-14534D01*
X264676Y-14526D01*
X264735Y-14519D01*
X264779D01*
X264816Y-14512D01*
X264839Y-14504D01*
X264846D01*
X264905Y-14489D01*
X264957Y-14467D01*
X265001Y-14452D01*
X265038Y-14438D01*
X265068Y-14423D01*
X265090Y-14415D01*
X265098Y-14408D01*
X265135D01*
Y-15022D01*
X265046Y-15044D01*
X264964Y-15059D01*
X264927Y-15067D01*
X264898Y-15074D01*
X264876D01*
X264765Y-15089D01*
X264661Y-15096D01*
X264557D01*
X264343Y-15089D01*
X264143Y-15067D01*
X263973Y-15037D01*
X263817Y-15000D01*
X263758Y-14985D01*
X263699Y-14963D01*
X263647Y-14948D01*
X263603Y-14933D01*
X263573Y-14919D01*
X263551Y-14911D01*
X263536Y-14904D01*
X263529D01*
X263373Y-14822D01*
X263233Y-14734D01*
X263107Y-14637D01*
X262996Y-14541D01*
X262915Y-14460D01*
X262848Y-14393D01*
X262811Y-14349D01*
X262796Y-14341D01*
Y-14334D01*
X262693Y-14193D01*
X262604Y-14045D01*
X262530Y-13905D01*
X262471Y-13764D01*
X262426Y-13646D01*
X262411Y-13594D01*
X262397Y-13550D01*
X262382Y-13520D01*
X262374Y-13490D01*
X262367Y-13476D01*
Y-13468D01*
X262315Y-13276D01*
X262278Y-13076D01*
X262256Y-12884D01*
X262234Y-12706D01*
Y-12625D01*
X262226Y-12558D01*
Y-12491D01*
X262219Y-12432D01*
Y-12388D01*
Y-12358D01*
Y-12336D01*
Y-12329D01*
X262226Y-12092D01*
X262241Y-11877D01*
X262263Y-11692D01*
X262278Y-11611D01*
X262293Y-11537D01*
X262308Y-11470D01*
X262323Y-11411D01*
X262330Y-11367D01*
X262345Y-11322D01*
X262352Y-11293D01*
X262360Y-11270D01*
X262367Y-11256D01*
Y-11248D01*
X262426Y-11100D01*
X262493Y-10960D01*
X262567Y-10841D01*
X262633Y-10745D01*
X262693Y-10664D01*
X262744Y-10604D01*
X262774Y-10575D01*
X262789Y-10560D01*
X262878Y-10486D01*
X262966Y-10419D01*
X263048Y-10360D01*
X263129Y-10316D01*
X263203Y-10279D01*
X263255Y-10257D01*
X263292Y-10242D01*
X263307Y-10234D01*
X263418Y-10197D01*
X263529Y-10168D01*
X263640Y-10153D01*
X263736Y-10138D01*
X263825Y-10131D01*
X263891Y-10123D01*
X263951D01*
X264076Y-10131D01*
D02*
G37*
G36*
X278662Y-15000D02*
X277811D01*
X276064Y-10220D01*
X276716D01*
X278218Y-14438D01*
X279727Y-10220D01*
X280401D01*
X278662Y-15000D01*
D02*
G37*
G36*
X96628Y-306000D02*
X96036D01*
Y-301730D01*
X93771Y-306000D01*
X92979D01*
Y-301220D01*
X93571D01*
Y-305127D01*
X95643Y-301220D01*
X96628D01*
Y-306000D01*
D02*
G37*
G36*
X216628D02*
X216036D01*
Y-301730D01*
X213771Y-306000D01*
X212979D01*
Y-301220D01*
X213571D01*
Y-305127D01*
X215643Y-301220D01*
X216628D01*
Y-306000D01*
D02*
G37*
G36*
X219706Y-301131D02*
X219906Y-301153D01*
X220098Y-301183D01*
X220276Y-301227D01*
X220439Y-301279D01*
X220587Y-301331D01*
X220727Y-301397D01*
X220853Y-301456D01*
X220964Y-301516D01*
X221060Y-301575D01*
X221142Y-301634D01*
X221208Y-301686D01*
X221267Y-301730D01*
X221304Y-301760D01*
X221327Y-301782D01*
X221334Y-301789D01*
X221452Y-301923D01*
X221556Y-302056D01*
X221645Y-302204D01*
X221719Y-302352D01*
X221785Y-302507D01*
X221837Y-302655D01*
X221882Y-302803D01*
X221919Y-302944D01*
X221941Y-303077D01*
X221963Y-303203D01*
X221978Y-303314D01*
X221993Y-303410D01*
Y-303491D01*
X222000Y-303551D01*
Y-303588D01*
Y-303602D01*
X221993Y-303832D01*
X221970Y-304039D01*
X221941Y-304224D01*
X221911Y-304387D01*
X221896Y-304461D01*
X221882Y-304520D01*
X221867Y-304579D01*
X221852Y-304624D01*
X221837Y-304661D01*
X221830Y-304683D01*
X221822Y-304698D01*
Y-304705D01*
X221748Y-304875D01*
X221667Y-305023D01*
X221586Y-305156D01*
X221497Y-305267D01*
X221423Y-305356D01*
X221364Y-305423D01*
X221327Y-305467D01*
X221312Y-305475D01*
Y-305482D01*
X221186Y-305593D01*
X221053Y-305689D01*
X220920Y-305763D01*
X220794Y-305830D01*
X220683Y-305882D01*
X220594Y-305919D01*
X220564Y-305933D01*
X220542Y-305941D01*
X220527Y-305948D01*
X220520D01*
X220342Y-306000D01*
X220165Y-306037D01*
X219987Y-306059D01*
X219832Y-306074D01*
X219691Y-306089D01*
X219639D01*
X219588Y-306096D01*
X219491D01*
X219329Y-306089D01*
X219173Y-306074D01*
X219018Y-306052D01*
X218885Y-306030D01*
X218766Y-306007D01*
X218714Y-305993D01*
X218677Y-305985D01*
X218640Y-305978D01*
X218618Y-305970D01*
X218603Y-305963D01*
X218596D01*
X218426Y-305911D01*
X218263Y-305859D01*
X218122Y-305808D01*
X217989Y-305756D01*
X217886Y-305719D01*
X217804Y-305682D01*
X217775Y-305667D01*
X217752Y-305660D01*
X217745Y-305652D01*
X217738D01*
Y-303595D01*
X219647D01*
Y-304157D01*
X218367D01*
Y-305334D01*
X218552Y-305401D01*
X218640Y-305423D01*
X218729Y-305445D01*
X218803Y-305467D01*
X218862Y-305482D01*
X218899Y-305489D01*
X218914D01*
X219136Y-305526D01*
X219240Y-305534D01*
X219336Y-305541D01*
X219417Y-305549D01*
X219528D01*
X219684Y-305541D01*
X219824Y-305526D01*
X219958Y-305504D01*
X220091Y-305467D01*
X220209Y-305430D01*
X220313Y-305386D01*
X220416Y-305341D01*
X220505Y-305290D01*
X220587Y-305245D01*
X220653Y-305201D01*
X220712Y-305156D01*
X220764Y-305119D01*
X220801Y-305082D01*
X220831Y-305060D01*
X220846Y-305045D01*
X220853Y-305038D01*
X220942Y-304934D01*
X221016Y-304823D01*
X221082Y-304712D01*
X221134Y-304594D01*
X221186Y-304468D01*
X221223Y-304350D01*
X221282Y-304120D01*
X221297Y-304009D01*
X221312Y-303913D01*
X221327Y-303817D01*
X221334Y-303743D01*
X221341Y-303676D01*
Y-303632D01*
Y-303595D01*
Y-303588D01*
X221334Y-303425D01*
X221319Y-303277D01*
X221297Y-303129D01*
X221267Y-302996D01*
X221230Y-302870D01*
X221193Y-302759D01*
X221149Y-302655D01*
X221105Y-302559D01*
X221068Y-302470D01*
X221023Y-302396D01*
X220986Y-302337D01*
X220949Y-302285D01*
X220920Y-302241D01*
X220897Y-302211D01*
X220883Y-302196D01*
X220875Y-302189D01*
X220786Y-302100D01*
X220683Y-302019D01*
X220587Y-301952D01*
X220483Y-301886D01*
X220372Y-301841D01*
X220268Y-301797D01*
X220165Y-301760D01*
X220061Y-301738D01*
X219972Y-301715D01*
X219884Y-301701D01*
X219802Y-301686D01*
X219736Y-301678D01*
X219676Y-301671D01*
X219469D01*
X219351Y-301678D01*
X219247Y-301693D01*
X219151Y-301701D01*
X219077Y-301715D01*
X219018Y-301730D01*
X218981Y-301738D01*
X218966D01*
X218862Y-301760D01*
X218766Y-301789D01*
X218685Y-301819D01*
X218611Y-301841D01*
X218544Y-301863D01*
X218500Y-301886D01*
X218470Y-301893D01*
X218463Y-301900D01*
X218330Y-301974D01*
X218263Y-302004D01*
X218211Y-302041D01*
X218159Y-302071D01*
X218122Y-302093D01*
X218100Y-302108D01*
X218093Y-302115D01*
X218026Y-302159D01*
X217967Y-302196D01*
X217915Y-302226D01*
X217871Y-302256D01*
X217841Y-302278D01*
X217819Y-302293D01*
X217804Y-302307D01*
X217738D01*
Y-301560D01*
X217923Y-301479D01*
X218093Y-301405D01*
X218248Y-301353D01*
X218389Y-301301D01*
X218500Y-301271D01*
X218544Y-301257D01*
X218589Y-301242D01*
X218618Y-301234D01*
X218640D01*
X218655Y-301227D01*
X218663D01*
X218818Y-301190D01*
X218973Y-301168D01*
X219107Y-301146D01*
X219232Y-301138D01*
X219343Y-301131D01*
X219417Y-301123D01*
X219491D01*
X219706Y-301131D01*
D02*
G37*
G36*
X211707Y-306000D02*
X210500D01*
X210264Y-305993D01*
X210056Y-305985D01*
X209879Y-305970D01*
X209797Y-305963D01*
X209723Y-305956D01*
X209657Y-305948D01*
X209605Y-305941D01*
X209553Y-305933D01*
X209516Y-305926D01*
X209487Y-305919D01*
X209457Y-305911D01*
X209442D01*
X209294Y-305874D01*
X209154Y-305830D01*
X209028Y-305778D01*
X208924Y-305734D01*
X208835Y-305689D01*
X208769Y-305652D01*
X208724Y-305630D01*
X208710Y-305623D01*
X208539Y-305504D01*
X208391Y-305371D01*
X208266Y-305230D01*
X208155Y-305097D01*
X208066Y-304986D01*
X208036Y-304934D01*
X208007Y-304890D01*
X207984Y-304853D01*
X207970Y-304823D01*
X207955Y-304809D01*
Y-304801D01*
X207859Y-304594D01*
X207785Y-304394D01*
X207733Y-304194D01*
X207703Y-304009D01*
X207688Y-303928D01*
X207681Y-303854D01*
X207674Y-303787D01*
Y-303728D01*
X207666Y-303684D01*
Y-303647D01*
Y-303625D01*
Y-303617D01*
X207681Y-303366D01*
X207711Y-303136D01*
X207755Y-302929D01*
X207777Y-302840D01*
X207799Y-302759D01*
X207829Y-302677D01*
X207851Y-302611D01*
X207873Y-302559D01*
X207896Y-302507D01*
X207918Y-302470D01*
X207925Y-302441D01*
X207940Y-302426D01*
Y-302418D01*
X208051Y-302233D01*
X208177Y-302078D01*
X208303Y-301937D01*
X208421Y-301819D01*
X208532Y-301730D01*
X208621Y-301656D01*
X208658Y-301634D01*
X208680Y-301619D01*
X208695Y-301604D01*
X208702D01*
X208813Y-301538D01*
X208932Y-301486D01*
X209050Y-301434D01*
X209161Y-301397D01*
X209257Y-301368D01*
X209339Y-301345D01*
X209368Y-301331D01*
X209383D01*
X209398Y-301323D01*
X209405D01*
X209568Y-301286D01*
X209753Y-301264D01*
X209938Y-301242D01*
X210116Y-301234D01*
X210197Y-301227D01*
X210271D01*
X210338Y-301220D01*
X211707D01*
Y-306000D01*
D02*
G37*
G36*
X414007Y-93500D02*
X413371D01*
Y-91717D01*
X412742D01*
X412557Y-91709D01*
X412387Y-91694D01*
X412246Y-91680D01*
X412120Y-91657D01*
X412024Y-91635D01*
X411950Y-91613D01*
X411906Y-91606D01*
X411891Y-91598D01*
X411765Y-91546D01*
X411654Y-91487D01*
X411550Y-91428D01*
X411469Y-91369D01*
X411395Y-91310D01*
X411343Y-91265D01*
X411314Y-91236D01*
X411299Y-91228D01*
X411225Y-91154D01*
X411166Y-91073D01*
X411114Y-90991D01*
X411069Y-90917D01*
X411032Y-90858D01*
X411010Y-90806D01*
X410995Y-90777D01*
X410988Y-90762D01*
X410951Y-90658D01*
X410921Y-90555D01*
X410907Y-90451D01*
X410892Y-90362D01*
X410884Y-90288D01*
X410877Y-90222D01*
Y-90185D01*
Y-90170D01*
X410884Y-90022D01*
X410899Y-89881D01*
X410929Y-89763D01*
X410951Y-89667D01*
X410981Y-89585D01*
X411010Y-89526D01*
X411025Y-89497D01*
X411032Y-89482D01*
X411092Y-89386D01*
X411158Y-89297D01*
X411232Y-89215D01*
X411299Y-89149D01*
X411358Y-89097D01*
X411410Y-89053D01*
X411439Y-89030D01*
X411454Y-89023D01*
X411543Y-88971D01*
X411632Y-88919D01*
X411721Y-88882D01*
X411809Y-88853D01*
X411876Y-88823D01*
X411935Y-88808D01*
X411972Y-88794D01*
X411987D01*
X412105Y-88771D01*
X412224Y-88749D01*
X412350Y-88734D01*
X412461Y-88727D01*
X412564Y-88720D01*
X414007D01*
Y-93500D01*
D02*
G37*
G36*
X408687Y-88771D02*
X408701Y-88838D01*
X408716Y-88897D01*
X408738Y-88949D01*
X408753Y-88986D01*
X408768Y-89016D01*
X408775Y-89030D01*
X408783Y-89038D01*
X408849Y-89119D01*
X408931Y-89178D01*
X408960Y-89208D01*
X408990Y-89223D01*
X409005Y-89230D01*
X409012Y-89238D01*
X409064Y-89260D01*
X409116Y-89275D01*
X409234Y-89304D01*
X409286Y-89319D01*
X409330Y-89326D01*
X409360Y-89334D01*
X409367D01*
X409530Y-89349D01*
X409604Y-89356D01*
X409671D01*
X409723Y-89363D01*
X409797D01*
Y-89800D01*
X408798D01*
Y-93012D01*
X409797D01*
Y-93500D01*
X407207D01*
Y-93012D01*
X408183D01*
Y-88697D01*
X408679D01*
X408687Y-88771D01*
D02*
G37*
G36*
X416893Y-89230D02*
X415879D01*
Y-92020D01*
Y-92109D01*
X415887Y-92190D01*
Y-92264D01*
X415894Y-92323D01*
X415902Y-92375D01*
Y-92420D01*
X415909Y-92442D01*
Y-92449D01*
X415939Y-92575D01*
X415953Y-92627D01*
X415976Y-92671D01*
X415990Y-92708D01*
X416005Y-92738D01*
X416013Y-92753D01*
X416020Y-92760D01*
X416057Y-92804D01*
X416094Y-92841D01*
X416183Y-92901D01*
X416220Y-92923D01*
X416249Y-92938D01*
X416272Y-92952D01*
X416279D01*
X416346Y-92975D01*
X416427Y-92989D01*
X416501Y-93004D01*
X416575Y-93012D01*
X416642D01*
X416693Y-93019D01*
X416745D01*
X416893Y-93012D01*
X416960Y-93004D01*
X417019Y-92997D01*
X417071Y-92989D01*
X417108Y-92982D01*
X417137Y-92975D01*
X417145D01*
X417278Y-92938D01*
X417330Y-92923D01*
X417382Y-92908D01*
X417419Y-92893D01*
X417448Y-92886D01*
X417463Y-92878D01*
X417500D01*
Y-93478D01*
X417433Y-93485D01*
X417359Y-93500D01*
X417293Y-93507D01*
X417226Y-93515D01*
X417167Y-93522D01*
X417123Y-93530D01*
X417086Y-93537D01*
X417078D01*
X416989Y-93544D01*
X416901Y-93552D01*
X416834Y-93559D01*
X416775D01*
X416723Y-93567D01*
X416664D01*
X416545Y-93559D01*
X416434Y-93552D01*
X416227Y-93515D01*
X416050Y-93463D01*
X415968Y-93433D01*
X415902Y-93396D01*
X415835Y-93367D01*
X415783Y-93337D01*
X415739Y-93308D01*
X415694Y-93285D01*
X415665Y-93263D01*
X415643Y-93248D01*
X415635Y-93234D01*
X415628D01*
X415561Y-93167D01*
X415502Y-93093D01*
X415450Y-93019D01*
X415406Y-92938D01*
X415339Y-92775D01*
X415287Y-92619D01*
X415265Y-92479D01*
X415258Y-92420D01*
X415250Y-92368D01*
X415243Y-92323D01*
Y-92294D01*
Y-92272D01*
Y-92264D01*
Y-88720D01*
X416893D01*
Y-89230D01*
D02*
G37*
G36*
X171707Y-306000D02*
X170500D01*
X170264Y-305993D01*
X170056Y-305985D01*
X169879Y-305970D01*
X169797Y-305963D01*
X169723Y-305956D01*
X169657Y-305948D01*
X169605Y-305941D01*
X169553Y-305933D01*
X169516Y-305926D01*
X169487Y-305919D01*
X169457Y-305911D01*
X169442D01*
X169294Y-305874D01*
X169154Y-305830D01*
X169028Y-305778D01*
X168924Y-305734D01*
X168835Y-305689D01*
X168769Y-305652D01*
X168724Y-305630D01*
X168710Y-305623D01*
X168539Y-305504D01*
X168391Y-305371D01*
X168266Y-305230D01*
X168155Y-305097D01*
X168066Y-304986D01*
X168036Y-304934D01*
X168007Y-304890D01*
X167984Y-304853D01*
X167970Y-304823D01*
X167955Y-304809D01*
Y-304801D01*
X167859Y-304594D01*
X167785Y-304394D01*
X167733Y-304194D01*
X167703Y-304009D01*
X167688Y-303928D01*
X167681Y-303854D01*
X167674Y-303787D01*
Y-303728D01*
X167666Y-303684D01*
Y-303647D01*
Y-303625D01*
Y-303617D01*
X167681Y-303366D01*
X167711Y-303136D01*
X167755Y-302929D01*
X167777Y-302840D01*
X167799Y-302759D01*
X167829Y-302677D01*
X167851Y-302611D01*
X167873Y-302559D01*
X167896Y-302507D01*
X167918Y-302470D01*
X167925Y-302441D01*
X167940Y-302426D01*
Y-302418D01*
X168051Y-302233D01*
X168177Y-302078D01*
X168303Y-301937D01*
X168421Y-301819D01*
X168532Y-301730D01*
X168621Y-301656D01*
X168658Y-301634D01*
X168680Y-301619D01*
X168695Y-301604D01*
X168702D01*
X168813Y-301538D01*
X168932Y-301486D01*
X169050Y-301434D01*
X169161Y-301397D01*
X169257Y-301368D01*
X169339Y-301345D01*
X169368Y-301331D01*
X169383D01*
X169398Y-301323D01*
X169405D01*
X169568Y-301286D01*
X169753Y-301264D01*
X169938Y-301242D01*
X170116Y-301234D01*
X170197Y-301227D01*
X170271D01*
X170338Y-301220D01*
X171707D01*
Y-306000D01*
D02*
G37*
G36*
X179706Y-301131D02*
X179906Y-301153D01*
X180098Y-301183D01*
X180276Y-301227D01*
X180439Y-301279D01*
X180587Y-301331D01*
X180727Y-301397D01*
X180853Y-301456D01*
X180964Y-301516D01*
X181060Y-301575D01*
X181142Y-301634D01*
X181208Y-301686D01*
X181267Y-301730D01*
X181304Y-301760D01*
X181327Y-301782D01*
X181334Y-301789D01*
X181452Y-301923D01*
X181556Y-302056D01*
X181645Y-302204D01*
X181719Y-302352D01*
X181785Y-302507D01*
X181837Y-302655D01*
X181882Y-302803D01*
X181919Y-302944D01*
X181941Y-303077D01*
X181963Y-303203D01*
X181978Y-303314D01*
X181993Y-303410D01*
Y-303491D01*
X182000Y-303551D01*
Y-303588D01*
Y-303602D01*
X181993Y-303832D01*
X181970Y-304039D01*
X181941Y-304224D01*
X181911Y-304387D01*
X181896Y-304461D01*
X181882Y-304520D01*
X181867Y-304579D01*
X181852Y-304624D01*
X181837Y-304661D01*
X181830Y-304683D01*
X181822Y-304698D01*
Y-304705D01*
X181748Y-304875D01*
X181667Y-305023D01*
X181586Y-305156D01*
X181497Y-305267D01*
X181423Y-305356D01*
X181364Y-305423D01*
X181327Y-305467D01*
X181312Y-305475D01*
Y-305482D01*
X181186Y-305593D01*
X181053Y-305689D01*
X180920Y-305763D01*
X180794Y-305830D01*
X180683Y-305882D01*
X180594Y-305919D01*
X180564Y-305933D01*
X180542Y-305941D01*
X180527Y-305948D01*
X180520D01*
X180342Y-306000D01*
X180165Y-306037D01*
X179987Y-306059D01*
X179832Y-306074D01*
X179691Y-306089D01*
X179639D01*
X179588Y-306096D01*
X179491D01*
X179329Y-306089D01*
X179173Y-306074D01*
X179018Y-306052D01*
X178885Y-306030D01*
X178766Y-306007D01*
X178714Y-305993D01*
X178677Y-305985D01*
X178640Y-305978D01*
X178618Y-305970D01*
X178603Y-305963D01*
X178596D01*
X178426Y-305911D01*
X178263Y-305859D01*
X178122Y-305808D01*
X177989Y-305756D01*
X177886Y-305719D01*
X177804Y-305682D01*
X177775Y-305667D01*
X177752Y-305660D01*
X177745Y-305652D01*
X177738D01*
Y-303595D01*
X179647D01*
Y-304157D01*
X178367D01*
Y-305334D01*
X178552Y-305401D01*
X178640Y-305423D01*
X178729Y-305445D01*
X178803Y-305467D01*
X178862Y-305482D01*
X178899Y-305489D01*
X178914D01*
X179136Y-305526D01*
X179240Y-305534D01*
X179336Y-305541D01*
X179417Y-305549D01*
X179528D01*
X179684Y-305541D01*
X179824Y-305526D01*
X179958Y-305504D01*
X180091Y-305467D01*
X180209Y-305430D01*
X180313Y-305386D01*
X180416Y-305341D01*
X180505Y-305290D01*
X180587Y-305245D01*
X180653Y-305201D01*
X180712Y-305156D01*
X180764Y-305119D01*
X180801Y-305082D01*
X180831Y-305060D01*
X180846Y-305045D01*
X180853Y-305038D01*
X180942Y-304934D01*
X181016Y-304823D01*
X181082Y-304712D01*
X181134Y-304594D01*
X181186Y-304468D01*
X181223Y-304350D01*
X181282Y-304120D01*
X181297Y-304009D01*
X181312Y-303913D01*
X181327Y-303817D01*
X181334Y-303743D01*
X181341Y-303676D01*
Y-303632D01*
Y-303595D01*
Y-303588D01*
X181334Y-303425D01*
X181319Y-303277D01*
X181297Y-303129D01*
X181267Y-302996D01*
X181230Y-302870D01*
X181193Y-302759D01*
X181149Y-302655D01*
X181105Y-302559D01*
X181068Y-302470D01*
X181023Y-302396D01*
X180986Y-302337D01*
X180949Y-302285D01*
X180920Y-302241D01*
X180897Y-302211D01*
X180883Y-302196D01*
X180875Y-302189D01*
X180786Y-302100D01*
X180683Y-302019D01*
X180587Y-301952D01*
X180483Y-301886D01*
X180372Y-301841D01*
X180268Y-301797D01*
X180165Y-301760D01*
X180061Y-301738D01*
X179972Y-301715D01*
X179884Y-301701D01*
X179802Y-301686D01*
X179736Y-301678D01*
X179676Y-301671D01*
X179469D01*
X179351Y-301678D01*
X179247Y-301693D01*
X179151Y-301701D01*
X179077Y-301715D01*
X179018Y-301730D01*
X178981Y-301738D01*
X178966D01*
X178862Y-301760D01*
X178766Y-301789D01*
X178685Y-301819D01*
X178611Y-301841D01*
X178544Y-301863D01*
X178500Y-301886D01*
X178470Y-301893D01*
X178463Y-301900D01*
X178330Y-301974D01*
X178263Y-302004D01*
X178211Y-302041D01*
X178159Y-302071D01*
X178122Y-302093D01*
X178100Y-302108D01*
X178093Y-302115D01*
X178026Y-302159D01*
X177967Y-302196D01*
X177915Y-302226D01*
X177871Y-302256D01*
X177841Y-302278D01*
X177819Y-302293D01*
X177804Y-302307D01*
X177738D01*
Y-301560D01*
X177923Y-301479D01*
X178093Y-301405D01*
X178248Y-301353D01*
X178389Y-301301D01*
X178500Y-301271D01*
X178544Y-301257D01*
X178589Y-301242D01*
X178618Y-301234D01*
X178640D01*
X178655Y-301227D01*
X178663D01*
X178818Y-301190D01*
X178973Y-301168D01*
X179107Y-301146D01*
X179232Y-301138D01*
X179343Y-301131D01*
X179417Y-301123D01*
X179491D01*
X179706Y-301131D01*
D02*
G37*
G36*
X176628Y-306000D02*
X176036D01*
Y-301730D01*
X173771Y-306000D01*
X172979D01*
Y-301220D01*
X173571D01*
Y-305127D01*
X175643Y-301220D01*
X176628D01*
Y-306000D01*
D02*
G37*
%LPC*%
G36*
X295364Y-10767D02*
X294609D01*
X294468Y-10775D01*
X294335Y-10789D01*
X294224Y-10797D01*
X294135Y-10812D01*
X294069Y-10826D01*
X294024Y-10834D01*
X294009D01*
X293891Y-10863D01*
X293780Y-10893D01*
X293676Y-10930D01*
X293580Y-10967D01*
X293506Y-11004D01*
X293454Y-11026D01*
X293417Y-11048D01*
X293403Y-11056D01*
X293269Y-11145D01*
X293151Y-11241D01*
X293047Y-11344D01*
X292966Y-11441D01*
X292899Y-11529D01*
X292855Y-11596D01*
X292840Y-11626D01*
X292825Y-11648D01*
X292818Y-11655D01*
Y-11663D01*
X292751Y-11811D01*
X292700Y-11973D01*
X292670Y-12129D01*
X292640Y-12277D01*
X292626Y-12410D01*
Y-12469D01*
X292618Y-12514D01*
Y-12558D01*
Y-12588D01*
Y-12602D01*
Y-12610D01*
X292626Y-12810D01*
X292648Y-12987D01*
X292677Y-13150D01*
X292707Y-13283D01*
X292744Y-13394D01*
X292759Y-13439D01*
X292774Y-13476D01*
X292788Y-13505D01*
X292796Y-13527D01*
X292803Y-13535D01*
Y-13542D01*
X292877Y-13675D01*
X292959Y-13794D01*
X293047Y-13897D01*
X293136Y-13979D01*
X293218Y-14053D01*
X293277Y-14097D01*
X293321Y-14134D01*
X293329Y-14142D01*
X293336D01*
X293447Y-14201D01*
X293558Y-14253D01*
X293662Y-14297D01*
X293758Y-14327D01*
X293839Y-14356D01*
X293906Y-14371D01*
X293950Y-14386D01*
X293965D01*
X294098Y-14408D01*
X294231Y-14423D01*
X294372Y-14438D01*
X294498Y-14445D01*
X294609D01*
X294653Y-14452D01*
X295364D01*
Y-10767D01*
D02*
G37*
G36*
X413371Y-89267D02*
X412631D01*
X412535Y-89275D01*
X412453Y-89282D01*
X412379Y-89289D01*
X412320Y-89297D01*
X412283Y-89304D01*
X412253Y-89312D01*
X412246D01*
X412105Y-89356D01*
X412046Y-89378D01*
X411994Y-89400D01*
X411950Y-89423D01*
X411920Y-89445D01*
X411898Y-89452D01*
X411891Y-89460D01*
X411832Y-89504D01*
X411772Y-89556D01*
X411728Y-89600D01*
X411691Y-89652D01*
X411661Y-89689D01*
X411639Y-89726D01*
X411632Y-89748D01*
X411624Y-89756D01*
X411595Y-89822D01*
X411573Y-89896D01*
X411558Y-89970D01*
X411543Y-90037D01*
Y-90096D01*
X411536Y-90140D01*
Y-90170D01*
Y-90185D01*
X411543Y-90333D01*
X411558Y-90392D01*
X411565Y-90451D01*
X411580Y-90496D01*
X411595Y-90533D01*
X411602Y-90555D01*
Y-90562D01*
X411632Y-90621D01*
X411661Y-90688D01*
X411698Y-90740D01*
X411728Y-90792D01*
X411765Y-90829D01*
X411795Y-90858D01*
X411809Y-90880D01*
X411817Y-90888D01*
X411876Y-90940D01*
X411943Y-90984D01*
X412068Y-91051D01*
X412120Y-91073D01*
X412165Y-91088D01*
X412202Y-91102D01*
X412209D01*
X412305Y-91125D01*
X412409Y-91139D01*
X412512Y-91154D01*
X412616Y-91162D01*
X412705D01*
X412771Y-91169D01*
X413371D01*
Y-89267D01*
D02*
G37*
G36*
X91070Y-301767D02*
X90315D01*
X90175Y-301775D01*
X90042Y-301789D01*
X89931Y-301797D01*
X89842Y-301812D01*
X89775Y-301826D01*
X89731Y-301834D01*
X89716D01*
X89598Y-301863D01*
X89487Y-301893D01*
X89383Y-301930D01*
X89287Y-301967D01*
X89213Y-302004D01*
X89161Y-302026D01*
X89124Y-302048D01*
X89109Y-302056D01*
X88976Y-302145D01*
X88858Y-302241D01*
X88754Y-302344D01*
X88673Y-302441D01*
X88606Y-302529D01*
X88562Y-302596D01*
X88547Y-302626D01*
X88532Y-302648D01*
X88525Y-302655D01*
Y-302663D01*
X88458Y-302811D01*
X88406Y-302973D01*
X88377Y-303129D01*
X88347Y-303277D01*
X88332Y-303410D01*
Y-303469D01*
X88325Y-303514D01*
Y-303558D01*
Y-303588D01*
Y-303602D01*
Y-303610D01*
X88332Y-303810D01*
X88354Y-303987D01*
X88384Y-304150D01*
X88414Y-304283D01*
X88451Y-304394D01*
X88465Y-304439D01*
X88480Y-304476D01*
X88495Y-304505D01*
X88502Y-304527D01*
X88510Y-304535D01*
Y-304542D01*
X88584Y-304675D01*
X88665Y-304794D01*
X88754Y-304897D01*
X88843Y-304979D01*
X88924Y-305053D01*
X88983Y-305097D01*
X89028Y-305134D01*
X89035Y-305142D01*
X89043D01*
X89154Y-305201D01*
X89265Y-305253D01*
X89368Y-305297D01*
X89464Y-305327D01*
X89546Y-305356D01*
X89612Y-305371D01*
X89657Y-305386D01*
X89672D01*
X89805Y-305408D01*
X89938Y-305423D01*
X90079Y-305438D01*
X90204Y-305445D01*
X90315D01*
X90360Y-305452D01*
X91070D01*
Y-301767D01*
D02*
G37*
G36*
X264002Y-10656D02*
X263958D01*
X263817Y-10664D01*
X263751Y-10678D01*
X263699Y-10686D01*
X263655Y-10701D01*
X263618Y-10715D01*
X263595Y-10723D01*
X263588D01*
X263521Y-10745D01*
X263462Y-10782D01*
X263403Y-10812D01*
X263351Y-10849D01*
X263314Y-10878D01*
X263285Y-10908D01*
X263262Y-10923D01*
X263255Y-10930D01*
X263188Y-10997D01*
X263137Y-11071D01*
X263085Y-11152D01*
X263048Y-11226D01*
X263018Y-11293D01*
X262996Y-11344D01*
X262981Y-11381D01*
X262974Y-11396D01*
X262937Y-11515D01*
X262915Y-11648D01*
X262892Y-11774D01*
X262885Y-11899D01*
X262878Y-12018D01*
X262870Y-12062D01*
Y-12107D01*
Y-12144D01*
Y-12166D01*
Y-12181D01*
Y-12188D01*
Y-12255D01*
Y-12306D01*
X262878Y-12336D01*
Y-12351D01*
X262885Y-12403D01*
Y-12440D01*
Y-12469D01*
Y-12484D01*
X263055Y-12565D01*
X263137Y-12602D01*
X263218Y-12625D01*
X263277Y-12647D01*
X263329Y-12662D01*
X263359Y-12676D01*
X263373D01*
X263558Y-12713D01*
X263640Y-12728D01*
X263721Y-12736D01*
X263780D01*
X263832Y-12743D01*
X263877D01*
X264025Y-12736D01*
X264091D01*
X264143Y-12728D01*
X264195Y-12721D01*
X264232D01*
X264254Y-12713D01*
X264261D01*
X264380Y-12676D01*
X264432Y-12654D01*
X264483Y-12632D01*
X264520Y-12610D01*
X264550Y-12595D01*
X264565Y-12588D01*
X264572Y-12580D01*
X264646Y-12528D01*
X264705Y-12469D01*
X264757Y-12410D01*
X264794Y-12358D01*
X264831Y-12314D01*
X264853Y-12277D01*
X264861Y-12255D01*
X264868Y-12247D01*
X264898Y-12173D01*
X264913Y-12092D01*
X264927Y-12003D01*
X264942Y-11929D01*
Y-11855D01*
X264950Y-11803D01*
Y-11766D01*
Y-11751D01*
X264935Y-11566D01*
X264905Y-11404D01*
X264868Y-11270D01*
X264816Y-11152D01*
X264765Y-11063D01*
X264728Y-10997D01*
X264698Y-10960D01*
X264683Y-10945D01*
X264572Y-10849D01*
X264454Y-10775D01*
X264335Y-10723D01*
X264217Y-10693D01*
X264113Y-10671D01*
X264032Y-10664D01*
X264002Y-10656D01*
D02*
G37*
G36*
X131070Y-301767D02*
X130315D01*
X130175Y-301775D01*
X130042Y-301789D01*
X129931Y-301797D01*
X129842Y-301812D01*
X129775Y-301826D01*
X129731Y-301834D01*
X129716D01*
X129598Y-301863D01*
X129487Y-301893D01*
X129383Y-301930D01*
X129287Y-301967D01*
X129213Y-302004D01*
X129161Y-302026D01*
X129124Y-302048D01*
X129109Y-302056D01*
X128976Y-302145D01*
X128858Y-302241D01*
X128754Y-302344D01*
X128673Y-302441D01*
X128606Y-302529D01*
X128562Y-302596D01*
X128547Y-302626D01*
X128532Y-302648D01*
X128525Y-302655D01*
Y-302663D01*
X128458Y-302811D01*
X128406Y-302973D01*
X128377Y-303129D01*
X128347Y-303277D01*
X128332Y-303410D01*
Y-303469D01*
X128325Y-303514D01*
Y-303558D01*
Y-303588D01*
Y-303602D01*
Y-303610D01*
X128332Y-303810D01*
X128354Y-303987D01*
X128384Y-304150D01*
X128414Y-304283D01*
X128451Y-304394D01*
X128465Y-304439D01*
X128480Y-304476D01*
X128495Y-304505D01*
X128502Y-304527D01*
X128510Y-304535D01*
Y-304542D01*
X128584Y-304675D01*
X128665Y-304794D01*
X128754Y-304897D01*
X128843Y-304979D01*
X128924Y-305053D01*
X128983Y-305097D01*
X129028Y-305134D01*
X129035Y-305142D01*
X129043D01*
X129154Y-305201D01*
X129265Y-305253D01*
X129368Y-305297D01*
X129464Y-305327D01*
X129546Y-305356D01*
X129612Y-305371D01*
X129657Y-305386D01*
X129672D01*
X129805Y-305408D01*
X129938Y-305423D01*
X130079Y-305438D01*
X130204Y-305445D01*
X130315D01*
X130360Y-305452D01*
X131070D01*
Y-301767D01*
D02*
G37*
G36*
X171070D02*
X170315D01*
X170175Y-301775D01*
X170042Y-301789D01*
X169931Y-301797D01*
X169842Y-301812D01*
X169775Y-301826D01*
X169731Y-301834D01*
X169716D01*
X169598Y-301863D01*
X169487Y-301893D01*
X169383Y-301930D01*
X169287Y-301967D01*
X169213Y-302004D01*
X169161Y-302026D01*
X169124Y-302048D01*
X169109Y-302056D01*
X168976Y-302145D01*
X168858Y-302241D01*
X168754Y-302344D01*
X168673Y-302441D01*
X168606Y-302529D01*
X168562Y-302596D01*
X168547Y-302626D01*
X168532Y-302648D01*
X168525Y-302655D01*
Y-302663D01*
X168458Y-302811D01*
X168406Y-302973D01*
X168377Y-303129D01*
X168347Y-303277D01*
X168332Y-303410D01*
Y-303469D01*
X168325Y-303514D01*
Y-303558D01*
Y-303588D01*
Y-303602D01*
Y-303610D01*
X168332Y-303810D01*
X168354Y-303987D01*
X168384Y-304150D01*
X168414Y-304283D01*
X168451Y-304394D01*
X168465Y-304439D01*
X168480Y-304476D01*
X168495Y-304505D01*
X168502Y-304527D01*
X168510Y-304535D01*
Y-304542D01*
X168584Y-304675D01*
X168665Y-304794D01*
X168754Y-304897D01*
X168843Y-304979D01*
X168924Y-305053D01*
X168983Y-305097D01*
X169028Y-305134D01*
X169035Y-305142D01*
X169043D01*
X169154Y-305201D01*
X169265Y-305253D01*
X169368Y-305297D01*
X169464Y-305327D01*
X169546Y-305356D01*
X169612Y-305371D01*
X169657Y-305386D01*
X169672D01*
X169805Y-305408D01*
X169938Y-305423D01*
X170079Y-305438D01*
X170204Y-305445D01*
X170315D01*
X170360Y-305452D01*
X171070D01*
Y-301767D01*
D02*
G37*
G36*
X211070D02*
X210315D01*
X210175Y-301775D01*
X210042Y-301789D01*
X209931Y-301797D01*
X209842Y-301812D01*
X209775Y-301826D01*
X209731Y-301834D01*
X209716D01*
X209598Y-301863D01*
X209487Y-301893D01*
X209383Y-301930D01*
X209287Y-301967D01*
X209213Y-302004D01*
X209161Y-302026D01*
X209124Y-302048D01*
X209109Y-302056D01*
X208976Y-302145D01*
X208858Y-302241D01*
X208754Y-302344D01*
X208673Y-302441D01*
X208606Y-302529D01*
X208562Y-302596D01*
X208547Y-302626D01*
X208532Y-302648D01*
X208525Y-302655D01*
Y-302663D01*
X208458Y-302811D01*
X208406Y-302973D01*
X208377Y-303129D01*
X208347Y-303277D01*
X208332Y-303410D01*
Y-303469D01*
X208325Y-303514D01*
Y-303558D01*
Y-303588D01*
Y-303602D01*
Y-303610D01*
X208332Y-303810D01*
X208354Y-303987D01*
X208384Y-304150D01*
X208414Y-304283D01*
X208451Y-304394D01*
X208465Y-304439D01*
X208480Y-304476D01*
X208495Y-304505D01*
X208502Y-304527D01*
X208510Y-304535D01*
Y-304542D01*
X208584Y-304675D01*
X208665Y-304794D01*
X208754Y-304897D01*
X208843Y-304979D01*
X208924Y-305053D01*
X208983Y-305097D01*
X209028Y-305134D01*
X209035Y-305142D01*
X209043D01*
X209154Y-305201D01*
X209265Y-305253D01*
X209368Y-305297D01*
X209464Y-305327D01*
X209546Y-305356D01*
X209612Y-305371D01*
X209657Y-305386D01*
X209672D01*
X209805Y-305408D01*
X209938Y-305423D01*
X210079Y-305438D01*
X210204Y-305445D01*
X210315D01*
X210360Y-305452D01*
X211070D01*
Y-301767D01*
D02*
G37*
%LPD*%
D27*
X306618Y-13500D02*
G03*
X306618Y-13500I-1118J0D01*
G01*
D30*
X311692Y-8434D02*
G03*
X311951Y-18231I-6192J-5066D01*
G01*
X323000Y-13501D02*
X319001D01*
X321001Y-11502D02*
Y-15500D01*
X307500Y-30001D02*
X303501D01*
D49*
X210669Y-300331D02*
X219331D01*
X210669D02*
Y-291669D01*
X219331D01*
Y-300331D02*
Y-291669D01*
X170669Y-300331D02*
X179331D01*
X170669D02*
Y-291669D01*
X179331D01*
Y-300331D02*
Y-291669D01*
X130669Y-300331D02*
X139331D01*
X130669D02*
Y-291669D01*
X139331D01*
Y-300331D02*
Y-291669D01*
X90669Y-300331D02*
X99331D01*
X90669D02*
Y-291669D01*
X99331D01*
Y-300331D02*
Y-291669D01*
X406000Y-99500D02*
Y-84500D01*
X399000D02*
X406000D01*
X399000Y-99500D02*
Y-84500D01*
Y-99500D02*
X406000D01*
D55*
X307000Y-13500D02*
X317000D01*
X305500Y-27500D02*
Y-22000D01*
M02*
