%FSLAX25Y25*%
%MOIN*%
G70*
G01*
G75*
G04 Layer_Physical_Order=1*
G04 Layer_Color=255*
G04:AMPARAMS|DCode=10|XSize=78.74mil|YSize=177.16mil|CornerRadius=0mil|HoleSize=0mil|Usage=FLASHONLY|Rotation=45.000|XOffset=0mil|YOffset=0mil|HoleType=Round|Shape=Rectangle|*
%AMROTATEDRECTD10*
4,1,4,0.03480,-0.09048,-0.09048,0.03480,-0.03480,0.09048,0.09048,-0.03480,0.03480,-0.09048,0.0*
%
%ADD10ROTATEDRECTD10*%

%ADD11R,0.05500X0.04000*%
%ADD12O,0.06000X0.11024*%
%ADD13R,0.06000X0.11024*%
G04:AMPARAMS|DCode=14|XSize=74.8mil|YSize=129.92mil|CornerRadius=0mil|HoleSize=0mil|Usage=FLASHONLY|Rotation=0.000|XOffset=0mil|YOffset=0mil|HoleType=Round|Shape=Octagon|*
%AMOCTAGOND14*
4,1,8,-0.01870,0.06496,0.01870,0.06496,0.03740,0.04626,0.03740,-0.04626,0.01870,-0.06496,-0.01870,-0.06496,-0.03740,-0.04626,-0.03740,0.04626,-0.01870,0.06496,0.0*
%
%ADD14OCTAGOND14*%

%ADD15R,0.02756X0.07087*%
%ADD16R,0.02756X0.05315*%
%ADD17R,0.04000X0.05500*%
%ADD18R,0.06000X0.06000*%
%ADD19R,0.07500X0.10000*%
%ADD20R,0.03500X0.03000*%
%ADD21R,0.06000X0.10000*%
%ADD22R,0.10000X0.06000*%
%ADD23R,0.04725X0.13779*%
%ADD24R,0.04725X0.13779*%
%ADD25R,0.06299X0.01181*%
%ADD26R,0.01181X0.06299*%
%ADD27C,0.02500*%
%ADD28C,0.05000*%
%ADD29C,0.01200*%
%ADD30C,0.01000*%
%ADD31C,0.02000*%
%ADD32C,0.03000*%
%ADD33C,0.01500*%
%ADD34C,0.06000*%
%ADD35R,0.05906X0.05906*%
%ADD36C,0.05906*%
%ADD37C,0.06500*%
%ADD38O,0.07874X0.15748*%
%ADD39O,0.15748X0.07874*%
%ADD40O,0.16535X0.07874*%
%ADD41R,0.10236X0.10236*%
%ADD42C,0.10236*%
%ADD43R,0.09449X0.09449*%
%ADD44C,0.09449*%
%ADD45R,0.05906X0.05906*%
%ADD46C,0.08000*%
%ADD47C,0.02000*%
G36*
X279198Y-201802D02*
X280025Y-202355D01*
X281000Y-202549D01*
X285000D01*
Y-231742D01*
X284538Y-231933D01*
X258302Y-205698D01*
X257475Y-205145D01*
X256500Y-204951D01*
X238750D01*
Y-204000D01*
X204750D01*
Y-205461D01*
X203345D01*
X197924Y-200041D01*
X198116Y-199579D01*
X200461D01*
X201241Y-199423D01*
X201903Y-198981D01*
X201903Y-198981D01*
X201903Y-198981D01*
X205845Y-195039D01*
X224500D01*
X225280Y-194884D01*
X225942Y-194442D01*
X225942Y-194442D01*
X225942Y-194442D01*
X227442Y-192942D01*
X227884Y-192280D01*
X228039Y-191500D01*
Y-191000D01*
X238750D01*
Y-190049D01*
X267444D01*
X279198Y-201802D01*
D02*
G37*
G36*
X315000Y-5000D02*
Y-98623D01*
X297216D01*
X296863Y-98269D01*
X296863Y-89347D01*
X289138Y-89347D01*
X289138Y-93863D01*
X288676Y-94054D01*
X287026Y-92404D01*
Y-87750D01*
X287500D01*
Y-79250D01*
Y-70750D01*
X280500D01*
Y-79250D01*
Y-79466D01*
X277250D01*
Y-77000D01*
X266750D01*
Y-90000D01*
X277250D01*
Y-87534D01*
X280500D01*
Y-87750D01*
X280974D01*
Y-93657D01*
X281077Y-94440D01*
X281291Y-94956D01*
X281380Y-95170D01*
X281860Y-95797D01*
X287600Y-101537D01*
X287453Y-102657D01*
X287642Y-104093D01*
X288196Y-105431D01*
X289078Y-106580D01*
X290227Y-107462D01*
X291564Y-108016D01*
X293000Y-108205D01*
X294436Y-108016D01*
X295774Y-107462D01*
X296777Y-106692D01*
X315000D01*
Y-165000D01*
X305000Y-175000D01*
X295000D01*
X285000Y-185000D01*
Y-197451D01*
X282056D01*
X270302Y-185698D01*
X269476Y-185145D01*
X268500Y-184951D01*
X238750D01*
Y-184000D01*
X204750D01*
Y-186866D01*
X198084Y-193532D01*
X186113D01*
X185830Y-193109D01*
X185814Y-193070D01*
X191442Y-187442D01*
X191884Y-186780D01*
X192039Y-186000D01*
Y-166345D01*
X194097Y-164286D01*
X204771Y-174960D01*
X212460Y-167271D01*
X197811Y-152622D01*
X195998Y-154436D01*
X195245Y-154535D01*
X194150Y-154989D01*
X193210Y-155710D01*
X192489Y-156650D01*
X192035Y-157745D01*
X191936Y-158498D01*
X190122Y-160311D01*
X190963Y-161153D01*
Y-161653D01*
X189001Y-163615D01*
X188539Y-163424D01*
Y-149000D01*
X188384Y-148220D01*
X187942Y-147558D01*
X186789Y-146405D01*
X186884Y-146175D01*
X186983Y-145422D01*
X188797Y-143608D01*
X174148Y-128959D01*
X166459Y-136648D01*
X181108Y-151297D01*
X182922Y-149483D01*
X183675Y-149384D01*
X183905Y-149289D01*
X184461Y-149845D01*
Y-171613D01*
X183963Y-171662D01*
X183884Y-171264D01*
X183442Y-170602D01*
X148563Y-135723D01*
X147901Y-135281D01*
X147121Y-135126D01*
X50927D01*
X46525Y-130723D01*
X45863Y-130281D01*
X45083Y-130126D01*
X43975D01*
X43889Y-129920D01*
X43176Y-128990D01*
X42246Y-128276D01*
X41162Y-127827D01*
X40000Y-127674D01*
X38838Y-127827D01*
X37754Y-128276D01*
X36824Y-128990D01*
X36110Y-129920D01*
X35662Y-131003D01*
X35509Y-132165D01*
X35662Y-133328D01*
X36110Y-134411D01*
X36188Y-134512D01*
X35967Y-134961D01*
X35165D01*
X34385Y-135116D01*
X33723Y-135558D01*
X31369Y-137913D01*
X31162Y-137827D01*
X30000Y-137674D01*
X28838Y-137827D01*
X27754Y-138276D01*
X26824Y-138990D01*
X26111Y-139920D01*
X25662Y-141003D01*
X25509Y-142165D01*
X25662Y-143328D01*
X26111Y-144411D01*
X26824Y-145341D01*
X27754Y-146055D01*
X28838Y-146503D01*
X30000Y-146657D01*
X31162Y-146503D01*
X32246Y-146055D01*
X33176Y-145341D01*
X33889Y-144411D01*
X34338Y-143328D01*
X34491Y-142165D01*
X34338Y-141003D01*
X34253Y-140797D01*
X35848Y-139201D01*
X36341Y-139283D01*
X36442Y-139488D01*
X36110Y-139920D01*
X35662Y-141003D01*
X35509Y-142165D01*
X35662Y-143328D01*
X36110Y-144411D01*
X36188Y-144512D01*
X35967Y-144961D01*
X35165D01*
X34385Y-145116D01*
X33723Y-145558D01*
X31369Y-147913D01*
X31162Y-147827D01*
X30000Y-147674D01*
X28838Y-147827D01*
X27754Y-148276D01*
X26824Y-148990D01*
X26111Y-149920D01*
X25662Y-151003D01*
X25509Y-152165D01*
X25662Y-153328D01*
X26111Y-154411D01*
X26824Y-155341D01*
X27754Y-156055D01*
X28838Y-156503D01*
X30000Y-156657D01*
X31162Y-156503D01*
X32246Y-156055D01*
X33176Y-155341D01*
X33889Y-154411D01*
X34338Y-153328D01*
X34491Y-152165D01*
X34338Y-151003D01*
X34253Y-150797D01*
X35848Y-149201D01*
X36341Y-149283D01*
X36442Y-149488D01*
X36110Y-149920D01*
X35662Y-151003D01*
X35509Y-152165D01*
X35662Y-153328D01*
X36110Y-154411D01*
X36188Y-154512D01*
X35967Y-154961D01*
X35165D01*
X34385Y-155116D01*
X33723Y-155558D01*
X31369Y-157913D01*
X31162Y-157827D01*
X30000Y-157674D01*
X28838Y-157827D01*
X27754Y-158276D01*
X26824Y-158990D01*
X26111Y-159920D01*
X25662Y-161003D01*
X25509Y-162165D01*
X25662Y-163328D01*
X26111Y-164411D01*
X26824Y-165341D01*
X27754Y-166055D01*
X28838Y-166504D01*
X30000Y-166656D01*
X31162Y-166504D01*
X32246Y-166055D01*
X33176Y-165341D01*
X33889Y-164411D01*
X34338Y-163328D01*
X34491Y-162165D01*
X34338Y-161003D01*
X34253Y-160797D01*
X35848Y-159201D01*
X36341Y-159283D01*
X36442Y-159488D01*
X36110Y-159920D01*
X35662Y-161003D01*
X35509Y-162165D01*
X35662Y-163328D01*
X36110Y-164411D01*
X36188Y-164512D01*
X35967Y-164961D01*
X35165D01*
X34385Y-165116D01*
X33723Y-165558D01*
X31369Y-167913D01*
X31162Y-167827D01*
X30000Y-167674D01*
X28838Y-167827D01*
X27754Y-168276D01*
X26824Y-168990D01*
X26111Y-169920D01*
X25662Y-171003D01*
X25509Y-172165D01*
X25662Y-173328D01*
X26111Y-174411D01*
X26824Y-175341D01*
X27754Y-176055D01*
X28838Y-176504D01*
X30000Y-176656D01*
X31162Y-176504D01*
X32246Y-176055D01*
X33176Y-175341D01*
X33889Y-174411D01*
X34338Y-173328D01*
X34491Y-172165D01*
X34338Y-171003D01*
X34253Y-170797D01*
X35848Y-169201D01*
X36341Y-169283D01*
X36442Y-169488D01*
X36110Y-169920D01*
X35662Y-171003D01*
X35509Y-172165D01*
X35662Y-173328D01*
X36110Y-174411D01*
X36188Y-174512D01*
X35967Y-174961D01*
X35165D01*
X34385Y-175116D01*
X33723Y-175558D01*
X31369Y-177913D01*
X31162Y-177827D01*
X30000Y-177674D01*
X28838Y-177827D01*
X27754Y-178276D01*
X26824Y-178990D01*
X26111Y-179920D01*
X25662Y-181003D01*
X25509Y-182165D01*
X25662Y-183328D01*
X26111Y-184411D01*
X26824Y-185341D01*
X27754Y-186055D01*
X28838Y-186504D01*
X30000Y-186656D01*
X31162Y-186504D01*
X32246Y-186055D01*
X33176Y-185341D01*
X33889Y-184411D01*
X34338Y-183328D01*
X34491Y-182165D01*
X34338Y-181003D01*
X34253Y-180797D01*
X35848Y-179201D01*
X36341Y-179283D01*
X36442Y-179488D01*
X36110Y-179920D01*
X35662Y-181003D01*
X35509Y-182165D01*
X35662Y-183328D01*
X36110Y-184411D01*
X36188Y-184512D01*
X35967Y-184961D01*
X35165D01*
X34385Y-185116D01*
X33723Y-185558D01*
X31369Y-187913D01*
X31162Y-187827D01*
X30000Y-187674D01*
X28838Y-187827D01*
X27754Y-188276D01*
X26824Y-188990D01*
X26111Y-189920D01*
X25662Y-191003D01*
X25509Y-192165D01*
X25662Y-193328D01*
X26111Y-194411D01*
X26824Y-195341D01*
X27754Y-196055D01*
X28838Y-196503D01*
X30000Y-196657D01*
X31162Y-196503D01*
X32246Y-196055D01*
X33176Y-195341D01*
X33889Y-194411D01*
X34338Y-193328D01*
X34491Y-192165D01*
X34338Y-191003D01*
X34253Y-190797D01*
X35848Y-189201D01*
X36341Y-189283D01*
X36442Y-189488D01*
X36110Y-189920D01*
X35662Y-191003D01*
X35509Y-192165D01*
X35662Y-193328D01*
X36110Y-194411D01*
X36824Y-195341D01*
X37754Y-196055D01*
X38838Y-196503D01*
X40000Y-196657D01*
X41162Y-196503D01*
X42246Y-196055D01*
X43176Y-195341D01*
X43889Y-194411D01*
X43975Y-194204D01*
X45000D01*
X45780Y-194049D01*
X46442Y-193607D01*
X76510Y-163539D01*
X118185D01*
X123088Y-168442D01*
X123088Y-168442D01*
X123484Y-168707D01*
X123749Y-168884D01*
X124530Y-169039D01*
X141827D01*
X141961Y-169173D01*
Y-176673D01*
X142116Y-177454D01*
X142558Y-178115D01*
X142809Y-178283D01*
Y-180423D01*
X145191D01*
Y-178283D01*
X145442Y-178115D01*
X145884Y-177454D01*
X146039Y-176673D01*
Y-175247D01*
X146306Y-175069D01*
X146747Y-175304D01*
Y-180423D01*
X151096D01*
Y-178304D01*
X151379Y-178115D01*
X151640Y-177725D01*
X152140D01*
X152401Y-178115D01*
X152652Y-178283D01*
Y-180423D01*
X166844D01*
Y-178283D01*
X167095Y-178115D01*
X167537Y-177454D01*
X167693Y-176673D01*
Y-166931D01*
X168155Y-166739D01*
X175961Y-174546D01*
Y-181655D01*
X175896Y-181721D01*
X172740D01*
X171960Y-181876D01*
X171298Y-182318D01*
X171130Y-182569D01*
X168991D01*
Y-184950D01*
Y-186919D01*
Y-188887D01*
Y-190856D01*
Y-192824D01*
X171130D01*
X171298Y-193076D01*
X171712Y-193352D01*
Y-193852D01*
X171298Y-194129D01*
X171130Y-194380D01*
X168991D01*
Y-196761D01*
Y-198730D01*
Y-200698D01*
Y-202667D01*
Y-204635D01*
Y-206604D01*
X171130D01*
X171298Y-206855D01*
X171960Y-207297D01*
X172740Y-207453D01*
X184569D01*
X198461Y-221345D01*
Y-228500D01*
X198616Y-229280D01*
X199058Y-229942D01*
X203558Y-234442D01*
X204220Y-234884D01*
X205000Y-235039D01*
X225000D01*
X225780Y-234884D01*
X226442Y-234442D01*
X227442Y-233442D01*
X227884Y-232780D01*
X228039Y-232000D01*
Y-231000D01*
X238750D01*
Y-230049D01*
X239944D01*
X285000Y-275105D01*
Y-290000D01*
X275000Y-300000D01*
X219549D01*
Y-292250D01*
X223500D01*
Y-283854D01*
X223500Y-283854D01*
D01*
D01*
X223500Y-283750D01*
D01*
X223750Y-283500D01*
X224500D01*
Y-283750D01*
X224500D01*
Y-292250D01*
X231500D01*
Y-283750D01*
D01*
Y-283750D01*
X231750Y-283500D01*
X232250D01*
Y-276500D01*
X215250D01*
Y-283500D01*
X216250D01*
X216500Y-283750D01*
X216500Y-283854D01*
X216500Y-283854D01*
X216500D01*
Y-287895D01*
X215198Y-289198D01*
X214802D01*
X213500Y-287895D01*
Y-283854D01*
X213500Y-283854D01*
D01*
D01*
X213500Y-283750D01*
D01*
X213750Y-283500D01*
X214750D01*
Y-276500D01*
X197750D01*
Y-283500D01*
X198500D01*
Y-283750D01*
X198500D01*
Y-292250D01*
X205500D01*
Y-283750D01*
D01*
Y-283750D01*
X205750Y-283500D01*
X206250D01*
X206500Y-283750D01*
X206500Y-283854D01*
X206500Y-283854D01*
X206500D01*
Y-292250D01*
X210451D01*
Y-300000D01*
X179549D01*
Y-292250D01*
X183500D01*
Y-283854D01*
X183500Y-283854D01*
D01*
D01*
X183500Y-283750D01*
D01*
X183750Y-283500D01*
X184500D01*
Y-283750D01*
X184500D01*
Y-292250D01*
X191500D01*
Y-283750D01*
D01*
Y-283750D01*
X191750Y-283500D01*
X192250D01*
Y-276500D01*
X175250D01*
Y-283500D01*
X176250D01*
X176500Y-283750D01*
X176500Y-283854D01*
X176500Y-283854D01*
X176500D01*
Y-287895D01*
X175198Y-289198D01*
X174802D01*
X173500Y-287895D01*
Y-283854D01*
X173500Y-283854D01*
D01*
D01*
X173500Y-283750D01*
D01*
X173750Y-283500D01*
X174750D01*
Y-276500D01*
X157750D01*
Y-283500D01*
X158500D01*
Y-283750D01*
X158500D01*
Y-292250D01*
X165500D01*
Y-283750D01*
D01*
Y-283750D01*
X165750Y-283500D01*
X166250D01*
X166500Y-283750D01*
X166500Y-283854D01*
X166500Y-283854D01*
X166500D01*
Y-292250D01*
X170451D01*
Y-300000D01*
X139549D01*
Y-292250D01*
X143500D01*
Y-283854D01*
X143500Y-283854D01*
D01*
D01*
X143500Y-283750D01*
D01*
X143750Y-283500D01*
X144500D01*
Y-283750D01*
X144500D01*
Y-292250D01*
X151500D01*
Y-283750D01*
D01*
Y-283750D01*
X151750Y-283500D01*
X152250D01*
Y-276500D01*
X135250D01*
Y-283500D01*
X136250D01*
X136500Y-283750D01*
X136500Y-283854D01*
X136500Y-283854D01*
X136500D01*
Y-287895D01*
X135198Y-289198D01*
X134802D01*
X133500Y-287895D01*
Y-283854D01*
X133500Y-283854D01*
D01*
D01*
X133500Y-283750D01*
D01*
X133750Y-283500D01*
X134750D01*
Y-276500D01*
X117750D01*
Y-283500D01*
X118500D01*
Y-283750D01*
X118500D01*
Y-292250D01*
X125500D01*
Y-283750D01*
D01*
Y-283750D01*
X125750Y-283500D01*
X126250D01*
X126500Y-283750D01*
X126500Y-283854D01*
X126500Y-283854D01*
X126500D01*
Y-292250D01*
X130451D01*
Y-300000D01*
X99549D01*
Y-292250D01*
X103500D01*
Y-283854D01*
X103500Y-283854D01*
D01*
D01*
X103500Y-283750D01*
D01*
X103750Y-283500D01*
X104500D01*
Y-283750D01*
X104500D01*
Y-292250D01*
X111500D01*
Y-283750D01*
D01*
Y-283750D01*
X111750Y-283500D01*
X112250D01*
Y-276500D01*
X95250D01*
Y-283500D01*
X96250D01*
X96500Y-283750D01*
X96500Y-283854D01*
X96500Y-283854D01*
X96500D01*
Y-287895D01*
X95198Y-289198D01*
X94802D01*
X93500Y-287895D01*
Y-283854D01*
X93500Y-283854D01*
D01*
D01*
X93500Y-283750D01*
D01*
X93750Y-283500D01*
X94750D01*
Y-276500D01*
X77750D01*
Y-283500D01*
X78500D01*
Y-283750D01*
X78500D01*
Y-292250D01*
X85500D01*
Y-283750D01*
D01*
Y-283750D01*
X85750Y-283500D01*
X86250D01*
X86500Y-283750D01*
X86500Y-283854D01*
X86500Y-283854D01*
X86500D01*
Y-292250D01*
X90451D01*
Y-300000D01*
X5000D01*
X2039Y-297039D01*
Y-67961D01*
X5000Y-65000D01*
X78000D01*
Y-65488D01*
X78000D01*
Y-79512D01*
X79951D01*
Y-86343D01*
X79324Y-86824D01*
X78610Y-87754D01*
X78162Y-88838D01*
X78009Y-90000D01*
X78162Y-91162D01*
X78610Y-92246D01*
X79324Y-93176D01*
X80254Y-93889D01*
X81338Y-94338D01*
X82500Y-94491D01*
X83662Y-94338D01*
X84006Y-94196D01*
X84284Y-94612D01*
X79698Y-99198D01*
X79145Y-100024D01*
X79050Y-100500D01*
X77250D01*
Y-107500D01*
X85750D01*
Y-100500D01*
X85750Y-100500D01*
X85750D01*
X85707Y-100397D01*
X91717Y-94388D01*
X92500Y-94491D01*
X93662Y-94338D01*
X94746Y-93889D01*
X95503Y-93309D01*
X95951Y-93530D01*
Y-100500D01*
X93250D01*
Y-107500D01*
X101750D01*
Y-100500D01*
X101049D01*
Y-78500D01*
X100855Y-77525D01*
X100302Y-76698D01*
X97039Y-73434D01*
Y-69988D01*
X96884Y-68814D01*
X96431Y-67719D01*
X95709Y-66779D01*
X94769Y-66057D01*
X93675Y-65604D01*
X92876Y-65499D01*
X92909Y-65000D01*
X103000D01*
Y-65488D01*
X103000D01*
Y-79512D01*
X104951D01*
Y-86343D01*
X104324Y-86824D01*
X103611Y-87754D01*
X103162Y-88838D01*
X103009Y-90000D01*
X103162Y-91162D01*
X103611Y-92246D01*
X104324Y-93176D01*
X105254Y-93889D01*
X106338Y-94338D01*
X107500Y-94491D01*
X108662Y-94338D01*
X109006Y-94196D01*
X109283Y-94612D01*
X104698Y-99198D01*
X104145Y-100024D01*
X104051Y-100500D01*
X102250D01*
Y-107500D01*
X110750D01*
Y-100500D01*
X110750Y-100500D01*
X110750D01*
X110707Y-100397D01*
X116717Y-94388D01*
X117500Y-94491D01*
X118662Y-94338D01*
X119746Y-93889D01*
X120503Y-93309D01*
X120951Y-93530D01*
Y-100500D01*
X118250D01*
Y-107500D01*
X126750D01*
Y-100500D01*
X126049D01*
Y-78500D01*
X125855Y-77525D01*
X125302Y-76698D01*
X122039Y-73434D01*
Y-69988D01*
X121884Y-68814D01*
X121431Y-67719D01*
X120709Y-66779D01*
X119769Y-66057D01*
X118675Y-65604D01*
X117876Y-65499D01*
X117909Y-65000D01*
X128000D01*
Y-65488D01*
X128000D01*
Y-79512D01*
X129951D01*
Y-86343D01*
X129324Y-86824D01*
X128611Y-87754D01*
X128162Y-88838D01*
X128009Y-90000D01*
X128162Y-91162D01*
X128611Y-92246D01*
X129324Y-93176D01*
X130254Y-93889D01*
X131338Y-94338D01*
X132500Y-94491D01*
X133662Y-94338D01*
X134006Y-94196D01*
X134283Y-94612D01*
X129698Y-99198D01*
X129145Y-100024D01*
X129051Y-100500D01*
X127250D01*
Y-107500D01*
X135750D01*
Y-100500D01*
X135750Y-100500D01*
X135750D01*
X135707Y-100397D01*
X141717Y-94388D01*
X142500Y-94491D01*
X143662Y-94338D01*
X144746Y-93889D01*
X145503Y-93309D01*
X145951Y-93530D01*
Y-100500D01*
X143250D01*
Y-107500D01*
X151750D01*
Y-100500D01*
X151049D01*
Y-78500D01*
X150855Y-77525D01*
X150302Y-76698D01*
X147039Y-73434D01*
Y-69988D01*
X146884Y-68814D01*
X146431Y-67719D01*
X145709Y-66779D01*
X144769Y-66057D01*
X143675Y-65604D01*
X142876Y-65499D01*
X142909Y-65000D01*
X153000D01*
Y-65488D01*
X153000D01*
Y-79512D01*
X154951D01*
Y-86343D01*
X154324Y-86824D01*
X153611Y-87754D01*
X153162Y-88838D01*
X153009Y-90000D01*
X153162Y-91162D01*
X153611Y-92246D01*
X154324Y-93176D01*
X155254Y-93889D01*
X156338Y-94338D01*
X157500Y-94491D01*
X158662Y-94338D01*
X159006Y-94196D01*
X159283Y-94612D01*
X154698Y-99198D01*
X154145Y-100024D01*
X154051Y-100500D01*
X152250D01*
Y-107500D01*
X160750D01*
Y-100500D01*
X160750Y-100500D01*
X160750D01*
X160707Y-100397D01*
X166717Y-94388D01*
X167500Y-94491D01*
X168662Y-94338D01*
X169746Y-93889D01*
X170503Y-93309D01*
X170951Y-93530D01*
Y-100500D01*
X168250D01*
Y-107500D01*
X176750D01*
Y-100500D01*
X176049D01*
Y-78500D01*
X175855Y-77525D01*
X175302Y-76698D01*
X172039Y-73434D01*
Y-69988D01*
X171884Y-68814D01*
X171431Y-67719D01*
X170709Y-66779D01*
X169769Y-66057D01*
X168675Y-65604D01*
X167876Y-65499D01*
X167909Y-65000D01*
X180000D01*
X185000Y-60000D01*
Y-5000D01*
X187961Y-2039D01*
X312039D01*
X315000Y-5000D01*
D02*
G37*
G36*
X203558Y-214442D02*
X203558Y-214442D01*
X204220Y-214884D01*
X205000Y-215039D01*
X205000Y-215039D01*
X225000D01*
X225780Y-214884D01*
X226442Y-214442D01*
X227442Y-213442D01*
X227884Y-212780D01*
X228039Y-212000D01*
X228039Y-212000D01*
X228039Y-212000D01*
Y-212000D01*
Y-211000D01*
X238750D01*
Y-210049D01*
X255444D01*
X285000Y-239605D01*
Y-267242D01*
X284538Y-267433D01*
X242802Y-225698D01*
X241975Y-225145D01*
X241000Y-224951D01*
X238750D01*
Y-224000D01*
X204750D01*
D01*
X204750D01*
X204539Y-223789D01*
Y-219500D01*
X204539Y-219500D01*
X204539Y-219500D01*
Y-219500D01*
X204539D01*
X204539Y-219500D01*
X204384Y-218720D01*
X204207Y-218455D01*
X203942Y-218058D01*
X203942Y-218058D01*
X189861Y-203977D01*
X190053Y-203516D01*
X192632D01*
X203558Y-214442D01*
D02*
G37*
%LPC*%
G36*
X93750Y-108500D02*
X77250D01*
Y-115500D01*
X93750D01*
Y-108500D01*
D02*
G37*
G36*
X55000Y-235509D02*
X53838Y-235662D01*
X52754Y-236110D01*
X51824Y-236824D01*
X51111Y-237754D01*
X50662Y-238838D01*
X50509Y-240000D01*
X50662Y-241162D01*
X51111Y-242246D01*
X51824Y-243176D01*
X52754Y-243889D01*
X53838Y-244338D01*
X55000Y-244491D01*
X56162Y-244338D01*
X57246Y-243889D01*
X58176Y-243176D01*
X58890Y-242246D01*
X59338Y-241162D01*
X59491Y-240000D01*
X59338Y-238838D01*
X58890Y-237754D01*
X58176Y-236824D01*
X57246Y-236110D01*
X56162Y-235662D01*
X55000Y-235509D01*
D02*
G37*
G36*
X65000D02*
X63838Y-235662D01*
X62754Y-236110D01*
X61824Y-236824D01*
X61111Y-237754D01*
X60662Y-238838D01*
X60509Y-240000D01*
X60662Y-241162D01*
X61111Y-242246D01*
X61824Y-243176D01*
X62754Y-243889D01*
X63838Y-244338D01*
X65000Y-244491D01*
X66162Y-244338D01*
X67246Y-243889D01*
X68176Y-243176D01*
X68889Y-242246D01*
X69338Y-241162D01*
X69491Y-240000D01*
X69338Y-238838D01*
X68889Y-237754D01*
X68176Y-236824D01*
X67246Y-236110D01*
X66162Y-235662D01*
X65000Y-235509D01*
D02*
G37*
G36*
X115500Y-166461D02*
X81165D01*
X80385Y-166616D01*
X80120Y-166793D01*
X79723Y-167058D01*
X79723Y-167058D01*
X46655Y-200126D01*
X43975D01*
X43889Y-199920D01*
X43176Y-198990D01*
X42246Y-198276D01*
X41162Y-197827D01*
X40000Y-197674D01*
X38838Y-197827D01*
X37754Y-198276D01*
X36824Y-198990D01*
X36110Y-199920D01*
X35662Y-201003D01*
X35509Y-202165D01*
X35662Y-203328D01*
X36110Y-204411D01*
X36188Y-204512D01*
X35967Y-204961D01*
X35165D01*
X34385Y-205116D01*
X33723Y-205558D01*
X31369Y-207913D01*
X31162Y-207827D01*
X30000Y-207674D01*
X28838Y-207827D01*
X27754Y-208276D01*
X26824Y-208990D01*
X26111Y-209920D01*
X25662Y-211003D01*
X25509Y-212165D01*
X25662Y-213328D01*
X26111Y-214411D01*
X26188Y-214512D01*
X25967Y-214961D01*
X25345D01*
X24539Y-214155D01*
Y-205345D01*
X25606Y-204278D01*
X26096Y-204376D01*
X26111Y-204411D01*
X26824Y-205341D01*
X27754Y-206055D01*
X28838Y-206504D01*
X30000Y-206657D01*
X31162Y-206504D01*
X32246Y-206055D01*
X33176Y-205341D01*
X33889Y-204411D01*
X34338Y-203328D01*
X34491Y-202165D01*
X34338Y-201003D01*
X33889Y-199920D01*
X33176Y-198990D01*
X32246Y-198276D01*
X31162Y-197827D01*
X30000Y-197674D01*
X28838Y-197827D01*
X27754Y-198276D01*
X26824Y-198990D01*
X26111Y-199920D01*
X26025Y-200126D01*
X24835D01*
X24054Y-200281D01*
X23393Y-200723D01*
X21058Y-203058D01*
X20616Y-203720D01*
X20461Y-204500D01*
Y-215000D01*
X20616Y-215780D01*
X21058Y-216442D01*
X23058Y-218442D01*
X23720Y-218884D01*
X24500Y-219039D01*
X26221D01*
X26442Y-219488D01*
X26111Y-219920D01*
X25662Y-221003D01*
X25509Y-222165D01*
X25662Y-223328D01*
X26111Y-224411D01*
X26824Y-225341D01*
X27754Y-226055D01*
X28838Y-226503D01*
X30000Y-226657D01*
X31162Y-226503D01*
X32246Y-226055D01*
X33176Y-225341D01*
X33889Y-224411D01*
X34338Y-223328D01*
X34491Y-222165D01*
X34338Y-221003D01*
X33889Y-219920D01*
X33558Y-219488D01*
X33779Y-219039D01*
X36221D01*
X36442Y-219488D01*
X36110Y-219920D01*
X35662Y-221003D01*
X35509Y-222165D01*
X35662Y-223328D01*
X36110Y-224411D01*
X36824Y-225341D01*
X37754Y-226055D01*
X37961Y-226140D01*
Y-247500D01*
X38116Y-248280D01*
X38558Y-248942D01*
X46058Y-256442D01*
X46720Y-256884D01*
X47500Y-257039D01*
X51025D01*
X51111Y-257246D01*
X51824Y-258176D01*
X52754Y-258890D01*
X53838Y-259338D01*
X55000Y-259491D01*
X56162Y-259338D01*
X57246Y-258890D01*
X58176Y-258176D01*
X58890Y-257246D01*
X59338Y-256162D01*
X59491Y-255000D01*
X59338Y-253838D01*
X58890Y-252754D01*
X58176Y-251824D01*
X57246Y-251111D01*
X56162Y-250662D01*
X55000Y-250509D01*
X53838Y-250662D01*
X52754Y-251111D01*
X51824Y-251824D01*
X51111Y-252754D01*
X51025Y-252961D01*
X48345D01*
X42039Y-246655D01*
Y-226140D01*
X42246Y-226055D01*
X43176Y-225341D01*
X43889Y-224411D01*
X44338Y-223328D01*
X44491Y-222165D01*
X44338Y-221003D01*
X43889Y-219920D01*
X43558Y-219488D01*
X43779Y-219039D01*
X47500D01*
X48280Y-218884D01*
X48942Y-218442D01*
X48942Y-218442D01*
X48942Y-218442D01*
X87845Y-179539D01*
X111655D01*
X121249Y-189133D01*
X121058Y-189595D01*
X107866D01*
X107086Y-189750D01*
X106424Y-190192D01*
X106116Y-190500D01*
X96250D01*
Y-191461D01*
X93500D01*
X92720Y-191616D01*
X92058Y-192058D01*
X86955Y-197161D01*
X86540Y-196883D01*
X86838Y-196162D01*
X86991Y-195000D01*
X86838Y-193838D01*
X86389Y-192754D01*
X85676Y-191824D01*
X84746Y-191111D01*
X83662Y-190662D01*
X82500Y-190509D01*
X81338Y-190662D01*
X80254Y-191111D01*
X79324Y-191824D01*
X78610Y-192754D01*
X78162Y-193838D01*
X78009Y-195000D01*
X78162Y-196162D01*
X78610Y-197246D01*
X78815Y-197512D01*
X78594Y-197961D01*
X77500D01*
X76720Y-198116D01*
X76058Y-198558D01*
X73558Y-201058D01*
X73116Y-201720D01*
X72961Y-202500D01*
Y-249155D01*
X69696Y-252420D01*
X68956Y-252727D01*
X68864Y-252721D01*
X68176Y-251824D01*
X67246Y-251111D01*
X66162Y-250662D01*
X65000Y-250509D01*
X63838Y-250662D01*
X62754Y-251111D01*
X61824Y-251824D01*
X61111Y-252754D01*
X60662Y-253838D01*
X60509Y-255000D01*
X60662Y-256162D01*
X61111Y-257246D01*
X61824Y-258176D01*
X62754Y-258890D01*
X63838Y-259338D01*
X65000Y-259491D01*
X66162Y-259338D01*
X67246Y-258890D01*
X68176Y-258176D01*
X68889Y-257246D01*
X68975Y-257039D01*
X70000D01*
X70780Y-256884D01*
X71442Y-256442D01*
X76442Y-251442D01*
X76884Y-250780D01*
X77039Y-250000D01*
Y-203345D01*
X78208Y-202176D01*
X78702Y-202257D01*
X78815Y-202488D01*
X78610Y-202754D01*
X78162Y-203838D01*
X78009Y-205000D01*
X78162Y-206162D01*
X78610Y-207246D01*
X79324Y-208176D01*
X80051Y-208733D01*
Y-209500D01*
X80245Y-210475D01*
X80798Y-211302D01*
X86798Y-217302D01*
X87625Y-217855D01*
X88600Y-218049D01*
X97451D01*
Y-221284D01*
X96791Y-221791D01*
X96069Y-222731D01*
X95616Y-223825D01*
X95461Y-225000D01*
X95616Y-226175D01*
X96069Y-227269D01*
X96791Y-228209D01*
X97731Y-228931D01*
X98825Y-229384D01*
X100000Y-229539D01*
X101175Y-229384D01*
X102269Y-228931D01*
X103209Y-228209D01*
X103931Y-227269D01*
X104384Y-226175D01*
X104539Y-225000D01*
X104384Y-223825D01*
X103931Y-222731D01*
X103209Y-221791D01*
X102549Y-221284D01*
Y-219000D01*
X109250D01*
Y-218049D01*
X117750D01*
Y-218500D01*
X120972D01*
X124250Y-221778D01*
Y-225000D01*
X130750D01*
Y-219000D01*
X127924D01*
X127646Y-218584D01*
X127681Y-218500D01*
X137250D01*
Y-217539D01*
X141000D01*
X141780Y-217384D01*
X142442Y-216942D01*
X143134Y-216250D01*
X145191D01*
Y-214304D01*
X145632Y-214069D01*
X145898Y-214247D01*
Y-230218D01*
X137655Y-238461D01*
X97672D01*
X96891Y-238616D01*
X96230Y-239058D01*
X92558Y-242730D01*
X92116Y-243391D01*
X91961Y-244172D01*
Y-247655D01*
X91569Y-248047D01*
X85547D01*
Y-256953D01*
X87951D01*
Y-259750D01*
X87000D01*
Y-268250D01*
D01*
Y-268250D01*
X86750Y-268500D01*
X86250D01*
Y-275500D01*
X94750D01*
Y-268500D01*
X94000D01*
Y-268250D01*
X94000D01*
Y-259750D01*
X93049D01*
Y-256953D01*
X94453D01*
Y-250931D01*
X95000Y-250384D01*
X95747Y-251131D01*
X95662Y-251338D01*
X95509Y-252500D01*
X95662Y-253662D01*
X96110Y-254746D01*
X96824Y-255676D01*
X96951Y-255773D01*
Y-259750D01*
X96000D01*
Y-268250D01*
D01*
Y-268250D01*
X95750Y-268500D01*
X95250D01*
Y-275500D01*
X103750D01*
Y-268500D01*
X103000D01*
Y-268250D01*
X103000D01*
Y-259750D01*
X102049D01*
Y-256471D01*
X102246Y-256389D01*
X103176Y-255676D01*
X103890Y-254746D01*
X104338Y-253662D01*
X104491Y-252500D01*
X104338Y-251338D01*
X103890Y-250254D01*
X103176Y-249324D01*
X102246Y-248610D01*
X101162Y-248162D01*
X100000Y-248009D01*
X98838Y-248162D01*
X98631Y-248247D01*
X98039Y-247655D01*
Y-245845D01*
X99345Y-244539D01*
X140000D01*
X140780Y-244384D01*
X141442Y-243942D01*
X141442Y-243942D01*
X141442Y-243942D01*
X149373Y-236011D01*
X149835Y-236202D01*
Y-236781D01*
X141155Y-245461D01*
X135000D01*
X134220Y-245616D01*
X133558Y-246058D01*
X131569Y-248047D01*
X125547D01*
Y-256953D01*
X127951D01*
Y-259750D01*
X127000D01*
Y-268250D01*
D01*
Y-268250D01*
X126750Y-268500D01*
X126250D01*
Y-275500D01*
X134750D01*
Y-268500D01*
X134000D01*
Y-268250D01*
X134000D01*
Y-259750D01*
X133049D01*
Y-256953D01*
X134453D01*
Y-250931D01*
X135708Y-249676D01*
X136202Y-249757D01*
X136315Y-249988D01*
X136110Y-250254D01*
X135662Y-251338D01*
X135509Y-252500D01*
X135662Y-253662D01*
X136110Y-254746D01*
X136824Y-255676D01*
X136951Y-255773D01*
Y-259750D01*
X136000D01*
Y-268250D01*
D01*
Y-268250D01*
X135750Y-268500D01*
X135250D01*
Y-275500D01*
X143750D01*
Y-268500D01*
X143000D01*
Y-268250D01*
X143000D01*
Y-259750D01*
X142049D01*
Y-256471D01*
X142246Y-256389D01*
X143176Y-255676D01*
X143889Y-254746D01*
X144338Y-253662D01*
X144491Y-252500D01*
X144338Y-251338D01*
X144253Y-251131D01*
X155000Y-240384D01*
X165547Y-250931D01*
Y-256953D01*
X167951D01*
Y-259750D01*
X167000D01*
Y-268250D01*
D01*
Y-268250D01*
X166750Y-268500D01*
X166250D01*
Y-275500D01*
X174750D01*
Y-268500D01*
X174000D01*
Y-268250D01*
X174000D01*
Y-259750D01*
X173049D01*
Y-256953D01*
X174453D01*
Y-250490D01*
X174915Y-250299D01*
X175747Y-251131D01*
X175662Y-251338D01*
X175509Y-252500D01*
X175662Y-253662D01*
X176110Y-254746D01*
X176824Y-255676D01*
X176951Y-255773D01*
Y-259750D01*
X176000D01*
Y-268250D01*
D01*
Y-268250D01*
X175750Y-268500D01*
X175250D01*
Y-275500D01*
X183750D01*
Y-268500D01*
X183000D01*
Y-268250D01*
X183000D01*
Y-259750D01*
X182049D01*
Y-256471D01*
X182246Y-256389D01*
X183176Y-255676D01*
X183889Y-254746D01*
X184338Y-253662D01*
X184491Y-252500D01*
X184338Y-251338D01*
X183889Y-250254D01*
X183176Y-249324D01*
X182246Y-248610D01*
X181162Y-248162D01*
X180000Y-248009D01*
X178838Y-248162D01*
X178631Y-248247D01*
X176442Y-246058D01*
X175780Y-245616D01*
X175000Y-245461D01*
X168845D01*
X159819Y-236435D01*
Y-235856D01*
X160281Y-235665D01*
X168558Y-243942D01*
X169220Y-244384D01*
X170000Y-244539D01*
X210655D01*
X211961Y-245845D01*
Y-247655D01*
X211569Y-248047D01*
X205547D01*
Y-256953D01*
X207951D01*
Y-259750D01*
X207000D01*
Y-268250D01*
D01*
Y-268250D01*
X206750Y-268500D01*
X206250D01*
Y-275500D01*
X214750D01*
Y-268500D01*
X214000D01*
Y-268250D01*
X214000D01*
Y-259750D01*
X213049D01*
Y-256953D01*
X214453D01*
Y-250931D01*
X215000Y-250384D01*
X215747Y-251131D01*
X215662Y-251338D01*
X215509Y-252500D01*
X215662Y-253662D01*
X216110Y-254746D01*
X216824Y-255676D01*
X216951Y-255773D01*
Y-259750D01*
X216000D01*
Y-268250D01*
D01*
Y-268250D01*
X215750Y-268500D01*
X215250D01*
Y-275500D01*
X223750D01*
Y-268500D01*
X223000D01*
Y-268250D01*
X223000D01*
Y-259750D01*
X222049D01*
Y-256471D01*
X222246Y-256389D01*
X223176Y-255676D01*
X223889Y-254746D01*
X224338Y-253662D01*
X224491Y-252500D01*
X224338Y-251338D01*
X223889Y-250254D01*
X223176Y-249324D01*
X222246Y-248610D01*
X221162Y-248162D01*
X220000Y-248009D01*
X218838Y-248162D01*
X218631Y-248247D01*
X218039Y-247655D01*
Y-244172D01*
X217884Y-243391D01*
X217442Y-242730D01*
X213770Y-239058D01*
X213109Y-238616D01*
X212328Y-238461D01*
X171845D01*
X169234Y-235850D01*
X169455Y-235401D01*
X170500Y-235539D01*
X171675Y-235384D01*
X172769Y-234931D01*
X173709Y-234209D01*
X174431Y-233269D01*
X174884Y-232175D01*
X175039Y-231000D01*
X174884Y-229825D01*
X174831Y-229697D01*
X175014Y-229514D01*
X175478Y-228819D01*
X175478Y-228819D01*
X175478Y-228819D01*
X175641Y-228000D01*
Y-226500D01*
X176645D01*
X176750Y-226570D01*
Y-228500D01*
X185250D01*
Y-221500D01*
X176750D01*
Y-220500D01*
X170250D01*
Y-221461D01*
X168345D01*
X165724Y-218840D01*
Y-212500D01*
X165569Y-211720D01*
X165127Y-211058D01*
X164875Y-210890D01*
Y-208750D01*
X146747D01*
Y-210890D01*
X146495Y-211058D01*
X146219Y-211472D01*
X145719D01*
X145442Y-211058D01*
X145191Y-210890D01*
Y-208750D01*
X142809D01*
Y-210890D01*
X142558Y-211058D01*
X140155Y-213461D01*
X137250D01*
Y-212500D01*
X127537D01*
X127346Y-212038D01*
X131931Y-207453D01*
X136913D01*
X137694Y-207297D01*
X138355Y-206855D01*
X138523Y-206604D01*
X140663D01*
Y-204223D01*
X138523D01*
X138355Y-203972D01*
X137694Y-203529D01*
X136913Y-203374D01*
X131087D01*
X130306Y-203529D01*
X129645Y-203972D01*
X121116Y-212500D01*
X117750D01*
Y-212951D01*
X109250D01*
Y-212000D01*
X100750D01*
Y-212951D01*
X89656D01*
X85494Y-208789D01*
X85527Y-208290D01*
X85676Y-208176D01*
X86389Y-207246D01*
X86474Y-207041D01*
X90100D01*
X90919Y-206878D01*
X91614Y-206414D01*
X91614Y-206414D01*
X91614Y-206414D01*
X95788Y-202240D01*
X96250Y-202431D01*
Y-203000D01*
X102750D01*
Y-197000D01*
X96250D01*
Y-197859D01*
X95000D01*
X94181Y-198022D01*
X93486Y-198486D01*
X89213Y-202759D01*
X86524D01*
X86260Y-202334D01*
X86406Y-202039D01*
X87000D01*
X87780Y-201884D01*
X88442Y-201442D01*
X94345Y-195539D01*
X96250D01*
Y-196500D01*
X109250D01*
Y-199000D01*
X117750D01*
Y-198500D01*
X124250D01*
Y-197610D01*
X136913D01*
X137694Y-197455D01*
X138355Y-197013D01*
X138523Y-196761D01*
X140663D01*
Y-194793D01*
Y-192824D01*
Y-190856D01*
Y-188887D01*
Y-186919D01*
Y-184950D01*
Y-182569D01*
X138544D01*
X138355Y-182287D01*
X137694Y-181844D01*
X136913Y-181689D01*
X131573D01*
X116942Y-167058D01*
X116280Y-166616D01*
X115500Y-166461D01*
D02*
G37*
G36*
X118750Y-108500D02*
X102250D01*
Y-115500D01*
X118750D01*
Y-108500D01*
D02*
G37*
G36*
X208000Y-44750D02*
X201000D01*
Y-53250D01*
X208000D01*
Y-51549D01*
X211622D01*
Y-53158D01*
X211726D01*
Y-54500D01*
X208000D01*
Y-67500D01*
X215077D01*
X215226Y-67649D01*
Y-68250D01*
X214500D01*
Y-72077D01*
X214351Y-72226D01*
X208544D01*
X208209Y-71791D01*
X207269Y-71069D01*
X206175Y-70616D01*
X205000Y-70461D01*
X203825Y-70616D01*
X202731Y-71069D01*
X201791Y-71791D01*
X201069Y-72731D01*
X200616Y-73825D01*
X200461Y-75000D01*
X200616Y-76175D01*
X201069Y-77269D01*
X201791Y-78209D01*
X202731Y-78931D01*
X203825Y-79384D01*
X205000Y-79539D01*
X206175Y-79384D01*
X207269Y-78931D01*
X208209Y-78209D01*
X208544Y-77774D01*
X215500D01*
X216218Y-77679D01*
X216610Y-77517D01*
X216887Y-77402D01*
X217461Y-76961D01*
X217673Y-76750D01*
X221500D01*
Y-68250D01*
X220774D01*
Y-66500D01*
X220679Y-65782D01*
X220402Y-65113D01*
X219961Y-64539D01*
X217000Y-61577D01*
Y-60151D01*
X217179Y-59718D01*
X217274Y-59000D01*
Y-53158D01*
X217378D01*
Y-44842D01*
X211622D01*
Y-46451D01*
X208000D01*
Y-44750D01*
D02*
G37*
G36*
X200000Y-36250D02*
X193000D01*
Y-44750D01*
Y-53250D01*
X200000D01*
Y-44750D01*
Y-36250D01*
D02*
G37*
G36*
X236953Y-10547D02*
X228047D01*
Y-19453D01*
X229726D01*
Y-46226D01*
X229189D01*
Y-44842D01*
X223433D01*
Y-53158D01*
X229189D01*
Y-51774D01*
X235250D01*
Y-52500D01*
X243750D01*
Y-51774D01*
X244500D01*
Y-53500D01*
X249294D01*
X250965Y-55171D01*
Y-63000D01*
X249750D01*
Y-76000D01*
X250965D01*
Y-77000D01*
X249750D01*
Y-90000D01*
X250965D01*
Y-94981D01*
X250616Y-95825D01*
X250461Y-97000D01*
X250616Y-98175D01*
X251069Y-99269D01*
X251791Y-100209D01*
X252731Y-100931D01*
X253825Y-101384D01*
X255000Y-101539D01*
X256175Y-101384D01*
X257269Y-100931D01*
X258209Y-100209D01*
X258931Y-99269D01*
X259384Y-98175D01*
X259539Y-97000D01*
X259384Y-95825D01*
X259034Y-94981D01*
Y-90000D01*
X260250D01*
Y-77000D01*
X259034D01*
Y-76000D01*
X260250D01*
Y-63000D01*
X259034D01*
Y-53500D01*
X258897Y-52456D01*
X258494Y-51483D01*
X257853Y-50647D01*
X257500Y-50294D01*
Y-44500D01*
X244500D01*
Y-46226D01*
X243750D01*
Y-45500D01*
X235274D01*
Y-19453D01*
X236953D01*
Y-10547D01*
D02*
G37*
G36*
X143750Y-108500D02*
X127250D01*
Y-115500D01*
X143750D01*
Y-108500D01*
D02*
G37*
G36*
X168750D02*
X152250D01*
Y-115500D01*
X168750D01*
Y-108500D01*
D02*
G37*
G36*
X291331Y-49453D02*
X282669D01*
X281250Y-49640D01*
X279927Y-50188D01*
X278792Y-51059D01*
X277920Y-52195D01*
X277372Y-53518D01*
X277185Y-54937D01*
X277372Y-56356D01*
X277920Y-57679D01*
X278005Y-57789D01*
X272794Y-63000D01*
X266750D01*
Y-76000D01*
X277250D01*
Y-69956D01*
X286785Y-60421D01*
X291331D01*
X292750Y-60234D01*
X294073Y-59686D01*
X295208Y-58815D01*
X296080Y-57679D01*
X296628Y-56356D01*
X296815Y-54937D01*
X296628Y-53518D01*
X296080Y-52195D01*
X295208Y-51059D01*
X294073Y-50188D01*
X292750Y-49640D01*
X291331Y-49453D01*
D02*
G37*
%LPD*%
D10*
X177628Y-140128D02*
D03*
X201291Y-163791D02*
D03*
D11*
X105000Y-215500D02*
D03*
Y-207500D02*
D03*
X217500Y-179500D02*
D03*
Y-187500D02*
D03*
X234500D02*
D03*
Y-179500D02*
D03*
X217500Y-199500D02*
D03*
Y-207500D02*
D03*
X234500D02*
D03*
Y-199500D02*
D03*
X164500Y-104000D02*
D03*
Y-112000D02*
D03*
X217500Y-227500D02*
D03*
Y-219500D02*
D03*
X234500D02*
D03*
Y-227500D02*
D03*
X172500Y-104000D02*
D03*
Y-112000D02*
D03*
X139500Y-104000D02*
D03*
Y-112000D02*
D03*
X147500Y-104000D02*
D03*
Y-112000D02*
D03*
X219500Y-280000D02*
D03*
Y-272000D02*
D03*
X179500D02*
D03*
Y-280000D02*
D03*
X114500Y-104000D02*
D03*
Y-112000D02*
D03*
X122500Y-104000D02*
D03*
Y-112000D02*
D03*
X210500Y-280000D02*
D03*
Y-272000D02*
D03*
X170500D02*
D03*
Y-280000D02*
D03*
X89500Y-104000D02*
D03*
Y-112000D02*
D03*
X139500Y-272000D02*
D03*
Y-280000D02*
D03*
X99500Y-272000D02*
D03*
Y-280000D02*
D03*
X97500Y-104000D02*
D03*
Y-112000D02*
D03*
X130500Y-280000D02*
D03*
Y-272000D02*
D03*
X90500Y-280000D02*
D03*
Y-272000D02*
D03*
X156500Y-104000D02*
D03*
Y-112000D02*
D03*
X131500D02*
D03*
Y-104000D02*
D03*
X106500D02*
D03*
Y-112000D02*
D03*
X81500D02*
D03*
Y-104000D02*
D03*
X209000Y-179500D02*
D03*
Y-187500D02*
D03*
X226000D02*
D03*
Y-179500D02*
D03*
X209000Y-199500D02*
D03*
Y-207500D02*
D03*
X226000D02*
D03*
Y-199500D02*
D03*
X209000Y-219500D02*
D03*
Y-227500D02*
D03*
X226000D02*
D03*
Y-219500D02*
D03*
X181000Y-217000D02*
D03*
Y-225000D02*
D03*
X113500Y-203500D02*
D03*
Y-195500D02*
D03*
X239500Y-49000D02*
D03*
Y-41000D02*
D03*
X82000Y-272000D02*
D03*
Y-280000D02*
D03*
X122000Y-272000D02*
D03*
Y-280000D02*
D03*
X108000D02*
D03*
Y-272000D02*
D03*
X148000Y-280000D02*
D03*
Y-272000D02*
D03*
X162000D02*
D03*
Y-280000D02*
D03*
X202000Y-272000D02*
D03*
Y-280000D02*
D03*
X188000D02*
D03*
Y-272000D02*
D03*
X228000Y-280000D02*
D03*
Y-272000D02*
D03*
D12*
X167500Y-37500D02*
D03*
Y-72500D02*
D03*
X157500Y-37500D02*
D03*
X142500D02*
D03*
Y-72500D02*
D03*
X132500Y-37500D02*
D03*
X117500D02*
D03*
Y-72500D02*
D03*
X107500Y-37500D02*
D03*
X92500D02*
D03*
Y-72500D02*
D03*
X82500Y-37500D02*
D03*
D13*
X157500Y-72500D02*
D03*
X132500D02*
D03*
X107500D02*
D03*
X82500D02*
D03*
D14*
X220406Y-38075D02*
D03*
D15*
X220406Y-48114D02*
D03*
D16*
X214500Y-49000D02*
D03*
X226311D02*
D03*
D17*
X228000Y-288000D02*
D03*
X220000D02*
D03*
X180000D02*
D03*
X188000D02*
D03*
X202000D02*
D03*
X210000D02*
D03*
X170000D02*
D03*
X162000D02*
D03*
X148000D02*
D03*
X140000D02*
D03*
X100000D02*
D03*
X108000D02*
D03*
X122000D02*
D03*
X130000D02*
D03*
X90000D02*
D03*
X82000D02*
D03*
X196500Y-49000D02*
D03*
X204500D02*
D03*
Y-40500D02*
D03*
X196500D02*
D03*
X219500Y-264000D02*
D03*
X227500D02*
D03*
X187500D02*
D03*
X179500D02*
D03*
X202500D02*
D03*
X210500D02*
D03*
X170500D02*
D03*
X162500D02*
D03*
X139500D02*
D03*
X147500D02*
D03*
X99500D02*
D03*
X107500D02*
D03*
X130500D02*
D03*
X122500D02*
D03*
X90500D02*
D03*
X82500D02*
D03*
X226000Y-72500D02*
D03*
X218000D02*
D03*
X292000Y-75000D02*
D03*
X284000D02*
D03*
Y-83500D02*
D03*
X292000D02*
D03*
D18*
X312500Y-189000D02*
D03*
X326000D02*
D03*
Y-200000D02*
D03*
X339500D02*
D03*
Y-189000D02*
D03*
X353000D02*
D03*
Y-200000D02*
D03*
X366500D02*
D03*
Y-189000D02*
D03*
X380000D02*
D03*
Y-200000D02*
D03*
X393500D02*
D03*
X312500D02*
D03*
X299000D02*
D03*
X326000Y-239000D02*
D03*
X312500D02*
D03*
X339500Y-250000D02*
D03*
X326000D02*
D03*
X353000Y-239000D02*
D03*
X339500D02*
D03*
X366500Y-250000D02*
D03*
X353000D02*
D03*
X380000Y-239000D02*
D03*
X366500D02*
D03*
X393500Y-250000D02*
D03*
X380000D02*
D03*
X299000D02*
D03*
X312500D02*
D03*
X325500Y-289000D02*
D03*
X312000D02*
D03*
X339000Y-300000D02*
D03*
X325500D02*
D03*
X352500Y-289000D02*
D03*
X339000D02*
D03*
X366000Y-300000D02*
D03*
X352500D02*
D03*
X379500Y-289000D02*
D03*
X366000D02*
D03*
X393000Y-300000D02*
D03*
X379500D02*
D03*
X298500D02*
D03*
X312000D02*
D03*
D19*
X255000Y-69500D02*
D03*
X272000D02*
D03*
Y-83500D02*
D03*
X255000D02*
D03*
D20*
X173500Y-217000D02*
D03*
Y-223500D02*
D03*
X134000Y-215500D02*
D03*
Y-222000D02*
D03*
X121000Y-215500D02*
D03*
Y-209000D02*
D03*
Y-195500D02*
D03*
Y-202000D02*
D03*
X106000Y-200000D02*
D03*
Y-193500D02*
D03*
X127500Y-222000D02*
D03*
Y-215500D02*
D03*
X99500Y-200000D02*
D03*
Y-193500D02*
D03*
D21*
X212500Y-61000D02*
D03*
X226000D02*
D03*
D22*
X251000Y-35500D02*
D03*
Y-49000D02*
D03*
D23*
X293000Y-127264D02*
D03*
D24*
X293000Y-97736D02*
D03*
D25*
X136913Y-205413D02*
D03*
Y-203445D02*
D03*
Y-201476D02*
D03*
Y-199508D02*
D03*
Y-197539D02*
D03*
Y-195571D02*
D03*
Y-193602D02*
D03*
Y-191634D02*
D03*
Y-189665D02*
D03*
Y-187697D02*
D03*
Y-185728D02*
D03*
Y-183760D02*
D03*
X172740D02*
D03*
Y-185728D02*
D03*
Y-187697D02*
D03*
Y-189665D02*
D03*
Y-191634D02*
D03*
Y-193602D02*
D03*
Y-195571D02*
D03*
Y-197539D02*
D03*
Y-199508D02*
D03*
Y-201476D02*
D03*
Y-203445D02*
D03*
Y-205413D02*
D03*
D26*
X144000Y-176673D02*
D03*
X145968D02*
D03*
X147937D02*
D03*
X149906D02*
D03*
X151874D02*
D03*
X153842D02*
D03*
X155811D02*
D03*
X157780D02*
D03*
X159748D02*
D03*
X161716D02*
D03*
X163685D02*
D03*
X165654D02*
D03*
Y-212500D02*
D03*
X163685D02*
D03*
X161716D02*
D03*
X159748D02*
D03*
X157780D02*
D03*
X155811D02*
D03*
X153842D02*
D03*
X151874D02*
D03*
X149906D02*
D03*
X147937D02*
D03*
X145968D02*
D03*
X144000D02*
D03*
D27*
X239500Y-49000D02*
X250500D01*
X232500D02*
X239500D01*
X205000Y-75000D02*
X215500D01*
X218000Y-72500D01*
X212500Y-61000D02*
X218000Y-66500D01*
Y-72500D02*
Y-66500D01*
X220406Y-55405D02*
X226000Y-61000D01*
X220406Y-55405D02*
Y-48114D01*
X239500Y-40000D02*
X244000Y-35500D01*
X242500Y-27500D02*
Y-15000D01*
X244000Y-35500D02*
X250500D01*
X242500Y-27500D02*
X250500Y-35500D01*
X214500Y-59000D02*
Y-49000D01*
X226311D02*
X232500D01*
Y-15000D01*
X204500Y-40500D02*
X206925Y-38075D01*
X220406D01*
D28*
X250500Y-49000D02*
X255000Y-53500D01*
Y-69500D02*
Y-53500D01*
X293000Y-102657D02*
X348158D01*
X255000Y-97000D02*
Y-83500D01*
X381500Y-153000D02*
Y-112500D01*
X384000Y-25000D02*
X397500D01*
X360355Y-91355D02*
Y-52323D01*
Y-91355D02*
X381500Y-112500D01*
X360355Y-48645D02*
X384000Y-25000D01*
X360355Y-52323D02*
Y-48645D01*
X345591Y-144591D02*
X354000Y-153000D01*
X381500D02*
X408500Y-180000D01*
X425000D01*
X345591Y-144591D02*
Y-135000D01*
X354000Y-153000D02*
X381500D01*
X260476Y-35500D02*
X267315Y-42339D01*
X250500Y-35500D02*
X260476D01*
X293000Y-122343D02*
X340843D01*
X345591Y-127091D01*
Y-135000D02*
Y-127091D01*
X267315Y-42339D02*
X275189D01*
X287000Y-30528D01*
X348158Y-102657D02*
X360355Y-114855D01*
Y-135000D02*
Y-114855D01*
X324000Y-25000D02*
X336500Y-12500D01*
X330827Y-52323D02*
Y-31827D01*
X324000Y-25000D02*
X330827Y-31827D01*
X272000Y-83500D02*
X283000D01*
X286563Y-54937D02*
X287000D01*
X272000Y-69500D02*
X286563Y-54937D01*
X312500Y-200000D02*
Y-189000D01*
X326000Y-200000D02*
Y-189000D01*
X339500Y-200000D02*
Y-189000D01*
X353000Y-200000D02*
Y-189000D01*
X366500Y-200000D02*
Y-189000D01*
X380000Y-200000D02*
Y-189000D01*
X413500Y-220000D02*
X425000D01*
X393500Y-200000D02*
X413500Y-220000D01*
X403500Y-260000D02*
X425000D01*
X393500Y-250000D02*
X403500Y-260000D01*
X380000Y-250000D02*
Y-239000D01*
X366500Y-250000D02*
Y-239000D01*
X353000Y-250000D02*
Y-239000D01*
X339500Y-250000D02*
Y-239000D01*
X326000Y-250000D02*
Y-239000D01*
X312500Y-250000D02*
Y-239000D01*
X312000Y-300000D02*
Y-289000D01*
X325500Y-300000D02*
Y-289000D01*
X339000Y-300000D02*
Y-289000D01*
X352500Y-300000D02*
Y-289000D01*
X366000Y-300000D02*
Y-289000D01*
X379500Y-300000D02*
Y-289000D01*
X393000Y-300000D02*
X425000D01*
X415000Y-12500D02*
X425500Y-23000D01*
Y-32500D02*
Y-23000D01*
X336500Y-12500D02*
X415000D01*
X255000Y-83000D02*
Y-69500D01*
D29*
X121000Y-215500D02*
X127500Y-222000D01*
X95000Y-200000D02*
X99500D01*
X113500Y-195500D02*
X121000D01*
X82600Y-204900D02*
X90100D01*
X95000Y-200000D01*
X173500Y-217000D02*
X180500D01*
X170500Y-231000D02*
X173500Y-228000D01*
Y-223500D01*
X128000Y-215500D02*
X134000D01*
D30*
X121000D02*
X131087Y-205413D01*
X107866Y-191634D02*
X136913D01*
X106000Y-193500D02*
X107866Y-191634D01*
X121071Y-195571D02*
X136913D01*
X99500Y-193500D02*
X106000D01*
X93500D02*
X99500D01*
X87000Y-200000D02*
X93500Y-193500D01*
X77500Y-200000D02*
X87000D01*
X75000Y-202500D02*
X77500Y-200000D01*
X75000Y-250000D02*
Y-202500D01*
X70000Y-255000D02*
X75000Y-250000D01*
X65000Y-255000D02*
X70000D01*
X47500D02*
X55000D01*
X40000Y-247500D02*
X47500Y-255000D01*
X40000Y-247500D02*
Y-222165D01*
X112500Y-177500D02*
X124665Y-189665D01*
X24500Y-217000D02*
X47500D01*
X87000Y-177500D01*
X112500D01*
X113500Y-174500D02*
X126665Y-187665D01*
X40000Y-212165D02*
X47500D01*
X85165Y-174500D01*
X113500D01*
X114500Y-171500D02*
X128728Y-185728D01*
X35165Y-207000D02*
X47500D01*
X83000Y-171500D01*
X114500D01*
X37835Y-202165D02*
X38917Y-201083D01*
X115500Y-168500D02*
X130728Y-183728D01*
X40000Y-202165D02*
X47500D01*
X81165Y-168500D01*
X115500D01*
X144000Y-176673D02*
Y-168328D01*
X124530Y-167000D02*
X142672D01*
X144000Y-168328D01*
X147937Y-173500D02*
Y-169437D01*
X125358Y-165000D02*
X143500D01*
X147937Y-169437D01*
X149937Y-176673D02*
Y-168437D01*
X126186Y-163000D02*
X144500D01*
X149937Y-168437D01*
X75665Y-161500D02*
X119029D01*
X40000Y-192165D02*
X45000D01*
X75665Y-161500D01*
X35165Y-187000D02*
X45000D01*
X72500Y-159500D02*
X119858D01*
X45000Y-187000D02*
X72500Y-159500D01*
X69665Y-157500D02*
X120686D01*
X40000Y-182165D02*
X45000D01*
X69665Y-157500D01*
X35165Y-177000D02*
X45000D01*
X66500Y-155500D02*
X121515D01*
X45000Y-177000D02*
X66500Y-155500D01*
X63665Y-153500D02*
X122343D01*
X40000Y-172165D02*
X45000D01*
X63665Y-153500D01*
X35165Y-167000D02*
X45000D01*
X60500Y-151500D02*
X123172D01*
X45000Y-167000D02*
X60500Y-151500D01*
X57665Y-149500D02*
X124000D01*
X40000Y-162165D02*
X45000D01*
X57665Y-149500D01*
X54500Y-147500D02*
X125000D01*
X35165Y-157000D02*
X45000D01*
X54500Y-147500D01*
X51665Y-145500D02*
X126000D01*
X40000Y-152165D02*
X45000D01*
X51665Y-145500D01*
X48500Y-143500D02*
X130500D01*
X35165Y-147000D02*
X45000D01*
X48500Y-143500D01*
X46000Y-141165D02*
X145464D01*
X40000Y-142165D02*
X45000D01*
X46000Y-141165D01*
X50083Y-137165D02*
X147121D01*
X40000Y-132165D02*
X45083D01*
X50083Y-137165D01*
X47665Y-139165D02*
X146293D01*
X30000Y-142165D02*
X35165Y-137000D01*
X45500D01*
X47665Y-139165D01*
X30000Y-152165D02*
X35165Y-147000D01*
X30000Y-162165D02*
X35165Y-157000D01*
X30000Y-172165D02*
X35165Y-167000D01*
X30000Y-182165D02*
X35165Y-177000D01*
X30000Y-192165D02*
X35165Y-187000D01*
X38835Y-212165D02*
X39417Y-211583D01*
X22500Y-215000D02*
X24500Y-217000D01*
X24835Y-202165D02*
X30000D01*
X22500Y-204500D02*
X24835Y-202165D01*
X22500Y-215000D02*
Y-204500D01*
X30000Y-212165D02*
X35165Y-207000D01*
X178000Y-225000D02*
X181000D01*
X176500Y-223500D02*
X178000Y-225000D01*
X173500Y-223500D02*
X176500D01*
X226000Y-208500D02*
Y-207500D01*
Y-212000D02*
Y-208500D01*
X205000Y-213000D02*
X225000D01*
X226000Y-212000D01*
X194508Y-199508D02*
X202500Y-207500D01*
X209000D01*
X226000Y-232000D02*
Y-228500D01*
X205000Y-233000D02*
X225000D01*
X226000Y-232000D01*
X202500Y-225500D02*
Y-219500D01*
X204500Y-227500D02*
X209000D01*
X202500Y-225500D02*
X204500Y-227500D01*
X172740Y-195571D02*
X198929D01*
X207000Y-187500D02*
X209000D01*
X198929Y-195571D02*
X207000Y-187500D01*
X205000Y-193000D02*
X224500D01*
X226000Y-191500D02*
Y-188500D01*
X224500Y-193000D02*
X226000Y-191500D01*
X119029Y-161500D02*
X124530Y-167000D01*
X119858Y-159500D02*
X125358Y-165000D01*
X120686Y-157500D02*
X126186Y-163000D01*
X145500Y-161000D02*
X153842Y-169343D01*
X121515Y-155500D02*
X127015Y-161000D01*
X145500D01*
X122343Y-153500D02*
X127843Y-159000D01*
X146328D01*
X180000Y-183500D02*
Y-172873D01*
X146293Y-139165D02*
X180000Y-172873D01*
X178000Y-182500D02*
Y-173701D01*
X145464Y-141165D02*
X178000Y-173701D01*
X130500Y-143500D02*
X132000Y-145000D01*
X146470D01*
X123172Y-151500D02*
X128672Y-157000D01*
X147157D01*
X124000Y-149500D02*
X128500Y-154000D01*
X144000D02*
X146985D01*
X128500D02*
X144000D01*
X140000Y-151000D02*
X146814D01*
X128500D02*
X140000D01*
X125000Y-147500D02*
X128500Y-151000D01*
X136000Y-148000D02*
X146642D01*
X128500D02*
X136000D01*
X126000Y-145500D02*
X128500Y-148000D01*
X126665Y-187665D02*
X136913D01*
X128728Y-185728D02*
X136913D01*
X130728Y-183728D02*
X136913D01*
Y-203163D02*
Y-201476D01*
X134000Y-222000D02*
X142500D01*
X145968Y-218531D01*
Y-212500D01*
X165654D02*
X170153Y-217000D01*
X173500D01*
X136913Y-201476D02*
Y-199508D01*
Y-197539D01*
X184366Y-191634D02*
X190000Y-186000D01*
X172740Y-191634D02*
X184366D01*
X172740Y-183760D02*
X176740D01*
X178000Y-182500D01*
X172740Y-185760D02*
X177740D01*
X180000Y-183500D01*
X153842Y-176673D02*
Y-169343D01*
X170000Y-242500D02*
X211500D01*
X214000Y-248500D02*
Y-245000D01*
X211500Y-242500D02*
X214000Y-245000D01*
X200461Y-197539D02*
X205000Y-193000D01*
X172740Y-197539D02*
X200461D01*
X172740Y-199508D02*
X194508D01*
X185413Y-205413D02*
X200500Y-220500D01*
Y-228500D02*
X205000Y-233000D01*
X200500Y-228500D02*
Y-220500D01*
X186445Y-203445D02*
X202500Y-219500D01*
X172740Y-203445D02*
X186445D01*
X193476Y-201476D02*
X205000Y-213000D01*
X172740Y-201476D02*
X193476D01*
X172740Y-205413D02*
X185413D01*
X167500Y-223500D02*
X173500D01*
X163685Y-219685D02*
X167500Y-223500D01*
X163685Y-219685D02*
Y-212500D01*
X147937Y-231063D02*
Y-212500D01*
X94000Y-248500D02*
Y-244172D01*
X97672Y-240500D01*
X138500D01*
X147937Y-231063D01*
X149906Y-232594D02*
Y-212500D01*
X96000Y-248500D02*
Y-245000D01*
X98500Y-242500D01*
X140000D01*
X149906Y-232594D01*
X161716Y-231217D02*
Y-212500D01*
X216000Y-248500D02*
Y-244172D01*
X212328Y-240500D02*
X216000Y-244172D01*
X171000Y-240500D02*
X212328D01*
X161716Y-231217D02*
X171000Y-240500D01*
X159748Y-232248D02*
Y-212500D01*
Y-232248D02*
X170000Y-242500D01*
X134000Y-215500D02*
X141000D01*
X144000Y-212500D01*
X131087Y-205413D02*
X136913D01*
X168000Y-247500D02*
X175000D01*
X157780Y-237280D02*
X168000Y-247500D01*
X157780Y-237280D02*
Y-212500D01*
X155811Y-238311D02*
X170000Y-252500D01*
X155811Y-238311D02*
Y-212500D01*
X135000Y-247500D02*
X142000D01*
X136913Y-195539D02*
Y-193602D01*
X90000Y-252500D02*
X94000Y-248500D01*
X96000D02*
X100000Y-252500D01*
X130000D02*
X135000Y-247500D01*
X175000D02*
X180000Y-252500D01*
X210000D02*
X214000Y-248500D01*
X216000D02*
X220000Y-252500D01*
X147121Y-137165D02*
X182000Y-172044D01*
X124665Y-189665D02*
X136913D01*
X145968Y-184968D02*
Y-176673D01*
Y-184968D02*
X147000Y-186000D01*
X163398Y-193602D02*
X172740D01*
X163000Y-194000D02*
X163398Y-193602D01*
X165654Y-212500D02*
Y-204654D01*
X163000Y-202000D02*
X165654Y-204654D01*
X136913Y-201476D02*
X146476D01*
X147000Y-202000D01*
X151874Y-182874D02*
Y-176673D01*
Y-182874D02*
X155000Y-186000D01*
X139000Y-210000D02*
X147000Y-202000D01*
X136000Y-210000D02*
X139000D01*
X177628Y-140128D02*
X186500Y-149000D01*
X190000Y-186000D02*
Y-165500D01*
X196500Y-159000D01*
X172740Y-189665D02*
X183335D01*
X186500Y-186500D01*
Y-149000D01*
X172740Y-187697D02*
X178631D01*
X182000Y-184328D01*
Y-172044D01*
X151874Y-237626D02*
Y-212500D01*
X142000Y-247500D02*
X151874Y-237626D01*
X140000Y-252500D02*
X153842Y-238657D01*
Y-212500D01*
X155811Y-176673D02*
Y-168483D01*
X146328Y-159000D02*
X155811Y-168483D01*
X157780Y-176673D02*
Y-167623D01*
X147157Y-157000D02*
X157780Y-167623D01*
X159748Y-176673D02*
Y-166763D01*
X146985Y-154000D02*
X159748Y-166763D01*
X161716Y-176673D02*
Y-165903D01*
X146814Y-151000D02*
X161716Y-165903D01*
X163685Y-176673D02*
Y-165043D01*
X146642Y-148000D02*
X163685Y-165043D01*
X165654Y-176673D02*
Y-164183D01*
X146470Y-145000D02*
X165654Y-164183D01*
D31*
X100000Y-215500D02*
X105000D01*
X88600D02*
X100000D01*
Y-225000D02*
Y-215500D01*
X105000D02*
X121000D01*
X82600Y-209500D02*
X88600Y-215500D01*
X82600Y-209500D02*
Y-204900D01*
X217000Y-304500D02*
Y-291000D01*
Y-304500D02*
X225000Y-312500D01*
X213000Y-304500D02*
Y-291000D01*
X205000Y-312500D02*
X213000Y-304500D01*
X177000D02*
Y-291000D01*
Y-304500D02*
X185000Y-312500D01*
X173000Y-304500D02*
Y-291000D01*
X165000Y-312500D02*
X173000Y-304500D01*
X137000D02*
Y-291000D01*
Y-304500D02*
X145000Y-312500D01*
X133000Y-304500D02*
Y-291000D01*
X125000Y-312500D02*
X133000Y-304500D01*
X97000D02*
Y-291000D01*
Y-304500D02*
X105000Y-312500D01*
X93000Y-304500D02*
Y-291000D01*
X85000Y-312500D02*
X93000Y-304500D01*
X228000Y-288000D02*
Y-280000D01*
X219500D02*
X228000D01*
X202000D02*
X210500D01*
X202000Y-288000D02*
Y-280000D01*
X188000Y-288000D02*
Y-280000D01*
X179500D02*
X188000D01*
X162000D02*
X170500D01*
X162000Y-288000D02*
Y-280000D01*
X148000Y-288000D02*
Y-280000D01*
X139500D02*
X148000D01*
X122000D02*
X130500D01*
X122000Y-288000D02*
Y-280000D01*
X108000Y-288000D02*
Y-280000D01*
X99500D02*
X108000D01*
X82000D02*
X90500D01*
X82000Y-288000D02*
Y-280000D01*
X97000Y-291000D02*
X100000Y-288000D01*
X90000D02*
X93000Y-291000D01*
X217000D02*
X220000Y-288000D01*
X210000D02*
X213000Y-291000D01*
X177000D02*
X180000Y-288000D01*
X170000D02*
X173000Y-291000D01*
X130000Y-288000D02*
X133000Y-291000D01*
X137000D02*
X140000Y-288000D01*
X256500Y-207500D02*
X299000Y-250000D01*
X226000Y-207500D02*
X234500D01*
X256500D01*
X234500Y-227500D02*
X241000D01*
X226000D02*
X234500D01*
X241000D02*
X298500Y-285000D01*
X209000Y-227500D02*
X217500D01*
X209000Y-207500D02*
X217500D01*
X209000Y-187500D02*
X217500D01*
X226000D02*
X234500D01*
X225000Y-188500D02*
X226000D01*
X234500Y-187500D02*
X268500D01*
X281000Y-200000D01*
X156500Y-101000D02*
X167500Y-90000D01*
X156500Y-104000D02*
Y-101000D01*
X131500D02*
X142500Y-90000D01*
X131500Y-104000D02*
Y-101000D01*
X106500D02*
X117500Y-90000D01*
X106500Y-104000D02*
Y-101000D01*
X81500D02*
X92500Y-90000D01*
X81500Y-104000D02*
Y-101000D01*
X281000Y-200000D02*
X299000D01*
Y-210000D02*
Y-200000D01*
X196500Y-49000D02*
Y-40500D01*
X173500Y-104000D02*
Y-78500D01*
X167500Y-72500D02*
X173500Y-78500D01*
X148500Y-104000D02*
Y-78500D01*
X142500Y-72500D02*
X148500Y-78500D01*
X123500Y-104000D02*
Y-78500D01*
X117500Y-72500D02*
X123500Y-78500D01*
X98500Y-104000D02*
Y-78500D01*
X92500Y-72500D02*
X98500Y-78500D01*
X157500Y-90000D02*
Y-72500D01*
X132500Y-90000D02*
Y-72500D01*
X107500Y-90000D02*
Y-72500D01*
X82500Y-90000D02*
Y-72500D01*
X160000Y-20000D02*
X167500Y-27500D01*
Y-37500D02*
Y-27500D01*
X150000Y-20000D02*
X157500Y-27500D01*
Y-37500D02*
Y-27500D01*
X140000Y-20000D02*
X142500Y-22500D01*
Y-37500D02*
Y-22500D01*
X130000Y-20000D02*
X132500Y-22500D01*
Y-37500D02*
Y-22500D01*
X82500Y-27500D02*
X90000Y-20000D01*
X82500Y-37500D02*
Y-27500D01*
X92500D02*
X100000Y-20000D01*
X92500Y-37500D02*
Y-27500D01*
X107500Y-22500D02*
X110000Y-20000D01*
X107500Y-37500D02*
Y-22500D01*
X117500D02*
X120000Y-20000D01*
X117500Y-37500D02*
Y-22500D01*
X219500Y-272000D02*
Y-264000D01*
X210500Y-272000D02*
Y-264000D01*
X179500Y-272000D02*
Y-264000D01*
X170500Y-272000D02*
Y-264000D01*
X139500Y-272000D02*
Y-264000D01*
X130500Y-272000D02*
Y-264000D01*
X99500Y-272000D02*
Y-264000D01*
X90500Y-272000D02*
Y-264000D01*
X298500Y-300000D02*
Y-285000D01*
Y-310000D02*
Y-300000D01*
X299000Y-260000D02*
Y-250000D01*
X90500Y-264000D02*
Y-253000D01*
X99500Y-264000D02*
Y-253000D01*
X130500Y-264000D02*
Y-253000D01*
X139500Y-264000D02*
Y-253000D01*
X170500Y-264000D02*
Y-253000D01*
X179500Y-264000D02*
Y-253000D01*
X210500Y-264000D02*
Y-253000D01*
X219500Y-264000D02*
Y-253000D01*
X204500Y-49000D02*
X214500D01*
D32*
X284000Y-93657D02*
X293000Y-102657D01*
X284000Y-93657D02*
Y-83500D01*
Y-74500D01*
D33*
X81500Y-112000D02*
X89500D01*
X106500D02*
X114500D01*
X131500D02*
X139500D01*
X156500D02*
X164500D01*
X172500D02*
X173500Y-113000D01*
X164500Y-104000D02*
X172500Y-112000D01*
X147500D02*
X148500Y-113000D01*
X139500Y-104000D02*
X147500Y-112000D01*
X122500D02*
X123500Y-113000D01*
X114500Y-104000D02*
X122500Y-112000D01*
X89500Y-104000D02*
X97500Y-112000D01*
D34*
X182500Y-145000D02*
D03*
X196419Y-158919D02*
D03*
X25000Y-250000D02*
D03*
Y-100000D02*
D03*
X299000Y-210000D02*
D03*
Y-260000D02*
D03*
X298500Y-310000D02*
D03*
X170500Y-231000D02*
D03*
X100000Y-225000D02*
D03*
X205000Y-75000D02*
D03*
X255000Y-97000D02*
D03*
X384000Y-25000D02*
D03*
X324000D02*
D03*
X225000Y-100000D02*
D03*
X240000Y-245000D02*
D03*
D35*
X210000Y-252500D02*
D03*
X170000D02*
D03*
X130000D02*
D03*
X90000D02*
D03*
X232500Y-15000D02*
D03*
X90000Y-20000D02*
D03*
D36*
X220000Y-252500D02*
D03*
X180000D02*
D03*
X140000D02*
D03*
X100000D02*
D03*
X167500Y-90000D02*
D03*
X157500D02*
D03*
X132500D02*
D03*
X142500D02*
D03*
X117500D02*
D03*
X107500D02*
D03*
X82500D02*
D03*
X92500D02*
D03*
X65000Y-255000D02*
D03*
X55000D02*
D03*
X242500Y-15000D02*
D03*
X40000Y-222165D02*
D03*
X30000D02*
D03*
X40000Y-212165D02*
D03*
X30000D02*
D03*
X40000Y-202165D02*
D03*
X30000D02*
D03*
X40000Y-192165D02*
D03*
X30000D02*
D03*
X40000Y-182165D02*
D03*
X30000D02*
D03*
X40000Y-172165D02*
D03*
X30000D02*
D03*
X40000Y-162165D02*
D03*
X30000D02*
D03*
X40000Y-152165D02*
D03*
X30000D02*
D03*
X40000Y-142165D02*
D03*
X30000D02*
D03*
X40000Y-132165D02*
D03*
X82500Y-205000D02*
D03*
Y-195000D02*
D03*
X65000Y-240000D02*
D03*
X55000D02*
D03*
X100000Y-20000D02*
D03*
X110000D02*
D03*
X120000D02*
D03*
X130000D02*
D03*
X140000D02*
D03*
X150000D02*
D03*
X160000D02*
D03*
D37*
X430000Y-33750D02*
D03*
X402000Y-26250D02*
D03*
D38*
X267315Y-42339D02*
D03*
D39*
X287000Y-30528D02*
D03*
D40*
Y-54937D02*
D03*
D41*
X425000Y-300000D02*
D03*
D42*
Y-260000D02*
D03*
Y-180000D02*
D03*
Y-220000D02*
D03*
D43*
X205000Y-312500D02*
D03*
X165000D02*
D03*
X125000D02*
D03*
X85000D02*
D03*
D44*
X225000D02*
D03*
X185000D02*
D03*
X145000D02*
D03*
X105000D02*
D03*
D45*
X30000Y-132165D02*
D03*
D46*
X293000Y-122343D02*
D03*
X293000Y-102657D02*
D03*
X445000Y-52323D02*
D03*
X360355Y-52323D02*
D03*
X330827Y-52323D02*
D03*
X330827Y-135000D02*
D03*
X445000Y-135000D02*
D03*
X345591Y-135000D02*
D03*
X360355Y-135000D02*
D03*
D47*
X195000Y-235000D02*
D03*
X80000Y-220000D02*
D03*
X70000Y-75000D02*
D03*
X75000Y-125000D02*
D03*
X190000Y-65000D02*
D03*
X275000Y-100000D02*
D03*
X200000Y-25000D02*
D03*
X225000D02*
D03*
X10000Y-275000D02*
D03*
Y-250000D02*
D03*
Y-225000D02*
D03*
Y-200000D02*
D03*
Y-175000D02*
D03*
Y-150000D02*
D03*
X55000Y-188000D02*
D03*
X65000Y-178000D02*
D03*
X75000Y-168000D02*
D03*
X132000Y-145000D02*
D03*
X25000Y-75000D02*
D03*
X60000Y-235000D02*
D03*
X92500Y-187500D02*
D03*
X155000Y-202000D02*
D03*
X147000D02*
D03*
X163000D02*
D03*
X147000Y-194000D02*
D03*
X155000D02*
D03*
X163000D02*
D03*
X147000Y-186000D02*
D03*
X155000D02*
D03*
X163000D02*
D03*
X136000Y-148000D02*
D03*
X140000Y-151000D02*
D03*
X144000Y-154000D02*
D03*
X110000Y-250000D02*
D03*
X120000D02*
D03*
X115000Y-255000D02*
D03*
Y-267500D02*
D03*
Y-275000D02*
D03*
Y-287500D02*
D03*
X155000Y-275000D02*
D03*
Y-287500D02*
D03*
Y-267500D02*
D03*
Y-255000D02*
D03*
X150000Y-250000D02*
D03*
X160000D02*
D03*
X155000Y-245000D02*
D03*
X190000Y-250000D02*
D03*
X200000D02*
D03*
X195000Y-255000D02*
D03*
Y-267500D02*
D03*
Y-275000D02*
D03*
Y-287500D02*
D03*
X192500Y-190500D02*
D03*
X172000Y-176000D02*
D03*
X130000Y-175000D02*
D03*
X117500Y-165000D02*
D03*
X105000D02*
D03*
X90000D02*
D03*
X102500Y-187500D02*
D03*
X95000Y-210000D02*
D03*
X115000D02*
D03*
X128500Y-201000D02*
D03*
X174000Y-211500D02*
D03*
X191000Y-218000D02*
D03*
X177500Y-235000D02*
D03*
X136000Y-210000D02*
D03*
X197500Y-180000D02*
D03*
X10000Y-295000D02*
D03*
X25000Y-275000D02*
D03*
X50000Y-295000D02*
D03*
X25000D02*
D03*
X75000D02*
D03*
X60000Y-275000D02*
D03*
X100000Y-235000D02*
D03*
X60000Y-250000D02*
D03*
X120000Y-230000D02*
D03*
X80000Y-250000D02*
D03*
X300000Y-150000D02*
D03*
X275000D02*
D03*
X250000Y-125000D02*
D03*
Y-150000D02*
D03*
X225000D02*
D03*
X275000Y-175000D02*
D03*
X250000D02*
D03*
X225000Y-125000D02*
D03*
X200000D02*
D03*
Y-100000D02*
D03*
X235000Y-65000D02*
D03*
X275000Y-25000D02*
D03*
X288000Y-68000D02*
D03*
X175000Y-125000D02*
D03*
X125000D02*
D03*
X150000D02*
D03*
X100000D02*
D03*
X50000D02*
D03*
Y-100000D02*
D03*
X80000Y-235000D02*
D03*
X275000Y-275000D02*
D03*
Y-295000D02*
D03*
X250000D02*
D03*
Y-275000D02*
D03*
X275000Y-250000D02*
D03*
X250000Y-225000D02*
D03*
X275000Y-215000D02*
D03*
X250000Y-200000D02*
D03*
X140000Y-230000D02*
D03*
X10000Y-100000D02*
D03*
Y-125000D02*
D03*
Y-75000D02*
D03*
X170000Y-145000D02*
D03*
X51000Y-223500D02*
D03*
X305000Y-90000D02*
D03*
Y-75000D02*
D03*
Y-25000D02*
D03*
Y-50000D02*
D03*
X50000Y-75000D02*
D03*
M02*
