M48
;Layer_Color=9474304
;FILE_FORMAT=2:5
INCH,TZ
;TYPE=PLATED
T1F00S00C0.01200
T2F00S00C0.02800
T3F00S00C0.03000
T4F00S00C0.03543
T5F00S00C0.03600
T7F00S00C0.04000
T8F00S00C0.04200
T9F00S00C0.05512
T10F00S00C0.05906
%
T01
X155000Y-287500
Y-275000
Y-267500
Y-255000
X150000Y-250000
X160000
X155000Y-245000
X177500Y-235000
X195000
X190000Y-250000
X200000
X195000Y-255000
Y-267500
Y-275000
Y-287500
X250000Y-295000
Y-275000
X275000
Y-295000
Y-250000
Y-215000
X250000Y-225000
Y-200000
X192500Y-190500
X191000Y-218000
X174000Y-211500
X163000Y-202000
X155000
Y-194000
X163000
Y-186000
X155000
X147000
Y-194000
Y-202000
X136000Y-210000
X128500Y-201000
X115000Y-210000
X95000
X80000Y-220000
Y-235000
Y-250000
X60000
Y-235000
X51000Y-223500
X55000Y-188000
X92500Y-187500
X102500
X100000Y-235000
X110000Y-250000
X120000
X115000Y-255000
Y-267500
Y-275000
Y-287500
X75000Y-295000
X50000
X25000
X10000
Y-275000
X25000
X60000
X10000Y-250000
Y-225000
Y-200000
X120000Y-230000
X140000
X130000Y-175000
X117500Y-165000
X105000
X90000
X75000Y-168000
X65000Y-178000
X10000Y-175000
Y-150000
Y-125000
Y-100000
Y-75000
X25000
X50000
X70000
X50000Y-100000
Y-125000
X75000
X100000
X125000
X132000Y-145000
X136000Y-148000
X140000Y-151000
X144000Y-154000
X150000Y-125000
X175000
X200000
X225000
X250000
Y-150000
X275000
X300000
X275000Y-175000
X250000
X225000Y-150000
X197500Y-180000
X172000Y-176000
X170000Y-145000
X200000Y-100000
X190000Y-65000
X235000
X225000Y-25000
X200000
X275000
X288000Y-68000
X275000Y-100000
X305000Y-90000
Y-75000
Y-50000
Y-25000
T02
X182500Y-145000
X196419Y-158919
T03
X170500Y-231000
X240000Y-245000
X299000Y-260000
Y-210000
X298500Y-310000
X100000Y-225000
X25000Y-250000
Y-100000
X225000
X255000Y-97000
X205000Y-75000
T04
X170000Y-252500
X180000
X210000
X220000
X140000
X130000
X100000
X90000
X65000Y-255000
X55000
Y-240000
X65000
X40000Y-222165
X30000
Y-212165
X40000
Y-202165
X30000
Y-192165
X40000
Y-182165
X30000
X82500Y-195000
Y-205000
X40000Y-172165
X30000
Y-162165
X40000
Y-152165
X30000
Y-142165
X40000
Y-132165
X30000
X82500Y-90000
X92500
X107500
X117500
X132500
X142500
X157500
X167500
X160000Y-20000
X150000
X232500Y-15000
X242500
X140000Y-20000
X130000
X120000
X110000
X100000
X90000
T05
X324000Y-25000
X384000
T07
X293000Y-122343
X293000Y-102657
X330827Y-135000
X345591Y-135000
X360355Y-135000
X360355Y-52323
X330827Y-52323
X445000Y-52323
X445000Y-135000
T08
X402000Y-26250
X430000Y-33750
T09
X165000Y-312500
X185000
X205000
X225000
X145000
X125000
X105000
X85000
T10
X425000Y-300000
Y-260000
Y-220000
Y-180000
M30
