%FSLAX25Y25*%
%MOIN*%
G70*
G01*
G75*
G04 Layer_Physical_Order=2*
G04 Layer_Color=16711680*
%ADD10R,0.10000X0.06000*%
%ADD11R,0.05500X0.04000*%
%ADD12R,0.05315X0.02756*%
%ADD13R,0.07087X0.02756*%
G04:AMPARAMS|DCode=14|XSize=74.8mil|YSize=129.92mil|CornerRadius=0mil|HoleSize=0mil|Usage=FLASHONLY|Rotation=90.000|XOffset=0mil|YOffset=0mil|HoleType=Round|Shape=Octagon|*
%AMOCTAGOND14*
4,1,8,-0.06496,-0.01870,-0.06496,0.01870,-0.04626,0.03740,0.04626,0.03740,0.06496,0.01870,0.06496,-0.01870,0.04626,-0.03740,-0.04626,-0.03740,-0.06496,-0.01870,0.0*
%
%ADD14OCTAGOND14*%

%ADD15R,0.03500X0.03000*%
%ADD16R,0.03000X0.03500*%
%ADD17R,0.04000X0.05500*%
%ADD18R,0.01000X0.06000*%
%ADD19R,0.06000X0.01000*%
%ADD20R,0.06000X0.01000*%
%ADD21R,0.01000X0.06000*%
%ADD22R,0.06000X0.01000*%
%ADD23R,0.01000X0.06000*%
%ADD24R,0.06000X0.01000*%
%ADD25R,0.01000X0.06000*%
%ADD26R,0.01000X0.06000*%
%ADD27R,0.06000X0.01000*%
%ADD28R,0.06000X0.01000*%
%ADD29R,0.01000X0.06000*%
%ADD30R,0.07480X0.04331*%
%ADD31R,0.07480X0.04331*%
G04:AMPARAMS|DCode=32|XSize=62.99mil|YSize=49.21mil|CornerRadius=0mil|HoleSize=0mil|Usage=FLASHONLY|Rotation=90.003|XOffset=0mil|YOffset=0mil|HoleType=Round|Shape=Rectangle|*
%AMROTATEDRECTD32*
4,1,4,0.02461,-0.03150,-0.02461,-0.03150,-0.02461,0.03150,0.02461,0.03150,0.02461,-0.03150,0.0*
%
%ADD32ROTATEDRECTD32*%

G04:AMPARAMS|DCode=33|XSize=62.99mil|YSize=49.21mil|CornerRadius=0mil|HoleSize=0mil|Usage=FLASHONLY|Rotation=90.003|XOffset=0mil|YOffset=0mil|HoleType=Round|Shape=Rectangle|*
%AMROTATEDRECTD33*
4,1,4,0.02461,-0.03150,-0.02461,-0.03150,-0.02461,0.03150,0.02461,0.03150,0.02461,-0.03150,0.0*
%
%ADD33ROTATEDRECTD33*%

G04:AMPARAMS|DCode=34|XSize=62.99mil|YSize=49.21mil|CornerRadius=0mil|HoleSize=0mil|Usage=FLASHONLY|Rotation=90.003|XOffset=0mil|YOffset=0mil|HoleType=Round|Shape=Rectangle|*
%AMROTATEDRECTD34*
4,1,4,0.02461,-0.03150,-0.02461,-0.03150,-0.02461,0.03150,0.02461,0.03150,0.02461,-0.03150,0.0*
%
%ADD34ROTATEDRECTD34*%

%ADD35R,0.02362X0.07284*%
%ADD36R,0.01496X0.07874*%
%ADD37R,0.01496X0.07874*%
%ADD38R,0.04724X0.02362*%
%ADD39R,0.07201X0.07874*%
%ADD40R,0.05000X0.05000*%
%ADD41R,0.05315X0.01575*%
%ADD42R,0.07087X0.05906*%
%ADD43R,0.05000X0.05000*%
%ADD44R,0.10000X0.07500*%
%ADD45R,0.13780X0.13780*%
%ADD46C,0.31496*%
%ADD47C,0.01500*%
%ADD48C,0.01000*%
%ADD49C,0.02000*%
%ADD50C,0.03000*%
%ADD51C,0.01200*%
%ADD52C,0.05906*%
%ADD53O,0.16535X0.07874*%
%ADD54O,0.15748X0.07874*%
%ADD55O,0.07874X0.15748*%
%ADD56C,0.06654*%
%ADD57R,0.06654X0.06654*%
%ADD58C,0.18740*%
%ADD59C,0.09449*%
%ADD60R,0.09449X0.09449*%
%ADD61R,0.05906X0.05906*%
%ADD62R,0.05906X0.05906*%
%ADD63C,0.06000*%
%ADD64C,0.06200*%
%ADD65R,0.06000X0.06000*%
%ADD66O,0.09055X0.05512*%
%ADD67C,0.05118*%
%ADD68C,0.02000*%
%ADD69C,0.03000*%
%ADD70R,0.11000X0.06000*%
%ADD71R,0.06000X0.11000*%
%ADD72R,0.01700X0.07100*%
%ADD73R,0.05000X0.08700*%
%ADD74R,0.05000X0.04000*%
%ADD75R,0.05000X0.03598*%
%ADD76C,0.10000*%
G36*
X59000Y-177850D02*
X60706D01*
Y-178000D01*
X60881Y-178878D01*
X61378Y-179622D01*
X61378Y-179622D01*
X61378Y-179622D01*
X65750Y-183994D01*
Y-187000D01*
X68756D01*
X71750Y-189994D01*
Y-193500D01*
X71750Y-193500D01*
X71750D01*
X71752Y-193504D01*
X69244Y-196012D01*
X68950Y-196451D01*
X58695D01*
X52750Y-190506D01*
Y-187500D01*
X37924D01*
X37646Y-187084D01*
X37681Y-187000D01*
X46750D01*
Y-181000D01*
X39641D01*
Y-177850D01*
X41500D01*
Y-170000D01*
X43500D01*
Y-177850D01*
X51500D01*
Y-170000D01*
X59000D01*
Y-177850D01*
D02*
G37*
G36*
X146571Y-166001D02*
X119713Y-192859D01*
X96250D01*
Y-187500D01*
X93528D01*
X90250Y-184222D01*
Y-181000D01*
X89141D01*
X88978Y-180181D01*
X88514Y-179486D01*
X86964Y-177936D01*
X87000Y-177850D01*
X87000D01*
X87000Y-177850D01*
Y-166150D01*
X84503D01*
X84465Y-166057D01*
X84742Y-165641D01*
X98500D01*
X99013Y-165539D01*
X146379D01*
X146571Y-166001D01*
D02*
G37*
G36*
X210359Y-234950D02*
X156000D01*
X155122Y-235125D01*
X154378Y-235622D01*
X153256Y-236744D01*
X150250D01*
Y-241957D01*
X149788Y-242148D01*
X147942Y-240302D01*
X147280Y-239860D01*
X146500Y-239705D01*
X139500D01*
X138720Y-239860D01*
X138058Y-240302D01*
X137058Y-241302D01*
X136616Y-241964D01*
X136544Y-242324D01*
X136150D01*
Y-252424D01*
X136461D01*
Y-253543D01*
X134919D01*
Y-253640D01*
X134533Y-253958D01*
X134500Y-253951D01*
X133525Y-254145D01*
X132698Y-254698D01*
X132145Y-255524D01*
X131951Y-256500D01*
X132145Y-257475D01*
X132698Y-258302D01*
X133525Y-258855D01*
X134500Y-259049D01*
X134533Y-259043D01*
X134919Y-259360D01*
Y-259543D01*
X147419D01*
Y-259328D01*
X147806Y-259010D01*
X148000Y-259049D01*
X148976Y-258855D01*
X149802Y-258302D01*
X150355Y-257475D01*
X150549Y-256500D01*
X150355Y-255524D01*
X149802Y-254698D01*
X148976Y-254145D01*
X148000Y-253951D01*
X147806Y-253990D01*
X147419Y-253672D01*
Y-253543D01*
X145539D01*
Y-252424D01*
X145850D01*
Y-249413D01*
X148457D01*
X155230Y-256186D01*
X155891Y-256628D01*
X156672Y-256783D01*
X173425D01*
X174206Y-256628D01*
X174867Y-256186D01*
X174867Y-256186D01*
X174867Y-256186D01*
X176611Y-254442D01*
X176611Y-254442D01*
X177053Y-253780D01*
X177053Y-253780D01*
X177053Y-253780D01*
X177208Y-253000D01*
X177208Y-253000D01*
Y-252223D01*
X177519D01*
Y-242123D01*
X172819D01*
D01*
D01*
X172819Y-242123D01*
X172519D01*
Y-242123D01*
X167819D01*
D01*
D01*
X167819Y-242123D01*
X167519D01*
Y-242123D01*
X162819D01*
D01*
D01*
X162819Y-242123D01*
X162519D01*
Y-242123D01*
X157819D01*
Y-244879D01*
X156879D01*
X155794Y-243794D01*
Y-242744D01*
X156750D01*
Y-239738D01*
X156950Y-239538D01*
X214920D01*
X215419Y-240038D01*
Y-243043D01*
X216375D01*
Y-246913D01*
X216550Y-247791D01*
X217047Y-248535D01*
X217047Y-248535D01*
X217047Y-248536D01*
X217047Y-248536D01*
X222031Y-253519D01*
D01*
X222031D01*
Y-253519D01*
D01*
X222031D01*
Y-253519D01*
X222031D01*
X222031Y-253519D01*
Y-253519D01*
X222031Y-253519D01*
Y-253519D01*
X222775Y-254017D01*
X223319Y-254125D01*
Y-256947D01*
X228019D01*
Y-256947D01*
X228019D01*
X228019Y-256947D01*
X228319D01*
Y-256947D01*
X233019D01*
Y-256947D01*
X233019D01*
X233019Y-256947D01*
X233319D01*
D01*
X233630Y-256947D01*
Y-258043D01*
X231919D01*
Y-262331D01*
X231515Y-262601D01*
X223018Y-271098D01*
X222540Y-270953D01*
X222355Y-270024D01*
X221802Y-269198D01*
X220975Y-268645D01*
X220000Y-268451D01*
X219024Y-268645D01*
X218552Y-268961D01*
X145845D01*
X143389Y-266505D01*
X143580Y-266043D01*
X147419D01*
Y-260043D01*
X134919D01*
Y-260902D01*
X132387D01*
X130641Y-259156D01*
Y-252424D01*
X130850D01*
Y-242324D01*
X126150D01*
Y-245080D01*
X125080D01*
X123794Y-243794D01*
Y-242744D01*
X124750D01*
Y-236744D01*
X121528D01*
X120058Y-235274D01*
X119622Y-234622D01*
X115270Y-230270D01*
Y-207385D01*
X118750D01*
Y-212244D01*
X122116D01*
X124750Y-214878D01*
Y-218744D01*
X126461D01*
Y-221064D01*
X126150D01*
Y-231164D01*
X130850D01*
Y-231164D01*
X130850D01*
X130850Y-231164D01*
X131150D01*
Y-231164D01*
X135850D01*
Y-221064D01*
X135539D01*
Y-218744D01*
X137250D01*
Y-215378D01*
X140384Y-212244D01*
X143250D01*
Y-206244D01*
X129858D01*
X129514Y-205730D01*
X127514Y-203730D01*
X126819Y-203266D01*
X126000Y-203103D01*
X115270D01*
Y-201549D01*
X210359D01*
Y-234950D01*
D02*
G37*
G36*
X95000Y-55000D02*
Y-125000D01*
X92850Y-127150D01*
X89000D01*
Y-131000D01*
X87462Y-132538D01*
X87000Y-132347D01*
Y-127150D01*
X85141D01*
Y-125000D01*
X84978Y-124181D01*
X84514Y-123486D01*
X77278Y-116250D01*
Y-115750D01*
X78098Y-114930D01*
X78475Y-114855D01*
X79302Y-114302D01*
X79855Y-113476D01*
X80049Y-112500D01*
X79855Y-111524D01*
X79302Y-110698D01*
X78475Y-110145D01*
X77500Y-109951D01*
X76525Y-110145D01*
X75698Y-110698D01*
X75145Y-111524D01*
X75070Y-111902D01*
X74972Y-112000D01*
X70250D01*
Y-112000D01*
X63549D01*
Y-110000D01*
X63356Y-109028D01*
X63673Y-108641D01*
X75500D01*
X76319Y-108478D01*
X77014Y-108014D01*
X78337Y-106691D01*
X78801Y-105997D01*
X78964Y-105177D01*
Y-104937D01*
X86748D01*
Y-94063D01*
X86554D01*
X86478Y-93681D01*
X86014Y-92986D01*
X83014Y-89986D01*
X82319Y-89522D01*
X81500Y-89359D01*
X80795D01*
X80475Y-89145D01*
X79500Y-88951D01*
X78525Y-89145D01*
X77698Y-89698D01*
X77302D01*
X76476Y-89145D01*
X75500Y-88951D01*
X74524Y-89145D01*
X73698Y-89698D01*
X73500Y-89993D01*
X73000D01*
X72802Y-89698D01*
X71975Y-89145D01*
X71000Y-88951D01*
X70025Y-89145D01*
X69198Y-89698D01*
X68645Y-90525D01*
X68451Y-91500D01*
X68645Y-92475D01*
X69198Y-93302D01*
X69620Y-93585D01*
X69475Y-94063D01*
X69457D01*
Y-104359D01*
X66276D01*
Y-94063D01*
X58491D01*
Y-93519D01*
X58855Y-92975D01*
X59049Y-92000D01*
X58955Y-91528D01*
X59272Y-91141D01*
X61000D01*
X61819Y-90978D01*
X62514Y-90514D01*
X73219Y-79809D01*
X73683Y-79115D01*
X73846Y-78295D01*
Y-74937D01*
X73953D01*
Y-64063D01*
X66898D01*
Y-74937D01*
X67005D01*
Y-76856D01*
X61893Y-81968D01*
X61414Y-81823D01*
X61355Y-81524D01*
X60802Y-80698D01*
X59975Y-80145D01*
X59598Y-80070D01*
X58491Y-78964D01*
Y-74937D01*
X58598D01*
Y-64063D01*
X58491D01*
Y-62673D01*
X58953Y-62481D01*
X59327Y-62855D01*
Y-64063D01*
X59220D01*
Y-74937D01*
X63717D01*
Y-74937D01*
X66276D01*
Y-64063D01*
X66169D01*
Y-59250D01*
X67000D01*
Y-52750D01*
X66549D01*
Y-52250D01*
X67500D01*
Y-43750D01*
X60500D01*
Y-44974D01*
X51000D01*
X50968Y-44978D01*
X50937Y-44974D01*
X48500D01*
X47717Y-45077D01*
X46987Y-45379D01*
X46360Y-45860D01*
X45880Y-46487D01*
X45577Y-47217D01*
X45474Y-48000D01*
X45577Y-48783D01*
X45880Y-49513D01*
X46360Y-50140D01*
X46987Y-50621D01*
X47717Y-50923D01*
X48500Y-51026D01*
X50937D01*
X50968Y-51022D01*
X51000Y-51026D01*
X60500D01*
Y-52250D01*
X61451D01*
Y-52750D01*
X61000D01*
Y-57819D01*
X60916Y-57854D01*
X60500Y-57576D01*
Y-52750D01*
X54500D01*
Y-55819D01*
X54416Y-55854D01*
X54000Y-55576D01*
Y-52750D01*
X48000D01*
Y-58859D01*
X42500D01*
Y-57750D01*
X36500D01*
Y-64250D01*
Y-70250D01*
X42500D01*
Y-69141D01*
X48984D01*
Y-74937D01*
X54102D01*
Y-74937D01*
X54209D01*
Y-79850D01*
X54372Y-80670D01*
X54372Y-80670D01*
X54372Y-80670D01*
X54836Y-81364D01*
X56570Y-83098D01*
X56645Y-83476D01*
X57141Y-84218D01*
X56905Y-84659D01*
X53873D01*
X53054Y-84822D01*
X52359Y-85286D01*
X47286Y-90359D01*
X40795D01*
X40475Y-90145D01*
X39500Y-89951D01*
X38524Y-90145D01*
X37698Y-90698D01*
X37145Y-91524D01*
X36951Y-92500D01*
X37145Y-93476D01*
X37663Y-94250D01*
X37145Y-95025D01*
X36951Y-96000D01*
X37145Y-96975D01*
X37698Y-97802D01*
X38524Y-98355D01*
X39500Y-98549D01*
X40475Y-98355D01*
X40795Y-98141D01*
X47785D01*
X48598Y-97979D01*
X48984Y-98297D01*
Y-104359D01*
X47750D01*
Y-103500D01*
X41250D01*
Y-109500D01*
X47750D01*
Y-108641D01*
X58327D01*
X58644Y-109028D01*
X58451Y-110000D01*
Y-112000D01*
X57750D01*
Y-118000D01*
X69750D01*
Y-118000D01*
X72576D01*
X72854Y-118416D01*
X72819Y-118500D01*
X70250D01*
Y-118500D01*
X63750D01*
Y-124500D01*
X69750D01*
Y-124500D01*
X70859D01*
Y-127150D01*
X69000D01*
Y-135000D01*
X67000D01*
Y-127150D01*
X59000D01*
Y-135000D01*
X51500D01*
Y-127150D01*
X49725D01*
X49619Y-126622D01*
X49122Y-125878D01*
X44750Y-121506D01*
Y-118500D01*
X42244D01*
X38750Y-115006D01*
Y-112000D01*
X38049D01*
Y-110000D01*
X37855Y-109025D01*
X37302Y-108198D01*
X36476Y-107645D01*
X35500Y-107451D01*
X34525Y-107645D01*
X33698Y-108198D01*
X33145Y-109025D01*
X32951Y-110000D01*
Y-112000D01*
X32244D01*
X31927Y-111614D01*
X32049Y-111000D01*
X31855Y-110024D01*
X31302Y-109198D01*
X30476Y-108645D01*
X29500Y-108451D01*
X28525Y-108645D01*
X27698Y-109198D01*
X27145Y-110024D01*
X26951Y-111000D01*
X27073Y-111614D01*
X26756Y-112000D01*
X14250D01*
Y-118000D01*
X17472D01*
X20250Y-120778D01*
Y-124500D01*
X21202D01*
X21522Y-124819D01*
X21522Y-124819D01*
Y-124819D01*
X21986Y-125514D01*
X23536Y-127064D01*
X23500Y-127150D01*
X23500D01*
X23500Y-127150D01*
Y-135000D01*
X2039D01*
Y-40000D01*
X80000D01*
X95000Y-55000D01*
D02*
G37*
G36*
X80859Y-125887D02*
Y-127150D01*
X79000D01*
Y-135000D01*
X77000D01*
Y-127150D01*
X75141D01*
Y-124500D01*
X76250D01*
Y-121931D01*
X76712Y-121740D01*
X80859Y-125887D01*
D02*
G37*
G36*
X43619Y-126863D02*
X43500Y-127150D01*
X43500D01*
X43500Y-127150D01*
Y-135000D01*
X41500D01*
Y-127150D01*
X39571D01*
X39478Y-126681D01*
X39014Y-125986D01*
X37990Y-124962D01*
X38181Y-124500D01*
X41256D01*
X43619Y-126863D01*
D02*
G37*
G36*
X221919Y-202043D02*
X221919D01*
Y-208043D01*
X225132D01*
X225167Y-208128D01*
X224889Y-208543D01*
X221919D01*
Y-214543D01*
X223630D01*
Y-216139D01*
X223319D01*
Y-226239D01*
X228019D01*
Y-226239D01*
X228019D01*
X228019Y-226239D01*
X228319D01*
Y-226239D01*
X233019D01*
Y-226239D01*
X233019D01*
X233019Y-226239D01*
X233319D01*
D01*
X233375Y-226239D01*
Y-231125D01*
X229047Y-235453D01*
X228550Y-236197D01*
X228375Y-237075D01*
Y-246847D01*
X228319Y-246847D01*
D01*
X228019D01*
Y-246847D01*
X223319D01*
Y-247666D01*
X222857Y-247857D01*
X220963Y-245963D01*
Y-243043D01*
X221919D01*
Y-237043D01*
X218914D01*
X217492Y-235622D01*
X216748Y-235125D01*
X215870Y-234950D01*
X214641D01*
Y-201549D01*
X221919D01*
Y-202043D01*
D02*
G37*
G36*
X318198Y-317302D02*
X319024Y-317855D01*
X320000Y-318049D01*
X320975Y-317855D01*
X321448Y-317539D01*
X362305D01*
X362526Y-317988D01*
X362252Y-318345D01*
X362167Y-318551D01*
X339738D01*
X339738Y-318551D01*
X338958Y-318707D01*
X338296Y-319149D01*
X338296Y-319149D01*
X326001Y-331444D01*
X325539Y-331252D01*
Y-330500D01*
X325384Y-329720D01*
X324942Y-329058D01*
X317539Y-321655D01*
Y-317178D01*
X318018Y-317033D01*
X318198Y-317302D01*
D02*
G37*
G36*
X14181Y-386978D02*
X15000Y-387141D01*
X24113D01*
X30000Y-393028D01*
Y-395750D01*
Y-396461D01*
X29345D01*
X26442Y-393558D01*
X25780Y-393116D01*
X25000Y-392961D01*
X15845D01*
X14253Y-391369D01*
X14338Y-391162D01*
X14491Y-390000D01*
X14338Y-388838D01*
X13890Y-387754D01*
X13295Y-386980D01*
X13637Y-386615D01*
X14181Y-386978D01*
D02*
G37*
G36*
Y-406978D02*
X15000Y-407141D01*
X24113D01*
X28986Y-412014D01*
X29681Y-412478D01*
X30000Y-412542D01*
Y-413750D01*
Y-414359D01*
X27387D01*
X26514Y-413486D01*
X25819Y-413022D01*
X25000Y-412859D01*
X13984D01*
X13763Y-412410D01*
X13890Y-412246D01*
X14338Y-411162D01*
X14491Y-410000D01*
X14338Y-408838D01*
X13890Y-407754D01*
X13295Y-406980D01*
X13637Y-406615D01*
X14181Y-406978D01*
D02*
G37*
G36*
X305961Y-198002D02*
Y-277185D01*
X288558Y-294588D01*
X288116Y-295249D01*
X287961Y-296029D01*
Y-361500D01*
X287961Y-361500D01*
X287961D01*
X288060Y-362000D01*
X287619Y-362235D01*
X279039Y-353655D01*
Y-307500D01*
X278884Y-306720D01*
X278707Y-306455D01*
X278442Y-306058D01*
X278442Y-306058D01*
X245966Y-273582D01*
X245855Y-273025D01*
X245302Y-272198D01*
X244476Y-271645D01*
X243500Y-271451D01*
X242525Y-271645D01*
X241698Y-272198D01*
X241145Y-273025D01*
X240951Y-274000D01*
X240964Y-274065D01*
X240523Y-274301D01*
X237228Y-271005D01*
X237419Y-270543D01*
X244419D01*
Y-264543D01*
X241449D01*
X241172Y-264128D01*
X241206Y-264043D01*
X244419D01*
Y-258043D01*
X242708D01*
Y-256947D01*
X243019D01*
Y-246847D01*
X238319D01*
D01*
D01*
X238319Y-246847D01*
X238019D01*
Y-246847D01*
X233319D01*
D01*
D01*
X233319Y-246847D01*
X233019D01*
D01*
X232963Y-246847D01*
Y-238025D01*
X237291Y-233697D01*
X237789Y-232953D01*
X237963Y-232075D01*
Y-226239D01*
X238019D01*
Y-216139D01*
X233319D01*
D01*
D01*
X233319Y-216139D01*
X233019D01*
D01*
X232709Y-216139D01*
Y-214543D01*
X234419D01*
Y-210539D01*
X240155D01*
X280461Y-250845D01*
Y-253552D01*
X280145Y-254025D01*
X279951Y-255000D01*
X280145Y-255976D01*
X280698Y-256802D01*
X281524Y-257355D01*
X282500Y-257549D01*
X283475Y-257355D01*
X284302Y-256802D01*
X284855Y-255976D01*
X285041Y-255041D01*
X285976Y-254855D01*
X286802Y-254302D01*
X287355Y-253475D01*
X287549Y-252500D01*
X287355Y-251524D01*
X287039Y-251052D01*
Y-249000D01*
X286884Y-248220D01*
X286442Y-247558D01*
X242485Y-203601D01*
X241824Y-203159D01*
X241043Y-203004D01*
X234419D01*
Y-202043D01*
X234419D01*
Y-201903D01*
X234773Y-201549D01*
X276000D01*
X276975Y-201355D01*
X277802Y-200802D01*
X288167Y-190438D01*
X288283Y-190423D01*
X289013Y-190120D01*
X289640Y-189640D01*
X290121Y-189013D01*
X290423Y-188283D01*
X290526Y-187500D01*
X290423Y-186717D01*
X290121Y-185987D01*
X289640Y-185360D01*
X289013Y-184880D01*
X288283Y-184577D01*
X287500Y-184474D01*
X286717Y-184577D01*
X285987Y-184880D01*
X285360Y-185360D01*
X284879Y-185987D01*
X284577Y-186717D01*
X284562Y-186833D01*
X274944Y-196451D01*
X122830D01*
X122639Y-195989D01*
X150887Y-167741D01*
X156500D01*
X157319Y-167578D01*
X157378Y-167539D01*
X275499D01*
X305961Y-198002D01*
D02*
G37*
G36*
X360149Y-262033D02*
X360810Y-262474D01*
X361591Y-262630D01*
X362103D01*
X362367Y-263054D01*
X362166Y-263461D01*
X361000D01*
X360220Y-263616D01*
X359558Y-264058D01*
X357655Y-265961D01*
X326448D01*
X325975Y-265645D01*
X325000Y-265451D01*
X324426Y-265565D01*
X324039Y-265248D01*
Y-260845D01*
X325345Y-259539D01*
X357655D01*
X360149Y-262033D01*
D02*
G37*
G36*
X359558Y-276942D02*
X360220Y-277384D01*
X361000Y-277539D01*
X362305D01*
X362526Y-277988D01*
X362252Y-278345D01*
X362167Y-278551D01*
X328723D01*
X327943Y-278707D01*
X327281Y-279149D01*
X324501Y-281929D01*
X324039Y-281737D01*
Y-275752D01*
X324426Y-275435D01*
X325000Y-275549D01*
X325975Y-275355D01*
X326448Y-275039D01*
X357655D01*
X359558Y-276942D01*
D02*
G37*
G36*
X386968Y-2134D02*
X388066Y-2467D01*
X389078Y-3008D01*
X389965Y-3736D01*
X390693Y-4623D01*
X391233Y-5635D01*
X391566Y-6732D01*
X391673Y-7816D01*
X391662Y-7874D01*
X391662D01*
X391662Y-7874D01*
Y-543307D01*
X391662Y-543307D01*
X391662D01*
X391673Y-543365D01*
X391566Y-544449D01*
X391233Y-545547D01*
X390693Y-546558D01*
X389965Y-547445D01*
X389078Y-548173D01*
X388066Y-548714D01*
X386968Y-549047D01*
X385885Y-549154D01*
X385827Y-549142D01*
X7874D01*
D01*
X7874D01*
D01*
X7816Y-549154D01*
X6732Y-549047D01*
X5635Y-548714D01*
X4623Y-548173D01*
X3736Y-547445D01*
X3008Y-546558D01*
X2467Y-545547D01*
X2134Y-544449D01*
X2028Y-543365D01*
X2039Y-543307D01*
Y-170000D01*
X13500D01*
Y-177850D01*
X21500D01*
Y-170000D01*
X23500D01*
Y-177850D01*
X25359D01*
Y-180500D01*
X25522Y-181319D01*
X25986Y-182014D01*
X34250Y-190278D01*
Y-193500D01*
X49256D01*
X51745Y-195989D01*
X51553Y-196451D01*
X37000D01*
X36024Y-196645D01*
X35198Y-197198D01*
X27833Y-204562D01*
X27717Y-204577D01*
X26987Y-204879D01*
X26360Y-205360D01*
X25879Y-205987D01*
X25577Y-206717D01*
X25474Y-207500D01*
X25577Y-208283D01*
X25879Y-209013D01*
X26360Y-209640D01*
X26987Y-210121D01*
X27717Y-210423D01*
X28500Y-210526D01*
X29283Y-210423D01*
X30013Y-210121D01*
X30640Y-209640D01*
X31120Y-209013D01*
X31423Y-208283D01*
X31438Y-208167D01*
X38056Y-201549D01*
X70866D01*
X70933Y-201536D01*
X71000Y-201549D01*
X110682D01*
Y-205500D01*
X110682Y-205500D01*
X110682D01*
Y-231000D01*
X110704Y-231110D01*
X110682Y-231221D01*
X110857Y-232098D01*
X111354Y-232843D01*
X116378Y-237866D01*
X117030Y-238302D01*
X118250Y-239522D01*
Y-242744D01*
X119206D01*
Y-244744D01*
X119380Y-245622D01*
X119878Y-246366D01*
X122508Y-248996D01*
D01*
X122508D01*
Y-248996D01*
D01*
X122508D01*
Y-248996D01*
X122508D01*
X122508Y-248996D01*
Y-248996D01*
X122508Y-248996D01*
Y-248996D01*
X123252Y-249494D01*
X124130Y-249668D01*
X126150D01*
Y-252424D01*
X126359D01*
Y-260043D01*
X126522Y-260863D01*
X126522Y-260863D01*
X126522Y-260863D01*
X126986Y-261557D01*
X129986Y-264557D01*
X130622Y-264982D01*
X130477Y-265461D01*
X59845D01*
X48533Y-254149D01*
X47871Y-253707D01*
X47091Y-253551D01*
X45000D01*
Y-252840D01*
Y-252244D01*
X45386Y-251927D01*
X46000Y-252049D01*
X46975Y-251855D01*
X47802Y-251302D01*
X48355Y-250476D01*
X48549Y-249500D01*
X48355Y-248524D01*
X47802Y-247698D01*
X46975Y-247145D01*
X46000Y-246951D01*
X45386Y-247073D01*
X45000Y-246756D01*
Y-246244D01*
X45386Y-245927D01*
X46000Y-246049D01*
X46975Y-245855D01*
X47802Y-245302D01*
X48355Y-244476D01*
X48549Y-243500D01*
X48355Y-242525D01*
X47802Y-241698D01*
X46975Y-241145D01*
X46000Y-240951D01*
X45386Y-241073D01*
X45000Y-240756D01*
Y-240340D01*
X39000D01*
Y-246841D01*
Y-252840D01*
Y-258840D01*
Y-264841D01*
Y-270841D01*
Y-276840D01*
Y-282840D01*
Y-288841D01*
Y-294841D01*
Y-300840D01*
Y-306840D01*
Y-312841D01*
Y-318841D01*
Y-324840D01*
X39451D01*
Y-346944D01*
X20783Y-365612D01*
X20000Y-365509D01*
X18838Y-365662D01*
X17754Y-366110D01*
X16824Y-366824D01*
X16343Y-367451D01*
X14453D01*
Y-365547D01*
X5547D01*
Y-374453D01*
X14453D01*
Y-372549D01*
X16343D01*
X16824Y-373176D01*
X17754Y-373889D01*
X18838Y-374338D01*
X20000Y-374491D01*
X21162Y-374338D01*
X22246Y-373889D01*
X23176Y-373176D01*
X23707Y-372483D01*
X24206Y-372450D01*
X30706Y-378950D01*
Y-383250D01*
X30000D01*
Y-386319D01*
X29538Y-386510D01*
X26514Y-383486D01*
X25819Y-383022D01*
X25000Y-382859D01*
X15887D01*
X14295Y-381267D01*
X14338Y-381162D01*
X14491Y-380000D01*
X14338Y-378838D01*
X13890Y-377754D01*
X13176Y-376824D01*
X12246Y-376111D01*
X11162Y-375662D01*
X10000Y-375509D01*
X8838Y-375662D01*
X7754Y-376111D01*
X6824Y-376824D01*
X6111Y-377754D01*
X5662Y-378838D01*
X5509Y-380000D01*
X5662Y-381162D01*
X6111Y-382246D01*
X6824Y-383176D01*
X7754Y-383890D01*
X8838Y-384338D01*
X10000Y-384491D01*
X11162Y-384338D01*
X11267Y-384295D01*
X13140Y-386168D01*
X12810Y-386544D01*
X12246Y-386110D01*
X11162Y-385662D01*
X10000Y-385509D01*
X8838Y-385662D01*
X7754Y-386110D01*
X6824Y-386824D01*
X6111Y-387754D01*
X5662Y-388838D01*
X5509Y-390000D01*
X5662Y-391162D01*
X6111Y-392246D01*
X6824Y-393176D01*
X7754Y-393889D01*
X8838Y-394338D01*
X10000Y-394491D01*
X11162Y-394338D01*
X11369Y-394253D01*
X13558Y-396442D01*
X14220Y-396884D01*
X15000Y-397039D01*
X24155D01*
X27058Y-399942D01*
X27720Y-400384D01*
X28500Y-400539D01*
X30000D01*
Y-401750D01*
Y-406319D01*
X29538Y-406510D01*
X26514Y-403486D01*
X25819Y-403022D01*
X25000Y-402859D01*
X15887D01*
X14295Y-401267D01*
X14338Y-401162D01*
X14491Y-400000D01*
X14338Y-398838D01*
X13890Y-397754D01*
X13176Y-396824D01*
X12246Y-396111D01*
X11162Y-395662D01*
X10000Y-395509D01*
X8838Y-395662D01*
X7754Y-396111D01*
X6824Y-396824D01*
X6111Y-397754D01*
X5662Y-398838D01*
X5509Y-400000D01*
X5662Y-401162D01*
X6111Y-402246D01*
X6824Y-403176D01*
X7754Y-403890D01*
X8838Y-404338D01*
X10000Y-404491D01*
X11162Y-404338D01*
X11267Y-404295D01*
X13140Y-406168D01*
X12810Y-406544D01*
X12246Y-406110D01*
X11162Y-405662D01*
X10000Y-405509D01*
X8838Y-405662D01*
X7754Y-406110D01*
X6824Y-406824D01*
X6111Y-407754D01*
X5662Y-408838D01*
X5509Y-410000D01*
X5662Y-411162D01*
X6111Y-412246D01*
X6824Y-413176D01*
X7754Y-413890D01*
X7961Y-413975D01*
Y-414487D01*
X7859Y-415000D01*
X7961Y-415513D01*
Y-416025D01*
X7754Y-416111D01*
X6824Y-416824D01*
X6111Y-417754D01*
X5662Y-418838D01*
X5509Y-420000D01*
X5662Y-421162D01*
X6111Y-422246D01*
X6824Y-423176D01*
X7754Y-423889D01*
X8838Y-424338D01*
X10000Y-424491D01*
X11162Y-424338D01*
X12246Y-423889D01*
X13176Y-423176D01*
X13890Y-422246D01*
X14338Y-421162D01*
X14491Y-420000D01*
X14338Y-418838D01*
X13890Y-417754D01*
X13763Y-417590D01*
X13984Y-417141D01*
X24113D01*
X24986Y-418014D01*
X25681Y-418478D01*
X26500Y-418641D01*
X30000D01*
Y-419750D01*
Y-425750D01*
X30569D01*
X30760Y-426212D01*
X24113Y-432859D01*
X15000D01*
X14181Y-433022D01*
X13637Y-433385D01*
X13295Y-433020D01*
X13890Y-432246D01*
X14338Y-431162D01*
X14491Y-430000D01*
X14338Y-428838D01*
X13890Y-427754D01*
X13176Y-426824D01*
X12246Y-426111D01*
X11162Y-425662D01*
X10000Y-425509D01*
X8838Y-425662D01*
X7754Y-426111D01*
X6824Y-426824D01*
X6111Y-427754D01*
X5662Y-428838D01*
X5509Y-430000D01*
X5662Y-431162D01*
X6111Y-432246D01*
X6824Y-433176D01*
X7754Y-433889D01*
X8838Y-434338D01*
X10000Y-434491D01*
X11162Y-434338D01*
X12246Y-433889D01*
X12810Y-433456D01*
X13140Y-433832D01*
X11267Y-435705D01*
X11162Y-435662D01*
X10000Y-435509D01*
X8838Y-435662D01*
X7754Y-436110D01*
X6824Y-436824D01*
X6111Y-437754D01*
X5662Y-438838D01*
X5509Y-440000D01*
X5662Y-441162D01*
X6111Y-442246D01*
X6824Y-443176D01*
X7754Y-443890D01*
X8838Y-444338D01*
X10000Y-444491D01*
X11162Y-444338D01*
X12246Y-443890D01*
X13176Y-443176D01*
X13890Y-442246D01*
X14338Y-441162D01*
X14491Y-440000D01*
X14338Y-438838D01*
X14295Y-438733D01*
X15887Y-437141D01*
X25000D01*
X25819Y-436978D01*
X26514Y-436514D01*
X26514Y-436514D01*
X26514Y-436514D01*
X34514Y-428514D01*
X34978Y-427819D01*
X35141Y-427000D01*
Y-425750D01*
X36000D01*
Y-419750D01*
Y-413750D01*
Y-410681D01*
X36084Y-410646D01*
X36500Y-410924D01*
Y-413750D01*
Y-419750D01*
Y-425750D01*
X37461D01*
Y-464500D01*
X37616Y-465280D01*
X38058Y-465942D01*
X53558Y-481442D01*
X54220Y-481884D01*
X55000Y-482039D01*
X287500D01*
X288280Y-481884D01*
X288942Y-481442D01*
X294942Y-475442D01*
X295384Y-474780D01*
X295539Y-474000D01*
Y-439948D01*
X295855Y-439475D01*
X296049Y-438500D01*
X295855Y-437525D01*
X295302Y-436698D01*
X294476Y-436145D01*
X293500Y-435951D01*
X292525Y-436145D01*
X291698Y-436698D01*
X291145Y-437525D01*
X290951Y-438500D01*
X291145Y-439475D01*
X291461Y-439948D01*
Y-473155D01*
X286655Y-477961D01*
X245480D01*
X245431Y-477463D01*
X245975Y-477355D01*
X246802Y-476802D01*
X247355Y-475976D01*
X247549Y-475000D01*
X247355Y-474024D01*
X246802Y-473198D01*
X245975Y-472645D01*
X245000Y-472451D01*
X244024Y-472645D01*
X243552Y-472961D01*
X237345D01*
X235442Y-471058D01*
X234780Y-470616D01*
X234000Y-470461D01*
X232851D01*
X232534Y-470074D01*
X232549Y-470000D01*
X232355Y-469025D01*
X231802Y-468198D01*
X231133Y-467750D01*
Y-467250D01*
X231802Y-466802D01*
X232355Y-465976D01*
X232541Y-465041D01*
X233475Y-464855D01*
X234302Y-464302D01*
X234855Y-463476D01*
X235041Y-462541D01*
X235976Y-462355D01*
X236802Y-461802D01*
X237355Y-460976D01*
X237541Y-460041D01*
X238475Y-459855D01*
X239302Y-459302D01*
X239855Y-458475D01*
X240041Y-457541D01*
X240975Y-457355D01*
X241802Y-456802D01*
X242355Y-455975D01*
X242541Y-455041D01*
X243476Y-454855D01*
X244302Y-454302D01*
X244855Y-453476D01*
X245049Y-452500D01*
X245034Y-452426D01*
X245351Y-452039D01*
X248155D01*
X253558Y-457442D01*
X254220Y-457884D01*
X255000Y-458039D01*
X258000D01*
Y-459250D01*
Y-465250D01*
X264000D01*
Y-459250D01*
Y-456028D01*
X268209Y-451819D01*
X269246Y-451390D01*
X270176Y-450676D01*
X270889Y-449746D01*
X271338Y-448662D01*
X271491Y-447500D01*
X271338Y-446338D01*
X270889Y-445254D01*
X270685Y-444988D01*
X270798Y-444757D01*
X271292Y-444676D01*
X272747Y-446131D01*
X272662Y-446338D01*
X272509Y-447500D01*
X272662Y-448662D01*
X273111Y-449746D01*
X273824Y-450676D01*
X274754Y-451390D01*
X274859Y-451433D01*
Y-453000D01*
X275022Y-453819D01*
X275022Y-453819D01*
X275022Y-453819D01*
X275486Y-454514D01*
X277000Y-456028D01*
Y-459250D01*
Y-465250D01*
X283000D01*
Y-459250D01*
Y-452750D01*
X279778D01*
X279141Y-452113D01*
Y-451433D01*
X279246Y-451390D01*
X280176Y-450676D01*
X280890Y-449746D01*
X281338Y-448662D01*
X281491Y-447500D01*
X281338Y-446338D01*
X280890Y-445254D01*
X280176Y-444324D01*
X279246Y-443610D01*
X278162Y-443162D01*
X277000Y-443009D01*
X275838Y-443162D01*
X275631Y-443247D01*
X273442Y-441058D01*
X272780Y-440616D01*
X272000Y-440461D01*
X270906D01*
X270685Y-440012D01*
X270889Y-439746D01*
X271338Y-438662D01*
X271491Y-437500D01*
X271388Y-436717D01*
X272388Y-435716D01*
X272804Y-435994D01*
X272662Y-436338D01*
X272509Y-437500D01*
X272662Y-438662D01*
X273111Y-439746D01*
X273824Y-440676D01*
X274754Y-441390D01*
X275838Y-441838D01*
X277000Y-441991D01*
X278162Y-441838D01*
X279246Y-441390D01*
X280176Y-440676D01*
X280890Y-439746D01*
X281338Y-438662D01*
X281491Y-437500D01*
X281338Y-436338D01*
X280890Y-435254D01*
X280176Y-434324D01*
X279246Y-433610D01*
X278162Y-433162D01*
X277000Y-433009D01*
X275838Y-433162D01*
X275494Y-433304D01*
X275216Y-432888D01*
X276556Y-431549D01*
X339451D01*
Y-456444D01*
X303944Y-491951D01*
X281000D01*
X280025Y-492145D01*
X279198Y-492698D01*
X273698Y-498198D01*
X273145Y-499024D01*
X272951Y-500000D01*
X273145Y-500976D01*
X273698Y-501802D01*
X274524Y-502355D01*
X275500Y-502549D01*
X276476Y-502355D01*
X277302Y-501802D01*
X282056Y-497049D01*
X305000D01*
X305976Y-496855D01*
X306802Y-496302D01*
X343802Y-459302D01*
X344355Y-458475D01*
X344549Y-457500D01*
Y-429000D01*
X344549Y-429000D01*
X344549Y-429000D01*
Y-429000D01*
Y-405000D01*
X344549Y-405000D01*
X344549Y-405000D01*
Y-405000D01*
Y-376500D01*
X344549Y-376500D01*
X344549Y-376500D01*
Y-376500D01*
X344549D01*
X344549Y-376500D01*
X344355Y-375524D01*
X343802Y-374698D01*
X337430Y-368325D01*
X337539Y-367500D01*
X337384Y-366325D01*
X336931Y-365231D01*
X336209Y-364291D01*
X335549Y-363784D01*
Y-358657D01*
X336176Y-358176D01*
X336890Y-357246D01*
X337338Y-356162D01*
X337491Y-355000D01*
X337338Y-353838D01*
X336890Y-352754D01*
X336176Y-351824D01*
X335246Y-351111D01*
X334162Y-350662D01*
X333000Y-350509D01*
X331838Y-350662D01*
X330754Y-351111D01*
X329824Y-351824D01*
X329111Y-352754D01*
X328662Y-353838D01*
X328509Y-355000D01*
X328662Y-356162D01*
X329111Y-357246D01*
X329824Y-358176D01*
X330451Y-358657D01*
Y-363784D01*
X329791Y-364291D01*
X329069Y-365231D01*
X328616Y-366325D01*
X328461Y-367500D01*
X328616Y-368675D01*
X329069Y-369769D01*
X329791Y-370709D01*
X330731Y-371431D01*
X331825Y-371884D01*
X333000Y-372039D01*
X333825Y-371930D01*
X339451Y-377556D01*
Y-402451D01*
X294500D01*
Y-401750D01*
X288500D01*
Y-408250D01*
X294500D01*
Y-407549D01*
X339451D01*
Y-426451D01*
X275500D01*
X274524Y-426645D01*
X273698Y-427198D01*
X267783Y-433112D01*
X267000Y-433009D01*
X265838Y-433162D01*
X264754Y-433610D01*
X263824Y-434324D01*
X263343Y-434951D01*
X260657D01*
X260176Y-434324D01*
X259246Y-433610D01*
X258162Y-433162D01*
X257000Y-433009D01*
X255838Y-433162D01*
X254754Y-433610D01*
X253824Y-434324D01*
X253343Y-434951D01*
X236500D01*
X235525Y-435145D01*
X234698Y-435698D01*
X229944Y-440451D01*
X219556D01*
X217201Y-438096D01*
Y-430974D01*
Y-424974D01*
Y-418974D01*
Y-414469D01*
X220375Y-411294D01*
X270550D01*
X275124Y-415868D01*
X275145Y-415976D01*
X275698Y-416802D01*
X276524Y-417355D01*
X277500Y-417549D01*
X278475Y-417355D01*
X278567Y-417294D01*
X332433D01*
X332524Y-417355D01*
X333500Y-417549D01*
X334475Y-417355D01*
X335302Y-416802D01*
X335855Y-415976D01*
X336049Y-415000D01*
X335855Y-414024D01*
X335302Y-413198D01*
X334475Y-412645D01*
X333500Y-412451D01*
X332524Y-412645D01*
X332433Y-412706D01*
X278567D01*
X278475Y-412645D01*
X278368Y-412624D01*
X273122Y-407378D01*
X272378Y-406881D01*
X271500Y-406706D01*
X219425D01*
X218547Y-406881D01*
X217803Y-407378D01*
X214706Y-410474D01*
X210201D01*
Y-418974D01*
X211201D01*
Y-419685D01*
X209649D01*
X209176Y-419370D01*
X208201Y-419175D01*
X207225Y-419370D01*
X206398Y-419922D01*
X205846Y-420749D01*
X205652Y-421724D01*
X205846Y-422700D01*
X206398Y-423527D01*
Y-423922D01*
X205846Y-424749D01*
X205652Y-425724D01*
X205846Y-426700D01*
X206398Y-427527D01*
X207225Y-428079D01*
X208201Y-428273D01*
X209176Y-428079D01*
X209649Y-427764D01*
X211201D01*
Y-430474D01*
X210201D01*
Y-438974D01*
X211306D01*
X211346Y-439176D01*
X211898Y-440003D01*
X216698Y-444802D01*
X217525Y-445355D01*
X218500Y-445549D01*
X231000D01*
X231976Y-445355D01*
X232802Y-444802D01*
X237556Y-440049D01*
X251520D01*
X251569Y-440547D01*
X251220Y-440616D01*
X250558Y-441058D01*
X248655Y-442961D01*
X239948D01*
X239475Y-442645D01*
X238500Y-442451D01*
X237525Y-442645D01*
X236698Y-443198D01*
X236145Y-444025D01*
X235959Y-444959D01*
X235024Y-445145D01*
X234198Y-445698D01*
X233645Y-446524D01*
X233451Y-447500D01*
X233466Y-447574D01*
X233149Y-447961D01*
X227948D01*
X227476Y-447645D01*
X226500Y-447451D01*
X225524Y-447645D01*
X224698Y-448198D01*
X224145Y-449024D01*
X223951Y-450000D01*
X223966Y-450074D01*
X223649Y-450461D01*
X216448D01*
X215975Y-450145D01*
X215000Y-449951D01*
X214024Y-450145D01*
X213198Y-450698D01*
X212645Y-451524D01*
X212459Y-452459D01*
X211525Y-452645D01*
X210698Y-453198D01*
X210145Y-454025D01*
X209959Y-454959D01*
X209025Y-455145D01*
X208198Y-455698D01*
X207645Y-456525D01*
X207459Y-457459D01*
X206524Y-457645D01*
X205698Y-458198D01*
X205656Y-458261D01*
X205158Y-458310D01*
X202906Y-456058D01*
X202245Y-455616D01*
X201465Y-455461D01*
X183948D01*
X183475Y-455145D01*
X182500Y-454951D01*
X181525Y-455145D01*
X180698Y-455698D01*
X180145Y-456525D01*
X179959Y-457459D01*
X179025Y-457645D01*
X178198Y-458198D01*
X177645Y-459024D01*
X177543Y-459536D01*
X177065Y-459681D01*
X173460Y-456076D01*
Y-440027D01*
X173776Y-439555D01*
X173970Y-438579D01*
X173776Y-437604D01*
X173223Y-436777D01*
X172396Y-436224D01*
X171421Y-436030D01*
X170445Y-436224D01*
X169618Y-436777D01*
X169066Y-437604D01*
X168872Y-438579D01*
X169066Y-439555D01*
X169382Y-440027D01*
Y-456921D01*
X169537Y-457701D01*
X169979Y-458363D01*
X184115Y-472499D01*
X183924Y-472961D01*
X160845D01*
X157039Y-469155D01*
Y-449948D01*
X157355Y-449475D01*
X157549Y-448500D01*
X157355Y-447524D01*
X156802Y-446698D01*
X155975Y-446145D01*
X155000Y-445951D01*
X154025Y-446145D01*
X153198Y-446698D01*
X152645Y-447524D01*
X152459Y-448459D01*
X151524Y-448645D01*
X150698Y-449198D01*
X150145Y-450025D01*
X149951Y-451000D01*
X150145Y-451975D01*
X150461Y-452448D01*
Y-470328D01*
X150461Y-470328D01*
X150461D01*
X150616Y-471109D01*
X151058Y-471770D01*
X156787Y-477499D01*
X156595Y-477961D01*
X55845D01*
X41539Y-463655D01*
Y-425750D01*
X42500D01*
Y-419750D01*
Y-413750D01*
Y-407250D01*
X39278D01*
X38391Y-406363D01*
Y-402637D01*
X39278Y-401750D01*
X42500D01*
Y-395750D01*
Y-389250D01*
X38994D01*
X36000Y-386256D01*
Y-383250D01*
X35294D01*
Y-378000D01*
X35120Y-377122D01*
X34622Y-376378D01*
X26622Y-368378D01*
X26114Y-368038D01*
X26065Y-367540D01*
X43802Y-349802D01*
X44355Y-348975D01*
X44549Y-348000D01*
Y-324840D01*
X45000D01*
Y-318841D01*
Y-317630D01*
X46409D01*
X47190Y-317475D01*
X47851Y-317033D01*
X52442Y-312442D01*
X52884Y-311780D01*
X53039Y-311000D01*
Y-302173D01*
X75673Y-279539D01*
X224964D01*
X225745Y-279384D01*
X226406Y-278942D01*
X231478Y-273870D01*
X234325D01*
X272961Y-312506D01*
Y-356500D01*
X273116Y-357280D01*
X273558Y-357942D01*
X281961Y-366345D01*
Y-376000D01*
X282116Y-376780D01*
X282558Y-377442D01*
X286558Y-381442D01*
X287220Y-381884D01*
X288000Y-382039D01*
X298552D01*
X299025Y-382355D01*
X300000Y-382549D01*
X300975Y-382355D01*
X301802Y-381802D01*
X302355Y-380976D01*
X302549Y-380000D01*
X302355Y-379025D01*
X301802Y-378198D01*
X300975Y-377645D01*
X300000Y-377451D01*
X299025Y-377645D01*
X298552Y-377961D01*
X288845D01*
X286274Y-375391D01*
X286348Y-374896D01*
X286480Y-374825D01*
X286525Y-374855D01*
X287500Y-375049D01*
X288475Y-374855D01*
X288948Y-374539D01*
X290000D01*
X290780Y-374384D01*
X291442Y-373942D01*
X291442Y-373942D01*
X291442Y-373942D01*
X301442Y-363942D01*
X301442Y-363942D01*
X301884Y-363280D01*
X301884Y-363280D01*
X301884Y-363280D01*
X302039Y-362500D01*
X302039Y-362500D01*
Y-352851D01*
X302426Y-352534D01*
X302500Y-352549D01*
X303475Y-352355D01*
X304302Y-351802D01*
X304855Y-350975D01*
X305041Y-350041D01*
X305976Y-349855D01*
X306802Y-349302D01*
X307355Y-348476D01*
X307541Y-347541D01*
X308475Y-347355D01*
X309302Y-346802D01*
X309750Y-346132D01*
X310250D01*
X310698Y-346802D01*
X311525Y-347355D01*
X312500Y-347549D01*
X313475Y-347355D01*
X313948Y-347039D01*
X315328D01*
X316109Y-346884D01*
X316770Y-346442D01*
X340582Y-322630D01*
X362167D01*
X362252Y-322836D01*
X362966Y-323766D01*
X363896Y-324480D01*
X364979Y-324929D01*
X366142Y-325082D01*
X367304Y-324929D01*
X368387Y-324480D01*
X369318Y-323766D01*
X370031Y-322836D01*
X370480Y-321753D01*
X370633Y-320590D01*
X370480Y-319428D01*
X370031Y-318345D01*
X369757Y-317988D01*
X369978Y-317539D01*
X371232D01*
X372013Y-317384D01*
X372674Y-316942D01*
X374773Y-314843D01*
X374979Y-314929D01*
X376142Y-315082D01*
X377304Y-314929D01*
X378387Y-314480D01*
X379317Y-313766D01*
X380031Y-312836D01*
X380480Y-311753D01*
X380633Y-310591D01*
X380480Y-309428D01*
X380031Y-308345D01*
X379317Y-307415D01*
X378387Y-306701D01*
X377304Y-306252D01*
X376142Y-306099D01*
X374979Y-306252D01*
X373896Y-306701D01*
X372966Y-307415D01*
X372252Y-308345D01*
X371804Y-309428D01*
X371651Y-310591D01*
X371804Y-311753D01*
X371889Y-311959D01*
X370510Y-313338D01*
X370017Y-313257D01*
X369896Y-313012D01*
X370031Y-312836D01*
X370480Y-311753D01*
X370633Y-310591D01*
X370480Y-309428D01*
X370031Y-308345D01*
X369757Y-307988D01*
X369978Y-307539D01*
X371232D01*
X372013Y-307384D01*
X372674Y-306942D01*
X374773Y-304843D01*
X374979Y-304929D01*
X376142Y-305082D01*
X377304Y-304929D01*
X378387Y-304480D01*
X379317Y-303766D01*
X380031Y-302836D01*
X380480Y-301753D01*
X380633Y-300590D01*
X380480Y-299428D01*
X380031Y-298345D01*
X379317Y-297415D01*
X378387Y-296701D01*
X377304Y-296252D01*
X376142Y-296099D01*
X375926Y-296128D01*
X375704Y-295679D01*
X376326Y-295057D01*
X377304Y-294929D01*
X378387Y-294480D01*
X379317Y-293766D01*
X380031Y-292836D01*
X380480Y-291753D01*
X380633Y-290591D01*
X380480Y-289428D01*
X380031Y-288345D01*
X379317Y-287415D01*
X378387Y-286701D01*
X377304Y-286252D01*
X376142Y-286099D01*
X374979Y-286252D01*
X373896Y-286701D01*
X372966Y-287415D01*
X372252Y-288345D01*
X371804Y-289428D01*
X371651Y-290591D01*
X371804Y-291753D01*
X372252Y-292836D01*
X372481Y-293135D01*
X372155Y-293461D01*
X370117D01*
X369896Y-293012D01*
X370031Y-292836D01*
X370480Y-291753D01*
X370633Y-290591D01*
X370480Y-289428D01*
X370031Y-288345D01*
X369757Y-287988D01*
X369978Y-287539D01*
X371232D01*
X372013Y-287384D01*
X372674Y-286942D01*
X374773Y-284843D01*
X374979Y-284929D01*
X376142Y-285082D01*
X377304Y-284929D01*
X378387Y-284480D01*
X379317Y-283766D01*
X380031Y-282836D01*
X380480Y-281753D01*
X380633Y-280591D01*
X380480Y-279428D01*
X380031Y-278345D01*
X379317Y-277415D01*
X378387Y-276701D01*
X377304Y-276252D01*
X376142Y-276099D01*
X374979Y-276252D01*
X373896Y-276701D01*
X372966Y-277415D01*
X372252Y-278345D01*
X371804Y-279428D01*
X371651Y-280591D01*
X371804Y-281753D01*
X371889Y-281959D01*
X370510Y-283338D01*
X370017Y-283257D01*
X369896Y-283012D01*
X370031Y-282836D01*
X370480Y-281753D01*
X370633Y-280591D01*
X370480Y-279428D01*
X370031Y-278345D01*
X369757Y-277988D01*
X369978Y-277539D01*
X371232D01*
X372013Y-277384D01*
X372674Y-276942D01*
X372674Y-276942D01*
X372674Y-276942D01*
X374773Y-274843D01*
X374979Y-274929D01*
X376142Y-275082D01*
X377304Y-274929D01*
X378387Y-274480D01*
X379317Y-273766D01*
X380031Y-272836D01*
X380480Y-271753D01*
X380633Y-270590D01*
X380480Y-269428D01*
X380031Y-268345D01*
X379317Y-267415D01*
X378387Y-266701D01*
X377304Y-266252D01*
X376142Y-266099D01*
X374979Y-266252D01*
X373896Y-266701D01*
X372966Y-267415D01*
X372252Y-268345D01*
X371804Y-269428D01*
X371651Y-270590D01*
X371804Y-271753D01*
X371889Y-271959D01*
X370510Y-273339D01*
X370017Y-273257D01*
X369896Y-273012D01*
X370031Y-272836D01*
X370480Y-271753D01*
X370633Y-270590D01*
X370480Y-269428D01*
X370031Y-268345D01*
X369757Y-267988D01*
X369978Y-267539D01*
X371232D01*
X372013Y-267384D01*
X372674Y-266942D01*
X372674Y-266942D01*
X372674Y-266942D01*
X374773Y-264843D01*
X374979Y-264929D01*
X376142Y-265082D01*
X377304Y-264929D01*
X378387Y-264480D01*
X379317Y-263766D01*
X380031Y-262836D01*
X380480Y-261753D01*
X380633Y-260591D01*
X380480Y-259428D01*
X380031Y-258345D01*
X379317Y-257415D01*
X378387Y-256701D01*
X377304Y-256252D01*
X376142Y-256099D01*
X374979Y-256252D01*
X373896Y-256701D01*
X372966Y-257415D01*
X372252Y-258345D01*
X371804Y-259428D01*
X371651Y-260591D01*
X371804Y-261753D01*
X371889Y-261959D01*
X370510Y-263338D01*
X370017Y-263257D01*
X369896Y-263012D01*
X370031Y-262836D01*
X370480Y-261753D01*
X370633Y-260591D01*
X370480Y-259428D01*
X370031Y-258345D01*
X369757Y-257988D01*
X369978Y-257539D01*
X371232D01*
X372013Y-257384D01*
X372674Y-256942D01*
X374773Y-254843D01*
X374979Y-254929D01*
X376142Y-255082D01*
X377304Y-254929D01*
X378387Y-254480D01*
X379317Y-253766D01*
X380031Y-252836D01*
X380480Y-251753D01*
X380633Y-250590D01*
X380480Y-249428D01*
X380031Y-248345D01*
X379317Y-247415D01*
X378387Y-246701D01*
X377304Y-246252D01*
X376142Y-246099D01*
X374979Y-246252D01*
X373896Y-246701D01*
X372966Y-247415D01*
X372252Y-248345D01*
X371804Y-249428D01*
X371651Y-250590D01*
X371804Y-251753D01*
X371889Y-251959D01*
X370510Y-253339D01*
X370017Y-253257D01*
X369896Y-253012D01*
X370031Y-252836D01*
X370480Y-251753D01*
X370633Y-250590D01*
X370480Y-249428D01*
X370031Y-248345D01*
X369757Y-247988D01*
X369978Y-247539D01*
X371232D01*
X372013Y-247384D01*
X372674Y-246942D01*
X372674Y-246942D01*
X372674Y-246942D01*
X374773Y-244843D01*
X374979Y-244929D01*
X376142Y-245082D01*
X377304Y-244929D01*
X378387Y-244480D01*
X379317Y-243766D01*
X380031Y-242836D01*
X380480Y-241753D01*
X380633Y-240591D01*
X380480Y-239428D01*
X380031Y-238345D01*
X379317Y-237415D01*
X378387Y-236701D01*
X377304Y-236252D01*
X376142Y-236099D01*
X374979Y-236252D01*
X373896Y-236701D01*
X372966Y-237415D01*
X372252Y-238345D01*
X371804Y-239428D01*
X371651Y-240591D01*
X371804Y-241753D01*
X371889Y-241959D01*
X370510Y-243338D01*
X370017Y-243257D01*
X369896Y-243012D01*
X370031Y-242836D01*
X370480Y-241753D01*
X370633Y-240591D01*
X370480Y-239428D01*
X370031Y-238345D01*
X369318Y-237415D01*
X368387Y-236701D01*
X367304Y-236252D01*
X366142Y-236099D01*
X364979Y-236252D01*
X363896Y-236701D01*
X362966Y-237415D01*
X362252Y-238345D01*
X361659Y-238099D01*
X361617Y-237999D01*
X364573Y-235043D01*
X370595D01*
Y-226138D01*
X361689D01*
Y-232159D01*
X358388Y-235461D01*
X324465D01*
X323684Y-235616D01*
X323419Y-235793D01*
X323023Y-236058D01*
X323023Y-236058D01*
X318038Y-241043D01*
X317525Y-241145D01*
X316698Y-241698D01*
X316518Y-241967D01*
X316039Y-241822D01*
Y-194672D01*
X315884Y-193891D01*
X315442Y-193230D01*
X283539Y-161327D01*
Y-136250D01*
X284500D01*
Y-129750D01*
X279000D01*
Y-126049D01*
X283271D01*
X284736Y-127514D01*
X285431Y-127978D01*
X285431Y-127978D01*
X285431Y-127978D01*
D01*
X285431Y-127978D01*
X285431Y-127978D01*
X286250Y-128141D01*
Y-129000D01*
X292750D01*
Y-123000D01*
X287000D01*
Y-119451D01*
X279000D01*
Y-115500D01*
X278500D01*
Y-107250D01*
X277141D01*
Y-101484D01*
X277269Y-101431D01*
X278209Y-100709D01*
X278931Y-99769D01*
X279384Y-98675D01*
X279539Y-97500D01*
X279384Y-96325D01*
X278931Y-95231D01*
X278209Y-94291D01*
X277269Y-93569D01*
X276175Y-93116D01*
X275000Y-92961D01*
X273825Y-93116D01*
X272731Y-93569D01*
X271791Y-94291D01*
X271069Y-95231D01*
X270616Y-96325D01*
X270461Y-97500D01*
X270616Y-98675D01*
X271069Y-99769D01*
X271791Y-100709D01*
X272731Y-101431D01*
X272859Y-101484D01*
Y-107250D01*
X271500D01*
Y-115500D01*
X271000D01*
Y-122500D01*
X279000D01*
Y-123000D01*
X271000D01*
Y-130000D01*
X272000D01*
Y-136250D01*
X278000D01*
Y-130000D01*
X278500D01*
Y-136250D01*
X279461D01*
Y-159424D01*
X278999Y-159615D01*
X254500Y-135116D01*
Y-131750D01*
X248500D01*
Y-138250D01*
X251866D01*
X274615Y-160999D01*
X274424Y-161461D01*
X99013D01*
X98500Y-161359D01*
X89294D01*
X89103Y-160897D01*
X110000Y-140000D01*
Y-45000D01*
X95000Y-30000D01*
Y-2039D01*
X161334D01*
X161456Y-2524D01*
X161371Y-2569D01*
X160382Y-3382D01*
X152689Y-11074D01*
X151876Y-12064D01*
X151273Y-13193D01*
X150901Y-14419D01*
X150776Y-15693D01*
Y-29185D01*
X149597Y-30191D01*
X148486Y-31492D01*
X147592Y-32951D01*
X146937Y-34532D01*
X146538Y-36196D01*
X146403Y-37902D01*
X146538Y-39607D01*
X146937Y-41271D01*
X147592Y-42852D01*
X148486Y-44311D01*
X149597Y-45612D01*
X150898Y-46723D01*
X152357Y-47617D01*
X153938Y-48272D01*
X154474Y-48400D01*
Y-54000D01*
X154250D01*
Y-60000D01*
X160750D01*
Y-54000D01*
X160526D01*
Y-48308D01*
X160677Y-48272D01*
X162257Y-47617D01*
X163716Y-46723D01*
X165017Y-45612D01*
X166128Y-44311D01*
X167022Y-42852D01*
X167677Y-41271D01*
X168077Y-39607D01*
X168211Y-37902D01*
X168077Y-36196D01*
X167677Y-34532D01*
X167022Y-32951D01*
X166128Y-31492D01*
X165017Y-30191D01*
X163839Y-29185D01*
Y-18398D01*
X167705Y-14532D01*
X245795D01*
X249162Y-17898D01*
Y-29185D01*
X247983Y-30191D01*
X246872Y-31492D01*
X245978Y-32951D01*
X245323Y-34532D01*
X244923Y-36196D01*
X244789Y-37902D01*
X244923Y-39607D01*
X245323Y-41271D01*
X245978Y-42852D01*
X246872Y-44311D01*
X247983Y-45612D01*
X249284Y-46723D01*
X250743Y-47617D01*
X252324Y-48272D01*
X253987Y-48671D01*
X255693Y-48805D01*
X257399Y-48671D01*
X259062Y-48272D01*
X260643Y-47617D01*
X262102Y-46723D01*
X263403Y-45612D01*
X264514Y-44311D01*
X265408Y-42852D01*
X266063Y-41271D01*
X266462Y-39607D01*
X266597Y-37902D01*
X266462Y-36196D01*
X266063Y-34532D01*
X265408Y-32951D01*
X264514Y-31492D01*
X263403Y-30191D01*
X262224Y-29185D01*
Y-15193D01*
X262099Y-13919D01*
X261727Y-12693D01*
X261124Y-11564D01*
X260311Y-10575D01*
X253118Y-3382D01*
X252129Y-2569D01*
X252044Y-2524D01*
X252166Y-2039D01*
X385827D01*
X385885Y-2028D01*
X386968Y-2134D01*
D02*
G37*
%LPC*%
G36*
X211850Y-320402D02*
X210676Y-320557D01*
X209581Y-321010D01*
X208641Y-321731D01*
X207920Y-322672D01*
X207466Y-323766D01*
X207312Y-324941D01*
X207466Y-326116D01*
X207920Y-327210D01*
X208641Y-328150D01*
X209581Y-328872D01*
X210676Y-329325D01*
X211850Y-329480D01*
X213025Y-329325D01*
X214120Y-328872D01*
X215060Y-328150D01*
X215781Y-327210D01*
X216235Y-326116D01*
X216389Y-324941D01*
X216235Y-323766D01*
X215781Y-322672D01*
X215060Y-321731D01*
X214120Y-321010D01*
X213025Y-320557D01*
X211850Y-320402D01*
D02*
G37*
G36*
X221850D02*
X220676Y-320557D01*
X219581Y-321010D01*
X218641Y-321731D01*
X217920Y-322672D01*
X217466Y-323766D01*
X217312Y-324941D01*
X217466Y-326116D01*
X217920Y-327210D01*
X218641Y-328150D01*
X219581Y-328872D01*
X220676Y-329325D01*
X221850Y-329480D01*
X223025Y-329325D01*
X224120Y-328872D01*
X225060Y-328150D01*
X225781Y-327210D01*
X226235Y-326116D01*
X226389Y-324941D01*
X226235Y-323766D01*
X225781Y-322672D01*
X225060Y-321731D01*
X224120Y-321010D01*
X223025Y-320557D01*
X221850Y-320402D01*
D02*
G37*
G36*
X241850D02*
X240676Y-320557D01*
X239581Y-321010D01*
X238641Y-321731D01*
X237920Y-322672D01*
X237466Y-323766D01*
X237312Y-324941D01*
X237466Y-326116D01*
X237920Y-327210D01*
X238641Y-328150D01*
X239581Y-328872D01*
X240676Y-329325D01*
X241850Y-329480D01*
X243025Y-329325D01*
X244120Y-328872D01*
X245060Y-328150D01*
X245781Y-327210D01*
X246235Y-326116D01*
X246389Y-324941D01*
X246235Y-323766D01*
X245781Y-322672D01*
X245060Y-321731D01*
X244120Y-321010D01*
X243025Y-320557D01*
X241850Y-320402D01*
D02*
G37*
G36*
X231850D02*
X230676Y-320557D01*
X229581Y-321010D01*
X228641Y-321731D01*
X227920Y-322672D01*
X227466Y-323766D01*
X227312Y-324941D01*
X227466Y-326116D01*
X227920Y-327210D01*
X228641Y-328150D01*
X229581Y-328872D01*
X230676Y-329325D01*
X231850Y-329480D01*
X233025Y-329325D01*
X234120Y-328872D01*
X235060Y-328150D01*
X235781Y-327210D01*
X236235Y-326116D01*
X236389Y-324941D01*
X236235Y-323766D01*
X235781Y-322672D01*
X235060Y-321731D01*
X234120Y-321010D01*
X233025Y-320557D01*
X231850Y-320402D01*
D02*
G37*
G36*
X181850D02*
X180676Y-320557D01*
X179581Y-321010D01*
X178641Y-321731D01*
X177920Y-322672D01*
X177466Y-323766D01*
X177312Y-324941D01*
X177466Y-326116D01*
X177920Y-327210D01*
X178641Y-328150D01*
X179581Y-328872D01*
X180676Y-329325D01*
X181850Y-329480D01*
X183025Y-329325D01*
X184120Y-328872D01*
X185060Y-328150D01*
X185781Y-327210D01*
X186235Y-326116D01*
X186389Y-324941D01*
X186235Y-323766D01*
X185781Y-322672D01*
X185060Y-321731D01*
X184120Y-321010D01*
X183025Y-320557D01*
X181850Y-320402D01*
D02*
G37*
G36*
X161850D02*
X160676Y-320557D01*
X159581Y-321010D01*
X158641Y-321731D01*
X157920Y-322672D01*
X157466Y-323766D01*
X157312Y-324941D01*
X157466Y-326116D01*
X157920Y-327210D01*
X158641Y-328150D01*
X159581Y-328872D01*
X160676Y-329325D01*
X161850Y-329480D01*
X163025Y-329325D01*
X164120Y-328872D01*
X165060Y-328150D01*
X165781Y-327210D01*
X166235Y-326116D01*
X166389Y-324941D01*
X166235Y-323766D01*
X165781Y-322672D01*
X165060Y-321731D01*
X164120Y-321010D01*
X163025Y-320557D01*
X161850Y-320402D01*
D02*
G37*
G36*
X201850D02*
X200676Y-320557D01*
X199581Y-321010D01*
X198641Y-321731D01*
X197920Y-322672D01*
X197466Y-323766D01*
X197312Y-324941D01*
X197466Y-326116D01*
X197920Y-327210D01*
X198641Y-328150D01*
X199581Y-328872D01*
X200676Y-329325D01*
X201850Y-329480D01*
X203025Y-329325D01*
X204120Y-328872D01*
X205060Y-328150D01*
X205781Y-327210D01*
X206235Y-326116D01*
X206389Y-324941D01*
X206235Y-323766D01*
X205781Y-322672D01*
X205060Y-321731D01*
X204120Y-321010D01*
X203025Y-320557D01*
X201850Y-320402D01*
D02*
G37*
G36*
X191850D02*
X190676Y-320557D01*
X189581Y-321010D01*
X188641Y-321731D01*
X187920Y-322672D01*
X187466Y-323766D01*
X187312Y-324941D01*
X187466Y-326116D01*
X187920Y-327210D01*
X188641Y-328150D01*
X189581Y-328872D01*
X190676Y-329325D01*
X191850Y-329480D01*
X193025Y-329325D01*
X194120Y-328872D01*
X195060Y-328150D01*
X195781Y-327210D01*
X196235Y-326116D01*
X196389Y-324941D01*
X196235Y-323766D01*
X195781Y-322672D01*
X195060Y-321731D01*
X194120Y-321010D01*
X193025Y-320557D01*
X191850Y-320402D01*
D02*
G37*
G36*
X251850D02*
X250676Y-320557D01*
X249581Y-321010D01*
X248641Y-321731D01*
X247920Y-322672D01*
X247466Y-323766D01*
X247312Y-324941D01*
X247466Y-326116D01*
X247920Y-327210D01*
X248641Y-328150D01*
X249581Y-328872D01*
X250676Y-329325D01*
X251850Y-329480D01*
X253025Y-329325D01*
X254120Y-328872D01*
X255060Y-328150D01*
X255781Y-327210D01*
X256235Y-326116D01*
X256389Y-324941D01*
X256235Y-323766D01*
X255781Y-322672D01*
X255060Y-321731D01*
X254120Y-321010D01*
X253025Y-320557D01*
X251850Y-320402D01*
D02*
G37*
G36*
X10000Y-246099D02*
X8838Y-246252D01*
X7754Y-246701D01*
X6824Y-247415D01*
X6111Y-248345D01*
X5662Y-249428D01*
X5509Y-250590D01*
X5662Y-251753D01*
X6111Y-252836D01*
X6824Y-253766D01*
X7754Y-254480D01*
X8838Y-254929D01*
X10000Y-255082D01*
X11162Y-254929D01*
X12246Y-254480D01*
X13176Y-253766D01*
X13890Y-252836D01*
X14338Y-251753D01*
X14491Y-250590D01*
X14338Y-249428D01*
X13890Y-248345D01*
X13176Y-247415D01*
X12246Y-246701D01*
X11162Y-246252D01*
X10000Y-246099D01*
D02*
G37*
G36*
X211953Y-27443D02*
X210693Y-27608D01*
X209519Y-28095D01*
X208510Y-28868D01*
X207737Y-29877D01*
X207250Y-31051D01*
X207084Y-32311D01*
X207250Y-33571D01*
X207737Y-34745D01*
X208510Y-35754D01*
X209519Y-36527D01*
X210693Y-37014D01*
X211953Y-37179D01*
X213213Y-37014D01*
X214387Y-36527D01*
X215395Y-35754D01*
X216169Y-34745D01*
X216655Y-33571D01*
X216821Y-32311D01*
X216655Y-31051D01*
X216169Y-29877D01*
X215395Y-28868D01*
X214387Y-28095D01*
X213213Y-27608D01*
X211953Y-27443D01*
D02*
G37*
G36*
X201047D02*
X199787Y-27608D01*
X198613Y-28095D01*
X197605Y-28868D01*
X196831Y-29877D01*
X196345Y-31051D01*
X196179Y-32311D01*
X196345Y-33571D01*
X196831Y-34745D01*
X197605Y-35754D01*
X198613Y-36527D01*
X199787Y-37014D01*
X201047Y-37179D01*
X202307Y-37014D01*
X203481Y-36527D01*
X204490Y-35754D01*
X205263Y-34745D01*
X205750Y-33571D01*
X205916Y-32311D01*
X205750Y-31051D01*
X205263Y-29877D01*
X204490Y-28868D01*
X203481Y-28095D01*
X202307Y-27608D01*
X201047Y-27443D01*
D02*
G37*
G36*
X14453Y-226138D02*
X5547D01*
Y-235043D01*
X11569D01*
X13558Y-237033D01*
X14220Y-237474D01*
X15000Y-237630D01*
X16094D01*
X16315Y-238078D01*
X16111Y-238345D01*
X15662Y-239428D01*
X15509Y-240591D01*
X15662Y-241753D01*
X16111Y-242836D01*
X16824Y-243766D01*
X17754Y-244480D01*
X18838Y-244929D01*
X20000Y-245082D01*
X21162Y-244929D01*
X22246Y-244480D01*
X23176Y-243766D01*
X23889Y-242836D01*
X24338Y-241753D01*
X24491Y-240591D01*
X24338Y-239428D01*
X23889Y-238345D01*
X23685Y-238078D01*
X23798Y-237848D01*
X24292Y-237766D01*
X31558Y-245033D01*
X32220Y-245475D01*
X32500Y-245530D01*
Y-246841D01*
Y-247551D01*
X31000D01*
X30220Y-247707D01*
X29558Y-248149D01*
X24292Y-253415D01*
X23798Y-253333D01*
X23685Y-253103D01*
X23889Y-252836D01*
X24338Y-251753D01*
X24491Y-250590D01*
X24338Y-249428D01*
X23889Y-248345D01*
X23176Y-247415D01*
X22246Y-246701D01*
X21162Y-246252D01*
X20000Y-246099D01*
X18838Y-246252D01*
X17754Y-246701D01*
X16824Y-247415D01*
X16111Y-248345D01*
X15662Y-249428D01*
X15509Y-250590D01*
X15662Y-251753D01*
X16111Y-252836D01*
X16315Y-253103D01*
X16094Y-253551D01*
X15000D01*
X14220Y-253707D01*
X13558Y-254149D01*
X11369Y-256338D01*
X11162Y-256252D01*
X10000Y-256099D01*
X8838Y-256252D01*
X7754Y-256701D01*
X6824Y-257415D01*
X6111Y-258345D01*
X5662Y-259428D01*
X5509Y-260591D01*
X5662Y-261753D01*
X6111Y-262836D01*
X6824Y-263766D01*
X7754Y-264480D01*
X8838Y-264929D01*
X10000Y-265082D01*
X11162Y-264929D01*
X12246Y-264480D01*
X13176Y-263766D01*
X13890Y-262836D01*
X14338Y-261753D01*
X14491Y-260591D01*
X14338Y-259428D01*
X14253Y-259222D01*
X15708Y-257766D01*
X16202Y-257848D01*
X16315Y-258078D01*
X16111Y-258345D01*
X15662Y-259428D01*
X15509Y-260591D01*
X15662Y-261753D01*
X16111Y-262836D01*
X16315Y-263103D01*
X16094Y-263551D01*
X15000D01*
X14220Y-263707D01*
X13558Y-264149D01*
X11369Y-266338D01*
X11162Y-266252D01*
X10000Y-266099D01*
X8838Y-266252D01*
X7754Y-266701D01*
X6824Y-267415D01*
X6111Y-268345D01*
X5662Y-269428D01*
X5509Y-270590D01*
X5662Y-271753D01*
X6111Y-272836D01*
X6824Y-273766D01*
X7754Y-274480D01*
X8838Y-274929D01*
X10000Y-275082D01*
X11162Y-274929D01*
X12246Y-274480D01*
X13176Y-273766D01*
X13890Y-272836D01*
X14338Y-271753D01*
X14491Y-270590D01*
X14338Y-269428D01*
X14253Y-269222D01*
X15708Y-267766D01*
X16202Y-267848D01*
X16315Y-268078D01*
X16111Y-268345D01*
X15662Y-269428D01*
X15509Y-270590D01*
X15662Y-271753D01*
X16111Y-272836D01*
X16315Y-273103D01*
X16094Y-273551D01*
X15000D01*
X14220Y-273707D01*
X13558Y-274149D01*
X11369Y-276338D01*
X11162Y-276252D01*
X10000Y-276099D01*
X8838Y-276252D01*
X7754Y-276701D01*
X6824Y-277415D01*
X6111Y-278345D01*
X5662Y-279428D01*
X5509Y-280591D01*
X5662Y-281753D01*
X6111Y-282836D01*
X6824Y-283766D01*
X7754Y-284480D01*
X8838Y-284929D01*
X10000Y-285082D01*
X11162Y-284929D01*
X12246Y-284480D01*
X13176Y-283766D01*
X13890Y-282836D01*
X14338Y-281753D01*
X14491Y-280591D01*
X14338Y-279428D01*
X14253Y-279222D01*
X15708Y-277766D01*
X16202Y-277848D01*
X16315Y-278078D01*
X16111Y-278345D01*
X15662Y-279428D01*
X15509Y-280591D01*
X15662Y-281753D01*
X16111Y-282836D01*
X16315Y-283103D01*
X16094Y-283551D01*
X15000D01*
X14220Y-283707D01*
X13558Y-284149D01*
X11369Y-286338D01*
X11162Y-286252D01*
X10000Y-286099D01*
X8838Y-286252D01*
X7754Y-286701D01*
X6824Y-287415D01*
X6111Y-288345D01*
X5662Y-289428D01*
X5509Y-290591D01*
X5662Y-291753D01*
X6111Y-292836D01*
X6824Y-293766D01*
X7754Y-294480D01*
X8838Y-294929D01*
X10000Y-295082D01*
X11162Y-294929D01*
X12246Y-294480D01*
X13176Y-293766D01*
X13890Y-292836D01*
X14338Y-291753D01*
X14491Y-290591D01*
X14338Y-289428D01*
X14253Y-289222D01*
X15708Y-287766D01*
X16202Y-287848D01*
X16315Y-288078D01*
X16111Y-288345D01*
X15662Y-289428D01*
X15509Y-290591D01*
X15662Y-291753D01*
X16111Y-292836D01*
X16315Y-293103D01*
X16094Y-293551D01*
X15000D01*
X14220Y-293707D01*
X13558Y-294149D01*
X11369Y-296338D01*
X11162Y-296252D01*
X10000Y-296099D01*
X8838Y-296252D01*
X7754Y-296701D01*
X6824Y-297415D01*
X6111Y-298345D01*
X5662Y-299428D01*
X5509Y-300590D01*
X5662Y-301753D01*
X6111Y-302836D01*
X6824Y-303766D01*
X7754Y-304480D01*
X8838Y-304929D01*
X10000Y-305082D01*
X11162Y-304929D01*
X12246Y-304480D01*
X13176Y-303766D01*
X13890Y-302836D01*
X14338Y-301753D01*
X14491Y-300590D01*
X14338Y-299428D01*
X14253Y-299222D01*
X15708Y-297766D01*
X16202Y-297848D01*
X16315Y-298078D01*
X16111Y-298345D01*
X15662Y-299428D01*
X15509Y-300590D01*
X15662Y-301753D01*
X16111Y-302836D01*
X16315Y-303103D01*
X16094Y-303551D01*
X15000D01*
X14220Y-303707D01*
X13558Y-304149D01*
X11369Y-306338D01*
X11162Y-306252D01*
X10000Y-306099D01*
X8838Y-306252D01*
X7754Y-306701D01*
X6824Y-307415D01*
X6111Y-308345D01*
X5662Y-309428D01*
X5509Y-310591D01*
X5662Y-311753D01*
X6111Y-312836D01*
X6824Y-313766D01*
X7754Y-314480D01*
X8838Y-314929D01*
X10000Y-315082D01*
X11162Y-314929D01*
X12246Y-314480D01*
X13176Y-313766D01*
X13890Y-312836D01*
X14338Y-311753D01*
X14491Y-310591D01*
X14338Y-309428D01*
X14253Y-309222D01*
X15708Y-307766D01*
X16202Y-307848D01*
X16315Y-308078D01*
X16111Y-308345D01*
X15662Y-309428D01*
X15509Y-310591D01*
X15662Y-311753D01*
X16111Y-312836D01*
X16824Y-313766D01*
X17754Y-314480D01*
X18838Y-314929D01*
X20000Y-315082D01*
X21162Y-314929D01*
X22246Y-314480D01*
X23176Y-313766D01*
X23864Y-312870D01*
X23956Y-312864D01*
X24696Y-313170D01*
X28558Y-317033D01*
X29220Y-317475D01*
X30000Y-317630D01*
X32500D01*
Y-318841D01*
Y-319551D01*
X26845D01*
X26442Y-319149D01*
X25780Y-318707D01*
X25000Y-318551D01*
X23975D01*
X23889Y-318345D01*
X23176Y-317415D01*
X22246Y-316701D01*
X21162Y-316252D01*
X20000Y-316099D01*
X18838Y-316252D01*
X17754Y-316701D01*
X16824Y-317415D01*
X16111Y-318345D01*
X15662Y-319428D01*
X15509Y-320590D01*
X15662Y-321753D01*
X16111Y-322836D01*
X16824Y-323766D01*
X17754Y-324480D01*
X18838Y-324929D01*
X20000Y-325082D01*
X21162Y-324929D01*
X22246Y-324480D01*
X23176Y-323766D01*
X23864Y-322870D01*
X24363Y-322837D01*
X24558Y-323032D01*
X25220Y-323475D01*
X26000Y-323630D01*
X32500D01*
Y-324840D01*
X38500D01*
Y-318841D01*
Y-312841D01*
Y-306840D01*
Y-300840D01*
Y-294841D01*
Y-288841D01*
Y-282840D01*
Y-276840D01*
Y-270841D01*
Y-264841D01*
Y-258840D01*
Y-252840D01*
Y-246841D01*
Y-240340D01*
X32634D01*
X26442Y-234149D01*
X25780Y-233707D01*
X25000Y-233551D01*
X15845D01*
X14453Y-232159D01*
Y-226138D01*
D02*
G37*
G36*
X222858Y-27443D02*
X221598Y-27608D01*
X220424Y-28095D01*
X219416Y-28868D01*
X218642Y-29877D01*
X218156Y-31051D01*
X217990Y-32311D01*
X218156Y-33571D01*
X218642Y-34745D01*
X219416Y-35754D01*
X220424Y-36527D01*
X221598Y-37014D01*
X222858Y-37179D01*
X224118Y-37014D01*
X225292Y-36527D01*
X226301Y-35754D01*
X227074Y-34745D01*
X227561Y-33571D01*
X227727Y-32311D01*
X227561Y-31051D01*
X227074Y-29877D01*
X226301Y-28868D01*
X225292Y-28095D01*
X224118Y-27608D01*
X222858Y-27443D01*
D02*
G37*
G36*
X102500Y-12246D02*
X101280Y-12366D01*
X100107Y-12722D01*
X99025Y-13299D01*
X98077Y-14077D01*
X97299Y-15025D01*
X96722Y-16106D01*
X96366Y-17280D01*
X96245Y-18500D01*
X96366Y-19720D01*
X96722Y-20893D01*
X97299Y-21975D01*
X98077Y-22923D01*
X99025Y-23700D01*
X100107Y-24278D01*
X101280Y-24634D01*
X102500Y-24755D01*
X103720Y-24634D01*
X104894Y-24278D01*
X105975Y-23700D01*
X106923Y-22923D01*
X107701Y-21975D01*
X108278Y-20893D01*
X108634Y-19720D01*
X108755Y-18500D01*
X108634Y-17280D01*
X108278Y-16106D01*
X107701Y-15025D01*
X106923Y-14077D01*
X105975Y-13299D01*
X104894Y-12722D01*
X103720Y-12366D01*
X102500Y-12246D01*
D02*
G37*
G36*
X376142Y-316099D02*
X374979Y-316252D01*
X373896Y-316701D01*
X372966Y-317415D01*
X372252Y-318345D01*
X371804Y-319428D01*
X371651Y-320590D01*
X371804Y-321753D01*
X372252Y-322836D01*
X372966Y-323766D01*
X373896Y-324480D01*
X374979Y-324929D01*
X376142Y-325082D01*
X377304Y-324929D01*
X378387Y-324480D01*
X379317Y-323766D01*
X380031Y-322836D01*
X380480Y-321753D01*
X380633Y-320590D01*
X380480Y-319428D01*
X380031Y-318345D01*
X379317Y-317415D01*
X378387Y-316701D01*
X377304Y-316252D01*
X376142Y-316099D01*
D02*
G37*
G36*
X373701Y-12257D02*
X372190Y-12406D01*
X370738Y-12847D01*
X369399Y-13562D01*
X368226Y-14525D01*
X367263Y-15698D01*
X366547Y-17037D01*
X366107Y-18489D01*
X365958Y-20000D01*
X366107Y-21510D01*
X366547Y-22963D01*
X367263Y-24302D01*
X368226Y-25475D01*
X369399Y-26438D01*
X370738Y-27153D01*
X372190Y-27594D01*
X373701Y-27743D01*
X375211Y-27594D01*
X376664Y-27153D01*
X378002Y-26438D01*
X379176Y-25475D01*
X380139Y-24302D01*
X380854Y-22963D01*
X381295Y-21510D01*
X381444Y-20000D01*
X381295Y-18489D01*
X380854Y-17037D01*
X380139Y-15698D01*
X379176Y-14525D01*
X378002Y-13562D01*
X376664Y-12847D01*
X375211Y-12406D01*
X373701Y-12257D01*
D02*
G37*
G36*
X72500Y-299951D02*
X71525Y-300145D01*
X70698Y-300698D01*
X70145Y-301524D01*
X69959Y-302459D01*
X69024Y-302645D01*
X68198Y-303198D01*
X67645Y-304025D01*
X67459Y-304959D01*
X66524Y-305145D01*
X65698Y-305698D01*
X65145Y-306524D01*
X64959Y-307459D01*
X64025Y-307645D01*
X63198Y-308198D01*
X62750Y-308868D01*
X62250D01*
X61802Y-308198D01*
X60975Y-307645D01*
X60000Y-307451D01*
X59025Y-307645D01*
X58198Y-308198D01*
X57645Y-309025D01*
X57459Y-309959D01*
X56524Y-310145D01*
X55698Y-310698D01*
X55145Y-311525D01*
X54959Y-312459D01*
X54024Y-312645D01*
X53198Y-313198D01*
X52645Y-314024D01*
X52459Y-314959D01*
X51525Y-315145D01*
X50698Y-315698D01*
X50145Y-316525D01*
X49959Y-317459D01*
X49025Y-317645D01*
X48198Y-318198D01*
X47645Y-319024D01*
X47451Y-320000D01*
X47645Y-320975D01*
X47961Y-321448D01*
Y-342500D01*
X47961Y-342500D01*
X47961D01*
X48116Y-343280D01*
X48558Y-343942D01*
X68558Y-363942D01*
X68558Y-363942D01*
X68558D01*
X68558Y-363942D01*
X68558D01*
X68558Y-363942D01*
Y-363942D01*
Y-363942D01*
D01*
D01*
X68558D01*
Y-363942D01*
X69220Y-364384D01*
X70000Y-364539D01*
X183052D01*
X183525Y-364855D01*
X184500Y-365049D01*
X185476Y-364855D01*
X186302Y-364302D01*
X186855Y-363475D01*
X187049Y-362500D01*
X186855Y-361525D01*
X186302Y-360698D01*
X185476Y-360145D01*
X184500Y-359951D01*
X183525Y-360145D01*
X183052Y-360461D01*
X179851D01*
X179534Y-360074D01*
X179549Y-360000D01*
X179355Y-359025D01*
X178802Y-358198D01*
X177975Y-357645D01*
X177000Y-357451D01*
X176024Y-357645D01*
X175552Y-357961D01*
X174980D01*
X174931Y-357463D01*
X175476Y-357355D01*
X176302Y-356802D01*
X176855Y-355976D01*
X177049Y-355000D01*
X177034Y-354926D01*
X177351Y-354539D01*
X196155D01*
X201034Y-359418D01*
X201145Y-359976D01*
X201698Y-360802D01*
X202524Y-361355D01*
X203500Y-361549D01*
X204475Y-361355D01*
X205302Y-360802D01*
X205855Y-359976D01*
X206049Y-359000D01*
X205855Y-358025D01*
X205302Y-357198D01*
X204475Y-356645D01*
X203918Y-356534D01*
X198442Y-351058D01*
X197780Y-350616D01*
X197000Y-350461D01*
X172480D01*
X172431Y-349963D01*
X172976Y-349855D01*
X173802Y-349302D01*
X174355Y-348476D01*
X174549Y-347500D01*
X174355Y-346525D01*
X173802Y-345698D01*
X172976Y-345145D01*
X172000Y-344951D01*
X171025Y-345145D01*
X170552Y-345461D01*
X169980D01*
X169931Y-344963D01*
X170475Y-344855D01*
X171302Y-344302D01*
X171855Y-343476D01*
X172049Y-342500D01*
X171855Y-341525D01*
X171302Y-340698D01*
X170475Y-340145D01*
X169500Y-339951D01*
X168525Y-340145D01*
X168052Y-340461D01*
X75345D01*
X74539Y-339655D01*
Y-303948D01*
X74855Y-303475D01*
X75049Y-302500D01*
X74855Y-301524D01*
X74302Y-300698D01*
X73475Y-300145D01*
X72500Y-299951D01*
D02*
G37*
G36*
X151850Y-320402D02*
X150676Y-320557D01*
X149581Y-321010D01*
X148641Y-321731D01*
X147920Y-322672D01*
X147466Y-323766D01*
X147312Y-324941D01*
X147466Y-326116D01*
X147920Y-327210D01*
X148641Y-328150D01*
X149581Y-328872D01*
X150676Y-329325D01*
X151850Y-329480D01*
X153025Y-329325D01*
X154120Y-328872D01*
X155060Y-328150D01*
X155781Y-327210D01*
X156235Y-326116D01*
X156389Y-324941D01*
X156235Y-323766D01*
X155781Y-322672D01*
X155060Y-321731D01*
X154120Y-321010D01*
X153025Y-320557D01*
X151850Y-320402D01*
D02*
G37*
G36*
X10000Y-445509D02*
X8838Y-445662D01*
X7754Y-446110D01*
X6824Y-446824D01*
X6111Y-447754D01*
X5662Y-448838D01*
X5509Y-450000D01*
X5662Y-451162D01*
X6111Y-452246D01*
X6824Y-453176D01*
X7754Y-453890D01*
X8838Y-454338D01*
X10000Y-454491D01*
X11162Y-454338D01*
X12246Y-453890D01*
X13176Y-453176D01*
X13890Y-452246D01*
X14338Y-451162D01*
X14491Y-450000D01*
X14338Y-448838D01*
X13890Y-447754D01*
X13176Y-446824D01*
X12246Y-446110D01*
X11162Y-445662D01*
X10000Y-445509D01*
D02*
G37*
G36*
Y-455509D02*
X8838Y-455662D01*
X7754Y-456110D01*
X6824Y-456824D01*
X6111Y-457754D01*
X5662Y-458838D01*
X5509Y-460000D01*
X5662Y-461162D01*
X6111Y-462246D01*
X6824Y-463176D01*
X7754Y-463890D01*
X8838Y-464338D01*
X10000Y-464491D01*
X11162Y-464338D01*
X12246Y-463890D01*
X13176Y-463176D01*
X13890Y-462246D01*
X14338Y-461162D01*
X14491Y-460000D01*
X14338Y-458838D01*
X13890Y-457754D01*
X13176Y-456824D01*
X12246Y-456110D01*
X11162Y-455662D01*
X10000Y-455509D01*
D02*
G37*
G36*
X243500Y-428951D02*
X242525Y-429145D01*
X242052Y-429461D01*
X229448D01*
X228976Y-429145D01*
X228000Y-428951D01*
X227025Y-429145D01*
X226198Y-429698D01*
X225645Y-430524D01*
X225451Y-431500D01*
X225645Y-432476D01*
X226198Y-433302D01*
X227025Y-433855D01*
X228000Y-434049D01*
X228976Y-433855D01*
X229448Y-433539D01*
X242052D01*
X242525Y-433855D01*
X243500Y-434049D01*
X244476Y-433855D01*
X245302Y-433302D01*
X245855Y-432476D01*
X246049Y-431500D01*
X245855Y-430524D01*
X245302Y-429698D01*
X244476Y-429145D01*
X243500Y-428951D01*
D02*
G37*
G36*
X159201Y-432974D02*
X153201D01*
Y-439474D01*
X159201D01*
Y-438264D01*
X162753D01*
X163225Y-438579D01*
X164201Y-438773D01*
X165176Y-438579D01*
X166003Y-438027D01*
X166556Y-437200D01*
X166750Y-436224D01*
X166556Y-435249D01*
X166003Y-434422D01*
X165176Y-433870D01*
X164201Y-433675D01*
X163225Y-433870D01*
X162753Y-434185D01*
X159201D01*
Y-432974D01*
D02*
G37*
G36*
X300000Y-477451D02*
X299025Y-477645D01*
X298198Y-478198D01*
X297645Y-479025D01*
X297624Y-479132D01*
X294050Y-482706D01*
X223500D01*
X222622Y-482881D01*
X221878Y-483378D01*
X208550Y-496706D01*
X122000D01*
X121122Y-496881D01*
X120378Y-497378D01*
X120132Y-497624D01*
X120025Y-497645D01*
X119198Y-498198D01*
X118645Y-499024D01*
X118451Y-500000D01*
X118645Y-500976D01*
X119198Y-501802D01*
X120025Y-502355D01*
X121000Y-502549D01*
X121976Y-502355D01*
X122802Y-501802D01*
X123142Y-501294D01*
X209500D01*
X210378Y-501119D01*
X211122Y-500622D01*
X211122Y-500622D01*
X211122Y-500622D01*
X224450Y-487294D01*
X295000D01*
X295878Y-487119D01*
X296622Y-486622D01*
X296622Y-486622D01*
X296622Y-486622D01*
X300868Y-482376D01*
X300975Y-482355D01*
X301802Y-481802D01*
X302355Y-480975D01*
X302549Y-480000D01*
X302355Y-479025D01*
X301802Y-478198D01*
X300975Y-477645D01*
X300000Y-477451D01*
D02*
G37*
G36*
X373701Y-523438D02*
X372190Y-523587D01*
X370738Y-524028D01*
X369399Y-524743D01*
X368226Y-525706D01*
X367263Y-526879D01*
X366547Y-528218D01*
X366107Y-529671D01*
X365958Y-531181D01*
X366107Y-532692D01*
X366547Y-534144D01*
X367263Y-535483D01*
X368226Y-536656D01*
X369399Y-537619D01*
X370738Y-538335D01*
X372190Y-538775D01*
X373701Y-538924D01*
X375211Y-538775D01*
X376664Y-538335D01*
X378002Y-537619D01*
X379176Y-536656D01*
X380139Y-535483D01*
X380854Y-534144D01*
X381295Y-532692D01*
X381444Y-531181D01*
X381295Y-529671D01*
X380854Y-528218D01*
X380139Y-526879D01*
X379176Y-525706D01*
X378002Y-524743D01*
X376664Y-524028D01*
X375211Y-523587D01*
X373701Y-523438D01*
D02*
G37*
G36*
X20000Y-523438D02*
X18489Y-523587D01*
X17037Y-524028D01*
X15698Y-524743D01*
X14525Y-525706D01*
X13562Y-526879D01*
X12847Y-528218D01*
X12406Y-529671D01*
X12257Y-531181D01*
X12406Y-532692D01*
X12847Y-534144D01*
X13562Y-535483D01*
X14525Y-536656D01*
X15698Y-537619D01*
X17037Y-538335D01*
X18489Y-538775D01*
X20000Y-538924D01*
X21510Y-538775D01*
X22963Y-538335D01*
X24302Y-537619D01*
X25475Y-536656D01*
X26438Y-535483D01*
X27153Y-534144D01*
X27594Y-532692D01*
X27743Y-531181D01*
X27594Y-529671D01*
X27153Y-528218D01*
X26438Y-526879D01*
X25475Y-525706D01*
X24302Y-524743D01*
X22963Y-524028D01*
X21510Y-523587D01*
X20000Y-523438D01*
D02*
G37*
G36*
X205000Y-487451D02*
X204025Y-487645D01*
X203552Y-487961D01*
X193948D01*
X193475Y-487645D01*
X192500Y-487451D01*
X191525Y-487645D01*
X190698Y-488198D01*
X190145Y-489024D01*
X189951Y-490000D01*
X190145Y-490976D01*
X190698Y-491802D01*
X191525Y-492355D01*
X192500Y-492549D01*
X193475Y-492355D01*
X193948Y-492039D01*
X203552D01*
X204025Y-492355D01*
X205000Y-492549D01*
X205976Y-492355D01*
X206802Y-491802D01*
X207355Y-490976D01*
X207549Y-490000D01*
X207355Y-489024D01*
X206802Y-488198D01*
X205976Y-487645D01*
X205000Y-487451D01*
D02*
G37*
G36*
X137500Y-504951D02*
X136524Y-505145D01*
X136052Y-505461D01*
X111448D01*
X110976Y-505145D01*
X110000Y-504951D01*
X109025Y-505145D01*
X108198Y-505698D01*
X107645Y-506525D01*
X107451Y-507500D01*
X107645Y-508475D01*
X108198Y-509302D01*
X109025Y-509855D01*
X110000Y-510049D01*
X110976Y-509855D01*
X111448Y-509539D01*
X136052D01*
X136524Y-509855D01*
X137500Y-510049D01*
X138476Y-509855D01*
X139302Y-509302D01*
X139855Y-508475D01*
X140049Y-507500D01*
X139855Y-506525D01*
X139302Y-505698D01*
X138476Y-505145D01*
X137500Y-504951D01*
D02*
G37*
G36*
X333000Y-340509D02*
X331838Y-340662D01*
X330754Y-341110D01*
X329824Y-341824D01*
X329111Y-342754D01*
X328662Y-343838D01*
X328509Y-345000D01*
X328662Y-346162D01*
X329111Y-347246D01*
X329824Y-348176D01*
X330754Y-348889D01*
X331838Y-349338D01*
X333000Y-349491D01*
X334162Y-349338D01*
X335246Y-348889D01*
X336176Y-348176D01*
X336890Y-347246D01*
X337338Y-346162D01*
X337491Y-345000D01*
X337338Y-343838D01*
X336890Y-342754D01*
X336176Y-341824D01*
X335246Y-341110D01*
X334162Y-340662D01*
X333000Y-340509D01*
D02*
G37*
G36*
X137500Y-367961D02*
X136325Y-368116D01*
X135231Y-368569D01*
X134291Y-369291D01*
X133569Y-370231D01*
X133116Y-371325D01*
X132961Y-372500D01*
X133116Y-373675D01*
X133569Y-374769D01*
X134291Y-375709D01*
X135231Y-376431D01*
X136325Y-376884D01*
X137500Y-377039D01*
X138675Y-376884D01*
X139769Y-376431D01*
X140709Y-375709D01*
X141431Y-374769D01*
X141884Y-373675D01*
X142039Y-372500D01*
X141884Y-371325D01*
X141431Y-370231D01*
X140709Y-369291D01*
X139769Y-368569D01*
X138675Y-368116D01*
X137500Y-367961D01*
D02*
G37*
G36*
X141850Y-320402D02*
X140676Y-320557D01*
X139581Y-321010D01*
X138641Y-321731D01*
X137920Y-322672D01*
X137466Y-323766D01*
X137312Y-324941D01*
X137466Y-326116D01*
X137920Y-327210D01*
X138641Y-328150D01*
X139581Y-328872D01*
X140676Y-329325D01*
X141850Y-329480D01*
X143025Y-329325D01*
X144120Y-328872D01*
X145060Y-328150D01*
X145781Y-327210D01*
X146235Y-326116D01*
X146389Y-324941D01*
X146235Y-323766D01*
X145781Y-322672D01*
X145060Y-321731D01*
X144120Y-321010D01*
X143025Y-320557D01*
X141850Y-320402D01*
D02*
G37*
G36*
X171850D02*
X170676Y-320557D01*
X169581Y-321010D01*
X168641Y-321731D01*
X167920Y-322672D01*
X167466Y-323766D01*
X167312Y-324941D01*
X167466Y-326116D01*
X167920Y-327210D01*
X168641Y-328150D01*
X169581Y-328872D01*
X169811Y-328967D01*
Y-335350D01*
X169966Y-336131D01*
X170408Y-336792D01*
X179534Y-345918D01*
X179645Y-346476D01*
X180198Y-347302D01*
X181025Y-347855D01*
X182000Y-348049D01*
X182975Y-347855D01*
X183802Y-347302D01*
X184355Y-346476D01*
X184549Y-345500D01*
X184355Y-344525D01*
X183802Y-343698D01*
X182975Y-343145D01*
X182418Y-343034D01*
X173890Y-334506D01*
Y-328967D01*
X174120Y-328872D01*
X175060Y-328150D01*
X175781Y-327210D01*
X176235Y-326116D01*
X176389Y-324941D01*
X176235Y-323766D01*
X175781Y-322672D01*
X175060Y-321731D01*
X174120Y-321010D01*
X173025Y-320557D01*
X171850Y-320402D01*
D02*
G37*
G36*
X215000Y-360461D02*
X213825Y-360616D01*
X212731Y-361069D01*
X211791Y-361791D01*
X211069Y-362731D01*
X210974Y-362961D01*
X207500D01*
X206720Y-363116D01*
X206058Y-363558D01*
X202616Y-367000D01*
X194000D01*
Y-376000D01*
X203116D01*
X207154Y-380038D01*
X206963Y-380500D01*
X194000D01*
D01*
D01*
X194000Y-380500D01*
X193750D01*
Y-380500D01*
X185250D01*
Y-381000D01*
X182384D01*
X172442Y-371058D01*
X171780Y-370616D01*
X171000Y-370461D01*
X151526D01*
X151431Y-370231D01*
X150709Y-369291D01*
X149769Y-368569D01*
X148675Y-368116D01*
X147500Y-367961D01*
X146325Y-368116D01*
X145231Y-368569D01*
X144291Y-369291D01*
X143569Y-370231D01*
X143116Y-371325D01*
X142961Y-372500D01*
X143116Y-373675D01*
X143569Y-374769D01*
X144291Y-375709D01*
X145231Y-376431D01*
X146325Y-376884D01*
X147500Y-377039D01*
X148675Y-376884D01*
X149769Y-376431D01*
X150709Y-375709D01*
X151431Y-374769D01*
X151526Y-374539D01*
X170155D01*
X179250Y-383634D01*
Y-387000D01*
X180461D01*
Y-389024D01*
X180616Y-389804D01*
X181058Y-390465D01*
X182735Y-392142D01*
X182846Y-392700D01*
X183398Y-393527D01*
X184225Y-394079D01*
X185201Y-394273D01*
X186176Y-394079D01*
X187003Y-393527D01*
X187461Y-393666D01*
Y-394524D01*
X187461Y-394524D01*
X187461D01*
X187616Y-395304D01*
X188058Y-395966D01*
X197201Y-405108D01*
Y-410974D01*
X199662D01*
Y-416380D01*
X185356Y-430685D01*
X177545D01*
X176240Y-429380D01*
Y-418724D01*
X176085Y-417944D01*
X175643Y-417282D01*
X174201Y-415841D01*
Y-411474D01*
Y-402974D01*
X172740D01*
Y-396724D01*
X172585Y-395944D01*
X172143Y-395283D01*
X170167Y-393306D01*
X170056Y-392749D01*
X169503Y-391922D01*
X168676Y-391370D01*
X168119Y-391259D01*
X166643Y-389783D01*
X165981Y-389340D01*
X165201Y-389185D01*
X159201D01*
Y-387974D01*
X153201D01*
Y-393685D01*
X146569D01*
X142442Y-389558D01*
X142000Y-389263D01*
Y-387750D01*
X136000D01*
Y-394250D01*
Y-396720D01*
X135584Y-396998D01*
X135500Y-396963D01*
Y-393750D01*
X130634D01*
X130539Y-393655D01*
Y-388250D01*
X135000D01*
Y-379750D01*
X128039D01*
Y-376968D01*
X128675Y-376884D01*
X129769Y-376431D01*
X130709Y-375709D01*
X131431Y-374769D01*
X131884Y-373675D01*
X132039Y-372500D01*
X131884Y-371325D01*
X131431Y-370231D01*
X130709Y-369291D01*
X129769Y-368569D01*
X128675Y-368116D01*
X127500Y-367961D01*
X126325Y-368116D01*
X125231Y-368569D01*
X124291Y-369291D01*
X123569Y-370231D01*
X123116Y-371325D01*
X122961Y-372500D01*
X123116Y-373675D01*
X123569Y-374769D01*
X123961Y-375280D01*
Y-397500D01*
X123961Y-397500D01*
X123961D01*
X124116Y-398280D01*
X124558Y-398942D01*
X125461Y-399845D01*
Y-400500D01*
X123000D01*
Y-411463D01*
X122538Y-411654D01*
X114539Y-403655D01*
Y-393948D01*
X114855Y-393476D01*
X115049Y-392500D01*
X114855Y-391525D01*
X114302Y-390698D01*
X113476Y-390145D01*
X112541Y-389959D01*
X112355Y-389024D01*
X111802Y-388198D01*
X110976Y-387645D01*
X110000Y-387451D01*
X109025Y-387645D01*
X108198Y-388198D01*
X107750Y-388867D01*
X107250D01*
X106802Y-388198D01*
X105975Y-387645D01*
X105000Y-387451D01*
X104025Y-387645D01*
X103198Y-388198D01*
X102750Y-388867D01*
X102250D01*
X101802Y-388198D01*
X100976Y-387645D01*
X100000Y-387451D01*
X99024Y-387645D01*
X98198Y-388198D01*
X97750Y-388867D01*
X97250D01*
X96802Y-388198D01*
X95976Y-387645D01*
X95000Y-387451D01*
X94024Y-387645D01*
X93198Y-388198D01*
X92750Y-388867D01*
X92250D01*
X91802Y-388198D01*
X90975Y-387645D01*
X90000Y-387451D01*
X89025Y-387645D01*
X88198Y-388198D01*
X87750Y-388867D01*
X87250D01*
X86802Y-388198D01*
X85975Y-387645D01*
X85041Y-387459D01*
X84855Y-386525D01*
X84302Y-385698D01*
X83476Y-385145D01*
X82541Y-384959D01*
X82355Y-384025D01*
X81802Y-383198D01*
X80976Y-382645D01*
X80041Y-382459D01*
X79855Y-381524D01*
X79302Y-380698D01*
X78475Y-380145D01*
X77541Y-379959D01*
X77355Y-379025D01*
X76802Y-378198D01*
X75976Y-377645D01*
X75000Y-377451D01*
X74024Y-377645D01*
X73198Y-378198D01*
X72750Y-378868D01*
X72250D01*
X71802Y-378198D01*
X70976Y-377645D01*
X70041Y-377459D01*
X69855Y-376524D01*
X69302Y-375698D01*
X68476Y-375145D01*
X67541Y-374959D01*
X67355Y-374025D01*
X66802Y-373198D01*
X65975Y-372645D01*
X65041Y-372459D01*
X64855Y-371525D01*
X64302Y-370698D01*
X63476Y-370145D01*
X62541Y-369959D01*
X62355Y-369024D01*
X61802Y-368198D01*
X60975Y-367645D01*
X60041Y-367459D01*
X59855Y-366525D01*
X59302Y-365698D01*
X58476Y-365145D01*
X57541Y-364959D01*
X57355Y-364024D01*
X56802Y-363198D01*
X55976Y-362645D01*
X55000Y-362451D01*
X54024Y-362645D01*
X53198Y-363198D01*
X52750Y-363867D01*
X52250D01*
X51802Y-363198D01*
X50976Y-362645D01*
X50000Y-362451D01*
X49025Y-362645D01*
X48198Y-363198D01*
X47645Y-364024D01*
X47451Y-365000D01*
X47645Y-365975D01*
X47961Y-366448D01*
Y-431052D01*
X47645Y-431525D01*
X47451Y-432500D01*
X47645Y-433475D01*
X48198Y-434302D01*
X49025Y-434855D01*
X50000Y-435049D01*
X50976Y-434855D01*
X51802Y-434302D01*
X52355Y-433475D01*
X52541Y-432541D01*
X53475Y-432355D01*
X54302Y-431802D01*
X54855Y-430975D01*
X55049Y-430000D01*
X54855Y-429025D01*
X54539Y-428552D01*
Y-423704D01*
X55001Y-423512D01*
X97931Y-466442D01*
X98592Y-466884D01*
X99373Y-467039D01*
X121052D01*
X121525Y-467355D01*
X122500Y-467549D01*
X123476Y-467355D01*
X124302Y-466802D01*
X124855Y-465976D01*
X125049Y-465000D01*
X124855Y-464024D01*
X124302Y-463198D01*
X123476Y-462645D01*
X122931Y-462537D01*
X122980Y-462039D01*
X126000D01*
X126780Y-461884D01*
X127442Y-461442D01*
X127442Y-461442D01*
X127442Y-461442D01*
X130418Y-458466D01*
X130975Y-458355D01*
X131802Y-457802D01*
X132355Y-456976D01*
X132549Y-456000D01*
X132355Y-455024D01*
X131802Y-454198D01*
X130975Y-453645D01*
X130000Y-453451D01*
X129025Y-453645D01*
X128198Y-454198D01*
X127938Y-454587D01*
X127447Y-454489D01*
X127355Y-454025D01*
X126802Y-453198D01*
X125976Y-452645D01*
X125000Y-452451D01*
X124024Y-452645D01*
X123552Y-452961D01*
X122980D01*
X122931Y-452463D01*
X123476Y-452355D01*
X124302Y-451802D01*
X124855Y-450976D01*
X125049Y-450000D01*
X124855Y-449024D01*
X124302Y-448198D01*
X123633Y-447750D01*
Y-447250D01*
X124302Y-446802D01*
X124855Y-445975D01*
X125049Y-445000D01*
X124855Y-444025D01*
X124302Y-443198D01*
X123476Y-442645D01*
X122500Y-442451D01*
X121525Y-442645D01*
X121052Y-442961D01*
X117851D01*
X117534Y-442574D01*
X117549Y-442500D01*
X117355Y-441525D01*
X116802Y-440698D01*
X115975Y-440145D01*
X115000Y-439951D01*
X114024Y-440145D01*
X113552Y-440461D01*
X107980D01*
X107931Y-439963D01*
X108475Y-439855D01*
X109302Y-439302D01*
X109855Y-438476D01*
X110049Y-437500D01*
X109855Y-436524D01*
X109539Y-436052D01*
Y-430351D01*
X109926Y-430034D01*
X110000Y-430049D01*
X110976Y-429855D01*
X111802Y-429302D01*
X112355Y-428476D01*
X112549Y-427500D01*
X112355Y-426524D01*
X112039Y-426052D01*
Y-407576D01*
X112501Y-407385D01*
X119766Y-414650D01*
X119545Y-415099D01*
X118500Y-414961D01*
X117325Y-415116D01*
X116231Y-415569D01*
X115291Y-416291D01*
X114569Y-417231D01*
X114116Y-418325D01*
X113961Y-419500D01*
X114116Y-420675D01*
X114569Y-421769D01*
X115291Y-422709D01*
X116231Y-423431D01*
X117325Y-423884D01*
X118500Y-424039D01*
X119675Y-423884D01*
X120769Y-423431D01*
X121709Y-422709D01*
X122431Y-421769D01*
X122884Y-420675D01*
X123039Y-419500D01*
X122901Y-418455D01*
X123350Y-418233D01*
X124058Y-418942D01*
X124720Y-419384D01*
X125500Y-419539D01*
X125500Y-419539D01*
X126052D01*
X126524Y-419855D01*
X127500Y-420049D01*
X128475Y-419855D01*
X129302Y-419302D01*
X129855Y-418475D01*
X130049Y-417500D01*
X129855Y-416525D01*
X129302Y-415698D01*
X128475Y-415145D01*
X127734Y-414998D01*
X127750Y-414837D01*
X127750D01*
X127783Y-414500D01*
X131000D01*
Y-414750D01*
X131000D01*
Y-423250D01*
X138000D01*
Y-414750D01*
D01*
Y-414750D01*
X138250Y-414500D01*
X145500D01*
Y-405884D01*
X145620Y-405764D01*
X151856D01*
X153201Y-407108D01*
Y-410474D01*
Y-416474D01*
Y-422474D01*
Y-428474D01*
X159201D01*
Y-427264D01*
X159701D01*
X160481Y-427108D01*
X161143Y-426666D01*
X162619Y-425190D01*
X163176Y-425079D01*
X163649Y-424764D01*
X167201D01*
Y-427474D01*
X172162D01*
Y-430224D01*
X172162Y-430224D01*
X172162D01*
X172317Y-431005D01*
X172759Y-431666D01*
X175259Y-434166D01*
X175920Y-434608D01*
X176701Y-434764D01*
X179162D01*
Y-436276D01*
X178846Y-436749D01*
X178652Y-437724D01*
X178846Y-438700D01*
X179162Y-439172D01*
Y-439974D01*
X178201D01*
Y-446474D01*
X184201D01*
Y-439974D01*
X183240D01*
Y-439172D01*
X183556Y-438700D01*
X183750Y-437724D01*
X183556Y-436749D01*
X183240Y-436276D01*
Y-434764D01*
X186201D01*
X186981Y-434608D01*
X187643Y-434166D01*
X203143Y-418666D01*
X203585Y-418005D01*
X203740Y-417224D01*
Y-410974D01*
X204201D01*
Y-408764D01*
X204701D01*
X205481Y-408608D01*
X206143Y-408166D01*
X208619Y-405690D01*
X209176Y-405579D01*
X210003Y-405027D01*
X210179Y-404764D01*
X210701D01*
Y-405974D01*
X216701D01*
Y-399474D01*
X210701D01*
Y-400685D01*
X208701D01*
X208701Y-400685D01*
X208475Y-400730D01*
X208201Y-400675D01*
X207225Y-400870D01*
X206398Y-401422D01*
X205846Y-402249D01*
X205735Y-402806D01*
X204663Y-403879D01*
X204201Y-403687D01*
Y-402474D01*
X200335D01*
X191539Y-393679D01*
Y-387500D01*
X193750D01*
D01*
X193750D01*
X194000Y-387750D01*
Y-389500D01*
X201150D01*
X201386Y-389941D01*
X200846Y-390749D01*
X200652Y-391724D01*
X200846Y-392700D01*
X201398Y-393527D01*
X202225Y-394079D01*
X203201Y-394273D01*
X204176Y-394079D01*
X204649Y-393764D01*
X205776D01*
X206556Y-393608D01*
X207218Y-393166D01*
X212942Y-387442D01*
X213384Y-386780D01*
X213539Y-386000D01*
X213539Y-386000D01*
X213539Y-386000D01*
Y-386000D01*
Y-384500D01*
X220750D01*
Y-378500D01*
X211780D01*
X211502Y-378084D01*
X211537Y-378000D01*
X214750D01*
Y-373039D01*
X220155D01*
X220250Y-373134D01*
Y-378000D01*
X228750D01*
Y-371000D01*
X223884D01*
X222442Y-369558D01*
X221780Y-369116D01*
X221000Y-368961D01*
X218008D01*
X217847Y-368487D01*
X218209Y-368209D01*
X218931Y-367269D01*
X219384Y-366175D01*
X219539Y-365000D01*
X219384Y-363825D01*
X218931Y-362731D01*
X218209Y-361791D01*
X217269Y-361069D01*
X216175Y-360616D01*
X215000Y-360461D01*
D02*
G37*
G36*
X216701Y-390474D02*
X210701D01*
Y-391785D01*
X210420Y-391841D01*
X209759Y-392283D01*
X207783Y-394259D01*
X207225Y-394370D01*
X206398Y-394922D01*
X205846Y-395749D01*
X205652Y-396724D01*
X205846Y-397700D01*
X206398Y-398527D01*
X207225Y-399079D01*
X208201Y-399273D01*
X209176Y-399079D01*
X210003Y-398527D01*
X210556Y-397700D01*
X210667Y-397142D01*
X210835Y-396974D01*
X216701D01*
Y-390474D01*
D02*
G37*
G36*
X339453Y-10547D02*
X330547D01*
Y-19453D01*
X339453D01*
Y-10547D01*
D02*
G37*
G36*
X287500Y-391451D02*
X286525Y-391645D01*
X286052Y-391961D01*
X266448D01*
X265975Y-391645D01*
X265000Y-391451D01*
X264024Y-391645D01*
X263198Y-392198D01*
X262645Y-393024D01*
X262451Y-394000D01*
X262645Y-394975D01*
X263198Y-395802D01*
X264024Y-396355D01*
X265000Y-396549D01*
X265975Y-396355D01*
X266448Y-396039D01*
X282000D01*
Y-402250D01*
Y-408250D01*
X288000D01*
Y-402250D01*
Y-396449D01*
X288475Y-396355D01*
X289302Y-395802D01*
X289855Y-394975D01*
X290049Y-394000D01*
X289855Y-393024D01*
X289302Y-392198D01*
X288475Y-391645D01*
X287500Y-391451D01*
D02*
G37*
G36*
X128724Y-12276D02*
X116276D01*
Y-24724D01*
X128724D01*
Y-12276D01*
D02*
G37*
G36*
X175000Y-57451D02*
X174024Y-57645D01*
X173198Y-58198D01*
X172645Y-59025D01*
X172451Y-60000D01*
X172645Y-60975D01*
X172859Y-61295D01*
Y-86705D01*
X172645Y-87024D01*
X172451Y-88000D01*
X172545Y-88472D01*
X172228Y-88859D01*
X150387D01*
X147514Y-85986D01*
X146819Y-85522D01*
X146000Y-85359D01*
X137795D01*
X137476Y-85145D01*
X136500Y-84951D01*
X135524Y-85145D01*
X134698Y-85698D01*
X134145Y-86524D01*
X133951Y-87500D01*
X134144Y-88472D01*
X133827Y-88859D01*
X128795D01*
X128475Y-88645D01*
X127500Y-88451D01*
X126524Y-88645D01*
X125698Y-89198D01*
X125250Y-89868D01*
X124750D01*
X124302Y-89198D01*
X123476Y-88645D01*
X122500Y-88451D01*
X121525Y-88645D01*
X120698Y-89198D01*
X120145Y-90025D01*
X119951Y-91000D01*
X120145Y-91975D01*
X120698Y-92802D01*
X121525Y-93355D01*
X121902Y-93430D01*
X123586Y-95114D01*
X124281Y-95578D01*
X125011Y-95723D01*
X125100Y-96106D01*
X125100Y-96229D01*
X124324Y-96824D01*
X123610Y-97754D01*
X123162Y-98838D01*
X123009Y-100000D01*
X123162Y-101162D01*
X123610Y-102246D01*
X124324Y-103176D01*
X125254Y-103890D01*
X126338Y-104338D01*
X127500Y-104491D01*
X128662Y-104338D01*
X129746Y-103890D01*
X130676Y-103176D01*
X131389Y-102246D01*
X131838Y-101162D01*
X131991Y-100000D01*
X131838Y-98838D01*
X131389Y-97754D01*
X130676Y-96824D01*
X129881Y-96215D01*
X130042Y-95741D01*
X134958D01*
X135119Y-96215D01*
X134324Y-96824D01*
X133610Y-97754D01*
X133162Y-98838D01*
X133009Y-100000D01*
X133162Y-101162D01*
X133610Y-102246D01*
X134324Y-103176D01*
X135254Y-103890D01*
X136338Y-104338D01*
X137500Y-104491D01*
X138662Y-104338D01*
X139746Y-103890D01*
X140676Y-103176D01*
X141390Y-102246D01*
X141838Y-101162D01*
X141933Y-100441D01*
X184956D01*
X185198Y-100802D01*
X186024Y-101355D01*
X187000Y-101549D01*
X187976Y-101355D01*
X188802Y-100802D01*
X189355Y-99976D01*
X189549Y-99000D01*
X189525Y-98878D01*
X189878Y-98525D01*
X190000Y-98549D01*
X190975Y-98355D01*
X191802Y-97802D01*
X192355Y-96975D01*
X192549Y-96000D01*
X192355Y-95025D01*
X191802Y-94198D01*
X190975Y-93645D01*
X190000Y-93451D01*
X189024Y-93645D01*
X188555Y-93959D01*
X184852D01*
X184535Y-93572D01*
X184549Y-93500D01*
X184355Y-92524D01*
X183802Y-91698D01*
X182975Y-91145D01*
X182000Y-90951D01*
X181583Y-91034D01*
X181549Y-91000D01*
X181355Y-90025D01*
X180802Y-89198D01*
X179975Y-88645D01*
X179000Y-88451D01*
X178024Y-88645D01*
X177871Y-88748D01*
X177456Y-88470D01*
X177549Y-88000D01*
X177355Y-87024D01*
X177141Y-86705D01*
Y-61295D01*
X177355Y-60975D01*
X177549Y-60000D01*
X177355Y-59025D01*
X176802Y-58198D01*
X175976Y-57645D01*
X175000Y-57451D01*
D02*
G37*
G36*
X318500Y-92961D02*
X317325Y-93116D01*
X316231Y-93569D01*
X315291Y-94291D01*
X314569Y-95231D01*
X314116Y-96325D01*
X313961Y-97500D01*
X314116Y-98675D01*
X314569Y-99769D01*
X315291Y-100709D01*
X316231Y-101431D01*
X317325Y-101884D01*
X318500Y-102039D01*
X319675Y-101884D01*
X320769Y-101431D01*
X321709Y-100709D01*
X322431Y-99769D01*
X322884Y-98675D01*
X323039Y-97500D01*
X322884Y-96325D01*
X322431Y-95231D01*
X321709Y-94291D01*
X320769Y-93569D01*
X319675Y-93116D01*
X318500Y-92961D01*
D02*
G37*
G36*
X370500Y-71461D02*
X369325Y-71616D01*
X368231Y-72069D01*
X367291Y-72791D01*
X366569Y-73731D01*
X366116Y-74825D01*
X365961Y-76000D01*
X366116Y-77175D01*
X366211Y-77405D01*
X305655Y-137961D01*
X296448D01*
X295975Y-137645D01*
X295000Y-137451D01*
X294024Y-137645D01*
X293198Y-138198D01*
X292645Y-139024D01*
X292451Y-140000D01*
X292645Y-140975D01*
X293198Y-141802D01*
X294024Y-142355D01*
X295000Y-142549D01*
X295975Y-142355D01*
X296448Y-142039D01*
X306500D01*
X307280Y-141884D01*
X307942Y-141442D01*
X369095Y-80289D01*
X369325Y-80384D01*
X370500Y-80539D01*
X371675Y-80384D01*
X372769Y-79931D01*
X373709Y-79209D01*
X374431Y-78269D01*
X374884Y-77175D01*
X375039Y-76000D01*
X374884Y-74825D01*
X374431Y-73731D01*
X373709Y-72791D01*
X372769Y-72069D01*
X371675Y-71616D01*
X370500Y-71461D01*
D02*
G37*
G36*
X11197Y-73987D02*
X7654D01*
X6543Y-74133D01*
X5507Y-74562D01*
X4618Y-75244D01*
X3936Y-76133D01*
X3507Y-77169D01*
X3361Y-78280D01*
X3507Y-79391D01*
X3936Y-80426D01*
X4618Y-81315D01*
X5507Y-81997D01*
X6543Y-82426D01*
X7654Y-82572D01*
X11197D01*
X12308Y-82426D01*
X13343Y-81997D01*
X14232Y-81315D01*
X14914Y-80426D01*
X15343Y-79391D01*
X15489Y-78280D01*
X15343Y-77169D01*
X14914Y-76133D01*
X14232Y-75244D01*
X13343Y-74562D01*
X12308Y-74133D01*
X11197Y-73987D01*
D02*
G37*
G36*
X121953Y-95547D02*
X113047D01*
Y-104453D01*
X121953D01*
Y-95547D01*
D02*
G37*
G36*
X245000Y-121509D02*
X243838Y-121662D01*
X242754Y-122110D01*
X241824Y-122824D01*
X241110Y-123754D01*
X240662Y-124838D01*
X240509Y-126000D01*
X240662Y-127162D01*
X241110Y-128246D01*
X241824Y-129176D01*
X242754Y-129890D01*
X242859Y-129933D01*
Y-131750D01*
X242000D01*
Y-138250D01*
X248000D01*
Y-131750D01*
X247141D01*
Y-129933D01*
X247246Y-129890D01*
X248176Y-129176D01*
X248889Y-128246D01*
X249338Y-127162D01*
X249491Y-126000D01*
X249338Y-124838D01*
X248889Y-123754D01*
X248176Y-122824D01*
X247246Y-122110D01*
X246162Y-121662D01*
X245000Y-121509D01*
D02*
G37*
G36*
X251850Y-142961D02*
X250676Y-143116D01*
X249581Y-143569D01*
X248641Y-144291D01*
X247920Y-145231D01*
X247466Y-146325D01*
X247312Y-147500D01*
X247466Y-148675D01*
X247920Y-149769D01*
X248641Y-150709D01*
X249581Y-151431D01*
X250676Y-151884D01*
X251850Y-152039D01*
X253025Y-151884D01*
X254120Y-151431D01*
X255060Y-150709D01*
X255781Y-149769D01*
X256235Y-148675D01*
X256389Y-147500D01*
X256235Y-146325D01*
X255781Y-145231D01*
X255060Y-144291D01*
X254120Y-143569D01*
X253025Y-143116D01*
X251850Y-142961D01*
D02*
G37*
G36*
X13000Y-102461D02*
X11825Y-102616D01*
X10731Y-103069D01*
X9791Y-103791D01*
X9069Y-104731D01*
X8616Y-105825D01*
X8461Y-107000D01*
X8616Y-108175D01*
X9069Y-109269D01*
X9791Y-110209D01*
X10731Y-110931D01*
X11825Y-111384D01*
X13000Y-111539D01*
X14175Y-111384D01*
X15269Y-110931D01*
X16209Y-110209D01*
X16931Y-109269D01*
X17384Y-108175D01*
X17539Y-107000D01*
X17384Y-105825D01*
X16931Y-104731D01*
X16209Y-103791D01*
X15269Y-103069D01*
X14175Y-102616D01*
X13000Y-102461D01*
D02*
G37*
G36*
X206500Y-38624D02*
X205240Y-38790D01*
X204066Y-39276D01*
X203058Y-40050D01*
X202284Y-41058D01*
X201798Y-42232D01*
X201632Y-43492D01*
X201798Y-44752D01*
X202284Y-45926D01*
X203058Y-46935D01*
X204066Y-47708D01*
X205240Y-48195D01*
X206500Y-48361D01*
X207760Y-48195D01*
X208934Y-47708D01*
X209943Y-46935D01*
X210716Y-45926D01*
X211203Y-44752D01*
X211368Y-43492D01*
X211203Y-42232D01*
X210716Y-41058D01*
X209943Y-40050D01*
X208934Y-39276D01*
X207760Y-38790D01*
X206500Y-38624D01*
D02*
G37*
G36*
X20055Y-50563D02*
X18995Y-50703D01*
X18008Y-51112D01*
X17160Y-51762D01*
X16510Y-52610D01*
X16101Y-53598D01*
X15961Y-54658D01*
X16101Y-55717D01*
X16510Y-56704D01*
X17160Y-57552D01*
X18008Y-58203D01*
X18995Y-58612D01*
X20055Y-58752D01*
X21115Y-58612D01*
X22102Y-58203D01*
X22950Y-57552D01*
X23601Y-56704D01*
X24010Y-55717D01*
X24149Y-54658D01*
X24010Y-53598D01*
X23601Y-52610D01*
X22950Y-51762D01*
X22102Y-51112D01*
X21115Y-50703D01*
X20055Y-50563D01*
D02*
G37*
G36*
X36000Y-57750D02*
X30000D01*
Y-59961D01*
X29448D01*
X28975Y-59645D01*
X28000Y-59451D01*
X27024Y-59645D01*
X26198Y-60198D01*
X25645Y-61024D01*
X25451Y-62000D01*
X25645Y-62976D01*
X26198Y-63802D01*
Y-64198D01*
X25645Y-65025D01*
X25451Y-66000D01*
X25645Y-66975D01*
X26198Y-67802D01*
X27024Y-68355D01*
X28000Y-68549D01*
X28975Y-68355D01*
X29448Y-68039D01*
X30000D01*
Y-70250D01*
X36000D01*
Y-64250D01*
Y-57750D01*
D02*
G37*
G36*
X11197Y-46428D02*
X7654D01*
X6543Y-46574D01*
X5507Y-47003D01*
X4618Y-47685D01*
X3936Y-48574D01*
X3507Y-49610D01*
X3361Y-50721D01*
X3507Y-51832D01*
X3936Y-52867D01*
X4618Y-53756D01*
X5507Y-54438D01*
X6543Y-54867D01*
X7654Y-55013D01*
X11197D01*
X12308Y-54867D01*
X13343Y-54438D01*
X14232Y-53756D01*
X14914Y-52867D01*
X15343Y-51832D01*
X15489Y-50721D01*
X15343Y-49610D01*
X14914Y-48574D01*
X14232Y-47685D01*
X13343Y-47003D01*
X12308Y-46574D01*
X11197Y-46428D01*
D02*
G37*
G36*
X195595Y-38624D02*
X194334Y-38790D01*
X193160Y-39276D01*
X192152Y-40050D01*
X191378Y-41058D01*
X190892Y-42232D01*
X190726Y-43492D01*
X190892Y-44752D01*
X191378Y-45926D01*
X192152Y-46935D01*
X193160Y-47708D01*
X194334Y-48195D01*
X195293Y-48321D01*
X201070Y-54098D01*
X201145Y-54475D01*
X201698Y-55302D01*
X202524Y-55855D01*
X203500Y-56049D01*
X204475Y-55855D01*
X205302Y-55302D01*
X205855Y-54475D01*
X206049Y-53500D01*
X205855Y-52525D01*
X205302Y-51698D01*
X204475Y-51145D01*
X204098Y-51070D01*
X199439Y-46411D01*
X199811Y-45926D01*
X200297Y-44752D01*
X200463Y-43492D01*
X200297Y-42232D01*
X199811Y-41058D01*
X199037Y-40050D01*
X198029Y-39276D01*
X196854Y-38790D01*
X195595Y-38624D01*
D02*
G37*
G36*
X304331Y-49453D02*
X295669D01*
X294250Y-49640D01*
X292927Y-50188D01*
X291792Y-51059D01*
X290920Y-52195D01*
X290372Y-53518D01*
X290185Y-54937D01*
X290372Y-56356D01*
X290920Y-57679D01*
X291792Y-58815D01*
X292927Y-59686D01*
X294250Y-60234D01*
X295669Y-60421D01*
X304331D01*
X305750Y-60234D01*
X307073Y-59686D01*
X308208Y-58815D01*
X309080Y-57679D01*
X309628Y-56356D01*
X309815Y-54937D01*
X309628Y-53518D01*
X309080Y-52195D01*
X308208Y-51059D01*
X307073Y-50188D01*
X305750Y-49640D01*
X304331Y-49453D01*
D02*
G37*
G36*
X20055Y-70248D02*
X18995Y-70388D01*
X18008Y-70797D01*
X17160Y-71448D01*
X16510Y-72295D01*
X16101Y-73283D01*
X15961Y-74343D01*
X16101Y-75402D01*
X16510Y-76390D01*
X17160Y-77237D01*
X18008Y-77888D01*
X18995Y-78297D01*
X20055Y-78437D01*
X21115Y-78297D01*
X22102Y-77888D01*
X22779Y-77368D01*
X30000D01*
Y-77750D01*
X36000D01*
Y-71250D01*
X30000D01*
Y-71317D01*
X22779D01*
X22102Y-70797D01*
X21115Y-70388D01*
X20055Y-70248D01*
D02*
G37*
G36*
X86748Y-64063D02*
X77134D01*
Y-74581D01*
X76951Y-75500D01*
X77145Y-76476D01*
X77698Y-77302D01*
X78525Y-77855D01*
X79500Y-78049D01*
X80475Y-77855D01*
X81302Y-77302D01*
X81855Y-76476D01*
X82049Y-75500D01*
X82014Y-75323D01*
X82331Y-74937D01*
X86748D01*
Y-64063D01*
D02*
G37*
G36*
X366500Y-45461D02*
X365325Y-45616D01*
X364231Y-46069D01*
X363291Y-46791D01*
X362569Y-47731D01*
X362116Y-48825D01*
X361961Y-50000D01*
X362116Y-51175D01*
X362569Y-52269D01*
X363291Y-53209D01*
X364231Y-53931D01*
X365325Y-54384D01*
X366500Y-54539D01*
X367675Y-54384D01*
X368769Y-53931D01*
X369709Y-53209D01*
X370431Y-52269D01*
X370884Y-51175D01*
X371039Y-50000D01*
X370884Y-48825D01*
X370431Y-47731D01*
X369709Y-46791D01*
X368769Y-46069D01*
X367675Y-45616D01*
X366500Y-45461D01*
D02*
G37*
G36*
X228000Y-62859D02*
X211000D01*
X210181Y-63022D01*
X209486Y-63486D01*
X205486Y-67486D01*
X205022Y-68181D01*
X204859Y-69000D01*
Y-104000D01*
X205022Y-104819D01*
X205486Y-105514D01*
X227486Y-127514D01*
X228181Y-127978D01*
X229000Y-128141D01*
X230547D01*
Y-130453D01*
X239453D01*
Y-121547D01*
X230547D01*
Y-123859D01*
X229887D01*
X209141Y-103113D01*
Y-73154D01*
X209615Y-72993D01*
X210219Y-73781D01*
X211180Y-74518D01*
X212299Y-74982D01*
X213500Y-75140D01*
X214701Y-74982D01*
X214727Y-74971D01*
X218706Y-78950D01*
Y-82750D01*
X216500D01*
Y-91250D01*
X223500D01*
Y-89294D01*
X227500D01*
Y-90250D01*
X233500D01*
Y-84294D01*
X234000D01*
Y-90250D01*
X234859D01*
Y-93451D01*
X233000D01*
Y-97000D01*
X225000D01*
Y-104000D01*
X226000D01*
Y-110250D01*
X232000D01*
Y-104000D01*
X232500D01*
Y-110250D01*
Y-116250D01*
X238500D01*
Y-110250D01*
Y-109141D01*
X240500D01*
X241319Y-108978D01*
X242014Y-108514D01*
X242014Y-108514D01*
X242014Y-108514D01*
X248697Y-101831D01*
X248825Y-101884D01*
X250000Y-102039D01*
X251175Y-101884D01*
X252269Y-101431D01*
X252410Y-101322D01*
X252859Y-101544D01*
Y-122067D01*
X252754Y-122110D01*
X251824Y-122824D01*
X251111Y-123754D01*
X250662Y-124838D01*
X250509Y-126000D01*
X250662Y-127162D01*
X251111Y-128246D01*
X251824Y-129176D01*
X252754Y-129890D01*
X253838Y-130338D01*
X255000Y-130491D01*
X256162Y-130338D01*
X257246Y-129890D01*
X258176Y-129176D01*
X258890Y-128246D01*
X259338Y-127162D01*
X259491Y-126000D01*
X259338Y-124838D01*
X258890Y-123754D01*
X258176Y-122824D01*
X257246Y-122110D01*
X257141Y-122067D01*
Y-101544D01*
X257590Y-101322D01*
X257731Y-101431D01*
X258825Y-101884D01*
X260000Y-102039D01*
X261175Y-101884D01*
X262269Y-101431D01*
X263209Y-100709D01*
X263931Y-99769D01*
X264384Y-98675D01*
X264539Y-97500D01*
X264384Y-96325D01*
X263931Y-95231D01*
X263209Y-94291D01*
X262294Y-93588D01*
Y-92294D01*
X282050D01*
X282706Y-92950D01*
Y-93588D01*
X281791Y-94291D01*
X281069Y-95231D01*
X280616Y-96325D01*
X280461Y-97500D01*
X280616Y-98675D01*
X281069Y-99769D01*
X281706Y-100599D01*
Y-107250D01*
X279500D01*
Y-115750D01*
X286500D01*
Y-107250D01*
X286294D01*
Y-101835D01*
X287269Y-101431D01*
X288209Y-100709D01*
X288931Y-99769D01*
X289384Y-98675D01*
X289539Y-97500D01*
X289384Y-96325D01*
X288931Y-95231D01*
X288209Y-94291D01*
X287294Y-93588D01*
Y-92000D01*
X287120Y-91122D01*
X286622Y-90378D01*
X284622Y-88378D01*
X283878Y-87881D01*
X283000Y-87706D01*
X260950D01*
X253622Y-80378D01*
X252878Y-79881D01*
X252000Y-79706D01*
X232000D01*
X231122Y-79881D01*
X230378Y-80378D01*
X228878Y-81878D01*
X228380Y-82622D01*
X228206Y-83500D01*
Y-83750D01*
X227500D01*
Y-84706D01*
X223500D01*
Y-82750D01*
X223294D01*
Y-78000D01*
X223119Y-77122D01*
X222622Y-76378D01*
X217971Y-71727D01*
X217982Y-71701D01*
X218140Y-70500D01*
X217982Y-69299D01*
X217518Y-68180D01*
X217065Y-67590D01*
X217286Y-67141D01*
X227113D01*
X229092Y-69121D01*
X229018Y-69299D01*
X228860Y-70500D01*
X229018Y-71701D01*
X229482Y-72820D01*
X230219Y-73781D01*
X231180Y-74518D01*
X232299Y-74982D01*
X233500Y-75140D01*
X234701Y-74982D01*
X235820Y-74518D01*
X236781Y-73781D01*
X237518Y-72820D01*
X237982Y-71701D01*
X238140Y-70500D01*
X237982Y-69299D01*
X237518Y-68180D01*
X236781Y-67219D01*
X235820Y-66482D01*
X234701Y-66018D01*
X233500Y-65860D01*
X232299Y-66018D01*
X232120Y-66092D01*
X229514Y-63486D01*
X228819Y-63022D01*
X228000Y-62859D01*
D02*
G37*
G36*
X241850Y-142961D02*
X240676Y-143116D01*
X239581Y-143569D01*
X238641Y-144291D01*
X237920Y-145231D01*
X237466Y-146325D01*
X237312Y-147500D01*
X237466Y-148675D01*
X237920Y-149769D01*
X238641Y-150709D01*
X239581Y-151431D01*
X240676Y-151884D01*
X241850Y-152039D01*
X243025Y-151884D01*
X244120Y-151431D01*
X245060Y-150709D01*
X245781Y-149769D01*
X246235Y-148675D01*
X246389Y-147500D01*
X246235Y-146325D01*
X245781Y-145231D01*
X245060Y-144291D01*
X244120Y-143569D01*
X243025Y-143116D01*
X241850Y-142961D01*
D02*
G37*
G36*
X217406Y-38624D02*
X216145Y-38790D01*
X214971Y-39276D01*
X213963Y-40050D01*
X213189Y-41058D01*
X212703Y-42232D01*
X212537Y-43492D01*
X212703Y-44752D01*
X213189Y-45926D01*
X213963Y-46935D01*
X214971Y-47708D01*
X216145Y-48195D01*
X217406Y-48361D01*
X218666Y-48195D01*
X219840Y-47708D01*
X220848Y-46935D01*
X221622Y-45926D01*
X222108Y-44752D01*
X222274Y-43492D01*
X222108Y-42232D01*
X221622Y-41058D01*
X220848Y-40050D01*
X219840Y-39276D01*
X218666Y-38790D01*
X217406Y-38624D01*
D02*
G37*
G36*
X189516Y-38665D02*
X179862D01*
Y-48319D01*
X189516D01*
Y-38665D01*
D02*
G37*
G36*
X141850Y-142961D02*
X140676Y-143116D01*
X139581Y-143569D01*
X138641Y-144291D01*
X137920Y-145231D01*
X137466Y-146325D01*
X137312Y-147500D01*
X137466Y-148675D01*
X137920Y-149769D01*
X138641Y-150709D01*
X139581Y-151431D01*
X140676Y-151884D01*
X141850Y-152039D01*
X143025Y-151884D01*
X144120Y-151431D01*
X145060Y-150709D01*
X145781Y-149769D01*
X146235Y-148675D01*
X146389Y-147500D01*
X146235Y-146325D01*
X145781Y-145231D01*
X145060Y-144291D01*
X144120Y-143569D01*
X143025Y-143116D01*
X141850Y-142961D01*
D02*
G37*
G36*
X335000Y-160961D02*
X333825Y-161116D01*
X332731Y-161569D01*
X331791Y-162291D01*
X331069Y-163231D01*
X330616Y-164325D01*
X330461Y-165500D01*
X330616Y-166675D01*
X331069Y-167769D01*
X331791Y-168709D01*
X332731Y-169431D01*
X333825Y-169884D01*
X335000Y-170039D01*
X336175Y-169884D01*
X337269Y-169431D01*
X338209Y-168709D01*
X338931Y-167769D01*
X339384Y-166675D01*
X339539Y-165500D01*
X339384Y-164325D01*
X338931Y-163231D01*
X338209Y-162291D01*
X337269Y-161569D01*
X336175Y-161116D01*
X335000Y-160961D01*
D02*
G37*
G36*
X333000Y-190509D02*
X331838Y-190662D01*
X330754Y-191111D01*
X329824Y-191824D01*
X329111Y-192754D01*
X328662Y-193838D01*
X328509Y-195000D01*
X328662Y-196162D01*
X329111Y-197246D01*
X329824Y-198176D01*
X330754Y-198890D01*
X331838Y-199338D01*
X333000Y-199491D01*
X334162Y-199338D01*
X335246Y-198890D01*
X336176Y-198176D01*
X336890Y-197246D01*
X337338Y-196162D01*
X337491Y-195000D01*
X337338Y-193838D01*
X336890Y-192754D01*
X336176Y-191824D01*
X335246Y-191111D01*
X334162Y-190662D01*
X333000Y-190509D01*
D02*
G37*
G36*
X190142Y-27443D02*
X188882Y-27608D01*
X187707Y-28095D01*
X186699Y-28868D01*
X185925Y-29877D01*
X185439Y-31051D01*
X185273Y-32311D01*
X185439Y-33571D01*
X185925Y-34745D01*
X186699Y-35754D01*
X187707Y-36527D01*
X188882Y-37014D01*
X190142Y-37179D01*
X191402Y-37014D01*
X192576Y-36527D01*
X193584Y-35754D01*
X194358Y-34745D01*
X194844Y-33571D01*
X195010Y-32311D01*
X194844Y-31051D01*
X194358Y-29877D01*
X193584Y-28868D01*
X192576Y-28095D01*
X191402Y-27608D01*
X190142Y-27443D01*
D02*
G37*
G36*
X10000Y-236099D02*
X8838Y-236252D01*
X7754Y-236701D01*
X6824Y-237415D01*
X6111Y-238345D01*
X5662Y-239428D01*
X5509Y-240591D01*
X5662Y-241753D01*
X6111Y-242836D01*
X6824Y-243766D01*
X7754Y-244480D01*
X8838Y-244929D01*
X10000Y-245082D01*
X11162Y-244929D01*
X12246Y-244480D01*
X13176Y-243766D01*
X13890Y-242836D01*
X14338Y-241753D01*
X14491Y-240591D01*
X14338Y-239428D01*
X13890Y-238345D01*
X13176Y-237415D01*
X12246Y-236701D01*
X11162Y-236252D01*
X10000Y-236099D01*
D02*
G37*
G36*
X343000Y-190509D02*
X341838Y-190662D01*
X340754Y-191111D01*
X339824Y-191824D01*
X339110Y-192754D01*
X338662Y-193838D01*
X338509Y-195000D01*
X338662Y-196162D01*
X339110Y-197246D01*
X339824Y-198176D01*
X340754Y-198890D01*
X341838Y-199338D01*
X343000Y-199491D01*
X344162Y-199338D01*
X345246Y-198890D01*
X346176Y-198176D01*
X346291Y-198026D01*
X362747D01*
X383360Y-218640D01*
X383987Y-219121D01*
X384717Y-219423D01*
X385500Y-219526D01*
X386283Y-219423D01*
X387013Y-219121D01*
X387640Y-218640D01*
X388121Y-218013D01*
X388423Y-217283D01*
X388526Y-216500D01*
X388423Y-215717D01*
X388121Y-214987D01*
X387640Y-214360D01*
X366140Y-192860D01*
X365513Y-192379D01*
X364783Y-192077D01*
X364000Y-191974D01*
X346291D01*
X346176Y-191824D01*
X345246Y-191111D01*
X344162Y-190662D01*
X343000Y-190509D01*
D02*
G37*
G36*
X167873Y-220863D02*
Y-220863D01*
X167819Y-220863D01*
X167669D01*
X167519D01*
X167466Y-220863D01*
X167466Y-220863D01*
Y-220863D01*
X162873D01*
X162873Y-220863D01*
Y-220863D01*
X162819Y-220863D01*
X162669D01*
X162519D01*
X162466Y-220863D01*
X162466Y-220863D01*
Y-220863D01*
X157819D01*
Y-230963D01*
X162466D01*
X162466Y-230963D01*
Y-230963D01*
X162519Y-230963D01*
X162669D01*
X162819D01*
X162873Y-230963D01*
X162873Y-230963D01*
Y-230963D01*
X167466D01*
X167466Y-230963D01*
Y-230963D01*
X167519Y-230963D01*
X167669D01*
X167819D01*
X167873Y-230963D01*
X167873Y-230963D01*
Y-230963D01*
X172519D01*
Y-220863D01*
X167873D01*
X167873Y-220863D01*
D02*
G37*
G36*
X151850Y-142961D02*
X150676Y-143116D01*
X149581Y-143569D01*
X148641Y-144291D01*
X147920Y-145231D01*
X147466Y-146325D01*
X147312Y-147500D01*
X147466Y-148675D01*
X147920Y-149769D01*
X148641Y-150709D01*
X149581Y-151431D01*
X150676Y-151884D01*
X151850Y-152039D01*
X153025Y-151884D01*
X154120Y-151431D01*
X155060Y-150709D01*
X155781Y-149769D01*
X156235Y-148675D01*
X156389Y-147500D01*
X156235Y-146325D01*
X155781Y-145231D01*
X155060Y-144291D01*
X154120Y-143569D01*
X153025Y-143116D01*
X151850Y-142961D01*
D02*
G37*
G36*
X211850D02*
X210676Y-143116D01*
X209581Y-143569D01*
X208641Y-144291D01*
X207920Y-145231D01*
X207466Y-146325D01*
X207312Y-147500D01*
X207466Y-148675D01*
X207920Y-149769D01*
X208641Y-150709D01*
X209581Y-151431D01*
X210676Y-151884D01*
X211850Y-152039D01*
X213025Y-151884D01*
X214120Y-151431D01*
X215060Y-150709D01*
X215781Y-149769D01*
X216235Y-148675D01*
X216389Y-147500D01*
X216235Y-146325D01*
X215781Y-145231D01*
X215060Y-144291D01*
X214120Y-143569D01*
X213025Y-143116D01*
X211850Y-142961D01*
D02*
G37*
G36*
X201850D02*
X200676Y-143116D01*
X199581Y-143569D01*
X198641Y-144291D01*
X197920Y-145231D01*
X197466Y-146325D01*
X197312Y-147500D01*
X197466Y-148675D01*
X197920Y-149769D01*
X198641Y-150709D01*
X199581Y-151431D01*
X200676Y-151884D01*
X201850Y-152039D01*
X203025Y-151884D01*
X204120Y-151431D01*
X205060Y-150709D01*
X205781Y-149769D01*
X206235Y-148675D01*
X206389Y-147500D01*
X206235Y-146325D01*
X205781Y-145231D01*
X205060Y-144291D01*
X204120Y-143569D01*
X203025Y-143116D01*
X201850Y-142961D01*
D02*
G37*
G36*
X231850D02*
X230676Y-143116D01*
X229581Y-143569D01*
X228641Y-144291D01*
X227920Y-145231D01*
X227466Y-146325D01*
X227312Y-147500D01*
X227466Y-148675D01*
X227920Y-149769D01*
X228641Y-150709D01*
X229581Y-151431D01*
X230676Y-151884D01*
X231850Y-152039D01*
X233025Y-151884D01*
X234120Y-151431D01*
X235060Y-150709D01*
X235781Y-149769D01*
X236235Y-148675D01*
X236389Y-147500D01*
X236235Y-146325D01*
X235781Y-145231D01*
X235060Y-144291D01*
X234120Y-143569D01*
X233025Y-143116D01*
X231850Y-142961D01*
D02*
G37*
G36*
X221850D02*
X220676Y-143116D01*
X219581Y-143569D01*
X218641Y-144291D01*
X217920Y-145231D01*
X217466Y-146325D01*
X217312Y-147500D01*
X217466Y-148675D01*
X217920Y-149769D01*
X218641Y-150709D01*
X219581Y-151431D01*
X220676Y-151884D01*
X221850Y-152039D01*
X223025Y-151884D01*
X224120Y-151431D01*
X225060Y-150709D01*
X225781Y-149769D01*
X226235Y-148675D01*
X226389Y-147500D01*
X226235Y-146325D01*
X225781Y-145231D01*
X225060Y-144291D01*
X224120Y-143569D01*
X223025Y-143116D01*
X221850Y-142961D01*
D02*
G37*
G36*
X191850D02*
X190676Y-143116D01*
X189581Y-143569D01*
X188641Y-144291D01*
X187920Y-145231D01*
X187466Y-146325D01*
X187312Y-147500D01*
X187466Y-148675D01*
X187920Y-149769D01*
X188641Y-150709D01*
X189581Y-151431D01*
X190676Y-151884D01*
X191850Y-152039D01*
X193025Y-151884D01*
X194120Y-151431D01*
X195060Y-150709D01*
X195781Y-149769D01*
X196235Y-148675D01*
X196389Y-147500D01*
X196235Y-146325D01*
X195781Y-145231D01*
X195060Y-144291D01*
X194120Y-143569D01*
X193025Y-143116D01*
X191850Y-142961D01*
D02*
G37*
G36*
X161850D02*
X160676Y-143116D01*
X159581Y-143569D01*
X158641Y-144291D01*
X157920Y-145231D01*
X157466Y-146325D01*
X157312Y-147500D01*
X157466Y-148675D01*
X157920Y-149769D01*
X158641Y-150709D01*
X159581Y-151431D01*
X160676Y-151884D01*
X161850Y-152039D01*
X163025Y-151884D01*
X164120Y-151431D01*
X165060Y-150709D01*
X165781Y-149769D01*
X166235Y-148675D01*
X166389Y-147500D01*
X166235Y-146325D01*
X165781Y-145231D01*
X165060Y-144291D01*
X164120Y-143569D01*
X163025Y-143116D01*
X161850Y-142961D01*
D02*
G37*
G36*
X171850D02*
X170676Y-143116D01*
X169581Y-143569D01*
X168641Y-144291D01*
X167920Y-145231D01*
X167466Y-146325D01*
X167312Y-147500D01*
X167466Y-148675D01*
X167920Y-149769D01*
X168641Y-150709D01*
X169581Y-151431D01*
X170676Y-151884D01*
X171850Y-152039D01*
X173025Y-151884D01*
X174120Y-151431D01*
X175060Y-150709D01*
X175781Y-149769D01*
X176235Y-148675D01*
X176389Y-147500D01*
X176235Y-146325D01*
X175781Y-145231D01*
X175060Y-144291D01*
X174120Y-143569D01*
X173025Y-143116D01*
X171850Y-142961D01*
D02*
G37*
G36*
X181850D02*
X180676Y-143116D01*
X179581Y-143569D01*
X178641Y-144291D01*
X177920Y-145231D01*
X177466Y-146325D01*
X177312Y-147500D01*
X177466Y-148675D01*
X177920Y-149769D01*
X178641Y-150709D01*
X179581Y-151431D01*
X180676Y-151884D01*
X181850Y-152039D01*
X183025Y-151884D01*
X184120Y-151431D01*
X185060Y-150709D01*
X185781Y-149769D01*
X186235Y-148675D01*
X186389Y-147500D01*
X186235Y-146325D01*
X185781Y-145231D01*
X185060Y-144291D01*
X184120Y-143569D01*
X183025Y-143116D01*
X181850Y-142961D01*
D02*
G37*
%LPD*%
G36*
X144282Y-397166D02*
X144282Y-397166D01*
X144679Y-397431D01*
X144944Y-397608D01*
X145724Y-397764D01*
X162753D01*
X163225Y-398079D01*
X164201Y-398273D01*
X165176Y-398079D01*
X166003Y-397527D01*
X166556Y-396700D01*
X166675Y-396100D01*
X166725Y-396079D01*
X167283Y-396190D01*
X168662Y-397569D01*
Y-402974D01*
X167201D01*
Y-405185D01*
X162701D01*
X162701Y-405185D01*
X162475Y-405230D01*
X162201Y-405175D01*
X161926Y-405230D01*
X161701Y-405185D01*
X159201D01*
Y-403974D01*
X155835D01*
X154143Y-402282D01*
X153481Y-401840D01*
X152701Y-401685D01*
X145500D01*
Y-400500D01*
X142000D01*
Y-400250D01*
X142000D01*
Y-395537D01*
X142462Y-395346D01*
X144282Y-397166D01*
D02*
G37*
D11*
X224500Y-374500D02*
D03*
Y-382500D02*
D03*
X189500Y-384000D02*
D03*
Y-376000D02*
D03*
D15*
X157500Y-57000D02*
D03*
Y-63500D02*
D03*
X235169Y-261043D02*
D03*
Y-267543D02*
D03*
X231169Y-211543D02*
D03*
Y-205043D02*
D03*
X241169Y-261043D02*
D03*
Y-267543D02*
D03*
X225169Y-205043D02*
D03*
Y-211543D02*
D03*
X140000Y-209244D02*
D03*
Y-215744D02*
D03*
X122000Y-209244D02*
D03*
Y-215744D02*
D03*
X134000Y-209244D02*
D03*
Y-215744D02*
D03*
X128000Y-209244D02*
D03*
Y-215744D02*
D03*
X138169Y-263043D02*
D03*
Y-256543D02*
D03*
X144169Y-263043D02*
D03*
Y-256543D02*
D03*
X17500Y-115000D02*
D03*
Y-121500D02*
D03*
X93000Y-190500D02*
D03*
Y-184000D02*
D03*
X23500Y-121500D02*
D03*
Y-115000D02*
D03*
X87000Y-184000D02*
D03*
Y-190500D02*
D03*
X37500Y-184000D02*
D03*
Y-190500D02*
D03*
X73000Y-121500D02*
D03*
Y-115000D02*
D03*
X29500Y-121500D02*
D03*
Y-115000D02*
D03*
X81000Y-184000D02*
D03*
Y-190500D02*
D03*
X35500Y-115000D02*
D03*
Y-121500D02*
D03*
X43500Y-190500D02*
D03*
Y-184000D02*
D03*
X75000Y-190500D02*
D03*
Y-184000D02*
D03*
X67000Y-115000D02*
D03*
Y-121500D02*
D03*
X289500Y-126000D02*
D03*
Y-119500D02*
D03*
X211500Y-381500D02*
D03*
Y-375000D02*
D03*
X218669Y-240043D02*
D03*
Y-233543D02*
D03*
X153500Y-239744D02*
D03*
Y-233244D02*
D03*
X121500Y-239744D02*
D03*
Y-233244D02*
D03*
X41500Y-121500D02*
D03*
Y-115000D02*
D03*
X69000Y-184000D02*
D03*
Y-190500D02*
D03*
X49500D02*
D03*
Y-184000D02*
D03*
X61000Y-115000D02*
D03*
Y-121500D02*
D03*
X44500Y-106500D02*
D03*
Y-100000D02*
D03*
X217500Y-381500D02*
D03*
Y-375000D02*
D03*
X182500Y-384000D02*
D03*
Y-377500D02*
D03*
D16*
X33000Y-404500D02*
D03*
X39500D02*
D03*
X42000Y-321590D02*
D03*
X35500D02*
D03*
X42000Y-315591D02*
D03*
X35500D02*
D03*
Y-309591D02*
D03*
X42000D02*
D03*
Y-303590D02*
D03*
X35500D02*
D03*
Y-297590D02*
D03*
X42000D02*
D03*
Y-291590D02*
D03*
X35500D02*
D03*
Y-285591D02*
D03*
X42000D02*
D03*
Y-279591D02*
D03*
X35500D02*
D03*
Y-273590D02*
D03*
X42000D02*
D03*
Y-267590D02*
D03*
X35500D02*
D03*
Y-261591D02*
D03*
X42000D02*
D03*
Y-255591D02*
D03*
X35500D02*
D03*
Y-249590D02*
D03*
X42000D02*
D03*
X35500Y-243590D02*
D03*
X42000D02*
D03*
X39500Y-416500D02*
D03*
X33000D02*
D03*
X39500Y-410500D02*
D03*
X33000D02*
D03*
X39500Y-398500D02*
D03*
X33000D02*
D03*
X39500Y-392500D02*
D03*
X33000D02*
D03*
X39500Y-74500D02*
D03*
X33000D02*
D03*
X235500Y-113000D02*
D03*
X229000D02*
D03*
X57500Y-56000D02*
D03*
X51000D02*
D03*
X235500Y-107000D02*
D03*
X229000D02*
D03*
X245000Y-135000D02*
D03*
X251500D02*
D03*
X275000Y-133000D02*
D03*
X281500D02*
D03*
X39500Y-67000D02*
D03*
X33000D02*
D03*
X230500Y-87000D02*
D03*
X237000D02*
D03*
X39500Y-61000D02*
D03*
X33000D02*
D03*
X139000Y-397000D02*
D03*
X132500D02*
D03*
X267500Y-462000D02*
D03*
X261000D02*
D03*
X273500D02*
D03*
X280000D02*
D03*
X291500Y-405000D02*
D03*
X285000D02*
D03*
X39500Y-422500D02*
D03*
X33000D02*
D03*
Y-386500D02*
D03*
X39500D02*
D03*
X64000Y-56000D02*
D03*
X70500D02*
D03*
X139000Y-391000D02*
D03*
X132500D02*
D03*
X214201Y-421724D02*
D03*
X220701D02*
D03*
X156201Y-419224D02*
D03*
X149701D02*
D03*
X213701Y-402724D02*
D03*
X220201D02*
D03*
X181201Y-443224D02*
D03*
X187701D02*
D03*
X156201Y-413224D02*
D03*
X149701D02*
D03*
X261000Y-456000D02*
D03*
X267500D02*
D03*
X156201Y-425224D02*
D03*
X149701D02*
D03*
X156201Y-436224D02*
D03*
X149701D02*
D03*
X156201Y-391224D02*
D03*
X149701D02*
D03*
X213701Y-393724D02*
D03*
X220201D02*
D03*
X214201Y-427724D02*
D03*
X220701D02*
D03*
X156201Y-407224D02*
D03*
X149701D02*
D03*
X280000Y-456000D02*
D03*
X273500D02*
D03*
X285000Y-399000D02*
D03*
X291500D02*
D03*
D17*
X283000Y-111500D02*
D03*
X275000D02*
D03*
X220000Y-87000D02*
D03*
X212000D02*
D03*
X64000Y-48000D02*
D03*
X72000D02*
D03*
X131500Y-384000D02*
D03*
X139500D02*
D03*
X134500Y-419000D02*
D03*
X142500D02*
D03*
X213701Y-414724D02*
D03*
X221701D02*
D03*
X200701Y-406724D02*
D03*
X192701D02*
D03*
X170701Y-415224D02*
D03*
X178701D02*
D03*
X170701Y-423224D02*
D03*
X178701D02*
D03*
X213701Y-434724D02*
D03*
X221701D02*
D03*
X170701Y-407224D02*
D03*
X178701D02*
D03*
D36*
X61468Y-69500D02*
D03*
X66587D02*
D03*
X56350D02*
D03*
D37*
X58909D02*
D03*
X81941D02*
D03*
X53791Y-99500D02*
D03*
Y-69500D02*
D03*
X51232D02*
D03*
X79382D02*
D03*
X76823D02*
D03*
X71705D02*
D03*
X69146D02*
D03*
X84500Y-99500D02*
D03*
Y-69500D02*
D03*
X64028D02*
D03*
X69146Y-99500D02*
D03*
X66587D02*
D03*
X61468D02*
D03*
X58909D02*
D03*
X71705D02*
D03*
X81941D02*
D03*
X51232D02*
D03*
X74264Y-69500D02*
D03*
X56350Y-99500D02*
D03*
X64028D02*
D03*
X79382D02*
D03*
X76823D02*
D03*
X74264D02*
D03*
D47*
X284000Y-111500D02*
Y-98000D01*
X213701Y-414724D02*
X219425Y-409000D01*
X271500D01*
X215870Y-237244D02*
X218669Y-240043D01*
X156000Y-237244D02*
X215870D01*
X153500Y-239744D02*
X156000Y-237244D01*
X122000Y-499000D02*
X209500D01*
X223500Y-485000D01*
X295000D01*
X300000Y-480000D01*
X121000Y-500000D02*
X122000Y-499000D01*
X277500Y-415000D02*
X333500D01*
X271500Y-409000D02*
X277500Y-415000D01*
X112976Y-205500D02*
Y-199024D01*
Y-231000D02*
Y-205500D01*
X75000Y-193500D02*
Y-190500D01*
X70866Y-197634D02*
X75000Y-193500D01*
X49500Y-190500D02*
X58000Y-199000D01*
X230669Y-251897D02*
Y-237075D01*
X235669Y-232075D01*
Y-221189D01*
X225669Y-251897D02*
X230669D01*
X223653D02*
X225669D01*
X218669Y-246913D02*
X223653Y-251897D01*
X218669Y-246913D02*
Y-240043D01*
X153500Y-244744D02*
Y-239744D01*
X155929Y-247173D02*
X160169D01*
X153500Y-244744D02*
X155929Y-247173D01*
X124130Y-247374D02*
X128500D01*
X121500Y-244744D02*
X124130Y-247374D01*
X121500Y-244744D02*
Y-239744D01*
X61000Y-115000D02*
X67000D01*
X35500D02*
X41500Y-121000D01*
Y-121500D02*
X47500Y-127500D01*
Y-133000D02*
Y-127500D01*
X17500Y-133000D02*
Y-121500D01*
X43500Y-190500D02*
X49500D01*
X93000Y-184000D02*
Y-172000D01*
X69000Y-184000D02*
X75000Y-190000D01*
X63000Y-178000D02*
X69000Y-184000D01*
X63000Y-178000D02*
Y-172000D01*
X221000Y-87000D02*
X230500D01*
X221000D02*
Y-78000D01*
X213500Y-70500D02*
X221000Y-78000D01*
X230500Y-87000D02*
Y-83500D01*
X232000Y-82000D01*
X112976Y-231221D02*
X118000Y-236244D01*
X33000Y-386500D02*
X39000Y-392500D01*
X33000Y-386500D02*
Y-378000D01*
X25000Y-370000D02*
X33000Y-378000D01*
X20000Y-370000D02*
X25000D01*
X39500Y-398500D02*
Y-392500D01*
Y-416500D02*
Y-410500D01*
X260000Y-94500D02*
Y-90000D01*
X252000Y-82000D02*
X260000Y-90000D01*
X232000Y-82000D02*
X252000D01*
X285000Y-97500D02*
Y-92000D01*
X260000Y-90000D02*
X283000D01*
X285000Y-92000D01*
D48*
X126000Y-374000D02*
X127500Y-372500D01*
X132500Y-385150D02*
Y-384000D01*
X128500Y-387000D02*
X131500Y-384000D01*
X128500Y-394500D02*
Y-387000D01*
Y-394500D02*
X131000Y-397000D01*
X132500D01*
X182500Y-389024D02*
X185201Y-391724D01*
X182500Y-389024D02*
Y-384000D01*
X189500D01*
Y-394524D02*
X201701Y-406724D01*
X189500Y-394524D02*
Y-384000D01*
X147500Y-372500D02*
X171000D01*
X182500Y-384000D01*
X214201Y-421724D02*
Y-415224D01*
Y-434224D02*
Y-427724D01*
X162201Y-422724D02*
X170201D01*
X162201Y-407724D02*
X162701Y-407224D01*
X170701D01*
Y-396724D01*
X174201Y-430224D02*
Y-418724D01*
X170701Y-415224D02*
X174201Y-418724D01*
X162201Y-413224D02*
X163951Y-414974D01*
X163701Y-415224D02*
X170701D01*
X145724Y-395724D02*
X164201D01*
X139000Y-391000D02*
X141000D01*
X145724Y-395724D01*
X139000Y-397000D02*
Y-391000D01*
X156672Y-254744D02*
X173425D01*
X175169Y-253000D02*
Y-251000D01*
X173425Y-254744D02*
X175169Y-253000D01*
X306500Y-140000D02*
X370500Y-76000D01*
X295000Y-140000D02*
X306500D01*
X314000Y-280515D02*
Y-194672D01*
X308000Y-278029D02*
Y-197157D01*
X276343Y-165500D02*
X308000Y-197157D01*
X310000Y-278858D02*
Y-196328D01*
X98500Y-163500D02*
X277172D01*
X310000Y-196328D01*
X312000Y-279686D02*
Y-195500D01*
X251500Y-135000D02*
X312000Y-195500D01*
X236500Y-475000D02*
X245000D01*
X152500Y-470328D02*
X159672Y-477500D01*
X232500D01*
X171421Y-456921D02*
X187000Y-472500D01*
X312500Y-345000D02*
X315328D01*
X339738Y-320590D02*
X366142D01*
X315328Y-345000D02*
X339738Y-320590D01*
X366051Y-290500D02*
X366142Y-290591D01*
X327500Y-290500D02*
X366051D01*
X322000Y-284485D02*
Y-260000D01*
X326642Y-285500D02*
X371232D01*
X313500Y-298642D02*
X326642Y-285500D01*
X366051Y-310500D02*
X366142Y-310591D01*
X325000Y-310500D02*
X366051D01*
X371232Y-315500D02*
X376142Y-310591D01*
X320000Y-315500D02*
X371232D01*
Y-305500D02*
X376142Y-300590D01*
X231169Y-205043D02*
X241043D01*
X285000Y-249000D01*
Y-252500D02*
Y-249000D01*
X241000Y-208500D02*
X282500Y-250000D01*
X228213Y-208500D02*
X241000D01*
X282500Y-255000D02*
Y-250000D01*
X371232Y-275500D02*
X376142Y-270590D01*
X361000Y-275500D02*
X371232D01*
X358500Y-273000D02*
X361000Y-275500D01*
X325000Y-273000D02*
X358500D01*
X371232Y-265500D02*
X376142Y-260591D01*
X361000Y-265500D02*
X371232D01*
X358500Y-268000D02*
X361000Y-265500D01*
X325000Y-268000D02*
X358500D01*
X327500Y-270500D02*
X366051D01*
X359232Y-237500D02*
X366142Y-230591D01*
X324465Y-237500D02*
X359232D01*
X318500Y-243464D02*
X324465Y-237500D01*
X318500Y-243500D02*
Y-243464D01*
X366051Y-240500D02*
X366142Y-240591D01*
X325000Y-240500D02*
X366051D01*
X290000Y-372500D02*
X300000Y-362500D01*
X287500Y-372500D02*
X290000D01*
X288000Y-380000D02*
X300000D01*
X275000Y-356500D02*
Y-311661D01*
X284000Y-376000D02*
X288000Y-380000D01*
X284000Y-376000D02*
Y-365500D01*
X275000Y-356500D02*
X284000Y-365500D01*
X315500Y-299470D02*
X319471Y-295500D01*
X315500Y-322500D02*
Y-299470D01*
Y-322500D02*
X323500Y-330500D01*
Y-334000D02*
Y-330500D01*
X316500Y-341000D02*
X323500Y-334000D01*
X324924Y-248590D02*
X357410D01*
X316000Y-257515D02*
X324924Y-248590D01*
X316000Y-281343D02*
Y-257515D01*
X325753Y-250590D02*
X366142D01*
X318000Y-258343D02*
X325753Y-250590D01*
X318000Y-282172D02*
Y-258343D01*
X323672Y-255500D02*
X371232D01*
X320000Y-259172D02*
X323672Y-255500D01*
X320000Y-283657D02*
Y-259172D01*
X324500Y-257500D02*
X358500D01*
X322000Y-260000D02*
X324500Y-257500D01*
X309500Y-296985D02*
X322000Y-284485D01*
X307500Y-296157D02*
X320000Y-283657D01*
X305000Y-295828D02*
X316000Y-284828D01*
Y-284172D02*
X318000Y-282172D01*
X316000Y-284828D02*
Y-284172D01*
X302500Y-295500D02*
X312500Y-285500D01*
Y-284843D02*
X316000Y-281343D01*
X312500Y-285500D02*
Y-284843D01*
X319471Y-295500D02*
X373000D01*
X360500Y-245500D02*
X371232D01*
X357410Y-248590D02*
X360500Y-245500D01*
X361591Y-260591D02*
X366142D01*
X358500Y-257500D02*
X361591Y-260591D01*
X313500Y-326000D02*
Y-298642D01*
Y-326000D02*
X320000Y-332500D01*
X328723Y-280591D02*
X366142D01*
X311500Y-297814D02*
X328723Y-280591D01*
X311500Y-329000D02*
Y-297814D01*
Y-329000D02*
X317500Y-335000D01*
X309500Y-332000D02*
Y-296985D01*
Y-332000D02*
X315000Y-337500D01*
X307500Y-345000D02*
Y-296157D01*
X305000Y-347500D02*
Y-295828D01*
X302500Y-350000D02*
Y-295500D01*
X290000Y-296029D02*
X308000Y-278029D01*
X290000Y-361500D02*
Y-296029D01*
Y-361500D02*
X291000Y-362500D01*
X295000D01*
X277000Y-354500D02*
Y-307500D01*
Y-354500D02*
X290000Y-367500D01*
X300000Y-362500D02*
Y-294515D01*
X292500Y-296358D02*
X310000Y-278858D01*
X292500Y-360000D02*
Y-296358D01*
X243500Y-274000D02*
X277000Y-307500D01*
X59000Y-267500D02*
X141500D01*
X145000Y-271000D02*
X220000D01*
X141500Y-267500D02*
X145000Y-271000D01*
X74500Y-275000D02*
X222000D01*
X74828Y-277500D02*
X224964D01*
X230634Y-271831D01*
X235169D01*
X275000Y-311661D01*
X235169Y-271831D02*
Y-267543D01*
X222000Y-275000D02*
X232957Y-264043D01*
X237669D01*
X241169Y-267543D01*
X47091Y-255591D02*
X59000Y-267500D01*
X42000Y-255591D02*
X47091D01*
X300000Y-294515D02*
X314000Y-280515D01*
X297500Y-294186D02*
X312000Y-279686D01*
X297500Y-355000D02*
Y-294186D01*
X311500Y-341000D02*
X316500D01*
X310000Y-342500D02*
X311500Y-341000D01*
X371232Y-245500D02*
X376142Y-240591D01*
X371232Y-255500D02*
X376142Y-250590D01*
Y-292358D02*
Y-290591D01*
X373000Y-295500D02*
X376142Y-292358D01*
X371232Y-285500D02*
X376142Y-280591D01*
X39500Y-464500D02*
Y-422500D01*
Y-464500D02*
X55000Y-480000D01*
X287500D01*
X293500Y-474000D01*
Y-438500D01*
X285000Y-394000D02*
X287500D01*
X265000D02*
X285000D01*
Y-399000D02*
Y-394000D01*
X228000Y-431500D02*
X243500D01*
X171421Y-456921D02*
Y-438579D01*
X72500Y-340500D02*
Y-302500D01*
X70000Y-340828D02*
Y-305000D01*
X65000Y-341485D02*
Y-310000D01*
X57500Y-341515D02*
Y-312500D01*
X60093Y-343922D02*
X61000Y-344828D01*
X60000Y-341000D02*
Y-310000D01*
X67500Y-341157D02*
Y-307500D01*
X99373Y-465000D02*
X122500D01*
X55000Y-420627D02*
X99373Y-465000D01*
X55000Y-420627D02*
Y-365000D01*
X99701Y-462500D02*
X118500D01*
X57500Y-420299D02*
X99701Y-462500D01*
X57500Y-420299D02*
Y-367500D01*
X50000Y-432500D02*
Y-365000D01*
X192500Y-490000D02*
X205000D01*
X152500Y-470328D02*
Y-451000D01*
X155000Y-470000D02*
Y-448500D01*
X51000Y-301328D02*
X74828Y-277500D01*
X51000Y-311000D02*
Y-301328D01*
X46409Y-315591D02*
X51000Y-311000D01*
X42000Y-315591D02*
X46409D01*
X46000Y-303500D02*
X74500Y-275000D01*
X50000Y-342500D02*
X70000Y-362500D01*
X50000Y-342500D02*
Y-320000D01*
X52500Y-342172D02*
X70328Y-360000D01*
X52500Y-342172D02*
Y-317500D01*
X55000Y-341843D02*
X70657Y-357500D01*
X55000Y-341843D02*
Y-315000D01*
X61000Y-345015D02*
X70985Y-355000D01*
X57500Y-341515D02*
X61000Y-345015D01*
Y-344828D01*
X45909Y-243590D02*
X46000Y-243500D01*
X42000Y-243590D02*
X45909D01*
X52500Y-430000D02*
Y-417500D01*
X100030Y-460000D02*
X126000D01*
X130000Y-456000D01*
X249500Y-445000D02*
X252000Y-442500D01*
X272000D01*
X238500Y-445000D02*
X249500D01*
X226500Y-450000D02*
X249000D01*
X284500Y-405000D02*
X285000Y-404500D01*
Y-399000D01*
X236000Y-447500D02*
X257000D01*
X110000Y-507500D02*
X137500D01*
X102500Y-401500D02*
Y-392500D01*
X206136Y-465000D02*
X230000D01*
X201136Y-460000D02*
X206136Y-465000D01*
X180000Y-460000D02*
X201136D01*
X206465Y-462500D02*
X232500D01*
X201465Y-457500D02*
X206465Y-462500D01*
X182500Y-457500D02*
X201465D01*
X207500Y-460000D02*
X235000D01*
X210000Y-457500D02*
X237500D01*
X212500Y-455000D02*
X240000D01*
X215000Y-452500D02*
X242500D01*
X42000Y-249590D02*
X45909D01*
X42000Y-273590D02*
X49909D01*
X42000Y-279591D02*
X46738D01*
X42000Y-303590D02*
X45909D01*
X42000Y-291590D02*
X45909D01*
X42000Y-285591D02*
X45909D01*
X42000Y-267590D02*
X46000D01*
X42000Y-297590D02*
X45909D01*
X42000Y-309591D02*
X45909D01*
X60000Y-341000D02*
X71500Y-352500D01*
X53828Y-272500D02*
X134500D01*
X46738Y-279591D02*
X53828Y-272500D01*
X49909Y-273590D02*
X53500Y-270000D01*
X137500D01*
X144169Y-256543D02*
X147957D01*
X134500Y-256500D02*
X138126D01*
X102500Y-442500D02*
X115000D01*
X100000Y-440000D02*
X102500Y-442500D01*
X60000Y-419971D02*
X100030Y-460000D01*
X60000Y-419971D02*
Y-370000D01*
X62500Y-419642D02*
X100358Y-457500D01*
X62500Y-419642D02*
Y-372500D01*
X100358Y-457500D02*
X122500D01*
X65000Y-419314D02*
X100686Y-455000D01*
X65000Y-419314D02*
Y-375000D01*
X100686Y-455000D02*
X125000D01*
X67500Y-418985D02*
X101015Y-452500D01*
X67500Y-418985D02*
Y-377500D01*
X101015Y-452500D02*
X120000D01*
X70000Y-418657D02*
X101343Y-450000D01*
X70000Y-418657D02*
Y-380000D01*
X101343Y-450000D02*
X122500D01*
X90000Y-435828D02*
Y-390000D01*
Y-435828D02*
X101672Y-447500D01*
X120000D01*
X92500Y-435500D02*
X102000Y-445000D01*
X92500Y-435500D02*
Y-392500D01*
X102000Y-445000D02*
X122500D01*
X100000Y-440000D02*
Y-390000D01*
X110000Y-427500D02*
Y-390000D01*
X107500Y-437500D02*
Y-392500D01*
X105000Y-405500D02*
Y-390000D01*
X97500Y-425000D02*
Y-392500D01*
X95000Y-427500D02*
Y-390000D01*
X80000Y-416000D02*
Y-385000D01*
X75000Y-410000D02*
Y-380000D01*
X77500Y-412500D02*
Y-382500D01*
X82500Y-397500D02*
Y-387500D01*
X85000Y-410000D02*
Y-390000D01*
X87500Y-412500D02*
Y-392500D01*
X65000Y-341485D02*
X73515Y-350000D01*
X159500D01*
X67500Y-341157D02*
X73843Y-347500D01*
X172000D01*
X74172Y-345000D02*
X162000D01*
X70000Y-340828D02*
X74172Y-345000D01*
X74500Y-342500D02*
X169500D01*
X72500Y-340500D02*
X74500Y-342500D01*
X42000Y-261591D02*
X46000D01*
X71500Y-352500D02*
X197000D01*
X70985Y-355000D02*
X174500D01*
X70657Y-357500D02*
X167000D01*
X70328Y-360000D02*
X177000D01*
X70000Y-362500D02*
X184500D01*
X255000Y-456000D02*
X261000D01*
X249000Y-450000D02*
X255000Y-456000D01*
X272000Y-442500D02*
X277000Y-447500D01*
X240669Y-260543D02*
Y-251897D01*
X235669Y-260543D02*
Y-251897D01*
X230669Y-221189D02*
Y-212043D01*
X225669Y-221189D02*
Y-212043D01*
X134000Y-215744D02*
X140000Y-209744D01*
Y-209244D01*
X133500Y-226114D02*
Y-216244D01*
X128500Y-226114D02*
Y-216244D01*
X122000Y-209244D02*
X128000Y-215244D01*
X146500Y-241744D02*
X157500Y-252744D01*
X169000D02*
X170169Y-251575D01*
X157500Y-252744D02*
X169000D01*
X149302Y-247374D02*
X156672Y-254744D01*
X143500Y-247374D02*
X149302D01*
X170169Y-251575D02*
Y-247173D01*
X139500Y-241744D02*
X146500D01*
X138500Y-242744D02*
X139500Y-241744D01*
X138500Y-247374D02*
Y-242744D01*
X143500Y-255874D02*
Y-247374D01*
X138500Y-256213D02*
Y-247374D01*
X156201Y-419224D02*
X159701D01*
X162201Y-416724D01*
X156201Y-425224D02*
X159701D01*
X162201Y-422724D01*
X208201Y-421724D02*
X214201D01*
X208201Y-425724D02*
X212201D01*
X214201Y-427724D01*
X211201Y-393724D02*
X213701D01*
X208201Y-396724D02*
X211201Y-393724D01*
X156201Y-407224D02*
X161701D01*
X162201Y-407724D01*
X156201Y-413224D02*
X162201D01*
Y-416724D02*
X163701Y-415224D01*
X208701Y-402724D02*
X213701D01*
X208201Y-403224D02*
X208701Y-402724D01*
X201701Y-406724D02*
X204701D01*
X208201Y-403224D01*
X201701Y-417224D02*
Y-406724D01*
X181201Y-443224D02*
Y-437724D01*
X174201Y-430224D02*
X176701Y-432724D01*
X186201D02*
X201701Y-417224D01*
X181201Y-437724D02*
Y-432974D01*
X176701Y-432724D02*
X186201D01*
X156201Y-436224D02*
X164201D01*
X167701Y-393724D02*
X170701Y-396724D01*
X156201Y-391224D02*
X165201D01*
X167701Y-393724D01*
X152701Y-403724D02*
X156201Y-407224D01*
X25000Y-320590D02*
X26000Y-321590D01*
X20000Y-320590D02*
X25000D01*
Y-310591D02*
X30000Y-315591D01*
X20000Y-310591D02*
X25000D01*
Y-305591D02*
X29000Y-309591D01*
X15000Y-305591D02*
X25000D01*
X10000Y-310591D02*
X15000Y-305591D01*
X25000Y-300590D02*
X28000Y-303590D01*
X20000Y-300590D02*
X25000D01*
Y-295590D02*
X27000Y-297590D01*
X15000Y-295590D02*
X25000D01*
X10000Y-300590D02*
X15000Y-295590D01*
X25000Y-290591D02*
X26000Y-291590D01*
X20000Y-290591D02*
X25000D01*
X10000D02*
X15000Y-285591D01*
X25000Y-280591D02*
X26000Y-279591D01*
X20000Y-280591D02*
X25000D01*
Y-275590D02*
X27000Y-273590D01*
X15000Y-275590D02*
X25000D01*
X10000Y-280591D02*
X15000Y-275590D01*
X25000Y-270590D02*
X28000Y-267590D01*
X20000Y-270590D02*
X25000D01*
Y-265591D02*
X29000Y-261591D01*
X15000Y-265591D02*
X25000D01*
X10000Y-270590D02*
X15000Y-265591D01*
X25000Y-260591D02*
X30000Y-255591D01*
X20000Y-260591D02*
X25000D01*
Y-255591D02*
X31000Y-249590D01*
X15000Y-255591D02*
X25000D01*
X10000Y-260591D02*
X15000Y-255591D01*
X25000Y-235591D02*
X33000Y-243590D01*
X15000Y-235591D02*
X25000D01*
X10000Y-230591D02*
X15000Y-235591D01*
X33000Y-243590D02*
X35500D01*
X31000Y-249590D02*
X35500D01*
X30000Y-255591D02*
X35500D01*
X29000Y-261591D02*
X35500D01*
X28000Y-267590D02*
X35500D01*
X27000Y-273590D02*
X35500D01*
X26000Y-279591D02*
X35500D01*
X26000Y-291590D02*
X35500D01*
X15000Y-285591D02*
X35500D01*
X27000Y-297590D02*
X35500D01*
X28000Y-303590D02*
X35500D01*
X29000Y-309591D02*
X35500D01*
X30000Y-315591D02*
X35500D01*
X26000Y-321590D02*
X35500D01*
X28000Y-66000D02*
X32000D01*
X28000Y-62000D02*
X32000D01*
X28500Y-398500D02*
X33000D01*
X25000Y-395000D02*
X28500Y-398500D01*
X15000Y-395000D02*
X25000D01*
X10000Y-390000D02*
X15000Y-395000D01*
X10000Y-420000D02*
Y-415000D01*
Y-410000D01*
X225169Y-211543D02*
X228213Y-208500D01*
X171850Y-335350D02*
Y-324941D01*
Y-335350D02*
X182000Y-345500D01*
X197000Y-352500D02*
X203500Y-359000D01*
X156500Y-165500D02*
X276343D01*
X192500Y-470000D02*
X230000D01*
X234000Y-472500D02*
X236500Y-475000D01*
X155000Y-470000D02*
X160000Y-475000D01*
X230000D01*
X187000Y-472500D02*
X234000D01*
X186500Y-467500D02*
X226000D01*
X318500Y-308000D02*
X325909Y-300590D01*
X366142D01*
X318500Y-313000D02*
X326000Y-305500D01*
X371232D01*
X281500Y-162172D02*
Y-133000D01*
Y-162172D02*
X314000Y-194672D01*
X134500Y-419000D02*
Y-414000D01*
X128500Y-407000D02*
X129000D01*
X189500Y-384000D02*
X200000D01*
X201500Y-371500D02*
X211500Y-381500D01*
X201000Y-371500D02*
X207500Y-365000D01*
X215000D01*
X203201Y-391724D02*
X205776D01*
X211500Y-386000D01*
Y-381500D01*
X217500D01*
X211500Y-375000D02*
Y-373000D01*
X213500Y-371000D01*
X221000D01*
X224500Y-374500D01*
X127500Y-407500D02*
Y-399000D01*
X141000Y-407500D02*
X144776Y-403724D01*
X152701D01*
X134500Y-414000D02*
X141000Y-407500D01*
X126000Y-397500D02*
X127500Y-399000D01*
X126000Y-397500D02*
Y-374000D01*
X127500Y-407500D02*
X128500D01*
X129000Y-407000D01*
X139000Y-397000D01*
X125500Y-417500D02*
X127500D01*
X112500Y-404500D02*
X125500Y-417500D01*
X112500Y-404500D02*
Y-392500D01*
D49*
X332500Y-367500D02*
X332750Y-367750D01*
X333000Y-367500D02*
Y-355000D01*
X342000Y-405000D02*
Y-376500D01*
X333000Y-367500D02*
X342000Y-376500D01*
X236500Y-437500D02*
X267000D01*
X212500Y-199000D02*
X276000D01*
X287500Y-187500D01*
X213701Y-438201D02*
X218500Y-443000D01*
X231000D01*
X213701Y-438201D02*
Y-434724D01*
X71000Y-199000D02*
X212500D01*
X64000Y-56000D02*
Y-48000D01*
X342000Y-457500D02*
Y-429000D01*
X275500D02*
X342000D01*
X305000Y-494500D02*
X342000Y-457500D01*
Y-429000D02*
Y-405000D01*
X291500D02*
X342000D01*
X275500Y-500000D02*
X281000Y-494500D01*
X305000D01*
X42000Y-348000D02*
Y-321590D01*
X20000Y-370000D02*
X42000Y-348000D01*
X37000Y-199000D02*
X58000D01*
X28500Y-207500D02*
X37000Y-199000D01*
X58000D02*
X70866D01*
X10000Y-370000D02*
X20000D01*
X231000Y-443000D02*
X236500Y-437500D01*
X267000D02*
X275500Y-429000D01*
X61000Y-115000D02*
Y-110000D01*
X35500Y-115000D02*
Y-110000D01*
D50*
X364000Y-195000D02*
X385500Y-216500D01*
X343000Y-195000D02*
X364000D01*
X51000Y-48000D02*
X64000D01*
X48500D02*
X50937D01*
X157500Y-56500D02*
Y-38094D01*
X20055Y-74343D02*
X32842D01*
D51*
X53791Y-69500D02*
Y-62791D01*
X64028Y-69500D02*
Y-56028D01*
X61468Y-69500D02*
Y-61968D01*
X56350Y-79850D02*
Y-69500D01*
Y-61350D01*
X225169Y-205043D02*
Y-199169D01*
X212500Y-236943D02*
Y-199000D01*
X71000Y-91500D02*
X74264Y-94764D01*
Y-99500D02*
Y-94764D01*
X57500Y-58000D02*
Y-56000D01*
Y-58000D02*
X61468Y-61968D01*
X51000Y-56000D02*
X56350Y-61350D01*
X113232Y-205244D02*
X126000D01*
X112976Y-205500D02*
X113232Y-205244D01*
X30500Y-163500D02*
X98500D01*
X87000Y-192000D02*
X90000Y-195000D01*
X87000Y-192000D02*
Y-190500D01*
X27500Y-166500D02*
X30500Y-163500D01*
X27500Y-172000D02*
Y-166500D01*
X267000Y-450000D02*
Y-447500D01*
X261000Y-456000D02*
X267000Y-450000D01*
X261000Y-462000D02*
Y-456000D01*
X277000Y-453000D02*
Y-447500D01*
Y-453000D02*
X280000Y-456000D01*
Y-462000D02*
Y-456000D01*
X128500Y-260043D02*
Y-247374D01*
X131500Y-263043D02*
X138169D01*
X128500Y-260043D02*
X131500Y-263043D01*
X128000Y-209244D02*
X134000D01*
X128000D02*
Y-207244D01*
X126000Y-205244D02*
X128000Y-207244D01*
X138169Y-263043D02*
X144169D01*
X148989Y-93600D02*
X182000D01*
X146389Y-91000D02*
X148989Y-93600D01*
X148378Y-96100D02*
X189900D01*
X139200Y-98300D02*
X186300D01*
X145878Y-93600D02*
X148378Y-96100D01*
X175000Y-88000D02*
Y-60000D01*
X137500Y-100000D02*
X139200Y-98300D01*
X186300D02*
X187000Y-99000D01*
X125100Y-93600D02*
X145878D01*
X127500Y-91000D02*
X146389D01*
X189900Y-96100D02*
X190000Y-96000D01*
X146000Y-87500D02*
X149500Y-91000D01*
X179000D01*
X136500Y-87500D02*
X146000D01*
X67000Y-121500D02*
X73000D01*
X73000Y-133000D02*
Y-121500D01*
Y-115000D02*
X83000Y-125000D01*
Y-133000D02*
Y-125000D01*
X29500Y-115000D02*
X35500Y-121000D01*
X23500Y-115000D02*
X29500D01*
X17500D02*
X23500Y-121000D01*
Y-124000D02*
Y-121500D01*
Y-124000D02*
X27500Y-128000D01*
Y-133000D02*
Y-128000D01*
X29500Y-123500D02*
Y-121500D01*
Y-123500D02*
X32000Y-126000D01*
X36000D01*
X37500Y-127500D01*
Y-133000D02*
Y-127500D01*
Y-184000D02*
Y-172000D01*
X27500Y-180500D02*
X37500Y-190500D01*
X27500Y-180500D02*
Y-172000D01*
X37500Y-184000D02*
X43500D01*
X81500Y-190500D02*
X87000D01*
X75000Y-184000D02*
X81500Y-190500D01*
X87000Y-184000D02*
X93000Y-190000D01*
X87000Y-184000D02*
Y-181000D01*
X83000Y-177000D02*
X87000Y-181000D01*
X83000Y-177000D02*
Y-172000D01*
X81000Y-184000D02*
Y-181000D01*
X79000Y-179000D02*
X81000Y-181000D01*
X75000Y-179000D02*
X79000D01*
X73000Y-177000D02*
X75000Y-179000D01*
X73000Y-177000D02*
Y-172000D01*
X39500Y-61000D02*
X52000D01*
X53791Y-62791D01*
X50228Y-67000D02*
X51232Y-68004D01*
X39500Y-67000D02*
X50228D01*
X44500Y-106500D02*
X75500D01*
X76823Y-105177D01*
Y-99500D01*
X56350Y-92150D02*
X56500Y-92000D01*
X56350Y-99500D02*
Y-92150D01*
X71705Y-78295D02*
Y-69500D01*
X61000Y-89000D02*
X71705Y-78295D01*
X54785Y-89000D02*
X61000D01*
X47785Y-96000D02*
X54785Y-89000D01*
X39500Y-96000D02*
X47785D01*
X69146Y-77743D02*
Y-69500D01*
X60089Y-86800D02*
X69146Y-77743D01*
X53873Y-86800D02*
X60089D01*
X48173Y-92500D02*
X53873Y-86800D01*
X39500Y-92500D02*
X48173D01*
X56350Y-79850D02*
X59000Y-82500D01*
X76823Y-99500D02*
Y-92823D01*
X75500Y-91500D02*
X76823Y-92823D01*
X84500Y-99500D02*
Y-94500D01*
X81500Y-91500D02*
X84500Y-94500D01*
X79500Y-91500D02*
X81500D01*
X79382Y-75382D02*
Y-68004D01*
Y-75382D02*
X79500Y-75500D01*
X73000Y-115000D02*
X75000D01*
X77500Y-112500D01*
X29500Y-115000D02*
Y-111000D01*
X195595Y-45594D02*
Y-43492D01*
Y-45594D02*
X203500Y-53500D01*
X275000Y-111500D02*
Y-97500D01*
Y-119000D02*
Y-111500D01*
X286250Y-126000D02*
X289500D01*
X283000Y-122750D02*
X286250Y-126000D01*
X275000Y-133000D02*
Y-126500D01*
X229000Y-107000D02*
Y-100500D01*
X235500Y-107000D02*
X240500D01*
X250000Y-97500D01*
X237000Y-96750D02*
Y-87000D01*
X235500Y-113000D02*
Y-107000D01*
X245000Y-135000D02*
Y-126000D01*
X228000Y-65000D02*
X233500Y-70500D01*
X211000Y-65000D02*
X228000D01*
X207000Y-69000D02*
X211000Y-65000D01*
X237000Y-87000D02*
X251000D01*
X255000Y-91000D01*
Y-126000D02*
Y-91000D01*
X207000Y-104000D02*
X229000Y-126000D01*
X235000D01*
X207000Y-104000D02*
Y-69000D01*
X118000Y-236244D02*
X121500Y-239744D01*
X32500Y-392500D02*
X33000D01*
X25000Y-385000D02*
X32500Y-392500D01*
X15000Y-385000D02*
X25000D01*
X10000Y-380000D02*
X15000Y-385000D01*
X33000Y-404500D02*
Y-398500D01*
X30500Y-410500D02*
X33000D01*
X25000Y-405000D02*
X30500Y-410500D01*
X15000Y-405000D02*
X25000D01*
X10000Y-400000D02*
X15000Y-405000D01*
X26500Y-416500D02*
X33000D01*
X25000Y-415000D02*
X26500Y-416500D01*
X10000Y-415000D02*
X25000D01*
X33000Y-427000D02*
Y-422500D01*
X25000Y-435000D02*
X33000Y-427000D01*
X15000Y-435000D02*
X25000D01*
X10000Y-440000D02*
X15000Y-435000D01*
X36250Y-407250D02*
X39500Y-410500D01*
X36250Y-407250D02*
Y-401750D01*
X39500Y-398500D01*
X122500Y-91000D02*
X125100Y-93600D01*
X90000Y-195000D02*
X120600D01*
X150000Y-165600D01*
X156500D01*
D52*
X333000Y-345000D02*
D03*
Y-355000D02*
D03*
Y-195000D02*
D03*
X343000D02*
D03*
X20000Y-320590D02*
D03*
X10000D02*
D03*
X20000Y-310591D02*
D03*
X10000D02*
D03*
X20000Y-300590D02*
D03*
X10000D02*
D03*
X20000Y-290591D02*
D03*
X10000D02*
D03*
X20000Y-280591D02*
D03*
X10000D02*
D03*
X20000Y-270590D02*
D03*
X10000D02*
D03*
X20000Y-260591D02*
D03*
X10000D02*
D03*
X20000Y-250590D02*
D03*
X10000D02*
D03*
X20000Y-240591D02*
D03*
X10000D02*
D03*
X20000Y-230591D02*
D03*
X376142Y-320590D02*
D03*
X366142D02*
D03*
X376142Y-310591D02*
D03*
X366142D02*
D03*
X376142Y-300590D02*
D03*
X366142D02*
D03*
X376142Y-290591D02*
D03*
X366142D02*
D03*
X376142Y-280591D02*
D03*
X366142D02*
D03*
X376142Y-270590D02*
D03*
X366142D02*
D03*
X376142Y-260591D02*
D03*
X366142D02*
D03*
X376142Y-250590D02*
D03*
X366142D02*
D03*
X376142Y-240591D02*
D03*
X366142D02*
D03*
X376142Y-230591D02*
D03*
X20000Y-460000D02*
D03*
X10000D02*
D03*
X20000Y-450000D02*
D03*
X10000D02*
D03*
X20000Y-440000D02*
D03*
X10000D02*
D03*
X20000Y-430000D02*
D03*
X10000D02*
D03*
X20000Y-420000D02*
D03*
X10000D02*
D03*
X20000Y-410000D02*
D03*
X10000D02*
D03*
X20000Y-400000D02*
D03*
X10000D02*
D03*
X20000Y-390000D02*
D03*
X10000D02*
D03*
X20000Y-380000D02*
D03*
X10000D02*
D03*
X20000Y-370000D02*
D03*
X137500Y-100000D02*
D03*
X127500D02*
D03*
X255000Y-126000D02*
D03*
X245000D02*
D03*
X267000Y-447500D02*
D03*
Y-437500D02*
D03*
X277000Y-447500D02*
D03*
Y-437500D02*
D03*
X257000D02*
D03*
Y-447500D02*
D03*
X345000Y-15000D02*
D03*
D53*
X300000Y-54937D02*
D03*
D54*
Y-30528D02*
D03*
D55*
X280315Y-42339D02*
D03*
D56*
X228311Y-43492D02*
D03*
X222858Y-32311D02*
D03*
X217406Y-43492D02*
D03*
X211953Y-32311D02*
D03*
X206500Y-43492D02*
D03*
X201047Y-32311D02*
D03*
X195595Y-43492D02*
D03*
X190142Y-32311D02*
D03*
D57*
X184689Y-43492D02*
D03*
D58*
X157307Y-37902D02*
D03*
X255693D02*
D03*
D59*
X102500Y-18500D02*
D03*
D60*
X122500D02*
D03*
D61*
X10000Y-230591D02*
D03*
X366142D02*
D03*
X10000Y-370000D02*
D03*
D62*
X117500Y-100000D02*
D03*
X235000Y-126000D02*
D03*
X335000Y-15000D02*
D03*
D63*
X375000Y-175000D02*
D03*
X15000Y-340000D02*
D03*
X232500Y-365000D02*
D03*
X375000Y-350000D02*
D03*
X15000Y-490000D02*
D03*
Y-197500D02*
D03*
X265000Y-65000D02*
D03*
X13000Y-107000D02*
D03*
X127500Y-372500D02*
D03*
X215000Y-365000D02*
D03*
X335000Y-165500D02*
D03*
X147500Y-372500D02*
D03*
X137500D02*
D03*
X118500Y-419500D02*
D03*
X370500Y-76000D02*
D03*
X333000Y-367500D02*
D03*
X318500Y-97500D02*
D03*
X366500Y-50000D02*
D03*
X7500Y-125000D02*
D03*
X250000Y-97500D02*
D03*
X260000D02*
D03*
X201850Y-324941D02*
D03*
X151850Y-147500D02*
D03*
X161850D02*
D03*
X141850D02*
D03*
X171850D02*
D03*
X181850D02*
D03*
X191850D02*
D03*
X211850D02*
D03*
X221850D02*
D03*
X231850D02*
D03*
X201850D02*
D03*
X241850D02*
D03*
X251850D02*
D03*
Y-324941D02*
D03*
X241850D02*
D03*
X231850D02*
D03*
X221850D02*
D03*
X211850D02*
D03*
X191850D02*
D03*
X181850D02*
D03*
X171850D02*
D03*
X161850D02*
D03*
X151850D02*
D03*
X141850D02*
D03*
X275000Y-97500D02*
D03*
X285000D02*
D03*
D64*
X223500Y-70500D02*
D03*
X233500D02*
D03*
X213500D02*
D03*
D66*
X9425Y-78280D02*
D03*
Y-50721D02*
D03*
D67*
X20055Y-74343D02*
D03*
Y-54658D02*
D03*
D68*
X345000Y-210000D02*
D03*
X300000Y-125000D02*
D03*
Y-225000D02*
D03*
X265000Y-215000D02*
D03*
X200000Y-250000D02*
D03*
Y-230000D02*
D03*
X142500Y-237500D02*
D03*
X132500D02*
D03*
X120000Y-260000D02*
D03*
X115000Y-245000D02*
D03*
X310000Y-480000D02*
D03*
X330000Y-460000D02*
D03*
X345000Y-370000D02*
D03*
X360000Y-350000D02*
D03*
X277500Y-415000D02*
D03*
X275500Y-500000D02*
D03*
X121000D02*
D03*
X300000Y-480000D02*
D03*
X333500Y-415000D02*
D03*
X295000Y-140000D02*
D03*
X327500Y-290500D02*
D03*
X320000Y-315500D02*
D03*
X318500Y-313000D02*
D03*
X325000Y-310500D02*
D03*
X318500Y-308000D02*
D03*
X325000Y-273000D02*
D03*
X327500Y-270500D02*
D03*
X325000Y-268000D02*
D03*
Y-240500D02*
D03*
X318500Y-243500D02*
D03*
X243500Y-274000D02*
D03*
X220000Y-271000D02*
D03*
X297500Y-355000D02*
D03*
X295000Y-362500D02*
D03*
X292500Y-360000D02*
D03*
X290000Y-367500D02*
D03*
X287500Y-372500D02*
D03*
X243500Y-431500D02*
D03*
X245000Y-475000D02*
D03*
X320000Y-332500D02*
D03*
X317500Y-335000D02*
D03*
X315000Y-337500D02*
D03*
X312500Y-345000D02*
D03*
X310000Y-342500D02*
D03*
X307500Y-345000D02*
D03*
X305000Y-347500D02*
D03*
X302500Y-350000D02*
D03*
X300000Y-380000D02*
D03*
X285000Y-252500D02*
D03*
X71000Y-199000D02*
D03*
X57500Y-312500D02*
D03*
X55000Y-315000D02*
D03*
X60000Y-310000D02*
D03*
X65000D02*
D03*
X50000Y-320000D02*
D03*
X57500Y-367500D02*
D03*
X118500Y-462500D02*
D03*
X152500Y-451000D02*
D03*
X130000Y-456000D02*
D03*
X125000Y-455000D02*
D03*
X122500Y-457500D02*
D03*
Y-465000D02*
D03*
X155000Y-448500D02*
D03*
X293500Y-438500D02*
D03*
X46000Y-243500D02*
D03*
X55000Y-365000D02*
D03*
X50000Y-432500D02*
D03*
X52500Y-430000D02*
D03*
Y-417500D02*
D03*
X232500Y-477500D02*
D03*
X287500Y-394000D02*
D03*
X265000D02*
D03*
X110000Y-507500D02*
D03*
X137500D02*
D03*
X205000Y-490000D02*
D03*
X192500D02*
D03*
X50000Y-365000D02*
D03*
X102500Y-402500D02*
D03*
X235000Y-460000D02*
D03*
X237500Y-457500D02*
D03*
X240000Y-455000D02*
D03*
X242500Y-452500D02*
D03*
X207500Y-460000D02*
D03*
X210000Y-457500D02*
D03*
X212500Y-455000D02*
D03*
X215000Y-452500D02*
D03*
X230000Y-465000D02*
D03*
X232500Y-462500D02*
D03*
X226000Y-467500D02*
D03*
X192500Y-470000D02*
D03*
X180000Y-460000D02*
D03*
X186500Y-467500D02*
D03*
X46000Y-249500D02*
D03*
Y-273500D02*
D03*
Y-279500D02*
D03*
Y-303500D02*
D03*
Y-291500D02*
D03*
Y-285500D02*
D03*
Y-297500D02*
D03*
Y-309500D02*
D03*
X52500Y-317500D02*
D03*
X46000Y-267500D02*
D03*
Y-261591D02*
D03*
X137500Y-270000D02*
D03*
X134500Y-272500D02*
D03*
X148000Y-256500D02*
D03*
X134500D02*
D03*
X182500Y-457500D02*
D03*
X171421Y-438579D02*
D03*
X122500Y-445000D02*
D03*
X120000Y-447500D02*
D03*
X122500Y-450000D02*
D03*
X120000Y-452500D02*
D03*
X115000Y-442500D02*
D03*
X112500Y-392500D02*
D03*
X107500Y-437500D02*
D03*
X105000Y-405500D02*
D03*
X110000Y-390000D02*
D03*
X107500Y-392500D02*
D03*
X105000Y-390000D02*
D03*
X102500Y-392500D02*
D03*
X100000Y-390000D02*
D03*
X97500Y-392500D02*
D03*
X95000Y-390000D02*
D03*
X110000Y-427500D02*
D03*
X97500Y-425000D02*
D03*
X95000Y-427500D02*
D03*
X92500Y-392500D02*
D03*
X90000Y-390000D02*
D03*
X80000Y-416000D02*
D03*
Y-385000D02*
D03*
X87500Y-392500D02*
D03*
X60000Y-370000D02*
D03*
X62500Y-372500D02*
D03*
X65000Y-375000D02*
D03*
X67500Y-377500D02*
D03*
X70000Y-380000D02*
D03*
X75000D02*
D03*
X77500Y-382500D02*
D03*
X85000Y-390000D02*
D03*
X82500Y-387500D02*
D03*
X87500Y-412500D02*
D03*
X85000Y-410000D02*
D03*
X82500Y-397500D02*
D03*
X75000Y-410000D02*
D03*
X77500Y-412500D02*
D03*
X127500Y-417500D02*
D03*
X226500Y-450000D02*
D03*
X228000Y-431500D02*
D03*
X236000Y-447500D02*
D03*
X238500Y-445000D02*
D03*
X175000Y-88000D02*
D03*
X187000Y-99000D02*
D03*
X190000Y-96000D02*
D03*
X122500Y-91000D02*
D03*
X182000Y-93500D02*
D03*
X179000Y-91000D02*
D03*
X136500Y-87500D02*
D03*
X127500Y-91000D02*
D03*
X162201Y-413224D02*
D03*
Y-416724D02*
D03*
Y-407724D02*
D03*
X167701Y-393724D02*
D03*
X162201Y-422724D02*
D03*
X181201Y-437724D02*
D03*
X208201Y-396724D02*
D03*
Y-403224D02*
D03*
Y-421724D02*
D03*
Y-425724D02*
D03*
X185201Y-391724D02*
D03*
X203201D02*
D03*
X164201Y-436224D02*
D03*
Y-395724D02*
D03*
X28000Y-62000D02*
D03*
Y-66000D02*
D03*
X48500Y-48000D02*
D03*
X51000D02*
D03*
X35500Y-110000D02*
D03*
X61000D02*
D03*
X56500Y-92000D02*
D03*
X39500Y-92500D02*
D03*
Y-96000D02*
D03*
X59000Y-82500D02*
D03*
X71000Y-91500D02*
D03*
X79500D02*
D03*
X75500D02*
D03*
X79500Y-75500D02*
D03*
X29500Y-111000D02*
D03*
X77500Y-112500D02*
D03*
Y-42500D02*
D03*
X80000Y-60000D02*
D03*
X90000D02*
D03*
Y-80000D02*
D03*
Y-100000D02*
D03*
Y-120000D02*
D03*
X5000Y-87500D02*
D03*
Y-110000D02*
D03*
Y-130000D02*
D03*
X50000Y-120000D02*
D03*
X67000Y-89000D02*
D03*
X64500Y-91000D02*
D03*
X76000Y-79500D02*
D03*
X77500Y-85000D02*
D03*
X5000Y-42500D02*
D03*
X25000D02*
D03*
X45000D02*
D03*
X52500D02*
D03*
X45000Y-73000D02*
D03*
Y-79000D02*
D03*
X22500Y-107500D02*
D03*
X34000Y-104000D02*
D03*
X43000Y-89000D02*
D03*
X62000Y-78000D02*
D03*
X175000Y-60000D02*
D03*
X203500Y-53500D02*
D03*
X35000Y-80000D02*
D03*
X23500D02*
D03*
X159500Y-350000D02*
D03*
X162000Y-345000D02*
D03*
X167000Y-357500D02*
D03*
X169500Y-342500D02*
D03*
X172000Y-347500D02*
D03*
X174500Y-355000D02*
D03*
X182000Y-345500D02*
D03*
X184500Y-362500D02*
D03*
X282500Y-255000D02*
D03*
X203500Y-359000D02*
D03*
X177000Y-360000D02*
D03*
X67500Y-307500D02*
D03*
X70000Y-305000D02*
D03*
X72500Y-302500D02*
D03*
X25000Y-475000D02*
D03*
Y-500000D02*
D03*
X50000D02*
D03*
Y-525000D02*
D03*
X75000D02*
D03*
Y-500000D02*
D03*
X175000Y-525000D02*
D03*
X200000D02*
D03*
X225000D02*
D03*
Y-500000D02*
D03*
X325000Y-525000D02*
D03*
Y-500000D02*
D03*
X350000D02*
D03*
X375000D02*
D03*
X350000Y-525000D02*
D03*
Y-475000D02*
D03*
X375000D02*
D03*
Y-450000D02*
D03*
X350000D02*
D03*
Y-425000D02*
D03*
X375000D02*
D03*
Y-400000D02*
D03*
Y-375000D02*
D03*
X45000Y-440000D02*
D03*
Y-455000D02*
D03*
X15000Y-330000D02*
D03*
Y-360000D02*
D03*
Y-185000D02*
D03*
Y-210000D02*
D03*
X45000D02*
D03*
Y-230000D02*
D03*
X105000Y-30000D02*
D03*
X115000Y-35000D02*
D03*
X175000Y-25000D02*
D03*
Y-50000D02*
D03*
X235000Y-25000D02*
D03*
Y-50000D02*
D03*
X205000Y-25000D02*
D03*
X250000Y-75000D02*
D03*
X275000D02*
D03*
X300000Y-10000D02*
D03*
X127500Y-180000D02*
D03*
X150000D02*
D03*
X175000D02*
D03*
X200000D02*
D03*
X225000D02*
D03*
X250000D02*
D03*
X150000Y-210000D02*
D03*
X175000D02*
D03*
X200000D02*
D03*
X150000Y-265000D02*
D03*
X175000D02*
D03*
X200000D02*
D03*
X125000Y-290000D02*
D03*
X150000D02*
D03*
X175000D02*
D03*
X200000D02*
D03*
X225000D02*
D03*
X250000Y-225000D02*
D03*
Y-250000D02*
D03*
Y-300000D02*
D03*
X265000Y-250000D02*
D03*
Y-275000D02*
D03*
X250000Y-270000D02*
D03*
X265000Y-315000D02*
D03*
X300000Y-250000D02*
D03*
X295000Y-260000D02*
D03*
X280000Y-180000D02*
D03*
X300000Y-200000D02*
D03*
X285000Y-205000D02*
D03*
X325000Y-195000D02*
D03*
Y-205000D02*
D03*
Y-215000D02*
D03*
X300000Y-150000D02*
D03*
Y-170000D02*
D03*
X170000Y-430000D02*
D03*
X176000Y-436500D02*
D03*
X202500Y-425000D02*
D03*
X195000Y-430000D02*
D03*
X187500Y-437500D02*
D03*
X205000Y-430000D02*
D03*
Y-437500D02*
D03*
X195000D02*
D03*
Y-415000D02*
D03*
X190000D02*
D03*
X185000D02*
D03*
Y-422500D02*
D03*
X190000D02*
D03*
X185000Y-427500D02*
D03*
X172500Y-392500D02*
D03*
X180000D02*
D03*
X175000Y-400000D02*
D03*
X182500D02*
D03*
X197500Y-392500D02*
D03*
X200000Y-397500D02*
D03*
X161500Y-430000D02*
D03*
X164000Y-401000D02*
D03*
X237500Y-406000D02*
D03*
X247500D02*
D03*
X257500D02*
D03*
X267500D02*
D03*
X240000Y-417500D02*
D03*
X270000Y-415000D02*
D03*
Y-422500D02*
D03*
X258500Y-428500D02*
D03*
X282500Y-421500D02*
D03*
X290000D02*
D03*
X284000Y-411000D02*
D03*
X272500Y-382500D02*
D03*
X277500Y-370000D02*
D03*
X285000Y-354000D02*
D03*
X265000Y-362500D02*
D03*
X245000D02*
D03*
X232500Y-375000D02*
D03*
X242500Y-387500D02*
D03*
X227500Y-390000D02*
D03*
X60000Y-440000D02*
D03*
X75000Y-455000D02*
D03*
Y-470000D02*
D03*
X60000Y-455000D02*
D03*
Y-470000D02*
D03*
X310000Y-410000D02*
D03*
Y-420000D02*
D03*
X350000Y-25000D02*
D03*
X380000Y-45000D02*
D03*
X340000Y-60000D02*
D03*
X315000Y-65000D02*
D03*
X275000Y-55000D02*
D03*
X250000D02*
D03*
X147500Y-112500D02*
D03*
X135000Y-125000D02*
D03*
X150000D02*
D03*
X200000Y-70000D02*
D03*
Y-85000D02*
D03*
Y-100000D02*
D03*
Y-115000D02*
D03*
X215000Y-125000D02*
D03*
X235000Y-135000D02*
D03*
X270000Y-115000D02*
D03*
Y-130000D02*
D03*
X245000Y-115000D02*
D03*
X310000Y-102500D02*
D03*
X335000Y-100000D02*
D03*
Y-125000D02*
D03*
Y-150000D02*
D03*
Y-175000D02*
D03*
X375000Y-150000D02*
D03*
Y-100000D02*
D03*
X380000Y-200000D02*
D03*
X360000Y-220000D02*
D03*
X300000Y-277500D02*
D03*
X295000Y-282500D02*
D03*
X347500Y-262500D02*
D03*
Y-277500D02*
D03*
X345000Y-330000D02*
D03*
X335000Y-380000D02*
D03*
Y-395000D02*
D03*
X327500Y-325000D02*
D03*
X326500Y-350000D02*
D03*
X337000Y-360000D02*
D03*
X309000Y-385000D02*
D03*
X297000Y-410000D02*
D03*
X310000Y-438000D02*
D03*
X287000Y-442000D02*
D03*
X160000Y-494000D02*
D03*
X170000D02*
D03*
X180000D02*
D03*
X95000Y-485000D02*
D03*
X150000Y-445000D02*
D03*
X141000D02*
D03*
X131000D02*
D03*
X97000Y-431000D02*
D03*
X120000Y-370000D02*
D03*
Y-380000D02*
D03*
X154000Y-381000D02*
D03*
X146000Y-389000D02*
D03*
X120000Y-335000D02*
D03*
X130000D02*
D03*
X140000D02*
D03*
X150000D02*
D03*
X125000Y-321000D02*
D03*
X156000Y-320000D02*
D03*
X166000Y-318000D02*
D03*
X174000D02*
D03*
X135000Y-321000D02*
D03*
X185000Y-318000D02*
D03*
X195000Y-315000D02*
D03*
X203000Y-318000D02*
D03*
X208000Y-311000D02*
D03*
X214000Y-317000D02*
D03*
X218000Y-311000D02*
D03*
X224000Y-317000D02*
D03*
X228000Y-311000D02*
D03*
X234000Y-317000D02*
D03*
X238000Y-311000D02*
D03*
X244000Y-317000D02*
D03*
X48000Y-353000D02*
D03*
X39000Y-377000D02*
D03*
X261000Y-156000D02*
D03*
X275000Y-150000D02*
D03*
X115000Y-110000D02*
D03*
Y-125000D02*
D03*
X140000Y-67000D02*
D03*
Y-81000D02*
D03*
X150000Y-60000D02*
D03*
Y-73000D02*
D03*
X127000Y-71000D02*
D03*
X228000Y-77000D02*
D03*
X220000Y-95000D02*
D03*
Y-103000D02*
D03*
X197000Y-155000D02*
D03*
X208000D02*
D03*
X223000Y-158000D02*
D03*
X231000Y-155000D02*
D03*
X242000Y-157000D02*
D03*
X213000Y-137000D02*
D03*
X220000D02*
D03*
X203000Y-139000D02*
D03*
X190000Y-140000D02*
D03*
X180000D02*
D03*
X170000D02*
D03*
X190000Y-128000D02*
D03*
X205000D02*
D03*
X190000Y-119000D02*
D03*
X215000Y-447000D02*
D03*
X56000Y-180000D02*
D03*
Y-187500D02*
D03*
X117500Y-190000D02*
D03*
X137500Y-170000D02*
D03*
X208500Y-409000D02*
D03*
X224500Y-242000D02*
D03*
X228500Y-230500D02*
D03*
X220500Y-218500D02*
D03*
X230000Y-470000D02*
D03*
Y-475000D02*
D03*
X270000Y-490000D02*
D03*
X282500Y-507500D02*
D03*
X263500D02*
D03*
X66500Y-110000D02*
D03*
D69*
X28500Y-207500D02*
D03*
X385500Y-216500D02*
D03*
X287500Y-187500D02*
D03*
D70*
X201000Y-371500D02*
D03*
Y-385000D02*
D03*
D71*
X141000Y-407500D02*
D03*
X127500D02*
D03*
D72*
X225669Y-221189D02*
D03*
X240669D02*
D03*
X235669D02*
D03*
X230669Y-251897D02*
D03*
X225669D02*
D03*
X240669D02*
D03*
X230669Y-221189D02*
D03*
X235669Y-251897D02*
D03*
X175169Y-247173D02*
D03*
Y-225913D02*
D03*
X165169Y-247173D02*
D03*
X160169Y-225913D02*
D03*
X165169D02*
D03*
X160169Y-247173D02*
D03*
X170169D02*
D03*
Y-225913D02*
D03*
X143500Y-247374D02*
D03*
Y-226114D02*
D03*
X133500Y-247374D02*
D03*
X128500Y-226114D02*
D03*
X133500D02*
D03*
X128500Y-247374D02*
D03*
X138500D02*
D03*
Y-226114D02*
D03*
D73*
X27500Y-172000D02*
D03*
X37500D02*
D03*
Y-133000D02*
D03*
X27500D02*
D03*
X17500D02*
D03*
X47500D02*
D03*
Y-172000D02*
D03*
X17500D02*
D03*
X83000Y-133000D02*
D03*
X73000D02*
D03*
Y-172000D02*
D03*
X83000D02*
D03*
X93000D02*
D03*
X63000D02*
D03*
Y-133000D02*
D03*
X93000D02*
D03*
D74*
X229000Y-93000D02*
D03*
Y-100500D02*
D03*
X275000Y-119000D02*
D03*
Y-126500D02*
D03*
D75*
X237000Y-96750D02*
D03*
X283000Y-122750D02*
D03*
D76*
X248500Y-8000D02*
X255693Y-15193D01*
Y-37902D02*
Y-15193D01*
X157307Y-37902D02*
Y-15693D01*
X165000Y-8000D01*
X248500D01*
M02*
