M48
;Layer_Color=9474304
;FILE_FORMAT=2:5
INCH,TZ
;TYPE=PLATED
T1F00S00C0.01200
T2F00S00C0.01500
T3F00S00C0.03150
T4F00S00C0.03200
T5F00S00C0.03500
T6F00S00C0.03543
T7F00S00C0.03600
T9F00S00C0.04000
T10F00S00C0.04291
T11F00S00C0.05512
T12F00S00C0.12835
%
T01
X225000Y-525000
X325000
X350000
X200000
X175000
X75000
X50000
X25000Y-500000
Y-475000
X45000Y-455000
Y-440000
X39000Y-377000
X50000Y-365000
X55000
X57500Y-367500
X60000Y-370000
X62500Y-372500
X65000Y-375000
X67500Y-377500
X70000Y-380000
X75000
X77500Y-382500
X80000Y-385000
X82500Y-387500
X85000Y-390000
X90000
X95000
X100000
X105000
X110000
X112500Y-392500
X107500
X102500
X97500
X92500
X87500
X82500Y-397500
X85000Y-410000
X87500Y-412500
X77500
X75000Y-410000
X80000Y-416000
X97500Y-425000
X95000Y-427500
X97000Y-431000
X110000Y-427500
X107500Y-437500
X115000Y-442500
X122500Y-445000
X120000Y-447500
X122500Y-450000
X120000Y-452500
X125000Y-455000
X122500Y-457500
Y-465000
X118500Y-462500
X130000Y-456000
X131000Y-445000
X141000
X150000
X152500Y-451000
X155000Y-448500
X164201Y-436224
X161500Y-430000
X162201Y-422724
Y-416724
Y-413224
Y-407724
X164000Y-401000
X164201Y-395724
X167701Y-393724
X172500Y-392500
X180000
X185201Y-391724
X182500Y-400000
X175000
X185000Y-415000
X190000
X195000
X190000Y-422500
X185000
Y-427500
X195000Y-430000
Y-437500
X187500
X181201Y-437724
X176000Y-436500
X171421Y-438579
X170000Y-430000
X205000
X202500Y-425000
X205000Y-437500
X182500Y-457500
X180000Y-460000
X186500Y-467500
X192500Y-470000
Y-490000
X205000
X180000Y-494000
X170000
X160000
X137500Y-507500
X121000Y-500000
X110000Y-507500
X95000Y-485000
X75000Y-500000
X50000
X60000Y-470000
X75000
Y-455000
X60000
Y-440000
X50000Y-432500
X52500Y-430000
Y-417500
X105000Y-405500
X102500Y-402500
X127500Y-417500
X120000Y-380000
Y-370000
X154000Y-381000
X146000Y-389000
X197500Y-392500
X203201Y-391724
X200000Y-397500
X208201Y-396724
Y-403224
X208500Y-409000
X208201Y-421724
Y-425724
X228000Y-431500
X243500
X240000Y-417500
X237500Y-406000
X247500
X257500
X267500
X270000Y-415000
X277500
X284000Y-411000
X282500Y-421500
X290000
X297000Y-410000
X310000
Y-420000
Y-438000
X293500Y-438500
X287000Y-442000
X270000Y-422500
X258500Y-428500
X238500Y-445000
X236000Y-447500
X237500Y-457500
X235000Y-460000
X232500Y-462500
X230000Y-465000
Y-470000
Y-475000
X232500Y-477500
X245000Y-475000
X240000Y-455000
X242500Y-452500
X226500Y-450000
X215000Y-452500
X212500Y-455000
X210000Y-457500
X207500Y-460000
X215000Y-447000
X226000Y-467500
X225000Y-500000
X263500Y-507500
X282500
X275500Y-500000
X270000Y-490000
X300000Y-480000
X310000
X325000Y-500000
X350000
Y-475000
Y-450000
Y-425000
X333500Y-415000
X335000Y-395000
Y-380000
X345000Y-370000
X309000Y-385000
X300000Y-380000
X287500Y-372500
X290000Y-367500
X277500Y-370000
X272500Y-382500
X265000Y-394000
X287500
X242500Y-387500
X227500Y-390000
X232500Y-375000
X330000Y-460000
X375000Y-450000
Y-475000
Y-500000
Y-425000
Y-400000
Y-375000
X360000Y-350000
X337000Y-360000
X326500Y-350000
X312500Y-345000
X310000Y-342500
X307500Y-345000
X305000Y-347500
X302500Y-350000
X297500Y-355000
X295000Y-362500
X292500Y-360000
X285000Y-354000
X265000Y-362500
X245000
X244000Y-317000
X234000
X224000
X214000
X218000Y-311000
X208000
X228000
X238000
X250000Y-300000
Y-270000
X243500Y-274000
X265000Y-275000
Y-250000
X250000
Y-225000
X265000Y-215000
X300000Y-225000
Y-250000
X295000Y-260000
X285000Y-252500
X282500Y-255000
X300000Y-277500
X295000Y-282500
X325000Y-273000
X327500Y-270500
X325000Y-268000
X327500Y-290500
X325000Y-310500
X318500Y-313000
X320000Y-315500
X318500Y-308000
X320000Y-332500
X317500Y-335000
X315000Y-337500
X327500Y-325000
X345000Y-330000
X347500Y-277500
Y-262500
X325000Y-240500
X318500Y-243500
X325000Y-215000
X345000Y-210000
X360000Y-220000
X220500Y-218500
X228500Y-230500
X224500Y-242000
X220000Y-271000
X225000Y-290000
X265000Y-315000
X203000Y-318000
X195000Y-315000
X185000Y-318000
X174000
X166000
X156000Y-320000
X150000Y-335000
X140000
X130000
X120000
X125000Y-321000
X135000
X125000Y-290000
X150000
Y-265000
X148000Y-256500
X134500
Y-272500
X137500Y-270000
X120000Y-260000
X115000Y-245000
X132500Y-237500
X142500
X150000Y-210000
X175000
X200000
Y-230000
Y-250000
Y-265000
X175000
Y-290000
X200000
X203500Y-359000
X184500Y-362500
X177000Y-360000
X174500Y-355000
X167000Y-357500
X159500Y-350000
X162000Y-345000
X169500Y-342500
X172000Y-347500
X182000Y-345500
X65000Y-310000
X60000
X57500Y-312500
X55000Y-315000
X52500Y-317500
X50000Y-320000
X67500Y-307500
X70000Y-305000
X72500Y-302500
X46000Y-303500
Y-297500
Y-291500
Y-285500
Y-279500
Y-273500
Y-267500
Y-261591
Y-249500
Y-243500
X45000Y-230000
Y-210000
X15000
Y-330000
Y-360000
X48000Y-353000
X46000Y-309500
X15000Y-185000
X5000Y-130000
Y-110000
X22500Y-107500
X29500Y-111000
X35500Y-110000
X34000Y-104000
X39500Y-96000
Y-92500
X43000Y-89000
X45000Y-79000
Y-73000
X35000Y-80000
X23500
X28000Y-66000
Y-62000
X5000Y-87500
X56500Y-92000
X64500Y-91000
X67000Y-89000
X71000Y-91500
X75500
X79500
X77500Y-85000
X76000Y-79500
X79500Y-75500
X90000Y-80000
Y-60000
X80000
X62000Y-78000
X59000Y-82500
X61000Y-110000
X66500
X77500Y-112500
X90000Y-120000
Y-100000
X115000Y-110000
Y-125000
X135000
X150000
X147500Y-112500
X136500Y-87500
X140000Y-81000
Y-67000
X150000Y-73000
Y-60000
X175000
Y-88000
X179000Y-91000
X182000Y-93500
X187000Y-99000
X190000Y-96000
X200000Y-100000
Y-85000
Y-70000
X203500Y-53500
X200000Y-115000
X190000Y-119000
Y-128000
Y-140000
X180000
X170000
X203000Y-139000
X205000Y-128000
X197000Y-155000
X200000Y-180000
X175000
X150000
X127500
X117500Y-190000
X137500Y-170000
X127500Y-91000
X122500
X127000Y-71000
X50000Y-120000
X56000Y-180000
Y-187500
X71000Y-199000
X225000Y-180000
X223000Y-158000
X231000Y-155000
X242000Y-157000
X261000Y-156000
X275000Y-150000
X300000
X295000Y-140000
X300000Y-125000
X310000Y-102500
X335000Y-100000
Y-125000
Y-150000
Y-175000
X325000Y-195000
Y-205000
X300000Y-200000
X285000Y-205000
X280000Y-180000
X250000
X300000Y-170000
X270000Y-130000
Y-115000
X245000
X235000Y-135000
X220000Y-137000
X213000
X215000Y-125000
X220000Y-103000
Y-95000
X228000Y-77000
X250000Y-75000
Y-55000
X275000
Y-75000
X315000Y-65000
X340000Y-60000
X208000Y-155000
X375000Y-150000
Y-100000
X380000Y-200000
Y-45000
X350000Y-25000
X300000Y-10000
X235000Y-25000
Y-50000
X205000Y-25000
X175000
Y-50000
X115000Y-35000
X105000Y-30000
X77500Y-42500
X52500
X51000Y-48000
X48500
X45000Y-42500
X25000
X5000
T02
X385500Y-216500
X28500Y-207500
X287500Y-187500
T03
X9425Y-78280
Y-50721
T04
X15000Y-490000
X118500Y-419500
X127500Y-372500
X137500
X147500
X215000Y-365000
X232500
X333000Y-367500
X375000Y-350000
X15000Y-340000
Y-197500
X7500Y-125000
X13000Y-107000
X265000Y-65000
X318500Y-97500
X335000Y-165500
X375000Y-175000
X370500Y-76000
X366500Y-50000
T05
X213500Y-70500
X223500
X233500
T06
X10000Y-460000
X20000
Y-450000
X10000
Y-440000
X20000
Y-430000
X10000
Y-420000
X20000
Y-410000
X10000
Y-400000
X20000
Y-390000
X10000
Y-380000
X20000
Y-370000
X10000
X257000Y-437500
X267000
Y-447500
X277000
Y-437500
X257000Y-447500
X366142Y-320590
X376142
Y-310591
X366142
Y-300590
X376142
Y-290591
X366142
Y-280591
X376142
Y-270590
X366142
Y-260591
X376142
Y-250590
X366142
Y-240591
X376142
Y-230591
X366142
X333000Y-345000
Y-355000
X20000Y-320590
X10000
Y-310591
X20000
Y-300590
X10000
Y-290591
X20000
Y-280591
X10000
Y-270590
X20000
Y-260591
X10000
Y-250590
X20000
Y-240591
X10000
Y-230591
X20000
X20055Y-74343
Y-54658
X117500Y-100000
X127500
X137500
X235000Y-126000
X245000
X255000
X333000Y-195000
X343000
X345000Y-15000
X335000
T07
X211850Y-324941
X221850
X231850
X241850
X251850
X201850
X191850
X181850
X171850
X161850
X151850
X141850
Y-147500
X151850
X161850
X171850
X181850
X191850
X201850
X211850
X221850
X231850
X241850
X251850
T09
X250000Y-97500
X260000
X275000
X285000
T10
X206500Y-43492
X217406
X228311
X222858Y-32311
X211953
X201047
X190142
X184689Y-43492
X195595
T11
X102500Y-18500
X122500
T12
X255693Y-37902
X157307
M30
