%FSLAX25Y25*%
%MOIN*%
G70*
G01*
G75*
G04 Layer_Color=2752767*
%ADD10C,0.00500*%
%ADD11C,0.00667*%
%ADD12C,0.00400*%
D10*
X331000Y-347000D02*
Y-343000D01*
X335000D01*
Y-347000D01*
X331000D01*
Y-357000D02*
Y-353000D01*
X335000D01*
Y-357000D01*
X331000D01*
Y-197000D02*
Y-193000D01*
X335000D01*
Y-197000D01*
X331000D01*
X341000D02*
Y-193000D01*
X345000D01*
Y-197000D01*
X341000D01*
X300000Y-32528D02*
X298000Y-28528D01*
X302000D01*
X300000Y-32528D01*
X280315Y-44339D02*
X278315Y-40339D01*
X282315D01*
X280315Y-44339D01*
X228311Y-45492D02*
X229311Y-44492D01*
X230311D01*
X229311Y-43492D01*
X230311Y-42492D01*
X229311D01*
X228311Y-41492D01*
X227311Y-42492D01*
X226311D01*
X227311Y-43492D01*
X226311Y-44492D01*
X227311D01*
X228311Y-45492D01*
X222858Y-34311D02*
X223858Y-33311D01*
X224858D01*
X223858Y-32311D01*
X224858Y-31311D01*
X223858D01*
X222858Y-30311D01*
X221858Y-31311D01*
X220858D01*
X221858Y-32311D01*
X220858Y-33311D01*
X221858D01*
X222858Y-34311D01*
X217406Y-45492D02*
X218406Y-44492D01*
X219406D01*
X218406Y-43492D01*
X219406Y-42492D01*
X218406D01*
X217406Y-41492D01*
X216406Y-42492D01*
X215406D01*
X216406Y-43492D01*
X215406Y-44492D01*
X216406D01*
X217406Y-45492D01*
X211953Y-34311D02*
X212953Y-33311D01*
X213953D01*
X212953Y-32311D01*
X213953Y-31311D01*
X212953D01*
X211953Y-30311D01*
X210953Y-31311D01*
X209953D01*
X210953Y-32311D01*
X209953Y-33311D01*
X210953D01*
X211953Y-34311D01*
X206500Y-45492D02*
X207500Y-44492D01*
X208500D01*
X207500Y-43492D01*
X208500Y-42492D01*
X207500D01*
X206500Y-41492D01*
X205500Y-42492D01*
X204500D01*
X205500Y-43492D01*
X204500Y-44492D01*
X205500D01*
X206500Y-45492D01*
X201047Y-34311D02*
X202047Y-33311D01*
X203047D01*
X202047Y-32311D01*
X203047Y-31311D01*
X202047D01*
X201047Y-30311D01*
X200047Y-31311D01*
X199047D01*
X200047Y-32311D01*
X199047Y-33311D01*
X200047D01*
X201047Y-34311D01*
X195595Y-45492D02*
X196595Y-44492D01*
X197594D01*
X196595Y-43492D01*
X197594Y-42492D01*
X196595D01*
X195595Y-41492D01*
X194595Y-42492D01*
X193595D01*
X194595Y-43492D01*
X193595Y-44492D01*
X194595D01*
X195595Y-45492D01*
X190142Y-34311D02*
X191142Y-33311D01*
X192142D01*
X191142Y-32311D01*
X192142Y-31311D01*
X191142D01*
X190142Y-30311D01*
X189142Y-31311D01*
X188142D01*
X189142Y-32311D01*
X188142Y-33311D01*
X189142D01*
X190142Y-34311D01*
X184689Y-45492D02*
X185689Y-44492D01*
X186689D01*
X185689Y-43492D01*
X186689Y-42492D01*
X185689D01*
X184689Y-41492D01*
X183689Y-42492D01*
X182689D01*
X183689Y-43492D01*
X182689Y-44492D01*
X183689D01*
X184689Y-45492D01*
X155307Y-39902D02*
X156307Y-37902D01*
X155307Y-35902D01*
X157307Y-36902D01*
X159307Y-35902D01*
X158307Y-37902D01*
X159307Y-39902D01*
X157307Y-38902D01*
X155307Y-39902D01*
X253693D02*
X254693Y-37902D01*
X253693Y-35902D01*
X255693Y-36902D01*
X257693Y-35902D01*
X256693Y-37902D01*
X257693Y-39902D01*
X255693Y-38902D01*
X253693Y-39902D01*
X101500Y-19500D02*
Y-20500D01*
X103500D01*
Y-19500D01*
X104500D01*
Y-17500D01*
X103500D01*
Y-16500D01*
X101500D01*
Y-17500D01*
X100500D01*
Y-19500D01*
X101500D01*
X121500D02*
Y-20500D01*
X123500D01*
Y-19500D01*
X124500D01*
Y-17500D01*
X123500D01*
Y-16500D01*
X121500D01*
Y-17500D01*
X120500D01*
Y-19500D01*
X121500D01*
X18000Y-322590D02*
Y-318590D01*
X22000D01*
Y-322590D01*
X18000D01*
X8000D02*
Y-318590D01*
X12000D01*
Y-322590D01*
X8000D01*
X18000Y-312591D02*
Y-308591D01*
X22000D01*
Y-312591D01*
X18000D01*
X8000D02*
Y-308591D01*
X12000D01*
Y-312591D01*
X8000D01*
X18000Y-302590D02*
Y-298590D01*
X22000D01*
Y-302590D01*
X18000D01*
X8000D02*
Y-298590D01*
X12000D01*
Y-302590D01*
X8000D01*
X18000Y-292590D02*
Y-288591D01*
X22000D01*
Y-292590D01*
X18000D01*
X8000D02*
Y-288591D01*
X12000D01*
Y-292590D01*
X8000D01*
X18000Y-282591D02*
Y-278590D01*
X22000D01*
Y-282591D01*
X18000D01*
X8000D02*
Y-278590D01*
X12000D01*
Y-282591D01*
X8000D01*
X18000Y-272590D02*
Y-268590D01*
X22000D01*
Y-272590D01*
X18000D01*
X8000D02*
Y-268590D01*
X12000D01*
Y-272590D01*
X8000D01*
X18000Y-262591D02*
Y-258591D01*
X22000D01*
Y-262591D01*
X18000D01*
X8000D02*
Y-258591D01*
X12000D01*
Y-262591D01*
X8000D01*
X18000Y-252590D02*
Y-248590D01*
X22000D01*
Y-252590D01*
X18000D01*
X8000D02*
Y-248590D01*
X12000D01*
Y-252590D01*
X8000D01*
X18000Y-242590D02*
Y-238591D01*
X22000D01*
Y-242590D01*
X18000D01*
X8000D02*
Y-238591D01*
X12000D01*
Y-242590D01*
X8000D01*
X18000Y-232591D02*
Y-228590D01*
X22000D01*
Y-232591D01*
X18000D01*
X8000D02*
Y-228590D01*
X12000D01*
Y-232591D01*
X8000D01*
X374142Y-322590D02*
Y-318590D01*
X378142D01*
Y-322590D01*
X374142D01*
X364142D02*
Y-318590D01*
X368142D01*
Y-322590D01*
X364142D01*
X374142Y-312591D02*
Y-308591D01*
X378142D01*
Y-312591D01*
X374142D01*
X364142D02*
Y-308591D01*
X368142D01*
Y-312591D01*
X364142D01*
X374142Y-302590D02*
Y-298590D01*
X378142D01*
Y-302590D01*
X374142D01*
X364142D02*
Y-298590D01*
X368142D01*
Y-302590D01*
X364142D01*
X374142Y-292590D02*
Y-288591D01*
X378142D01*
Y-292590D01*
X374142D01*
X364142D02*
Y-288591D01*
X368142D01*
Y-292590D01*
X364142D01*
X374142Y-282591D02*
Y-278590D01*
X378142D01*
Y-282591D01*
X374142D01*
X364142D02*
Y-278590D01*
X368142D01*
Y-282591D01*
X364142D01*
X374142Y-272590D02*
Y-268590D01*
X378142D01*
Y-272590D01*
X374142D01*
X364142D02*
Y-268590D01*
X368142D01*
Y-272590D01*
X364142D01*
X374142Y-262591D02*
Y-258591D01*
X378142D01*
Y-262591D01*
X374142D01*
X364142D02*
Y-258591D01*
X368142D01*
Y-262591D01*
X364142D01*
X374142Y-252590D02*
Y-248590D01*
X378142D01*
Y-252590D01*
X374142D01*
X364142D02*
Y-248590D01*
X368142D01*
Y-252590D01*
X364142D01*
X374142Y-242590D02*
Y-238591D01*
X378142D01*
Y-242590D01*
X374142D01*
X364142D02*
Y-238591D01*
X368142D01*
Y-242590D01*
X364142D01*
X374142Y-232591D02*
Y-228590D01*
X378142D01*
Y-232591D01*
X374142D01*
X364142D02*
Y-228590D01*
X368142D01*
Y-232591D01*
X364142D01*
X18000Y-462000D02*
Y-458000D01*
X22000D01*
Y-462000D01*
X18000D01*
X8000D02*
Y-458000D01*
X12000D01*
Y-462000D01*
X8000D01*
X18000Y-452000D02*
Y-448000D01*
X22000D01*
Y-452000D01*
X18000D01*
X8000D02*
Y-448000D01*
X12000D01*
Y-452000D01*
X8000D01*
X18000Y-442000D02*
Y-438000D01*
X22000D01*
Y-442000D01*
X18000D01*
X8000D02*
Y-438000D01*
X12000D01*
Y-442000D01*
X8000D01*
X18000Y-432000D02*
Y-428000D01*
X22000D01*
Y-432000D01*
X18000D01*
X8000D02*
Y-428000D01*
X12000D01*
Y-432000D01*
X8000D01*
X18000Y-422000D02*
Y-418000D01*
X22000D01*
Y-422000D01*
X18000D01*
X8000D02*
Y-418000D01*
X12000D01*
Y-422000D01*
X8000D01*
X18000Y-412000D02*
Y-408000D01*
X22000D01*
Y-412000D01*
X18000D01*
X8000D02*
Y-408000D01*
X12000D01*
Y-412000D01*
X8000D01*
X18000Y-402000D02*
Y-398000D01*
X22000D01*
Y-402000D01*
X18000D01*
X8000D02*
Y-398000D01*
X12000D01*
Y-402000D01*
X8000D01*
X18000Y-392000D02*
Y-388000D01*
X22000D01*
Y-392000D01*
X18000D01*
X8000D02*
Y-388000D01*
X12000D01*
Y-392000D01*
X8000D01*
X18000Y-382000D02*
Y-378000D01*
X22000D01*
Y-382000D01*
X18000D01*
X8000D02*
Y-378000D01*
X12000D01*
Y-382000D01*
X8000D01*
X18000Y-372000D02*
Y-368000D01*
X22000D01*
Y-372000D01*
X18000D01*
X8000D02*
Y-368000D01*
X12000D01*
Y-372000D01*
X8000D01*
X135500Y-102000D02*
Y-98000D01*
X139500D01*
Y-102000D01*
X135500D01*
X125500D02*
Y-98000D01*
X129500D01*
Y-102000D01*
X125500D01*
X115500D02*
Y-98000D01*
X119500D01*
Y-102000D01*
X115500D01*
X253000Y-128000D02*
Y-124000D01*
X257000D01*
Y-128000D01*
X253000D01*
X243000D02*
Y-124000D01*
X247000D01*
Y-128000D01*
X243000D01*
X233000D02*
Y-124000D01*
X237000D01*
Y-128000D01*
X233000D01*
X265000Y-449500D02*
Y-445500D01*
X269000D01*
Y-449500D01*
X265000D01*
Y-439500D02*
Y-435500D01*
X269000D01*
Y-439500D01*
X265000D01*
X275000Y-449500D02*
Y-445500D01*
X279000D01*
Y-449500D01*
X275000D01*
Y-439500D02*
Y-435500D01*
X279000D01*
Y-439500D01*
X275000D01*
X255000D02*
Y-435500D01*
X259000D01*
Y-439500D01*
X255000D01*
Y-449500D02*
Y-445500D01*
X259000D01*
Y-449500D01*
X255000D01*
X373000Y-177000D02*
X374000D01*
X375000Y-176000D01*
X376000Y-177000D01*
X377000D01*
Y-176000D01*
X376000Y-175000D01*
X377000Y-174000D01*
Y-173000D01*
X376000D01*
X375000Y-174000D01*
X374000Y-173000D01*
X373000D01*
Y-174000D01*
X374000Y-175000D01*
X373000Y-176000D01*
Y-177000D01*
X13000Y-342000D02*
X14000D01*
X15000Y-341000D01*
X16000Y-342000D01*
X17000D01*
Y-341000D01*
X16000Y-340000D01*
X17000Y-339000D01*
Y-338000D01*
X16000D01*
X15000Y-339000D01*
X14000Y-338000D01*
X13000D01*
Y-339000D01*
X14000Y-340000D01*
X13000Y-341000D01*
Y-342000D01*
X230500Y-367000D02*
X231500D01*
X232500Y-366000D01*
X233500Y-367000D01*
X234500D01*
Y-366000D01*
X233500Y-365000D01*
X234500Y-364000D01*
Y-363000D01*
X233500D01*
X232500Y-364000D01*
X231500Y-363000D01*
X230500D01*
Y-364000D01*
X231500Y-365000D01*
X230500Y-366000D01*
Y-367000D01*
X373000Y-352000D02*
X374000D01*
X375000Y-351000D01*
X376000Y-352000D01*
X377000D01*
Y-351000D01*
X376000Y-350000D01*
X377000Y-349000D01*
Y-348000D01*
X376000D01*
X375000Y-349000D01*
X374000Y-348000D01*
X373000D01*
Y-349000D01*
X374000Y-350000D01*
X373000Y-351000D01*
Y-352000D01*
X13000Y-492000D02*
X14000D01*
X15000Y-491000D01*
X16000Y-492000D01*
X17000D01*
Y-491000D01*
X16000Y-490000D01*
X17000Y-489000D01*
Y-488000D01*
X16000D01*
X15000Y-489000D01*
X14000Y-488000D01*
X13000D01*
Y-489000D01*
X14000Y-490000D01*
X13000Y-491000D01*
Y-492000D01*
Y-199500D02*
X14000D01*
X15000Y-198500D01*
X16000Y-199500D01*
X17000D01*
Y-198500D01*
X16000Y-197500D01*
X17000Y-196500D01*
Y-195500D01*
X16000D01*
X15000Y-196500D01*
X14000Y-195500D01*
X13000D01*
Y-196500D01*
X14000Y-197500D01*
X13000Y-198500D01*
Y-199500D01*
X263000Y-67000D02*
X264000D01*
X265000Y-66000D01*
X266000Y-67000D01*
X267000D01*
Y-66000D01*
X266000Y-65000D01*
X267000Y-64000D01*
Y-63000D01*
X266000D01*
X265000Y-64000D01*
X264000Y-63000D01*
X263000D01*
Y-64000D01*
X264000Y-65000D01*
X263000Y-66000D01*
Y-67000D01*
X11000Y-109000D02*
X12000D01*
X13000Y-108000D01*
X14000Y-109000D01*
X15000D01*
Y-108000D01*
X14000Y-107000D01*
X15000Y-106000D01*
Y-105000D01*
X14000D01*
X13000Y-106000D01*
X12000Y-105000D01*
X11000D01*
Y-106000D01*
X12000Y-107000D01*
X11000Y-108000D01*
Y-109000D01*
X125500Y-374500D02*
X126500D01*
X127500Y-373500D01*
X128500Y-374500D01*
X129500D01*
Y-373500D01*
X128500Y-372500D01*
X129500Y-371500D01*
Y-370500D01*
X128500D01*
X127500Y-371500D01*
X126500Y-370500D01*
X125500D01*
Y-371500D01*
X126500Y-372500D01*
X125500Y-373500D01*
Y-374500D01*
X213000Y-367000D02*
X214000D01*
X215000Y-366000D01*
X216000Y-367000D01*
X217000D01*
Y-366000D01*
X216000Y-365000D01*
X217000Y-364000D01*
Y-363000D01*
X216000D01*
X215000Y-364000D01*
X214000Y-363000D01*
X213000D01*
Y-364000D01*
X214000Y-365000D01*
X213000Y-366000D01*
Y-367000D01*
X333000Y-167500D02*
X334000D01*
X335000Y-166500D01*
X336000Y-167500D01*
X337000D01*
Y-166500D01*
X336000Y-165500D01*
X337000Y-164500D01*
Y-163500D01*
X336000D01*
X335000Y-164500D01*
X334000Y-163500D01*
X333000D01*
Y-164500D01*
X334000Y-165500D01*
X333000Y-166500D01*
Y-167500D01*
X145500Y-374500D02*
X146500D01*
X147500Y-373500D01*
X148500Y-374500D01*
X149500D01*
Y-373500D01*
X148500Y-372500D01*
X149500Y-371500D01*
Y-370500D01*
X148500D01*
X147500Y-371500D01*
X146500Y-370500D01*
X145500D01*
Y-371500D01*
X146500Y-372500D01*
X145500Y-373500D01*
Y-374500D01*
X135500D02*
X136500D01*
X137500Y-373500D01*
X138500Y-374500D01*
X139500D01*
Y-373500D01*
X138500Y-372500D01*
X139500Y-371500D01*
Y-370500D01*
X138500D01*
X137500Y-371500D01*
X136500Y-370500D01*
X135500D01*
Y-371500D01*
X136500Y-372500D01*
X135500Y-373500D01*
Y-374500D01*
X116500Y-421500D02*
X117500D01*
X118500Y-420500D01*
X119500Y-421500D01*
X120500D01*
Y-420500D01*
X119500Y-419500D01*
X120500Y-418500D01*
Y-417500D01*
X119500D01*
X118500Y-418500D01*
X117500Y-417500D01*
X116500D01*
Y-418500D01*
X117500Y-419500D01*
X116500Y-420500D01*
Y-421500D01*
X368500Y-78000D02*
X369500D01*
X370500Y-77000D01*
X371500Y-78000D01*
X372500D01*
Y-77000D01*
X371500Y-76000D01*
X372500Y-75000D01*
Y-74000D01*
X371500D01*
X370500Y-75000D01*
X369500Y-74000D01*
X368500D01*
Y-75000D01*
X369500Y-76000D01*
X368500Y-77000D01*
Y-78000D01*
X331000Y-369500D02*
X332000D01*
X333000Y-368500D01*
X334000Y-369500D01*
X335000D01*
Y-368500D01*
X334000Y-367500D01*
X335000Y-366500D01*
Y-365500D01*
X334000D01*
X333000Y-366500D01*
X332000Y-365500D01*
X331000D01*
Y-366500D01*
X332000Y-367500D01*
X331000Y-368500D01*
Y-369500D01*
X316500Y-99500D02*
X317500D01*
X318500Y-98500D01*
X319500Y-99500D01*
X320500D01*
Y-98500D01*
X319500Y-97500D01*
X320500Y-96500D01*
Y-95500D01*
X319500D01*
X318500Y-96500D01*
X317500Y-95500D01*
X316500D01*
Y-96500D01*
X317500Y-97500D01*
X316500Y-98500D01*
Y-99500D01*
X364500Y-52000D02*
X365500D01*
X366500Y-51000D01*
X367500Y-52000D01*
X368500D01*
Y-51000D01*
X367500Y-50000D01*
X368500Y-49000D01*
Y-48000D01*
X367500D01*
X366500Y-49000D01*
X365500Y-48000D01*
X364500D01*
Y-49000D01*
X365500Y-50000D01*
X364500Y-51000D01*
Y-52000D01*
X5500Y-127000D02*
X6500D01*
X7500Y-126000D01*
X8500Y-127000D01*
X9500D01*
Y-126000D01*
X8500Y-125000D01*
X9500Y-124000D01*
Y-123000D01*
X8500D01*
X7500Y-124000D01*
X6500Y-123000D01*
X5500D01*
Y-124000D01*
X6500Y-125000D01*
X5500Y-126000D01*
Y-127000D01*
X221500Y-70500D02*
X223500Y-68500D01*
X225500Y-70500D01*
X223500Y-72500D01*
X221500Y-70500D01*
X231500D02*
X233500Y-68500D01*
X235500Y-70500D01*
X233500Y-72500D01*
X231500Y-70500D01*
X211500D02*
X213500Y-68500D01*
X215500Y-70500D01*
X213500Y-72500D01*
X211500Y-70500D01*
X248000Y-99500D02*
Y-95500D01*
X252000D01*
Y-99500D01*
X248000D01*
X248800Y-98700D02*
Y-96300D01*
X251200D01*
Y-98700D01*
X248800D01*
X258000Y-99500D02*
Y-95500D01*
X262000D01*
Y-99500D01*
X258000D01*
X258800Y-98700D02*
Y-96300D01*
X261200D01*
Y-98700D01*
X258800D01*
X9425Y-80279D02*
X7425Y-76279D01*
X11425D01*
X9425Y-80279D01*
Y-79479D02*
X8225Y-77079D01*
X10625D01*
X9425Y-79479D01*
X20055Y-76342D02*
X21055Y-75343D01*
X22055D01*
X21055Y-74343D01*
X22055Y-73343D01*
X21055D01*
X20055Y-72342D01*
X19055Y-73343D01*
X18055D01*
X19055Y-74343D01*
X18055Y-75343D01*
X19055D01*
X20055Y-76342D01*
Y-75542D02*
X20655Y-74942D01*
X21255D01*
X20655Y-74343D01*
X21255Y-73743D01*
X20655D01*
X20055Y-73142D01*
X19455Y-73743D01*
X18855D01*
X19455Y-74343D01*
X18855Y-74942D01*
X19455D01*
X20055Y-75542D01*
X9425Y-52720D02*
X7425Y-48720D01*
X11425D01*
X9425Y-52720D01*
Y-51920D02*
X8225Y-49520D01*
X10625D01*
X9425Y-51920D01*
X20055Y-56657D02*
X21055Y-55658D01*
X22055D01*
X21055Y-54658D01*
X22055Y-53658D01*
X21055D01*
X20055Y-52658D01*
X19055Y-53658D01*
X18055D01*
X19055Y-54658D01*
X18055Y-55658D01*
X19055D01*
X20055Y-56657D01*
Y-55857D02*
X20655Y-55257D01*
X21255D01*
X20655Y-54658D01*
X21255Y-54058D01*
X20655D01*
X20055Y-53457D01*
X19455Y-54058D01*
X18855D01*
X19455Y-54658D01*
X18855Y-55257D01*
X19455D01*
X20055Y-55857D01*
X333000Y-17000D02*
Y-13000D01*
X337000D01*
Y-17000D01*
X333000D01*
X343000D02*
Y-13000D01*
X347000D01*
Y-17000D01*
X343000D01*
X273000Y-99500D02*
Y-95500D01*
X277000D01*
Y-99500D01*
X273000D01*
X273800Y-98700D02*
Y-96300D01*
X276200D01*
Y-98700D01*
X273800D01*
X283000Y-99500D02*
Y-95500D01*
X287000D01*
Y-99500D01*
X283000D01*
X283800Y-98700D02*
Y-96300D01*
X286200D01*
Y-98700D01*
X283800D01*
X343000Y-212000D02*
X344000Y-210000D01*
X343000Y-208000D01*
X345000Y-209000D01*
X347000Y-208000D01*
X346000Y-210000D01*
X347000Y-212000D01*
X345000Y-211000D01*
X343000Y-212000D01*
X343800Y-211200D02*
X344400Y-210000D01*
X343800Y-208800D01*
X345000Y-209400D01*
X346200Y-208800D01*
X345600Y-210000D01*
X346200Y-211200D01*
X345000Y-210600D01*
X343800Y-211200D01*
X298000Y-127000D02*
X299000Y-125000D01*
X298000Y-123000D01*
X300000Y-124000D01*
X302000Y-123000D01*
X301000Y-125000D01*
X302000Y-127000D01*
X300000Y-126000D01*
X298000Y-127000D01*
X298800Y-126200D02*
X299400Y-125000D01*
X298800Y-123800D01*
X300000Y-124400D01*
X301200Y-123800D01*
X300600Y-125000D01*
X301200Y-126200D01*
X300000Y-125600D01*
X298800Y-126200D01*
X298000Y-227000D02*
X299000Y-225000D01*
X298000Y-223000D01*
X300000Y-224000D01*
X302000Y-223000D01*
X301000Y-225000D01*
X302000Y-227000D01*
X300000Y-226000D01*
X298000Y-227000D01*
X298800Y-226200D02*
X299400Y-225000D01*
X298800Y-223800D01*
X300000Y-224400D01*
X301200Y-223800D01*
X300600Y-225000D01*
X301200Y-226200D01*
X300000Y-225600D01*
X298800Y-226200D01*
X263000Y-217000D02*
X264000Y-215000D01*
X263000Y-213000D01*
X265000Y-214000D01*
X267000Y-213000D01*
X266000Y-215000D01*
X267000Y-217000D01*
X265000Y-216000D01*
X263000Y-217000D01*
X263800Y-216200D02*
X264400Y-215000D01*
X263800Y-213800D01*
X265000Y-214400D01*
X266200Y-213800D01*
X265600Y-215000D01*
X266200Y-216200D01*
X265000Y-215600D01*
X263800Y-216200D01*
X198000Y-252000D02*
X199000Y-250000D01*
X198000Y-248000D01*
X200000Y-249000D01*
X202000Y-248000D01*
X201000Y-250000D01*
X202000Y-252000D01*
X200000Y-251000D01*
X198000Y-252000D01*
X198800Y-251200D02*
X199400Y-250000D01*
X198800Y-248800D01*
X200000Y-249400D01*
X201200Y-248800D01*
X200600Y-250000D01*
X201200Y-251200D01*
X200000Y-250600D01*
X198800Y-251200D01*
X198000Y-232000D02*
X199000Y-230000D01*
X198000Y-228000D01*
X200000Y-229000D01*
X202000Y-228000D01*
X201000Y-230000D01*
X202000Y-232000D01*
X200000Y-231000D01*
X198000Y-232000D01*
X198800Y-231200D02*
X199400Y-230000D01*
X198800Y-228800D01*
X200000Y-229400D01*
X201200Y-228800D01*
X200600Y-230000D01*
X201200Y-231200D01*
X200000Y-230600D01*
X198800Y-231200D01*
X140500Y-239500D02*
X141500Y-237500D01*
X140500Y-235500D01*
X142500Y-236500D01*
X144500Y-235500D01*
X143500Y-237500D01*
X144500Y-239500D01*
X142500Y-238500D01*
X140500Y-239500D01*
X141300Y-238700D02*
X141900Y-237500D01*
X141300Y-236300D01*
X142500Y-236900D01*
X143700Y-236300D01*
X143100Y-237500D01*
X143700Y-238700D01*
X142500Y-238100D01*
X141300Y-238700D01*
X130500Y-239500D02*
X131500Y-237500D01*
X130500Y-235500D01*
X132500Y-236500D01*
X134500Y-235500D01*
X133500Y-237500D01*
X134500Y-239500D01*
X132500Y-238500D01*
X130500Y-239500D01*
X131300Y-238700D02*
X131900Y-237500D01*
X131300Y-236300D01*
X132500Y-236900D01*
X133700Y-236300D01*
X133100Y-237500D01*
X133700Y-238700D01*
X132500Y-238100D01*
X131300Y-238700D01*
X118000Y-262000D02*
X119000Y-260000D01*
X118000Y-258000D01*
X120000Y-259000D01*
X122000Y-258000D01*
X121000Y-260000D01*
X122000Y-262000D01*
X120000Y-261000D01*
X118000Y-262000D01*
X118800Y-261200D02*
X119400Y-260000D01*
X118800Y-258800D01*
X120000Y-259400D01*
X121200Y-258800D01*
X120600Y-260000D01*
X121200Y-261200D01*
X120000Y-260600D01*
X118800Y-261200D01*
X113000Y-247000D02*
X114000Y-245000D01*
X113000Y-243000D01*
X115000Y-244000D01*
X117000Y-243000D01*
X116000Y-245000D01*
X117000Y-247000D01*
X115000Y-246000D01*
X113000Y-247000D01*
X113800Y-246200D02*
X114400Y-245000D01*
X113800Y-243800D01*
X115000Y-244400D01*
X116200Y-243800D01*
X115600Y-245000D01*
X116200Y-246200D01*
X115000Y-245600D01*
X113800Y-246200D01*
X308000Y-482000D02*
X309000Y-480000D01*
X308000Y-478000D01*
X310000Y-479000D01*
X312000Y-478000D01*
X311000Y-480000D01*
X312000Y-482000D01*
X310000Y-481000D01*
X308000Y-482000D01*
X308800Y-481200D02*
X309400Y-480000D01*
X308800Y-478800D01*
X310000Y-479400D01*
X311200Y-478800D01*
X310600Y-480000D01*
X311200Y-481200D01*
X310000Y-480600D01*
X308800Y-481200D01*
X328000Y-462000D02*
X329000Y-460000D01*
X328000Y-458000D01*
X330000Y-459000D01*
X332000Y-458000D01*
X331000Y-460000D01*
X332000Y-462000D01*
X330000Y-461000D01*
X328000Y-462000D01*
X328800Y-461200D02*
X329400Y-460000D01*
X328800Y-458800D01*
X330000Y-459400D01*
X331200Y-458800D01*
X330600Y-460000D01*
X331200Y-461200D01*
X330000Y-460600D01*
X328800Y-461200D01*
X343000Y-372000D02*
X344000Y-370000D01*
X343000Y-368000D01*
X345000Y-369000D01*
X347000Y-368000D01*
X346000Y-370000D01*
X347000Y-372000D01*
X345000Y-371000D01*
X343000Y-372000D01*
X343800Y-371200D02*
X344400Y-370000D01*
X343800Y-368800D01*
X345000Y-369400D01*
X346200Y-368800D01*
X345600Y-370000D01*
X346200Y-371200D01*
X345000Y-370600D01*
X343800Y-371200D01*
X358000Y-352000D02*
X359000Y-350000D01*
X358000Y-348000D01*
X360000Y-349000D01*
X362000Y-348000D01*
X361000Y-350000D01*
X362000Y-352000D01*
X360000Y-351000D01*
X358000Y-352000D01*
X358800Y-351200D02*
X359400Y-350000D01*
X358800Y-348800D01*
X360000Y-349400D01*
X361200Y-348800D01*
X360600Y-350000D01*
X361200Y-351200D01*
X360000Y-350600D01*
X358800Y-351200D01*
X27500Y-208500D02*
Y-209500D01*
X29500D01*
Y-208500D01*
X30500D01*
Y-206500D01*
X29500D01*
Y-205500D01*
X27500D01*
Y-206500D01*
X26500D01*
Y-208500D01*
X27500D01*
X27900Y-208100D02*
Y-208700D01*
X29100D01*
Y-208100D01*
X29700D01*
Y-206900D01*
X29100D01*
Y-206300D01*
X27900D01*
Y-206900D01*
X27300D01*
Y-208100D01*
X27900D01*
X384500Y-217500D02*
Y-218500D01*
X386500D01*
Y-217500D01*
X387500D01*
Y-215500D01*
X386500D01*
Y-214500D01*
X384500D01*
Y-215500D01*
X383500D01*
Y-217500D01*
X384500D01*
X384900Y-217100D02*
Y-217700D01*
X386100D01*
Y-217100D01*
X386700D01*
Y-215900D01*
X386100D01*
Y-215300D01*
X384900D01*
Y-215900D01*
X384300D01*
Y-217100D01*
X384900D01*
X275500Y-417000D02*
X276500Y-415000D01*
X275500Y-413000D01*
X277500Y-414000D01*
X279500Y-413000D01*
X278500Y-415000D01*
X279500Y-417000D01*
X277500Y-416000D01*
X275500Y-417000D01*
X276300Y-416200D02*
X276900Y-415000D01*
X276300Y-413800D01*
X277500Y-414400D01*
X278700Y-413800D01*
X278100Y-415000D01*
X278700Y-416200D01*
X277500Y-415600D01*
X276300Y-416200D01*
X273500Y-502000D02*
X274500Y-500000D01*
X273500Y-498000D01*
X275500Y-499000D01*
X277500Y-498000D01*
X276500Y-500000D01*
X277500Y-502000D01*
X275500Y-501000D01*
X273500Y-502000D01*
X274300Y-501200D02*
X274900Y-500000D01*
X274300Y-498800D01*
X275500Y-499400D01*
X276700Y-498800D01*
X276100Y-500000D01*
X276700Y-501200D01*
X275500Y-500600D01*
X274300Y-501200D01*
X119000Y-502000D02*
X120000Y-500000D01*
X119000Y-498000D01*
X121000Y-499000D01*
X123000Y-498000D01*
X122000Y-500000D01*
X123000Y-502000D01*
X121000Y-501000D01*
X119000Y-502000D01*
X119800Y-501200D02*
X120400Y-500000D01*
X119800Y-498800D01*
X121000Y-499400D01*
X122200Y-498800D01*
X121600Y-500000D01*
X122200Y-501200D01*
X121000Y-500600D01*
X119800Y-501200D01*
X298000Y-482000D02*
X299000Y-480000D01*
X298000Y-478000D01*
X300000Y-479000D01*
X302000Y-478000D01*
X301000Y-480000D01*
X302000Y-482000D01*
X300000Y-481000D01*
X298000Y-482000D01*
X298800Y-481200D02*
X299400Y-480000D01*
X298800Y-478800D01*
X300000Y-479400D01*
X301200Y-478800D01*
X300600Y-480000D01*
X301200Y-481200D01*
X300000Y-480600D01*
X298800Y-481200D01*
X331500Y-417000D02*
X332500Y-415000D01*
X331500Y-413000D01*
X333500Y-414000D01*
X335500Y-413000D01*
X334500Y-415000D01*
X335500Y-417000D01*
X333500Y-416000D01*
X331500Y-417000D01*
X332300Y-416200D02*
X332900Y-415000D01*
X332300Y-413800D01*
X333500Y-414400D01*
X334700Y-413800D01*
X334100Y-415000D01*
X334700Y-416200D01*
X333500Y-415600D01*
X332300Y-416200D01*
X293000Y-142000D02*
X294000Y-140000D01*
X293000Y-138000D01*
X295000Y-139000D01*
X297000Y-138000D01*
X296000Y-140000D01*
X297000Y-142000D01*
X295000Y-141000D01*
X293000Y-142000D01*
X293800Y-141200D02*
X294400Y-140000D01*
X293800Y-138800D01*
X295000Y-139400D01*
X296200Y-138800D01*
X295600Y-140000D01*
X296200Y-141200D01*
X295000Y-140600D01*
X293800Y-141200D01*
X325500Y-292500D02*
X326500Y-290500D01*
X325500Y-288500D01*
X327500Y-289500D01*
X329500Y-288500D01*
X328500Y-290500D01*
X329500Y-292500D01*
X327500Y-291500D01*
X325500Y-292500D01*
X326300Y-291700D02*
X326900Y-290500D01*
X326300Y-289300D01*
X327500Y-289900D01*
X328700Y-289300D01*
X328100Y-290500D01*
X328700Y-291700D01*
X327500Y-291100D01*
X326300Y-291700D01*
X318000Y-317500D02*
X319000Y-315500D01*
X318000Y-313500D01*
X320000Y-314500D01*
X322000Y-313500D01*
X321000Y-315500D01*
X322000Y-317500D01*
X320000Y-316500D01*
X318000Y-317500D01*
X318800Y-316700D02*
X319400Y-315500D01*
X318800Y-314300D01*
X320000Y-314900D01*
X321200Y-314300D01*
X320600Y-315500D01*
X321200Y-316700D01*
X320000Y-316100D01*
X318800Y-316700D01*
X316500Y-315000D02*
X317500Y-313000D01*
X316500Y-311000D01*
X318500Y-312000D01*
X320500Y-311000D01*
X319500Y-313000D01*
X320500Y-315000D01*
X318500Y-314000D01*
X316500Y-315000D01*
X317300Y-314200D02*
X317900Y-313000D01*
X317300Y-311800D01*
X318500Y-312400D01*
X319700Y-311800D01*
X319100Y-313000D01*
X319700Y-314200D01*
X318500Y-313600D01*
X317300Y-314200D01*
X323000Y-312500D02*
X324000Y-310500D01*
X323000Y-308500D01*
X325000Y-309500D01*
X327000Y-308500D01*
X326000Y-310500D01*
X327000Y-312500D01*
X325000Y-311500D01*
X323000Y-312500D01*
X323800Y-311700D02*
X324400Y-310500D01*
X323800Y-309300D01*
X325000Y-309900D01*
X326200Y-309300D01*
X325600Y-310500D01*
X326200Y-311700D01*
X325000Y-311100D01*
X323800Y-311700D01*
X316500Y-310000D02*
X317500Y-308000D01*
X316500Y-306000D01*
X318500Y-307000D01*
X320500Y-306000D01*
X319500Y-308000D01*
X320500Y-310000D01*
X318500Y-309000D01*
X316500Y-310000D01*
X317300Y-309200D02*
X317900Y-308000D01*
X317300Y-306800D01*
X318500Y-307400D01*
X319700Y-306800D01*
X319100Y-308000D01*
X319700Y-309200D01*
X318500Y-308600D01*
X317300Y-309200D01*
X323000Y-275000D02*
X324000Y-273000D01*
X323000Y-271000D01*
X325000Y-272000D01*
X327000Y-271000D01*
X326000Y-273000D01*
X327000Y-275000D01*
X325000Y-274000D01*
X323000Y-275000D01*
X323800Y-274200D02*
X324400Y-273000D01*
X323800Y-271800D01*
X325000Y-272400D01*
X326200Y-271800D01*
X325600Y-273000D01*
X326200Y-274200D01*
X325000Y-273600D01*
X323800Y-274200D01*
X325500Y-272500D02*
X326500Y-270500D01*
X325500Y-268500D01*
X327500Y-269500D01*
X329500Y-268500D01*
X328500Y-270500D01*
X329500Y-272500D01*
X327500Y-271500D01*
X325500Y-272500D01*
X326300Y-271700D02*
X326900Y-270500D01*
X326300Y-269300D01*
X327500Y-269900D01*
X328700Y-269300D01*
X328100Y-270500D01*
X328700Y-271700D01*
X327500Y-271100D01*
X326300Y-271700D01*
X323000Y-270000D02*
X324000Y-268000D01*
X323000Y-266000D01*
X325000Y-267000D01*
X327000Y-266000D01*
X326000Y-268000D01*
X327000Y-270000D01*
X325000Y-269000D01*
X323000Y-270000D01*
X323800Y-269200D02*
X324400Y-268000D01*
X323800Y-266800D01*
X325000Y-267400D01*
X326200Y-266800D01*
X325600Y-268000D01*
X326200Y-269200D01*
X325000Y-268600D01*
X323800Y-269200D01*
X323000Y-242500D02*
X324000Y-240500D01*
X323000Y-238500D01*
X325000Y-239500D01*
X327000Y-238500D01*
X326000Y-240500D01*
X327000Y-242500D01*
X325000Y-241500D01*
X323000Y-242500D01*
X323800Y-241700D02*
X324400Y-240500D01*
X323800Y-239300D01*
X325000Y-239900D01*
X326200Y-239300D01*
X325600Y-240500D01*
X326200Y-241700D01*
X325000Y-241100D01*
X323800Y-241700D01*
X316500Y-245500D02*
X317500Y-243500D01*
X316500Y-241500D01*
X318500Y-242500D01*
X320500Y-241500D01*
X319500Y-243500D01*
X320500Y-245500D01*
X318500Y-244500D01*
X316500Y-245500D01*
X317300Y-244700D02*
X317900Y-243500D01*
X317300Y-242300D01*
X318500Y-242900D01*
X319700Y-242300D01*
X319100Y-243500D01*
X319700Y-244700D01*
X318500Y-244100D01*
X317300Y-244700D01*
X241500Y-276000D02*
X242500Y-274000D01*
X241500Y-272000D01*
X243500Y-273000D01*
X245500Y-272000D01*
X244500Y-274000D01*
X245500Y-276000D01*
X243500Y-275000D01*
X241500Y-276000D01*
X242300Y-275200D02*
X242900Y-274000D01*
X242300Y-272800D01*
X243500Y-273400D01*
X244700Y-272800D01*
X244100Y-274000D01*
X244700Y-275200D01*
X243500Y-274600D01*
X242300Y-275200D01*
X218000Y-273000D02*
X219000Y-271000D01*
X218000Y-269000D01*
X220000Y-270000D01*
X222000Y-269000D01*
X221000Y-271000D01*
X222000Y-273000D01*
X220000Y-272000D01*
X218000Y-273000D01*
X218800Y-272200D02*
X219400Y-271000D01*
X218800Y-269800D01*
X220000Y-270400D01*
X221200Y-269800D01*
X220600Y-271000D01*
X221200Y-272200D01*
X220000Y-271600D01*
X218800Y-272200D01*
X295500Y-357000D02*
X296500Y-355000D01*
X295500Y-353000D01*
X297500Y-354000D01*
X299500Y-353000D01*
X298500Y-355000D01*
X299500Y-357000D01*
X297500Y-356000D01*
X295500Y-357000D01*
X296300Y-356200D02*
X296900Y-355000D01*
X296300Y-353800D01*
X297500Y-354400D01*
X298700Y-353800D01*
X298100Y-355000D01*
X298700Y-356200D01*
X297500Y-355600D01*
X296300Y-356200D01*
X293000Y-364500D02*
X294000Y-362500D01*
X293000Y-360500D01*
X295000Y-361500D01*
X297000Y-360500D01*
X296000Y-362500D01*
X297000Y-364500D01*
X295000Y-363500D01*
X293000Y-364500D01*
X293800Y-363700D02*
X294400Y-362500D01*
X293800Y-361300D01*
X295000Y-361900D01*
X296200Y-361300D01*
X295600Y-362500D01*
X296200Y-363700D01*
X295000Y-363100D01*
X293800Y-363700D01*
X290500Y-362000D02*
X291500Y-360000D01*
X290500Y-358000D01*
X292500Y-359000D01*
X294500Y-358000D01*
X293500Y-360000D01*
X294500Y-362000D01*
X292500Y-361000D01*
X290500Y-362000D01*
X291300Y-361200D02*
X291900Y-360000D01*
X291300Y-358800D01*
X292500Y-359400D01*
X293700Y-358800D01*
X293100Y-360000D01*
X293700Y-361200D01*
X292500Y-360600D01*
X291300Y-361200D01*
X288000Y-369500D02*
X289000Y-367500D01*
X288000Y-365500D01*
X290000Y-366500D01*
X292000Y-365500D01*
X291000Y-367500D01*
X292000Y-369500D01*
X290000Y-368500D01*
X288000Y-369500D01*
X288800Y-368700D02*
X289400Y-367500D01*
X288800Y-366300D01*
X290000Y-366900D01*
X291200Y-366300D01*
X290600Y-367500D01*
X291200Y-368700D01*
X290000Y-368100D01*
X288800Y-368700D01*
X285500Y-374500D02*
X286500Y-372500D01*
X285500Y-370500D01*
X287500Y-371500D01*
X289500Y-370500D01*
X288500Y-372500D01*
X289500Y-374500D01*
X287500Y-373500D01*
X285500Y-374500D01*
X286300Y-373700D02*
X286900Y-372500D01*
X286300Y-371300D01*
X287500Y-371900D01*
X288700Y-371300D01*
X288100Y-372500D01*
X288700Y-373700D01*
X287500Y-373100D01*
X286300Y-373700D01*
X241500Y-433500D02*
X242500Y-431500D01*
X241500Y-429500D01*
X243500Y-430500D01*
X245500Y-429500D01*
X244500Y-431500D01*
X245500Y-433500D01*
X243500Y-432500D01*
X241500Y-433500D01*
X242300Y-432700D02*
X242900Y-431500D01*
X242300Y-430300D01*
X243500Y-430900D01*
X244700Y-430300D01*
X244100Y-431500D01*
X244700Y-432700D01*
X243500Y-432100D01*
X242300Y-432700D01*
X243000Y-477000D02*
X244000Y-475000D01*
X243000Y-473000D01*
X245000Y-474000D01*
X247000Y-473000D01*
X246000Y-475000D01*
X247000Y-477000D01*
X245000Y-476000D01*
X243000Y-477000D01*
X243800Y-476200D02*
X244400Y-475000D01*
X243800Y-473800D01*
X245000Y-474400D01*
X246200Y-473800D01*
X245600Y-475000D01*
X246200Y-476200D01*
X245000Y-475600D01*
X243800Y-476200D01*
X318000Y-334500D02*
X319000Y-332500D01*
X318000Y-330500D01*
X320000Y-331500D01*
X322000Y-330500D01*
X321000Y-332500D01*
X322000Y-334500D01*
X320000Y-333500D01*
X318000Y-334500D01*
X318800Y-333700D02*
X319400Y-332500D01*
X318800Y-331300D01*
X320000Y-331900D01*
X321200Y-331300D01*
X320600Y-332500D01*
X321200Y-333700D01*
X320000Y-333100D01*
X318800Y-333700D01*
X315500Y-337000D02*
X316500Y-335000D01*
X315500Y-333000D01*
X317500Y-334000D01*
X319500Y-333000D01*
X318500Y-335000D01*
X319500Y-337000D01*
X317500Y-336000D01*
X315500Y-337000D01*
X316300Y-336200D02*
X316900Y-335000D01*
X316300Y-333800D01*
X317500Y-334400D01*
X318700Y-333800D01*
X318100Y-335000D01*
X318700Y-336200D01*
X317500Y-335600D01*
X316300Y-336200D01*
X313000Y-339500D02*
X314000Y-337500D01*
X313000Y-335500D01*
X315000Y-336500D01*
X317000Y-335500D01*
X316000Y-337500D01*
X317000Y-339500D01*
X315000Y-338500D01*
X313000Y-339500D01*
X313800Y-338700D02*
X314400Y-337500D01*
X313800Y-336300D01*
X315000Y-336900D01*
X316200Y-336300D01*
X315600Y-337500D01*
X316200Y-338700D01*
X315000Y-338100D01*
X313800Y-338700D01*
X310500Y-347000D02*
X311500Y-345000D01*
X310500Y-343000D01*
X312500Y-344000D01*
X314500Y-343000D01*
X313500Y-345000D01*
X314500Y-347000D01*
X312500Y-346000D01*
X310500Y-347000D01*
X311300Y-346200D02*
X311900Y-345000D01*
X311300Y-343800D01*
X312500Y-344400D01*
X313700Y-343800D01*
X313100Y-345000D01*
X313700Y-346200D01*
X312500Y-345600D01*
X311300Y-346200D01*
X308000Y-344500D02*
X309000Y-342500D01*
X308000Y-340500D01*
X310000Y-341500D01*
X312000Y-340500D01*
X311000Y-342500D01*
X312000Y-344500D01*
X310000Y-343500D01*
X308000Y-344500D01*
X308800Y-343700D02*
X309400Y-342500D01*
X308800Y-341300D01*
X310000Y-341900D01*
X311200Y-341300D01*
X310600Y-342500D01*
X311200Y-343700D01*
X310000Y-343100D01*
X308800Y-343700D01*
X305500Y-347000D02*
X306500Y-345000D01*
X305500Y-343000D01*
X307500Y-344000D01*
X309500Y-343000D01*
X308500Y-345000D01*
X309500Y-347000D01*
X307500Y-346000D01*
X305500Y-347000D01*
X306300Y-346200D02*
X306900Y-345000D01*
X306300Y-343800D01*
X307500Y-344400D01*
X308700Y-343800D01*
X308100Y-345000D01*
X308700Y-346200D01*
X307500Y-345600D01*
X306300Y-346200D01*
X303000Y-349500D02*
X304000Y-347500D01*
X303000Y-345500D01*
X305000Y-346500D01*
X307000Y-345500D01*
X306000Y-347500D01*
X307000Y-349500D01*
X305000Y-348500D01*
X303000Y-349500D01*
X303800Y-348700D02*
X304400Y-347500D01*
X303800Y-346300D01*
X305000Y-346900D01*
X306200Y-346300D01*
X305600Y-347500D01*
X306200Y-348700D01*
X305000Y-348100D01*
X303800Y-348700D01*
X300500Y-352000D02*
X301500Y-350000D01*
X300500Y-348000D01*
X302500Y-349000D01*
X304500Y-348000D01*
X303500Y-350000D01*
X304500Y-352000D01*
X302500Y-351000D01*
X300500Y-352000D01*
X301300Y-351200D02*
X301900Y-350000D01*
X301300Y-348800D01*
X302500Y-349400D01*
X303700Y-348800D01*
X303100Y-350000D01*
X303700Y-351200D01*
X302500Y-350600D01*
X301300Y-351200D01*
X298000Y-382000D02*
X299000Y-380000D01*
X298000Y-378000D01*
X300000Y-379000D01*
X302000Y-378000D01*
X301000Y-380000D01*
X302000Y-382000D01*
X300000Y-381000D01*
X298000Y-382000D01*
X298800Y-381200D02*
X299400Y-380000D01*
X298800Y-378800D01*
X300000Y-379400D01*
X301200Y-378800D01*
X300600Y-380000D01*
X301200Y-381200D01*
X300000Y-380600D01*
X298800Y-381200D01*
X283000Y-254500D02*
X284000Y-252500D01*
X283000Y-250500D01*
X285000Y-251500D01*
X287000Y-250500D01*
X286000Y-252500D01*
X287000Y-254500D01*
X285000Y-253500D01*
X283000Y-254500D01*
X283800Y-253700D02*
X284400Y-252500D01*
X283800Y-251300D01*
X285000Y-251900D01*
X286200Y-251300D01*
X285600Y-252500D01*
X286200Y-253700D01*
X285000Y-253100D01*
X283800Y-253700D01*
X69000Y-201000D02*
X70000Y-199000D01*
X69000Y-197000D01*
X71000Y-198000D01*
X73000Y-197000D01*
X72000Y-199000D01*
X73000Y-201000D01*
X71000Y-200000D01*
X69000Y-201000D01*
X69800Y-200200D02*
X70400Y-199000D01*
X69800Y-197800D01*
X71000Y-198400D01*
X72200Y-197800D01*
X71600Y-199000D01*
X72200Y-200200D01*
X71000Y-199600D01*
X69800Y-200200D01*
X55500Y-314500D02*
X56500Y-312500D01*
X55500Y-310500D01*
X57500Y-311500D01*
X59500Y-310500D01*
X58500Y-312500D01*
X59500Y-314500D01*
X57500Y-313500D01*
X55500Y-314500D01*
X56300Y-313700D02*
X56900Y-312500D01*
X56300Y-311300D01*
X57500Y-311900D01*
X58700Y-311300D01*
X58100Y-312500D01*
X58700Y-313700D01*
X57500Y-313100D01*
X56300Y-313700D01*
X53000Y-317000D02*
X54000Y-315000D01*
X53000Y-313000D01*
X55000Y-314000D01*
X57000Y-313000D01*
X56000Y-315000D01*
X57000Y-317000D01*
X55000Y-316000D01*
X53000Y-317000D01*
X53800Y-316200D02*
X54400Y-315000D01*
X53800Y-313800D01*
X55000Y-314400D01*
X56200Y-313800D01*
X55600Y-315000D01*
X56200Y-316200D01*
X55000Y-315600D01*
X53800Y-316200D01*
X58000Y-312000D02*
X59000Y-310000D01*
X58000Y-308000D01*
X60000Y-309000D01*
X62000Y-308000D01*
X61000Y-310000D01*
X62000Y-312000D01*
X60000Y-311000D01*
X58000Y-312000D01*
X58800Y-311200D02*
X59400Y-310000D01*
X58800Y-308800D01*
X60000Y-309400D01*
X61200Y-308800D01*
X60600Y-310000D01*
X61200Y-311200D01*
X60000Y-310600D01*
X58800Y-311200D01*
X63000Y-312000D02*
X64000Y-310000D01*
X63000Y-308000D01*
X65000Y-309000D01*
X67000Y-308000D01*
X66000Y-310000D01*
X67000Y-312000D01*
X65000Y-311000D01*
X63000Y-312000D01*
X63800Y-311200D02*
X64400Y-310000D01*
X63800Y-308800D01*
X65000Y-309400D01*
X66200Y-308800D01*
X65600Y-310000D01*
X66200Y-311200D01*
X65000Y-310600D01*
X63800Y-311200D01*
X48000Y-322000D02*
X49000Y-320000D01*
X48000Y-318000D01*
X50000Y-319000D01*
X52000Y-318000D01*
X51000Y-320000D01*
X52000Y-322000D01*
X50000Y-321000D01*
X48000Y-322000D01*
X48800Y-321200D02*
X49400Y-320000D01*
X48800Y-318800D01*
X50000Y-319400D01*
X51200Y-318800D01*
X50600Y-320000D01*
X51200Y-321200D01*
X50000Y-320600D01*
X48800Y-321200D01*
X55500Y-369500D02*
X56500Y-367500D01*
X55500Y-365500D01*
X57500Y-366500D01*
X59500Y-365500D01*
X58500Y-367500D01*
X59500Y-369500D01*
X57500Y-368500D01*
X55500Y-369500D01*
X56300Y-368700D02*
X56900Y-367500D01*
X56300Y-366300D01*
X57500Y-366900D01*
X58700Y-366300D01*
X58100Y-367500D01*
X58700Y-368700D01*
X57500Y-368100D01*
X56300Y-368700D01*
X116500Y-464500D02*
X117500Y-462500D01*
X116500Y-460500D01*
X118500Y-461500D01*
X120500Y-460500D01*
X119500Y-462500D01*
X120500Y-464500D01*
X118500Y-463500D01*
X116500Y-464500D01*
X117300Y-463700D02*
X117900Y-462500D01*
X117300Y-461300D01*
X118500Y-461900D01*
X119700Y-461300D01*
X119100Y-462500D01*
X119700Y-463700D01*
X118500Y-463100D01*
X117300Y-463700D01*
X150500Y-453000D02*
X151500Y-451000D01*
X150500Y-449000D01*
X152500Y-450000D01*
X154500Y-449000D01*
X153500Y-451000D01*
X154500Y-453000D01*
X152500Y-452000D01*
X150500Y-453000D01*
X151300Y-452200D02*
X151900Y-451000D01*
X151300Y-449800D01*
X152500Y-450400D01*
X153700Y-449800D01*
X153100Y-451000D01*
X153700Y-452200D01*
X152500Y-451600D01*
X151300Y-452200D01*
X128000Y-458000D02*
X129000Y-456000D01*
X128000Y-454000D01*
X130000Y-455000D01*
X132000Y-454000D01*
X131000Y-456000D01*
X132000Y-458000D01*
X130000Y-457000D01*
X128000Y-458000D01*
X128800Y-457200D02*
X129400Y-456000D01*
X128800Y-454800D01*
X130000Y-455400D01*
X131200Y-454800D01*
X130600Y-456000D01*
X131200Y-457200D01*
X130000Y-456600D01*
X128800Y-457200D01*
X123000Y-457000D02*
X124000Y-455000D01*
X123000Y-453000D01*
X125000Y-454000D01*
X127000Y-453000D01*
X126000Y-455000D01*
X127000Y-457000D01*
X125000Y-456000D01*
X123000Y-457000D01*
X123800Y-456200D02*
X124400Y-455000D01*
X123800Y-453800D01*
X125000Y-454400D01*
X126200Y-453800D01*
X125600Y-455000D01*
X126200Y-456200D01*
X125000Y-455600D01*
X123800Y-456200D01*
X120500Y-459500D02*
X121500Y-457500D01*
X120500Y-455500D01*
X122500Y-456500D01*
X124500Y-455500D01*
X123500Y-457500D01*
X124500Y-459500D01*
X122500Y-458500D01*
X120500Y-459500D01*
X121300Y-458700D02*
X121900Y-457500D01*
X121300Y-456300D01*
X122500Y-456900D01*
X123700Y-456300D01*
X123100Y-457500D01*
X123700Y-458700D01*
X122500Y-458100D01*
X121300Y-458700D01*
X120500Y-467000D02*
X121500Y-465000D01*
X120500Y-463000D01*
X122500Y-464000D01*
X124500Y-463000D01*
X123500Y-465000D01*
X124500Y-467000D01*
X122500Y-466000D01*
X120500Y-467000D01*
X121300Y-466200D02*
X121900Y-465000D01*
X121300Y-463800D01*
X122500Y-464400D01*
X123700Y-463800D01*
X123100Y-465000D01*
X123700Y-466200D01*
X122500Y-465600D01*
X121300Y-466200D01*
X153000Y-450500D02*
X154000Y-448500D01*
X153000Y-446500D01*
X155000Y-447500D01*
X157000Y-446500D01*
X156000Y-448500D01*
X157000Y-450500D01*
X155000Y-449500D01*
X153000Y-450500D01*
X153800Y-449700D02*
X154400Y-448500D01*
X153800Y-447300D01*
X155000Y-447900D01*
X156200Y-447300D01*
X155600Y-448500D01*
X156200Y-449700D01*
X155000Y-449100D01*
X153800Y-449700D01*
X291500Y-440500D02*
X292500Y-438500D01*
X291500Y-436500D01*
X293500Y-437500D01*
X295500Y-436500D01*
X294500Y-438500D01*
X295500Y-440500D01*
X293500Y-439500D01*
X291500Y-440500D01*
X292300Y-439700D02*
X292900Y-438500D01*
X292300Y-437300D01*
X293500Y-437900D01*
X294700Y-437300D01*
X294100Y-438500D01*
X294700Y-439700D01*
X293500Y-439100D01*
X292300Y-439700D01*
X44000Y-245500D02*
X45000Y-243500D01*
X44000Y-241500D01*
X46000Y-242500D01*
X48000Y-241500D01*
X47000Y-243500D01*
X48000Y-245500D01*
X46000Y-244500D01*
X44000Y-245500D01*
X44800Y-244700D02*
X45400Y-243500D01*
X44800Y-242300D01*
X46000Y-242900D01*
X47200Y-242300D01*
X46600Y-243500D01*
X47200Y-244700D01*
X46000Y-244100D01*
X44800Y-244700D01*
X53000Y-367000D02*
X54000Y-365000D01*
X53000Y-363000D01*
X55000Y-364000D01*
X57000Y-363000D01*
X56000Y-365000D01*
X57000Y-367000D01*
X55000Y-366000D01*
X53000Y-367000D01*
X53800Y-366200D02*
X54400Y-365000D01*
X53800Y-363800D01*
X55000Y-364400D01*
X56200Y-363800D01*
X55600Y-365000D01*
X56200Y-366200D01*
X55000Y-365600D01*
X53800Y-366200D01*
X48000Y-434500D02*
X49000Y-432500D01*
X48000Y-430500D01*
X50000Y-431500D01*
X52000Y-430500D01*
X51000Y-432500D01*
X52000Y-434500D01*
X50000Y-433500D01*
X48000Y-434500D01*
X48800Y-433700D02*
X49400Y-432500D01*
X48800Y-431300D01*
X50000Y-431900D01*
X51200Y-431300D01*
X50600Y-432500D01*
X51200Y-433700D01*
X50000Y-433100D01*
X48800Y-433700D01*
X50500Y-432000D02*
X51500Y-430000D01*
X50500Y-428000D01*
X52500Y-429000D01*
X54500Y-428000D01*
X53500Y-430000D01*
X54500Y-432000D01*
X52500Y-431000D01*
X50500Y-432000D01*
X51300Y-431200D02*
X51900Y-430000D01*
X51300Y-428800D01*
X52500Y-429400D01*
X53700Y-428800D01*
X53100Y-430000D01*
X53700Y-431200D01*
X52500Y-430600D01*
X51300Y-431200D01*
X50500Y-419500D02*
X51500Y-417500D01*
X50500Y-415500D01*
X52500Y-416500D01*
X54500Y-415500D01*
X53500Y-417500D01*
X54500Y-419500D01*
X52500Y-418500D01*
X50500Y-419500D01*
X51300Y-418700D02*
X51900Y-417500D01*
X51300Y-416300D01*
X52500Y-416900D01*
X53700Y-416300D01*
X53100Y-417500D01*
X53700Y-418700D01*
X52500Y-418100D01*
X51300Y-418700D01*
X230500Y-479500D02*
X231500Y-477500D01*
X230500Y-475500D01*
X232500Y-476500D01*
X234500Y-475500D01*
X233500Y-477500D01*
X234500Y-479500D01*
X232500Y-478500D01*
X230500Y-479500D01*
X231300Y-478700D02*
X231900Y-477500D01*
X231300Y-476300D01*
X232500Y-476900D01*
X233700Y-476300D01*
X233100Y-477500D01*
X233700Y-478700D01*
X232500Y-478100D01*
X231300Y-478700D01*
X285500Y-396000D02*
X286500Y-394000D01*
X285500Y-392000D01*
X287500Y-393000D01*
X289500Y-392000D01*
X288500Y-394000D01*
X289500Y-396000D01*
X287500Y-395000D01*
X285500Y-396000D01*
X286300Y-395200D02*
X286900Y-394000D01*
X286300Y-392800D01*
X287500Y-393400D01*
X288700Y-392800D01*
X288100Y-394000D01*
X288700Y-395200D01*
X287500Y-394600D01*
X286300Y-395200D01*
X263000Y-396000D02*
X264000Y-394000D01*
X263000Y-392000D01*
X265000Y-393000D01*
X267000Y-392000D01*
X266000Y-394000D01*
X267000Y-396000D01*
X265000Y-395000D01*
X263000Y-396000D01*
X263800Y-395200D02*
X264400Y-394000D01*
X263800Y-392800D01*
X265000Y-393400D01*
X266200Y-392800D01*
X265600Y-394000D01*
X266200Y-395200D01*
X265000Y-394600D01*
X263800Y-395200D01*
X108000Y-509500D02*
X109000Y-507500D01*
X108000Y-505500D01*
X110000Y-506500D01*
X112000Y-505500D01*
X111000Y-507500D01*
X112000Y-509500D01*
X110000Y-508500D01*
X108000Y-509500D01*
X108800Y-508700D02*
X109400Y-507500D01*
X108800Y-506300D01*
X110000Y-506900D01*
X111200Y-506300D01*
X110600Y-507500D01*
X111200Y-508700D01*
X110000Y-508100D01*
X108800Y-508700D01*
X135500Y-509500D02*
X136500Y-507500D01*
X135500Y-505500D01*
X137500Y-506500D01*
X139500Y-505500D01*
X138500Y-507500D01*
X139500Y-509500D01*
X137500Y-508500D01*
X135500Y-509500D01*
X136300Y-508700D02*
X136900Y-507500D01*
X136300Y-506300D01*
X137500Y-506900D01*
X138700Y-506300D01*
X138100Y-507500D01*
X138700Y-508700D01*
X137500Y-508100D01*
X136300Y-508700D01*
X203000Y-492000D02*
X204000Y-490000D01*
X203000Y-488000D01*
X205000Y-489000D01*
X207000Y-488000D01*
X206000Y-490000D01*
X207000Y-492000D01*
X205000Y-491000D01*
X203000Y-492000D01*
X203800Y-491200D02*
X204400Y-490000D01*
X203800Y-488800D01*
X205000Y-489400D01*
X206200Y-488800D01*
X205600Y-490000D01*
X206200Y-491200D01*
X205000Y-490600D01*
X203800Y-491200D01*
X190500Y-492000D02*
X191500Y-490000D01*
X190500Y-488000D01*
X192500Y-489000D01*
X194500Y-488000D01*
X193500Y-490000D01*
X194500Y-492000D01*
X192500Y-491000D01*
X190500Y-492000D01*
X191300Y-491200D02*
X191900Y-490000D01*
X191300Y-488800D01*
X192500Y-489400D01*
X193700Y-488800D01*
X193100Y-490000D01*
X193700Y-491200D01*
X192500Y-490600D01*
X191300Y-491200D01*
X48000Y-367000D02*
X49000Y-365000D01*
X48000Y-363000D01*
X50000Y-364000D01*
X52000Y-363000D01*
X51000Y-365000D01*
X52000Y-367000D01*
X50000Y-366000D01*
X48000Y-367000D01*
X48800Y-366200D02*
X49400Y-365000D01*
X48800Y-363800D01*
X50000Y-364400D01*
X51200Y-363800D01*
X50600Y-365000D01*
X51200Y-366200D01*
X50000Y-365600D01*
X48800Y-366200D01*
X100500Y-404500D02*
X101500Y-402500D01*
X100500Y-400500D01*
X102500Y-401500D01*
X104500Y-400500D01*
X103500Y-402500D01*
X104500Y-404500D01*
X102500Y-403500D01*
X100500Y-404500D01*
X101300Y-403700D02*
X101900Y-402500D01*
X101300Y-401300D01*
X102500Y-401900D01*
X103700Y-401300D01*
X103100Y-402500D01*
X103700Y-403700D01*
X102500Y-403100D01*
X101300Y-403700D01*
X233000Y-462000D02*
X234000Y-460000D01*
X233000Y-458000D01*
X235000Y-459000D01*
X237000Y-458000D01*
X236000Y-460000D01*
X237000Y-462000D01*
X235000Y-461000D01*
X233000Y-462000D01*
X233800Y-461200D02*
X234400Y-460000D01*
X233800Y-458800D01*
X235000Y-459400D01*
X236200Y-458800D01*
X235600Y-460000D01*
X236200Y-461200D01*
X235000Y-460600D01*
X233800Y-461200D01*
X235500Y-459500D02*
X236500Y-457500D01*
X235500Y-455500D01*
X237500Y-456500D01*
X239500Y-455500D01*
X238500Y-457500D01*
X239500Y-459500D01*
X237500Y-458500D01*
X235500Y-459500D01*
X236300Y-458700D02*
X236900Y-457500D01*
X236300Y-456300D01*
X237500Y-456900D01*
X238700Y-456300D01*
X238100Y-457500D01*
X238700Y-458700D01*
X237500Y-458100D01*
X236300Y-458700D01*
X238000Y-457000D02*
X239000Y-455000D01*
X238000Y-453000D01*
X240000Y-454000D01*
X242000Y-453000D01*
X241000Y-455000D01*
X242000Y-457000D01*
X240000Y-456000D01*
X238000Y-457000D01*
X238800Y-456200D02*
X239400Y-455000D01*
X238800Y-453800D01*
X240000Y-454400D01*
X241200Y-453800D01*
X240600Y-455000D01*
X241200Y-456200D01*
X240000Y-455600D01*
X238800Y-456200D01*
X240500Y-454500D02*
X241500Y-452500D01*
X240500Y-450500D01*
X242500Y-451500D01*
X244500Y-450500D01*
X243500Y-452500D01*
X244500Y-454500D01*
X242500Y-453500D01*
X240500Y-454500D01*
X241300Y-453700D02*
X241900Y-452500D01*
X241300Y-451300D01*
X242500Y-451900D01*
X243700Y-451300D01*
X243100Y-452500D01*
X243700Y-453700D01*
X242500Y-453100D01*
X241300Y-453700D01*
X205500Y-462000D02*
X206500Y-460000D01*
X205500Y-458000D01*
X207500Y-459000D01*
X209500Y-458000D01*
X208500Y-460000D01*
X209500Y-462000D01*
X207500Y-461000D01*
X205500Y-462000D01*
X206300Y-461200D02*
X206900Y-460000D01*
X206300Y-458800D01*
X207500Y-459400D01*
X208700Y-458800D01*
X208100Y-460000D01*
X208700Y-461200D01*
X207500Y-460600D01*
X206300Y-461200D01*
X208000Y-459500D02*
X209000Y-457500D01*
X208000Y-455500D01*
X210000Y-456500D01*
X212000Y-455500D01*
X211000Y-457500D01*
X212000Y-459500D01*
X210000Y-458500D01*
X208000Y-459500D01*
X208800Y-458700D02*
X209400Y-457500D01*
X208800Y-456300D01*
X210000Y-456900D01*
X211200Y-456300D01*
X210600Y-457500D01*
X211200Y-458700D01*
X210000Y-458100D01*
X208800Y-458700D01*
X210500Y-457000D02*
X211500Y-455000D01*
X210500Y-453000D01*
X212500Y-454000D01*
X214500Y-453000D01*
X213500Y-455000D01*
X214500Y-457000D01*
X212500Y-456000D01*
X210500Y-457000D01*
X211300Y-456200D02*
X211900Y-455000D01*
X211300Y-453800D01*
X212500Y-454400D01*
X213700Y-453800D01*
X213100Y-455000D01*
X213700Y-456200D01*
X212500Y-455600D01*
X211300Y-456200D01*
X213000Y-454500D02*
X214000Y-452500D01*
X213000Y-450500D01*
X215000Y-451500D01*
X217000Y-450500D01*
X216000Y-452500D01*
X217000Y-454500D01*
X215000Y-453500D01*
X213000Y-454500D01*
X213800Y-453700D02*
X214400Y-452500D01*
X213800Y-451300D01*
X215000Y-451900D01*
X216200Y-451300D01*
X215600Y-452500D01*
X216200Y-453700D01*
X215000Y-453100D01*
X213800Y-453700D01*
X228000Y-467000D02*
X229000Y-465000D01*
X228000Y-463000D01*
X230000Y-464000D01*
X232000Y-463000D01*
X231000Y-465000D01*
X232000Y-467000D01*
X230000Y-466000D01*
X228000Y-467000D01*
X228800Y-466200D02*
X229400Y-465000D01*
X228800Y-463800D01*
X230000Y-464400D01*
X231200Y-463800D01*
X230600Y-465000D01*
X231200Y-466200D01*
X230000Y-465600D01*
X228800Y-466200D01*
X230500Y-464500D02*
X231500Y-462500D01*
X230500Y-460500D01*
X232500Y-461500D01*
X234500Y-460500D01*
X233500Y-462500D01*
X234500Y-464500D01*
X232500Y-463500D01*
X230500Y-464500D01*
X231300Y-463700D02*
X231900Y-462500D01*
X231300Y-461300D01*
X232500Y-461900D01*
X233700Y-461300D01*
X233100Y-462500D01*
X233700Y-463700D01*
X232500Y-463100D01*
X231300Y-463700D01*
X224000Y-469500D02*
X225000Y-467500D01*
X224000Y-465500D01*
X226000Y-466500D01*
X228000Y-465500D01*
X227000Y-467500D01*
X228000Y-469500D01*
X226000Y-468500D01*
X224000Y-469500D01*
X224800Y-468700D02*
X225400Y-467500D01*
X224800Y-466300D01*
X226000Y-466900D01*
X227200Y-466300D01*
X226600Y-467500D01*
X227200Y-468700D01*
X226000Y-468100D01*
X224800Y-468700D01*
X190500Y-472000D02*
X191500Y-470000D01*
X190500Y-468000D01*
X192500Y-469000D01*
X194500Y-468000D01*
X193500Y-470000D01*
X194500Y-472000D01*
X192500Y-471000D01*
X190500Y-472000D01*
X191300Y-471200D02*
X191900Y-470000D01*
X191300Y-468800D01*
X192500Y-469400D01*
X193700Y-468800D01*
X193100Y-470000D01*
X193700Y-471200D01*
X192500Y-470600D01*
X191300Y-471200D01*
X178000Y-462000D02*
X179000Y-460000D01*
X178000Y-458000D01*
X180000Y-459000D01*
X182000Y-458000D01*
X181000Y-460000D01*
X182000Y-462000D01*
X180000Y-461000D01*
X178000Y-462000D01*
X178800Y-461200D02*
X179400Y-460000D01*
X178800Y-458800D01*
X180000Y-459400D01*
X181200Y-458800D01*
X180600Y-460000D01*
X181200Y-461200D01*
X180000Y-460600D01*
X178800Y-461200D01*
X184500Y-469500D02*
X185500Y-467500D01*
X184500Y-465500D01*
X186500Y-466500D01*
X188500Y-465500D01*
X187500Y-467500D01*
X188500Y-469500D01*
X186500Y-468500D01*
X184500Y-469500D01*
X185300Y-468700D02*
X185900Y-467500D01*
X185300Y-466300D01*
X186500Y-466900D01*
X187700Y-466300D01*
X187100Y-467500D01*
X187700Y-468700D01*
X186500Y-468100D01*
X185300Y-468700D01*
X44000Y-251500D02*
X45000Y-249500D01*
X44000Y-247500D01*
X46000Y-248500D01*
X48000Y-247500D01*
X47000Y-249500D01*
X48000Y-251500D01*
X46000Y-250500D01*
X44000Y-251500D01*
X44800Y-250700D02*
X45400Y-249500D01*
X44800Y-248300D01*
X46000Y-248900D01*
X47200Y-248300D01*
X46600Y-249500D01*
X47200Y-250700D01*
X46000Y-250100D01*
X44800Y-250700D01*
X44000Y-275500D02*
X45000Y-273500D01*
X44000Y-271500D01*
X46000Y-272500D01*
X48000Y-271500D01*
X47000Y-273500D01*
X48000Y-275500D01*
X46000Y-274500D01*
X44000Y-275500D01*
X44800Y-274700D02*
X45400Y-273500D01*
X44800Y-272300D01*
X46000Y-272900D01*
X47200Y-272300D01*
X46600Y-273500D01*
X47200Y-274700D01*
X46000Y-274100D01*
X44800Y-274700D01*
X44000Y-281500D02*
X45000Y-279500D01*
X44000Y-277500D01*
X46000Y-278500D01*
X48000Y-277500D01*
X47000Y-279500D01*
X48000Y-281500D01*
X46000Y-280500D01*
X44000Y-281500D01*
X44800Y-280700D02*
X45400Y-279500D01*
X44800Y-278300D01*
X46000Y-278900D01*
X47200Y-278300D01*
X46600Y-279500D01*
X47200Y-280700D01*
X46000Y-280100D01*
X44800Y-280700D01*
X44000Y-305500D02*
X45000Y-303500D01*
X44000Y-301500D01*
X46000Y-302500D01*
X48000Y-301500D01*
X47000Y-303500D01*
X48000Y-305500D01*
X46000Y-304500D01*
X44000Y-305500D01*
X44800Y-304700D02*
X45400Y-303500D01*
X44800Y-302300D01*
X46000Y-302900D01*
X47200Y-302300D01*
X46600Y-303500D01*
X47200Y-304700D01*
X46000Y-304100D01*
X44800Y-304700D01*
X44000Y-293500D02*
X45000Y-291500D01*
X44000Y-289500D01*
X46000Y-290500D01*
X48000Y-289500D01*
X47000Y-291500D01*
X48000Y-293500D01*
X46000Y-292500D01*
X44000Y-293500D01*
X44800Y-292700D02*
X45400Y-291500D01*
X44800Y-290300D01*
X46000Y-290900D01*
X47200Y-290300D01*
X46600Y-291500D01*
X47200Y-292700D01*
X46000Y-292100D01*
X44800Y-292700D01*
X44000Y-287500D02*
X45000Y-285500D01*
X44000Y-283500D01*
X46000Y-284500D01*
X48000Y-283500D01*
X47000Y-285500D01*
X48000Y-287500D01*
X46000Y-286500D01*
X44000Y-287500D01*
X44800Y-286700D02*
X45400Y-285500D01*
X44800Y-284300D01*
X46000Y-284900D01*
X47200Y-284300D01*
X46600Y-285500D01*
X47200Y-286700D01*
X46000Y-286100D01*
X44800Y-286700D01*
X44000Y-299500D02*
X45000Y-297500D01*
X44000Y-295500D01*
X46000Y-296500D01*
X48000Y-295500D01*
X47000Y-297500D01*
X48000Y-299500D01*
X46000Y-298500D01*
X44000Y-299500D01*
X44800Y-298700D02*
X45400Y-297500D01*
X44800Y-296300D01*
X46000Y-296900D01*
X47200Y-296300D01*
X46600Y-297500D01*
X47200Y-298700D01*
X46000Y-298100D01*
X44800Y-298700D01*
X44000Y-311500D02*
X45000Y-309500D01*
X44000Y-307500D01*
X46000Y-308500D01*
X48000Y-307500D01*
X47000Y-309500D01*
X48000Y-311500D01*
X46000Y-310500D01*
X44000Y-311500D01*
X44800Y-310700D02*
X45400Y-309500D01*
X44800Y-308300D01*
X46000Y-308900D01*
X47200Y-308300D01*
X46600Y-309500D01*
X47200Y-310700D01*
X46000Y-310100D01*
X44800Y-310700D01*
X50500Y-319500D02*
X51500Y-317500D01*
X50500Y-315500D01*
X52500Y-316500D01*
X54500Y-315500D01*
X53500Y-317500D01*
X54500Y-319500D01*
X52500Y-318500D01*
X50500Y-319500D01*
X51300Y-318700D02*
X51900Y-317500D01*
X51300Y-316300D01*
X52500Y-316900D01*
X53700Y-316300D01*
X53100Y-317500D01*
X53700Y-318700D01*
X52500Y-318100D01*
X51300Y-318700D01*
X44000Y-269500D02*
X45000Y-267500D01*
X44000Y-265500D01*
X46000Y-266500D01*
X48000Y-265500D01*
X47000Y-267500D01*
X48000Y-269500D01*
X46000Y-268500D01*
X44000Y-269500D01*
X44800Y-268700D02*
X45400Y-267500D01*
X44800Y-266300D01*
X46000Y-266900D01*
X47200Y-266300D01*
X46600Y-267500D01*
X47200Y-268700D01*
X46000Y-268100D01*
X44800Y-268700D01*
X44000Y-263591D02*
X45000Y-261591D01*
X44000Y-259591D01*
X46000Y-260591D01*
X48000Y-259591D01*
X47000Y-261591D01*
X48000Y-263591D01*
X46000Y-262591D01*
X44000Y-263591D01*
X44800Y-262790D02*
X45400Y-261591D01*
X44800Y-260390D01*
X46000Y-260991D01*
X47200Y-260390D01*
X46600Y-261591D01*
X47200Y-262790D01*
X46000Y-262191D01*
X44800Y-262790D01*
X135500Y-272000D02*
X136500Y-270000D01*
X135500Y-268000D01*
X137500Y-269000D01*
X139500Y-268000D01*
X138500Y-270000D01*
X139500Y-272000D01*
X137500Y-271000D01*
X135500Y-272000D01*
X136300Y-271200D02*
X136900Y-270000D01*
X136300Y-268800D01*
X137500Y-269400D01*
X138700Y-268800D01*
X138100Y-270000D01*
X138700Y-271200D01*
X137500Y-270600D01*
X136300Y-271200D01*
X132500Y-274500D02*
X133500Y-272500D01*
X132500Y-270500D01*
X134500Y-271500D01*
X136500Y-270500D01*
X135500Y-272500D01*
X136500Y-274500D01*
X134500Y-273500D01*
X132500Y-274500D01*
X133300Y-273700D02*
X133900Y-272500D01*
X133300Y-271300D01*
X134500Y-271900D01*
X135700Y-271300D01*
X135100Y-272500D01*
X135700Y-273700D01*
X134500Y-273100D01*
X133300Y-273700D01*
X146000Y-258500D02*
X147000Y-256500D01*
X146000Y-254500D01*
X148000Y-255500D01*
X150000Y-254500D01*
X149000Y-256500D01*
X150000Y-258500D01*
X148000Y-257500D01*
X146000Y-258500D01*
X146800Y-257700D02*
X147400Y-256500D01*
X146800Y-255300D01*
X148000Y-255900D01*
X149200Y-255300D01*
X148600Y-256500D01*
X149200Y-257700D01*
X148000Y-257100D01*
X146800Y-257700D01*
X132500Y-258500D02*
X133500Y-256500D01*
X132500Y-254500D01*
X134500Y-255500D01*
X136500Y-254500D01*
X135500Y-256500D01*
X136500Y-258500D01*
X134500Y-257500D01*
X132500Y-258500D01*
X133300Y-257700D02*
X133900Y-256500D01*
X133300Y-255300D01*
X134500Y-255900D01*
X135700Y-255300D01*
X135100Y-256500D01*
X135700Y-257700D01*
X134500Y-257100D01*
X133300Y-257700D01*
X180500Y-459500D02*
X181500Y-457500D01*
X180500Y-455500D01*
X182500Y-456500D01*
X184500Y-455500D01*
X183500Y-457500D01*
X184500Y-459500D01*
X182500Y-458500D01*
X180500Y-459500D01*
X181300Y-458700D02*
X181900Y-457500D01*
X181300Y-456300D01*
X182500Y-456900D01*
X183700Y-456300D01*
X183100Y-457500D01*
X183700Y-458700D01*
X182500Y-458100D01*
X181300Y-458700D01*
X169421Y-440579D02*
X170421Y-438579D01*
X169421Y-436579D01*
X171421Y-437579D01*
X173421Y-436579D01*
X172421Y-438579D01*
X173421Y-440579D01*
X171421Y-439579D01*
X169421Y-440579D01*
X170221Y-439779D02*
X170821Y-438579D01*
X170221Y-437379D01*
X171421Y-437979D01*
X172621Y-437379D01*
X172021Y-438579D01*
X172621Y-439779D01*
X171421Y-439179D01*
X170221Y-439779D01*
X120500Y-447000D02*
X121500Y-445000D01*
X120500Y-443000D01*
X122500Y-444000D01*
X124500Y-443000D01*
X123500Y-445000D01*
X124500Y-447000D01*
X122500Y-446000D01*
X120500Y-447000D01*
X121300Y-446200D02*
X121900Y-445000D01*
X121300Y-443800D01*
X122500Y-444400D01*
X123700Y-443800D01*
X123100Y-445000D01*
X123700Y-446200D01*
X122500Y-445600D01*
X121300Y-446200D01*
X118000Y-449500D02*
X119000Y-447500D01*
X118000Y-445500D01*
X120000Y-446500D01*
X122000Y-445500D01*
X121000Y-447500D01*
X122000Y-449500D01*
X120000Y-448500D01*
X118000Y-449500D01*
X118800Y-448700D02*
X119400Y-447500D01*
X118800Y-446300D01*
X120000Y-446900D01*
X121200Y-446300D01*
X120600Y-447500D01*
X121200Y-448700D01*
X120000Y-448100D01*
X118800Y-448700D01*
X120500Y-452000D02*
X121500Y-450000D01*
X120500Y-448000D01*
X122500Y-449000D01*
X124500Y-448000D01*
X123500Y-450000D01*
X124500Y-452000D01*
X122500Y-451000D01*
X120500Y-452000D01*
X121300Y-451200D02*
X121900Y-450000D01*
X121300Y-448800D01*
X122500Y-449400D01*
X123700Y-448800D01*
X123100Y-450000D01*
X123700Y-451200D01*
X122500Y-450600D01*
X121300Y-451200D01*
X118000Y-454500D02*
X119000Y-452500D01*
X118000Y-450500D01*
X120000Y-451500D01*
X122000Y-450500D01*
X121000Y-452500D01*
X122000Y-454500D01*
X120000Y-453500D01*
X118000Y-454500D01*
X118800Y-453700D02*
X119400Y-452500D01*
X118800Y-451300D01*
X120000Y-451900D01*
X121200Y-451300D01*
X120600Y-452500D01*
X121200Y-453700D01*
X120000Y-453100D01*
X118800Y-453700D01*
X113000Y-444500D02*
X114000Y-442500D01*
X113000Y-440500D01*
X115000Y-441500D01*
X117000Y-440500D01*
X116000Y-442500D01*
X117000Y-444500D01*
X115000Y-443500D01*
X113000Y-444500D01*
X113800Y-443700D02*
X114400Y-442500D01*
X113800Y-441300D01*
X115000Y-441900D01*
X116200Y-441300D01*
X115600Y-442500D01*
X116200Y-443700D01*
X115000Y-443100D01*
X113800Y-443700D01*
X110500Y-394500D02*
X111500Y-392500D01*
X110500Y-390500D01*
X112500Y-391500D01*
X114500Y-390500D01*
X113500Y-392500D01*
X114500Y-394500D01*
X112500Y-393500D01*
X110500Y-394500D01*
X111300Y-393700D02*
X111900Y-392500D01*
X111300Y-391300D01*
X112500Y-391900D01*
X113700Y-391300D01*
X113100Y-392500D01*
X113700Y-393700D01*
X112500Y-393100D01*
X111300Y-393700D01*
X105500Y-439500D02*
X106500Y-437500D01*
X105500Y-435500D01*
X107500Y-436500D01*
X109500Y-435500D01*
X108500Y-437500D01*
X109500Y-439500D01*
X107500Y-438500D01*
X105500Y-439500D01*
X106300Y-438700D02*
X106900Y-437500D01*
X106300Y-436300D01*
X107500Y-436900D01*
X108700Y-436300D01*
X108100Y-437500D01*
X108700Y-438700D01*
X107500Y-438100D01*
X106300Y-438700D01*
X103000Y-407500D02*
X104000Y-405500D01*
X103000Y-403500D01*
X105000Y-404500D01*
X107000Y-403500D01*
X106000Y-405500D01*
X107000Y-407500D01*
X105000Y-406500D01*
X103000Y-407500D01*
X103800Y-406700D02*
X104400Y-405500D01*
X103800Y-404300D01*
X105000Y-404900D01*
X106200Y-404300D01*
X105600Y-405500D01*
X106200Y-406700D01*
X105000Y-406100D01*
X103800Y-406700D01*
X108000Y-392000D02*
X109000Y-390000D01*
X108000Y-388000D01*
X110000Y-389000D01*
X112000Y-388000D01*
X111000Y-390000D01*
X112000Y-392000D01*
X110000Y-391000D01*
X108000Y-392000D01*
X108800Y-391200D02*
X109400Y-390000D01*
X108800Y-388800D01*
X110000Y-389400D01*
X111200Y-388800D01*
X110600Y-390000D01*
X111200Y-391200D01*
X110000Y-390600D01*
X108800Y-391200D01*
X105500Y-394500D02*
X106500Y-392500D01*
X105500Y-390500D01*
X107500Y-391500D01*
X109500Y-390500D01*
X108500Y-392500D01*
X109500Y-394500D01*
X107500Y-393500D01*
X105500Y-394500D01*
X106300Y-393700D02*
X106900Y-392500D01*
X106300Y-391300D01*
X107500Y-391900D01*
X108700Y-391300D01*
X108100Y-392500D01*
X108700Y-393700D01*
X107500Y-393100D01*
X106300Y-393700D01*
X103000Y-392000D02*
X104000Y-390000D01*
X103000Y-388000D01*
X105000Y-389000D01*
X107000Y-388000D01*
X106000Y-390000D01*
X107000Y-392000D01*
X105000Y-391000D01*
X103000Y-392000D01*
X103800Y-391200D02*
X104400Y-390000D01*
X103800Y-388800D01*
X105000Y-389400D01*
X106200Y-388800D01*
X105600Y-390000D01*
X106200Y-391200D01*
X105000Y-390600D01*
X103800Y-391200D01*
X100500Y-394500D02*
X101500Y-392500D01*
X100500Y-390500D01*
X102500Y-391500D01*
X104500Y-390500D01*
X103500Y-392500D01*
X104500Y-394500D01*
X102500Y-393500D01*
X100500Y-394500D01*
X101300Y-393700D02*
X101900Y-392500D01*
X101300Y-391300D01*
X102500Y-391900D01*
X103700Y-391300D01*
X103100Y-392500D01*
X103700Y-393700D01*
X102500Y-393100D01*
X101300Y-393700D01*
X98000Y-392000D02*
X99000Y-390000D01*
X98000Y-388000D01*
X100000Y-389000D01*
X102000Y-388000D01*
X101000Y-390000D01*
X102000Y-392000D01*
X100000Y-391000D01*
X98000Y-392000D01*
X98800Y-391200D02*
X99400Y-390000D01*
X98800Y-388800D01*
X100000Y-389400D01*
X101200Y-388800D01*
X100600Y-390000D01*
X101200Y-391200D01*
X100000Y-390600D01*
X98800Y-391200D01*
X95500Y-394500D02*
X96500Y-392500D01*
X95500Y-390500D01*
X97500Y-391500D01*
X99500Y-390500D01*
X98500Y-392500D01*
X99500Y-394500D01*
X97500Y-393500D01*
X95500Y-394500D01*
X96300Y-393700D02*
X96900Y-392500D01*
X96300Y-391300D01*
X97500Y-391900D01*
X98700Y-391300D01*
X98100Y-392500D01*
X98700Y-393700D01*
X97500Y-393100D01*
X96300Y-393700D01*
X93000Y-392000D02*
X94000Y-390000D01*
X93000Y-388000D01*
X95000Y-389000D01*
X97000Y-388000D01*
X96000Y-390000D01*
X97000Y-392000D01*
X95000Y-391000D01*
X93000Y-392000D01*
X93800Y-391200D02*
X94400Y-390000D01*
X93800Y-388800D01*
X95000Y-389400D01*
X96200Y-388800D01*
X95600Y-390000D01*
X96200Y-391200D01*
X95000Y-390600D01*
X93800Y-391200D01*
X108000Y-429500D02*
X109000Y-427500D01*
X108000Y-425500D01*
X110000Y-426500D01*
X112000Y-425500D01*
X111000Y-427500D01*
X112000Y-429500D01*
X110000Y-428500D01*
X108000Y-429500D01*
X108800Y-428700D02*
X109400Y-427500D01*
X108800Y-426300D01*
X110000Y-426900D01*
X111200Y-426300D01*
X110600Y-427500D01*
X111200Y-428700D01*
X110000Y-428100D01*
X108800Y-428700D01*
X95500Y-427000D02*
X96500Y-425000D01*
X95500Y-423000D01*
X97500Y-424000D01*
X99500Y-423000D01*
X98500Y-425000D01*
X99500Y-427000D01*
X97500Y-426000D01*
X95500Y-427000D01*
X96300Y-426200D02*
X96900Y-425000D01*
X96300Y-423800D01*
X97500Y-424400D01*
X98700Y-423800D01*
X98100Y-425000D01*
X98700Y-426200D01*
X97500Y-425600D01*
X96300Y-426200D01*
X93000Y-429500D02*
X94000Y-427500D01*
X93000Y-425500D01*
X95000Y-426500D01*
X97000Y-425500D01*
X96000Y-427500D01*
X97000Y-429500D01*
X95000Y-428500D01*
X93000Y-429500D01*
X93800Y-428700D02*
X94400Y-427500D01*
X93800Y-426300D01*
X95000Y-426900D01*
X96200Y-426300D01*
X95600Y-427500D01*
X96200Y-428700D01*
X95000Y-428100D01*
X93800Y-428700D01*
X90500Y-394500D02*
X91500Y-392500D01*
X90500Y-390500D01*
X92500Y-391500D01*
X94500Y-390500D01*
X93500Y-392500D01*
X94500Y-394500D01*
X92500Y-393500D01*
X90500Y-394500D01*
X91300Y-393700D02*
X91900Y-392500D01*
X91300Y-391300D01*
X92500Y-391900D01*
X93700Y-391300D01*
X93100Y-392500D01*
X93700Y-393700D01*
X92500Y-393100D01*
X91300Y-393700D01*
X88000Y-392000D02*
X89000Y-390000D01*
X88000Y-388000D01*
X90000Y-389000D01*
X92000Y-388000D01*
X91000Y-390000D01*
X92000Y-392000D01*
X90000Y-391000D01*
X88000Y-392000D01*
X88800Y-391200D02*
X89400Y-390000D01*
X88800Y-388800D01*
X90000Y-389400D01*
X91200Y-388800D01*
X90600Y-390000D01*
X91200Y-391200D01*
X90000Y-390600D01*
X88800Y-391200D01*
X78000Y-418000D02*
X79000Y-416000D01*
X78000Y-414000D01*
X80000Y-415000D01*
X82000Y-414000D01*
X81000Y-416000D01*
X82000Y-418000D01*
X80000Y-417000D01*
X78000Y-418000D01*
X78800Y-417200D02*
X79400Y-416000D01*
X78800Y-414800D01*
X80000Y-415400D01*
X81200Y-414800D01*
X80600Y-416000D01*
X81200Y-417200D01*
X80000Y-416600D01*
X78800Y-417200D01*
X78000Y-387000D02*
X79000Y-385000D01*
X78000Y-383000D01*
X80000Y-384000D01*
X82000Y-383000D01*
X81000Y-385000D01*
X82000Y-387000D01*
X80000Y-386000D01*
X78000Y-387000D01*
X78800Y-386200D02*
X79400Y-385000D01*
X78800Y-383800D01*
X80000Y-384400D01*
X81200Y-383800D01*
X80600Y-385000D01*
X81200Y-386200D01*
X80000Y-385600D01*
X78800Y-386200D01*
X85500Y-394500D02*
X86500Y-392500D01*
X85500Y-390500D01*
X87500Y-391500D01*
X89500Y-390500D01*
X88500Y-392500D01*
X89500Y-394500D01*
X87500Y-393500D01*
X85500Y-394500D01*
X86300Y-393700D02*
X86900Y-392500D01*
X86300Y-391300D01*
X87500Y-391900D01*
X88700Y-391300D01*
X88100Y-392500D01*
X88700Y-393700D01*
X87500Y-393100D01*
X86300Y-393700D01*
X58000Y-372000D02*
X59000Y-370000D01*
X58000Y-368000D01*
X60000Y-369000D01*
X62000Y-368000D01*
X61000Y-370000D01*
X62000Y-372000D01*
X60000Y-371000D01*
X58000Y-372000D01*
X58800Y-371200D02*
X59400Y-370000D01*
X58800Y-368800D01*
X60000Y-369400D01*
X61200Y-368800D01*
X60600Y-370000D01*
X61200Y-371200D01*
X60000Y-370600D01*
X58800Y-371200D01*
X60500Y-374500D02*
X61500Y-372500D01*
X60500Y-370500D01*
X62500Y-371500D01*
X64500Y-370500D01*
X63500Y-372500D01*
X64500Y-374500D01*
X62500Y-373500D01*
X60500Y-374500D01*
X61300Y-373700D02*
X61900Y-372500D01*
X61300Y-371300D01*
X62500Y-371900D01*
X63700Y-371300D01*
X63100Y-372500D01*
X63700Y-373700D01*
X62500Y-373100D01*
X61300Y-373700D01*
X63000Y-377000D02*
X64000Y-375000D01*
X63000Y-373000D01*
X65000Y-374000D01*
X67000Y-373000D01*
X66000Y-375000D01*
X67000Y-377000D01*
X65000Y-376000D01*
X63000Y-377000D01*
X63800Y-376200D02*
X64400Y-375000D01*
X63800Y-373800D01*
X65000Y-374400D01*
X66200Y-373800D01*
X65600Y-375000D01*
X66200Y-376200D01*
X65000Y-375600D01*
X63800Y-376200D01*
X65500Y-379500D02*
X66500Y-377500D01*
X65500Y-375500D01*
X67500Y-376500D01*
X69500Y-375500D01*
X68500Y-377500D01*
X69500Y-379500D01*
X67500Y-378500D01*
X65500Y-379500D01*
X66300Y-378700D02*
X66900Y-377500D01*
X66300Y-376300D01*
X67500Y-376900D01*
X68700Y-376300D01*
X68100Y-377500D01*
X68700Y-378700D01*
X67500Y-378100D01*
X66300Y-378700D01*
X68000Y-382000D02*
X69000Y-380000D01*
X68000Y-378000D01*
X70000Y-379000D01*
X72000Y-378000D01*
X71000Y-380000D01*
X72000Y-382000D01*
X70000Y-381000D01*
X68000Y-382000D01*
X68800Y-381200D02*
X69400Y-380000D01*
X68800Y-378800D01*
X70000Y-379400D01*
X71200Y-378800D01*
X70600Y-380000D01*
X71200Y-381200D01*
X70000Y-380600D01*
X68800Y-381200D01*
X73000Y-382000D02*
X74000Y-380000D01*
X73000Y-378000D01*
X75000Y-379000D01*
X77000Y-378000D01*
X76000Y-380000D01*
X77000Y-382000D01*
X75000Y-381000D01*
X73000Y-382000D01*
X73800Y-381200D02*
X74400Y-380000D01*
X73800Y-378800D01*
X75000Y-379400D01*
X76200Y-378800D01*
X75600Y-380000D01*
X76200Y-381200D01*
X75000Y-380600D01*
X73800Y-381200D01*
X75500Y-384500D02*
X76500Y-382500D01*
X75500Y-380500D01*
X77500Y-381500D01*
X79500Y-380500D01*
X78500Y-382500D01*
X79500Y-384500D01*
X77500Y-383500D01*
X75500Y-384500D01*
X76300Y-383700D02*
X76900Y-382500D01*
X76300Y-381300D01*
X77500Y-381900D01*
X78700Y-381300D01*
X78100Y-382500D01*
X78700Y-383700D01*
X77500Y-383100D01*
X76300Y-383700D01*
X83000Y-392000D02*
X84000Y-390000D01*
X83000Y-388000D01*
X85000Y-389000D01*
X87000Y-388000D01*
X86000Y-390000D01*
X87000Y-392000D01*
X85000Y-391000D01*
X83000Y-392000D01*
X83800Y-391200D02*
X84400Y-390000D01*
X83800Y-388800D01*
X85000Y-389400D01*
X86200Y-388800D01*
X85600Y-390000D01*
X86200Y-391200D01*
X85000Y-390600D01*
X83800Y-391200D01*
X80500Y-389500D02*
X81500Y-387500D01*
X80500Y-385500D01*
X82500Y-386500D01*
X84500Y-385500D01*
X83500Y-387500D01*
X84500Y-389500D01*
X82500Y-388500D01*
X80500Y-389500D01*
X81300Y-388700D02*
X81900Y-387500D01*
X81300Y-386300D01*
X82500Y-386900D01*
X83700Y-386300D01*
X83100Y-387500D01*
X83700Y-388700D01*
X82500Y-388100D01*
X81300Y-388700D01*
X85500Y-414500D02*
X86500Y-412500D01*
X85500Y-410500D01*
X87500Y-411500D01*
X89500Y-410500D01*
X88500Y-412500D01*
X89500Y-414500D01*
X87500Y-413500D01*
X85500Y-414500D01*
X86300Y-413700D02*
X86900Y-412500D01*
X86300Y-411300D01*
X87500Y-411900D01*
X88700Y-411300D01*
X88100Y-412500D01*
X88700Y-413700D01*
X87500Y-413100D01*
X86300Y-413700D01*
X83000Y-412000D02*
X84000Y-410000D01*
X83000Y-408000D01*
X85000Y-409000D01*
X87000Y-408000D01*
X86000Y-410000D01*
X87000Y-412000D01*
X85000Y-411000D01*
X83000Y-412000D01*
X83800Y-411200D02*
X84400Y-410000D01*
X83800Y-408800D01*
X85000Y-409400D01*
X86200Y-408800D01*
X85600Y-410000D01*
X86200Y-411200D01*
X85000Y-410600D01*
X83800Y-411200D01*
X80500Y-399500D02*
X81500Y-397500D01*
X80500Y-395500D01*
X82500Y-396500D01*
X84500Y-395500D01*
X83500Y-397500D01*
X84500Y-399500D01*
X82500Y-398500D01*
X80500Y-399500D01*
X81300Y-398700D02*
X81900Y-397500D01*
X81300Y-396300D01*
X82500Y-396900D01*
X83700Y-396300D01*
X83100Y-397500D01*
X83700Y-398700D01*
X82500Y-398100D01*
X81300Y-398700D01*
X73000Y-412000D02*
X74000Y-410000D01*
X73000Y-408000D01*
X75000Y-409000D01*
X77000Y-408000D01*
X76000Y-410000D01*
X77000Y-412000D01*
X75000Y-411000D01*
X73000Y-412000D01*
X73800Y-411200D02*
X74400Y-410000D01*
X73800Y-408800D01*
X75000Y-409400D01*
X76200Y-408800D01*
X75600Y-410000D01*
X76200Y-411200D01*
X75000Y-410600D01*
X73800Y-411200D01*
X75500Y-414500D02*
X76500Y-412500D01*
X75500Y-410500D01*
X77500Y-411500D01*
X79500Y-410500D01*
X78500Y-412500D01*
X79500Y-414500D01*
X77500Y-413500D01*
X75500Y-414500D01*
X76300Y-413700D02*
X76900Y-412500D01*
X76300Y-411300D01*
X77500Y-411900D01*
X78700Y-411300D01*
X78100Y-412500D01*
X78700Y-413700D01*
X77500Y-413100D01*
X76300Y-413700D01*
X125500Y-419500D02*
X126500Y-417500D01*
X125500Y-415500D01*
X127500Y-416500D01*
X129500Y-415500D01*
X128500Y-417500D01*
X129500Y-419500D01*
X127500Y-418500D01*
X125500Y-419500D01*
X126300Y-418700D02*
X126900Y-417500D01*
X126300Y-416300D01*
X127500Y-416900D01*
X128700Y-416300D01*
X128100Y-417500D01*
X128700Y-418700D01*
X127500Y-418100D01*
X126300Y-418700D01*
X224500Y-452000D02*
X225500Y-450000D01*
X224500Y-448000D01*
X226500Y-449000D01*
X228500Y-448000D01*
X227500Y-450000D01*
X228500Y-452000D01*
X226500Y-451000D01*
X224500Y-452000D01*
X225300Y-451200D02*
X225900Y-450000D01*
X225300Y-448800D01*
X226500Y-449400D01*
X227700Y-448800D01*
X227100Y-450000D01*
X227700Y-451200D01*
X226500Y-450600D01*
X225300Y-451200D01*
X226000Y-433500D02*
X227000Y-431500D01*
X226000Y-429500D01*
X228000Y-430500D01*
X230000Y-429500D01*
X229000Y-431500D01*
X230000Y-433500D01*
X228000Y-432500D01*
X226000Y-433500D01*
X226800Y-432700D02*
X227400Y-431500D01*
X226800Y-430300D01*
X228000Y-430900D01*
X229200Y-430300D01*
X228600Y-431500D01*
X229200Y-432700D01*
X228000Y-432100D01*
X226800Y-432700D01*
X234000Y-449500D02*
X235000Y-447500D01*
X234000Y-445500D01*
X236000Y-446500D01*
X238000Y-445500D01*
X237000Y-447500D01*
X238000Y-449500D01*
X236000Y-448500D01*
X234000Y-449500D01*
X234800Y-448700D02*
X235400Y-447500D01*
X234800Y-446300D01*
X236000Y-446900D01*
X237200Y-446300D01*
X236600Y-447500D01*
X237200Y-448700D01*
X236000Y-448100D01*
X234800Y-448700D01*
X236500Y-447000D02*
X237500Y-445000D01*
X236500Y-443000D01*
X238500Y-444000D01*
X240500Y-443000D01*
X239500Y-445000D01*
X240500Y-447000D01*
X238500Y-446000D01*
X236500Y-447000D01*
X237300Y-446200D02*
X237900Y-445000D01*
X237300Y-443800D01*
X238500Y-444400D01*
X239700Y-443800D01*
X239100Y-445000D01*
X239700Y-446200D01*
X238500Y-445600D01*
X237300Y-446200D01*
X173000Y-90000D02*
X174000Y-88000D01*
X173000Y-86000D01*
X175000Y-87000D01*
X177000Y-86000D01*
X176000Y-88000D01*
X177000Y-90000D01*
X175000Y-89000D01*
X173000Y-90000D01*
X173800Y-89200D02*
X174400Y-88000D01*
X173800Y-86800D01*
X175000Y-87400D01*
X176200Y-86800D01*
X175600Y-88000D01*
X176200Y-89200D01*
X175000Y-88600D01*
X173800Y-89200D01*
X185000Y-101000D02*
X186000Y-99000D01*
X185000Y-97000D01*
X187000Y-98000D01*
X189000Y-97000D01*
X188000Y-99000D01*
X189000Y-101000D01*
X187000Y-100000D01*
X185000Y-101000D01*
X185800Y-100200D02*
X186400Y-99000D01*
X185800Y-97800D01*
X187000Y-98400D01*
X188200Y-97800D01*
X187600Y-99000D01*
X188200Y-100200D01*
X187000Y-99600D01*
X185800Y-100200D01*
X188000Y-98000D02*
X189000Y-96000D01*
X188000Y-94000D01*
X190000Y-95000D01*
X192000Y-94000D01*
X191000Y-96000D01*
X192000Y-98000D01*
X190000Y-97000D01*
X188000Y-98000D01*
X188800Y-97200D02*
X189400Y-96000D01*
X188800Y-94800D01*
X190000Y-95400D01*
X191200Y-94800D01*
X190600Y-96000D01*
X191200Y-97200D01*
X190000Y-96600D01*
X188800Y-97200D01*
X120500Y-93000D02*
X121500Y-91000D01*
X120500Y-89000D01*
X122500Y-90000D01*
X124500Y-89000D01*
X123500Y-91000D01*
X124500Y-93000D01*
X122500Y-92000D01*
X120500Y-93000D01*
X121300Y-92200D02*
X121900Y-91000D01*
X121300Y-89800D01*
X122500Y-90400D01*
X123700Y-89800D01*
X123100Y-91000D01*
X123700Y-92200D01*
X122500Y-91600D01*
X121300Y-92200D01*
X180000Y-95500D02*
X181000Y-93500D01*
X180000Y-91500D01*
X182000Y-92500D01*
X184000Y-91500D01*
X183000Y-93500D01*
X184000Y-95500D01*
X182000Y-94500D01*
X180000Y-95500D01*
X180800Y-94700D02*
X181400Y-93500D01*
X180800Y-92300D01*
X182000Y-92900D01*
X183200Y-92300D01*
X182600Y-93500D01*
X183200Y-94700D01*
X182000Y-94100D01*
X180800Y-94700D01*
X177000Y-93000D02*
X178000Y-91000D01*
X177000Y-89000D01*
X179000Y-90000D01*
X181000Y-89000D01*
X180000Y-91000D01*
X181000Y-93000D01*
X179000Y-92000D01*
X177000Y-93000D01*
X177800Y-92200D02*
X178400Y-91000D01*
X177800Y-89800D01*
X179000Y-90400D01*
X180200Y-89800D01*
X179600Y-91000D01*
X180200Y-92200D01*
X179000Y-91600D01*
X177800Y-92200D01*
X134500Y-89500D02*
X135500Y-87500D01*
X134500Y-85500D01*
X136500Y-86500D01*
X138500Y-85500D01*
X137500Y-87500D01*
X138500Y-89500D01*
X136500Y-88500D01*
X134500Y-89500D01*
X135300Y-88700D02*
X135900Y-87500D01*
X135300Y-86300D01*
X136500Y-86900D01*
X137700Y-86300D01*
X137100Y-87500D01*
X137700Y-88700D01*
X136500Y-88100D01*
X135300Y-88700D01*
X125500Y-93000D02*
X126500Y-91000D01*
X125500Y-89000D01*
X127500Y-90000D01*
X129500Y-89000D01*
X128500Y-91000D01*
X129500Y-93000D01*
X127500Y-92000D01*
X125500Y-93000D01*
X126300Y-92200D02*
X126900Y-91000D01*
X126300Y-89800D01*
X127500Y-90400D01*
X128700Y-89800D01*
X128100Y-91000D01*
X128700Y-92200D01*
X127500Y-91600D01*
X126300Y-92200D01*
X160201Y-415224D02*
X161201Y-413224D01*
X160201Y-411224D01*
X162201Y-412224D01*
X164201Y-411224D01*
X163201Y-413224D01*
X164201Y-415224D01*
X162201Y-414224D01*
X160201Y-415224D01*
X161001Y-414424D02*
X161601Y-413224D01*
X161001Y-412024D01*
X162201Y-412624D01*
X163401Y-412024D01*
X162801Y-413224D01*
X163401Y-414424D01*
X162201Y-413824D01*
X161001Y-414424D01*
X160201Y-418724D02*
X161201Y-416724D01*
X160201Y-414724D01*
X162201Y-415724D01*
X164201Y-414724D01*
X163201Y-416724D01*
X164201Y-418724D01*
X162201Y-417724D01*
X160201Y-418724D01*
X161001Y-417924D02*
X161601Y-416724D01*
X161001Y-415524D01*
X162201Y-416124D01*
X163401Y-415524D01*
X162801Y-416724D01*
X163401Y-417924D01*
X162201Y-417324D01*
X161001Y-417924D01*
X160201Y-409724D02*
X161201Y-407724D01*
X160201Y-405724D01*
X162201Y-406724D01*
X164201Y-405724D01*
X163201Y-407724D01*
X164201Y-409724D01*
X162201Y-408724D01*
X160201Y-409724D01*
X161001Y-408924D02*
X161601Y-407724D01*
X161001Y-406524D01*
X162201Y-407124D01*
X163401Y-406524D01*
X162801Y-407724D01*
X163401Y-408924D01*
X162201Y-408324D01*
X161001Y-408924D01*
X165701Y-395724D02*
X166701Y-393724D01*
X165701Y-391724D01*
X167701Y-392724D01*
X169701Y-391724D01*
X168701Y-393724D01*
X169701Y-395724D01*
X167701Y-394724D01*
X165701Y-395724D01*
X166501Y-394924D02*
X167101Y-393724D01*
X166501Y-392524D01*
X167701Y-393124D01*
X168901Y-392524D01*
X168301Y-393724D01*
X168901Y-394924D01*
X167701Y-394324D01*
X166501Y-394924D01*
X160201Y-424724D02*
X161201Y-422724D01*
X160201Y-420724D01*
X162201Y-421724D01*
X164201Y-420724D01*
X163201Y-422724D01*
X164201Y-424724D01*
X162201Y-423724D01*
X160201Y-424724D01*
X161001Y-423924D02*
X161601Y-422724D01*
X161001Y-421524D01*
X162201Y-422124D01*
X163401Y-421524D01*
X162801Y-422724D01*
X163401Y-423924D01*
X162201Y-423324D01*
X161001Y-423924D01*
X179201Y-439724D02*
X180201Y-437724D01*
X179201Y-435724D01*
X181201Y-436724D01*
X183201Y-435724D01*
X182201Y-437724D01*
X183201Y-439724D01*
X181201Y-438724D01*
X179201Y-439724D01*
X180001Y-438924D02*
X180601Y-437724D01*
X180001Y-436524D01*
X181201Y-437124D01*
X182401Y-436524D01*
X181801Y-437724D01*
X182401Y-438924D01*
X181201Y-438324D01*
X180001Y-438924D01*
X206201Y-398724D02*
X207201Y-396724D01*
X206201Y-394724D01*
X208201Y-395724D01*
X210201Y-394724D01*
X209201Y-396724D01*
X210201Y-398724D01*
X208201Y-397724D01*
X206201Y-398724D01*
X207001Y-397924D02*
X207601Y-396724D01*
X207001Y-395524D01*
X208201Y-396124D01*
X209401Y-395524D01*
X208801Y-396724D01*
X209401Y-397924D01*
X208201Y-397324D01*
X207001Y-397924D01*
X206201Y-405224D02*
X207201Y-403224D01*
X206201Y-401224D01*
X208201Y-402224D01*
X210201Y-401224D01*
X209201Y-403224D01*
X210201Y-405224D01*
X208201Y-404224D01*
X206201Y-405224D01*
X207001Y-404424D02*
X207601Y-403224D01*
X207001Y-402024D01*
X208201Y-402624D01*
X209401Y-402024D01*
X208801Y-403224D01*
X209401Y-404424D01*
X208201Y-403824D01*
X207001Y-404424D01*
X206201Y-423724D02*
X207201Y-421724D01*
X206201Y-419724D01*
X208201Y-420724D01*
X210201Y-419724D01*
X209201Y-421724D01*
X210201Y-423724D01*
X208201Y-422724D01*
X206201Y-423724D01*
X207001Y-422924D02*
X207601Y-421724D01*
X207001Y-420524D01*
X208201Y-421124D01*
X209401Y-420524D01*
X208801Y-421724D01*
X209401Y-422924D01*
X208201Y-422324D01*
X207001Y-422924D01*
X206201Y-427724D02*
X207201Y-425724D01*
X206201Y-423724D01*
X208201Y-424724D01*
X210201Y-423724D01*
X209201Y-425724D01*
X210201Y-427724D01*
X208201Y-426724D01*
X206201Y-427724D01*
X207001Y-426924D02*
X207601Y-425724D01*
X207001Y-424524D01*
X208201Y-425124D01*
X209401Y-424524D01*
X208801Y-425724D01*
X209401Y-426924D01*
X208201Y-426324D01*
X207001Y-426924D01*
X183201Y-393724D02*
X184201Y-391724D01*
X183201Y-389724D01*
X185201Y-390724D01*
X187201Y-389724D01*
X186201Y-391724D01*
X187201Y-393724D01*
X185201Y-392724D01*
X183201Y-393724D01*
X184001Y-392924D02*
X184601Y-391724D01*
X184001Y-390524D01*
X185201Y-391124D01*
X186401Y-390524D01*
X185801Y-391724D01*
X186401Y-392924D01*
X185201Y-392324D01*
X184001Y-392924D01*
X201201Y-393724D02*
X202201Y-391724D01*
X201201Y-389724D01*
X203201Y-390724D01*
X205201Y-389724D01*
X204201Y-391724D01*
X205201Y-393724D01*
X203201Y-392724D01*
X201201Y-393724D01*
X202001Y-392924D02*
X202601Y-391724D01*
X202001Y-390524D01*
X203201Y-391124D01*
X204401Y-390524D01*
X203801Y-391724D01*
X204401Y-392924D01*
X203201Y-392324D01*
X202001Y-392924D01*
X162201Y-438224D02*
X163201Y-436224D01*
X162201Y-434224D01*
X164201Y-435224D01*
X166201Y-434224D01*
X165201Y-436224D01*
X166201Y-438224D01*
X164201Y-437224D01*
X162201Y-438224D01*
X163001Y-437424D02*
X163601Y-436224D01*
X163001Y-435024D01*
X164201Y-435624D01*
X165401Y-435024D01*
X164801Y-436224D01*
X165401Y-437424D01*
X164201Y-436824D01*
X163001Y-437424D01*
X162201Y-397724D02*
X163201Y-395724D01*
X162201Y-393724D01*
X164201Y-394724D01*
X166201Y-393724D01*
X165201Y-395724D01*
X166201Y-397724D01*
X164201Y-396724D01*
X162201Y-397724D01*
X163001Y-396924D02*
X163601Y-395724D01*
X163001Y-394524D01*
X164201Y-395124D01*
X165401Y-394524D01*
X164801Y-395724D01*
X165401Y-396924D01*
X164201Y-396324D01*
X163001Y-396924D01*
X26000Y-64000D02*
X27000Y-62000D01*
X26000Y-60000D01*
X28000Y-61000D01*
X30000Y-60000D01*
X29000Y-62000D01*
X30000Y-64000D01*
X28000Y-63000D01*
X26000Y-64000D01*
X26800Y-63200D02*
X27400Y-62000D01*
X26800Y-60800D01*
X28000Y-61400D01*
X29200Y-60800D01*
X28600Y-62000D01*
X29200Y-63200D01*
X28000Y-62600D01*
X26800Y-63200D01*
X26000Y-68000D02*
X27000Y-66000D01*
X26000Y-64000D01*
X28000Y-65000D01*
X30000Y-64000D01*
X29000Y-66000D01*
X30000Y-68000D01*
X28000Y-67000D01*
X26000Y-68000D01*
X26800Y-67200D02*
X27400Y-66000D01*
X26800Y-64800D01*
X28000Y-65400D01*
X29200Y-64800D01*
X28600Y-66000D01*
X29200Y-67200D01*
X28000Y-66600D01*
X26800Y-67200D01*
X46500Y-50000D02*
X47500Y-48000D01*
X46500Y-46000D01*
X48500Y-47000D01*
X50500Y-46000D01*
X49500Y-48000D01*
X50500Y-50000D01*
X48500Y-49000D01*
X46500Y-50000D01*
X47300Y-49200D02*
X47900Y-48000D01*
X47300Y-46800D01*
X48500Y-47400D01*
X49700Y-46800D01*
X49100Y-48000D01*
X49700Y-49200D01*
X48500Y-48600D01*
X47300Y-49200D01*
X49000Y-50000D02*
X50000Y-48000D01*
X49000Y-46000D01*
X51000Y-47000D01*
X53000Y-46000D01*
X52000Y-48000D01*
X53000Y-50000D01*
X51000Y-49000D01*
X49000Y-50000D01*
X49800Y-49200D02*
X50400Y-48000D01*
X49800Y-46800D01*
X51000Y-47400D01*
X52200Y-46800D01*
X51600Y-48000D01*
X52200Y-49200D01*
X51000Y-48600D01*
X49800Y-49200D01*
X33500Y-112000D02*
X34500Y-110000D01*
X33500Y-108000D01*
X35500Y-109000D01*
X37500Y-108000D01*
X36500Y-110000D01*
X37500Y-112000D01*
X35500Y-111000D01*
X33500Y-112000D01*
X34300Y-111200D02*
X34900Y-110000D01*
X34300Y-108800D01*
X35500Y-109400D01*
X36700Y-108800D01*
X36100Y-110000D01*
X36700Y-111200D01*
X35500Y-110600D01*
X34300Y-111200D01*
X59000Y-112000D02*
X60000Y-110000D01*
X59000Y-108000D01*
X61000Y-109000D01*
X63000Y-108000D01*
X62000Y-110000D01*
X63000Y-112000D01*
X61000Y-111000D01*
X59000Y-112000D01*
X59800Y-111200D02*
X60400Y-110000D01*
X59800Y-108800D01*
X61000Y-109400D01*
X62200Y-108800D01*
X61600Y-110000D01*
X62200Y-111200D01*
X61000Y-110600D01*
X59800Y-111200D01*
X54500Y-94000D02*
X55500Y-92000D01*
X54500Y-90000D01*
X56500Y-91000D01*
X58500Y-90000D01*
X57500Y-92000D01*
X58500Y-94000D01*
X56500Y-93000D01*
X54500Y-94000D01*
X55300Y-93200D02*
X55900Y-92000D01*
X55300Y-90800D01*
X56500Y-91400D01*
X57700Y-90800D01*
X57100Y-92000D01*
X57700Y-93200D01*
X56500Y-92600D01*
X55300Y-93200D01*
X37500Y-94500D02*
X38500Y-92500D01*
X37500Y-90500D01*
X39500Y-91500D01*
X41500Y-90500D01*
X40500Y-92500D01*
X41500Y-94500D01*
X39500Y-93500D01*
X37500Y-94500D01*
X38300Y-93700D02*
X38900Y-92500D01*
X38300Y-91300D01*
X39500Y-91900D01*
X40700Y-91300D01*
X40100Y-92500D01*
X40700Y-93700D01*
X39500Y-93100D01*
X38300Y-93700D01*
X37500Y-98000D02*
X38500Y-96000D01*
X37500Y-94000D01*
X39500Y-95000D01*
X41500Y-94000D01*
X40500Y-96000D01*
X41500Y-98000D01*
X39500Y-97000D01*
X37500Y-98000D01*
X38300Y-97200D02*
X38900Y-96000D01*
X38300Y-94800D01*
X39500Y-95400D01*
X40700Y-94800D01*
X40100Y-96000D01*
X40700Y-97200D01*
X39500Y-96600D01*
X38300Y-97200D01*
X57000Y-84500D02*
X58000Y-82500D01*
X57000Y-80500D01*
X59000Y-81500D01*
X61000Y-80500D01*
X60000Y-82500D01*
X61000Y-84500D01*
X59000Y-83500D01*
X57000Y-84500D01*
X57800Y-83700D02*
X58400Y-82500D01*
X57800Y-81300D01*
X59000Y-81900D01*
X60200Y-81300D01*
X59600Y-82500D01*
X60200Y-83700D01*
X59000Y-83100D01*
X57800Y-83700D01*
X69000Y-93500D02*
X70000Y-91500D01*
X69000Y-89500D01*
X71000Y-90500D01*
X73000Y-89500D01*
X72000Y-91500D01*
X73000Y-93500D01*
X71000Y-92500D01*
X69000Y-93500D01*
X69800Y-92700D02*
X70400Y-91500D01*
X69800Y-90300D01*
X71000Y-90900D01*
X72200Y-90300D01*
X71600Y-91500D01*
X72200Y-92700D01*
X71000Y-92100D01*
X69800Y-92700D01*
X77500Y-93500D02*
X78500Y-91500D01*
X77500Y-89500D01*
X79500Y-90500D01*
X81500Y-89500D01*
X80500Y-91500D01*
X81500Y-93500D01*
X79500Y-92500D01*
X77500Y-93500D01*
X78300Y-92700D02*
X78900Y-91500D01*
X78300Y-90300D01*
X79500Y-90900D01*
X80700Y-90300D01*
X80100Y-91500D01*
X80700Y-92700D01*
X79500Y-92100D01*
X78300Y-92700D01*
X73500Y-93500D02*
X74500Y-91500D01*
X73500Y-89500D01*
X75500Y-90500D01*
X77500Y-89500D01*
X76500Y-91500D01*
X77500Y-93500D01*
X75500Y-92500D01*
X73500Y-93500D01*
X74300Y-92700D02*
X74900Y-91500D01*
X74300Y-90300D01*
X75500Y-90900D01*
X76700Y-90300D01*
X76100Y-91500D01*
X76700Y-92700D01*
X75500Y-92100D01*
X74300Y-92700D01*
X77500Y-77500D02*
X78500Y-75500D01*
X77500Y-73500D01*
X79500Y-74500D01*
X81500Y-73500D01*
X80500Y-75500D01*
X81500Y-77500D01*
X79500Y-76500D01*
X77500Y-77500D01*
X78300Y-76700D02*
X78900Y-75500D01*
X78300Y-74300D01*
X79500Y-74900D01*
X80700Y-74300D01*
X80100Y-75500D01*
X80700Y-76700D01*
X79500Y-76100D01*
X78300Y-76700D01*
X27500Y-113000D02*
X28500Y-111000D01*
X27500Y-109000D01*
X29500Y-110000D01*
X31500Y-109000D01*
X30500Y-111000D01*
X31500Y-113000D01*
X29500Y-112000D01*
X27500Y-113000D01*
X28300Y-112200D02*
X28900Y-111000D01*
X28300Y-109800D01*
X29500Y-110400D01*
X30700Y-109800D01*
X30100Y-111000D01*
X30700Y-112200D01*
X29500Y-111600D01*
X28300Y-112200D01*
X75500Y-114500D02*
X76500Y-112500D01*
X75500Y-110500D01*
X77500Y-111500D01*
X79500Y-110500D01*
X78500Y-112500D01*
X79500Y-114500D01*
X77500Y-113500D01*
X75500Y-114500D01*
X76300Y-113700D02*
X76900Y-112500D01*
X76300Y-111300D01*
X77500Y-111900D01*
X78700Y-111300D01*
X78100Y-112500D01*
X78700Y-113700D01*
X77500Y-113100D01*
X76300Y-113700D01*
X75500Y-44500D02*
X76500Y-42500D01*
X75500Y-40500D01*
X77500Y-41500D01*
X79500Y-40500D01*
X78500Y-42500D01*
X79500Y-44500D01*
X77500Y-43500D01*
X75500Y-44500D01*
X76300Y-43700D02*
X76900Y-42500D01*
X76300Y-41300D01*
X77500Y-41900D01*
X78700Y-41300D01*
X78100Y-42500D01*
X78700Y-43700D01*
X77500Y-43100D01*
X76300Y-43700D01*
X78000Y-62000D02*
X79000Y-60000D01*
X78000Y-58000D01*
X80000Y-59000D01*
X82000Y-58000D01*
X81000Y-60000D01*
X82000Y-62000D01*
X80000Y-61000D01*
X78000Y-62000D01*
X78800Y-61200D02*
X79400Y-60000D01*
X78800Y-58800D01*
X80000Y-59400D01*
X81200Y-58800D01*
X80600Y-60000D01*
X81200Y-61200D01*
X80000Y-60600D01*
X78800Y-61200D01*
X88000Y-62000D02*
X89000Y-60000D01*
X88000Y-58000D01*
X90000Y-59000D01*
X92000Y-58000D01*
X91000Y-60000D01*
X92000Y-62000D01*
X90000Y-61000D01*
X88000Y-62000D01*
X88800Y-61200D02*
X89400Y-60000D01*
X88800Y-58800D01*
X90000Y-59400D01*
X91200Y-58800D01*
X90600Y-60000D01*
X91200Y-61200D01*
X90000Y-60600D01*
X88800Y-61200D01*
X88000Y-82000D02*
X89000Y-80000D01*
X88000Y-78000D01*
X90000Y-79000D01*
X92000Y-78000D01*
X91000Y-80000D01*
X92000Y-82000D01*
X90000Y-81000D01*
X88000Y-82000D01*
X88800Y-81200D02*
X89400Y-80000D01*
X88800Y-78800D01*
X90000Y-79400D01*
X91200Y-78800D01*
X90600Y-80000D01*
X91200Y-81200D01*
X90000Y-80600D01*
X88800Y-81200D01*
X88000Y-102000D02*
X89000Y-100000D01*
X88000Y-98000D01*
X90000Y-99000D01*
X92000Y-98000D01*
X91000Y-100000D01*
X92000Y-102000D01*
X90000Y-101000D01*
X88000Y-102000D01*
X88800Y-101200D02*
X89400Y-100000D01*
X88800Y-98800D01*
X90000Y-99400D01*
X91200Y-98800D01*
X90600Y-100000D01*
X91200Y-101200D01*
X90000Y-100600D01*
X88800Y-101200D01*
X88000Y-122000D02*
X89000Y-120000D01*
X88000Y-118000D01*
X90000Y-119000D01*
X92000Y-118000D01*
X91000Y-120000D01*
X92000Y-122000D01*
X90000Y-121000D01*
X88000Y-122000D01*
X88800Y-121200D02*
X89400Y-120000D01*
X88800Y-118800D01*
X90000Y-119400D01*
X91200Y-118800D01*
X90600Y-120000D01*
X91200Y-121200D01*
X90000Y-120600D01*
X88800Y-121200D01*
X3000Y-89500D02*
X4000Y-87500D01*
X3000Y-85500D01*
X5000Y-86500D01*
X7000Y-85500D01*
X6000Y-87500D01*
X7000Y-89500D01*
X5000Y-88500D01*
X3000Y-89500D01*
X3800Y-88700D02*
X4400Y-87500D01*
X3800Y-86300D01*
X5000Y-86900D01*
X6200Y-86300D01*
X5600Y-87500D01*
X6200Y-88700D01*
X5000Y-88100D01*
X3800Y-88700D01*
X3000Y-112000D02*
X4000Y-110000D01*
X3000Y-108000D01*
X5000Y-109000D01*
X7000Y-108000D01*
X6000Y-110000D01*
X7000Y-112000D01*
X5000Y-111000D01*
X3000Y-112000D01*
X3800Y-111200D02*
X4400Y-110000D01*
X3800Y-108800D01*
X5000Y-109400D01*
X6200Y-108800D01*
X5600Y-110000D01*
X6200Y-111200D01*
X5000Y-110600D01*
X3800Y-111200D01*
X3000Y-132000D02*
X4000Y-130000D01*
X3000Y-128000D01*
X5000Y-129000D01*
X7000Y-128000D01*
X6000Y-130000D01*
X7000Y-132000D01*
X5000Y-131000D01*
X3000Y-132000D01*
X3800Y-131200D02*
X4400Y-130000D01*
X3800Y-128800D01*
X5000Y-129400D01*
X6200Y-128800D01*
X5600Y-130000D01*
X6200Y-131200D01*
X5000Y-130600D01*
X3800Y-131200D01*
X48000Y-122000D02*
X49000Y-120000D01*
X48000Y-118000D01*
X50000Y-119000D01*
X52000Y-118000D01*
X51000Y-120000D01*
X52000Y-122000D01*
X50000Y-121000D01*
X48000Y-122000D01*
X48800Y-121200D02*
X49400Y-120000D01*
X48800Y-118800D01*
X50000Y-119400D01*
X51200Y-118800D01*
X50600Y-120000D01*
X51200Y-121200D01*
X50000Y-120600D01*
X48800Y-121200D01*
X65000Y-91000D02*
X66000Y-89000D01*
X65000Y-87000D01*
X67000Y-88000D01*
X69000Y-87000D01*
X68000Y-89000D01*
X69000Y-91000D01*
X67000Y-90000D01*
X65000Y-91000D01*
X65800Y-90200D02*
X66400Y-89000D01*
X65800Y-87800D01*
X67000Y-88400D01*
X68200Y-87800D01*
X67600Y-89000D01*
X68200Y-90200D01*
X67000Y-89600D01*
X65800Y-90200D01*
X62500Y-93000D02*
X63500Y-91000D01*
X62500Y-89000D01*
X64500Y-90000D01*
X66500Y-89000D01*
X65500Y-91000D01*
X66500Y-93000D01*
X64500Y-92000D01*
X62500Y-93000D01*
X63300Y-92200D02*
X63900Y-91000D01*
X63300Y-89800D01*
X64500Y-90400D01*
X65700Y-89800D01*
X65100Y-91000D01*
X65700Y-92200D01*
X64500Y-91600D01*
X63300Y-92200D01*
X74000Y-81500D02*
X75000Y-79500D01*
X74000Y-77500D01*
X76000Y-78500D01*
X78000Y-77500D01*
X77000Y-79500D01*
X78000Y-81500D01*
X76000Y-80500D01*
X74000Y-81500D01*
X74800Y-80700D02*
X75400Y-79500D01*
X74800Y-78300D01*
X76000Y-78900D01*
X77200Y-78300D01*
X76600Y-79500D01*
X77200Y-80700D01*
X76000Y-80100D01*
X74800Y-80700D01*
X75500Y-87000D02*
X76500Y-85000D01*
X75500Y-83000D01*
X77500Y-84000D01*
X79500Y-83000D01*
X78500Y-85000D01*
X79500Y-87000D01*
X77500Y-86000D01*
X75500Y-87000D01*
X76300Y-86200D02*
X76900Y-85000D01*
X76300Y-83800D01*
X77500Y-84400D01*
X78700Y-83800D01*
X78100Y-85000D01*
X78700Y-86200D01*
X77500Y-85600D01*
X76300Y-86200D01*
X3000Y-44500D02*
X4000Y-42500D01*
X3000Y-40500D01*
X5000Y-41500D01*
X7000Y-40500D01*
X6000Y-42500D01*
X7000Y-44500D01*
X5000Y-43500D01*
X3000Y-44500D01*
X3800Y-43700D02*
X4400Y-42500D01*
X3800Y-41300D01*
X5000Y-41900D01*
X6200Y-41300D01*
X5600Y-42500D01*
X6200Y-43700D01*
X5000Y-43100D01*
X3800Y-43700D01*
X23000Y-44500D02*
X24000Y-42500D01*
X23000Y-40500D01*
X25000Y-41500D01*
X27000Y-40500D01*
X26000Y-42500D01*
X27000Y-44500D01*
X25000Y-43500D01*
X23000Y-44500D01*
X23800Y-43700D02*
X24400Y-42500D01*
X23800Y-41300D01*
X25000Y-41900D01*
X26200Y-41300D01*
X25600Y-42500D01*
X26200Y-43700D01*
X25000Y-43100D01*
X23800Y-43700D01*
X43000Y-44500D02*
X44000Y-42500D01*
X43000Y-40500D01*
X45000Y-41500D01*
X47000Y-40500D01*
X46000Y-42500D01*
X47000Y-44500D01*
X45000Y-43500D01*
X43000Y-44500D01*
X43800Y-43700D02*
X44400Y-42500D01*
X43800Y-41300D01*
X45000Y-41900D01*
X46200Y-41300D01*
X45600Y-42500D01*
X46200Y-43700D01*
X45000Y-43100D01*
X43800Y-43700D01*
X50500Y-44500D02*
X51500Y-42500D01*
X50500Y-40500D01*
X52500Y-41500D01*
X54500Y-40500D01*
X53500Y-42500D01*
X54500Y-44500D01*
X52500Y-43500D01*
X50500Y-44500D01*
X51300Y-43700D02*
X51900Y-42500D01*
X51300Y-41300D01*
X52500Y-41900D01*
X53700Y-41300D01*
X53100Y-42500D01*
X53700Y-43700D01*
X52500Y-43100D01*
X51300Y-43700D01*
X43000Y-75000D02*
X44000Y-73000D01*
X43000Y-71000D01*
X45000Y-72000D01*
X47000Y-71000D01*
X46000Y-73000D01*
X47000Y-75000D01*
X45000Y-74000D01*
X43000Y-75000D01*
X43800Y-74200D02*
X44400Y-73000D01*
X43800Y-71800D01*
X45000Y-72400D01*
X46200Y-71800D01*
X45600Y-73000D01*
X46200Y-74200D01*
X45000Y-73600D01*
X43800Y-74200D01*
X43000Y-81000D02*
X44000Y-79000D01*
X43000Y-77000D01*
X45000Y-78000D01*
X47000Y-77000D01*
X46000Y-79000D01*
X47000Y-81000D01*
X45000Y-80000D01*
X43000Y-81000D01*
X43800Y-80200D02*
X44400Y-79000D01*
X43800Y-77800D01*
X45000Y-78400D01*
X46200Y-77800D01*
X45600Y-79000D01*
X46200Y-80200D01*
X45000Y-79600D01*
X43800Y-80200D01*
X20500Y-109500D02*
X21500Y-107500D01*
X20500Y-105500D01*
X22500Y-106500D01*
X24500Y-105500D01*
X23500Y-107500D01*
X24500Y-109500D01*
X22500Y-108500D01*
X20500Y-109500D01*
X21300Y-108700D02*
X21900Y-107500D01*
X21300Y-106300D01*
X22500Y-106900D01*
X23700Y-106300D01*
X23100Y-107500D01*
X23700Y-108700D01*
X22500Y-108100D01*
X21300Y-108700D01*
X32000Y-106000D02*
X33000Y-104000D01*
X32000Y-102000D01*
X34000Y-103000D01*
X36000Y-102000D01*
X35000Y-104000D01*
X36000Y-106000D01*
X34000Y-105000D01*
X32000Y-106000D01*
X32800Y-105200D02*
X33400Y-104000D01*
X32800Y-102800D01*
X34000Y-103400D01*
X35200Y-102800D01*
X34600Y-104000D01*
X35200Y-105200D01*
X34000Y-104600D01*
X32800Y-105200D01*
X41000Y-91000D02*
X42000Y-89000D01*
X41000Y-87000D01*
X43000Y-88000D01*
X45000Y-87000D01*
X44000Y-89000D01*
X45000Y-91000D01*
X43000Y-90000D01*
X41000Y-91000D01*
X41800Y-90200D02*
X42400Y-89000D01*
X41800Y-87800D01*
X43000Y-88400D01*
X44200Y-87800D01*
X43600Y-89000D01*
X44200Y-90200D01*
X43000Y-89600D01*
X41800Y-90200D01*
X60000Y-80000D02*
X61000Y-78000D01*
X60000Y-76000D01*
X62000Y-77000D01*
X64000Y-76000D01*
X63000Y-78000D01*
X64000Y-80000D01*
X62000Y-79000D01*
X60000Y-80000D01*
X60800Y-79200D02*
X61400Y-78000D01*
X60800Y-76800D01*
X62000Y-77400D01*
X63200Y-76800D01*
X62600Y-78000D01*
X63200Y-79200D01*
X62000Y-78600D01*
X60800Y-79200D01*
X173000Y-62000D02*
X174000Y-60000D01*
X173000Y-58000D01*
X175000Y-59000D01*
X177000Y-58000D01*
X176000Y-60000D01*
X177000Y-62000D01*
X175000Y-61000D01*
X173000Y-62000D01*
X173800Y-61200D02*
X174400Y-60000D01*
X173800Y-58800D01*
X175000Y-59400D01*
X176200Y-58800D01*
X175600Y-60000D01*
X176200Y-61200D01*
X175000Y-60600D01*
X173800Y-61200D01*
X201500Y-55500D02*
X202500Y-53500D01*
X201500Y-51500D01*
X203500Y-52500D01*
X205500Y-51500D01*
X204500Y-53500D01*
X205500Y-55500D01*
X203500Y-54500D01*
X201500Y-55500D01*
X202300Y-54700D02*
X202900Y-53500D01*
X202300Y-52300D01*
X203500Y-52900D01*
X204700Y-52300D01*
X204100Y-53500D01*
X204700Y-54700D01*
X203500Y-54100D01*
X202300Y-54700D01*
X33000Y-82000D02*
X34000Y-80000D01*
X33000Y-78000D01*
X35000Y-79000D01*
X37000Y-78000D01*
X36000Y-80000D01*
X37000Y-82000D01*
X35000Y-81000D01*
X33000Y-82000D01*
X33800Y-81200D02*
X34400Y-80000D01*
X33800Y-78800D01*
X35000Y-79400D01*
X36200Y-78800D01*
X35600Y-80000D01*
X36200Y-81200D01*
X35000Y-80600D01*
X33800Y-81200D01*
X21500Y-82000D02*
X22500Y-80000D01*
X21500Y-78000D01*
X23500Y-79000D01*
X25500Y-78000D01*
X24500Y-80000D01*
X25500Y-82000D01*
X23500Y-81000D01*
X21500Y-82000D01*
X22300Y-81200D02*
X22900Y-80000D01*
X22300Y-78800D01*
X23500Y-79400D01*
X24700Y-78800D01*
X24100Y-80000D01*
X24700Y-81200D01*
X23500Y-80600D01*
X22300Y-81200D01*
X157500Y-352000D02*
X158500Y-350000D01*
X157500Y-348000D01*
X159500Y-349000D01*
X161500Y-348000D01*
X160500Y-350000D01*
X161500Y-352000D01*
X159500Y-351000D01*
X157500Y-352000D01*
X158300Y-351200D02*
X158900Y-350000D01*
X158300Y-348800D01*
X159500Y-349400D01*
X160700Y-348800D01*
X160100Y-350000D01*
X160700Y-351200D01*
X159500Y-350600D01*
X158300Y-351200D01*
X160000Y-347000D02*
X161000Y-345000D01*
X160000Y-343000D01*
X162000Y-344000D01*
X164000Y-343000D01*
X163000Y-345000D01*
X164000Y-347000D01*
X162000Y-346000D01*
X160000Y-347000D01*
X160800Y-346200D02*
X161400Y-345000D01*
X160800Y-343800D01*
X162000Y-344400D01*
X163200Y-343800D01*
X162600Y-345000D01*
X163200Y-346200D01*
X162000Y-345600D01*
X160800Y-346200D01*
X165000Y-359500D02*
X166000Y-357500D01*
X165000Y-355500D01*
X167000Y-356500D01*
X169000Y-355500D01*
X168000Y-357500D01*
X169000Y-359500D01*
X167000Y-358500D01*
X165000Y-359500D01*
X165800Y-358700D02*
X166400Y-357500D01*
X165800Y-356300D01*
X167000Y-356900D01*
X168200Y-356300D01*
X167600Y-357500D01*
X168200Y-358700D01*
X167000Y-358100D01*
X165800Y-358700D01*
X167500Y-344500D02*
X168500Y-342500D01*
X167500Y-340500D01*
X169500Y-341500D01*
X171500Y-340500D01*
X170500Y-342500D01*
X171500Y-344500D01*
X169500Y-343500D01*
X167500Y-344500D01*
X168300Y-343700D02*
X168900Y-342500D01*
X168300Y-341300D01*
X169500Y-341900D01*
X170700Y-341300D01*
X170100Y-342500D01*
X170700Y-343700D01*
X169500Y-343100D01*
X168300Y-343700D01*
X170000Y-349500D02*
X171000Y-347500D01*
X170000Y-345500D01*
X172000Y-346500D01*
X174000Y-345500D01*
X173000Y-347500D01*
X174000Y-349500D01*
X172000Y-348500D01*
X170000Y-349500D01*
X170800Y-348700D02*
X171400Y-347500D01*
X170800Y-346300D01*
X172000Y-346900D01*
X173200Y-346300D01*
X172600Y-347500D01*
X173200Y-348700D01*
X172000Y-348100D01*
X170800Y-348700D01*
X172500Y-357000D02*
X173500Y-355000D01*
X172500Y-353000D01*
X174500Y-354000D01*
X176500Y-353000D01*
X175500Y-355000D01*
X176500Y-357000D01*
X174500Y-356000D01*
X172500Y-357000D01*
X173300Y-356200D02*
X173900Y-355000D01*
X173300Y-353800D01*
X174500Y-354400D01*
X175700Y-353800D01*
X175100Y-355000D01*
X175700Y-356200D01*
X174500Y-355600D01*
X173300Y-356200D01*
X180000Y-347500D02*
X181000Y-345500D01*
X180000Y-343500D01*
X182000Y-344500D01*
X184000Y-343500D01*
X183000Y-345500D01*
X184000Y-347500D01*
X182000Y-346500D01*
X180000Y-347500D01*
X180800Y-346700D02*
X181400Y-345500D01*
X180800Y-344300D01*
X182000Y-344900D01*
X183200Y-344300D01*
X182600Y-345500D01*
X183200Y-346700D01*
X182000Y-346100D01*
X180800Y-346700D01*
X182500Y-364500D02*
X183500Y-362500D01*
X182500Y-360500D01*
X184500Y-361500D01*
X186500Y-360500D01*
X185500Y-362500D01*
X186500Y-364500D01*
X184500Y-363500D01*
X182500Y-364500D01*
X183300Y-363700D02*
X183900Y-362500D01*
X183300Y-361300D01*
X184500Y-361900D01*
X185700Y-361300D01*
X185100Y-362500D01*
X185700Y-363700D01*
X184500Y-363100D01*
X183300Y-363700D01*
X280500Y-257000D02*
X281500Y-255000D01*
X280500Y-253000D01*
X282500Y-254000D01*
X284500Y-253000D01*
X283500Y-255000D01*
X284500Y-257000D01*
X282500Y-256000D01*
X280500Y-257000D01*
X281300Y-256200D02*
X281900Y-255000D01*
X281300Y-253800D01*
X282500Y-254400D01*
X283700Y-253800D01*
X283100Y-255000D01*
X283700Y-256200D01*
X282500Y-255600D01*
X281300Y-256200D01*
X201500Y-361000D02*
X202500Y-359000D01*
X201500Y-357000D01*
X203500Y-358000D01*
X205500Y-357000D01*
X204500Y-359000D01*
X205500Y-361000D01*
X203500Y-360000D01*
X201500Y-361000D01*
X202300Y-360200D02*
X202900Y-359000D01*
X202300Y-357800D01*
X203500Y-358400D01*
X204700Y-357800D01*
X204100Y-359000D01*
X204700Y-360200D01*
X203500Y-359600D01*
X202300Y-360200D01*
X175000Y-362000D02*
X176000Y-360000D01*
X175000Y-358000D01*
X177000Y-359000D01*
X179000Y-358000D01*
X178000Y-360000D01*
X179000Y-362000D01*
X177000Y-361000D01*
X175000Y-362000D01*
X175800Y-361200D02*
X176400Y-360000D01*
X175800Y-358800D01*
X177000Y-359400D01*
X178200Y-358800D01*
X177600Y-360000D01*
X178200Y-361200D01*
X177000Y-360600D01*
X175800Y-361200D01*
X65500Y-309500D02*
X66500Y-307500D01*
X65500Y-305500D01*
X67500Y-306500D01*
X69500Y-305500D01*
X68500Y-307500D01*
X69500Y-309500D01*
X67500Y-308500D01*
X65500Y-309500D01*
X66300Y-308700D02*
X66900Y-307500D01*
X66300Y-306300D01*
X67500Y-306900D01*
X68700Y-306300D01*
X68100Y-307500D01*
X68700Y-308700D01*
X67500Y-308100D01*
X66300Y-308700D01*
X68000Y-307000D02*
X69000Y-305000D01*
X68000Y-303000D01*
X70000Y-304000D01*
X72000Y-303000D01*
X71000Y-305000D01*
X72000Y-307000D01*
X70000Y-306000D01*
X68000Y-307000D01*
X68800Y-306200D02*
X69400Y-305000D01*
X68800Y-303800D01*
X70000Y-304400D01*
X71200Y-303800D01*
X70600Y-305000D01*
X71200Y-306200D01*
X70000Y-305600D01*
X68800Y-306200D01*
X70500Y-304500D02*
X71500Y-302500D01*
X70500Y-300500D01*
X72500Y-301500D01*
X74500Y-300500D01*
X73500Y-302500D01*
X74500Y-304500D01*
X72500Y-303500D01*
X70500Y-304500D01*
X71300Y-303700D02*
X71900Y-302500D01*
X71300Y-301300D01*
X72500Y-301900D01*
X73700Y-301300D01*
X73100Y-302500D01*
X73700Y-303700D01*
X72500Y-303100D01*
X71300Y-303700D01*
X23000Y-477000D02*
X24000Y-475000D01*
X23000Y-473000D01*
X25000Y-474000D01*
X27000Y-473000D01*
X26000Y-475000D01*
X27000Y-477000D01*
X25000Y-476000D01*
X23000Y-477000D01*
X23800Y-476200D02*
X24400Y-475000D01*
X23800Y-473800D01*
X25000Y-474400D01*
X26200Y-473800D01*
X25600Y-475000D01*
X26200Y-476200D01*
X25000Y-475600D01*
X23800Y-476200D01*
X23000Y-502000D02*
X24000Y-500000D01*
X23000Y-498000D01*
X25000Y-499000D01*
X27000Y-498000D01*
X26000Y-500000D01*
X27000Y-502000D01*
X25000Y-501000D01*
X23000Y-502000D01*
X23800Y-501200D02*
X24400Y-500000D01*
X23800Y-498800D01*
X25000Y-499400D01*
X26200Y-498800D01*
X25600Y-500000D01*
X26200Y-501200D01*
X25000Y-500600D01*
X23800Y-501200D01*
X48000Y-502000D02*
X49000Y-500000D01*
X48000Y-498000D01*
X50000Y-499000D01*
X52000Y-498000D01*
X51000Y-500000D01*
X52000Y-502000D01*
X50000Y-501000D01*
X48000Y-502000D01*
X48800Y-501200D02*
X49400Y-500000D01*
X48800Y-498800D01*
X50000Y-499400D01*
X51200Y-498800D01*
X50600Y-500000D01*
X51200Y-501200D01*
X50000Y-500600D01*
X48800Y-501200D01*
X48000Y-527000D02*
X49000Y-525000D01*
X48000Y-523000D01*
X50000Y-524000D01*
X52000Y-523000D01*
X51000Y-525000D01*
X52000Y-527000D01*
X50000Y-526000D01*
X48000Y-527000D01*
X48800Y-526200D02*
X49400Y-525000D01*
X48800Y-523800D01*
X50000Y-524400D01*
X51200Y-523800D01*
X50600Y-525000D01*
X51200Y-526200D01*
X50000Y-525600D01*
X48800Y-526200D01*
X73000Y-527000D02*
X74000Y-525000D01*
X73000Y-523000D01*
X75000Y-524000D01*
X77000Y-523000D01*
X76000Y-525000D01*
X77000Y-527000D01*
X75000Y-526000D01*
X73000Y-527000D01*
X73800Y-526200D02*
X74400Y-525000D01*
X73800Y-523800D01*
X75000Y-524400D01*
X76200Y-523800D01*
X75600Y-525000D01*
X76200Y-526200D01*
X75000Y-525600D01*
X73800Y-526200D01*
X73000Y-502000D02*
X74000Y-500000D01*
X73000Y-498000D01*
X75000Y-499000D01*
X77000Y-498000D01*
X76000Y-500000D01*
X77000Y-502000D01*
X75000Y-501000D01*
X73000Y-502000D01*
X73800Y-501200D02*
X74400Y-500000D01*
X73800Y-498800D01*
X75000Y-499400D01*
X76200Y-498800D01*
X75600Y-500000D01*
X76200Y-501200D01*
X75000Y-500600D01*
X73800Y-501200D01*
X173000Y-527000D02*
X174000Y-525000D01*
X173000Y-523000D01*
X175000Y-524000D01*
X177000Y-523000D01*
X176000Y-525000D01*
X177000Y-527000D01*
X175000Y-526000D01*
X173000Y-527000D01*
X173800Y-526200D02*
X174400Y-525000D01*
X173800Y-523800D01*
X175000Y-524400D01*
X176200Y-523800D01*
X175600Y-525000D01*
X176200Y-526200D01*
X175000Y-525600D01*
X173800Y-526200D01*
X198000Y-527000D02*
X199000Y-525000D01*
X198000Y-523000D01*
X200000Y-524000D01*
X202000Y-523000D01*
X201000Y-525000D01*
X202000Y-527000D01*
X200000Y-526000D01*
X198000Y-527000D01*
X198800Y-526200D02*
X199400Y-525000D01*
X198800Y-523800D01*
X200000Y-524400D01*
X201200Y-523800D01*
X200600Y-525000D01*
X201200Y-526200D01*
X200000Y-525600D01*
X198800Y-526200D01*
X223000Y-527000D02*
X224000Y-525000D01*
X223000Y-523000D01*
X225000Y-524000D01*
X227000Y-523000D01*
X226000Y-525000D01*
X227000Y-527000D01*
X225000Y-526000D01*
X223000Y-527000D01*
X223800Y-526200D02*
X224400Y-525000D01*
X223800Y-523800D01*
X225000Y-524400D01*
X226200Y-523800D01*
X225600Y-525000D01*
X226200Y-526200D01*
X225000Y-525600D01*
X223800Y-526200D01*
X223000Y-502000D02*
X224000Y-500000D01*
X223000Y-498000D01*
X225000Y-499000D01*
X227000Y-498000D01*
X226000Y-500000D01*
X227000Y-502000D01*
X225000Y-501000D01*
X223000Y-502000D01*
X223800Y-501200D02*
X224400Y-500000D01*
X223800Y-498800D01*
X225000Y-499400D01*
X226200Y-498800D01*
X225600Y-500000D01*
X226200Y-501200D01*
X225000Y-500600D01*
X223800Y-501200D01*
X323000Y-527000D02*
X324000Y-525000D01*
X323000Y-523000D01*
X325000Y-524000D01*
X327000Y-523000D01*
X326000Y-525000D01*
X327000Y-527000D01*
X325000Y-526000D01*
X323000Y-527000D01*
X323800Y-526200D02*
X324400Y-525000D01*
X323800Y-523800D01*
X325000Y-524400D01*
X326200Y-523800D01*
X325600Y-525000D01*
X326200Y-526200D01*
X325000Y-525600D01*
X323800Y-526200D01*
X323000Y-502000D02*
X324000Y-500000D01*
X323000Y-498000D01*
X325000Y-499000D01*
X327000Y-498000D01*
X326000Y-500000D01*
X327000Y-502000D01*
X325000Y-501000D01*
X323000Y-502000D01*
X323800Y-501200D02*
X324400Y-500000D01*
X323800Y-498800D01*
X325000Y-499400D01*
X326200Y-498800D01*
X325600Y-500000D01*
X326200Y-501200D01*
X325000Y-500600D01*
X323800Y-501200D01*
X348000Y-502000D02*
X349000Y-500000D01*
X348000Y-498000D01*
X350000Y-499000D01*
X352000Y-498000D01*
X351000Y-500000D01*
X352000Y-502000D01*
X350000Y-501000D01*
X348000Y-502000D01*
X348800Y-501200D02*
X349400Y-500000D01*
X348800Y-498800D01*
X350000Y-499400D01*
X351200Y-498800D01*
X350600Y-500000D01*
X351200Y-501200D01*
X350000Y-500600D01*
X348800Y-501200D01*
X373000Y-502000D02*
X374000Y-500000D01*
X373000Y-498000D01*
X375000Y-499000D01*
X377000Y-498000D01*
X376000Y-500000D01*
X377000Y-502000D01*
X375000Y-501000D01*
X373000Y-502000D01*
X373800Y-501200D02*
X374400Y-500000D01*
X373800Y-498800D01*
X375000Y-499400D01*
X376200Y-498800D01*
X375600Y-500000D01*
X376200Y-501200D01*
X375000Y-500600D01*
X373800Y-501200D01*
X348000Y-527000D02*
X349000Y-525000D01*
X348000Y-523000D01*
X350000Y-524000D01*
X352000Y-523000D01*
X351000Y-525000D01*
X352000Y-527000D01*
X350000Y-526000D01*
X348000Y-527000D01*
X348800Y-526200D02*
X349400Y-525000D01*
X348800Y-523800D01*
X350000Y-524400D01*
X351200Y-523800D01*
X350600Y-525000D01*
X351200Y-526200D01*
X350000Y-525600D01*
X348800Y-526200D01*
X348000Y-477000D02*
X349000Y-475000D01*
X348000Y-473000D01*
X350000Y-474000D01*
X352000Y-473000D01*
X351000Y-475000D01*
X352000Y-477000D01*
X350000Y-476000D01*
X348000Y-477000D01*
X348800Y-476200D02*
X349400Y-475000D01*
X348800Y-473800D01*
X350000Y-474400D01*
X351200Y-473800D01*
X350600Y-475000D01*
X351200Y-476200D01*
X350000Y-475600D01*
X348800Y-476200D01*
X373000Y-477000D02*
X374000Y-475000D01*
X373000Y-473000D01*
X375000Y-474000D01*
X377000Y-473000D01*
X376000Y-475000D01*
X377000Y-477000D01*
X375000Y-476000D01*
X373000Y-477000D01*
X373800Y-476200D02*
X374400Y-475000D01*
X373800Y-473800D01*
X375000Y-474400D01*
X376200Y-473800D01*
X375600Y-475000D01*
X376200Y-476200D01*
X375000Y-475600D01*
X373800Y-476200D01*
X373000Y-452000D02*
X374000Y-450000D01*
X373000Y-448000D01*
X375000Y-449000D01*
X377000Y-448000D01*
X376000Y-450000D01*
X377000Y-452000D01*
X375000Y-451000D01*
X373000Y-452000D01*
X373800Y-451200D02*
X374400Y-450000D01*
X373800Y-448800D01*
X375000Y-449400D01*
X376200Y-448800D01*
X375600Y-450000D01*
X376200Y-451200D01*
X375000Y-450600D01*
X373800Y-451200D01*
X348000Y-452000D02*
X349000Y-450000D01*
X348000Y-448000D01*
X350000Y-449000D01*
X352000Y-448000D01*
X351000Y-450000D01*
X352000Y-452000D01*
X350000Y-451000D01*
X348000Y-452000D01*
X348800Y-451200D02*
X349400Y-450000D01*
X348800Y-448800D01*
X350000Y-449400D01*
X351200Y-448800D01*
X350600Y-450000D01*
X351200Y-451200D01*
X350000Y-450600D01*
X348800Y-451200D01*
X348000Y-427000D02*
X349000Y-425000D01*
X348000Y-423000D01*
X350000Y-424000D01*
X352000Y-423000D01*
X351000Y-425000D01*
X352000Y-427000D01*
X350000Y-426000D01*
X348000Y-427000D01*
X348800Y-426200D02*
X349400Y-425000D01*
X348800Y-423800D01*
X350000Y-424400D01*
X351200Y-423800D01*
X350600Y-425000D01*
X351200Y-426200D01*
X350000Y-425600D01*
X348800Y-426200D01*
X373000Y-427000D02*
X374000Y-425000D01*
X373000Y-423000D01*
X375000Y-424000D01*
X377000Y-423000D01*
X376000Y-425000D01*
X377000Y-427000D01*
X375000Y-426000D01*
X373000Y-427000D01*
X373800Y-426200D02*
X374400Y-425000D01*
X373800Y-423800D01*
X375000Y-424400D01*
X376200Y-423800D01*
X375600Y-425000D01*
X376200Y-426200D01*
X375000Y-425600D01*
X373800Y-426200D01*
X373000Y-402000D02*
X374000Y-400000D01*
X373000Y-398000D01*
X375000Y-399000D01*
X377000Y-398000D01*
X376000Y-400000D01*
X377000Y-402000D01*
X375000Y-401000D01*
X373000Y-402000D01*
X373800Y-401200D02*
X374400Y-400000D01*
X373800Y-398800D01*
X375000Y-399400D01*
X376200Y-398800D01*
X375600Y-400000D01*
X376200Y-401200D01*
X375000Y-400600D01*
X373800Y-401200D01*
X373000Y-377000D02*
X374000Y-375000D01*
X373000Y-373000D01*
X375000Y-374000D01*
X377000Y-373000D01*
X376000Y-375000D01*
X377000Y-377000D01*
X375000Y-376000D01*
X373000Y-377000D01*
X373800Y-376200D02*
X374400Y-375000D01*
X373800Y-373800D01*
X375000Y-374400D01*
X376200Y-373800D01*
X375600Y-375000D01*
X376200Y-376200D01*
X375000Y-375600D01*
X373800Y-376200D01*
X43000Y-442000D02*
X44000Y-440000D01*
X43000Y-438000D01*
X45000Y-439000D01*
X47000Y-438000D01*
X46000Y-440000D01*
X47000Y-442000D01*
X45000Y-441000D01*
X43000Y-442000D01*
X43800Y-441200D02*
X44400Y-440000D01*
X43800Y-438800D01*
X45000Y-439400D01*
X46200Y-438800D01*
X45600Y-440000D01*
X46200Y-441200D01*
X45000Y-440600D01*
X43800Y-441200D01*
X43000Y-457000D02*
X44000Y-455000D01*
X43000Y-453000D01*
X45000Y-454000D01*
X47000Y-453000D01*
X46000Y-455000D01*
X47000Y-457000D01*
X45000Y-456000D01*
X43000Y-457000D01*
X43800Y-456200D02*
X44400Y-455000D01*
X43800Y-453800D01*
X45000Y-454400D01*
X46200Y-453800D01*
X45600Y-455000D01*
X46200Y-456200D01*
X45000Y-455600D01*
X43800Y-456200D01*
X13000Y-332000D02*
X14000Y-330000D01*
X13000Y-328000D01*
X15000Y-329000D01*
X17000Y-328000D01*
X16000Y-330000D01*
X17000Y-332000D01*
X15000Y-331000D01*
X13000Y-332000D01*
X13800Y-331200D02*
X14400Y-330000D01*
X13800Y-328800D01*
X15000Y-329400D01*
X16200Y-328800D01*
X15600Y-330000D01*
X16200Y-331200D01*
X15000Y-330600D01*
X13800Y-331200D01*
X13000Y-362000D02*
X14000Y-360000D01*
X13000Y-358000D01*
X15000Y-359000D01*
X17000Y-358000D01*
X16000Y-360000D01*
X17000Y-362000D01*
X15000Y-361000D01*
X13000Y-362000D01*
X13800Y-361200D02*
X14400Y-360000D01*
X13800Y-358800D01*
X15000Y-359400D01*
X16200Y-358800D01*
X15600Y-360000D01*
X16200Y-361200D01*
X15000Y-360600D01*
X13800Y-361200D01*
X13000Y-187000D02*
X14000Y-185000D01*
X13000Y-183000D01*
X15000Y-184000D01*
X17000Y-183000D01*
X16000Y-185000D01*
X17000Y-187000D01*
X15000Y-186000D01*
X13000Y-187000D01*
X13800Y-186200D02*
X14400Y-185000D01*
X13800Y-183800D01*
X15000Y-184400D01*
X16200Y-183800D01*
X15600Y-185000D01*
X16200Y-186200D01*
X15000Y-185600D01*
X13800Y-186200D01*
X13000Y-212000D02*
X14000Y-210000D01*
X13000Y-208000D01*
X15000Y-209000D01*
X17000Y-208000D01*
X16000Y-210000D01*
X17000Y-212000D01*
X15000Y-211000D01*
X13000Y-212000D01*
X13800Y-211200D02*
X14400Y-210000D01*
X13800Y-208800D01*
X15000Y-209400D01*
X16200Y-208800D01*
X15600Y-210000D01*
X16200Y-211200D01*
X15000Y-210600D01*
X13800Y-211200D01*
X43000Y-212000D02*
X44000Y-210000D01*
X43000Y-208000D01*
X45000Y-209000D01*
X47000Y-208000D01*
X46000Y-210000D01*
X47000Y-212000D01*
X45000Y-211000D01*
X43000Y-212000D01*
X43800Y-211200D02*
X44400Y-210000D01*
X43800Y-208800D01*
X45000Y-209400D01*
X46200Y-208800D01*
X45600Y-210000D01*
X46200Y-211200D01*
X45000Y-210600D01*
X43800Y-211200D01*
X43000Y-232000D02*
X44000Y-230000D01*
X43000Y-228000D01*
X45000Y-229000D01*
X47000Y-228000D01*
X46000Y-230000D01*
X47000Y-232000D01*
X45000Y-231000D01*
X43000Y-232000D01*
X43800Y-231200D02*
X44400Y-230000D01*
X43800Y-228800D01*
X45000Y-229400D01*
X46200Y-228800D01*
X45600Y-230000D01*
X46200Y-231200D01*
X45000Y-230600D01*
X43800Y-231200D01*
X103000Y-32000D02*
X104000Y-30000D01*
X103000Y-28000D01*
X105000Y-29000D01*
X107000Y-28000D01*
X106000Y-30000D01*
X107000Y-32000D01*
X105000Y-31000D01*
X103000Y-32000D01*
X103800Y-31200D02*
X104400Y-30000D01*
X103800Y-28800D01*
X105000Y-29400D01*
X106200Y-28800D01*
X105600Y-30000D01*
X106200Y-31200D01*
X105000Y-30600D01*
X103800Y-31200D01*
X113000Y-37000D02*
X114000Y-35000D01*
X113000Y-33000D01*
X115000Y-34000D01*
X117000Y-33000D01*
X116000Y-35000D01*
X117000Y-37000D01*
X115000Y-36000D01*
X113000Y-37000D01*
X113800Y-36200D02*
X114400Y-35000D01*
X113800Y-33800D01*
X115000Y-34400D01*
X116200Y-33800D01*
X115600Y-35000D01*
X116200Y-36200D01*
X115000Y-35600D01*
X113800Y-36200D01*
X173000Y-27000D02*
X174000Y-25000D01*
X173000Y-23000D01*
X175000Y-24000D01*
X177000Y-23000D01*
X176000Y-25000D01*
X177000Y-27000D01*
X175000Y-26000D01*
X173000Y-27000D01*
X173800Y-26200D02*
X174400Y-25000D01*
X173800Y-23800D01*
X175000Y-24400D01*
X176200Y-23800D01*
X175600Y-25000D01*
X176200Y-26200D01*
X175000Y-25600D01*
X173800Y-26200D01*
X173000Y-52000D02*
X174000Y-50000D01*
X173000Y-48000D01*
X175000Y-49000D01*
X177000Y-48000D01*
X176000Y-50000D01*
X177000Y-52000D01*
X175000Y-51000D01*
X173000Y-52000D01*
X173800Y-51200D02*
X174400Y-50000D01*
X173800Y-48800D01*
X175000Y-49400D01*
X176200Y-48800D01*
X175600Y-50000D01*
X176200Y-51200D01*
X175000Y-50600D01*
X173800Y-51200D01*
X233000Y-27000D02*
X234000Y-25000D01*
X233000Y-23000D01*
X235000Y-24000D01*
X237000Y-23000D01*
X236000Y-25000D01*
X237000Y-27000D01*
X235000Y-26000D01*
X233000Y-27000D01*
X233800Y-26200D02*
X234400Y-25000D01*
X233800Y-23800D01*
X235000Y-24400D01*
X236200Y-23800D01*
X235600Y-25000D01*
X236200Y-26200D01*
X235000Y-25600D01*
X233800Y-26200D01*
X233000Y-52000D02*
X234000Y-50000D01*
X233000Y-48000D01*
X235000Y-49000D01*
X237000Y-48000D01*
X236000Y-50000D01*
X237000Y-52000D01*
X235000Y-51000D01*
X233000Y-52000D01*
X233800Y-51200D02*
X234400Y-50000D01*
X233800Y-48800D01*
X235000Y-49400D01*
X236200Y-48800D01*
X235600Y-50000D01*
X236200Y-51200D01*
X235000Y-50600D01*
X233800Y-51200D01*
X203000Y-27000D02*
X204000Y-25000D01*
X203000Y-23000D01*
X205000Y-24000D01*
X207000Y-23000D01*
X206000Y-25000D01*
X207000Y-27000D01*
X205000Y-26000D01*
X203000Y-27000D01*
X203800Y-26200D02*
X204400Y-25000D01*
X203800Y-23800D01*
X205000Y-24400D01*
X206200Y-23800D01*
X205600Y-25000D01*
X206200Y-26200D01*
X205000Y-25600D01*
X203800Y-26200D01*
X248000Y-77000D02*
X249000Y-75000D01*
X248000Y-73000D01*
X250000Y-74000D01*
X252000Y-73000D01*
X251000Y-75000D01*
X252000Y-77000D01*
X250000Y-76000D01*
X248000Y-77000D01*
X248800Y-76200D02*
X249400Y-75000D01*
X248800Y-73800D01*
X250000Y-74400D01*
X251200Y-73800D01*
X250600Y-75000D01*
X251200Y-76200D01*
X250000Y-75600D01*
X248800Y-76200D01*
X273000Y-77000D02*
X274000Y-75000D01*
X273000Y-73000D01*
X275000Y-74000D01*
X277000Y-73000D01*
X276000Y-75000D01*
X277000Y-77000D01*
X275000Y-76000D01*
X273000Y-77000D01*
X273800Y-76200D02*
X274400Y-75000D01*
X273800Y-73800D01*
X275000Y-74400D01*
X276200Y-73800D01*
X275600Y-75000D01*
X276200Y-76200D01*
X275000Y-75600D01*
X273800Y-76200D01*
X298000Y-12000D02*
X299000Y-10000D01*
X298000Y-8000D01*
X300000Y-9000D01*
X302000Y-8000D01*
X301000Y-10000D01*
X302000Y-12000D01*
X300000Y-11000D01*
X298000Y-12000D01*
X298800Y-11200D02*
X299400Y-10000D01*
X298800Y-8800D01*
X300000Y-9400D01*
X301200Y-8800D01*
X300600Y-10000D01*
X301200Y-11200D01*
X300000Y-10600D01*
X298800Y-11200D01*
X125500Y-182000D02*
X126500Y-180000D01*
X125500Y-178000D01*
X127500Y-179000D01*
X129500Y-178000D01*
X128500Y-180000D01*
X129500Y-182000D01*
X127500Y-181000D01*
X125500Y-182000D01*
X126300Y-181200D02*
X126900Y-180000D01*
X126300Y-178800D01*
X127500Y-179400D01*
X128700Y-178800D01*
X128100Y-180000D01*
X128700Y-181200D01*
X127500Y-180600D01*
X126300Y-181200D01*
X148000Y-182000D02*
X149000Y-180000D01*
X148000Y-178000D01*
X150000Y-179000D01*
X152000Y-178000D01*
X151000Y-180000D01*
X152000Y-182000D01*
X150000Y-181000D01*
X148000Y-182000D01*
X148800Y-181200D02*
X149400Y-180000D01*
X148800Y-178800D01*
X150000Y-179400D01*
X151200Y-178800D01*
X150600Y-180000D01*
X151200Y-181200D01*
X150000Y-180600D01*
X148800Y-181200D01*
X173000Y-182000D02*
X174000Y-180000D01*
X173000Y-178000D01*
X175000Y-179000D01*
X177000Y-178000D01*
X176000Y-180000D01*
X177000Y-182000D01*
X175000Y-181000D01*
X173000Y-182000D01*
X173800Y-181200D02*
X174400Y-180000D01*
X173800Y-178800D01*
X175000Y-179400D01*
X176200Y-178800D01*
X175600Y-180000D01*
X176200Y-181200D01*
X175000Y-180600D01*
X173800Y-181200D01*
X198000Y-182000D02*
X199000Y-180000D01*
X198000Y-178000D01*
X200000Y-179000D01*
X202000Y-178000D01*
X201000Y-180000D01*
X202000Y-182000D01*
X200000Y-181000D01*
X198000Y-182000D01*
X198800Y-181200D02*
X199400Y-180000D01*
X198800Y-178800D01*
X200000Y-179400D01*
X201200Y-178800D01*
X200600Y-180000D01*
X201200Y-181200D01*
X200000Y-180600D01*
X198800Y-181200D01*
X223000Y-182000D02*
X224000Y-180000D01*
X223000Y-178000D01*
X225000Y-179000D01*
X227000Y-178000D01*
X226000Y-180000D01*
X227000Y-182000D01*
X225000Y-181000D01*
X223000Y-182000D01*
X223800Y-181200D02*
X224400Y-180000D01*
X223800Y-178800D01*
X225000Y-179400D01*
X226200Y-178800D01*
X225600Y-180000D01*
X226200Y-181200D01*
X225000Y-180600D01*
X223800Y-181200D01*
X248000Y-182000D02*
X249000Y-180000D01*
X248000Y-178000D01*
X250000Y-179000D01*
X252000Y-178000D01*
X251000Y-180000D01*
X252000Y-182000D01*
X250000Y-181000D01*
X248000Y-182000D01*
X248800Y-181200D02*
X249400Y-180000D01*
X248800Y-178800D01*
X250000Y-179400D01*
X251200Y-178800D01*
X250600Y-180000D01*
X251200Y-181200D01*
X250000Y-180600D01*
X248800Y-181200D01*
X148000Y-212000D02*
X149000Y-210000D01*
X148000Y-208000D01*
X150000Y-209000D01*
X152000Y-208000D01*
X151000Y-210000D01*
X152000Y-212000D01*
X150000Y-211000D01*
X148000Y-212000D01*
X148800Y-211200D02*
X149400Y-210000D01*
X148800Y-208800D01*
X150000Y-209400D01*
X151200Y-208800D01*
X150600Y-210000D01*
X151200Y-211200D01*
X150000Y-210600D01*
X148800Y-211200D01*
X173000Y-212000D02*
X174000Y-210000D01*
X173000Y-208000D01*
X175000Y-209000D01*
X177000Y-208000D01*
X176000Y-210000D01*
X177000Y-212000D01*
X175000Y-211000D01*
X173000Y-212000D01*
X173800Y-211200D02*
X174400Y-210000D01*
X173800Y-208800D01*
X175000Y-209400D01*
X176200Y-208800D01*
X175600Y-210000D01*
X176200Y-211200D01*
X175000Y-210600D01*
X173800Y-211200D01*
X198000Y-212000D02*
X199000Y-210000D01*
X198000Y-208000D01*
X200000Y-209000D01*
X202000Y-208000D01*
X201000Y-210000D01*
X202000Y-212000D01*
X200000Y-211000D01*
X198000Y-212000D01*
X198800Y-211200D02*
X199400Y-210000D01*
X198800Y-208800D01*
X200000Y-209400D01*
X201200Y-208800D01*
X200600Y-210000D01*
X201200Y-211200D01*
X200000Y-210600D01*
X198800Y-211200D01*
X148000Y-267000D02*
X149000Y-265000D01*
X148000Y-263000D01*
X150000Y-264000D01*
X152000Y-263000D01*
X151000Y-265000D01*
X152000Y-267000D01*
X150000Y-266000D01*
X148000Y-267000D01*
X148800Y-266200D02*
X149400Y-265000D01*
X148800Y-263800D01*
X150000Y-264400D01*
X151200Y-263800D01*
X150600Y-265000D01*
X151200Y-266200D01*
X150000Y-265600D01*
X148800Y-266200D01*
X173000Y-267000D02*
X174000Y-265000D01*
X173000Y-263000D01*
X175000Y-264000D01*
X177000Y-263000D01*
X176000Y-265000D01*
X177000Y-267000D01*
X175000Y-266000D01*
X173000Y-267000D01*
X173800Y-266200D02*
X174400Y-265000D01*
X173800Y-263800D01*
X175000Y-264400D01*
X176200Y-263800D01*
X175600Y-265000D01*
X176200Y-266200D01*
X175000Y-265600D01*
X173800Y-266200D01*
X198000Y-267000D02*
X199000Y-265000D01*
X198000Y-263000D01*
X200000Y-264000D01*
X202000Y-263000D01*
X201000Y-265000D01*
X202000Y-267000D01*
X200000Y-266000D01*
X198000Y-267000D01*
X198800Y-266200D02*
X199400Y-265000D01*
X198800Y-263800D01*
X200000Y-264400D01*
X201200Y-263800D01*
X200600Y-265000D01*
X201200Y-266200D01*
X200000Y-265600D01*
X198800Y-266200D01*
X123000Y-292000D02*
X124000Y-290000D01*
X123000Y-288000D01*
X125000Y-289000D01*
X127000Y-288000D01*
X126000Y-290000D01*
X127000Y-292000D01*
X125000Y-291000D01*
X123000Y-292000D01*
X123800Y-291200D02*
X124400Y-290000D01*
X123800Y-288800D01*
X125000Y-289400D01*
X126200Y-288800D01*
X125600Y-290000D01*
X126200Y-291200D01*
X125000Y-290600D01*
X123800Y-291200D01*
X148000Y-292000D02*
X149000Y-290000D01*
X148000Y-288000D01*
X150000Y-289000D01*
X152000Y-288000D01*
X151000Y-290000D01*
X152000Y-292000D01*
X150000Y-291000D01*
X148000Y-292000D01*
X148800Y-291200D02*
X149400Y-290000D01*
X148800Y-288800D01*
X150000Y-289400D01*
X151200Y-288800D01*
X150600Y-290000D01*
X151200Y-291200D01*
X150000Y-290600D01*
X148800Y-291200D01*
X173000Y-292000D02*
X174000Y-290000D01*
X173000Y-288000D01*
X175000Y-289000D01*
X177000Y-288000D01*
X176000Y-290000D01*
X177000Y-292000D01*
X175000Y-291000D01*
X173000Y-292000D01*
X173800Y-291200D02*
X174400Y-290000D01*
X173800Y-288800D01*
X175000Y-289400D01*
X176200Y-288800D01*
X175600Y-290000D01*
X176200Y-291200D01*
X175000Y-290600D01*
X173800Y-291200D01*
X198000Y-292000D02*
X199000Y-290000D01*
X198000Y-288000D01*
X200000Y-289000D01*
X202000Y-288000D01*
X201000Y-290000D01*
X202000Y-292000D01*
X200000Y-291000D01*
X198000Y-292000D01*
X198800Y-291200D02*
X199400Y-290000D01*
X198800Y-288800D01*
X200000Y-289400D01*
X201200Y-288800D01*
X200600Y-290000D01*
X201200Y-291200D01*
X200000Y-290600D01*
X198800Y-291200D01*
X223000Y-292000D02*
X224000Y-290000D01*
X223000Y-288000D01*
X225000Y-289000D01*
X227000Y-288000D01*
X226000Y-290000D01*
X227000Y-292000D01*
X225000Y-291000D01*
X223000Y-292000D01*
X223800Y-291200D02*
X224400Y-290000D01*
X223800Y-288800D01*
X225000Y-289400D01*
X226200Y-288800D01*
X225600Y-290000D01*
X226200Y-291200D01*
X225000Y-290600D01*
X223800Y-291200D01*
X248000Y-227000D02*
X249000Y-225000D01*
X248000Y-223000D01*
X250000Y-224000D01*
X252000Y-223000D01*
X251000Y-225000D01*
X252000Y-227000D01*
X250000Y-226000D01*
X248000Y-227000D01*
X248800Y-226200D02*
X249400Y-225000D01*
X248800Y-223800D01*
X250000Y-224400D01*
X251200Y-223800D01*
X250600Y-225000D01*
X251200Y-226200D01*
X250000Y-225600D01*
X248800Y-226200D01*
X248000Y-252000D02*
X249000Y-250000D01*
X248000Y-248000D01*
X250000Y-249000D01*
X252000Y-248000D01*
X251000Y-250000D01*
X252000Y-252000D01*
X250000Y-251000D01*
X248000Y-252000D01*
X248800Y-251200D02*
X249400Y-250000D01*
X248800Y-248800D01*
X250000Y-249400D01*
X251200Y-248800D01*
X250600Y-250000D01*
X251200Y-251200D01*
X250000Y-250600D01*
X248800Y-251200D01*
X248000Y-302000D02*
X249000Y-300000D01*
X248000Y-298000D01*
X250000Y-299000D01*
X252000Y-298000D01*
X251000Y-300000D01*
X252000Y-302000D01*
X250000Y-301000D01*
X248000Y-302000D01*
X248800Y-301200D02*
X249400Y-300000D01*
X248800Y-298800D01*
X250000Y-299400D01*
X251200Y-298800D01*
X250600Y-300000D01*
X251200Y-301200D01*
X250000Y-300600D01*
X248800Y-301200D01*
X263000Y-252000D02*
X264000Y-250000D01*
X263000Y-248000D01*
X265000Y-249000D01*
X267000Y-248000D01*
X266000Y-250000D01*
X267000Y-252000D01*
X265000Y-251000D01*
X263000Y-252000D01*
X263800Y-251200D02*
X264400Y-250000D01*
X263800Y-248800D01*
X265000Y-249400D01*
X266200Y-248800D01*
X265600Y-250000D01*
X266200Y-251200D01*
X265000Y-250600D01*
X263800Y-251200D01*
X263000Y-277000D02*
X264000Y-275000D01*
X263000Y-273000D01*
X265000Y-274000D01*
X267000Y-273000D01*
X266000Y-275000D01*
X267000Y-277000D01*
X265000Y-276000D01*
X263000Y-277000D01*
X263800Y-276200D02*
X264400Y-275000D01*
X263800Y-273800D01*
X265000Y-274400D01*
X266200Y-273800D01*
X265600Y-275000D01*
X266200Y-276200D01*
X265000Y-275600D01*
X263800Y-276200D01*
X248000Y-272000D02*
X249000Y-270000D01*
X248000Y-268000D01*
X250000Y-269000D01*
X252000Y-268000D01*
X251000Y-270000D01*
X252000Y-272000D01*
X250000Y-271000D01*
X248000Y-272000D01*
X248800Y-271200D02*
X249400Y-270000D01*
X248800Y-268800D01*
X250000Y-269400D01*
X251200Y-268800D01*
X250600Y-270000D01*
X251200Y-271200D01*
X250000Y-270600D01*
X248800Y-271200D01*
X263000Y-317000D02*
X264000Y-315000D01*
X263000Y-313000D01*
X265000Y-314000D01*
X267000Y-313000D01*
X266000Y-315000D01*
X267000Y-317000D01*
X265000Y-316000D01*
X263000Y-317000D01*
X263800Y-316200D02*
X264400Y-315000D01*
X263800Y-313800D01*
X265000Y-314400D01*
X266200Y-313800D01*
X265600Y-315000D01*
X266200Y-316200D01*
X265000Y-315600D01*
X263800Y-316200D01*
X298000Y-252000D02*
X299000Y-250000D01*
X298000Y-248000D01*
X300000Y-249000D01*
X302000Y-248000D01*
X301000Y-250000D01*
X302000Y-252000D01*
X300000Y-251000D01*
X298000Y-252000D01*
X298800Y-251200D02*
X299400Y-250000D01*
X298800Y-248800D01*
X300000Y-249400D01*
X301200Y-248800D01*
X300600Y-250000D01*
X301200Y-251200D01*
X300000Y-250600D01*
X298800Y-251200D01*
X293000Y-262000D02*
X294000Y-260000D01*
X293000Y-258000D01*
X295000Y-259000D01*
X297000Y-258000D01*
X296000Y-260000D01*
X297000Y-262000D01*
X295000Y-261000D01*
X293000Y-262000D01*
X293800Y-261200D02*
X294400Y-260000D01*
X293800Y-258800D01*
X295000Y-259400D01*
X296200Y-258800D01*
X295600Y-260000D01*
X296200Y-261200D01*
X295000Y-260600D01*
X293800Y-261200D01*
X278000Y-182000D02*
X279000Y-180000D01*
X278000Y-178000D01*
X280000Y-179000D01*
X282000Y-178000D01*
X281000Y-180000D01*
X282000Y-182000D01*
X280000Y-181000D01*
X278000Y-182000D01*
X278800Y-181200D02*
X279400Y-180000D01*
X278800Y-178800D01*
X280000Y-179400D01*
X281200Y-178800D01*
X280600Y-180000D01*
X281200Y-181200D01*
X280000Y-180600D01*
X278800Y-181200D01*
X298000Y-202000D02*
X299000Y-200000D01*
X298000Y-198000D01*
X300000Y-199000D01*
X302000Y-198000D01*
X301000Y-200000D01*
X302000Y-202000D01*
X300000Y-201000D01*
X298000Y-202000D01*
X298800Y-201200D02*
X299400Y-200000D01*
X298800Y-198800D01*
X300000Y-199400D01*
X301200Y-198800D01*
X300600Y-200000D01*
X301200Y-201200D01*
X300000Y-200600D01*
X298800Y-201200D01*
X283000Y-207000D02*
X284000Y-205000D01*
X283000Y-203000D01*
X285000Y-204000D01*
X287000Y-203000D01*
X286000Y-205000D01*
X287000Y-207000D01*
X285000Y-206000D01*
X283000Y-207000D01*
X283800Y-206200D02*
X284400Y-205000D01*
X283800Y-203800D01*
X285000Y-204400D01*
X286200Y-203800D01*
X285600Y-205000D01*
X286200Y-206200D01*
X285000Y-205600D01*
X283800Y-206200D01*
X323000Y-197000D02*
X324000Y-195000D01*
X323000Y-193000D01*
X325000Y-194000D01*
X327000Y-193000D01*
X326000Y-195000D01*
X327000Y-197000D01*
X325000Y-196000D01*
X323000Y-197000D01*
X323800Y-196200D02*
X324400Y-195000D01*
X323800Y-193800D01*
X325000Y-194400D01*
X326200Y-193800D01*
X325600Y-195000D01*
X326200Y-196200D01*
X325000Y-195600D01*
X323800Y-196200D01*
X323000Y-207000D02*
X324000Y-205000D01*
X323000Y-203000D01*
X325000Y-204000D01*
X327000Y-203000D01*
X326000Y-205000D01*
X327000Y-207000D01*
X325000Y-206000D01*
X323000Y-207000D01*
X323800Y-206200D02*
X324400Y-205000D01*
X323800Y-203800D01*
X325000Y-204400D01*
X326200Y-203800D01*
X325600Y-205000D01*
X326200Y-206200D01*
X325000Y-205600D01*
X323800Y-206200D01*
X323000Y-217000D02*
X324000Y-215000D01*
X323000Y-213000D01*
X325000Y-214000D01*
X327000Y-213000D01*
X326000Y-215000D01*
X327000Y-217000D01*
X325000Y-216000D01*
X323000Y-217000D01*
X323800Y-216200D02*
X324400Y-215000D01*
X323800Y-213800D01*
X325000Y-214400D01*
X326200Y-213800D01*
X325600Y-215000D01*
X326200Y-216200D01*
X325000Y-215600D01*
X323800Y-216200D01*
X298000Y-152000D02*
X299000Y-150000D01*
X298000Y-148000D01*
X300000Y-149000D01*
X302000Y-148000D01*
X301000Y-150000D01*
X302000Y-152000D01*
X300000Y-151000D01*
X298000Y-152000D01*
X298800Y-151200D02*
X299400Y-150000D01*
X298800Y-148800D01*
X300000Y-149400D01*
X301200Y-148800D01*
X300600Y-150000D01*
X301200Y-151200D01*
X300000Y-150600D01*
X298800Y-151200D01*
X298000Y-172000D02*
X299000Y-170000D01*
X298000Y-168000D01*
X300000Y-169000D01*
X302000Y-168000D01*
X301000Y-170000D01*
X302000Y-172000D01*
X300000Y-171000D01*
X298000Y-172000D01*
X298800Y-171200D02*
X299400Y-170000D01*
X298800Y-168800D01*
X300000Y-169400D01*
X301200Y-168800D01*
X300600Y-170000D01*
X301200Y-171200D01*
X300000Y-170600D01*
X298800Y-171200D01*
X168000Y-432000D02*
X169000Y-430000D01*
X168000Y-428000D01*
X170000Y-429000D01*
X172000Y-428000D01*
X171000Y-430000D01*
X172000Y-432000D01*
X170000Y-431000D01*
X168000Y-432000D01*
X168800Y-431200D02*
X169400Y-430000D01*
X168800Y-428800D01*
X170000Y-429400D01*
X171200Y-428800D01*
X170600Y-430000D01*
X171200Y-431200D01*
X170000Y-430600D01*
X168800Y-431200D01*
X174000Y-438500D02*
X175000Y-436500D01*
X174000Y-434500D01*
X176000Y-435500D01*
X178000Y-434500D01*
X177000Y-436500D01*
X178000Y-438500D01*
X176000Y-437500D01*
X174000Y-438500D01*
X174800Y-437700D02*
X175400Y-436500D01*
X174800Y-435300D01*
X176000Y-435900D01*
X177200Y-435300D01*
X176600Y-436500D01*
X177200Y-437700D01*
X176000Y-437100D01*
X174800Y-437700D01*
X200500Y-427000D02*
X201500Y-425000D01*
X200500Y-423000D01*
X202500Y-424000D01*
X204500Y-423000D01*
X203500Y-425000D01*
X204500Y-427000D01*
X202500Y-426000D01*
X200500Y-427000D01*
X201300Y-426200D02*
X201900Y-425000D01*
X201300Y-423800D01*
X202500Y-424400D01*
X203700Y-423800D01*
X203100Y-425000D01*
X203700Y-426200D01*
X202500Y-425600D01*
X201300Y-426200D01*
X193000Y-432000D02*
X194000Y-430000D01*
X193000Y-428000D01*
X195000Y-429000D01*
X197000Y-428000D01*
X196000Y-430000D01*
X197000Y-432000D01*
X195000Y-431000D01*
X193000Y-432000D01*
X193800Y-431200D02*
X194400Y-430000D01*
X193800Y-428800D01*
X195000Y-429400D01*
X196200Y-428800D01*
X195600Y-430000D01*
X196200Y-431200D01*
X195000Y-430600D01*
X193800Y-431200D01*
X185500Y-439500D02*
X186500Y-437500D01*
X185500Y-435500D01*
X187500Y-436500D01*
X189500Y-435500D01*
X188500Y-437500D01*
X189500Y-439500D01*
X187500Y-438500D01*
X185500Y-439500D01*
X186300Y-438700D02*
X186900Y-437500D01*
X186300Y-436300D01*
X187500Y-436900D01*
X188700Y-436300D01*
X188100Y-437500D01*
X188700Y-438700D01*
X187500Y-438100D01*
X186300Y-438700D01*
X203000Y-432000D02*
X204000Y-430000D01*
X203000Y-428000D01*
X205000Y-429000D01*
X207000Y-428000D01*
X206000Y-430000D01*
X207000Y-432000D01*
X205000Y-431000D01*
X203000Y-432000D01*
X203800Y-431200D02*
X204400Y-430000D01*
X203800Y-428800D01*
X205000Y-429400D01*
X206200Y-428800D01*
X205600Y-430000D01*
X206200Y-431200D01*
X205000Y-430600D01*
X203800Y-431200D01*
X203000Y-439500D02*
X204000Y-437500D01*
X203000Y-435500D01*
X205000Y-436500D01*
X207000Y-435500D01*
X206000Y-437500D01*
X207000Y-439500D01*
X205000Y-438500D01*
X203000Y-439500D01*
X203800Y-438700D02*
X204400Y-437500D01*
X203800Y-436300D01*
X205000Y-436900D01*
X206200Y-436300D01*
X205600Y-437500D01*
X206200Y-438700D01*
X205000Y-438100D01*
X203800Y-438700D01*
X193000Y-439500D02*
X194000Y-437500D01*
X193000Y-435500D01*
X195000Y-436500D01*
X197000Y-435500D01*
X196000Y-437500D01*
X197000Y-439500D01*
X195000Y-438500D01*
X193000Y-439500D01*
X193800Y-438700D02*
X194400Y-437500D01*
X193800Y-436300D01*
X195000Y-436900D01*
X196200Y-436300D01*
X195600Y-437500D01*
X196200Y-438700D01*
X195000Y-438100D01*
X193800Y-438700D01*
X193000Y-417000D02*
X194000Y-415000D01*
X193000Y-413000D01*
X195000Y-414000D01*
X197000Y-413000D01*
X196000Y-415000D01*
X197000Y-417000D01*
X195000Y-416000D01*
X193000Y-417000D01*
X193800Y-416200D02*
X194400Y-415000D01*
X193800Y-413800D01*
X195000Y-414400D01*
X196200Y-413800D01*
X195600Y-415000D01*
X196200Y-416200D01*
X195000Y-415600D01*
X193800Y-416200D01*
X188000Y-417000D02*
X189000Y-415000D01*
X188000Y-413000D01*
X190000Y-414000D01*
X192000Y-413000D01*
X191000Y-415000D01*
X192000Y-417000D01*
X190000Y-416000D01*
X188000Y-417000D01*
X188800Y-416200D02*
X189400Y-415000D01*
X188800Y-413800D01*
X190000Y-414400D01*
X191200Y-413800D01*
X190600Y-415000D01*
X191200Y-416200D01*
X190000Y-415600D01*
X188800Y-416200D01*
X183000Y-417000D02*
X184000Y-415000D01*
X183000Y-413000D01*
X185000Y-414000D01*
X187000Y-413000D01*
X186000Y-415000D01*
X187000Y-417000D01*
X185000Y-416000D01*
X183000Y-417000D01*
X183800Y-416200D02*
X184400Y-415000D01*
X183800Y-413800D01*
X185000Y-414400D01*
X186200Y-413800D01*
X185600Y-415000D01*
X186200Y-416200D01*
X185000Y-415600D01*
X183800Y-416200D01*
X183000Y-424500D02*
X184000Y-422500D01*
X183000Y-420500D01*
X185000Y-421500D01*
X187000Y-420500D01*
X186000Y-422500D01*
X187000Y-424500D01*
X185000Y-423500D01*
X183000Y-424500D01*
X183800Y-423700D02*
X184400Y-422500D01*
X183800Y-421300D01*
X185000Y-421900D01*
X186200Y-421300D01*
X185600Y-422500D01*
X186200Y-423700D01*
X185000Y-423100D01*
X183800Y-423700D01*
X188000Y-424500D02*
X189000Y-422500D01*
X188000Y-420500D01*
X190000Y-421500D01*
X192000Y-420500D01*
X191000Y-422500D01*
X192000Y-424500D01*
X190000Y-423500D01*
X188000Y-424500D01*
X188800Y-423700D02*
X189400Y-422500D01*
X188800Y-421300D01*
X190000Y-421900D01*
X191200Y-421300D01*
X190600Y-422500D01*
X191200Y-423700D01*
X190000Y-423100D01*
X188800Y-423700D01*
X183000Y-429500D02*
X184000Y-427500D01*
X183000Y-425500D01*
X185000Y-426500D01*
X187000Y-425500D01*
X186000Y-427500D01*
X187000Y-429500D01*
X185000Y-428500D01*
X183000Y-429500D01*
X183800Y-428700D02*
X184400Y-427500D01*
X183800Y-426300D01*
X185000Y-426900D01*
X186200Y-426300D01*
X185600Y-427500D01*
X186200Y-428700D01*
X185000Y-428100D01*
X183800Y-428700D01*
X170500Y-394500D02*
X171500Y-392500D01*
X170500Y-390500D01*
X172500Y-391500D01*
X174500Y-390500D01*
X173500Y-392500D01*
X174500Y-394500D01*
X172500Y-393500D01*
X170500Y-394500D01*
X171300Y-393700D02*
X171900Y-392500D01*
X171300Y-391300D01*
X172500Y-391900D01*
X173700Y-391300D01*
X173100Y-392500D01*
X173700Y-393700D01*
X172500Y-393100D01*
X171300Y-393700D01*
X178000Y-394500D02*
X179000Y-392500D01*
X178000Y-390500D01*
X180000Y-391500D01*
X182000Y-390500D01*
X181000Y-392500D01*
X182000Y-394500D01*
X180000Y-393500D01*
X178000Y-394500D01*
X178800Y-393700D02*
X179400Y-392500D01*
X178800Y-391300D01*
X180000Y-391900D01*
X181200Y-391300D01*
X180600Y-392500D01*
X181200Y-393700D01*
X180000Y-393100D01*
X178800Y-393700D01*
X173000Y-402000D02*
X174000Y-400000D01*
X173000Y-398000D01*
X175000Y-399000D01*
X177000Y-398000D01*
X176000Y-400000D01*
X177000Y-402000D01*
X175000Y-401000D01*
X173000Y-402000D01*
X173800Y-401200D02*
X174400Y-400000D01*
X173800Y-398800D01*
X175000Y-399400D01*
X176200Y-398800D01*
X175600Y-400000D01*
X176200Y-401200D01*
X175000Y-400600D01*
X173800Y-401200D01*
X180500Y-402000D02*
X181500Y-400000D01*
X180500Y-398000D01*
X182500Y-399000D01*
X184500Y-398000D01*
X183500Y-400000D01*
X184500Y-402000D01*
X182500Y-401000D01*
X180500Y-402000D01*
X181300Y-401200D02*
X181900Y-400000D01*
X181300Y-398800D01*
X182500Y-399400D01*
X183700Y-398800D01*
X183100Y-400000D01*
X183700Y-401200D01*
X182500Y-400600D01*
X181300Y-401200D01*
X195500Y-394500D02*
X196500Y-392500D01*
X195500Y-390500D01*
X197500Y-391500D01*
X199500Y-390500D01*
X198500Y-392500D01*
X199500Y-394500D01*
X197500Y-393500D01*
X195500Y-394500D01*
X196300Y-393700D02*
X196900Y-392500D01*
X196300Y-391300D01*
X197500Y-391900D01*
X198700Y-391300D01*
X198100Y-392500D01*
X198700Y-393700D01*
X197500Y-393100D01*
X196300Y-393700D01*
X198000Y-399500D02*
X199000Y-397500D01*
X198000Y-395500D01*
X200000Y-396500D01*
X202000Y-395500D01*
X201000Y-397500D01*
X202000Y-399500D01*
X200000Y-398500D01*
X198000Y-399500D01*
X198800Y-398700D02*
X199400Y-397500D01*
X198800Y-396300D01*
X200000Y-396900D01*
X201200Y-396300D01*
X200600Y-397500D01*
X201200Y-398700D01*
X200000Y-398100D01*
X198800Y-398700D01*
X159500Y-432000D02*
X160500Y-430000D01*
X159500Y-428000D01*
X161500Y-429000D01*
X163500Y-428000D01*
X162500Y-430000D01*
X163500Y-432000D01*
X161500Y-431000D01*
X159500Y-432000D01*
X160300Y-431200D02*
X160900Y-430000D01*
X160300Y-428800D01*
X161500Y-429400D01*
X162700Y-428800D01*
X162100Y-430000D01*
X162700Y-431200D01*
X161500Y-430600D01*
X160300Y-431200D01*
X162000Y-403000D02*
X163000Y-401000D01*
X162000Y-399000D01*
X164000Y-400000D01*
X166000Y-399000D01*
X165000Y-401000D01*
X166000Y-403000D01*
X164000Y-402000D01*
X162000Y-403000D01*
X162800Y-402200D02*
X163400Y-401000D01*
X162800Y-399800D01*
X164000Y-400400D01*
X165200Y-399800D01*
X164600Y-401000D01*
X165200Y-402200D01*
X164000Y-401600D01*
X162800Y-402200D01*
X235500Y-408000D02*
X236500Y-406000D01*
X235500Y-404000D01*
X237500Y-405000D01*
X239500Y-404000D01*
X238500Y-406000D01*
X239500Y-408000D01*
X237500Y-407000D01*
X235500Y-408000D01*
X236300Y-407200D02*
X236900Y-406000D01*
X236300Y-404800D01*
X237500Y-405400D01*
X238700Y-404800D01*
X238100Y-406000D01*
X238700Y-407200D01*
X237500Y-406600D01*
X236300Y-407200D01*
X245500Y-408000D02*
X246500Y-406000D01*
X245500Y-404000D01*
X247500Y-405000D01*
X249500Y-404000D01*
X248500Y-406000D01*
X249500Y-408000D01*
X247500Y-407000D01*
X245500Y-408000D01*
X246300Y-407200D02*
X246900Y-406000D01*
X246300Y-404800D01*
X247500Y-405400D01*
X248700Y-404800D01*
X248100Y-406000D01*
X248700Y-407200D01*
X247500Y-406600D01*
X246300Y-407200D01*
X255500Y-408000D02*
X256500Y-406000D01*
X255500Y-404000D01*
X257500Y-405000D01*
X259500Y-404000D01*
X258500Y-406000D01*
X259500Y-408000D01*
X257500Y-407000D01*
X255500Y-408000D01*
X256300Y-407200D02*
X256900Y-406000D01*
X256300Y-404800D01*
X257500Y-405400D01*
X258700Y-404800D01*
X258100Y-406000D01*
X258700Y-407200D01*
X257500Y-406600D01*
X256300Y-407200D01*
X265500Y-408000D02*
X266500Y-406000D01*
X265500Y-404000D01*
X267500Y-405000D01*
X269500Y-404000D01*
X268500Y-406000D01*
X269500Y-408000D01*
X267500Y-407000D01*
X265500Y-408000D01*
X266300Y-407200D02*
X266900Y-406000D01*
X266300Y-404800D01*
X267500Y-405400D01*
X268700Y-404800D01*
X268100Y-406000D01*
X268700Y-407200D01*
X267500Y-406600D01*
X266300Y-407200D01*
X238000Y-419500D02*
X239000Y-417500D01*
X238000Y-415500D01*
X240000Y-416500D01*
X242000Y-415500D01*
X241000Y-417500D01*
X242000Y-419500D01*
X240000Y-418500D01*
X238000Y-419500D01*
X238800Y-418700D02*
X239400Y-417500D01*
X238800Y-416300D01*
X240000Y-416900D01*
X241200Y-416300D01*
X240600Y-417500D01*
X241200Y-418700D01*
X240000Y-418100D01*
X238800Y-418700D01*
X268000Y-417000D02*
X269000Y-415000D01*
X268000Y-413000D01*
X270000Y-414000D01*
X272000Y-413000D01*
X271000Y-415000D01*
X272000Y-417000D01*
X270000Y-416000D01*
X268000Y-417000D01*
X268800Y-416200D02*
X269400Y-415000D01*
X268800Y-413800D01*
X270000Y-414400D01*
X271200Y-413800D01*
X270600Y-415000D01*
X271200Y-416200D01*
X270000Y-415600D01*
X268800Y-416200D01*
X268000Y-424500D02*
X269000Y-422500D01*
X268000Y-420500D01*
X270000Y-421500D01*
X272000Y-420500D01*
X271000Y-422500D01*
X272000Y-424500D01*
X270000Y-423500D01*
X268000Y-424500D01*
X268800Y-423700D02*
X269400Y-422500D01*
X268800Y-421300D01*
X270000Y-421900D01*
X271200Y-421300D01*
X270600Y-422500D01*
X271200Y-423700D01*
X270000Y-423100D01*
X268800Y-423700D01*
X256500Y-430500D02*
X257500Y-428500D01*
X256500Y-426500D01*
X258500Y-427500D01*
X260500Y-426500D01*
X259500Y-428500D01*
X260500Y-430500D01*
X258500Y-429500D01*
X256500Y-430500D01*
X257300Y-429700D02*
X257900Y-428500D01*
X257300Y-427300D01*
X258500Y-427900D01*
X259700Y-427300D01*
X259100Y-428500D01*
X259700Y-429700D01*
X258500Y-429100D01*
X257300Y-429700D01*
X280500Y-423500D02*
X281500Y-421500D01*
X280500Y-419500D01*
X282500Y-420500D01*
X284500Y-419500D01*
X283500Y-421500D01*
X284500Y-423500D01*
X282500Y-422500D01*
X280500Y-423500D01*
X281300Y-422700D02*
X281900Y-421500D01*
X281300Y-420300D01*
X282500Y-420900D01*
X283700Y-420300D01*
X283100Y-421500D01*
X283700Y-422700D01*
X282500Y-422100D01*
X281300Y-422700D01*
X288000Y-423500D02*
X289000Y-421500D01*
X288000Y-419500D01*
X290000Y-420500D01*
X292000Y-419500D01*
X291000Y-421500D01*
X292000Y-423500D01*
X290000Y-422500D01*
X288000Y-423500D01*
X288800Y-422700D02*
X289400Y-421500D01*
X288800Y-420300D01*
X290000Y-420900D01*
X291200Y-420300D01*
X290600Y-421500D01*
X291200Y-422700D01*
X290000Y-422100D01*
X288800Y-422700D01*
X282000Y-413000D02*
X283000Y-411000D01*
X282000Y-409000D01*
X284000Y-410000D01*
X286000Y-409000D01*
X285000Y-411000D01*
X286000Y-413000D01*
X284000Y-412000D01*
X282000Y-413000D01*
X282800Y-412200D02*
X283400Y-411000D01*
X282800Y-409800D01*
X284000Y-410400D01*
X285200Y-409800D01*
X284600Y-411000D01*
X285200Y-412200D01*
X284000Y-411600D01*
X282800Y-412200D01*
X270500Y-384500D02*
X271500Y-382500D01*
X270500Y-380500D01*
X272500Y-381500D01*
X274500Y-380500D01*
X273500Y-382500D01*
X274500Y-384500D01*
X272500Y-383500D01*
X270500Y-384500D01*
X271300Y-383700D02*
X271900Y-382500D01*
X271300Y-381300D01*
X272500Y-381900D01*
X273700Y-381300D01*
X273100Y-382500D01*
X273700Y-383700D01*
X272500Y-383100D01*
X271300Y-383700D01*
X275500Y-372000D02*
X276500Y-370000D01*
X275500Y-368000D01*
X277500Y-369000D01*
X279500Y-368000D01*
X278500Y-370000D01*
X279500Y-372000D01*
X277500Y-371000D01*
X275500Y-372000D01*
X276300Y-371200D02*
X276900Y-370000D01*
X276300Y-368800D01*
X277500Y-369400D01*
X278700Y-368800D01*
X278100Y-370000D01*
X278700Y-371200D01*
X277500Y-370600D01*
X276300Y-371200D01*
X283000Y-356000D02*
X284000Y-354000D01*
X283000Y-352000D01*
X285000Y-353000D01*
X287000Y-352000D01*
X286000Y-354000D01*
X287000Y-356000D01*
X285000Y-355000D01*
X283000Y-356000D01*
X283800Y-355200D02*
X284400Y-354000D01*
X283800Y-352800D01*
X285000Y-353400D01*
X286200Y-352800D01*
X285600Y-354000D01*
X286200Y-355200D01*
X285000Y-354600D01*
X283800Y-355200D01*
X263000Y-364500D02*
X264000Y-362500D01*
X263000Y-360500D01*
X265000Y-361500D01*
X267000Y-360500D01*
X266000Y-362500D01*
X267000Y-364500D01*
X265000Y-363500D01*
X263000Y-364500D01*
X263800Y-363700D02*
X264400Y-362500D01*
X263800Y-361300D01*
X265000Y-361900D01*
X266200Y-361300D01*
X265600Y-362500D01*
X266200Y-363700D01*
X265000Y-363100D01*
X263800Y-363700D01*
X243000Y-364500D02*
X244000Y-362500D01*
X243000Y-360500D01*
X245000Y-361500D01*
X247000Y-360500D01*
X246000Y-362500D01*
X247000Y-364500D01*
X245000Y-363500D01*
X243000Y-364500D01*
X243800Y-363700D02*
X244400Y-362500D01*
X243800Y-361300D01*
X245000Y-361900D01*
X246200Y-361300D01*
X245600Y-362500D01*
X246200Y-363700D01*
X245000Y-363100D01*
X243800Y-363700D01*
X230500Y-377000D02*
X231500Y-375000D01*
X230500Y-373000D01*
X232500Y-374000D01*
X234500Y-373000D01*
X233500Y-375000D01*
X234500Y-377000D01*
X232500Y-376000D01*
X230500Y-377000D01*
X231300Y-376200D02*
X231900Y-375000D01*
X231300Y-373800D01*
X232500Y-374400D01*
X233700Y-373800D01*
X233100Y-375000D01*
X233700Y-376200D01*
X232500Y-375600D01*
X231300Y-376200D01*
X240500Y-389500D02*
X241500Y-387500D01*
X240500Y-385500D01*
X242500Y-386500D01*
X244500Y-385500D01*
X243500Y-387500D01*
X244500Y-389500D01*
X242500Y-388500D01*
X240500Y-389500D01*
X241300Y-388700D02*
X241900Y-387500D01*
X241300Y-386300D01*
X242500Y-386900D01*
X243700Y-386300D01*
X243100Y-387500D01*
X243700Y-388700D01*
X242500Y-388100D01*
X241300Y-388700D01*
X225500Y-392000D02*
X226500Y-390000D01*
X225500Y-388000D01*
X227500Y-389000D01*
X229500Y-388000D01*
X228500Y-390000D01*
X229500Y-392000D01*
X227500Y-391000D01*
X225500Y-392000D01*
X226300Y-391200D02*
X226900Y-390000D01*
X226300Y-388800D01*
X227500Y-389400D01*
X228700Y-388800D01*
X228100Y-390000D01*
X228700Y-391200D01*
X227500Y-390600D01*
X226300Y-391200D01*
X58000Y-442000D02*
X59000Y-440000D01*
X58000Y-438000D01*
X60000Y-439000D01*
X62000Y-438000D01*
X61000Y-440000D01*
X62000Y-442000D01*
X60000Y-441000D01*
X58000Y-442000D01*
X58800Y-441200D02*
X59400Y-440000D01*
X58800Y-438800D01*
X60000Y-439400D01*
X61200Y-438800D01*
X60600Y-440000D01*
X61200Y-441200D01*
X60000Y-440600D01*
X58800Y-441200D01*
X73000Y-457000D02*
X74000Y-455000D01*
X73000Y-453000D01*
X75000Y-454000D01*
X77000Y-453000D01*
X76000Y-455000D01*
X77000Y-457000D01*
X75000Y-456000D01*
X73000Y-457000D01*
X73800Y-456200D02*
X74400Y-455000D01*
X73800Y-453800D01*
X75000Y-454400D01*
X76200Y-453800D01*
X75600Y-455000D01*
X76200Y-456200D01*
X75000Y-455600D01*
X73800Y-456200D01*
X73000Y-472000D02*
X74000Y-470000D01*
X73000Y-468000D01*
X75000Y-469000D01*
X77000Y-468000D01*
X76000Y-470000D01*
X77000Y-472000D01*
X75000Y-471000D01*
X73000Y-472000D01*
X73800Y-471200D02*
X74400Y-470000D01*
X73800Y-468800D01*
X75000Y-469400D01*
X76200Y-468800D01*
X75600Y-470000D01*
X76200Y-471200D01*
X75000Y-470600D01*
X73800Y-471200D01*
X58000Y-457000D02*
X59000Y-455000D01*
X58000Y-453000D01*
X60000Y-454000D01*
X62000Y-453000D01*
X61000Y-455000D01*
X62000Y-457000D01*
X60000Y-456000D01*
X58000Y-457000D01*
X58800Y-456200D02*
X59400Y-455000D01*
X58800Y-453800D01*
X60000Y-454400D01*
X61200Y-453800D01*
X60600Y-455000D01*
X61200Y-456200D01*
X60000Y-455600D01*
X58800Y-456200D01*
X58000Y-472000D02*
X59000Y-470000D01*
X58000Y-468000D01*
X60000Y-469000D01*
X62000Y-468000D01*
X61000Y-470000D01*
X62000Y-472000D01*
X60000Y-471000D01*
X58000Y-472000D01*
X58800Y-471200D02*
X59400Y-470000D01*
X58800Y-468800D01*
X60000Y-469400D01*
X61200Y-468800D01*
X60600Y-470000D01*
X61200Y-471200D01*
X60000Y-470600D01*
X58800Y-471200D01*
X308000Y-412000D02*
X309000Y-410000D01*
X308000Y-408000D01*
X310000Y-409000D01*
X312000Y-408000D01*
X311000Y-410000D01*
X312000Y-412000D01*
X310000Y-411000D01*
X308000Y-412000D01*
X308800Y-411200D02*
X309400Y-410000D01*
X308800Y-408800D01*
X310000Y-409400D01*
X311200Y-408800D01*
X310600Y-410000D01*
X311200Y-411200D01*
X310000Y-410600D01*
X308800Y-411200D01*
X308000Y-422000D02*
X309000Y-420000D01*
X308000Y-418000D01*
X310000Y-419000D01*
X312000Y-418000D01*
X311000Y-420000D01*
X312000Y-422000D01*
X310000Y-421000D01*
X308000Y-422000D01*
X308800Y-421200D02*
X309400Y-420000D01*
X308800Y-418800D01*
X310000Y-419400D01*
X311200Y-418800D01*
X310600Y-420000D01*
X311200Y-421200D01*
X310000Y-420600D01*
X308800Y-421200D01*
X348000Y-27000D02*
X349000Y-25000D01*
X348000Y-23000D01*
X350000Y-24000D01*
X352000Y-23000D01*
X351000Y-25000D01*
X352000Y-27000D01*
X350000Y-26000D01*
X348000Y-27000D01*
X348800Y-26200D02*
X349400Y-25000D01*
X348800Y-23800D01*
X350000Y-24400D01*
X351200Y-23800D01*
X350600Y-25000D01*
X351200Y-26200D01*
X350000Y-25600D01*
X348800Y-26200D01*
X378000Y-47000D02*
X379000Y-45000D01*
X378000Y-43000D01*
X380000Y-44000D01*
X382000Y-43000D01*
X381000Y-45000D01*
X382000Y-47000D01*
X380000Y-46000D01*
X378000Y-47000D01*
X378800Y-46200D02*
X379400Y-45000D01*
X378800Y-43800D01*
X380000Y-44400D01*
X381200Y-43800D01*
X380600Y-45000D01*
X381200Y-46200D01*
X380000Y-45600D01*
X378800Y-46200D01*
X338000Y-62000D02*
X339000Y-60000D01*
X338000Y-58000D01*
X340000Y-59000D01*
X342000Y-58000D01*
X341000Y-60000D01*
X342000Y-62000D01*
X340000Y-61000D01*
X338000Y-62000D01*
X338800Y-61200D02*
X339400Y-60000D01*
X338800Y-58800D01*
X340000Y-59400D01*
X341200Y-58800D01*
X340600Y-60000D01*
X341200Y-61200D01*
X340000Y-60600D01*
X338800Y-61200D01*
X313000Y-67000D02*
X314000Y-65000D01*
X313000Y-63000D01*
X315000Y-64000D01*
X317000Y-63000D01*
X316000Y-65000D01*
X317000Y-67000D01*
X315000Y-66000D01*
X313000Y-67000D01*
X313800Y-66200D02*
X314400Y-65000D01*
X313800Y-63800D01*
X315000Y-64400D01*
X316200Y-63800D01*
X315600Y-65000D01*
X316200Y-66200D01*
X315000Y-65600D01*
X313800Y-66200D01*
X273000Y-57000D02*
X274000Y-55000D01*
X273000Y-53000D01*
X275000Y-54000D01*
X277000Y-53000D01*
X276000Y-55000D01*
X277000Y-57000D01*
X275000Y-56000D01*
X273000Y-57000D01*
X273800Y-56200D02*
X274400Y-55000D01*
X273800Y-53800D01*
X275000Y-54400D01*
X276200Y-53800D01*
X275600Y-55000D01*
X276200Y-56200D01*
X275000Y-55600D01*
X273800Y-56200D01*
X248000Y-57000D02*
X249000Y-55000D01*
X248000Y-53000D01*
X250000Y-54000D01*
X252000Y-53000D01*
X251000Y-55000D01*
X252000Y-57000D01*
X250000Y-56000D01*
X248000Y-57000D01*
X248800Y-56200D02*
X249400Y-55000D01*
X248800Y-53800D01*
X250000Y-54400D01*
X251200Y-53800D01*
X250600Y-55000D01*
X251200Y-56200D01*
X250000Y-55600D01*
X248800Y-56200D01*
X145500Y-114500D02*
X146500Y-112500D01*
X145500Y-110500D01*
X147500Y-111500D01*
X149500Y-110500D01*
X148500Y-112500D01*
X149500Y-114500D01*
X147500Y-113500D01*
X145500Y-114500D01*
X146300Y-113700D02*
X146900Y-112500D01*
X146300Y-111300D01*
X147500Y-111900D01*
X148700Y-111300D01*
X148100Y-112500D01*
X148700Y-113700D01*
X147500Y-113100D01*
X146300Y-113700D01*
X133000Y-127000D02*
X134000Y-125000D01*
X133000Y-123000D01*
X135000Y-124000D01*
X137000Y-123000D01*
X136000Y-125000D01*
X137000Y-127000D01*
X135000Y-126000D01*
X133000Y-127000D01*
X133800Y-126200D02*
X134400Y-125000D01*
X133800Y-123800D01*
X135000Y-124400D01*
X136200Y-123800D01*
X135600Y-125000D01*
X136200Y-126200D01*
X135000Y-125600D01*
X133800Y-126200D01*
X148000Y-127000D02*
X149000Y-125000D01*
X148000Y-123000D01*
X150000Y-124000D01*
X152000Y-123000D01*
X151000Y-125000D01*
X152000Y-127000D01*
X150000Y-126000D01*
X148000Y-127000D01*
X148800Y-126200D02*
X149400Y-125000D01*
X148800Y-123800D01*
X150000Y-124400D01*
X151200Y-123800D01*
X150600Y-125000D01*
X151200Y-126200D01*
X150000Y-125600D01*
X148800Y-126200D01*
X198000Y-72000D02*
X199000Y-70000D01*
X198000Y-68000D01*
X200000Y-69000D01*
X202000Y-68000D01*
X201000Y-70000D01*
X202000Y-72000D01*
X200000Y-71000D01*
X198000Y-72000D01*
X198800Y-71200D02*
X199400Y-70000D01*
X198800Y-68800D01*
X200000Y-69400D01*
X201200Y-68800D01*
X200600Y-70000D01*
X201200Y-71200D01*
X200000Y-70600D01*
X198800Y-71200D01*
X198000Y-87000D02*
X199000Y-85000D01*
X198000Y-83000D01*
X200000Y-84000D01*
X202000Y-83000D01*
X201000Y-85000D01*
X202000Y-87000D01*
X200000Y-86000D01*
X198000Y-87000D01*
X198800Y-86200D02*
X199400Y-85000D01*
X198800Y-83800D01*
X200000Y-84400D01*
X201200Y-83800D01*
X200600Y-85000D01*
X201200Y-86200D01*
X200000Y-85600D01*
X198800Y-86200D01*
X198000Y-102000D02*
X199000Y-100000D01*
X198000Y-98000D01*
X200000Y-99000D01*
X202000Y-98000D01*
X201000Y-100000D01*
X202000Y-102000D01*
X200000Y-101000D01*
X198000Y-102000D01*
X198800Y-101200D02*
X199400Y-100000D01*
X198800Y-98800D01*
X200000Y-99400D01*
X201200Y-98800D01*
X200600Y-100000D01*
X201200Y-101200D01*
X200000Y-100600D01*
X198800Y-101200D01*
X198000Y-117000D02*
X199000Y-115000D01*
X198000Y-113000D01*
X200000Y-114000D01*
X202000Y-113000D01*
X201000Y-115000D01*
X202000Y-117000D01*
X200000Y-116000D01*
X198000Y-117000D01*
X198800Y-116200D02*
X199400Y-115000D01*
X198800Y-113800D01*
X200000Y-114400D01*
X201200Y-113800D01*
X200600Y-115000D01*
X201200Y-116200D01*
X200000Y-115600D01*
X198800Y-116200D01*
X213000Y-127000D02*
X214000Y-125000D01*
X213000Y-123000D01*
X215000Y-124000D01*
X217000Y-123000D01*
X216000Y-125000D01*
X217000Y-127000D01*
X215000Y-126000D01*
X213000Y-127000D01*
X213800Y-126200D02*
X214400Y-125000D01*
X213800Y-123800D01*
X215000Y-124400D01*
X216200Y-123800D01*
X215600Y-125000D01*
X216200Y-126200D01*
X215000Y-125600D01*
X213800Y-126200D01*
X233000Y-137000D02*
X234000Y-135000D01*
X233000Y-133000D01*
X235000Y-134000D01*
X237000Y-133000D01*
X236000Y-135000D01*
X237000Y-137000D01*
X235000Y-136000D01*
X233000Y-137000D01*
X233800Y-136200D02*
X234400Y-135000D01*
X233800Y-133800D01*
X235000Y-134400D01*
X236200Y-133800D01*
X235600Y-135000D01*
X236200Y-136200D01*
X235000Y-135600D01*
X233800Y-136200D01*
X268000Y-117000D02*
X269000Y-115000D01*
X268000Y-113000D01*
X270000Y-114000D01*
X272000Y-113000D01*
X271000Y-115000D01*
X272000Y-117000D01*
X270000Y-116000D01*
X268000Y-117000D01*
X268800Y-116200D02*
X269400Y-115000D01*
X268800Y-113800D01*
X270000Y-114400D01*
X271200Y-113800D01*
X270600Y-115000D01*
X271200Y-116200D01*
X270000Y-115600D01*
X268800Y-116200D01*
X268000Y-132000D02*
X269000Y-130000D01*
X268000Y-128000D01*
X270000Y-129000D01*
X272000Y-128000D01*
X271000Y-130000D01*
X272000Y-132000D01*
X270000Y-131000D01*
X268000Y-132000D01*
X268800Y-131200D02*
X269400Y-130000D01*
X268800Y-128800D01*
X270000Y-129400D01*
X271200Y-128800D01*
X270600Y-130000D01*
X271200Y-131200D01*
X270000Y-130600D01*
X268800Y-131200D01*
X243000Y-117000D02*
X244000Y-115000D01*
X243000Y-113000D01*
X245000Y-114000D01*
X247000Y-113000D01*
X246000Y-115000D01*
X247000Y-117000D01*
X245000Y-116000D01*
X243000Y-117000D01*
X243800Y-116200D02*
X244400Y-115000D01*
X243800Y-113800D01*
X245000Y-114400D01*
X246200Y-113800D01*
X245600Y-115000D01*
X246200Y-116200D01*
X245000Y-115600D01*
X243800Y-116200D01*
X308000Y-104500D02*
X309000Y-102500D01*
X308000Y-100500D01*
X310000Y-101500D01*
X312000Y-100500D01*
X311000Y-102500D01*
X312000Y-104500D01*
X310000Y-103500D01*
X308000Y-104500D01*
X308800Y-103700D02*
X309400Y-102500D01*
X308800Y-101300D01*
X310000Y-101900D01*
X311200Y-101300D01*
X310600Y-102500D01*
X311200Y-103700D01*
X310000Y-103100D01*
X308800Y-103700D01*
X333000Y-102000D02*
X334000Y-100000D01*
X333000Y-98000D01*
X335000Y-99000D01*
X337000Y-98000D01*
X336000Y-100000D01*
X337000Y-102000D01*
X335000Y-101000D01*
X333000Y-102000D01*
X333800Y-101200D02*
X334400Y-100000D01*
X333800Y-98800D01*
X335000Y-99400D01*
X336200Y-98800D01*
X335600Y-100000D01*
X336200Y-101200D01*
X335000Y-100600D01*
X333800Y-101200D01*
X333000Y-127000D02*
X334000Y-125000D01*
X333000Y-123000D01*
X335000Y-124000D01*
X337000Y-123000D01*
X336000Y-125000D01*
X337000Y-127000D01*
X335000Y-126000D01*
X333000Y-127000D01*
X333800Y-126200D02*
X334400Y-125000D01*
X333800Y-123800D01*
X335000Y-124400D01*
X336200Y-123800D01*
X335600Y-125000D01*
X336200Y-126200D01*
X335000Y-125600D01*
X333800Y-126200D01*
X333000Y-152000D02*
X334000Y-150000D01*
X333000Y-148000D01*
X335000Y-149000D01*
X337000Y-148000D01*
X336000Y-150000D01*
X337000Y-152000D01*
X335000Y-151000D01*
X333000Y-152000D01*
X333800Y-151200D02*
X334400Y-150000D01*
X333800Y-148800D01*
X335000Y-149400D01*
X336200Y-148800D01*
X335600Y-150000D01*
X336200Y-151200D01*
X335000Y-150600D01*
X333800Y-151200D01*
X333000Y-177000D02*
X334000Y-175000D01*
X333000Y-173000D01*
X335000Y-174000D01*
X337000Y-173000D01*
X336000Y-175000D01*
X337000Y-177000D01*
X335000Y-176000D01*
X333000Y-177000D01*
X333800Y-176200D02*
X334400Y-175000D01*
X333800Y-173800D01*
X335000Y-174400D01*
X336200Y-173800D01*
X335600Y-175000D01*
X336200Y-176200D01*
X335000Y-175600D01*
X333800Y-176200D01*
X373000Y-152000D02*
X374000Y-150000D01*
X373000Y-148000D01*
X375000Y-149000D01*
X377000Y-148000D01*
X376000Y-150000D01*
X377000Y-152000D01*
X375000Y-151000D01*
X373000Y-152000D01*
X373800Y-151200D02*
X374400Y-150000D01*
X373800Y-148800D01*
X375000Y-149400D01*
X376200Y-148800D01*
X375600Y-150000D01*
X376200Y-151200D01*
X375000Y-150600D01*
X373800Y-151200D01*
X373000Y-102000D02*
X374000Y-100000D01*
X373000Y-98000D01*
X375000Y-99000D01*
X377000Y-98000D01*
X376000Y-100000D01*
X377000Y-102000D01*
X375000Y-101000D01*
X373000Y-102000D01*
X373800Y-101200D02*
X374400Y-100000D01*
X373800Y-98800D01*
X375000Y-99400D01*
X376200Y-98800D01*
X375600Y-100000D01*
X376200Y-101200D01*
X375000Y-100600D01*
X373800Y-101200D01*
X378000Y-202000D02*
X379000Y-200000D01*
X378000Y-198000D01*
X380000Y-199000D01*
X382000Y-198000D01*
X381000Y-200000D01*
X382000Y-202000D01*
X380000Y-201000D01*
X378000Y-202000D01*
X378800Y-201200D02*
X379400Y-200000D01*
X378800Y-198800D01*
X380000Y-199400D01*
X381200Y-198800D01*
X380600Y-200000D01*
X381200Y-201200D01*
X380000Y-200600D01*
X378800Y-201200D01*
X358000Y-222000D02*
X359000Y-220000D01*
X358000Y-218000D01*
X360000Y-219000D01*
X362000Y-218000D01*
X361000Y-220000D01*
X362000Y-222000D01*
X360000Y-221000D01*
X358000Y-222000D01*
X358800Y-221200D02*
X359400Y-220000D01*
X358800Y-218800D01*
X360000Y-219400D01*
X361200Y-218800D01*
X360600Y-220000D01*
X361200Y-221200D01*
X360000Y-220600D01*
X358800Y-221200D01*
X298000Y-279500D02*
X299000Y-277500D01*
X298000Y-275500D01*
X300000Y-276500D01*
X302000Y-275500D01*
X301000Y-277500D01*
X302000Y-279500D01*
X300000Y-278500D01*
X298000Y-279500D01*
X298800Y-278700D02*
X299400Y-277500D01*
X298800Y-276300D01*
X300000Y-276900D01*
X301200Y-276300D01*
X300600Y-277500D01*
X301200Y-278700D01*
X300000Y-278100D01*
X298800Y-278700D01*
X293000Y-284500D02*
X294000Y-282500D01*
X293000Y-280500D01*
X295000Y-281500D01*
X297000Y-280500D01*
X296000Y-282500D01*
X297000Y-284500D01*
X295000Y-283500D01*
X293000Y-284500D01*
X293800Y-283700D02*
X294400Y-282500D01*
X293800Y-281300D01*
X295000Y-281900D01*
X296200Y-281300D01*
X295600Y-282500D01*
X296200Y-283700D01*
X295000Y-283100D01*
X293800Y-283700D01*
X345500Y-264500D02*
X346500Y-262500D01*
X345500Y-260500D01*
X347500Y-261500D01*
X349500Y-260500D01*
X348500Y-262500D01*
X349500Y-264500D01*
X347500Y-263500D01*
X345500Y-264500D01*
X346300Y-263700D02*
X346900Y-262500D01*
X346300Y-261300D01*
X347500Y-261900D01*
X348700Y-261300D01*
X348100Y-262500D01*
X348700Y-263700D01*
X347500Y-263100D01*
X346300Y-263700D01*
X345500Y-279500D02*
X346500Y-277500D01*
X345500Y-275500D01*
X347500Y-276500D01*
X349500Y-275500D01*
X348500Y-277500D01*
X349500Y-279500D01*
X347500Y-278500D01*
X345500Y-279500D01*
X346300Y-278700D02*
X346900Y-277500D01*
X346300Y-276300D01*
X347500Y-276900D01*
X348700Y-276300D01*
X348100Y-277500D01*
X348700Y-278700D01*
X347500Y-278100D01*
X346300Y-278700D01*
X343000Y-332000D02*
X344000Y-330000D01*
X343000Y-328000D01*
X345000Y-329000D01*
X347000Y-328000D01*
X346000Y-330000D01*
X347000Y-332000D01*
X345000Y-331000D01*
X343000Y-332000D01*
X343800Y-331200D02*
X344400Y-330000D01*
X343800Y-328800D01*
X345000Y-329400D01*
X346200Y-328800D01*
X345600Y-330000D01*
X346200Y-331200D01*
X345000Y-330600D01*
X343800Y-331200D01*
X333000Y-382000D02*
X334000Y-380000D01*
X333000Y-378000D01*
X335000Y-379000D01*
X337000Y-378000D01*
X336000Y-380000D01*
X337000Y-382000D01*
X335000Y-381000D01*
X333000Y-382000D01*
X333800Y-381200D02*
X334400Y-380000D01*
X333800Y-378800D01*
X335000Y-379400D01*
X336200Y-378800D01*
X335600Y-380000D01*
X336200Y-381200D01*
X335000Y-380600D01*
X333800Y-381200D01*
X333000Y-397000D02*
X334000Y-395000D01*
X333000Y-393000D01*
X335000Y-394000D01*
X337000Y-393000D01*
X336000Y-395000D01*
X337000Y-397000D01*
X335000Y-396000D01*
X333000Y-397000D01*
X333800Y-396200D02*
X334400Y-395000D01*
X333800Y-393800D01*
X335000Y-394400D01*
X336200Y-393800D01*
X335600Y-395000D01*
X336200Y-396200D01*
X335000Y-395600D01*
X333800Y-396200D01*
X325500Y-327000D02*
X326500Y-325000D01*
X325500Y-323000D01*
X327500Y-324000D01*
X329500Y-323000D01*
X328500Y-325000D01*
X329500Y-327000D01*
X327500Y-326000D01*
X325500Y-327000D01*
X326300Y-326200D02*
X326900Y-325000D01*
X326300Y-323800D01*
X327500Y-324400D01*
X328700Y-323800D01*
X328100Y-325000D01*
X328700Y-326200D01*
X327500Y-325600D01*
X326300Y-326200D01*
X324500Y-352000D02*
X325500Y-350000D01*
X324500Y-348000D01*
X326500Y-349000D01*
X328500Y-348000D01*
X327500Y-350000D01*
X328500Y-352000D01*
X326500Y-351000D01*
X324500Y-352000D01*
X325300Y-351200D02*
X325900Y-350000D01*
X325300Y-348800D01*
X326500Y-349400D01*
X327700Y-348800D01*
X327100Y-350000D01*
X327700Y-351200D01*
X326500Y-350600D01*
X325300Y-351200D01*
X335000Y-362000D02*
X336000Y-360000D01*
X335000Y-358000D01*
X337000Y-359000D01*
X339000Y-358000D01*
X338000Y-360000D01*
X339000Y-362000D01*
X337000Y-361000D01*
X335000Y-362000D01*
X335800Y-361200D02*
X336400Y-360000D01*
X335800Y-358800D01*
X337000Y-359400D01*
X338200Y-358800D01*
X337600Y-360000D01*
X338200Y-361200D01*
X337000Y-360600D01*
X335800Y-361200D01*
X307000Y-387000D02*
X308000Y-385000D01*
X307000Y-383000D01*
X309000Y-384000D01*
X311000Y-383000D01*
X310000Y-385000D01*
X311000Y-387000D01*
X309000Y-386000D01*
X307000Y-387000D01*
X307800Y-386200D02*
X308400Y-385000D01*
X307800Y-383800D01*
X309000Y-384400D01*
X310200Y-383800D01*
X309600Y-385000D01*
X310200Y-386200D01*
X309000Y-385600D01*
X307800Y-386200D01*
X295000Y-412000D02*
X296000Y-410000D01*
X295000Y-408000D01*
X297000Y-409000D01*
X299000Y-408000D01*
X298000Y-410000D01*
X299000Y-412000D01*
X297000Y-411000D01*
X295000Y-412000D01*
X295800Y-411200D02*
X296400Y-410000D01*
X295800Y-408800D01*
X297000Y-409400D01*
X298200Y-408800D01*
X297600Y-410000D01*
X298200Y-411200D01*
X297000Y-410600D01*
X295800Y-411200D01*
X308000Y-440000D02*
X309000Y-438000D01*
X308000Y-436000D01*
X310000Y-437000D01*
X312000Y-436000D01*
X311000Y-438000D01*
X312000Y-440000D01*
X310000Y-439000D01*
X308000Y-440000D01*
X308800Y-439200D02*
X309400Y-438000D01*
X308800Y-436800D01*
X310000Y-437400D01*
X311200Y-436800D01*
X310600Y-438000D01*
X311200Y-439200D01*
X310000Y-438600D01*
X308800Y-439200D01*
X285000Y-444000D02*
X286000Y-442000D01*
X285000Y-440000D01*
X287000Y-441000D01*
X289000Y-440000D01*
X288000Y-442000D01*
X289000Y-444000D01*
X287000Y-443000D01*
X285000Y-444000D01*
X285800Y-443200D02*
X286400Y-442000D01*
X285800Y-440800D01*
X287000Y-441400D01*
X288200Y-440800D01*
X287600Y-442000D01*
X288200Y-443200D01*
X287000Y-442600D01*
X285800Y-443200D01*
X158000Y-496000D02*
X159000Y-494000D01*
X158000Y-492000D01*
X160000Y-493000D01*
X162000Y-492000D01*
X161000Y-494000D01*
X162000Y-496000D01*
X160000Y-495000D01*
X158000Y-496000D01*
X158800Y-495200D02*
X159400Y-494000D01*
X158800Y-492800D01*
X160000Y-493400D01*
X161200Y-492800D01*
X160600Y-494000D01*
X161200Y-495200D01*
X160000Y-494600D01*
X158800Y-495200D01*
X168000Y-496000D02*
X169000Y-494000D01*
X168000Y-492000D01*
X170000Y-493000D01*
X172000Y-492000D01*
X171000Y-494000D01*
X172000Y-496000D01*
X170000Y-495000D01*
X168000Y-496000D01*
X168800Y-495200D02*
X169400Y-494000D01*
X168800Y-492800D01*
X170000Y-493400D01*
X171200Y-492800D01*
X170600Y-494000D01*
X171200Y-495200D01*
X170000Y-494600D01*
X168800Y-495200D01*
X178000Y-496000D02*
X179000Y-494000D01*
X178000Y-492000D01*
X180000Y-493000D01*
X182000Y-492000D01*
X181000Y-494000D01*
X182000Y-496000D01*
X180000Y-495000D01*
X178000Y-496000D01*
X178800Y-495200D02*
X179400Y-494000D01*
X178800Y-492800D01*
X180000Y-493400D01*
X181200Y-492800D01*
X180600Y-494000D01*
X181200Y-495200D01*
X180000Y-494600D01*
X178800Y-495200D01*
X93000Y-487000D02*
X94000Y-485000D01*
X93000Y-483000D01*
X95000Y-484000D01*
X97000Y-483000D01*
X96000Y-485000D01*
X97000Y-487000D01*
X95000Y-486000D01*
X93000Y-487000D01*
X93800Y-486200D02*
X94400Y-485000D01*
X93800Y-483800D01*
X95000Y-484400D01*
X96200Y-483800D01*
X95600Y-485000D01*
X96200Y-486200D01*
X95000Y-485600D01*
X93800Y-486200D01*
X148000Y-447000D02*
X149000Y-445000D01*
X148000Y-443000D01*
X150000Y-444000D01*
X152000Y-443000D01*
X151000Y-445000D01*
X152000Y-447000D01*
X150000Y-446000D01*
X148000Y-447000D01*
X148800Y-446200D02*
X149400Y-445000D01*
X148800Y-443800D01*
X150000Y-444400D01*
X151200Y-443800D01*
X150600Y-445000D01*
X151200Y-446200D01*
X150000Y-445600D01*
X148800Y-446200D01*
X139000Y-447000D02*
X140000Y-445000D01*
X139000Y-443000D01*
X141000Y-444000D01*
X143000Y-443000D01*
X142000Y-445000D01*
X143000Y-447000D01*
X141000Y-446000D01*
X139000Y-447000D01*
X139800Y-446200D02*
X140400Y-445000D01*
X139800Y-443800D01*
X141000Y-444400D01*
X142200Y-443800D01*
X141600Y-445000D01*
X142200Y-446200D01*
X141000Y-445600D01*
X139800Y-446200D01*
X129000Y-447000D02*
X130000Y-445000D01*
X129000Y-443000D01*
X131000Y-444000D01*
X133000Y-443000D01*
X132000Y-445000D01*
X133000Y-447000D01*
X131000Y-446000D01*
X129000Y-447000D01*
X129800Y-446200D02*
X130400Y-445000D01*
X129800Y-443800D01*
X131000Y-444400D01*
X132200Y-443800D01*
X131600Y-445000D01*
X132200Y-446200D01*
X131000Y-445600D01*
X129800Y-446200D01*
X95000Y-433000D02*
X96000Y-431000D01*
X95000Y-429000D01*
X97000Y-430000D01*
X99000Y-429000D01*
X98000Y-431000D01*
X99000Y-433000D01*
X97000Y-432000D01*
X95000Y-433000D01*
X95800Y-432200D02*
X96400Y-431000D01*
X95800Y-429800D01*
X97000Y-430400D01*
X98200Y-429800D01*
X97600Y-431000D01*
X98200Y-432200D01*
X97000Y-431600D01*
X95800Y-432200D01*
X118000Y-372000D02*
X119000Y-370000D01*
X118000Y-368000D01*
X120000Y-369000D01*
X122000Y-368000D01*
X121000Y-370000D01*
X122000Y-372000D01*
X120000Y-371000D01*
X118000Y-372000D01*
X118800Y-371200D02*
X119400Y-370000D01*
X118800Y-368800D01*
X120000Y-369400D01*
X121200Y-368800D01*
X120600Y-370000D01*
X121200Y-371200D01*
X120000Y-370600D01*
X118800Y-371200D01*
X118000Y-382000D02*
X119000Y-380000D01*
X118000Y-378000D01*
X120000Y-379000D01*
X122000Y-378000D01*
X121000Y-380000D01*
X122000Y-382000D01*
X120000Y-381000D01*
X118000Y-382000D01*
X118800Y-381200D02*
X119400Y-380000D01*
X118800Y-378800D01*
X120000Y-379400D01*
X121200Y-378800D01*
X120600Y-380000D01*
X121200Y-381200D01*
X120000Y-380600D01*
X118800Y-381200D01*
X152000Y-383000D02*
X153000Y-381000D01*
X152000Y-379000D01*
X154000Y-380000D01*
X156000Y-379000D01*
X155000Y-381000D01*
X156000Y-383000D01*
X154000Y-382000D01*
X152000Y-383000D01*
X152800Y-382200D02*
X153400Y-381000D01*
X152800Y-379800D01*
X154000Y-380400D01*
X155200Y-379800D01*
X154600Y-381000D01*
X155200Y-382200D01*
X154000Y-381600D01*
X152800Y-382200D01*
X144000Y-391000D02*
X145000Y-389000D01*
X144000Y-387000D01*
X146000Y-388000D01*
X148000Y-387000D01*
X147000Y-389000D01*
X148000Y-391000D01*
X146000Y-390000D01*
X144000Y-391000D01*
X144800Y-390200D02*
X145400Y-389000D01*
X144800Y-387800D01*
X146000Y-388400D01*
X147200Y-387800D01*
X146600Y-389000D01*
X147200Y-390200D01*
X146000Y-389600D01*
X144800Y-390200D01*
X118000Y-337000D02*
X119000Y-335000D01*
X118000Y-333000D01*
X120000Y-334000D01*
X122000Y-333000D01*
X121000Y-335000D01*
X122000Y-337000D01*
X120000Y-336000D01*
X118000Y-337000D01*
X118800Y-336200D02*
X119400Y-335000D01*
X118800Y-333800D01*
X120000Y-334400D01*
X121200Y-333800D01*
X120600Y-335000D01*
X121200Y-336200D01*
X120000Y-335600D01*
X118800Y-336200D01*
X128000Y-337000D02*
X129000Y-335000D01*
X128000Y-333000D01*
X130000Y-334000D01*
X132000Y-333000D01*
X131000Y-335000D01*
X132000Y-337000D01*
X130000Y-336000D01*
X128000Y-337000D01*
X128800Y-336200D02*
X129400Y-335000D01*
X128800Y-333800D01*
X130000Y-334400D01*
X131200Y-333800D01*
X130600Y-335000D01*
X131200Y-336200D01*
X130000Y-335600D01*
X128800Y-336200D01*
X138000Y-337000D02*
X139000Y-335000D01*
X138000Y-333000D01*
X140000Y-334000D01*
X142000Y-333000D01*
X141000Y-335000D01*
X142000Y-337000D01*
X140000Y-336000D01*
X138000Y-337000D01*
X138800Y-336200D02*
X139400Y-335000D01*
X138800Y-333800D01*
X140000Y-334400D01*
X141200Y-333800D01*
X140600Y-335000D01*
X141200Y-336200D01*
X140000Y-335600D01*
X138800Y-336200D01*
X148000Y-337000D02*
X149000Y-335000D01*
X148000Y-333000D01*
X150000Y-334000D01*
X152000Y-333000D01*
X151000Y-335000D01*
X152000Y-337000D01*
X150000Y-336000D01*
X148000Y-337000D01*
X148800Y-336200D02*
X149400Y-335000D01*
X148800Y-333800D01*
X150000Y-334400D01*
X151200Y-333800D01*
X150600Y-335000D01*
X151200Y-336200D01*
X150000Y-335600D01*
X148800Y-336200D01*
X123000Y-323000D02*
X124000Y-321000D01*
X123000Y-319000D01*
X125000Y-320000D01*
X127000Y-319000D01*
X126000Y-321000D01*
X127000Y-323000D01*
X125000Y-322000D01*
X123000Y-323000D01*
X123800Y-322200D02*
X124400Y-321000D01*
X123800Y-319800D01*
X125000Y-320400D01*
X126200Y-319800D01*
X125600Y-321000D01*
X126200Y-322200D01*
X125000Y-321600D01*
X123800Y-322200D01*
X154000Y-322000D02*
X155000Y-320000D01*
X154000Y-318000D01*
X156000Y-319000D01*
X158000Y-318000D01*
X157000Y-320000D01*
X158000Y-322000D01*
X156000Y-321000D01*
X154000Y-322000D01*
X154800Y-321200D02*
X155400Y-320000D01*
X154800Y-318800D01*
X156000Y-319400D01*
X157200Y-318800D01*
X156600Y-320000D01*
X157200Y-321200D01*
X156000Y-320600D01*
X154800Y-321200D01*
X164000Y-320000D02*
X165000Y-318000D01*
X164000Y-316000D01*
X166000Y-317000D01*
X168000Y-316000D01*
X167000Y-318000D01*
X168000Y-320000D01*
X166000Y-319000D01*
X164000Y-320000D01*
X164800Y-319200D02*
X165400Y-318000D01*
X164800Y-316800D01*
X166000Y-317400D01*
X167200Y-316800D01*
X166600Y-318000D01*
X167200Y-319200D01*
X166000Y-318600D01*
X164800Y-319200D01*
X172000Y-320000D02*
X173000Y-318000D01*
X172000Y-316000D01*
X174000Y-317000D01*
X176000Y-316000D01*
X175000Y-318000D01*
X176000Y-320000D01*
X174000Y-319000D01*
X172000Y-320000D01*
X172800Y-319200D02*
X173400Y-318000D01*
X172800Y-316800D01*
X174000Y-317400D01*
X175200Y-316800D01*
X174600Y-318000D01*
X175200Y-319200D01*
X174000Y-318600D01*
X172800Y-319200D01*
X133000Y-323000D02*
X134000Y-321000D01*
X133000Y-319000D01*
X135000Y-320000D01*
X137000Y-319000D01*
X136000Y-321000D01*
X137000Y-323000D01*
X135000Y-322000D01*
X133000Y-323000D01*
X133800Y-322200D02*
X134400Y-321000D01*
X133800Y-319800D01*
X135000Y-320400D01*
X136200Y-319800D01*
X135600Y-321000D01*
X136200Y-322200D01*
X135000Y-321600D01*
X133800Y-322200D01*
X183000Y-320000D02*
X184000Y-318000D01*
X183000Y-316000D01*
X185000Y-317000D01*
X187000Y-316000D01*
X186000Y-318000D01*
X187000Y-320000D01*
X185000Y-319000D01*
X183000Y-320000D01*
X183800Y-319200D02*
X184400Y-318000D01*
X183800Y-316800D01*
X185000Y-317400D01*
X186200Y-316800D01*
X185600Y-318000D01*
X186200Y-319200D01*
X185000Y-318600D01*
X183800Y-319200D01*
X193000Y-317000D02*
X194000Y-315000D01*
X193000Y-313000D01*
X195000Y-314000D01*
X197000Y-313000D01*
X196000Y-315000D01*
X197000Y-317000D01*
X195000Y-316000D01*
X193000Y-317000D01*
X193800Y-316200D02*
X194400Y-315000D01*
X193800Y-313800D01*
X195000Y-314400D01*
X196200Y-313800D01*
X195600Y-315000D01*
X196200Y-316200D01*
X195000Y-315600D01*
X193800Y-316200D01*
X201000Y-320000D02*
X202000Y-318000D01*
X201000Y-316000D01*
X203000Y-317000D01*
X205000Y-316000D01*
X204000Y-318000D01*
X205000Y-320000D01*
X203000Y-319000D01*
X201000Y-320000D01*
X201800Y-319200D02*
X202400Y-318000D01*
X201800Y-316800D01*
X203000Y-317400D01*
X204200Y-316800D01*
X203600Y-318000D01*
X204200Y-319200D01*
X203000Y-318600D01*
X201800Y-319200D01*
X206000Y-313000D02*
X207000Y-311000D01*
X206000Y-309000D01*
X208000Y-310000D01*
X210000Y-309000D01*
X209000Y-311000D01*
X210000Y-313000D01*
X208000Y-312000D01*
X206000Y-313000D01*
X206800Y-312200D02*
X207400Y-311000D01*
X206800Y-309800D01*
X208000Y-310400D01*
X209200Y-309800D01*
X208600Y-311000D01*
X209200Y-312200D01*
X208000Y-311600D01*
X206800Y-312200D01*
X212000Y-319000D02*
X213000Y-317000D01*
X212000Y-315000D01*
X214000Y-316000D01*
X216000Y-315000D01*
X215000Y-317000D01*
X216000Y-319000D01*
X214000Y-318000D01*
X212000Y-319000D01*
X212800Y-318200D02*
X213400Y-317000D01*
X212800Y-315800D01*
X214000Y-316400D01*
X215200Y-315800D01*
X214600Y-317000D01*
X215200Y-318200D01*
X214000Y-317600D01*
X212800Y-318200D01*
X216000Y-313000D02*
X217000Y-311000D01*
X216000Y-309000D01*
X218000Y-310000D01*
X220000Y-309000D01*
X219000Y-311000D01*
X220000Y-313000D01*
X218000Y-312000D01*
X216000Y-313000D01*
X216800Y-312200D02*
X217400Y-311000D01*
X216800Y-309800D01*
X218000Y-310400D01*
X219200Y-309800D01*
X218600Y-311000D01*
X219200Y-312200D01*
X218000Y-311600D01*
X216800Y-312200D01*
X222000Y-319000D02*
X223000Y-317000D01*
X222000Y-315000D01*
X224000Y-316000D01*
X226000Y-315000D01*
X225000Y-317000D01*
X226000Y-319000D01*
X224000Y-318000D01*
X222000Y-319000D01*
X222800Y-318200D02*
X223400Y-317000D01*
X222800Y-315800D01*
X224000Y-316400D01*
X225200Y-315800D01*
X224600Y-317000D01*
X225200Y-318200D01*
X224000Y-317600D01*
X222800Y-318200D01*
X226000Y-313000D02*
X227000Y-311000D01*
X226000Y-309000D01*
X228000Y-310000D01*
X230000Y-309000D01*
X229000Y-311000D01*
X230000Y-313000D01*
X228000Y-312000D01*
X226000Y-313000D01*
X226800Y-312200D02*
X227400Y-311000D01*
X226800Y-309800D01*
X228000Y-310400D01*
X229200Y-309800D01*
X228600Y-311000D01*
X229200Y-312200D01*
X228000Y-311600D01*
X226800Y-312200D01*
X232000Y-319000D02*
X233000Y-317000D01*
X232000Y-315000D01*
X234000Y-316000D01*
X236000Y-315000D01*
X235000Y-317000D01*
X236000Y-319000D01*
X234000Y-318000D01*
X232000Y-319000D01*
X232800Y-318200D02*
X233400Y-317000D01*
X232800Y-315800D01*
X234000Y-316400D01*
X235200Y-315800D01*
X234600Y-317000D01*
X235200Y-318200D01*
X234000Y-317600D01*
X232800Y-318200D01*
X236000Y-313000D02*
X237000Y-311000D01*
X236000Y-309000D01*
X238000Y-310000D01*
X240000Y-309000D01*
X239000Y-311000D01*
X240000Y-313000D01*
X238000Y-312000D01*
X236000Y-313000D01*
X236800Y-312200D02*
X237400Y-311000D01*
X236800Y-309800D01*
X238000Y-310400D01*
X239200Y-309800D01*
X238600Y-311000D01*
X239200Y-312200D01*
X238000Y-311600D01*
X236800Y-312200D01*
X242000Y-319000D02*
X243000Y-317000D01*
X242000Y-315000D01*
X244000Y-316000D01*
X246000Y-315000D01*
X245000Y-317000D01*
X246000Y-319000D01*
X244000Y-318000D01*
X242000Y-319000D01*
X242800Y-318200D02*
X243400Y-317000D01*
X242800Y-315800D01*
X244000Y-316400D01*
X245200Y-315800D01*
X244600Y-317000D01*
X245200Y-318200D01*
X244000Y-317600D01*
X242800Y-318200D01*
X46000Y-355000D02*
X47000Y-353000D01*
X46000Y-351000D01*
X48000Y-352000D01*
X50000Y-351000D01*
X49000Y-353000D01*
X50000Y-355000D01*
X48000Y-354000D01*
X46000Y-355000D01*
X46800Y-354200D02*
X47400Y-353000D01*
X46800Y-351800D01*
X48000Y-352400D01*
X49200Y-351800D01*
X48600Y-353000D01*
X49200Y-354200D01*
X48000Y-353600D01*
X46800Y-354200D01*
X37000Y-379000D02*
X38000Y-377000D01*
X37000Y-375000D01*
X39000Y-376000D01*
X41000Y-375000D01*
X40000Y-377000D01*
X41000Y-379000D01*
X39000Y-378000D01*
X37000Y-379000D01*
X37800Y-378200D02*
X38400Y-377000D01*
X37800Y-375800D01*
X39000Y-376400D01*
X40200Y-375800D01*
X39600Y-377000D01*
X40200Y-378200D01*
X39000Y-377600D01*
X37800Y-378200D01*
X259000Y-158000D02*
X260000Y-156000D01*
X259000Y-154000D01*
X261000Y-155000D01*
X263000Y-154000D01*
X262000Y-156000D01*
X263000Y-158000D01*
X261000Y-157000D01*
X259000Y-158000D01*
X259800Y-157200D02*
X260400Y-156000D01*
X259800Y-154800D01*
X261000Y-155400D01*
X262200Y-154800D01*
X261600Y-156000D01*
X262200Y-157200D01*
X261000Y-156600D01*
X259800Y-157200D01*
X273000Y-152000D02*
X274000Y-150000D01*
X273000Y-148000D01*
X275000Y-149000D01*
X277000Y-148000D01*
X276000Y-150000D01*
X277000Y-152000D01*
X275000Y-151000D01*
X273000Y-152000D01*
X273800Y-151200D02*
X274400Y-150000D01*
X273800Y-148800D01*
X275000Y-149400D01*
X276200Y-148800D01*
X275600Y-150000D01*
X276200Y-151200D01*
X275000Y-150600D01*
X273800Y-151200D01*
X113000Y-112000D02*
X114000Y-110000D01*
X113000Y-108000D01*
X115000Y-109000D01*
X117000Y-108000D01*
X116000Y-110000D01*
X117000Y-112000D01*
X115000Y-111000D01*
X113000Y-112000D01*
X113800Y-111200D02*
X114400Y-110000D01*
X113800Y-108800D01*
X115000Y-109400D01*
X116200Y-108800D01*
X115600Y-110000D01*
X116200Y-111200D01*
X115000Y-110600D01*
X113800Y-111200D01*
X113000Y-127000D02*
X114000Y-125000D01*
X113000Y-123000D01*
X115000Y-124000D01*
X117000Y-123000D01*
X116000Y-125000D01*
X117000Y-127000D01*
X115000Y-126000D01*
X113000Y-127000D01*
X113800Y-126200D02*
X114400Y-125000D01*
X113800Y-123800D01*
X115000Y-124400D01*
X116200Y-123800D01*
X115600Y-125000D01*
X116200Y-126200D01*
X115000Y-125600D01*
X113800Y-126200D01*
X138000Y-69000D02*
X139000Y-67000D01*
X138000Y-65000D01*
X140000Y-66000D01*
X142000Y-65000D01*
X141000Y-67000D01*
X142000Y-69000D01*
X140000Y-68000D01*
X138000Y-69000D01*
X138800Y-68200D02*
X139400Y-67000D01*
X138800Y-65800D01*
X140000Y-66400D01*
X141200Y-65800D01*
X140600Y-67000D01*
X141200Y-68200D01*
X140000Y-67600D01*
X138800Y-68200D01*
X138000Y-83000D02*
X139000Y-81000D01*
X138000Y-79000D01*
X140000Y-80000D01*
X142000Y-79000D01*
X141000Y-81000D01*
X142000Y-83000D01*
X140000Y-82000D01*
X138000Y-83000D01*
X138800Y-82200D02*
X139400Y-81000D01*
X138800Y-79800D01*
X140000Y-80400D01*
X141200Y-79800D01*
X140600Y-81000D01*
X141200Y-82200D01*
X140000Y-81600D01*
X138800Y-82200D01*
X148000Y-62000D02*
X149000Y-60000D01*
X148000Y-58000D01*
X150000Y-59000D01*
X152000Y-58000D01*
X151000Y-60000D01*
X152000Y-62000D01*
X150000Y-61000D01*
X148000Y-62000D01*
X148800Y-61200D02*
X149400Y-60000D01*
X148800Y-58800D01*
X150000Y-59400D01*
X151200Y-58800D01*
X150600Y-60000D01*
X151200Y-61200D01*
X150000Y-60600D01*
X148800Y-61200D01*
X148000Y-75000D02*
X149000Y-73000D01*
X148000Y-71000D01*
X150000Y-72000D01*
X152000Y-71000D01*
X151000Y-73000D01*
X152000Y-75000D01*
X150000Y-74000D01*
X148000Y-75000D01*
X148800Y-74200D02*
X149400Y-73000D01*
X148800Y-71800D01*
X150000Y-72400D01*
X151200Y-71800D01*
X150600Y-73000D01*
X151200Y-74200D01*
X150000Y-73600D01*
X148800Y-74200D01*
X125000Y-73000D02*
X126000Y-71000D01*
X125000Y-69000D01*
X127000Y-70000D01*
X129000Y-69000D01*
X128000Y-71000D01*
X129000Y-73000D01*
X127000Y-72000D01*
X125000Y-73000D01*
X125800Y-72200D02*
X126400Y-71000D01*
X125800Y-69800D01*
X127000Y-70400D01*
X128200Y-69800D01*
X127600Y-71000D01*
X128200Y-72200D01*
X127000Y-71600D01*
X125800Y-72200D01*
X226000Y-79000D02*
X227000Y-77000D01*
X226000Y-75000D01*
X228000Y-76000D01*
X230000Y-75000D01*
X229000Y-77000D01*
X230000Y-79000D01*
X228000Y-78000D01*
X226000Y-79000D01*
X226800Y-78200D02*
X227400Y-77000D01*
X226800Y-75800D01*
X228000Y-76400D01*
X229200Y-75800D01*
X228600Y-77000D01*
X229200Y-78200D01*
X228000Y-77600D01*
X226800Y-78200D01*
X218000Y-97000D02*
X219000Y-95000D01*
X218000Y-93000D01*
X220000Y-94000D01*
X222000Y-93000D01*
X221000Y-95000D01*
X222000Y-97000D01*
X220000Y-96000D01*
X218000Y-97000D01*
X218800Y-96200D02*
X219400Y-95000D01*
X218800Y-93800D01*
X220000Y-94400D01*
X221200Y-93800D01*
X220600Y-95000D01*
X221200Y-96200D01*
X220000Y-95600D01*
X218800Y-96200D01*
X218000Y-105000D02*
X219000Y-103000D01*
X218000Y-101000D01*
X220000Y-102000D01*
X222000Y-101000D01*
X221000Y-103000D01*
X222000Y-105000D01*
X220000Y-104000D01*
X218000Y-105000D01*
X218800Y-104200D02*
X219400Y-103000D01*
X218800Y-101800D01*
X220000Y-102400D01*
X221200Y-101800D01*
X220600Y-103000D01*
X221200Y-104200D01*
X220000Y-103600D01*
X218800Y-104200D01*
X195000Y-157000D02*
X196000Y-155000D01*
X195000Y-153000D01*
X197000Y-154000D01*
X199000Y-153000D01*
X198000Y-155000D01*
X199000Y-157000D01*
X197000Y-156000D01*
X195000Y-157000D01*
X195800Y-156200D02*
X196400Y-155000D01*
X195800Y-153800D01*
X197000Y-154400D01*
X198200Y-153800D01*
X197600Y-155000D01*
X198200Y-156200D01*
X197000Y-155600D01*
X195800Y-156200D01*
X206000Y-157000D02*
X207000Y-155000D01*
X206000Y-153000D01*
X208000Y-154000D01*
X210000Y-153000D01*
X209000Y-155000D01*
X210000Y-157000D01*
X208000Y-156000D01*
X206000Y-157000D01*
X206800Y-156200D02*
X207400Y-155000D01*
X206800Y-153800D01*
X208000Y-154400D01*
X209200Y-153800D01*
X208600Y-155000D01*
X209200Y-156200D01*
X208000Y-155600D01*
X206800Y-156200D01*
X221000Y-160000D02*
X222000Y-158000D01*
X221000Y-156000D01*
X223000Y-157000D01*
X225000Y-156000D01*
X224000Y-158000D01*
X225000Y-160000D01*
X223000Y-159000D01*
X221000Y-160000D01*
X221800Y-159200D02*
X222400Y-158000D01*
X221800Y-156800D01*
X223000Y-157400D01*
X224200Y-156800D01*
X223600Y-158000D01*
X224200Y-159200D01*
X223000Y-158600D01*
X221800Y-159200D01*
X229000Y-157000D02*
X230000Y-155000D01*
X229000Y-153000D01*
X231000Y-154000D01*
X233000Y-153000D01*
X232000Y-155000D01*
X233000Y-157000D01*
X231000Y-156000D01*
X229000Y-157000D01*
X229800Y-156200D02*
X230400Y-155000D01*
X229800Y-153800D01*
X231000Y-154400D01*
X232200Y-153800D01*
X231600Y-155000D01*
X232200Y-156200D01*
X231000Y-155600D01*
X229800Y-156200D01*
X240000Y-159000D02*
X241000Y-157000D01*
X240000Y-155000D01*
X242000Y-156000D01*
X244000Y-155000D01*
X243000Y-157000D01*
X244000Y-159000D01*
X242000Y-158000D01*
X240000Y-159000D01*
X240800Y-158200D02*
X241400Y-157000D01*
X240800Y-155800D01*
X242000Y-156400D01*
X243200Y-155800D01*
X242600Y-157000D01*
X243200Y-158200D01*
X242000Y-157600D01*
X240800Y-158200D01*
X211000Y-139000D02*
X212000Y-137000D01*
X211000Y-135000D01*
X213000Y-136000D01*
X215000Y-135000D01*
X214000Y-137000D01*
X215000Y-139000D01*
X213000Y-138000D01*
X211000Y-139000D01*
X211800Y-138200D02*
X212400Y-137000D01*
X211800Y-135800D01*
X213000Y-136400D01*
X214200Y-135800D01*
X213600Y-137000D01*
X214200Y-138200D01*
X213000Y-137600D01*
X211800Y-138200D01*
X218000Y-139000D02*
X219000Y-137000D01*
X218000Y-135000D01*
X220000Y-136000D01*
X222000Y-135000D01*
X221000Y-137000D01*
X222000Y-139000D01*
X220000Y-138000D01*
X218000Y-139000D01*
X218800Y-138200D02*
X219400Y-137000D01*
X218800Y-135800D01*
X220000Y-136400D01*
X221200Y-135800D01*
X220600Y-137000D01*
X221200Y-138200D01*
X220000Y-137600D01*
X218800Y-138200D01*
X201000Y-141000D02*
X202000Y-139000D01*
X201000Y-137000D01*
X203000Y-138000D01*
X205000Y-137000D01*
X204000Y-139000D01*
X205000Y-141000D01*
X203000Y-140000D01*
X201000Y-141000D01*
X201800Y-140200D02*
X202400Y-139000D01*
X201800Y-137800D01*
X203000Y-138400D01*
X204200Y-137800D01*
X203600Y-139000D01*
X204200Y-140200D01*
X203000Y-139600D01*
X201800Y-140200D01*
X188000Y-142000D02*
X189000Y-140000D01*
X188000Y-138000D01*
X190000Y-139000D01*
X192000Y-138000D01*
X191000Y-140000D01*
X192000Y-142000D01*
X190000Y-141000D01*
X188000Y-142000D01*
X188800Y-141200D02*
X189400Y-140000D01*
X188800Y-138800D01*
X190000Y-139400D01*
X191200Y-138800D01*
X190600Y-140000D01*
X191200Y-141200D01*
X190000Y-140600D01*
X188800Y-141200D01*
X178000Y-142000D02*
X179000Y-140000D01*
X178000Y-138000D01*
X180000Y-139000D01*
X182000Y-138000D01*
X181000Y-140000D01*
X182000Y-142000D01*
X180000Y-141000D01*
X178000Y-142000D01*
X178800Y-141200D02*
X179400Y-140000D01*
X178800Y-138800D01*
X180000Y-139400D01*
X181200Y-138800D01*
X180600Y-140000D01*
X181200Y-141200D01*
X180000Y-140600D01*
X178800Y-141200D01*
X168000Y-142000D02*
X169000Y-140000D01*
X168000Y-138000D01*
X170000Y-139000D01*
X172000Y-138000D01*
X171000Y-140000D01*
X172000Y-142000D01*
X170000Y-141000D01*
X168000Y-142000D01*
X168800Y-141200D02*
X169400Y-140000D01*
X168800Y-138800D01*
X170000Y-139400D01*
X171200Y-138800D01*
X170600Y-140000D01*
X171200Y-141200D01*
X170000Y-140600D01*
X168800Y-141200D01*
X188000Y-130000D02*
X189000Y-128000D01*
X188000Y-126000D01*
X190000Y-127000D01*
X192000Y-126000D01*
X191000Y-128000D01*
X192000Y-130000D01*
X190000Y-129000D01*
X188000Y-130000D01*
X188800Y-129200D02*
X189400Y-128000D01*
X188800Y-126800D01*
X190000Y-127400D01*
X191200Y-126800D01*
X190600Y-128000D01*
X191200Y-129200D01*
X190000Y-128600D01*
X188800Y-129200D01*
X203000Y-130000D02*
X204000Y-128000D01*
X203000Y-126000D01*
X205000Y-127000D01*
X207000Y-126000D01*
X206000Y-128000D01*
X207000Y-130000D01*
X205000Y-129000D01*
X203000Y-130000D01*
X203800Y-129200D02*
X204400Y-128000D01*
X203800Y-126800D01*
X205000Y-127400D01*
X206200Y-126800D01*
X205600Y-128000D01*
X206200Y-129200D01*
X205000Y-128600D01*
X203800Y-129200D01*
X188000Y-121000D02*
X189000Y-119000D01*
X188000Y-117000D01*
X190000Y-118000D01*
X192000Y-117000D01*
X191000Y-119000D01*
X192000Y-121000D01*
X190000Y-120000D01*
X188000Y-121000D01*
X188800Y-120200D02*
X189400Y-119000D01*
X188800Y-117800D01*
X190000Y-118400D01*
X191200Y-117800D01*
X190600Y-119000D01*
X191200Y-120200D01*
X190000Y-119600D01*
X188800Y-120200D01*
X213000Y-449000D02*
X214000Y-447000D01*
X213000Y-445000D01*
X215000Y-446000D01*
X217000Y-445000D01*
X216000Y-447000D01*
X217000Y-449000D01*
X215000Y-448000D01*
X213000Y-449000D01*
X213800Y-448200D02*
X214400Y-447000D01*
X213800Y-445800D01*
X215000Y-446400D01*
X216200Y-445800D01*
X215600Y-447000D01*
X216200Y-448200D01*
X215000Y-447600D01*
X213800Y-448200D01*
X54000Y-182000D02*
X55000Y-180000D01*
X54000Y-178000D01*
X56000Y-179000D01*
X58000Y-178000D01*
X57000Y-180000D01*
X58000Y-182000D01*
X56000Y-181000D01*
X54000Y-182000D01*
X54800Y-181200D02*
X55400Y-180000D01*
X54800Y-178800D01*
X56000Y-179400D01*
X57200Y-178800D01*
X56600Y-180000D01*
X57200Y-181200D01*
X56000Y-180600D01*
X54800Y-181200D01*
X54000Y-189500D02*
X55000Y-187500D01*
X54000Y-185500D01*
X56000Y-186500D01*
X58000Y-185500D01*
X57000Y-187500D01*
X58000Y-189500D01*
X56000Y-188500D01*
X54000Y-189500D01*
X54800Y-188700D02*
X55400Y-187500D01*
X54800Y-186300D01*
X56000Y-186900D01*
X57200Y-186300D01*
X56600Y-187500D01*
X57200Y-188700D01*
X56000Y-188100D01*
X54800Y-188700D01*
X115500Y-192000D02*
X116500Y-190000D01*
X115500Y-188000D01*
X117500Y-189000D01*
X119500Y-188000D01*
X118500Y-190000D01*
X119500Y-192000D01*
X117500Y-191000D01*
X115500Y-192000D01*
X116300Y-191200D02*
X116900Y-190000D01*
X116300Y-188800D01*
X117500Y-189400D01*
X118700Y-188800D01*
X118100Y-190000D01*
X118700Y-191200D01*
X117500Y-190600D01*
X116300Y-191200D01*
X135500Y-172000D02*
X136500Y-170000D01*
X135500Y-168000D01*
X137500Y-169000D01*
X139500Y-168000D01*
X138500Y-170000D01*
X139500Y-172000D01*
X137500Y-171000D01*
X135500Y-172000D01*
X136300Y-171200D02*
X136900Y-170000D01*
X136300Y-168800D01*
X137500Y-169400D01*
X138700Y-168800D01*
X138100Y-170000D01*
X138700Y-171200D01*
X137500Y-170600D01*
X136300Y-171200D01*
X206500Y-411000D02*
X207500Y-409000D01*
X206500Y-407000D01*
X208500Y-408000D01*
X210500Y-407000D01*
X209500Y-409000D01*
X210500Y-411000D01*
X208500Y-410000D01*
X206500Y-411000D01*
X207300Y-410200D02*
X207900Y-409000D01*
X207300Y-407800D01*
X208500Y-408400D01*
X209700Y-407800D01*
X209100Y-409000D01*
X209700Y-410200D01*
X208500Y-409600D01*
X207300Y-410200D01*
X222500Y-244000D02*
X223500Y-242000D01*
X222500Y-240000D01*
X224500Y-241000D01*
X226500Y-240000D01*
X225500Y-242000D01*
X226500Y-244000D01*
X224500Y-243000D01*
X222500Y-244000D01*
X223300Y-243200D02*
X223900Y-242000D01*
X223300Y-240800D01*
X224500Y-241400D01*
X225700Y-240800D01*
X225100Y-242000D01*
X225700Y-243200D01*
X224500Y-242600D01*
X223300Y-243200D01*
X226500Y-232500D02*
X227500Y-230500D01*
X226500Y-228500D01*
X228500Y-229500D01*
X230500Y-228500D01*
X229500Y-230500D01*
X230500Y-232500D01*
X228500Y-231500D01*
X226500Y-232500D01*
X227300Y-231700D02*
X227900Y-230500D01*
X227300Y-229300D01*
X228500Y-229900D01*
X229700Y-229300D01*
X229100Y-230500D01*
X229700Y-231700D01*
X228500Y-231100D01*
X227300Y-231700D01*
X218500Y-220500D02*
X219500Y-218500D01*
X218500Y-216500D01*
X220500Y-217500D01*
X222500Y-216500D01*
X221500Y-218500D01*
X222500Y-220500D01*
X220500Y-219500D01*
X218500Y-220500D01*
X219300Y-219700D02*
X219900Y-218500D01*
X219300Y-217300D01*
X220500Y-217900D01*
X221700Y-217300D01*
X221100Y-218500D01*
X221700Y-219700D01*
X220500Y-219100D01*
X219300Y-219700D01*
X228000Y-472000D02*
X229000Y-470000D01*
X228000Y-468000D01*
X230000Y-469000D01*
X232000Y-468000D01*
X231000Y-470000D01*
X232000Y-472000D01*
X230000Y-471000D01*
X228000Y-472000D01*
X228800Y-471200D02*
X229400Y-470000D01*
X228800Y-468800D01*
X230000Y-469400D01*
X231200Y-468800D01*
X230600Y-470000D01*
X231200Y-471200D01*
X230000Y-470600D01*
X228800Y-471200D01*
X228000Y-477000D02*
X229000Y-475000D01*
X228000Y-473000D01*
X230000Y-474000D01*
X232000Y-473000D01*
X231000Y-475000D01*
X232000Y-477000D01*
X230000Y-476000D01*
X228000Y-477000D01*
X228800Y-476200D02*
X229400Y-475000D01*
X228800Y-473800D01*
X230000Y-474400D01*
X231200Y-473800D01*
X230600Y-475000D01*
X231200Y-476200D01*
X230000Y-475600D01*
X228800Y-476200D01*
X268000Y-492000D02*
X269000Y-490000D01*
X268000Y-488000D01*
X270000Y-489000D01*
X272000Y-488000D01*
X271000Y-490000D01*
X272000Y-492000D01*
X270000Y-491000D01*
X268000Y-492000D01*
X268800Y-491200D02*
X269400Y-490000D01*
X268800Y-488800D01*
X270000Y-489400D01*
X271200Y-488800D01*
X270600Y-490000D01*
X271200Y-491200D01*
X270000Y-490600D01*
X268800Y-491200D01*
X280500Y-509500D02*
X281500Y-507500D01*
X280500Y-505500D01*
X282500Y-506500D01*
X284500Y-505500D01*
X283500Y-507500D01*
X284500Y-509500D01*
X282500Y-508500D01*
X280500Y-509500D01*
X281300Y-508700D02*
X281900Y-507500D01*
X281300Y-506300D01*
X282500Y-506900D01*
X283700Y-506300D01*
X283100Y-507500D01*
X283700Y-508700D01*
X282500Y-508100D01*
X281300Y-508700D01*
X261500Y-509500D02*
X262500Y-507500D01*
X261500Y-505500D01*
X263500Y-506500D01*
X265500Y-505500D01*
X264500Y-507500D01*
X265500Y-509500D01*
X263500Y-508500D01*
X261500Y-509500D01*
X262300Y-508700D02*
X262900Y-507500D01*
X262300Y-506300D01*
X263500Y-506900D01*
X264700Y-506300D01*
X264100Y-507500D01*
X264700Y-508700D01*
X263500Y-508100D01*
X262300Y-508700D01*
X286500Y-188500D02*
Y-189500D01*
X288500D01*
Y-188500D01*
X289500D01*
Y-186500D01*
X288500D01*
Y-185500D01*
X286500D01*
Y-186500D01*
X285500D01*
Y-188500D01*
X286500D01*
X286900Y-188100D02*
Y-188700D01*
X288100D01*
Y-188100D01*
X288700D01*
Y-186900D01*
X288100D01*
Y-186300D01*
X286900D01*
Y-186900D01*
X286300D01*
Y-188100D01*
X286900D01*
X64500Y-112000D02*
X65500Y-110000D01*
X64500Y-108000D01*
X66500Y-109000D01*
X68500Y-108000D01*
X67500Y-110000D01*
X68500Y-112000D01*
X66500Y-111000D01*
X64500Y-112000D01*
X65300Y-111200D02*
X65900Y-110000D01*
X65300Y-108800D01*
X66500Y-109400D01*
X67700Y-108800D01*
X67100Y-110000D01*
X67700Y-111200D01*
X66500Y-110600D01*
X65300Y-111200D01*
D11*
X302000Y-54937D02*
G03*
X302000Y-54937I-2000J0D01*
G01*
X203850Y-324941D02*
G03*
X203850Y-324941I-2000J0D01*
G01*
X153850Y-147500D02*
G03*
X153850Y-147500I-2000J0D01*
G01*
X163850D02*
G03*
X163850Y-147500I-2000J0D01*
G01*
X143850D02*
G03*
X143850Y-147500I-2000J0D01*
G01*
X173850D02*
G03*
X173850Y-147500I-2000J0D01*
G01*
X183850D02*
G03*
X183850Y-147500I-2000J0D01*
G01*
X193850D02*
G03*
X193850Y-147500I-2000J0D01*
G01*
X213850D02*
G03*
X213850Y-147500I-2000J0D01*
G01*
X223850D02*
G03*
X223850Y-147500I-2000J0D01*
G01*
X233850D02*
G03*
X233850Y-147500I-2000J0D01*
G01*
X203850D02*
G03*
X203850Y-147500I-2000J0D01*
G01*
X243850D02*
G03*
X243850Y-147500I-2000J0D01*
G01*
X253850D02*
G03*
X253850Y-147500I-2000J0D01*
G01*
Y-324941D02*
G03*
X253850Y-324941I-2000J0D01*
G01*
X243850D02*
G03*
X243850Y-324941I-2000J0D01*
G01*
X233850D02*
G03*
X233850Y-324941I-2000J0D01*
G01*
X223850D02*
G03*
X223850Y-324941I-2000J0D01*
G01*
X213850D02*
G03*
X213850Y-324941I-2000J0D01*
G01*
X193850D02*
G03*
X193850Y-324941I-2000J0D01*
G01*
X183850D02*
G03*
X183850Y-324941I-2000J0D01*
G01*
X173850D02*
G03*
X173850Y-324941I-2000J0D01*
G01*
X163850D02*
G03*
X163850Y-324941I-2000J0D01*
G01*
X153850D02*
G03*
X153850Y-324941I-2000J0D01*
G01*
X143850D02*
G03*
X143850Y-324941I-2000J0D01*
G01*
D12*
X203050D02*
G03*
X203050Y-324941I-1200J0D01*
G01*
X153050Y-147500D02*
G03*
X153050Y-147500I-1200J0D01*
G01*
X163050D02*
G03*
X163050Y-147500I-1200J0D01*
G01*
X143050D02*
G03*
X143050Y-147500I-1200J0D01*
G01*
X173050D02*
G03*
X173050Y-147500I-1200J0D01*
G01*
X183050D02*
G03*
X183050Y-147500I-1200J0D01*
G01*
X193050D02*
G03*
X193050Y-147500I-1200J0D01*
G01*
X213050D02*
G03*
X213050Y-147500I-1200J0D01*
G01*
X223050D02*
G03*
X223050Y-147500I-1200J0D01*
G01*
X233050D02*
G03*
X233050Y-147500I-1200J0D01*
G01*
X203050D02*
G03*
X203050Y-147500I-1200J0D01*
G01*
X243050D02*
G03*
X243050Y-147500I-1200J0D01*
G01*
X253050D02*
G03*
X253050Y-147500I-1200J0D01*
G01*
Y-324941D02*
G03*
X253050Y-324941I-1200J0D01*
G01*
X243050D02*
G03*
X243050Y-324941I-1200J0D01*
G01*
X233050D02*
G03*
X233050Y-324941I-1200J0D01*
G01*
X223050D02*
G03*
X223050Y-324941I-1200J0D01*
G01*
X213050D02*
G03*
X213050Y-324941I-1200J0D01*
G01*
X193050D02*
G03*
X193050Y-324941I-1200J0D01*
G01*
X183050D02*
G03*
X183050Y-324941I-1200J0D01*
G01*
X173050D02*
G03*
X173050Y-324941I-1200J0D01*
G01*
X163050D02*
G03*
X163050Y-324941I-1200J0D01*
G01*
X153050D02*
G03*
X153050Y-324941I-1200J0D01*
G01*
X143050D02*
G03*
X143050Y-324941I-1200J0D01*
G01*
M02*
