%FSLAX25Y25*%
%MOIN*%
G70*
G01*
G75*
G04 Layer_Color=8388736*
%ADD10R,0.10000X0.06000*%
%ADD11R,0.05500X0.04000*%
%ADD12R,0.05315X0.02756*%
%ADD13R,0.07087X0.02756*%
G04:AMPARAMS|DCode=14|XSize=74.8mil|YSize=129.92mil|CornerRadius=0mil|HoleSize=0mil|Usage=FLASHONLY|Rotation=90.000|XOffset=0mil|YOffset=0mil|HoleType=Round|Shape=Octagon|*
%AMOCTAGOND14*
4,1,8,-0.06496,-0.01870,-0.06496,0.01870,-0.04626,0.03740,0.04626,0.03740,0.06496,0.01870,0.06496,-0.01870,0.04626,-0.03740,-0.04626,-0.03740,-0.06496,-0.01870,0.0*
%
%ADD14OCTAGOND14*%

%ADD15R,0.03500X0.03000*%
%ADD16R,0.03000X0.03500*%
%ADD17R,0.04000X0.05500*%
%ADD18R,0.01000X0.06000*%
%ADD19R,0.06000X0.01000*%
%ADD20R,0.06000X0.01000*%
%ADD21R,0.01000X0.06000*%
%ADD22R,0.06000X0.01000*%
%ADD23R,0.01000X0.06000*%
%ADD24R,0.06000X0.01000*%
%ADD25R,0.01000X0.06000*%
%ADD26R,0.01000X0.06000*%
%ADD27R,0.06000X0.01000*%
%ADD28R,0.06000X0.01000*%
%ADD29R,0.01000X0.06000*%
%ADD30R,0.07480X0.04331*%
%ADD31R,0.07480X0.04331*%
G04:AMPARAMS|DCode=32|XSize=62.99mil|YSize=49.21mil|CornerRadius=0mil|HoleSize=0mil|Usage=FLASHONLY|Rotation=90.003|XOffset=0mil|YOffset=0mil|HoleType=Round|Shape=Rectangle|*
%AMROTATEDRECTD32*
4,1,4,0.02461,-0.03150,-0.02461,-0.03150,-0.02461,0.03150,0.02461,0.03150,0.02461,-0.03150,0.0*
%
%ADD32ROTATEDRECTD32*%

G04:AMPARAMS|DCode=33|XSize=62.99mil|YSize=49.21mil|CornerRadius=0mil|HoleSize=0mil|Usage=FLASHONLY|Rotation=90.003|XOffset=0mil|YOffset=0mil|HoleType=Round|Shape=Rectangle|*
%AMROTATEDRECTD33*
4,1,4,0.02461,-0.03150,-0.02461,-0.03150,-0.02461,0.03150,0.02461,0.03150,0.02461,-0.03150,0.0*
%
%ADD33ROTATEDRECTD33*%

G04:AMPARAMS|DCode=34|XSize=62.99mil|YSize=49.21mil|CornerRadius=0mil|HoleSize=0mil|Usage=FLASHONLY|Rotation=90.003|XOffset=0mil|YOffset=0mil|HoleType=Round|Shape=Rectangle|*
%AMROTATEDRECTD34*
4,1,4,0.02461,-0.03150,-0.02461,-0.03150,-0.02461,0.03150,0.02461,0.03150,0.02461,-0.03150,0.0*
%
%ADD34ROTATEDRECTD34*%

%ADD35R,0.02362X0.07284*%
%ADD36R,0.01496X0.07874*%
%ADD37R,0.01496X0.07874*%
%ADD38R,0.04724X0.02362*%
%ADD39R,0.07201X0.07874*%
%ADD40R,0.05000X0.05000*%
%ADD41R,0.05315X0.01575*%
%ADD42R,0.07087X0.05906*%
%ADD43R,0.05000X0.05000*%
%ADD44R,0.10000X0.07500*%
%ADD45R,0.13780X0.13780*%
%ADD46C,0.31496*%
%ADD47C,0.01500*%
%ADD48C,0.01000*%
%ADD49C,0.02000*%
%ADD50C,0.03000*%
%ADD51C,0.01200*%
%ADD52C,0.05906*%
%ADD53O,0.16535X0.07874*%
%ADD54O,0.15748X0.07874*%
%ADD55O,0.07874X0.15748*%
%ADD56C,0.06654*%
%ADD57R,0.06654X0.06654*%
%ADD58C,0.18740*%
%ADD59C,0.09449*%
%ADD60R,0.09449X0.09449*%
%ADD61R,0.05906X0.05906*%
%ADD62R,0.05906X0.05906*%
%ADD63C,0.06000*%
%ADD64C,0.06200*%
%ADD65R,0.06000X0.06000*%
%ADD66O,0.09055X0.05512*%
%ADD67C,0.05118*%
%ADD68C,0.02000*%
%ADD69C,0.03000*%
%ADD70R,0.11000X0.06000*%
%ADD71R,0.06000X0.11000*%
%ADD72R,0.01700X0.07100*%
%ADD73R,0.05000X0.08700*%
%ADD74R,0.05000X0.04000*%
%ADD75R,0.05000X0.03598*%
%ADD76C,0.10000*%
%ADD77C,0.00787*%
%ADD78C,0.00100*%
%ADD79C,0.00800*%
%ADD80C,0.01969*%
%ADD81C,0.01600*%
%ADD82C,0.00900*%
%ADD83C,0.00591*%
%ADD84C,0.00600*%
%ADD85R,0.05000X0.00400*%
%ADD86R,0.00400X0.05000*%
%ADD87R,0.10800X0.06800*%
%ADD88R,0.06300X0.04800*%
%ADD89R,0.06115X0.03556*%
%ADD90R,0.07887X0.03556*%
G04:AMPARAMS|DCode=91|XSize=82.8mil|YSize=137.92mil|CornerRadius=0mil|HoleSize=0mil|Usage=FLASHONLY|Rotation=90.000|XOffset=0mil|YOffset=0mil|HoleType=Round|Shape=Octagon|*
%AMOCTAGOND91*
4,1,8,-0.06896,-0.02070,-0.06896,0.02070,-0.04826,0.04140,0.04826,0.04140,0.06896,0.02070,0.06896,-0.02070,0.04826,-0.04140,-0.04826,-0.04140,-0.06896,-0.02070,0.0*
%
%ADD91OCTAGOND91*%

%ADD92R,0.04300X0.03800*%
%ADD93R,0.03800X0.04300*%
%ADD94R,0.04800X0.06300*%
%ADD95R,0.01800X0.06800*%
%ADD96R,0.06800X0.01800*%
%ADD97R,0.06800X0.01800*%
%ADD98R,0.01800X0.06800*%
%ADD99R,0.06800X0.01800*%
%ADD100R,0.01800X0.06800*%
%ADD101R,0.06800X0.01800*%
%ADD102R,0.01800X0.06800*%
%ADD103R,0.01800X0.06800*%
%ADD104R,0.06800X0.01800*%
%ADD105R,0.06800X0.01800*%
%ADD106R,0.01800X0.06800*%
%ADD107R,0.08280X0.05131*%
%ADD108R,0.08280X0.05131*%
G04:AMPARAMS|DCode=109|XSize=70.99mil|YSize=57.21mil|CornerRadius=0mil|HoleSize=0mil|Usage=FLASHONLY|Rotation=90.003|XOffset=0mil|YOffset=0mil|HoleType=Round|Shape=Rectangle|*
%AMROTATEDRECTD109*
4,1,4,0.02861,-0.03550,-0.02861,-0.03550,-0.02861,0.03550,0.02861,0.03550,0.02861,-0.03550,0.0*
%
%ADD109ROTATEDRECTD109*%

G04:AMPARAMS|DCode=110|XSize=70.99mil|YSize=57.21mil|CornerRadius=0mil|HoleSize=0mil|Usage=FLASHONLY|Rotation=90.003|XOffset=0mil|YOffset=0mil|HoleType=Round|Shape=Rectangle|*
%AMROTATEDRECTD110*
4,1,4,0.02861,-0.03550,-0.02861,-0.03550,-0.02861,0.03550,0.02861,0.03550,0.02861,-0.03550,0.0*
%
%ADD110ROTATEDRECTD110*%

G04:AMPARAMS|DCode=111|XSize=70.99mil|YSize=57.21mil|CornerRadius=0mil|HoleSize=0mil|Usage=FLASHONLY|Rotation=90.003|XOffset=0mil|YOffset=0mil|HoleType=Round|Shape=Rectangle|*
%AMROTATEDRECTD111*
4,1,4,0.02861,-0.03550,-0.02861,-0.03550,-0.02861,0.03550,0.02861,0.03550,0.02861,-0.03550,0.0*
%
%ADD111ROTATEDRECTD111*%

%ADD112R,0.03162X0.08083*%
%ADD113R,0.02296X0.08674*%
%ADD114R,0.02296X0.08674*%
%ADD115R,0.05524X0.03162*%
%ADD116R,0.08001X0.08674*%
%ADD117R,0.05800X0.05800*%
%ADD118R,0.06115X0.02375*%
%ADD119R,0.07887X0.06706*%
%ADD120R,0.05800X0.05800*%
%ADD121R,0.10800X0.08300*%
%ADD122R,0.14579X0.14579*%
%ADD123C,0.32296*%
%ADD124C,0.06706*%
%ADD125O,0.17335X0.08674*%
%ADD126O,0.16548X0.08674*%
%ADD127O,0.08674X0.16548*%
%ADD128C,0.07453*%
%ADD129R,0.07453X0.07453*%
%ADD130C,0.19540*%
%ADD131C,0.10249*%
%ADD132R,0.10249X0.10249*%
%ADD133R,0.06706X0.06706*%
%ADD134R,0.06706X0.06706*%
%ADD135C,0.06800*%
%ADD136C,0.07000*%
%ADD137R,0.06800X0.06800*%
%ADD138O,0.09855X0.06312*%
%ADD139C,0.05918*%
D68*
X345000Y-210000D02*
D03*
X300000Y-125000D02*
D03*
Y-225000D02*
D03*
X265000Y-215000D02*
D03*
X200000Y-250000D02*
D03*
Y-230000D02*
D03*
X142500Y-237500D02*
D03*
X132500D02*
D03*
X120000Y-260000D02*
D03*
X115000Y-245000D02*
D03*
X310000Y-480000D02*
D03*
X330000Y-460000D02*
D03*
X345000Y-370000D02*
D03*
X360000Y-350000D02*
D03*
X277500Y-415000D02*
D03*
X275500Y-500000D02*
D03*
X121000D02*
D03*
X300000Y-480000D02*
D03*
X333500Y-415000D02*
D03*
X295000Y-140000D02*
D03*
X327500Y-290500D02*
D03*
X320000Y-315500D02*
D03*
X318500Y-313000D02*
D03*
X325000Y-310500D02*
D03*
X318500Y-308000D02*
D03*
X325000Y-273000D02*
D03*
X327500Y-270500D02*
D03*
X325000Y-268000D02*
D03*
Y-240500D02*
D03*
X318500Y-243500D02*
D03*
X243500Y-274000D02*
D03*
X220000Y-271000D02*
D03*
X297500Y-355000D02*
D03*
X295000Y-362500D02*
D03*
X292500Y-360000D02*
D03*
X290000Y-367500D02*
D03*
X287500Y-372500D02*
D03*
X243500Y-431500D02*
D03*
X245000Y-475000D02*
D03*
X320000Y-332500D02*
D03*
X317500Y-335000D02*
D03*
X315000Y-337500D02*
D03*
X312500Y-345000D02*
D03*
X310000Y-342500D02*
D03*
X307500Y-345000D02*
D03*
X305000Y-347500D02*
D03*
X302500Y-350000D02*
D03*
X300000Y-380000D02*
D03*
X285000Y-252500D02*
D03*
X71000Y-199000D02*
D03*
X57500Y-312500D02*
D03*
X55000Y-315000D02*
D03*
X60000Y-310000D02*
D03*
X65000D02*
D03*
X50000Y-320000D02*
D03*
X57500Y-367500D02*
D03*
X118500Y-462500D02*
D03*
X152500Y-451000D02*
D03*
X130000Y-456000D02*
D03*
X125000Y-455000D02*
D03*
X122500Y-457500D02*
D03*
Y-465000D02*
D03*
X155000Y-448500D02*
D03*
X293500Y-438500D02*
D03*
X46000Y-243500D02*
D03*
X55000Y-365000D02*
D03*
X50000Y-432500D02*
D03*
X52500Y-430000D02*
D03*
Y-417500D02*
D03*
X232500Y-477500D02*
D03*
X287500Y-394000D02*
D03*
X265000D02*
D03*
X110000Y-507500D02*
D03*
X137500D02*
D03*
X205000Y-490000D02*
D03*
X192500D02*
D03*
X50000Y-365000D02*
D03*
X102500Y-402500D02*
D03*
X235000Y-460000D02*
D03*
X237500Y-457500D02*
D03*
X240000Y-455000D02*
D03*
X242500Y-452500D02*
D03*
X207500Y-460000D02*
D03*
X210000Y-457500D02*
D03*
X212500Y-455000D02*
D03*
X215000Y-452500D02*
D03*
X230000Y-465000D02*
D03*
X232500Y-462500D02*
D03*
X226000Y-467500D02*
D03*
X192500Y-470000D02*
D03*
X180000Y-460000D02*
D03*
X186500Y-467500D02*
D03*
X46000Y-249500D02*
D03*
Y-273500D02*
D03*
Y-279500D02*
D03*
Y-303500D02*
D03*
Y-291500D02*
D03*
Y-285500D02*
D03*
Y-297500D02*
D03*
Y-309500D02*
D03*
X52500Y-317500D02*
D03*
X46000Y-267500D02*
D03*
Y-261591D02*
D03*
X137500Y-270000D02*
D03*
X134500Y-272500D02*
D03*
X148000Y-256500D02*
D03*
X134500D02*
D03*
X182500Y-457500D02*
D03*
X171421Y-438579D02*
D03*
X122500Y-445000D02*
D03*
X120000Y-447500D02*
D03*
X122500Y-450000D02*
D03*
X120000Y-452500D02*
D03*
X115000Y-442500D02*
D03*
X112500Y-392500D02*
D03*
X107500Y-437500D02*
D03*
X105000Y-405500D02*
D03*
X110000Y-390000D02*
D03*
X107500Y-392500D02*
D03*
X105000Y-390000D02*
D03*
X102500Y-392500D02*
D03*
X100000Y-390000D02*
D03*
X97500Y-392500D02*
D03*
X95000Y-390000D02*
D03*
X110000Y-427500D02*
D03*
X97500Y-425000D02*
D03*
X95000Y-427500D02*
D03*
X92500Y-392500D02*
D03*
X90000Y-390000D02*
D03*
X80000Y-416000D02*
D03*
Y-385000D02*
D03*
X87500Y-392500D02*
D03*
X60000Y-370000D02*
D03*
X62500Y-372500D02*
D03*
X65000Y-375000D02*
D03*
X67500Y-377500D02*
D03*
X70000Y-380000D02*
D03*
X75000D02*
D03*
X77500Y-382500D02*
D03*
X85000Y-390000D02*
D03*
X82500Y-387500D02*
D03*
X87500Y-412500D02*
D03*
X85000Y-410000D02*
D03*
X82500Y-397500D02*
D03*
X75000Y-410000D02*
D03*
X77500Y-412500D02*
D03*
X127500Y-417500D02*
D03*
X226500Y-450000D02*
D03*
X228000Y-431500D02*
D03*
X236000Y-447500D02*
D03*
X238500Y-445000D02*
D03*
X175000Y-88000D02*
D03*
X187000Y-99000D02*
D03*
X190000Y-96000D02*
D03*
X122500Y-91000D02*
D03*
X182000Y-93500D02*
D03*
X179000Y-91000D02*
D03*
X136500Y-87500D02*
D03*
X127500Y-91000D02*
D03*
X162201Y-413224D02*
D03*
Y-416724D02*
D03*
Y-407724D02*
D03*
X167701Y-393724D02*
D03*
X162201Y-422724D02*
D03*
X181201Y-437724D02*
D03*
X208201Y-396724D02*
D03*
Y-403224D02*
D03*
Y-421724D02*
D03*
Y-425724D02*
D03*
X185201Y-391724D02*
D03*
X203201D02*
D03*
X164201Y-436224D02*
D03*
Y-395724D02*
D03*
X28000Y-62000D02*
D03*
Y-66000D02*
D03*
X48500Y-48000D02*
D03*
X51000D02*
D03*
X35500Y-110000D02*
D03*
X61000D02*
D03*
X56500Y-92000D02*
D03*
X39500Y-92500D02*
D03*
Y-96000D02*
D03*
X59000Y-82500D02*
D03*
X71000Y-91500D02*
D03*
X79500D02*
D03*
X75500D02*
D03*
X79500Y-75500D02*
D03*
X29500Y-111000D02*
D03*
X77500Y-112500D02*
D03*
Y-42500D02*
D03*
X80000Y-60000D02*
D03*
X90000D02*
D03*
Y-80000D02*
D03*
Y-100000D02*
D03*
Y-120000D02*
D03*
X5000Y-87500D02*
D03*
Y-110000D02*
D03*
Y-130000D02*
D03*
X50000Y-120000D02*
D03*
X67000Y-89000D02*
D03*
X64500Y-91000D02*
D03*
X76000Y-79500D02*
D03*
X77500Y-85000D02*
D03*
X5000Y-42500D02*
D03*
X25000D02*
D03*
X45000D02*
D03*
X52500D02*
D03*
X45000Y-73000D02*
D03*
Y-79000D02*
D03*
X22500Y-107500D02*
D03*
X34000Y-104000D02*
D03*
X43000Y-89000D02*
D03*
X62000Y-78000D02*
D03*
X175000Y-60000D02*
D03*
X203500Y-53500D02*
D03*
X35000Y-80000D02*
D03*
X23500D02*
D03*
X159500Y-350000D02*
D03*
X162000Y-345000D02*
D03*
X167000Y-357500D02*
D03*
X169500Y-342500D02*
D03*
X172000Y-347500D02*
D03*
X174500Y-355000D02*
D03*
X182000Y-345500D02*
D03*
X184500Y-362500D02*
D03*
X282500Y-255000D02*
D03*
X203500Y-359000D02*
D03*
X177000Y-360000D02*
D03*
X67500Y-307500D02*
D03*
X70000Y-305000D02*
D03*
X72500Y-302500D02*
D03*
X25000Y-475000D02*
D03*
Y-500000D02*
D03*
X50000D02*
D03*
Y-525000D02*
D03*
X75000D02*
D03*
Y-500000D02*
D03*
X175000Y-525000D02*
D03*
X200000D02*
D03*
X225000D02*
D03*
Y-500000D02*
D03*
X325000Y-525000D02*
D03*
Y-500000D02*
D03*
X350000D02*
D03*
X375000D02*
D03*
X350000Y-525000D02*
D03*
Y-475000D02*
D03*
X375000D02*
D03*
Y-450000D02*
D03*
X350000D02*
D03*
Y-425000D02*
D03*
X375000D02*
D03*
Y-400000D02*
D03*
Y-375000D02*
D03*
X45000Y-440000D02*
D03*
Y-455000D02*
D03*
X15000Y-330000D02*
D03*
Y-360000D02*
D03*
Y-185000D02*
D03*
Y-210000D02*
D03*
X45000D02*
D03*
Y-230000D02*
D03*
X105000Y-30000D02*
D03*
X115000Y-35000D02*
D03*
X175000Y-25000D02*
D03*
Y-50000D02*
D03*
X235000Y-25000D02*
D03*
Y-50000D02*
D03*
X205000Y-25000D02*
D03*
X250000Y-75000D02*
D03*
X275000D02*
D03*
X300000Y-10000D02*
D03*
X127500Y-180000D02*
D03*
X150000D02*
D03*
X175000D02*
D03*
X200000D02*
D03*
X225000D02*
D03*
X250000D02*
D03*
X150000Y-210000D02*
D03*
X175000D02*
D03*
X200000D02*
D03*
X150000Y-265000D02*
D03*
X175000D02*
D03*
X200000D02*
D03*
X125000Y-290000D02*
D03*
X150000D02*
D03*
X175000D02*
D03*
X200000D02*
D03*
X225000D02*
D03*
X250000Y-225000D02*
D03*
Y-250000D02*
D03*
Y-300000D02*
D03*
X265000Y-250000D02*
D03*
Y-275000D02*
D03*
X250000Y-270000D02*
D03*
X265000Y-315000D02*
D03*
X300000Y-250000D02*
D03*
X295000Y-260000D02*
D03*
X280000Y-180000D02*
D03*
X300000Y-200000D02*
D03*
X285000Y-205000D02*
D03*
X325000Y-195000D02*
D03*
Y-205000D02*
D03*
Y-215000D02*
D03*
X300000Y-150000D02*
D03*
Y-170000D02*
D03*
X170000Y-430000D02*
D03*
X176000Y-436500D02*
D03*
X202500Y-425000D02*
D03*
X195000Y-430000D02*
D03*
X187500Y-437500D02*
D03*
X205000Y-430000D02*
D03*
Y-437500D02*
D03*
X195000D02*
D03*
Y-415000D02*
D03*
X190000D02*
D03*
X185000D02*
D03*
Y-422500D02*
D03*
X190000D02*
D03*
X185000Y-427500D02*
D03*
X172500Y-392500D02*
D03*
X180000D02*
D03*
X175000Y-400000D02*
D03*
X182500D02*
D03*
X197500Y-392500D02*
D03*
X200000Y-397500D02*
D03*
X161500Y-430000D02*
D03*
X164000Y-401000D02*
D03*
X237500Y-406000D02*
D03*
X247500D02*
D03*
X257500D02*
D03*
X267500D02*
D03*
X240000Y-417500D02*
D03*
X270000Y-415000D02*
D03*
Y-422500D02*
D03*
X258500Y-428500D02*
D03*
X282500Y-421500D02*
D03*
X290000D02*
D03*
X284000Y-411000D02*
D03*
X272500Y-382500D02*
D03*
X277500Y-370000D02*
D03*
X285000Y-354000D02*
D03*
X265000Y-362500D02*
D03*
X245000D02*
D03*
X232500Y-375000D02*
D03*
X242500Y-387500D02*
D03*
X227500Y-390000D02*
D03*
X60000Y-440000D02*
D03*
X75000Y-455000D02*
D03*
Y-470000D02*
D03*
X60000Y-455000D02*
D03*
Y-470000D02*
D03*
X310000Y-410000D02*
D03*
Y-420000D02*
D03*
X350000Y-25000D02*
D03*
X380000Y-45000D02*
D03*
X340000Y-60000D02*
D03*
X315000Y-65000D02*
D03*
X275000Y-55000D02*
D03*
X250000D02*
D03*
X147500Y-112500D02*
D03*
X135000Y-125000D02*
D03*
X150000D02*
D03*
X200000Y-70000D02*
D03*
Y-85000D02*
D03*
Y-100000D02*
D03*
Y-115000D02*
D03*
X215000Y-125000D02*
D03*
X235000Y-135000D02*
D03*
X270000Y-115000D02*
D03*
Y-130000D02*
D03*
X245000Y-115000D02*
D03*
X310000Y-102500D02*
D03*
X335000Y-100000D02*
D03*
Y-125000D02*
D03*
Y-150000D02*
D03*
Y-175000D02*
D03*
X375000Y-150000D02*
D03*
Y-100000D02*
D03*
X380000Y-200000D02*
D03*
X360000Y-220000D02*
D03*
X300000Y-277500D02*
D03*
X295000Y-282500D02*
D03*
X347500Y-262500D02*
D03*
Y-277500D02*
D03*
X345000Y-330000D02*
D03*
X335000Y-380000D02*
D03*
Y-395000D02*
D03*
X327500Y-325000D02*
D03*
X326500Y-350000D02*
D03*
X337000Y-360000D02*
D03*
X309000Y-385000D02*
D03*
X297000Y-410000D02*
D03*
X310000Y-438000D02*
D03*
X287000Y-442000D02*
D03*
X160000Y-494000D02*
D03*
X170000D02*
D03*
X180000D02*
D03*
X95000Y-485000D02*
D03*
X150000Y-445000D02*
D03*
X141000D02*
D03*
X131000D02*
D03*
X97000Y-431000D02*
D03*
X120000Y-370000D02*
D03*
Y-380000D02*
D03*
X154000Y-381000D02*
D03*
X146000Y-389000D02*
D03*
X120000Y-335000D02*
D03*
X130000D02*
D03*
X140000D02*
D03*
X150000D02*
D03*
X125000Y-321000D02*
D03*
X156000Y-320000D02*
D03*
X166000Y-318000D02*
D03*
X174000D02*
D03*
X135000Y-321000D02*
D03*
X185000Y-318000D02*
D03*
X195000Y-315000D02*
D03*
X203000Y-318000D02*
D03*
X208000Y-311000D02*
D03*
X214000Y-317000D02*
D03*
X218000Y-311000D02*
D03*
X224000Y-317000D02*
D03*
X228000Y-311000D02*
D03*
X234000Y-317000D02*
D03*
X238000Y-311000D02*
D03*
X244000Y-317000D02*
D03*
X48000Y-353000D02*
D03*
X39000Y-377000D02*
D03*
X261000Y-156000D02*
D03*
X275000Y-150000D02*
D03*
X115000Y-110000D02*
D03*
Y-125000D02*
D03*
X140000Y-67000D02*
D03*
Y-81000D02*
D03*
X150000Y-60000D02*
D03*
Y-73000D02*
D03*
X127000Y-71000D02*
D03*
X228000Y-77000D02*
D03*
X220000Y-95000D02*
D03*
Y-103000D02*
D03*
X197000Y-155000D02*
D03*
X208000D02*
D03*
X223000Y-158000D02*
D03*
X231000Y-155000D02*
D03*
X242000Y-157000D02*
D03*
X213000Y-137000D02*
D03*
X220000D02*
D03*
X203000Y-139000D02*
D03*
X190000Y-140000D02*
D03*
X180000D02*
D03*
X170000D02*
D03*
X190000Y-128000D02*
D03*
X205000D02*
D03*
X190000Y-119000D02*
D03*
X215000Y-447000D02*
D03*
X56000Y-180000D02*
D03*
Y-187500D02*
D03*
X117500Y-190000D02*
D03*
X137500Y-170000D02*
D03*
X208500Y-409000D02*
D03*
X224500Y-242000D02*
D03*
X228500Y-230500D02*
D03*
X220500Y-218500D02*
D03*
X230000Y-470000D02*
D03*
Y-475000D02*
D03*
X270000Y-490000D02*
D03*
X282500Y-507500D02*
D03*
X263500D02*
D03*
X66500Y-110000D02*
D03*
D69*
X28500Y-207500D02*
D03*
X385500Y-216500D02*
D03*
X287500Y-187500D02*
D03*
D87*
X328500Y-66000D02*
D03*
Y-79500D02*
D03*
X346000Y-36500D02*
D03*
Y-50000D02*
D03*
D88*
X66000Y-215500D02*
D03*
Y-223500D02*
D03*
X156500Y-91000D02*
D03*
Y-83000D02*
D03*
D89*
X355000Y-66689D02*
D03*
Y-78500D02*
D03*
D90*
X354114Y-72594D02*
D03*
D91*
X344075Y-72594D02*
D03*
D92*
X66000Y-230000D02*
D03*
Y-236500D02*
D03*
X177500Y-124500D02*
D03*
Y-118000D02*
D03*
X124000Y-52000D02*
D03*
Y-45500D02*
D03*
X130500D02*
D03*
Y-52000D02*
D03*
X137000D02*
D03*
Y-45500D02*
D03*
X111000Y-52000D02*
D03*
Y-45500D02*
D03*
X84000Y-102000D02*
D03*
Y-95500D02*
D03*
X71000Y-102000D02*
D03*
Y-95500D02*
D03*
X77500Y-102000D02*
D03*
Y-95500D02*
D03*
X275500Y-504929D02*
D03*
Y-511429D02*
D03*
X269500Y-504929D02*
D03*
Y-511429D02*
D03*
X120500Y-504929D02*
D03*
Y-511429D02*
D03*
X114500Y-504929D02*
D03*
Y-511429D02*
D03*
X311500Y-79500D02*
D03*
Y-73000D02*
D03*
X163000Y-63500D02*
D03*
Y-70000D02*
D03*
X171000Y-118000D02*
D03*
Y-124500D02*
D03*
X169500Y-70000D02*
D03*
Y-63500D02*
D03*
X117500Y-45500D02*
D03*
Y-52000D02*
D03*
X176000Y-63500D02*
D03*
Y-70000D02*
D03*
X164500Y-124500D02*
D03*
Y-118000D02*
D03*
X156500Y-106500D02*
D03*
Y-100000D02*
D03*
X275500Y-517429D02*
D03*
Y-523929D02*
D03*
X269500Y-517429D02*
D03*
Y-523929D02*
D03*
X120500Y-517429D02*
D03*
Y-523929D02*
D03*
X114500Y-517429D02*
D03*
Y-523929D02*
D03*
X263000Y-370000D02*
D03*
Y-376500D02*
D03*
X318000Y-79500D02*
D03*
Y-73000D02*
D03*
X356500Y-50000D02*
D03*
Y-43500D02*
D03*
X263000Y-389055D02*
D03*
Y-382555D02*
D03*
X377000Y-66500D02*
D03*
Y-60000D02*
D03*
D93*
X48000Y-85000D02*
D03*
X54500D02*
D03*
X29000Y-91000D02*
D03*
X35500D02*
D03*
X29000Y-98000D02*
D03*
X35500D02*
D03*
X370500Y-66500D02*
D03*
X364000D02*
D03*
X240500Y-393000D02*
D03*
X234000D02*
D03*
X364000Y-60000D02*
D03*
X370500D02*
D03*
X33000Y-68500D02*
D03*
X39500D02*
D03*
X33000Y-62000D02*
D03*
X39500D02*
D03*
X33000Y-55500D02*
D03*
X39500D02*
D03*
X360500Y-178000D02*
D03*
X354000D02*
D03*
X255500Y-416000D02*
D03*
X262000D02*
D03*
X255500Y-423000D02*
D03*
X262000D02*
D03*
D94*
X58000Y-73000D02*
D03*
X66000D02*
D03*
X57000Y-48000D02*
D03*
X65000D02*
D03*
D95*
X208823Y-384193D02*
D03*
X183232Y-384192D02*
D03*
X181264Y-445256D02*
D03*
X185201Y-384192D02*
D03*
X163547Y-445256D02*
D03*
X191106Y-445256D02*
D03*
X185201D02*
D03*
X181264Y-384192D02*
D03*
X202918Y-384193D02*
D03*
X200949Y-384192D02*
D03*
X183232Y-445256D02*
D03*
X208823Y-445256D02*
D03*
X163547Y-384193D02*
D03*
X200949Y-445256D02*
D03*
X202918Y-445256D02*
D03*
X198981Y-384193D02*
D03*
X191106Y-384192D02*
D03*
X177327D02*
D03*
Y-445256D02*
D03*
D96*
X154669Y-436378D02*
D03*
X215733Y-424567D02*
D03*
Y-404881D02*
D03*
Y-395039D02*
D03*
X215733Y-414724D02*
D03*
X154669Y-393071D02*
D03*
X215733Y-410787D02*
D03*
X154669D02*
D03*
X154669Y-434410D02*
D03*
Y-397007D02*
D03*
Y-438346D02*
D03*
X154669Y-414724D02*
D03*
X154669Y-432441D02*
D03*
Y-428504D02*
D03*
Y-391102D02*
D03*
D97*
X215733Y-393071D02*
D03*
X154669Y-402914D02*
D03*
X215733Y-416693D02*
D03*
X154669Y-420630D02*
D03*
Y-416693D02*
D03*
X215733Y-420630D02*
D03*
Y-412756D02*
D03*
X154669Y-422598D02*
D03*
X215733D02*
D03*
X215733Y-400945D02*
D03*
X215733Y-408819D02*
D03*
Y-406850D02*
D03*
Y-430472D02*
D03*
X215733Y-436378D02*
D03*
Y-434410D02*
D03*
Y-438346D02*
D03*
Y-432441D02*
D03*
Y-391102D02*
D03*
X154669Y-430472D02*
D03*
X215733Y-397007D02*
D03*
Y-428504D02*
D03*
X215733Y-426535D02*
D03*
Y-398976D02*
D03*
X154669D02*
D03*
Y-412756D02*
D03*
Y-418661D02*
D03*
Y-426535D02*
D03*
Y-406850D02*
D03*
Y-408819D02*
D03*
D98*
X161579Y-384193D02*
D03*
X189138Y-384192D02*
D03*
X167484Y-384193D02*
D03*
X161579Y-445256D02*
D03*
X195044D02*
D03*
X171421D02*
D03*
X167484D02*
D03*
X206855Y-384193D02*
D03*
X197012Y-445256D02*
D03*
X195044Y-384193D02*
D03*
X197012Y-384192D02*
D03*
X204886Y-445256D02*
D03*
X175358Y-384193D02*
D03*
X171421D02*
D03*
X206855Y-445256D02*
D03*
X189138Y-445256D02*
D03*
X175358Y-445256D02*
D03*
D99*
X215733Y-418661D02*
D03*
D100*
X187170Y-384192D02*
D03*
X193075D02*
D03*
X179295D02*
D03*
X169453D02*
D03*
X165516Y-384193D02*
D03*
X193075Y-445256D02*
D03*
X187170D02*
D03*
X179295D02*
D03*
X169453D02*
D03*
X173390D02*
D03*
D101*
X154669Y-404881D02*
D03*
X215733Y-402914D02*
D03*
X154669Y-424567D02*
D03*
D102*
X198981Y-445256D02*
D03*
D103*
X204886Y-384193D02*
D03*
X165516Y-445256D02*
D03*
D104*
X154669Y-395039D02*
D03*
D105*
Y-400945D02*
D03*
D106*
X173390Y-384192D02*
D03*
D107*
X247000Y-414634D02*
D03*
D108*
Y-424476D02*
D03*
D109*
X247858Y-386704D02*
D03*
X247858Y-372137D02*
D03*
D110*
X256519Y-372137D02*
D03*
D111*
X256519Y-386704D02*
D03*
D112*
X117500Y-85000D02*
D03*
X122500Y-85000D02*
D03*
X127500D02*
D03*
X132500D02*
D03*
X117500Y-63150D02*
D03*
X122500D02*
D03*
X127500D02*
D03*
X132500D02*
D03*
D113*
X188031Y-81016D02*
D03*
X182913D02*
D03*
X193150D02*
D03*
D114*
X190591D02*
D03*
X167559D02*
D03*
X170118D02*
D03*
X172677D02*
D03*
X177795D02*
D03*
X180354D02*
D03*
X165000Y-107000D02*
D03*
Y-81016D02*
D03*
X185472D02*
D03*
X180354Y-107000D02*
D03*
X182913D02*
D03*
X188031D02*
D03*
X190591D02*
D03*
X177795D02*
D03*
X167559D02*
D03*
X175236Y-81016D02*
D03*
X193150Y-107000D02*
D03*
X185472D02*
D03*
X170118D02*
D03*
X172677D02*
D03*
X175236D02*
D03*
D115*
X47972Y-57260D02*
D03*
Y-64740D02*
D03*
X57028D02*
D03*
Y-57260D02*
D03*
Y-61000D02*
D03*
D116*
X286142Y-533130D02*
D03*
Y-495728D02*
D03*
X303858Y-533130D02*
D03*
Y-495728D02*
D03*
X258858Y-495728D02*
D03*
Y-533130D02*
D03*
X241142Y-495728D02*
D03*
Y-533130D02*
D03*
X131142Y-533130D02*
D03*
Y-495728D02*
D03*
X148858Y-533130D02*
D03*
Y-495728D02*
D03*
X103858Y-495728D02*
D03*
Y-533130D02*
D03*
X86142Y-495728D02*
D03*
Y-533130D02*
D03*
X311358Y-392799D02*
D03*
Y-430201D02*
D03*
X293642Y-392799D02*
D03*
Y-430201D02*
D03*
D117*
X42000Y-48000D02*
D03*
X33000D02*
D03*
X13000Y-90500D02*
D03*
X22000D02*
D03*
X13000Y-98500D02*
D03*
X22000D02*
D03*
D118*
X20055Y-64500D02*
D03*
Y-69618D02*
D03*
Y-59382D02*
D03*
Y-61941D02*
D03*
Y-67059D02*
D03*
D119*
X9425Y-68437D02*
D03*
Y-60563D02*
D03*
D120*
X304000Y-71500D02*
D03*
Y-80500D02*
D03*
D121*
X327500Y-32500D02*
D03*
Y-50000D02*
D03*
D122*
X360500Y-98398D02*
D03*
Y-160602D02*
D03*
D123*
Y-129500D02*
D03*
D124*
X333000Y-345000D02*
D03*
Y-355000D02*
D03*
Y-195000D02*
D03*
X343000D02*
D03*
X20000Y-320590D02*
D03*
X10000D02*
D03*
X20000Y-310591D02*
D03*
X10000D02*
D03*
X20000Y-300590D02*
D03*
X10000D02*
D03*
X20000Y-290591D02*
D03*
X10000D02*
D03*
X20000Y-280591D02*
D03*
X10000D02*
D03*
X20000Y-270590D02*
D03*
X10000D02*
D03*
X20000Y-260591D02*
D03*
X10000D02*
D03*
X20000Y-250590D02*
D03*
X10000D02*
D03*
X20000Y-240591D02*
D03*
X10000D02*
D03*
X20000Y-230591D02*
D03*
X376142Y-320590D02*
D03*
X366142D02*
D03*
X376142Y-310591D02*
D03*
X366142D02*
D03*
X376142Y-300590D02*
D03*
X366142D02*
D03*
X376142Y-290591D02*
D03*
X366142D02*
D03*
X376142Y-280591D02*
D03*
X366142D02*
D03*
X376142Y-270590D02*
D03*
X366142D02*
D03*
X376142Y-260591D02*
D03*
X366142D02*
D03*
X376142Y-250590D02*
D03*
X366142D02*
D03*
X376142Y-240591D02*
D03*
X366142D02*
D03*
X376142Y-230591D02*
D03*
X20000Y-460000D02*
D03*
X10000D02*
D03*
X20000Y-450000D02*
D03*
X10000D02*
D03*
X20000Y-440000D02*
D03*
X10000D02*
D03*
X20000Y-430000D02*
D03*
X10000D02*
D03*
X20000Y-420000D02*
D03*
X10000D02*
D03*
X20000Y-410000D02*
D03*
X10000D02*
D03*
X20000Y-400000D02*
D03*
X10000D02*
D03*
X20000Y-390000D02*
D03*
X10000D02*
D03*
X20000Y-380000D02*
D03*
X10000D02*
D03*
X20000Y-370000D02*
D03*
X137500Y-100000D02*
D03*
X127500D02*
D03*
X255000Y-126000D02*
D03*
X245000D02*
D03*
X267000Y-447500D02*
D03*
Y-437500D02*
D03*
X277000Y-447500D02*
D03*
Y-437500D02*
D03*
X257000D02*
D03*
Y-447500D02*
D03*
X345000Y-15000D02*
D03*
D125*
X300000Y-54937D02*
D03*
D126*
Y-30528D02*
D03*
D127*
X280315Y-42339D02*
D03*
D128*
X228311Y-43492D02*
D03*
X222858Y-32311D02*
D03*
X217406Y-43492D02*
D03*
X211953Y-32311D02*
D03*
X206500Y-43492D02*
D03*
X201047Y-32311D02*
D03*
X195595Y-43492D02*
D03*
X190142Y-32311D02*
D03*
D129*
X184689Y-43492D02*
D03*
D130*
X157307Y-37902D02*
D03*
X255693D02*
D03*
D131*
X102500Y-18500D02*
D03*
D132*
X122500D02*
D03*
D133*
X10000Y-230591D02*
D03*
X366142D02*
D03*
X10000Y-370000D02*
D03*
D134*
X117500Y-100000D02*
D03*
X235000Y-126000D02*
D03*
X335000Y-15000D02*
D03*
D135*
X375000Y-175000D02*
D03*
X15000Y-340000D02*
D03*
X232500Y-365000D02*
D03*
X375000Y-350000D02*
D03*
X15000Y-490000D02*
D03*
Y-197500D02*
D03*
X265000Y-65000D02*
D03*
X13000Y-107000D02*
D03*
X127500Y-372500D02*
D03*
X215000Y-365000D02*
D03*
X335000Y-165500D02*
D03*
X147500Y-372500D02*
D03*
X137500D02*
D03*
X118500Y-419500D02*
D03*
X370500Y-76000D02*
D03*
X333000Y-367500D02*
D03*
X318500Y-97500D02*
D03*
X366500Y-50000D02*
D03*
X7500Y-125000D02*
D03*
X260000Y-97500D02*
D03*
X201850Y-324941D02*
D03*
X151850Y-147500D02*
D03*
X161850D02*
D03*
X141850D02*
D03*
X171850D02*
D03*
X181850D02*
D03*
X191850D02*
D03*
X211850D02*
D03*
X221850D02*
D03*
X231850D02*
D03*
X201850D02*
D03*
X241850D02*
D03*
X251850D02*
D03*
Y-324941D02*
D03*
X241850D02*
D03*
X231850D02*
D03*
X221850D02*
D03*
X211850D02*
D03*
X191850D02*
D03*
X181850D02*
D03*
X171850D02*
D03*
X161850D02*
D03*
X151850D02*
D03*
X275000Y-97500D02*
D03*
D136*
X223500Y-70500D02*
D03*
X233500D02*
D03*
X213500D02*
D03*
D137*
X250000Y-97500D02*
D03*
X141850Y-324941D02*
D03*
X285000Y-97500D02*
D03*
D138*
X9425Y-78280D02*
D03*
Y-50721D02*
D03*
D139*
X20055Y-74343D02*
D03*
Y-54658D02*
D03*
M02*
