M48
;Layer_Color=9474304
;FILE_FORMAT=2:5
INCH,TZ
;TYPE=PLATED
T1F00S00C0.01200
T2F00S00C0.02800
T3F00S00C0.03200
T4F00S00C0.03543
T5F00S00C0.03600
T7F00S00C0.04000
T8F00S00C0.04200
T9F00S00C0.05512
T10F00S00C0.05906
%
T01
X155000Y-290000
X163000
X155000Y-273000
Y-260000
X160000Y-250000
X150000
X151500Y-215000
X160000
X162500Y-205000
X172500
Y-215000
X190000
Y-205000
X205000
Y-215000
Y-230000
X225000Y-225000
Y-205000
X250000
Y-225000
X275000
Y-205000
Y-250000
Y-275000
Y-295000
X250000
Y-275000
X225000
Y-295000
X200000
X197500Y-262500
X195000Y-252500
X182000Y-237000
X152500Y-205000
X250000Y-250000
X143500Y-223500
X145000Y-215000
X143500Y-202500
X130000
X124000Y-193500
X135000Y-190000
X87500Y-197500
Y-215000
X65000
X70000Y-230000
X55000
X57500Y-247500
X75000Y-250000
Y-275000
Y-295000
X50000
Y-275000
X25000
X10000
Y-295000
X25000
X10000Y-250000
Y-225000
Y-200000
X50000Y-187500
X75000Y-205000
X90000Y-235000
X100000Y-250000
X115000
X100000Y-275000
Y-295000
X115000
X147000Y-290000
X45000Y-255000
X65000Y-177500
X85000Y-172500
X75000Y-160000
X80000Y-154500
X105000Y-160000
X117500Y-145500
X120500Y-148500
X125000Y-170000
Y-125000
X100000
X75000
Y-100000
Y-75000
X50000
Y-100000
Y-125000
X51500Y-142500
X10000Y-150000
Y-175000
Y-125000
Y-100000
Y-75000
X25000
X160000Y-85000
X175000Y-100000
Y-125000
X150000
X200000
X225000
Y-150000
Y-175000
X250000
Y-150000
Y-125000
X275000Y-150000
Y-175000
X300000Y-140000
X275000Y-100000
X235000Y-65000
X190000
X200000Y-100000
Y-25000
X225000
X275000
X182500Y-160000
X305000Y-100000
Y-75000
Y-50000
Y-25000
T02
X146815Y-168500
X166500
T03
X207000Y-239000
X225000Y-250000
X295500Y-210000
X25000Y-250000
Y-100000
X110000Y-172500
X225000Y-100000
X255000Y-97000
X205000Y-75000
T04
X170000Y-250000
X180000
X140000
X130000
X115000Y-220000
Y-210000
Y-200000
X100000
Y-210000
Y-220000
X80000Y-240000
X70000
Y-255000
X80000
X40000Y-222165
X30000
Y-212165
X40000
Y-202165
X30000
Y-192165
X40000
Y-182165
X30000
Y-172165
X40000
Y-162165
X30000
Y-152165
X40000
Y-142165
X30000
Y-132165
X40000
X92500Y-162500
Y-172500
X107500Y-90000
X117500
X132500
X142500
X232500Y-15000
X242500
X140000Y-20000
X130000
X120000
X110000
T05
X324000Y-25000
X384000
T07
X293000Y-122343
X293000Y-102657
X330827Y-135000
X345591Y-135000
X360355Y-135000
X360355Y-52323
X330827Y-52323
X445000Y-52323
X445000Y-135000
T08
X402000Y-26250
X430000Y-33750
T09
X165000Y-312500
X185000
X145000
X125000
T10
X425000Y-220000
Y-180000
M30
