%FSLAX25Y25*%
%MOIN*%
G70*
G01*
G75*
G04 Layer_Physical_Order=2*
G04 Layer_Color=16711680*
%ADD10R,0.04725X0.13779*%
%ADD11R,0.04725X0.13779*%
%ADD12R,0.06000X0.10000*%
%ADD13R,0.03500X0.03000*%
%ADD14R,0.05500X0.04000*%
%ADD15R,0.04000X0.05500*%
%ADD16R,0.06000X0.06000*%
%ADD17R,0.02756X0.05315*%
%ADD18R,0.02756X0.07087*%
G04:AMPARAMS|DCode=19|XSize=74.8mil|YSize=129.92mil|CornerRadius=0mil|HoleSize=0mil|Usage=FLASHONLY|Rotation=0.000|XOffset=0mil|YOffset=0mil|HoleType=Round|Shape=Octagon|*
%AMOCTAGOND19*
4,1,8,-0.01870,0.06496,0.01870,0.06496,0.03740,0.04626,0.03740,-0.04626,0.01870,-0.06496,-0.01870,-0.06496,-0.03740,-0.04626,-0.03740,0.04626,-0.01870,0.06496,0.0*
%
%ADD19OCTAGOND19*%

%ADD20R,0.01496X0.07874*%
%ADD21R,0.01496X0.07874*%
%ADD22O,0.06000X0.11024*%
%ADD23R,0.06000X0.11024*%
%ADD24R,0.17716X0.07874*%
%ADD25R,0.03000X0.03500*%
%ADD26R,0.10000X0.06000*%
%ADD27R,0.07500X0.10000*%
%ADD28C,0.04000*%
%ADD29C,0.01200*%
%ADD30C,0.02500*%
%ADD31C,0.02000*%
%ADD32C,0.01500*%
%ADD33C,0.05000*%
%ADD34C,0.03000*%
%ADD35C,0.08000*%
%ADD36C,0.05906*%
%ADD37R,0.05906X0.05906*%
%ADD38R,0.10236X0.10236*%
%ADD39C,0.10236*%
%ADD40R,0.05906X0.05906*%
%ADD41O,0.07874X0.15748*%
%ADD42O,0.15748X0.07874*%
%ADD43O,0.16535X0.07874*%
%ADD44C,0.06000*%
%ADD45R,0.05906X0.05906*%
%ADD46R,0.09449X0.09449*%
%ADD47C,0.09449*%
%ADD48C,0.06500*%
%ADD49C,0.02000*%
%ADD50R,0.05000X0.06000*%
G36*
X315000Y-5000D02*
Y-165000D01*
X305000Y-175000D01*
X295000D01*
X285000Y-185000D01*
Y-290000D01*
X275000Y-300000D01*
X5000D01*
X2039Y-297039D01*
Y-67961D01*
X5000Y-65000D01*
X180000D01*
X185000Y-60000D01*
Y-5000D01*
X187961Y-2039D01*
X312039D01*
X315000Y-5000D01*
D02*
G37*
%LPC*%
G36*
X30000Y-187674D02*
X28838Y-187827D01*
X27754Y-188276D01*
X26824Y-188990D01*
X26111Y-189920D01*
X25662Y-191003D01*
X25509Y-192165D01*
X25662Y-193328D01*
X26111Y-194411D01*
X26824Y-195341D01*
X27754Y-196055D01*
X28838Y-196503D01*
X30000Y-196657D01*
X31162Y-196503D01*
X32246Y-196055D01*
X33176Y-195341D01*
X33889Y-194411D01*
X34338Y-193328D01*
X34491Y-192165D01*
X34338Y-191003D01*
X33889Y-189920D01*
X33176Y-188990D01*
X32246Y-188276D01*
X31162Y-187827D01*
X30000Y-187674D01*
D02*
G37*
G36*
X40000Y-197674D02*
X38838Y-197827D01*
X37754Y-198276D01*
X36824Y-198990D01*
X36110Y-199920D01*
X35662Y-201003D01*
X35509Y-202165D01*
X35662Y-203328D01*
X36110Y-204411D01*
X36824Y-205341D01*
X37754Y-206055D01*
X38838Y-206504D01*
X40000Y-206657D01*
X41162Y-206504D01*
X42246Y-206055D01*
X43176Y-205341D01*
X43889Y-204411D01*
X44338Y-203328D01*
X44491Y-202165D01*
X44338Y-201003D01*
X43889Y-199920D01*
X43176Y-198990D01*
X42246Y-198276D01*
X41162Y-197827D01*
X40000Y-197674D01*
D02*
G37*
G36*
X30000D02*
X28838Y-197827D01*
X27754Y-198276D01*
X26824Y-198990D01*
X26111Y-199920D01*
X25662Y-201003D01*
X25509Y-202165D01*
X25662Y-203328D01*
X26111Y-204411D01*
X26824Y-205341D01*
X27754Y-206055D01*
X28838Y-206504D01*
X30000Y-206657D01*
X31162Y-206504D01*
X32246Y-206055D01*
X33176Y-205341D01*
X33889Y-204411D01*
X34338Y-203328D01*
X34491Y-202165D01*
X34338Y-201003D01*
X33889Y-199920D01*
X33176Y-198990D01*
X32246Y-198276D01*
X31162Y-197827D01*
X30000Y-197674D01*
D02*
G37*
G36*
X40000Y-187674D02*
X38838Y-187827D01*
X37754Y-188276D01*
X36824Y-188990D01*
X36110Y-189920D01*
X35662Y-191003D01*
X35509Y-192165D01*
X35662Y-193328D01*
X36110Y-194411D01*
X36824Y-195341D01*
X37754Y-196055D01*
X38838Y-196503D01*
X40000Y-196657D01*
X41162Y-196503D01*
X42246Y-196055D01*
X43176Y-195341D01*
X43889Y-194411D01*
X44338Y-193328D01*
X44491Y-192165D01*
X44338Y-191003D01*
X43889Y-189920D01*
X43176Y-188990D01*
X42246Y-188276D01*
X41162Y-187827D01*
X40000Y-187674D01*
D02*
G37*
G36*
X146815Y-163961D02*
X145640Y-164116D01*
X144545Y-164569D01*
X143605Y-165291D01*
X142884Y-166231D01*
X142431Y-167325D01*
X142276Y-168500D01*
X142431Y-169675D01*
X142884Y-170769D01*
X143605Y-171709D01*
X144545Y-172431D01*
X145640Y-172884D01*
X146815Y-173039D01*
X147990Y-172884D01*
X149084Y-172431D01*
X150024Y-171709D01*
X150746Y-170769D01*
X151199Y-169675D01*
X151354Y-168500D01*
X151199Y-167325D01*
X150746Y-166231D01*
X150024Y-165291D01*
X149084Y-164569D01*
X147990Y-164116D01*
X146815Y-163961D01*
D02*
G37*
G36*
X40000Y-177674D02*
X38838Y-177827D01*
X37754Y-178276D01*
X36824Y-178990D01*
X36110Y-179920D01*
X35662Y-181003D01*
X35509Y-182165D01*
X35662Y-183328D01*
X36110Y-184411D01*
X36824Y-185341D01*
X37754Y-186055D01*
X38838Y-186504D01*
X40000Y-186656D01*
X41162Y-186504D01*
X42246Y-186055D01*
X43176Y-185341D01*
X43889Y-184411D01*
X44338Y-183328D01*
X44491Y-182165D01*
X44338Y-181003D01*
X43889Y-179920D01*
X43176Y-178990D01*
X42246Y-178276D01*
X41162Y-177827D01*
X40000Y-177674D01*
D02*
G37*
G36*
X30000D02*
X28838Y-177827D01*
X27754Y-178276D01*
X26824Y-178990D01*
X26111Y-179920D01*
X25662Y-181003D01*
X25509Y-182165D01*
X25662Y-183328D01*
X26111Y-184411D01*
X26824Y-185341D01*
X27754Y-186055D01*
X28838Y-186504D01*
X30000Y-186656D01*
X31162Y-186504D01*
X32246Y-186055D01*
X33176Y-185341D01*
X33889Y-184411D01*
X34338Y-183328D01*
X34491Y-182165D01*
X34338Y-181003D01*
X33889Y-179920D01*
X33176Y-178990D01*
X32246Y-178276D01*
X31162Y-177827D01*
X30000Y-177674D01*
D02*
G37*
G36*
X180000Y-245509D02*
X178838Y-245662D01*
X177754Y-246111D01*
X176824Y-246824D01*
X176110Y-247754D01*
X175662Y-248838D01*
X175509Y-250000D01*
X175662Y-251162D01*
X176110Y-252246D01*
X176824Y-253176D01*
X177754Y-253889D01*
X178838Y-254338D01*
X180000Y-254491D01*
X181162Y-254338D01*
X182246Y-253889D01*
X183176Y-253176D01*
X183889Y-252246D01*
X184338Y-251162D01*
X184491Y-250000D01*
X184338Y-248838D01*
X183889Y-247754D01*
X183176Y-246824D01*
X182246Y-246111D01*
X181162Y-245662D01*
X180000Y-245509D01*
D02*
G37*
G36*
X140000D02*
X138838Y-245662D01*
X137754Y-246111D01*
X136824Y-246824D01*
X136110Y-247754D01*
X135662Y-248838D01*
X135509Y-250000D01*
X135662Y-251162D01*
X136110Y-252246D01*
X136824Y-253176D01*
X137754Y-253889D01*
X138838Y-254338D01*
X140000Y-254491D01*
X141162Y-254338D01*
X142246Y-253889D01*
X143176Y-253176D01*
X143889Y-252246D01*
X144338Y-251162D01*
X144491Y-250000D01*
X144338Y-248838D01*
X143889Y-247754D01*
X143176Y-246824D01*
X142246Y-246111D01*
X141162Y-245662D01*
X140000Y-245509D01*
D02*
G37*
G36*
X80000Y-250509D02*
X78838Y-250662D01*
X77754Y-251111D01*
X76824Y-251824D01*
X76111Y-252754D01*
X75662Y-253838D01*
X75509Y-255000D01*
X75662Y-256162D01*
X76111Y-257246D01*
X76824Y-258176D01*
X77754Y-258890D01*
X78838Y-259338D01*
X80000Y-259491D01*
X81162Y-259338D01*
X82246Y-258890D01*
X83176Y-258176D01*
X83890Y-257246D01*
X84338Y-256162D01*
X84491Y-255000D01*
X84338Y-253838D01*
X83890Y-252754D01*
X83176Y-251824D01*
X82246Y-251111D01*
X81162Y-250662D01*
X80000Y-250509D01*
D02*
G37*
G36*
X134453Y-245547D02*
X125547D01*
Y-254453D01*
X134453D01*
Y-245547D01*
D02*
G37*
G36*
X40000Y-207674D02*
X38838Y-207827D01*
X37754Y-208276D01*
X36824Y-208990D01*
X36110Y-209920D01*
X35662Y-211003D01*
X35509Y-212165D01*
X35662Y-213328D01*
X36110Y-214411D01*
X36619Y-215073D01*
X36277Y-215438D01*
X35654Y-215022D01*
X34835Y-214859D01*
X34110D01*
X33889Y-214411D01*
X34338Y-213328D01*
X34491Y-212165D01*
X34338Y-211003D01*
X33889Y-209920D01*
X33176Y-208990D01*
X32246Y-208276D01*
X31162Y-207827D01*
X30000Y-207674D01*
X28838Y-207827D01*
X27754Y-208276D01*
X26824Y-208990D01*
X26111Y-209920D01*
X25662Y-211003D01*
X25509Y-212165D01*
X25662Y-213328D01*
X26111Y-214411D01*
X25890Y-214859D01*
X25500D01*
X24681Y-215022D01*
X23986Y-215486D01*
X21486Y-217986D01*
X21022Y-218681D01*
X20859Y-219500D01*
Y-225500D01*
X21022Y-226319D01*
X21022Y-226319D01*
X21022Y-226319D01*
X21486Y-227014D01*
X50986Y-256514D01*
X50986Y-256514D01*
X50986D01*
X50986Y-256514D01*
X50986D01*
X50986Y-256514D01*
Y-256514D01*
Y-256514D01*
D01*
D01*
X50986D01*
Y-256514D01*
X51681Y-256978D01*
X52500Y-257141D01*
X66067D01*
X66110Y-257246D01*
X66824Y-258176D01*
X67754Y-258890D01*
X68838Y-259338D01*
X70000Y-259491D01*
X71162Y-259338D01*
X72246Y-258890D01*
X73176Y-258176D01*
X73889Y-257246D01*
X74338Y-256162D01*
X74491Y-255000D01*
X74338Y-253838D01*
X73889Y-252754D01*
X73176Y-251824D01*
X72246Y-251111D01*
X71162Y-250662D01*
X70000Y-250509D01*
X68838Y-250662D01*
X67754Y-251111D01*
X66824Y-251824D01*
X66110Y-252754D01*
X66067Y-252859D01*
X53387D01*
X25141Y-224613D01*
Y-223195D01*
X25640Y-223162D01*
X25662Y-223328D01*
X26111Y-224411D01*
X26824Y-225341D01*
X27754Y-226055D01*
X28838Y-226503D01*
X30000Y-226657D01*
X30502Y-226590D01*
X45873Y-241961D01*
X46448Y-242402D01*
X46448Y-242402D01*
X46448Y-242402D01*
D01*
X46448Y-242402D01*
X46448Y-242402D01*
X47117Y-242679D01*
X47835Y-242774D01*
X66516D01*
X66824Y-243176D01*
X67754Y-243889D01*
X68838Y-244338D01*
X70000Y-244491D01*
X71162Y-244338D01*
X72246Y-243889D01*
X73176Y-243176D01*
X73889Y-242246D01*
X74338Y-241162D01*
X74491Y-240000D01*
X74338Y-238838D01*
X73889Y-237754D01*
X73176Y-236824D01*
X72246Y-236110D01*
X71162Y-235662D01*
X70000Y-235509D01*
X68838Y-235662D01*
X67754Y-236110D01*
X66824Y-236824D01*
X66516Y-237226D01*
X48984D01*
X38723Y-226966D01*
X38944Y-226518D01*
X40000Y-226657D01*
X41162Y-226503D01*
X42246Y-226055D01*
X43176Y-225341D01*
X43889Y-224411D01*
X44338Y-223328D01*
X44491Y-222165D01*
X44338Y-221003D01*
X43889Y-219920D01*
X43176Y-218990D01*
X42246Y-218276D01*
X41162Y-217827D01*
X40000Y-217674D01*
X38838Y-217827D01*
X38733Y-217870D01*
X36860Y-215998D01*
X37190Y-215622D01*
X37754Y-216055D01*
X38838Y-216504D01*
X40000Y-216656D01*
X41162Y-216504D01*
X42246Y-216055D01*
X43176Y-215341D01*
X43889Y-214411D01*
X44338Y-213328D01*
X44491Y-212165D01*
X44338Y-211003D01*
X43889Y-209920D01*
X43176Y-208990D01*
X42246Y-208276D01*
X41162Y-207827D01*
X40000Y-207674D01*
D02*
G37*
G36*
X207000Y-234461D02*
X205825Y-234616D01*
X204731Y-235069D01*
X203791Y-235791D01*
X203069Y-236731D01*
X202616Y-237825D01*
X202461Y-239000D01*
X202616Y-240175D01*
X203069Y-241269D01*
X203791Y-242209D01*
X204731Y-242931D01*
X205825Y-243384D01*
X207000Y-243539D01*
X208175Y-243384D01*
X209269Y-242931D01*
X210209Y-242209D01*
X210931Y-241269D01*
X211384Y-240175D01*
X211539Y-239000D01*
X211384Y-237825D01*
X210931Y-236731D01*
X210209Y-235791D01*
X209269Y-235069D01*
X208175Y-234616D01*
X207000Y-234461D01*
D02*
G37*
G36*
X174453Y-245547D02*
X165547D01*
Y-254453D01*
X174453D01*
Y-245547D01*
D02*
G37*
G36*
X107500Y-85509D02*
X106338Y-85662D01*
X105254Y-86111D01*
X104324Y-86824D01*
X103611Y-87754D01*
X103162Y-88838D01*
X103009Y-90000D01*
X103162Y-91162D01*
X103611Y-92246D01*
X104324Y-93176D01*
X105254Y-93889D01*
X106338Y-94338D01*
X107500Y-94491D01*
X108662Y-94338D01*
X109746Y-93889D01*
X110676Y-93176D01*
X111390Y-92246D01*
X111838Y-91162D01*
X111991Y-90000D01*
X111838Y-88838D01*
X111390Y-87754D01*
X110676Y-86824D01*
X109746Y-86111D01*
X108662Y-85662D01*
X107500Y-85509D01*
D02*
G37*
G36*
X255000Y-92461D02*
X253825Y-92616D01*
X252731Y-93069D01*
X251791Y-93791D01*
X251069Y-94731D01*
X250616Y-95825D01*
X250461Y-97000D01*
X250616Y-98175D01*
X251069Y-99269D01*
X251791Y-100209D01*
X252731Y-100931D01*
X253825Y-101384D01*
X255000Y-101539D01*
X256175Y-101384D01*
X257269Y-100931D01*
X258209Y-100209D01*
X258931Y-99269D01*
X259384Y-98175D01*
X259539Y-97000D01*
X259384Y-95825D01*
X258931Y-94731D01*
X258209Y-93791D01*
X257269Y-93069D01*
X256175Y-92616D01*
X255000Y-92461D01*
D02*
G37*
G36*
X293000Y-97110D02*
X291564Y-97299D01*
X290227Y-97853D01*
X289078Y-98735D01*
X288196Y-99884D01*
X287642Y-101222D01*
X287453Y-102657D01*
X287642Y-104093D01*
X288196Y-105431D01*
X289078Y-106580D01*
X290227Y-107462D01*
X291564Y-108016D01*
X293000Y-108205D01*
X294436Y-108016D01*
X295774Y-107462D01*
X296923Y-106580D01*
X297804Y-105431D01*
X298359Y-104093D01*
X298548Y-102657D01*
X298359Y-101222D01*
X297804Y-99884D01*
X296923Y-98735D01*
X295774Y-97853D01*
X294436Y-97299D01*
X293000Y-97110D01*
D02*
G37*
G36*
X142500Y-85509D02*
X141338Y-85662D01*
X140254Y-86111D01*
X139324Y-86824D01*
X138610Y-87754D01*
X138162Y-88838D01*
X138009Y-90000D01*
X138162Y-91162D01*
X138610Y-92246D01*
X139324Y-93176D01*
X139597Y-93385D01*
X139437Y-93859D01*
X135563D01*
X135403Y-93385D01*
X135676Y-93176D01*
X136390Y-92246D01*
X136838Y-91162D01*
X136991Y-90000D01*
X136838Y-88838D01*
X136390Y-87754D01*
X135676Y-86824D01*
X134746Y-86111D01*
X133662Y-85662D01*
X132500Y-85509D01*
X131338Y-85662D01*
X130254Y-86111D01*
X129324Y-86824D01*
X128611Y-87754D01*
X128162Y-88838D01*
X128009Y-90000D01*
X128162Y-91162D01*
X128611Y-92246D01*
X129324Y-93176D01*
X129597Y-93385D01*
X129437Y-93859D01*
X127000D01*
X126181Y-94022D01*
X125486Y-94486D01*
X120103Y-99869D01*
X119641Y-99677D01*
Y-93933D01*
X119746Y-93889D01*
X120676Y-93176D01*
X121389Y-92246D01*
X121838Y-91162D01*
X121991Y-90000D01*
X121838Y-88838D01*
X121389Y-87754D01*
X120676Y-86824D01*
X119746Y-86111D01*
X118662Y-85662D01*
X117500Y-85509D01*
X116338Y-85662D01*
X115254Y-86111D01*
X114324Y-86824D01*
X113610Y-87754D01*
X113162Y-88838D01*
X113009Y-90000D01*
X113162Y-91162D01*
X113610Y-92246D01*
X114324Y-93176D01*
X115254Y-93889D01*
X115359Y-93933D01*
Y-144205D01*
X115145Y-144525D01*
X114951Y-145500D01*
X115145Y-146476D01*
X115698Y-147302D01*
X116525Y-147855D01*
X117500Y-148049D01*
X117622Y-148025D01*
X117975Y-148378D01*
X117951Y-148500D01*
X118145Y-149476D01*
X118698Y-150302D01*
X119525Y-150855D01*
X120500Y-151049D01*
X121476Y-150855D01*
X122302Y-150302D01*
X122855Y-149476D01*
X123049Y-148500D01*
X122855Y-147524D01*
X122641Y-147205D01*
Y-103387D01*
X127887Y-98141D01*
X141000D01*
X141819Y-97978D01*
X142514Y-97514D01*
X144014Y-96014D01*
X144478Y-95319D01*
X144478Y-95319D01*
X144478Y-95319D01*
X144641Y-94500D01*
Y-93933D01*
X144746Y-93889D01*
X145676Y-93176D01*
X146389Y-92246D01*
X146838Y-91162D01*
X146991Y-90000D01*
X146838Y-88838D01*
X146389Y-87754D01*
X145676Y-86824D01*
X144746Y-86111D01*
X143662Y-85662D01*
X142500Y-85509D01*
D02*
G37*
G36*
X236953Y-10547D02*
X228047D01*
Y-19453D01*
X236953D01*
Y-10547D01*
D02*
G37*
G36*
X291331Y-49453D02*
X282669D01*
X281250Y-49640D01*
X279927Y-50188D01*
X278792Y-51059D01*
X277920Y-52195D01*
X277372Y-53518D01*
X277185Y-54937D01*
X277372Y-56356D01*
X277920Y-57679D01*
X278792Y-58815D01*
X279927Y-59686D01*
X281250Y-60234D01*
X282669Y-60421D01*
X291331D01*
X292750Y-60234D01*
X294073Y-59686D01*
X295208Y-58815D01*
X296080Y-57679D01*
X296628Y-56356D01*
X296815Y-54937D01*
X296628Y-53518D01*
X296080Y-52195D01*
X295208Y-51059D01*
X294073Y-50188D01*
X292750Y-49640D01*
X291331Y-49453D01*
D02*
G37*
G36*
X205000Y-70461D02*
X203825Y-70616D01*
X202731Y-71069D01*
X201791Y-71791D01*
X201456Y-72226D01*
X101000D01*
X100282Y-72321D01*
X99613Y-72598D01*
X99039Y-73039D01*
X90539Y-81539D01*
X90098Y-82113D01*
X89983Y-82390D01*
X89821Y-82782D01*
X89726Y-83500D01*
Y-159016D01*
X89324Y-159324D01*
X89016Y-159726D01*
X85500D01*
X84782Y-159821D01*
X84113Y-160098D01*
X83539Y-160539D01*
X78039Y-166039D01*
X77598Y-166613D01*
X77483Y-166890D01*
X77321Y-167282D01*
X77226Y-168000D01*
Y-236516D01*
X76824Y-236824D01*
X76111Y-237754D01*
X75662Y-238838D01*
X75509Y-240000D01*
X75662Y-241162D01*
X76111Y-242246D01*
X76824Y-243176D01*
X77754Y-243889D01*
X78838Y-244338D01*
X80000Y-244491D01*
X81162Y-244338D01*
X82246Y-243889D01*
X83176Y-243176D01*
X83890Y-242246D01*
X84338Y-241162D01*
X84491Y-240000D01*
X84338Y-238838D01*
X83890Y-237754D01*
X83176Y-236824D01*
X82774Y-236516D01*
Y-169149D01*
X86649Y-165274D01*
X89016D01*
X89324Y-165676D01*
X90254Y-166390D01*
X91338Y-166838D01*
X92500Y-166991D01*
X93662Y-166838D01*
X94746Y-166390D01*
X95676Y-165676D01*
X96390Y-164746D01*
X96838Y-163662D01*
X96991Y-162500D01*
X96838Y-161338D01*
X96390Y-160254D01*
X95676Y-159324D01*
X95274Y-159016D01*
Y-84649D01*
X102149Y-77774D01*
X201456D01*
X201791Y-78209D01*
X202731Y-78931D01*
X203825Y-79384D01*
X205000Y-79539D01*
X206175Y-79384D01*
X207269Y-78931D01*
X208209Y-78209D01*
X208931Y-77269D01*
X209384Y-76175D01*
X209539Y-75000D01*
X209384Y-73825D01*
X208931Y-72731D01*
X208209Y-71791D01*
X207269Y-71069D01*
X206175Y-70616D01*
X205000Y-70461D01*
D02*
G37*
G36*
X40000Y-137674D02*
X38838Y-137827D01*
X37754Y-138276D01*
X36824Y-138990D01*
X36110Y-139920D01*
X35662Y-141003D01*
X35509Y-142165D01*
X35662Y-143328D01*
X36110Y-144411D01*
X36824Y-145341D01*
X37754Y-146055D01*
X38838Y-146503D01*
X40000Y-146657D01*
X41162Y-146503D01*
X42246Y-146055D01*
X43176Y-145341D01*
X43889Y-144411D01*
X44338Y-143328D01*
X44491Y-142165D01*
X44338Y-141003D01*
X43889Y-139920D01*
X43176Y-138990D01*
X42246Y-138276D01*
X41162Y-137827D01*
X40000Y-137674D01*
D02*
G37*
G36*
X51500Y-139951D02*
X50524Y-140145D01*
X49698Y-140698D01*
X49145Y-141525D01*
X48951Y-142500D01*
X49145Y-143475D01*
X49359Y-143795D01*
Y-159613D01*
X44321Y-164651D01*
X43905Y-164374D01*
X44338Y-163328D01*
X44491Y-162165D01*
X44338Y-161003D01*
X43889Y-159920D01*
X43176Y-158990D01*
X42246Y-158276D01*
X41162Y-157827D01*
X40000Y-157674D01*
X38838Y-157827D01*
X37754Y-158276D01*
X36824Y-158990D01*
X36110Y-159920D01*
X35662Y-161003D01*
X35509Y-162165D01*
X35662Y-163328D01*
X36110Y-164411D01*
X35890Y-164859D01*
X35165D01*
X34346Y-165022D01*
X33723Y-165438D01*
X33382Y-165073D01*
X33889Y-164411D01*
X34338Y-163328D01*
X34491Y-162165D01*
X34338Y-161003D01*
X33889Y-159920D01*
X33176Y-158990D01*
X32246Y-158276D01*
X31162Y-157827D01*
X30000Y-157674D01*
X28838Y-157827D01*
X27754Y-158276D01*
X26824Y-158990D01*
X26111Y-159920D01*
X25662Y-161003D01*
X25509Y-162165D01*
X25662Y-163328D01*
X26111Y-164411D01*
X26824Y-165341D01*
X27754Y-166055D01*
X28838Y-166504D01*
X30000Y-166656D01*
X31162Y-166504D01*
X32246Y-166055D01*
X32810Y-165622D01*
X33140Y-165998D01*
X31267Y-167870D01*
X31162Y-167827D01*
X30000Y-167674D01*
X28838Y-167827D01*
X27754Y-168276D01*
X26824Y-168990D01*
X26111Y-169920D01*
X25662Y-171003D01*
X25509Y-172165D01*
X25662Y-173328D01*
X26111Y-174411D01*
X26824Y-175341D01*
X27754Y-176055D01*
X28838Y-176504D01*
X30000Y-176656D01*
X31162Y-176504D01*
X32246Y-176055D01*
X33176Y-175341D01*
X33889Y-174411D01*
X34338Y-173328D01*
X34491Y-172165D01*
X34338Y-171003D01*
X34295Y-170898D01*
X35809Y-169384D01*
X36303Y-169465D01*
X36364Y-169590D01*
X36110Y-169920D01*
X35662Y-171003D01*
X35509Y-172165D01*
X35662Y-173328D01*
X36110Y-174411D01*
X36824Y-175341D01*
X37754Y-176055D01*
X38838Y-176504D01*
X40000Y-176656D01*
X41162Y-176504D01*
X42246Y-176055D01*
X43176Y-175341D01*
X43889Y-174411D01*
X44338Y-173328D01*
X44491Y-172165D01*
X44338Y-171003D01*
X43889Y-169920D01*
X43636Y-169590D01*
X43857Y-169141D01*
X45000D01*
X45819Y-168978D01*
X46514Y-168514D01*
X46514Y-168514D01*
X46514Y-168514D01*
X53014Y-162014D01*
X53478Y-161319D01*
X53478Y-161319D01*
X53478Y-161319D01*
X53641Y-160500D01*
Y-143795D01*
X53855Y-143475D01*
X54049Y-142500D01*
X53855Y-141525D01*
X53302Y-140698D01*
X52476Y-140145D01*
X51500Y-139951D01*
D02*
G37*
G36*
X110000Y-167961D02*
X108825Y-168116D01*
X107731Y-168569D01*
X106791Y-169291D01*
X106456Y-169726D01*
X95984D01*
X95676Y-169324D01*
X94746Y-168611D01*
X93662Y-168162D01*
X92500Y-168009D01*
X91338Y-168162D01*
X90254Y-168611D01*
X89324Y-169324D01*
X88611Y-170254D01*
X88162Y-171338D01*
X88009Y-172500D01*
X88162Y-173662D01*
X88611Y-174746D01*
X89324Y-175676D01*
X89726Y-175984D01*
Y-192500D01*
X89821Y-193218D01*
X89983Y-193610D01*
X90098Y-193887D01*
X90539Y-194461D01*
X95547Y-199470D01*
Y-204453D01*
X104453D01*
Y-202774D01*
X110547D01*
Y-204453D01*
X116866D01*
X117057Y-204915D01*
X116267Y-205705D01*
X116162Y-205662D01*
X115000Y-205509D01*
X113838Y-205662D01*
X112754Y-206111D01*
X111824Y-206824D01*
X111110Y-207754D01*
X110662Y-208838D01*
X110509Y-210000D01*
X110662Y-211162D01*
X111110Y-212246D01*
X111237Y-212410D01*
X111016Y-212859D01*
X105887D01*
X104295Y-211267D01*
X104338Y-211162D01*
X104491Y-210000D01*
X104338Y-208838D01*
X103890Y-207754D01*
X103176Y-206824D01*
X102246Y-206111D01*
X101162Y-205662D01*
X100000Y-205509D01*
X98838Y-205662D01*
X97754Y-206111D01*
X96824Y-206824D01*
X96110Y-207754D01*
X95662Y-208838D01*
X95509Y-210000D01*
X95662Y-211162D01*
X96110Y-212246D01*
X96824Y-213176D01*
X97754Y-213890D01*
X98838Y-214338D01*
X100000Y-214491D01*
X101162Y-214338D01*
X101267Y-214295D01*
X103486Y-216514D01*
X104181Y-216978D01*
X105000Y-217141D01*
X119113D01*
X126986Y-225014D01*
X127681Y-225478D01*
X127681Y-225478D01*
X127681Y-225478D01*
D01*
X127681Y-225478D01*
X127681Y-225478D01*
X128500Y-225641D01*
X142205D01*
X142525Y-225855D01*
X143500Y-226049D01*
X144475Y-225855D01*
X145302Y-225302D01*
X145855Y-224476D01*
X146049Y-223500D01*
X145855Y-222524D01*
X145302Y-221698D01*
X144475Y-221145D01*
X143500Y-220951D01*
X142525Y-221145D01*
X142205Y-221359D01*
X129387D01*
X121514Y-213486D01*
X120819Y-213022D01*
X120000Y-212859D01*
X118984D01*
X118763Y-212410D01*
X118889Y-212246D01*
X119338Y-211162D01*
X119491Y-210000D01*
X119338Y-208838D01*
X119295Y-208733D01*
X135598Y-192430D01*
X135976Y-192355D01*
X136802Y-191802D01*
X137355Y-190975D01*
X137549Y-190000D01*
X137355Y-189024D01*
X136802Y-188198D01*
X135976Y-187645D01*
X135000Y-187451D01*
X134025Y-187645D01*
X133198Y-188198D01*
X132645Y-189024D01*
X132570Y-189402D01*
X119915Y-202057D01*
X119453Y-201866D01*
Y-195547D01*
X110547D01*
Y-197226D01*
X104453D01*
Y-195547D01*
X99470D01*
X95274Y-191351D01*
Y-175984D01*
X95676Y-175676D01*
X95984Y-175274D01*
X106456D01*
X106791Y-175709D01*
X107731Y-176431D01*
X108825Y-176884D01*
X110000Y-177039D01*
X111175Y-176884D01*
X112269Y-176431D01*
X113209Y-175709D01*
X113931Y-174769D01*
X114384Y-173675D01*
X114539Y-172500D01*
X114384Y-171325D01*
X113931Y-170231D01*
X113209Y-169291D01*
X112269Y-168569D01*
X111175Y-168116D01*
X110000Y-167961D01*
D02*
G37*
G36*
X166500Y-163961D02*
X165325Y-164116D01*
X164231Y-164569D01*
X163291Y-165291D01*
X162569Y-166231D01*
X162116Y-167325D01*
X161961Y-168500D01*
X162116Y-169675D01*
X162569Y-170769D01*
X163291Y-171709D01*
X164231Y-172431D01*
X165325Y-172884D01*
X166500Y-173039D01*
X167675Y-172884D01*
X168769Y-172431D01*
X169709Y-171709D01*
X170431Y-170769D01*
X170884Y-169675D01*
X171039Y-168500D01*
X170884Y-167325D01*
X170431Y-166231D01*
X169709Y-165291D01*
X168769Y-164569D01*
X167675Y-164116D01*
X166500Y-163961D01*
D02*
G37*
G36*
X40000Y-127674D02*
X38838Y-127827D01*
X37754Y-128276D01*
X36824Y-128990D01*
X36110Y-129920D01*
X35662Y-131003D01*
X35509Y-132165D01*
X35662Y-133328D01*
X36110Y-134411D01*
X36824Y-135341D01*
X37754Y-136055D01*
X38838Y-136504D01*
X40000Y-136656D01*
X41162Y-136504D01*
X42246Y-136055D01*
X43176Y-135341D01*
X43889Y-134411D01*
X43933Y-134307D01*
X56779D01*
X77570Y-155098D01*
X77645Y-155475D01*
X78198Y-156302D01*
X79024Y-156855D01*
X80000Y-157049D01*
X80976Y-156855D01*
X81802Y-156302D01*
X82355Y-155475D01*
X82549Y-154500D01*
X82355Y-153524D01*
X81802Y-152698D01*
X80976Y-152145D01*
X80598Y-152070D01*
X59179Y-130651D01*
X58485Y-130187D01*
X57665Y-130024D01*
X43933D01*
X43889Y-129920D01*
X43176Y-128990D01*
X42246Y-128276D01*
X41162Y-127827D01*
X40000Y-127674D01*
D02*
G37*
G36*
X30000Y-137674D02*
X28838Y-137827D01*
X27754Y-138276D01*
X26824Y-138990D01*
X26111Y-139920D01*
X25662Y-141003D01*
X25509Y-142165D01*
X25662Y-143328D01*
X26111Y-144411D01*
X26824Y-145341D01*
X27754Y-146055D01*
X28838Y-146503D01*
X30000Y-146657D01*
X31162Y-146503D01*
X32246Y-146055D01*
X33176Y-145341D01*
X33889Y-144411D01*
X34338Y-143328D01*
X34491Y-142165D01*
X34338Y-141003D01*
X33889Y-139920D01*
X33176Y-138990D01*
X32246Y-138276D01*
X31162Y-137827D01*
X30000Y-137674D01*
D02*
G37*
G36*
X40000Y-147674D02*
X38838Y-147827D01*
X37754Y-148276D01*
X36824Y-148990D01*
X36110Y-149920D01*
X35662Y-151003D01*
X35509Y-152165D01*
X35662Y-153328D01*
X36110Y-154411D01*
X36824Y-155341D01*
X37754Y-156055D01*
X38838Y-156503D01*
X40000Y-156657D01*
X41162Y-156503D01*
X42246Y-156055D01*
X43176Y-155341D01*
X43889Y-154411D01*
X44338Y-153328D01*
X44491Y-152165D01*
X44338Y-151003D01*
X43889Y-149920D01*
X43176Y-148990D01*
X42246Y-148276D01*
X41162Y-147827D01*
X40000Y-147674D01*
D02*
G37*
G36*
X30000D02*
X28838Y-147827D01*
X27754Y-148276D01*
X26824Y-148990D01*
X26111Y-149920D01*
X25662Y-151003D01*
X25509Y-152165D01*
X25662Y-153328D01*
X26111Y-154411D01*
X26824Y-155341D01*
X27754Y-156055D01*
X28838Y-156503D01*
X30000Y-156657D01*
X31162Y-156503D01*
X32246Y-156055D01*
X33176Y-155341D01*
X33889Y-154411D01*
X34338Y-153328D01*
X34491Y-152165D01*
X34338Y-151003D01*
X33889Y-149920D01*
X33176Y-148990D01*
X32246Y-148276D01*
X31162Y-147827D01*
X30000Y-147674D01*
D02*
G37*
%LPD*%
D16*
X135000Y-296000D02*
D03*
X175000D02*
D03*
D29*
X23000Y-225500D02*
X52500Y-255000D01*
X70000D01*
X23000Y-219500D02*
X25500Y-217000D01*
X34835D02*
X40000Y-222165D01*
X25500Y-217000D02*
X34835D01*
X23000Y-225500D02*
Y-219500D01*
X51500Y-160500D02*
Y-142500D01*
X57665Y-132165D02*
X80000Y-154500D01*
X40000Y-132165D02*
X57665D01*
X45000Y-167000D02*
X51500Y-160500D01*
X100000Y-210000D02*
X105000Y-215000D01*
X120000D01*
X128500Y-223500D01*
X143500D01*
X115000Y-210000D02*
X135000Y-190000D01*
X127000Y-96000D02*
X141000D01*
X142500Y-94500D01*
Y-90000D01*
X35165Y-167000D02*
X45000D01*
X30000Y-172165D02*
X35165Y-167000D01*
X117500Y-145500D02*
Y-90000D01*
X120500Y-148500D02*
Y-102500D01*
X127000Y-96000D01*
D30*
X80000Y-240000D02*
Y-168000D01*
X85500Y-162500D02*
X92500D01*
X80000Y-168000D02*
X85500Y-162500D01*
X92500Y-172500D02*
X110000D01*
X92500Y-83500D02*
X101000Y-75000D01*
X92500Y-162500D02*
Y-83500D01*
Y-192500D02*
Y-172500D01*
X100000Y-200000D02*
X115000D01*
X92500Y-192500D02*
X100000Y-200000D01*
X101000Y-75000D02*
X205000D01*
X30000Y-222165D02*
X47835Y-240000D01*
X70000D01*
D33*
X425000Y-180000D02*
Y-95500D01*
Y-88500D02*
Y-33000D01*
D35*
X445000Y-52323D02*
D03*
X360355Y-52323D02*
D03*
X330827Y-52323D02*
D03*
X330827Y-135000D02*
D03*
X445000Y-135000D02*
D03*
X345591Y-135000D02*
D03*
X360355Y-135000D02*
D03*
X293000Y-122343D02*
D03*
X293000Y-102657D02*
D03*
D36*
X40000Y-222165D02*
D03*
X30000D02*
D03*
X40000Y-212165D02*
D03*
X30000D02*
D03*
X40000Y-202165D02*
D03*
X30000D02*
D03*
X40000Y-192165D02*
D03*
X30000D02*
D03*
X40000Y-182165D02*
D03*
X30000D02*
D03*
X40000Y-172165D02*
D03*
X30000D02*
D03*
X40000Y-162165D02*
D03*
X30000D02*
D03*
X40000Y-152165D02*
D03*
X30000D02*
D03*
X40000Y-142165D02*
D03*
X30000D02*
D03*
X40000Y-132165D02*
D03*
X115000Y-210000D02*
D03*
Y-220000D02*
D03*
X120000Y-20000D02*
D03*
X130000D02*
D03*
X140000D02*
D03*
Y-250000D02*
D03*
X70000Y-240000D02*
D03*
X80000D02*
D03*
X107500Y-90000D02*
D03*
X117500D02*
D03*
X70000Y-255000D02*
D03*
X80000D02*
D03*
X132500Y-90000D02*
D03*
X142500D02*
D03*
X92500Y-162500D02*
D03*
Y-172500D02*
D03*
X180000Y-250000D02*
D03*
X100000Y-220000D02*
D03*
Y-210000D02*
D03*
X242500Y-15000D02*
D03*
D37*
X30000Y-132165D02*
D03*
D38*
X425000Y-220000D02*
D03*
D39*
Y-180000D02*
D03*
D40*
X115000Y-200000D02*
D03*
X100000D02*
D03*
D41*
X267315Y-42339D02*
D03*
D42*
X287000Y-30528D02*
D03*
D43*
Y-54937D02*
D03*
D44*
X146815Y-168500D02*
D03*
X166500D02*
D03*
X225000Y-250000D02*
D03*
X255000Y-97000D02*
D03*
X205000Y-75000D02*
D03*
X25000Y-250000D02*
D03*
X225000Y-100000D02*
D03*
X25000D02*
D03*
X207000Y-239000D02*
D03*
X110000Y-172500D02*
D03*
X295500Y-210000D02*
D03*
X324000Y-25000D02*
D03*
X384000D02*
D03*
D45*
X110000Y-20000D02*
D03*
X130000Y-250000D02*
D03*
X170000D02*
D03*
X232500Y-15000D02*
D03*
D46*
X165000Y-312500D02*
D03*
X125000D02*
D03*
D47*
X185000D02*
D03*
X145000D02*
D03*
D48*
X402000Y-26250D02*
D03*
X430000Y-33750D02*
D03*
D49*
X100000Y-125000D02*
D03*
X300000Y-140000D02*
D03*
X100000Y-275000D02*
D03*
X25000Y-295000D02*
D03*
Y-275000D02*
D03*
X50000Y-295000D02*
D03*
X75000D02*
D03*
X10000D02*
D03*
X100000D02*
D03*
X115000D02*
D03*
X87500Y-215000D02*
D03*
X70000Y-230000D02*
D03*
X55000D02*
D03*
X105000Y-160000D02*
D03*
X10000Y-275000D02*
D03*
Y-250000D02*
D03*
Y-225000D02*
D03*
Y-200000D02*
D03*
Y-175000D02*
D03*
Y-150000D02*
D03*
X143500Y-223500D02*
D03*
X135000Y-190000D02*
D03*
X130000Y-202500D02*
D03*
X75000Y-160000D02*
D03*
Y-250000D02*
D03*
Y-275000D02*
D03*
X150000Y-125000D02*
D03*
X125000D02*
D03*
X75000D02*
D03*
Y-100000D02*
D03*
Y-75000D02*
D03*
X200000Y-25000D02*
D03*
X190000Y-65000D02*
D03*
X305000Y-100000D02*
D03*
Y-75000D02*
D03*
Y-50000D02*
D03*
Y-25000D02*
D03*
X235000Y-65000D02*
D03*
X275000Y-25000D02*
D03*
X225000D02*
D03*
X195000Y-252500D02*
D03*
X197500Y-262500D02*
D03*
X200000Y-295000D02*
D03*
X275000D02*
D03*
Y-275000D02*
D03*
Y-250000D02*
D03*
Y-225000D02*
D03*
X225000Y-295000D02*
D03*
Y-275000D02*
D03*
X250000Y-295000D02*
D03*
Y-250000D02*
D03*
Y-225000D02*
D03*
Y-175000D02*
D03*
X225000D02*
D03*
Y-150000D02*
D03*
X250000D02*
D03*
X175000Y-100000D02*
D03*
X160000Y-85000D02*
D03*
X250000Y-125000D02*
D03*
X225000D02*
D03*
X175000D02*
D03*
X200000D02*
D03*
Y-100000D02*
D03*
X50000Y-275000D02*
D03*
X45000Y-255000D02*
D03*
X50000Y-125000D02*
D03*
Y-100000D02*
D03*
Y-75000D02*
D03*
X25000D02*
D03*
X85000Y-172500D02*
D03*
X125000Y-170000D02*
D03*
X50000Y-187500D02*
D03*
X10000Y-125000D02*
D03*
X65000Y-215000D02*
D03*
X75000Y-205000D02*
D03*
X87500Y-197500D02*
D03*
X182500Y-160000D02*
D03*
X124000Y-193500D02*
D03*
X115000Y-250000D02*
D03*
X90000Y-235000D02*
D03*
X100000Y-250000D02*
D03*
X163000Y-290000D02*
D03*
X155000D02*
D03*
X147000D02*
D03*
X155000Y-273000D02*
D03*
Y-260000D02*
D03*
X160000Y-250000D02*
D03*
X150000D02*
D03*
X182000Y-237000D02*
D03*
X225000Y-225000D02*
D03*
Y-205000D02*
D03*
X205000Y-230000D02*
D03*
Y-215000D02*
D03*
Y-205000D02*
D03*
X190000Y-215000D02*
D03*
Y-205000D02*
D03*
X143500Y-202500D02*
D03*
X145000Y-215000D02*
D03*
X151500D02*
D03*
X162500Y-205000D02*
D03*
X160000Y-215000D02*
D03*
X172500D02*
D03*
Y-205000D02*
D03*
X152500D02*
D03*
X80000Y-154500D02*
D03*
X51500Y-142500D02*
D03*
X117500Y-145500D02*
D03*
X120500Y-148500D02*
D03*
X10000Y-75000D02*
D03*
Y-100000D02*
D03*
X250000Y-275000D02*
D03*
Y-205000D02*
D03*
X275000D02*
D03*
Y-175000D02*
D03*
Y-150000D02*
D03*
Y-100000D02*
D03*
X57500Y-247500D02*
D03*
X65000Y-177500D02*
D03*
D50*
X425000Y-95500D02*
D03*
Y-88500D02*
D03*
M02*
