%FSLAX25Y25*%
%MOIN*%
G70*
G01*
G75*
G04 Layer_Color=16711935*
%ADD10R,0.04725X0.13779*%
%ADD11R,0.04725X0.13779*%
%ADD12R,0.06000X0.10000*%
%ADD13R,0.03500X0.03000*%
%ADD14R,0.05500X0.04000*%
%ADD15R,0.04000X0.05500*%
%ADD16R,0.06000X0.06000*%
%ADD17R,0.02756X0.05315*%
%ADD18R,0.02756X0.07087*%
G04:AMPARAMS|DCode=19|XSize=74.8mil|YSize=129.92mil|CornerRadius=0mil|HoleSize=0mil|Usage=FLASHONLY|Rotation=0.000|XOffset=0mil|YOffset=0mil|HoleType=Round|Shape=Octagon|*
%AMOCTAGOND19*
4,1,8,-0.01870,0.06496,0.01870,0.06496,0.03740,0.04626,0.03740,-0.04626,0.01870,-0.06496,-0.01870,-0.06496,-0.03740,-0.04626,-0.03740,0.04626,-0.01870,0.06496,0.0*
%
%ADD19OCTAGOND19*%

%ADD20R,0.01496X0.07874*%
%ADD21R,0.01496X0.07874*%
%ADD22O,0.06000X0.11024*%
%ADD23R,0.06000X0.11024*%
%ADD24R,0.17716X0.07874*%
%ADD25R,0.03000X0.03500*%
%ADD26R,0.10000X0.06000*%
%ADD27R,0.07500X0.10000*%
%ADD28C,0.04000*%
%ADD29C,0.01200*%
%ADD30C,0.02500*%
%ADD31C,0.02000*%
%ADD32C,0.01500*%
%ADD33C,0.05000*%
%ADD34C,0.03000*%
%ADD35C,0.08000*%
%ADD36C,0.05906*%
%ADD37R,0.05906X0.05906*%
%ADD38R,0.10236X0.10236*%
%ADD39C,0.10236*%
%ADD40R,0.05906X0.05906*%
%ADD41O,0.07874X0.15748*%
%ADD42O,0.15748X0.07874*%
%ADD43O,0.16535X0.07874*%
%ADD44C,0.06000*%
%ADD45R,0.05906X0.05906*%
%ADD46R,0.09449X0.09449*%
%ADD47C,0.09449*%
%ADD48C,0.06500*%
%ADD49C,0.02000*%
%ADD50R,0.05000X0.06000*%
%ADD51C,0.00100*%
%ADD52C,0.01000*%
%ADD53C,0.00800*%
%ADD54C,0.01600*%
%ADD55C,0.00787*%
%ADD56C,0.00600*%
%ADD57R,0.00400X0.05000*%
%ADD58R,0.05000X0.00400*%
%ADD59R,0.05525X0.14579*%
%ADD60R,0.05525X0.14579*%
%ADD61R,0.06800X0.10800*%
%ADD62R,0.04300X0.03800*%
%ADD63R,0.06300X0.04800*%
%ADD64R,0.04800X0.06300*%
%ADD65R,0.06800X0.06800*%
%ADD66R,0.03556X0.06115*%
%ADD67R,0.03556X0.07887*%
G04:AMPARAMS|DCode=68|XSize=82.8mil|YSize=137.92mil|CornerRadius=0mil|HoleSize=0mil|Usage=FLASHONLY|Rotation=0.000|XOffset=0mil|YOffset=0mil|HoleType=Round|Shape=Octagon|*
%AMOCTAGOND68*
4,1,8,-0.02070,0.06896,0.02070,0.06896,0.04140,0.04826,0.04140,-0.04826,0.02070,-0.06896,-0.02070,-0.06896,-0.04140,-0.04826,-0.04140,0.04826,-0.02070,0.06896,0.0*
%
%ADD68OCTAGOND68*%

%ADD69R,0.02296X0.08674*%
%ADD70R,0.02296X0.08674*%
%ADD71O,0.06800X0.11824*%
%ADD72R,0.06800X0.11824*%
%ADD73R,0.18517X0.08674*%
%ADD74R,0.03800X0.04300*%
%ADD75R,0.10800X0.06800*%
%ADD76R,0.08300X0.10800*%
%ADD77C,0.08800*%
%ADD78C,0.06706*%
%ADD79R,0.06706X0.06706*%
%ADD80R,0.11036X0.11036*%
%ADD81C,0.11036*%
%ADD82R,0.06706X0.06706*%
%ADD83O,0.08674X0.16548*%
%ADD84O,0.16548X0.08674*%
%ADD85O,0.17335X0.08674*%
%ADD86C,0.06800*%
%ADD87R,0.06706X0.06706*%
%ADD88R,0.10249X0.10249*%
%ADD89C,0.10249*%
%ADD90C,0.07300*%
%ADD91C,0.02800*%
%ADD92R,0.05800X0.06800*%
D49*
X100000Y-125000D02*
D03*
X300000Y-140000D02*
D03*
X100000Y-275000D02*
D03*
X25000Y-295000D02*
D03*
Y-275000D02*
D03*
X50000Y-295000D02*
D03*
X75000D02*
D03*
X10000D02*
D03*
X100000D02*
D03*
X115000D02*
D03*
X87500Y-215000D02*
D03*
X70000Y-230000D02*
D03*
X55000D02*
D03*
X105000Y-160000D02*
D03*
X10000Y-275000D02*
D03*
Y-250000D02*
D03*
Y-225000D02*
D03*
Y-200000D02*
D03*
Y-175000D02*
D03*
Y-150000D02*
D03*
X143500Y-223500D02*
D03*
X135000Y-190000D02*
D03*
X130000Y-202500D02*
D03*
X75000Y-160000D02*
D03*
Y-275000D02*
D03*
X150000Y-125000D02*
D03*
X125000D02*
D03*
X75000D02*
D03*
Y-100000D02*
D03*
Y-75000D02*
D03*
X200000Y-25000D02*
D03*
X190000Y-65000D02*
D03*
X305000Y-100000D02*
D03*
Y-75000D02*
D03*
Y-50000D02*
D03*
Y-25000D02*
D03*
X235000Y-65000D02*
D03*
X275000Y-25000D02*
D03*
X225000D02*
D03*
X195000Y-252500D02*
D03*
X197500Y-262500D02*
D03*
X200000Y-295000D02*
D03*
X275000D02*
D03*
Y-275000D02*
D03*
Y-250000D02*
D03*
Y-225000D02*
D03*
X225000Y-295000D02*
D03*
Y-275000D02*
D03*
X250000Y-295000D02*
D03*
Y-250000D02*
D03*
Y-225000D02*
D03*
Y-175000D02*
D03*
X225000D02*
D03*
Y-150000D02*
D03*
X250000D02*
D03*
X175000Y-100000D02*
D03*
X160000Y-85000D02*
D03*
X250000Y-125000D02*
D03*
X225000D02*
D03*
X175000D02*
D03*
X200000D02*
D03*
Y-100000D02*
D03*
X50000Y-275000D02*
D03*
X45000Y-255000D02*
D03*
X50000Y-125000D02*
D03*
Y-100000D02*
D03*
Y-75000D02*
D03*
X25000D02*
D03*
X125000Y-170000D02*
D03*
X50000Y-187500D02*
D03*
X10000Y-125000D02*
D03*
X65000Y-215000D02*
D03*
X75000Y-205000D02*
D03*
X87500Y-197500D02*
D03*
X182500Y-160000D02*
D03*
X124000Y-193500D02*
D03*
X115000Y-250000D02*
D03*
X90000Y-235000D02*
D03*
X100000Y-250000D02*
D03*
X163000Y-290000D02*
D03*
X155000D02*
D03*
X147000D02*
D03*
X155000Y-273000D02*
D03*
Y-260000D02*
D03*
X160000Y-250000D02*
D03*
X150000D02*
D03*
X182000Y-237000D02*
D03*
X225000Y-225000D02*
D03*
Y-205000D02*
D03*
X205000Y-230000D02*
D03*
Y-215000D02*
D03*
Y-205000D02*
D03*
X190000Y-215000D02*
D03*
Y-205000D02*
D03*
X143500Y-202500D02*
D03*
X145000Y-215000D02*
D03*
X151500D02*
D03*
X162500Y-205000D02*
D03*
X160000Y-215000D02*
D03*
X172500D02*
D03*
Y-205000D02*
D03*
X152500D02*
D03*
X80000Y-154500D02*
D03*
X51500Y-142500D02*
D03*
X117500Y-145500D02*
D03*
X120500Y-148500D02*
D03*
X10000Y-75000D02*
D03*
Y-100000D02*
D03*
X250000Y-275000D02*
D03*
Y-205000D02*
D03*
X275000D02*
D03*
Y-175000D02*
D03*
Y-150000D02*
D03*
Y-100000D02*
D03*
X57500Y-247500D02*
D03*
X65000Y-177500D02*
D03*
D65*
X135000Y-296000D02*
D03*
X175000D02*
D03*
D77*
X445000Y-52323D02*
D03*
X360355Y-52323D02*
D03*
X330827Y-52323D02*
D03*
X330827Y-135000D02*
D03*
X445000Y-135000D02*
D03*
X345591Y-135000D02*
D03*
X360355Y-135000D02*
D03*
X293000Y-122343D02*
D03*
X293000Y-102657D02*
D03*
D78*
X40000Y-222165D02*
D03*
X30000D02*
D03*
X40000Y-212165D02*
D03*
X30000D02*
D03*
X40000Y-202165D02*
D03*
X30000D02*
D03*
X40000Y-192165D02*
D03*
X30000D02*
D03*
X40000Y-182165D02*
D03*
X30000D02*
D03*
X40000Y-172165D02*
D03*
X30000D02*
D03*
X40000Y-162165D02*
D03*
X30000D02*
D03*
X40000Y-152165D02*
D03*
X30000D02*
D03*
X40000Y-142165D02*
D03*
X30000D02*
D03*
X40000Y-132165D02*
D03*
X115000Y-210000D02*
D03*
Y-220000D02*
D03*
X120000Y-20000D02*
D03*
X130000D02*
D03*
X140000D02*
D03*
Y-250000D02*
D03*
X70000Y-240000D02*
D03*
X80000D02*
D03*
X107500Y-90000D02*
D03*
X117500D02*
D03*
X70000Y-255000D02*
D03*
X80000D02*
D03*
X132500Y-90000D02*
D03*
X142500D02*
D03*
X92500Y-162500D02*
D03*
Y-172500D02*
D03*
X180000Y-250000D02*
D03*
X100000Y-220000D02*
D03*
Y-210000D02*
D03*
X242500Y-15000D02*
D03*
D79*
X30000Y-132165D02*
D03*
D80*
X425000Y-220000D02*
D03*
D81*
Y-180000D02*
D03*
D82*
X115000Y-200000D02*
D03*
X100000D02*
D03*
D83*
X267315Y-42339D02*
D03*
D84*
X287000Y-30528D02*
D03*
D85*
Y-54937D02*
D03*
D86*
X146815Y-168500D02*
D03*
X166500D02*
D03*
X225000Y-250000D02*
D03*
X255000Y-97000D02*
D03*
X205000Y-75000D02*
D03*
X25000Y-250000D02*
D03*
X225000Y-100000D02*
D03*
X25000D02*
D03*
X207000Y-239000D02*
D03*
X110000Y-172500D02*
D03*
X295500Y-210000D02*
D03*
X324000Y-25000D02*
D03*
X384000D02*
D03*
D87*
X110000Y-20000D02*
D03*
X130000Y-250000D02*
D03*
X170000D02*
D03*
X232500Y-15000D02*
D03*
D88*
X165000Y-312500D02*
D03*
X125000D02*
D03*
D89*
X185000D02*
D03*
X145000D02*
D03*
D90*
X402000Y-26250D02*
D03*
X430000Y-33750D02*
D03*
D91*
X75000Y-250000D02*
D03*
X85000Y-172500D02*
D03*
D92*
X425000Y-95500D02*
D03*
Y-88500D02*
D03*
M02*
