%FSLAX25Y25*%
%MOIN*%
G70*
G01*
G75*
G04 Layer_Physical_Order=1*
G04 Layer_Color=255*
%ADD10R,0.04725X0.13779*%
%ADD11R,0.04725X0.13779*%
%ADD12R,0.06000X0.10000*%
%ADD13R,0.03500X0.03000*%
%ADD14R,0.05500X0.04000*%
%ADD15R,0.04000X0.05500*%
%ADD16R,0.06000X0.06000*%
%ADD17R,0.02756X0.05315*%
%ADD18R,0.02756X0.07087*%
G04:AMPARAMS|DCode=19|XSize=74.8mil|YSize=129.92mil|CornerRadius=0mil|HoleSize=0mil|Usage=FLASHONLY|Rotation=0.000|XOffset=0mil|YOffset=0mil|HoleType=Round|Shape=Octagon|*
%AMOCTAGOND19*
4,1,8,-0.01870,0.06496,0.01870,0.06496,0.03740,0.04626,0.03740,-0.04626,0.01870,-0.06496,-0.01870,-0.06496,-0.03740,-0.04626,-0.03740,0.04626,-0.01870,0.06496,0.0*
%
%ADD19OCTAGOND19*%

%ADD20R,0.01496X0.07874*%
%ADD21R,0.01496X0.07874*%
%ADD22O,0.06000X0.11024*%
%ADD23R,0.06000X0.11024*%
%ADD24R,0.17716X0.07874*%
%ADD25R,0.03000X0.03500*%
%ADD26R,0.10000X0.06000*%
%ADD27R,0.07500X0.10000*%
%ADD28C,0.04000*%
%ADD29C,0.01200*%
%ADD30C,0.02500*%
%ADD31C,0.02000*%
%ADD32C,0.01500*%
%ADD33C,0.05000*%
%ADD34C,0.03000*%
%ADD35C,0.08000*%
%ADD36C,0.05906*%
%ADD37R,0.05906X0.05906*%
%ADD38R,0.10236X0.10236*%
%ADD39C,0.10236*%
%ADD40R,0.05906X0.05906*%
%ADD41O,0.07874X0.15748*%
%ADD42O,0.15748X0.07874*%
%ADD43O,0.16535X0.07874*%
%ADD44C,0.06000*%
%ADD45R,0.05906X0.05906*%
%ADD46R,0.09449X0.09449*%
%ADD47C,0.09449*%
%ADD48C,0.06500*%
%ADD49C,0.02000*%
G36*
X315000Y-5000D02*
Y-143965D01*
X286671D01*
X281535Y-138829D01*
Y-119829D01*
X293182Y-108181D01*
X294436Y-108016D01*
X295774Y-107462D01*
X296923Y-106580D01*
X297804Y-105431D01*
X298359Y-104093D01*
X298548Y-102657D01*
X298359Y-101222D01*
X297804Y-99884D01*
X296923Y-98735D01*
X296863Y-98689D01*
X296863Y-89347D01*
X289138Y-89347D01*
X289138Y-93150D01*
X288676Y-93341D01*
X287530Y-92195D01*
Y-83500D01*
X287500Y-83271D01*
Y-79250D01*
Y-70750D01*
X280500D01*
Y-79250D01*
Y-79466D01*
X277250D01*
Y-77000D01*
X266750D01*
Y-90000D01*
X277250D01*
Y-87534D01*
X280470D01*
Y-93657D01*
X280590Y-94571D01*
X280943Y-95422D01*
X281504Y-96153D01*
X287401Y-102051D01*
Y-102551D01*
X274647Y-115305D01*
X274006Y-116140D01*
X273603Y-117113D01*
X273465Y-118157D01*
X273465Y-118158D01*
Y-140500D01*
X273465Y-140500D01*
X273603Y-141544D01*
X274006Y-142517D01*
X274647Y-143353D01*
X282147Y-150853D01*
X282983Y-151494D01*
X283956Y-151897D01*
X285000Y-152034D01*
X315000D01*
Y-165000D01*
X305000Y-175000D01*
X295000D01*
X285000Y-185000D01*
Y-196951D01*
X224250D01*
Y-196000D01*
X207250D01*
Y-191000D01*
X190250D01*
Y-192359D01*
X185316D01*
Y-189963D01*
X185299D01*
X185250Y-189465D01*
X185353Y-189445D01*
X186047Y-188981D01*
X186047Y-188981D01*
X186047Y-188981D01*
X200314Y-174714D01*
X200778Y-174019D01*
X200778Y-174019D01*
X200778Y-174019D01*
X200941Y-173200D01*
Y-156355D01*
X200778Y-155536D01*
X200314Y-154841D01*
X186459Y-140986D01*
X185764Y-140522D01*
X184945Y-140359D01*
X52795D01*
X52476Y-140145D01*
X51500Y-139951D01*
X50524Y-140145D01*
X49698Y-140698D01*
X49145Y-141525D01*
X48951Y-142500D01*
X49145Y-143475D01*
X49698Y-144302D01*
X49719Y-144516D01*
X49716Y-144488D01*
X49380Y-144859D01*
X44110D01*
X43889Y-144411D01*
X44338Y-143328D01*
X44491Y-142165D01*
X44338Y-141003D01*
X43889Y-139920D01*
X43176Y-138990D01*
X42246Y-138276D01*
X41162Y-137827D01*
X40000Y-137674D01*
X38838Y-137827D01*
X37754Y-138276D01*
X36824Y-138990D01*
X36110Y-139920D01*
X35662Y-141003D01*
X35509Y-142165D01*
X35662Y-143328D01*
X36110Y-144411D01*
X35890Y-144859D01*
X35165D01*
X34346Y-145022D01*
X33723Y-145438D01*
X33382Y-145073D01*
X33889Y-144411D01*
X34338Y-143328D01*
X34491Y-142165D01*
X34338Y-141003D01*
X33889Y-139920D01*
X33176Y-138990D01*
X32246Y-138276D01*
X31162Y-137827D01*
X30000Y-137674D01*
X28838Y-137827D01*
X27754Y-138276D01*
X26824Y-138990D01*
X26111Y-139920D01*
X25662Y-141003D01*
X25509Y-142165D01*
X25662Y-143328D01*
X26111Y-144411D01*
X26824Y-145341D01*
X27754Y-146055D01*
X28838Y-146503D01*
X30000Y-146657D01*
X31162Y-146503D01*
X32246Y-146055D01*
X32810Y-145622D01*
X33140Y-145998D01*
X31267Y-147871D01*
X31162Y-147827D01*
X30000Y-147674D01*
X28838Y-147827D01*
X27754Y-148276D01*
X26824Y-148990D01*
X26111Y-149920D01*
X25662Y-151003D01*
X25509Y-152165D01*
X25662Y-153328D01*
X26111Y-154411D01*
X26824Y-155341D01*
X27754Y-156055D01*
X28838Y-156503D01*
X30000Y-156657D01*
X31162Y-156503D01*
X32246Y-156055D01*
X33176Y-155341D01*
X33889Y-154411D01*
X34338Y-153328D01*
X34491Y-152165D01*
X34338Y-151003D01*
X34295Y-150899D01*
X35809Y-149384D01*
X36303Y-149466D01*
X36364Y-149590D01*
X36110Y-149920D01*
X35662Y-151003D01*
X35509Y-152165D01*
X35662Y-153328D01*
X36110Y-154411D01*
X36824Y-155341D01*
X37754Y-156055D01*
X38838Y-156503D01*
X40000Y-156657D01*
X41162Y-156503D01*
X42246Y-156055D01*
X43176Y-155341D01*
X43889Y-154411D01*
X43933Y-154306D01*
X50335D01*
X51154Y-154144D01*
X51849Y-153679D01*
X54887Y-150641D01*
X68177D01*
X68369Y-151103D01*
X49448Y-170024D01*
X43933D01*
X43889Y-169920D01*
X43176Y-168990D01*
X42246Y-168276D01*
X41162Y-167827D01*
X40000Y-167674D01*
X38838Y-167827D01*
X37754Y-168276D01*
X36824Y-168990D01*
X36110Y-169920D01*
X35662Y-171003D01*
X35509Y-172165D01*
X35662Y-173328D01*
X36110Y-174411D01*
X36824Y-175341D01*
X37754Y-176055D01*
X38838Y-176504D01*
X40000Y-176656D01*
X41162Y-176504D01*
X42246Y-176055D01*
X43176Y-175341D01*
X43889Y-174411D01*
X43933Y-174306D01*
X50335D01*
X51154Y-174144D01*
X51849Y-173679D01*
X71887Y-153641D01*
X77228D01*
X77545Y-154028D01*
X77451Y-154500D01*
X77645Y-155475D01*
X78198Y-156302D01*
X79024Y-156855D01*
X80000Y-157049D01*
X80976Y-156855D01*
X81295Y-156641D01*
X183613D01*
X187859Y-160887D01*
Y-168668D01*
X184210Y-172317D01*
X183748Y-172126D01*
Y-163063D01*
X163031D01*
Y-165628D01*
X162569Y-166231D01*
X162116Y-167325D01*
X161961Y-168500D01*
X162116Y-169675D01*
X162569Y-170769D01*
X163031Y-171372D01*
Y-173937D01*
X163913D01*
Y-174878D01*
X163451Y-175069D01*
X155368Y-166986D01*
X154674Y-166522D01*
X153854Y-166359D01*
X150799D01*
X150746Y-166231D01*
X150284Y-165628D01*
Y-163063D01*
X129567D01*
Y-173937D01*
X150284D01*
Y-171372D01*
X150746Y-170769D01*
X150799Y-170641D01*
X152967D01*
X161354Y-179028D01*
Y-183339D01*
X160892Y-183530D01*
X156248Y-178886D01*
X155553Y-178422D01*
X154734Y-178259D01*
X79655D01*
X78836Y-178422D01*
X78141Y-178886D01*
X57003Y-200024D01*
X43933D01*
X43889Y-199920D01*
X43176Y-198990D01*
X42246Y-198276D01*
X41162Y-197827D01*
X40000Y-197674D01*
X38838Y-197827D01*
X37754Y-198276D01*
X37190Y-198709D01*
X36860Y-198333D01*
X38733Y-196460D01*
X38838Y-196503D01*
X40000Y-196657D01*
X41162Y-196503D01*
X42246Y-196055D01*
X43176Y-195341D01*
X43889Y-194411D01*
X44338Y-193328D01*
X44491Y-192165D01*
X44338Y-191003D01*
X43889Y-189920D01*
X43176Y-188990D01*
X42246Y-188276D01*
X41162Y-187827D01*
X40000Y-187674D01*
X38838Y-187827D01*
X37754Y-188276D01*
X36824Y-188990D01*
X36110Y-189920D01*
X35662Y-191003D01*
X35509Y-192165D01*
X35662Y-193328D01*
X35705Y-193432D01*
X34469Y-194668D01*
X33976Y-194587D01*
X33889Y-194411D01*
X34338Y-193328D01*
X34491Y-192165D01*
X34338Y-191003D01*
X33889Y-189920D01*
X33176Y-188990D01*
X32246Y-188276D01*
X31162Y-187827D01*
X30000Y-187674D01*
X28838Y-187827D01*
X27754Y-188276D01*
X26824Y-188990D01*
X26111Y-189920D01*
X25662Y-191003D01*
X25509Y-192165D01*
X25662Y-193328D01*
X26111Y-194411D01*
X25890Y-194859D01*
X25500D01*
X24681Y-195022D01*
X23986Y-195486D01*
X18486Y-200986D01*
X18022Y-201681D01*
X17859Y-202500D01*
Y-222500D01*
X18022Y-223319D01*
X18486Y-224014D01*
X24486Y-230014D01*
X25181Y-230478D01*
X25181Y-230478D01*
X25181Y-230478D01*
D01*
X25181Y-230478D01*
X25181Y-230478D01*
X26000Y-230641D01*
X44000D01*
X44819Y-230478D01*
X45514Y-230014D01*
X45514Y-230014D01*
X45514Y-230014D01*
X84187Y-191341D01*
X128313D01*
X131986Y-195014D01*
X132681Y-195478D01*
X132681Y-195478D01*
X132681Y-195478D01*
D01*
X132681Y-195478D01*
X132681Y-195478D01*
X133500Y-195641D01*
X144613D01*
X144859Y-195887D01*
Y-198000D01*
X145022Y-198819D01*
X145022Y-198819D01*
X145022Y-198819D01*
X145486Y-199514D01*
X147486Y-201514D01*
X148181Y-201978D01*
X149000Y-202141D01*
X175113D01*
X176708Y-203736D01*
Y-219963D01*
X172383D01*
Y-222875D01*
X172218Y-222986D01*
X171753Y-223681D01*
X171590Y-224500D01*
Y-245547D01*
X166747D01*
X166556Y-245085D01*
X170127Y-241514D01*
X170592Y-240819D01*
X170592Y-240819D01*
X170592Y-240819D01*
X170755Y-240000D01*
Y-224500D01*
X170592Y-223681D01*
X170127Y-222986D01*
X169961Y-222875D01*
Y-219963D01*
X164706D01*
Y-222875D01*
X164540Y-222986D01*
X164076Y-223681D01*
X163913Y-224500D01*
Y-238472D01*
X162226Y-240159D01*
X137589D01*
X136769Y-240322D01*
X136075Y-240786D01*
X131986Y-244875D01*
X131537Y-245547D01*
X125547D01*
Y-254453D01*
X131359D01*
Y-259750D01*
X126750D01*
Y-268250D01*
D01*
Y-268250D01*
X126500Y-268500D01*
X126250D01*
Y-275500D01*
X134750D01*
Y-268500D01*
X133750D01*
Y-268250D01*
X133750D01*
Y-263778D01*
X135000Y-262528D01*
X136250Y-263778D01*
Y-268250D01*
D01*
Y-268250D01*
X136000Y-268500D01*
X135250D01*
Y-275500D01*
X143750D01*
Y-268500D01*
X143250D01*
Y-268250D01*
X143250D01*
Y-259750D01*
X138641D01*
Y-254691D01*
X139017Y-254362D01*
X140000Y-254491D01*
X141162Y-254338D01*
X142246Y-253889D01*
X143176Y-253176D01*
X143889Y-252246D01*
X144338Y-251162D01*
X144491Y-250000D01*
X144338Y-248838D01*
X143889Y-247754D01*
X143379Y-247090D01*
X143600Y-246641D01*
X164113D01*
X164933Y-246478D01*
X165106Y-246362D01*
X165547Y-246598D01*
Y-254453D01*
X171590D01*
Y-259632D01*
X171472Y-259750D01*
X166750D01*
Y-268250D01*
D01*
Y-268250D01*
X166500Y-268500D01*
X166250D01*
Y-275500D01*
X174750D01*
Y-268500D01*
X173750D01*
Y-268250D01*
X173750D01*
Y-263528D01*
X174750Y-262528D01*
X175250D01*
X176250Y-263528D01*
Y-268250D01*
D01*
Y-268250D01*
X176000Y-268500D01*
X175250D01*
Y-275500D01*
X183750D01*
Y-268500D01*
X183250D01*
Y-268250D01*
X183250D01*
Y-259750D01*
X178528D01*
X178432Y-259654D01*
Y-254609D01*
X178838Y-254338D01*
X180000Y-254491D01*
X181162Y-254338D01*
X182246Y-253889D01*
X183176Y-253176D01*
X183889Y-252246D01*
X184338Y-251162D01*
X184491Y-250000D01*
X184338Y-248838D01*
X183889Y-247754D01*
X183176Y-246824D01*
X182246Y-246111D01*
X181162Y-245662D01*
X180000Y-245509D01*
X178838Y-245662D01*
X178432Y-245391D01*
Y-229037D01*
X179268D01*
Y-229909D01*
X179430Y-230728D01*
X179895Y-231423D01*
X186750Y-238278D01*
Y-242000D01*
X193250D01*
Y-243000D01*
X201750D01*
Y-241141D01*
X203016D01*
X203069Y-241269D01*
X203791Y-242209D01*
X204731Y-242931D01*
X205825Y-243384D01*
X207000Y-243539D01*
X208175Y-243384D01*
X209269Y-242931D01*
X210209Y-242209D01*
X210931Y-241269D01*
X211384Y-240175D01*
X211539Y-239000D01*
X211384Y-237825D01*
X210931Y-236731D01*
X210209Y-235791D01*
X209269Y-235069D01*
X208175Y-234616D01*
X207000Y-234461D01*
X205825Y-234616D01*
X204731Y-235069D01*
X203791Y-235791D01*
X203069Y-236731D01*
X203016Y-236859D01*
X201750D01*
Y-236000D01*
X190528D01*
X183550Y-229022D01*
Y-224500D01*
X183387Y-223681D01*
X182923Y-222986D01*
X182757Y-222875D01*
Y-219963D01*
X180991D01*
Y-203047D01*
X181681Y-202978D01*
X181681Y-202978D01*
D01*
X181681Y-202978D01*
X181681Y-202978D01*
X182500Y-203141D01*
X187500D01*
X188319Y-202978D01*
X189014Y-202514D01*
X189887Y-201641D01*
X207250D01*
Y-203000D01*
X224250D01*
Y-202049D01*
X283944D01*
X285000Y-203105D01*
Y-290000D01*
X275000Y-300000D01*
X178794D01*
Y-293500D01*
X182500D01*
Y-285000D01*
X181294D01*
Y-283500D01*
X192250D01*
Y-276500D01*
X175250D01*
Y-283500D01*
X176706D01*
Y-285000D01*
X175500D01*
Y-290256D01*
X175000Y-290756D01*
X174500Y-290256D01*
Y-285000D01*
X173294D01*
Y-283500D01*
X174750D01*
Y-276500D01*
X157750D01*
Y-283500D01*
X168706D01*
Y-285000D01*
X167500D01*
Y-293500D01*
X171206D01*
Y-300000D01*
X138794D01*
Y-283950D01*
X139244Y-283500D01*
X152250D01*
Y-276500D01*
X135250D01*
Y-280609D01*
X135000Y-280777D01*
X134750Y-280609D01*
Y-276500D01*
X117750D01*
Y-283500D01*
X130756D01*
X131206Y-283950D01*
Y-300000D01*
X5000D01*
X2039Y-297039D01*
Y-67961D01*
X5000Y-65000D01*
X103000D01*
Y-65488D01*
X103000D01*
Y-79512D01*
X105206D01*
Y-86148D01*
X104324Y-86824D01*
X103611Y-87754D01*
X103162Y-88838D01*
X103009Y-90000D01*
X103162Y-91162D01*
X103611Y-92246D01*
X104324Y-93176D01*
X105254Y-93889D01*
X106338Y-94338D01*
X107500Y-94491D01*
X108662Y-94338D01*
X109621Y-93941D01*
X109899Y-94357D01*
X103756Y-100500D01*
X99250D01*
Y-107500D01*
X107750D01*
Y-102994D01*
X116398Y-94346D01*
X117500Y-94491D01*
X118662Y-94338D01*
X119746Y-93889D01*
X120676Y-93176D01*
X120732Y-93102D01*
X121206Y-93262D01*
Y-96050D01*
X118878Y-98378D01*
X118380Y-99122D01*
X118206Y-100000D01*
Y-100500D01*
X116250D01*
Y-107500D01*
X124750D01*
Y-100500D01*
X123898D01*
X123706Y-100038D01*
X125122Y-98622D01*
X125619Y-97878D01*
X125794Y-97000D01*
Y-78500D01*
X125619Y-77622D01*
X125122Y-76878D01*
X122039Y-73795D01*
Y-69988D01*
X121884Y-68814D01*
X121431Y-67719D01*
X120709Y-66779D01*
X119769Y-66057D01*
X118675Y-65604D01*
X117876Y-65499D01*
X117909Y-65000D01*
X128000D01*
Y-65488D01*
X128000D01*
Y-79512D01*
X130206D01*
Y-86148D01*
X129324Y-86824D01*
X128611Y-87754D01*
X128162Y-88838D01*
X128009Y-90000D01*
X128162Y-91162D01*
X128611Y-92246D01*
X129324Y-93176D01*
X130254Y-93889D01*
X131338Y-94338D01*
X132500Y-94491D01*
X133662Y-94338D01*
X134621Y-93941D01*
X134899Y-94357D01*
X128756Y-100500D01*
X125250D01*
Y-107500D01*
X133750D01*
Y-101994D01*
X141398Y-94346D01*
X142500Y-94491D01*
X143662Y-94338D01*
X144746Y-93889D01*
X145676Y-93176D01*
X145732Y-93102D01*
X146206Y-93262D01*
Y-97050D01*
X144878Y-98378D01*
X144380Y-99122D01*
X144206Y-100000D01*
Y-100500D01*
X142250D01*
Y-107500D01*
X150750D01*
Y-100500D01*
X149898D01*
X149706Y-100038D01*
X150122Y-99622D01*
X150619Y-98878D01*
X150794Y-98000D01*
Y-78500D01*
X150619Y-77622D01*
X150122Y-76878D01*
X147039Y-73795D01*
Y-69988D01*
X146884Y-68814D01*
X146431Y-67719D01*
X145709Y-66779D01*
X144769Y-66057D01*
X143675Y-65604D01*
X142876Y-65499D01*
X142909Y-65000D01*
X180000D01*
X185000Y-60000D01*
Y-5000D01*
X187961Y-2039D01*
X312039D01*
X315000Y-5000D01*
D02*
G37*
%LPC*%
G36*
X30000Y-177674D02*
X28838Y-177827D01*
X27754Y-178276D01*
X26824Y-178990D01*
X26111Y-179920D01*
X25662Y-181003D01*
X25509Y-182165D01*
X25662Y-183328D01*
X26111Y-184411D01*
X26824Y-185341D01*
X27754Y-186055D01*
X28838Y-186504D01*
X30000Y-186656D01*
X31162Y-186504D01*
X32246Y-186055D01*
X33176Y-185341D01*
X33889Y-184411D01*
X34338Y-183328D01*
X34491Y-182165D01*
X34338Y-181003D01*
X33889Y-179920D01*
X33176Y-178990D01*
X32246Y-178276D01*
X31162Y-177827D01*
X30000Y-177674D01*
D02*
G37*
G36*
X104453Y-195547D02*
X95547D01*
Y-204453D01*
X104453D01*
Y-195547D01*
D02*
G37*
G36*
X92500Y-168009D02*
X91338Y-168162D01*
X90254Y-168611D01*
X89324Y-169324D01*
X88611Y-170254D01*
X88162Y-171338D01*
X88009Y-172500D01*
X88162Y-173662D01*
X88611Y-174746D01*
X89324Y-175676D01*
X90254Y-176390D01*
X91338Y-176838D01*
X92500Y-176991D01*
X93662Y-176838D01*
X94746Y-176390D01*
X95676Y-175676D01*
X96390Y-174746D01*
X96838Y-173662D01*
X96991Y-172500D01*
X96838Y-171338D01*
X96390Y-170254D01*
X95676Y-169324D01*
X94746Y-168611D01*
X93662Y-168162D01*
X92500Y-168009D01*
D02*
G37*
G36*
X110000Y-167961D02*
X108825Y-168116D01*
X107731Y-168569D01*
X106791Y-169291D01*
X106069Y-170231D01*
X105616Y-171325D01*
X105461Y-172500D01*
X105616Y-173675D01*
X106069Y-174769D01*
X106791Y-175709D01*
X107731Y-176431D01*
X108825Y-176884D01*
X110000Y-177039D01*
X111175Y-176884D01*
X112269Y-176431D01*
X113209Y-175709D01*
X113931Y-174769D01*
X114384Y-173675D01*
X114539Y-172500D01*
X114384Y-171325D01*
X113931Y-170231D01*
X113209Y-169291D01*
X112269Y-168569D01*
X111175Y-168116D01*
X110000Y-167961D01*
D02*
G37*
G36*
X40000Y-177674D02*
X38838Y-177827D01*
X37754Y-178276D01*
X36824Y-178990D01*
X36110Y-179920D01*
X35662Y-181003D01*
X35509Y-182165D01*
X35662Y-183328D01*
X36110Y-184411D01*
X36824Y-185341D01*
X37754Y-186055D01*
X38838Y-186504D01*
X40000Y-186656D01*
X41162Y-186504D01*
X42246Y-186055D01*
X43176Y-185341D01*
X43889Y-184411D01*
X44338Y-183328D01*
X44491Y-182165D01*
X44338Y-181003D01*
X43889Y-179920D01*
X43176Y-178990D01*
X42246Y-178276D01*
X41162Y-177827D01*
X40000Y-177674D01*
D02*
G37*
G36*
X70000Y-235509D02*
X68838Y-235662D01*
X67754Y-236110D01*
X66824Y-236824D01*
X66110Y-237754D01*
X65662Y-238838D01*
X65509Y-240000D01*
X65662Y-241162D01*
X66110Y-242246D01*
X66824Y-243176D01*
X67754Y-243889D01*
X68838Y-244338D01*
X70000Y-244491D01*
X71162Y-244338D01*
X72246Y-243889D01*
X73176Y-243176D01*
X73889Y-242246D01*
X74338Y-241162D01*
X74491Y-240000D01*
X74338Y-238838D01*
X73889Y-237754D01*
X73176Y-236824D01*
X72246Y-236110D01*
X71162Y-235662D01*
X70000Y-235509D01*
D02*
G37*
G36*
Y-250509D02*
X68838Y-250662D01*
X67754Y-251111D01*
X66824Y-251824D01*
X66110Y-252754D01*
X65662Y-253838D01*
X65509Y-255000D01*
X65662Y-256162D01*
X66110Y-257246D01*
X66824Y-258176D01*
X67754Y-258890D01*
X68838Y-259338D01*
X70000Y-259491D01*
X71162Y-259338D01*
X72246Y-258890D01*
X73176Y-258176D01*
X73889Y-257246D01*
X74338Y-256162D01*
X74491Y-255000D01*
X74338Y-253838D01*
X73889Y-252754D01*
X73176Y-251824D01*
X72246Y-251111D01*
X71162Y-250662D01*
X70000Y-250509D01*
D02*
G37*
G36*
X80000Y-235509D02*
X78838Y-235662D01*
X77754Y-236110D01*
X76824Y-236824D01*
X76111Y-237754D01*
X75662Y-238838D01*
X75509Y-240000D01*
X75662Y-241162D01*
X76111Y-242246D01*
X76824Y-243176D01*
X77754Y-243889D01*
X78838Y-244338D01*
X80000Y-244491D01*
X81162Y-244338D01*
X82246Y-243889D01*
X83176Y-243176D01*
X83890Y-242246D01*
X84338Y-241162D01*
X84491Y-240000D01*
X84338Y-238838D01*
X83890Y-237754D01*
X83176Y-236824D01*
X82246Y-236110D01*
X81162Y-235662D01*
X80000Y-235509D01*
D02*
G37*
G36*
X119453Y-195547D02*
X110547D01*
Y-204453D01*
X115530D01*
X116277Y-205199D01*
X116056Y-205648D01*
X115000Y-205509D01*
X113838Y-205662D01*
X112754Y-206111D01*
X111824Y-206824D01*
X111110Y-207754D01*
X110662Y-208838D01*
X110509Y-210000D01*
X110662Y-211162D01*
X111110Y-212246D01*
X111824Y-213176D01*
X112754Y-213890D01*
X113838Y-214338D01*
X115000Y-214491D01*
X116162Y-214338D01*
X117246Y-213890D01*
X118176Y-213176D01*
X118889Y-212246D01*
X119338Y-211162D01*
X119491Y-210000D01*
X119352Y-208944D01*
X119801Y-208723D01*
X120226Y-209149D01*
Y-215500D01*
X120321Y-216218D01*
X120483Y-216610D01*
X120598Y-216887D01*
X121039Y-217461D01*
X125539Y-221961D01*
X126027Y-222336D01*
X126060Y-222835D01*
X125198Y-223698D01*
X124645Y-224524D01*
X124550Y-225000D01*
X123750D01*
Y-231000D01*
X126819D01*
X126854Y-231084D01*
X126576Y-231500D01*
X123750D01*
Y-232359D01*
X100500D01*
X99681Y-232522D01*
X98986Y-232986D01*
X81267Y-250705D01*
X81162Y-250662D01*
X80000Y-250509D01*
X78838Y-250662D01*
X77754Y-251111D01*
X76824Y-251824D01*
X76111Y-252754D01*
X75662Y-253838D01*
X75509Y-255000D01*
X75662Y-256162D01*
X76111Y-257246D01*
X76824Y-258176D01*
X77754Y-258890D01*
X78838Y-259338D01*
X80000Y-259491D01*
X81162Y-259338D01*
X82246Y-258890D01*
X83176Y-258176D01*
X83890Y-257246D01*
X84338Y-256162D01*
X84491Y-255000D01*
X84338Y-253838D01*
X84295Y-253733D01*
X101387Y-236641D01*
X123750D01*
Y-237500D01*
X130250D01*
Y-234278D01*
X133250Y-231278D01*
X133750D01*
X135736Y-233264D01*
X136431Y-233728D01*
X137250Y-233891D01*
X139250D01*
Y-238000D01*
X145750D01*
Y-237141D01*
X152500D01*
Y-238750D01*
X158500D01*
Y-236464D01*
X162450Y-232514D01*
X162914Y-231819D01*
X163077Y-231000D01*
Y-224500D01*
X162914Y-223681D01*
X162450Y-222986D01*
X162284Y-222875D01*
Y-219963D01*
X157959D01*
Y-211318D01*
X157796Y-210499D01*
X157332Y-209804D01*
X155014Y-207486D01*
X154319Y-207022D01*
X153500Y-206859D01*
X143500D01*
X142681Y-207022D01*
X141986Y-207486D01*
X139972Y-209500D01*
X136750D01*
Y-212722D01*
X132972Y-216500D01*
X128250D01*
X128250Y-216500D01*
Y-216500D01*
X128018Y-216596D01*
X125774Y-214351D01*
Y-208000D01*
X125679Y-207282D01*
X125402Y-206613D01*
X124961Y-206039D01*
X119453Y-200530D01*
Y-195547D01*
D02*
G37*
G36*
X100000Y-205509D02*
X98838Y-205662D01*
X97754Y-206111D01*
X96824Y-206824D01*
X96110Y-207754D01*
X95662Y-208838D01*
X95509Y-210000D01*
X95662Y-211162D01*
X96110Y-212246D01*
X96824Y-213176D01*
X97754Y-213890D01*
X98838Y-214338D01*
X100000Y-214491D01*
X101162Y-214338D01*
X102246Y-213890D01*
X103176Y-213176D01*
X103890Y-212246D01*
X104338Y-211162D01*
X104491Y-210000D01*
X104338Y-208838D01*
X103890Y-207754D01*
X103176Y-206824D01*
X102246Y-206111D01*
X101162Y-205662D01*
X100000Y-205509D01*
D02*
G37*
G36*
X30000Y-167674D02*
X28838Y-167827D01*
X27754Y-168276D01*
X26824Y-168990D01*
X26111Y-169920D01*
X25662Y-171003D01*
X25509Y-172165D01*
X25662Y-173328D01*
X26111Y-174411D01*
X26824Y-175341D01*
X27754Y-176055D01*
X28838Y-176504D01*
X30000Y-176656D01*
X31162Y-176504D01*
X32246Y-176055D01*
X33176Y-175341D01*
X33889Y-174411D01*
X34338Y-173328D01*
X34491Y-172165D01*
X34338Y-171003D01*
X33889Y-169920D01*
X33176Y-168990D01*
X32246Y-168276D01*
X31162Y-167827D01*
X30000Y-167674D01*
D02*
G37*
G36*
X291331Y-49453D02*
X282669D01*
X281250Y-49640D01*
X279927Y-50188D01*
X278792Y-51059D01*
X277920Y-52195D01*
X277372Y-53518D01*
X277185Y-54937D01*
X277372Y-56356D01*
X277920Y-57679D01*
X278195Y-58037D01*
X273231Y-63000D01*
X266750D01*
Y-76000D01*
X277250D01*
Y-70393D01*
X287222Y-60421D01*
X291331D01*
X292750Y-60234D01*
X294073Y-59686D01*
X295208Y-58815D01*
X296080Y-57679D01*
X296628Y-56356D01*
X296815Y-54937D01*
X296628Y-53518D01*
X296080Y-52195D01*
X295208Y-51059D01*
X294073Y-50188D01*
X292750Y-49640D01*
X291331Y-49453D01*
D02*
G37*
G36*
X142250Y-108500D02*
X125250D01*
Y-115500D01*
X142250D01*
Y-108500D01*
D02*
G37*
G36*
X208000Y-44750D02*
X201000D01*
Y-53250D01*
X208000D01*
Y-51774D01*
X211622D01*
Y-53158D01*
X211726D01*
Y-54500D01*
X208000D01*
Y-67500D01*
X215077D01*
X215226Y-67649D01*
Y-68250D01*
X214500D01*
Y-72077D01*
X214351Y-72226D01*
X208544D01*
X208209Y-71791D01*
X207269Y-71069D01*
X206175Y-70616D01*
X205000Y-70461D01*
X203825Y-70616D01*
X202731Y-71069D01*
X201791Y-71791D01*
X201069Y-72731D01*
X200616Y-73825D01*
X200461Y-75000D01*
X200616Y-76175D01*
X201069Y-77269D01*
X201791Y-78209D01*
X202731Y-78931D01*
X203825Y-79384D01*
X205000Y-79539D01*
X206175Y-79384D01*
X207269Y-78931D01*
X208209Y-78209D01*
X208544Y-77774D01*
X215500D01*
X216218Y-77679D01*
X216610Y-77517D01*
X216887Y-77402D01*
X217461Y-76961D01*
X217673Y-76750D01*
X221500D01*
Y-68250D01*
X220774D01*
Y-66500D01*
X220679Y-65782D01*
X220402Y-65113D01*
X219961Y-64539D01*
X217000Y-61577D01*
Y-60151D01*
X217179Y-59718D01*
X217274Y-59000D01*
X217274Y-59000D01*
X217274Y-59000D01*
Y-59000D01*
Y-53158D01*
X217378D01*
Y-44842D01*
X211622D01*
Y-46226D01*
X208000D01*
Y-44750D01*
D02*
G37*
G36*
X236953Y-10547D02*
X228047D01*
Y-19453D01*
X229726D01*
Y-46226D01*
X229189D01*
Y-44842D01*
X223433D01*
Y-53158D01*
X229189D01*
Y-51774D01*
X235250D01*
Y-52500D01*
X243750D01*
Y-51774D01*
X244500D01*
Y-53500D01*
X249794D01*
X250965Y-54671D01*
Y-63000D01*
X249750D01*
Y-76000D01*
X250965D01*
Y-77000D01*
X249750D01*
Y-90000D01*
X250965D01*
Y-94981D01*
X250616Y-95825D01*
X250461Y-97000D01*
X250616Y-98175D01*
X251069Y-99269D01*
X251791Y-100209D01*
X252731Y-100931D01*
X253825Y-101384D01*
X255000Y-101539D01*
X256175Y-101384D01*
X257269Y-100931D01*
X258209Y-100209D01*
X258931Y-99269D01*
X259384Y-98175D01*
X259539Y-97000D01*
X259384Y-95825D01*
X259034Y-94981D01*
Y-90000D01*
X260250D01*
Y-77000D01*
X259034D01*
Y-76000D01*
X260250D01*
Y-63000D01*
X259034D01*
Y-53000D01*
X258897Y-51956D01*
X258494Y-50983D01*
X258216Y-50620D01*
X257853Y-50147D01*
X257853Y-50147D01*
X257500Y-49794D01*
Y-44500D01*
X244500D01*
Y-46226D01*
X243750D01*
Y-45500D01*
X235274D01*
Y-19453D01*
X236953D01*
Y-10547D01*
D02*
G37*
G36*
X200000Y-36250D02*
X193000D01*
Y-44750D01*
Y-53250D01*
X200000D01*
Y-44750D01*
Y-36250D01*
D02*
G37*
G36*
X40000Y-157674D02*
X38838Y-157827D01*
X37754Y-158276D01*
X36824Y-158990D01*
X36110Y-159920D01*
X35662Y-161003D01*
X35509Y-162165D01*
X35662Y-163328D01*
X36110Y-164411D01*
X36824Y-165341D01*
X37754Y-166055D01*
X38838Y-166504D01*
X40000Y-166656D01*
X41162Y-166504D01*
X42246Y-166055D01*
X43176Y-165341D01*
X43889Y-164411D01*
X44338Y-163328D01*
X44491Y-162165D01*
X44338Y-161003D01*
X43889Y-159920D01*
X43176Y-158990D01*
X42246Y-158276D01*
X41162Y-157827D01*
X40000Y-157674D01*
D02*
G37*
G36*
X30000D02*
X28838Y-157827D01*
X27754Y-158276D01*
X26824Y-158990D01*
X26111Y-159920D01*
X25662Y-161003D01*
X25509Y-162165D01*
X25662Y-163328D01*
X26111Y-164411D01*
X26824Y-165341D01*
X27754Y-166055D01*
X28838Y-166504D01*
X30000Y-166656D01*
X31162Y-166504D01*
X32246Y-166055D01*
X33176Y-165341D01*
X33889Y-164411D01*
X34338Y-163328D01*
X34491Y-162165D01*
X34338Y-161003D01*
X33889Y-159920D01*
X33176Y-158990D01*
X32246Y-158276D01*
X31162Y-157827D01*
X30000Y-157674D01*
D02*
G37*
G36*
X92500Y-158009D02*
X91338Y-158162D01*
X90254Y-158610D01*
X89324Y-159324D01*
X88611Y-160254D01*
X88162Y-161338D01*
X88009Y-162500D01*
X88162Y-163662D01*
X88611Y-164746D01*
X89324Y-165676D01*
X90254Y-166390D01*
X91338Y-166838D01*
X92500Y-166991D01*
X93662Y-166838D01*
X94746Y-166390D01*
X95676Y-165676D01*
X96390Y-164746D01*
X96838Y-163662D01*
X96991Y-162500D01*
X96838Y-161338D01*
X96390Y-160254D01*
X95676Y-159324D01*
X94746Y-158610D01*
X93662Y-158162D01*
X92500Y-158009D01*
D02*
G37*
G36*
X116250Y-108500D02*
X99250D01*
Y-115500D01*
X116250D01*
Y-108500D01*
D02*
G37*
G36*
X40000Y-127674D02*
X38838Y-127827D01*
X37754Y-128276D01*
X36824Y-128990D01*
X36110Y-129920D01*
X35662Y-131003D01*
X35509Y-132165D01*
X35662Y-133328D01*
X36110Y-134411D01*
X36824Y-135341D01*
X37754Y-136055D01*
X38838Y-136504D01*
X40000Y-136656D01*
X41162Y-136504D01*
X42246Y-136055D01*
X43176Y-135341D01*
X43889Y-134411D01*
X44338Y-133328D01*
X44491Y-132165D01*
X44338Y-131003D01*
X43889Y-129920D01*
X43176Y-128990D01*
X42246Y-128276D01*
X41162Y-127827D01*
X40000Y-127674D01*
D02*
G37*
%LPD*%
G36*
X153677Y-212205D02*
Y-224500D01*
X153840Y-225319D01*
X154304Y-226014D01*
X154470Y-226125D01*
Y-229037D01*
X155159D01*
X155224Y-229193D01*
X154946Y-229609D01*
X145750D01*
Y-226641D01*
X149352D01*
Y-229037D01*
X152048D01*
Y-226125D01*
X152214Y-226014D01*
X152678Y-225319D01*
X152841Y-224500D01*
X152678Y-223681D01*
X152214Y-222986D01*
X152048Y-222875D01*
Y-219963D01*
X149352D01*
Y-222359D01*
X145744D01*
X145302Y-221698D01*
X144475Y-221145D01*
X143500Y-220951D01*
X142525Y-221145D01*
X141698Y-221698D01*
X141145Y-222524D01*
X141080Y-222852D01*
X140602Y-222997D01*
X136816Y-219212D01*
Y-218712D01*
X140028Y-215500D01*
X143250D01*
Y-212278D01*
X144387Y-211141D01*
X152613D01*
X153677Y-212205D01*
D02*
G37*
D10*
X293000Y-127264D02*
D03*
D11*
X293000Y-97736D02*
D03*
D12*
X226000Y-61000D02*
D03*
X212500D02*
D03*
D13*
X190000Y-239000D02*
D03*
Y-232500D02*
D03*
X142500Y-235000D02*
D03*
Y-228500D02*
D03*
X140000Y-212500D02*
D03*
Y-219000D02*
D03*
X133500Y-228000D02*
D03*
Y-234500D02*
D03*
X127000Y-228000D02*
D03*
Y-234500D02*
D03*
D14*
X194500Y-186500D02*
D03*
Y-194500D02*
D03*
X129500Y-104000D02*
D03*
Y-112000D02*
D03*
X148000Y-280000D02*
D03*
Y-272000D02*
D03*
X239500Y-49000D02*
D03*
Y-41000D02*
D03*
X132500Y-220000D02*
D03*
Y-212000D02*
D03*
X197500Y-231500D02*
D03*
Y-239500D02*
D03*
X211500Y-199500D02*
D03*
Y-191500D02*
D03*
X170500Y-280000D02*
D03*
Y-272000D02*
D03*
X120500Y-112000D02*
D03*
Y-104000D02*
D03*
X138000Y-112000D02*
D03*
Y-104000D02*
D03*
X139500Y-272000D02*
D03*
Y-280000D02*
D03*
X220000Y-199500D02*
D03*
Y-191500D02*
D03*
X203000Y-186500D02*
D03*
Y-194500D02*
D03*
X162000Y-280000D02*
D03*
Y-272000D02*
D03*
X188000Y-280000D02*
D03*
Y-272000D02*
D03*
X179500Y-280000D02*
D03*
Y-272000D02*
D03*
X112000Y-104000D02*
D03*
Y-112000D02*
D03*
X130500Y-280000D02*
D03*
Y-272000D02*
D03*
X146500Y-112000D02*
D03*
Y-104000D02*
D03*
X122000Y-280000D02*
D03*
Y-272000D02*
D03*
X103500Y-104000D02*
D03*
Y-112000D02*
D03*
D15*
X196500Y-40500D02*
D03*
X204500D02*
D03*
X284000Y-83500D02*
D03*
X292000D02*
D03*
Y-75000D02*
D03*
X284000D02*
D03*
X226000Y-72500D02*
D03*
X218000D02*
D03*
X170250Y-264000D02*
D03*
X162250D02*
D03*
X187750D02*
D03*
X179750D02*
D03*
X122250D02*
D03*
X130250D02*
D03*
X147750D02*
D03*
X139750D02*
D03*
X196500Y-49000D02*
D03*
X204500D02*
D03*
X179000Y-289250D02*
D03*
X171000D02*
D03*
D16*
X309000Y-231000D02*
D03*
X322500D02*
D03*
X309000Y-220000D02*
D03*
X295500D02*
D03*
X376500D02*
D03*
X390000D02*
D03*
X363000Y-231000D02*
D03*
X376500D02*
D03*
X349500Y-220000D02*
D03*
X363000D02*
D03*
X336000Y-231000D02*
D03*
X349500D02*
D03*
X322500Y-220000D02*
D03*
X336000D02*
D03*
D17*
X226311Y-49000D02*
D03*
X214500D02*
D03*
D18*
X220406Y-48114D02*
D03*
D19*
X220406Y-38075D02*
D03*
D20*
X160936Y-224500D02*
D03*
X158377D02*
D03*
X155818D02*
D03*
X171172D02*
D03*
X178850D02*
D03*
X160936Y-194500D02*
D03*
X183968Y-224500D02*
D03*
X153259D02*
D03*
X163495D02*
D03*
X176291D02*
D03*
X173732D02*
D03*
X168613D02*
D03*
X166054D02*
D03*
X171172Y-194500D02*
D03*
X150700D02*
D03*
Y-224500D02*
D03*
X166054Y-194500D02*
D03*
X163495D02*
D03*
X158377D02*
D03*
X155818D02*
D03*
X183968D02*
D03*
X181409D02*
D03*
Y-224500D02*
D03*
X153259Y-194500D02*
D03*
X176291D02*
D03*
D21*
X178850D02*
D03*
X168613D02*
D03*
X173732D02*
D03*
D22*
X132500Y-37500D02*
D03*
X142500Y-72500D02*
D03*
Y-37500D02*
D03*
X117500D02*
D03*
Y-72500D02*
D03*
X107500Y-37500D02*
D03*
D23*
X132500Y-72500D02*
D03*
X107500D02*
D03*
D24*
X139925Y-168500D02*
D03*
X173390D02*
D03*
D25*
X162000Y-235500D02*
D03*
X155500D02*
D03*
D26*
X251000Y-49000D02*
D03*
Y-35500D02*
D03*
D27*
X255000Y-83500D02*
D03*
X272000D02*
D03*
Y-69500D02*
D03*
X255000D02*
D03*
D28*
X284000Y-93657D02*
X293000Y-102657D01*
X284000Y-93657D02*
Y-83500D01*
D29*
X100500Y-234500D02*
X127000D01*
X80000Y-255000D02*
X100500Y-234500D01*
X35165Y-197000D02*
X40000Y-192165D01*
X25500Y-197000D02*
X35165D01*
X20000Y-202500D02*
X25500Y-197000D01*
X20000Y-222500D02*
Y-202500D01*
X26000Y-228500D02*
X44000D01*
X20000Y-222500D02*
X26000Y-228500D01*
X79655Y-180400D02*
X154734D01*
X40000Y-202165D02*
X57890D01*
X79655Y-180400D01*
X80566Y-182600D02*
X153823D01*
X35165Y-207000D02*
X56166D01*
X80566Y-182600D01*
X81477Y-184800D02*
X152911D01*
X43000Y-212165D02*
X54112D01*
X81477Y-184800D01*
X24500Y-217000D02*
X52389D01*
X82389Y-187000D02*
X152000D01*
X52389Y-217000D02*
X82389Y-187000D01*
X44000Y-228500D02*
X83300Y-189200D01*
X25335Y-202165D02*
X30000D01*
X22500Y-205000D02*
X25335Y-202165D01*
X22500Y-215000D02*
Y-205000D01*
Y-215000D02*
X24500Y-217000D01*
X30000Y-212165D02*
X35165Y-207000D01*
Y-147000D02*
X50500D01*
X52000Y-145500D02*
X117500D01*
X30000Y-152165D02*
X35165Y-147000D01*
X50500D02*
X52000Y-145500D01*
X54000Y-148500D02*
X120500D01*
X40000Y-152165D02*
X50335D01*
X54000Y-148500D01*
X71000Y-151500D02*
X184611D01*
X40000Y-172165D02*
X50335D01*
X71000Y-151500D01*
X80000Y-154500D02*
X184500D01*
X143500Y-223500D02*
X144500Y-224500D01*
X150700D01*
X135000Y-190000D02*
X149500D01*
X150700Y-191200D01*
Y-194500D02*
Y-191200D01*
X189000Y-199500D02*
X211500D01*
X187500Y-201000D02*
X189000Y-199500D01*
X182500Y-201000D02*
X187500D01*
X181409Y-199909D02*
Y-194500D01*
Y-199909D02*
X182500Y-201000D01*
X193500Y-194500D02*
X194500Y-193500D01*
X183968Y-194500D02*
X193500D01*
X132500Y-220000D02*
X140000Y-212500D01*
X127000Y-234500D02*
X133500Y-228000D01*
X155818Y-224500D02*
Y-211318D01*
X153500Y-209000D02*
X155818Y-211318D01*
X143500Y-209000D02*
X153500D01*
X140000Y-212500D02*
X143500Y-209000D01*
X171172Y-216328D02*
X172500Y-215000D01*
X171172Y-224500D02*
Y-216328D01*
X160000Y-215000D02*
X163495Y-218495D01*
Y-224500D02*
Y-218495D01*
X176291Y-250000D02*
Y-224500D01*
Y-250000D02*
X180000D01*
X170000D02*
X173732D01*
X166054Y-239359D02*
Y-224500D01*
X130500Y-264000D02*
X133500Y-261000D01*
X130000Y-250000D02*
X133500D01*
X136500D02*
X140000D01*
X136500D02*
Y-246500D01*
X138500Y-244500D01*
X164113D02*
X168613Y-240000D01*
X138500Y-244500D02*
X164113D01*
X168613Y-240000D02*
Y-224500D01*
X133500Y-246389D02*
X137589Y-242300D01*
X163113D01*
X166054Y-239359D01*
X133500Y-250000D02*
Y-246389D01*
X140000Y-219000D02*
X140037Y-218963D01*
X152111D01*
X153259Y-220111D01*
Y-224500D02*
Y-220111D01*
X133500Y-228000D02*
X137250Y-231750D01*
X156127D01*
X158377Y-229500D01*
Y-224500D01*
X155500Y-235500D02*
X156436D01*
X160936Y-231000D01*
Y-224500D01*
X163495Y-234005D02*
Y-224500D01*
X162000Y-235500D02*
X163495Y-234005D01*
X142500Y-235000D02*
X155000D01*
X155500Y-235500D01*
X153259Y-193004D02*
Y-188259D01*
X152000Y-187000D02*
X153259Y-188259D01*
X155818Y-193004D02*
Y-187707D01*
X152911Y-184800D02*
X155818Y-187707D01*
X158377Y-193004D02*
Y-187155D01*
X153823Y-182600D02*
X158377Y-187155D01*
X160936Y-193004D02*
Y-186602D01*
X154734Y-180400D02*
X160936Y-186602D01*
X178850Y-193004D02*
Y-189053D01*
X176291Y-193004D02*
Y-188501D01*
X173732Y-193004D02*
Y-187949D01*
X171172Y-193004D02*
Y-187397D01*
X168613Y-193004D02*
Y-186845D01*
X178850Y-189053D02*
X180436Y-187467D01*
X184533D01*
X176291Y-188501D02*
X179525Y-185267D01*
X183622D01*
X173732Y-187949D02*
X178614Y-183067D01*
X182711D01*
X171172Y-187397D02*
X177702Y-180867D01*
X181799D01*
X168613Y-186845D02*
X176791Y-178667D01*
X180888D01*
X166054Y-193004D02*
Y-168946D01*
X146815Y-168500D02*
X153854D01*
X163495Y-178141D01*
Y-193004D02*
Y-178141D01*
X178850Y-224500D02*
Y-202850D01*
X176000Y-200000D02*
X178850Y-202850D01*
X190000Y-169555D02*
Y-160000D01*
X180888Y-178667D02*
X190000Y-169555D01*
X192200Y-170466D02*
Y-159089D01*
X181799Y-180867D02*
X192200Y-170466D01*
X194400Y-171378D02*
Y-158177D01*
X182711Y-183067D02*
X194400Y-171378D01*
X196600Y-172289D02*
Y-157266D01*
X183622Y-185267D02*
X196600Y-172289D01*
X184533Y-187467D02*
X198800Y-173200D01*
X117500Y-145500D02*
X184834D01*
X196600Y-157266D01*
X120500Y-148500D02*
X184722D01*
X194400Y-158177D01*
X184611Y-151500D02*
X192200Y-159089D01*
X184500Y-154500D02*
X190000Y-160000D01*
X136500Y-261000D02*
X139500Y-264000D01*
X179500Y-289500D02*
Y-289250D01*
X133500Y-261000D02*
Y-260750D01*
X136500D02*
X139750Y-264000D01*
X136500Y-261000D02*
Y-260750D01*
Y-250000D01*
X139500Y-272000D02*
Y-264000D01*
X130250D02*
X133500Y-260750D01*
Y-250000D01*
X130500Y-272000D02*
Y-264000D01*
X184945Y-142500D02*
X198800Y-156355D01*
Y-173200D02*
Y-156355D01*
X51500Y-142500D02*
X184945D01*
X170250Y-264000D02*
X173732Y-260519D01*
X170500Y-272000D02*
Y-264000D01*
X173732Y-250000D02*
Y-224500D01*
Y-260519D02*
Y-250000D01*
X176291Y-260541D02*
X179750Y-264000D01*
X179500Y-272000D02*
Y-264000D01*
X176291Y-260541D02*
Y-250000D01*
X190000Y-239000D02*
Y-238500D01*
X181409Y-229909D02*
X190000Y-238500D01*
X181409Y-229909D02*
Y-224500D01*
X129200Y-189200D02*
X133500Y-193500D01*
X145500D01*
X147000Y-195000D01*
Y-198000D02*
Y-195000D01*
Y-198000D02*
X149000Y-200000D01*
X83300Y-189200D02*
X129200D01*
X149000Y-200000D02*
X176000D01*
X190000Y-239000D02*
X207000D01*
D30*
X205000Y-75000D02*
X215500D01*
X218000Y-72500D02*
Y-66500D01*
X212500Y-61000D02*
X218000Y-66500D01*
X215500Y-75000D02*
X218000Y-72500D01*
X212500Y-61000D02*
X214500Y-59000D01*
Y-49000D01*
X204500D02*
X214500D01*
X127500Y-220000D02*
X132500D01*
X123000Y-215500D02*
X127500Y-220000D01*
X123000Y-215500D02*
Y-208000D01*
X115000Y-200000D02*
X123000Y-208000D01*
X245000Y-35500D02*
X250500D01*
X239500Y-41000D02*
X245000Y-35500D01*
X239500Y-49000D02*
X251000D01*
X204500Y-40500D02*
X206925Y-38075D01*
X220406D01*
X242500Y-27500D02*
X250500Y-35500D01*
X242500Y-27500D02*
Y-15000D01*
X232500Y-49000D02*
X239500D01*
X232500D02*
Y-15000D01*
X226311Y-49000D02*
X232500D01*
X220406Y-55405D02*
Y-48114D01*
Y-55405D02*
X226000Y-61000D01*
D31*
X127000Y-225500D02*
X132500Y-220000D01*
X127000Y-228000D02*
Y-225500D01*
X220000Y-199500D02*
X285000D01*
X211500D02*
X220000D01*
X129500Y-112000D02*
X137000D01*
X103500D02*
X112000D01*
X134000Y-220000D02*
X142500Y-228500D01*
X132500Y-220000D02*
X134000D01*
X140000Y-20000D02*
X142500Y-22500D01*
Y-37500D02*
Y-22500D01*
X130000Y-20000D02*
X132500Y-22500D01*
Y-37500D02*
Y-22500D01*
X107500D02*
X110000Y-20000D01*
X107500Y-37500D02*
Y-22500D01*
X117500D02*
X120000Y-20000D01*
X117500Y-37500D02*
Y-22500D01*
X285000Y-199500D02*
X295500Y-210000D01*
Y-220000D02*
Y-210000D01*
X196500Y-49000D02*
Y-40500D01*
D32*
X176500Y-304000D02*
X185000Y-312500D01*
X173500Y-304000D02*
Y-292500D01*
X165000Y-312500D02*
X173500Y-304000D01*
X176500D02*
Y-292500D01*
X133500Y-304000D02*
Y-283000D01*
X125000Y-312500D02*
X133500Y-304000D01*
X136500D02*
X145000Y-312500D01*
X136500Y-304000D02*
Y-283000D01*
X138000Y-104000D02*
X146000Y-112000D01*
X112000Y-104000D02*
X120000Y-112000D01*
X137000D02*
X138000Y-113000D01*
X103500Y-104000D02*
X117500Y-90000D01*
X148500Y-98000D02*
Y-78500D01*
X146500Y-104000D02*
Y-100000D01*
X148500Y-98000D01*
X123500Y-97000D02*
Y-78500D01*
X120500Y-104000D02*
Y-100000D01*
X123500Y-97000D01*
X129500Y-103000D02*
X142500Y-90000D01*
X129500Y-104000D02*
Y-103000D01*
X194500Y-194500D02*
X203000D01*
X132500Y-90000D02*
Y-72500D01*
X107500Y-90000D02*
Y-72500D01*
X117500D02*
X123500Y-78500D01*
X142500Y-72500D02*
X148500Y-78500D01*
X162000Y-280000D02*
X170500D01*
X179500D02*
X188000D01*
X171000Y-290000D02*
X173500Y-292500D01*
X171000Y-289250D02*
Y-280500D01*
X170500Y-280000D02*
X171000Y-280500D01*
X171500Y-289500D02*
Y-289250D01*
X179000D02*
Y-280500D01*
X179500Y-280000D01*
X176500Y-292500D02*
X179500Y-289500D01*
X130500Y-280000D02*
X133500Y-283000D01*
X136500D02*
X139500Y-280000D01*
X148000D01*
X122000D02*
X130500D01*
D33*
X255000Y-83500D02*
Y-69500D01*
Y-97000D02*
Y-83500D01*
Y-69500D02*
Y-53000D01*
X251000Y-49000D02*
X255000Y-53000D01*
X251000Y-35500D02*
X260476D01*
X250500D02*
X251000D01*
X324000Y-25000D02*
X336500Y-12500D01*
X324000Y-25000D02*
X330827Y-31827D01*
Y-52323D02*
Y-31827D01*
X360355Y-52323D02*
Y-48645D01*
X384000Y-25000D02*
X397500D01*
X360355Y-48645D02*
X384000Y-25000D01*
X425500Y-32500D02*
Y-22500D01*
X415500Y-12500D02*
X425500Y-22500D01*
X336500Y-12500D02*
X415500D01*
X397500Y-220000D02*
Y-25000D01*
X330827Y-113327D02*
Y-52323D01*
Y-113327D02*
X345591Y-128091D01*
Y-135000D02*
Y-128091D01*
X321811Y-122343D02*
X330827Y-113327D01*
X293000Y-122343D02*
X321811D01*
X360355Y-142646D02*
Y-135000D01*
X355000Y-148000D02*
X360355Y-142646D01*
X285000Y-148000D02*
X355000D01*
X277500Y-140500D02*
X285000Y-148000D01*
X277500Y-140500D02*
Y-118157D01*
X293000Y-102657D01*
X376500Y-231000D02*
Y-220000D01*
X363000Y-231000D02*
Y-220000D01*
X349500Y-231000D02*
Y-220000D01*
X336000Y-231000D02*
Y-220000D01*
X322500Y-231000D02*
Y-220000D01*
X309000Y-231000D02*
Y-220000D01*
X390000D02*
X425000D01*
X275189Y-42339D02*
X287000Y-30528D01*
X267315Y-42339D02*
X275189D01*
X260476Y-35500D02*
X267315Y-42339D01*
X272000Y-83500D02*
X283000D01*
X272000Y-69500D02*
X272437D01*
X287000Y-54937D01*
D34*
X284000Y-83500D02*
Y-75000D01*
D35*
X445000Y-52323D02*
D03*
X360355Y-52323D02*
D03*
X330827Y-52323D02*
D03*
X330827Y-135000D02*
D03*
X445000Y-135000D02*
D03*
X345591Y-135000D02*
D03*
X360355Y-135000D02*
D03*
X293000Y-122343D02*
D03*
X293000Y-102657D02*
D03*
D36*
X40000Y-222165D02*
D03*
X30000D02*
D03*
X40000Y-212165D02*
D03*
X30000D02*
D03*
X40000Y-202165D02*
D03*
X30000D02*
D03*
X40000Y-192165D02*
D03*
X30000D02*
D03*
X40000Y-182165D02*
D03*
X30000D02*
D03*
X40000Y-172165D02*
D03*
X30000D02*
D03*
X40000Y-162165D02*
D03*
X30000D02*
D03*
X40000Y-152165D02*
D03*
X30000D02*
D03*
X40000Y-142165D02*
D03*
X30000D02*
D03*
X40000Y-132165D02*
D03*
X115000Y-210000D02*
D03*
Y-220000D02*
D03*
X120000Y-20000D02*
D03*
X130000D02*
D03*
X140000D02*
D03*
Y-250000D02*
D03*
X70000Y-240000D02*
D03*
X80000D02*
D03*
X107500Y-90000D02*
D03*
X117500D02*
D03*
X70000Y-255000D02*
D03*
X80000D02*
D03*
X132500Y-90000D02*
D03*
X142500D02*
D03*
X92500Y-162500D02*
D03*
Y-172500D02*
D03*
X180000Y-250000D02*
D03*
X100000Y-220000D02*
D03*
Y-210000D02*
D03*
X242500Y-15000D02*
D03*
D37*
X30000Y-132165D02*
D03*
D38*
X425000Y-220000D02*
D03*
D39*
Y-180000D02*
D03*
D40*
X115000Y-200000D02*
D03*
X100000D02*
D03*
D41*
X267315Y-42339D02*
D03*
D42*
X287000Y-30528D02*
D03*
D43*
Y-54937D02*
D03*
D44*
X146815Y-168500D02*
D03*
X166500D02*
D03*
X225000Y-250000D02*
D03*
X255000Y-97000D02*
D03*
X205000Y-75000D02*
D03*
X25000Y-250000D02*
D03*
X225000Y-100000D02*
D03*
X25000D02*
D03*
X207000Y-239000D02*
D03*
X110000Y-172500D02*
D03*
X295500Y-210000D02*
D03*
X324000Y-25000D02*
D03*
X384000D02*
D03*
D45*
X110000Y-20000D02*
D03*
X130000Y-250000D02*
D03*
X170000D02*
D03*
X232500Y-15000D02*
D03*
D46*
X165000Y-312500D02*
D03*
X125000D02*
D03*
D47*
X185000D02*
D03*
X145000D02*
D03*
D48*
X402000Y-26250D02*
D03*
X430000Y-33750D02*
D03*
D49*
X100000Y-125000D02*
D03*
X300000Y-140000D02*
D03*
X100000Y-275000D02*
D03*
X25000Y-295000D02*
D03*
Y-275000D02*
D03*
X50000Y-295000D02*
D03*
X75000D02*
D03*
X10000D02*
D03*
X100000D02*
D03*
X115000D02*
D03*
X87500Y-215000D02*
D03*
X70000Y-230000D02*
D03*
X55000D02*
D03*
X105000Y-160000D02*
D03*
X10000Y-275000D02*
D03*
Y-250000D02*
D03*
Y-225000D02*
D03*
Y-200000D02*
D03*
Y-175000D02*
D03*
Y-150000D02*
D03*
X143500Y-223500D02*
D03*
X135000Y-190000D02*
D03*
X130000Y-202500D02*
D03*
X75000Y-160000D02*
D03*
Y-250000D02*
D03*
Y-275000D02*
D03*
X150000Y-125000D02*
D03*
X125000D02*
D03*
X75000D02*
D03*
Y-100000D02*
D03*
Y-75000D02*
D03*
X200000Y-25000D02*
D03*
X190000Y-65000D02*
D03*
X305000Y-100000D02*
D03*
Y-75000D02*
D03*
Y-50000D02*
D03*
Y-25000D02*
D03*
X235000Y-65000D02*
D03*
X275000Y-25000D02*
D03*
X225000D02*
D03*
X195000Y-252500D02*
D03*
X197500Y-262500D02*
D03*
X200000Y-295000D02*
D03*
X275000D02*
D03*
Y-275000D02*
D03*
Y-250000D02*
D03*
Y-225000D02*
D03*
X225000Y-295000D02*
D03*
Y-275000D02*
D03*
X250000Y-295000D02*
D03*
Y-250000D02*
D03*
Y-225000D02*
D03*
Y-175000D02*
D03*
X225000D02*
D03*
Y-150000D02*
D03*
X250000D02*
D03*
X175000Y-100000D02*
D03*
X160000Y-85000D02*
D03*
X250000Y-125000D02*
D03*
X225000D02*
D03*
X175000D02*
D03*
X200000D02*
D03*
Y-100000D02*
D03*
X50000Y-275000D02*
D03*
X45000Y-255000D02*
D03*
X50000Y-125000D02*
D03*
Y-100000D02*
D03*
Y-75000D02*
D03*
X25000D02*
D03*
X85000Y-172500D02*
D03*
X125000Y-170000D02*
D03*
X50000Y-187500D02*
D03*
X10000Y-125000D02*
D03*
X65000Y-215000D02*
D03*
X75000Y-205000D02*
D03*
X87500Y-197500D02*
D03*
X182500Y-160000D02*
D03*
X124000Y-193500D02*
D03*
X115000Y-250000D02*
D03*
X90000Y-235000D02*
D03*
X100000Y-250000D02*
D03*
X163000Y-290000D02*
D03*
X155000D02*
D03*
X147000D02*
D03*
X155000Y-273000D02*
D03*
Y-260000D02*
D03*
X160000Y-250000D02*
D03*
X150000D02*
D03*
X182000Y-237000D02*
D03*
X225000Y-225000D02*
D03*
Y-205000D02*
D03*
X205000Y-230000D02*
D03*
Y-215000D02*
D03*
Y-205000D02*
D03*
X190000Y-215000D02*
D03*
Y-205000D02*
D03*
X143500Y-202500D02*
D03*
X145000Y-215000D02*
D03*
X151500D02*
D03*
X162500Y-205000D02*
D03*
X160000Y-215000D02*
D03*
X172500D02*
D03*
Y-205000D02*
D03*
X152500D02*
D03*
X80000Y-154500D02*
D03*
X51500Y-142500D02*
D03*
X117500Y-145500D02*
D03*
X120500Y-148500D02*
D03*
X10000Y-75000D02*
D03*
Y-100000D02*
D03*
X250000Y-275000D02*
D03*
Y-205000D02*
D03*
X275000D02*
D03*
Y-175000D02*
D03*
Y-150000D02*
D03*
Y-100000D02*
D03*
X57500Y-247500D02*
D03*
X65000Y-177500D02*
D03*
M02*
