%FSLAX25Y25*%
%MOIN*%
G70*
G01*
G75*
G04 Layer_Color=32896*
%ADD10R,0.04725X0.13779*%
%ADD11R,0.04725X0.13779*%
%ADD12R,0.06000X0.10000*%
%ADD13R,0.03500X0.03000*%
%ADD14R,0.05500X0.04000*%
%ADD15R,0.04000X0.05500*%
%ADD16R,0.06000X0.06000*%
%ADD17R,0.02756X0.05315*%
%ADD18R,0.02756X0.07087*%
G04:AMPARAMS|DCode=19|XSize=74.8mil|YSize=129.92mil|CornerRadius=0mil|HoleSize=0mil|Usage=FLASHONLY|Rotation=0.000|XOffset=0mil|YOffset=0mil|HoleType=Round|Shape=Octagon|*
%AMOCTAGOND19*
4,1,8,-0.01870,0.06496,0.01870,0.06496,0.03740,0.04626,0.03740,-0.04626,0.01870,-0.06496,-0.01870,-0.06496,-0.03740,-0.04626,-0.03740,0.04626,-0.01870,0.06496,0.0*
%
%ADD19OCTAGOND19*%

%ADD20R,0.01496X0.07874*%
%ADD21R,0.01496X0.07874*%
%ADD22O,0.06000X0.11024*%
%ADD23R,0.06000X0.11024*%
%ADD24R,0.17716X0.07874*%
%ADD25R,0.03000X0.03500*%
%ADD26R,0.10000X0.06000*%
%ADD27R,0.07500X0.10000*%
%ADD28C,0.04000*%
%ADD29C,0.01200*%
%ADD30C,0.02500*%
%ADD31C,0.02000*%
%ADD32C,0.01500*%
%ADD33C,0.05000*%
%ADD34C,0.03000*%
%ADD35C,0.08000*%
%ADD36C,0.05906*%
%ADD37R,0.05906X0.05906*%
%ADD38R,0.10236X0.10236*%
%ADD39C,0.10236*%
%ADD40R,0.05906X0.05906*%
%ADD41O,0.07874X0.15748*%
%ADD42O,0.15748X0.07874*%
%ADD43O,0.16535X0.07874*%
%ADD44C,0.06000*%
%ADD45R,0.05906X0.05906*%
%ADD46R,0.09449X0.09449*%
%ADD47C,0.09449*%
%ADD48C,0.06500*%
%ADD49C,0.02000*%
%ADD50R,0.05000X0.06000*%
%ADD51C,0.00100*%
%ADD52C,0.01000*%
%ADD53C,0.00800*%
%ADD54C,0.01600*%
%ADD55C,0.00787*%
%ADD56C,0.00600*%
%ADD57R,0.00400X0.05000*%
%ADD58R,0.05000X0.00400*%
%ADD59R,0.05525X0.14579*%
%ADD60R,0.05525X0.14579*%
%ADD61R,0.06800X0.10800*%
%ADD62R,0.04300X0.03800*%
%ADD63R,0.06300X0.04800*%
%ADD64R,0.04800X0.06300*%
%ADD65R,0.06800X0.06800*%
%ADD66R,0.03556X0.06115*%
%ADD67R,0.03556X0.07887*%
G04:AMPARAMS|DCode=68|XSize=82.8mil|YSize=137.92mil|CornerRadius=0mil|HoleSize=0mil|Usage=FLASHONLY|Rotation=0.000|XOffset=0mil|YOffset=0mil|HoleType=Round|Shape=Octagon|*
%AMOCTAGOND68*
4,1,8,-0.02070,0.06896,0.02070,0.06896,0.04140,0.04826,0.04140,-0.04826,0.02070,-0.06896,-0.02070,-0.06896,-0.04140,-0.04826,-0.04140,0.04826,-0.02070,0.06896,0.0*
%
%ADD68OCTAGOND68*%

%ADD69R,0.02296X0.08674*%
%ADD70R,0.02296X0.08674*%
%ADD71O,0.06800X0.11824*%
%ADD72R,0.06800X0.11824*%
%ADD73R,0.18517X0.08674*%
%ADD74R,0.03800X0.04300*%
%ADD75R,0.10800X0.06800*%
%ADD76R,0.08300X0.10800*%
%ADD77C,0.08800*%
%ADD78C,0.06706*%
%ADD79R,0.06706X0.06706*%
%ADD80R,0.11036X0.11036*%
%ADD81C,0.11036*%
%ADD82R,0.06706X0.06706*%
%ADD83O,0.08674X0.16548*%
%ADD84O,0.16548X0.08674*%
%ADD85O,0.17335X0.08674*%
%ADD86C,0.06800*%
%ADD87R,0.06706X0.06706*%
%ADD88R,0.10249X0.10249*%
%ADD89C,0.10249*%
%ADD90C,0.07300*%
%ADD91C,0.02800*%
%ADD92R,0.05800X0.06800*%
G36*
X283857Y-12684D02*
X283709Y-12654D01*
X283635Y-12647D01*
X283568Y-12632D01*
X283501Y-12625D01*
X283457Y-12617D01*
X283427Y-12610D01*
X283413D01*
X283213Y-12580D01*
X283124Y-12573D01*
X283035D01*
X282969Y-12565D01*
X282754D01*
X282658Y-12573D01*
X282569Y-12580D01*
X282488Y-12588D01*
X282421Y-12602D01*
X282377Y-12610D01*
X282340Y-12617D01*
X282332D01*
X282243Y-12639D01*
X282162Y-12669D01*
X282095Y-12691D01*
X282036Y-12721D01*
X281992Y-12750D01*
X281955Y-12765D01*
X281933Y-12780D01*
X281925Y-12787D01*
X281822Y-12876D01*
X281748Y-12965D01*
X281725Y-13002D01*
X281703Y-13032D01*
X281688Y-13054D01*
Y-13061D01*
X281659Y-13128D01*
X281637Y-13202D01*
X281622Y-13268D01*
X281607Y-13335D01*
Y-13394D01*
X281600Y-13439D01*
Y-13468D01*
Y-13483D01*
Y-13572D01*
X281614Y-13661D01*
X281622Y-13735D01*
X281637Y-13801D01*
X281651Y-13853D01*
X281659Y-13890D01*
X281674Y-13920D01*
Y-13927D01*
X281740Y-14060D01*
X281777Y-14112D01*
X281807Y-14164D01*
X281836Y-14201D01*
X281866Y-14230D01*
X281881Y-14245D01*
X281888Y-14253D01*
X281955Y-14312D01*
X282021Y-14356D01*
X282088Y-14393D01*
X282147Y-14430D01*
X282199Y-14452D01*
X282236Y-14467D01*
X282266Y-14482D01*
X282273D01*
X282428Y-14519D01*
X282502Y-14526D01*
X282569Y-14534D01*
X282628Y-14541D01*
X282710D01*
X282835Y-14534D01*
X282961Y-14526D01*
X283080Y-14504D01*
X283183Y-14482D01*
X283272Y-14467D01*
X283346Y-14445D01*
X283390Y-14438D01*
X283398Y-14430D01*
X283405D01*
X283531Y-14386D01*
X283649Y-14334D01*
X283753Y-14290D01*
X283842Y-14238D01*
X283916Y-14201D01*
X283975Y-14171D01*
X284005Y-14149D01*
X284019Y-14142D01*
X284064D01*
Y-14822D01*
X283968Y-14859D01*
X283864Y-14896D01*
X283768Y-14933D01*
X283672Y-14963D01*
X283583Y-14985D01*
X283516Y-15000D01*
X283472Y-15007D01*
X283464Y-15015D01*
X283457D01*
X283324Y-15044D01*
X283183Y-15059D01*
X283057Y-15074D01*
X282946Y-15089D01*
X282843D01*
X282769Y-15096D01*
X282702D01*
X282547Y-15089D01*
X282406Y-15074D01*
X282280Y-15059D01*
X282177Y-15037D01*
X282088Y-15015D01*
X282021Y-14993D01*
X281977Y-14985D01*
X281962Y-14978D01*
X281844Y-14926D01*
X281740Y-14874D01*
X281644Y-14815D01*
X281563Y-14763D01*
X281496Y-14711D01*
X281444Y-14674D01*
X281415Y-14645D01*
X281407Y-14637D01*
X281333Y-14556D01*
X281267Y-14467D01*
X281207Y-14378D01*
X281163Y-14297D01*
X281126Y-14223D01*
X281096Y-14171D01*
X281082Y-14134D01*
X281074Y-14119D01*
X281030Y-14008D01*
X281000Y-13890D01*
X280978Y-13786D01*
X280963Y-13690D01*
X280956Y-13601D01*
X280948Y-13542D01*
Y-13498D01*
Y-13483D01*
X280956Y-13335D01*
X280971Y-13194D01*
X280993Y-13076D01*
X281022Y-12980D01*
X281052Y-12898D01*
X281074Y-12839D01*
X281089Y-12802D01*
X281096Y-12787D01*
X281156Y-12684D01*
X281215Y-12595D01*
X281281Y-12521D01*
X281348Y-12454D01*
X281407Y-12403D01*
X281452Y-12358D01*
X281481Y-12336D01*
X281496Y-12329D01*
X281592Y-12269D01*
X281681Y-12218D01*
X281777Y-12181D01*
X281859Y-12144D01*
X281933Y-12121D01*
X281984Y-12107D01*
X282021Y-12092D01*
X282036D01*
X282147Y-12070D01*
X282266Y-12055D01*
X282377Y-12040D01*
X282480Y-12033D01*
X282569Y-12025D01*
X282880D01*
X282917Y-12033D01*
X282969D01*
X283072Y-12040D01*
X283161Y-12047D01*
X283191D01*
X283220Y-12055D01*
X283242D01*
Y-10782D01*
X280978D01*
Y-10220D01*
X283857D01*
Y-12684D01*
D02*
G37*
G36*
X272009Y-12033D02*
X272113Y-12047D01*
X272202Y-12070D01*
X272283Y-12099D01*
X272342Y-12129D01*
X272394Y-12151D01*
X272424Y-12166D01*
X272431Y-12173D01*
X272512Y-12232D01*
X272579Y-12299D01*
X272646Y-12358D01*
X272697Y-12417D01*
X272734Y-12477D01*
X272771Y-12521D01*
X272786Y-12551D01*
X272794Y-12558D01*
X272882Y-12750D01*
X272919Y-12847D01*
X272949Y-12928D01*
X272971Y-13002D01*
X272986Y-13061D01*
X273001Y-13098D01*
Y-13113D01*
X273038Y-13335D01*
X273053Y-13446D01*
X273060Y-13535D01*
Y-13616D01*
X273067Y-13683D01*
Y-13720D01*
Y-13727D01*
Y-13735D01*
X272535D01*
X272527Y-13624D01*
X272520Y-13513D01*
X272512Y-13416D01*
X272498Y-13328D01*
X272483Y-13246D01*
X272468Y-13172D01*
X272453Y-13106D01*
X272431Y-13046D01*
X272401Y-12943D01*
X272372Y-12876D01*
X272357Y-12839D01*
X272350Y-12824D01*
X272283Y-12728D01*
X272209Y-12654D01*
X272128Y-12602D01*
X272054Y-12573D01*
X271987Y-12551D01*
X271935Y-12543D01*
X271898Y-12536D01*
X271883D01*
X271824Y-12543D01*
X271772Y-12551D01*
X271676Y-12588D01*
X271632Y-12610D01*
X271602Y-12625D01*
X271587Y-12632D01*
X271580Y-12639D01*
X271513Y-12691D01*
X271439Y-12765D01*
X271365Y-12847D01*
X271284Y-12935D01*
X271210Y-13017D01*
X271151Y-13083D01*
X271129Y-13113D01*
X271114Y-13135D01*
X271099Y-13143D01*
Y-13150D01*
X271003Y-13261D01*
X270907Y-13357D01*
X270825Y-13439D01*
X270744Y-13498D01*
X270685Y-13542D01*
X270640Y-13579D01*
X270603Y-13594D01*
X270596Y-13601D01*
X270507Y-13646D01*
X270411Y-13675D01*
X270322Y-13698D01*
X270241Y-13712D01*
X270167Y-13720D01*
X270115Y-13727D01*
X270063D01*
X269945Y-13720D01*
X269841Y-13705D01*
X269752Y-13683D01*
X269671Y-13653D01*
X269612Y-13631D01*
X269567Y-13609D01*
X269538Y-13594D01*
X269530Y-13587D01*
X269456Y-13527D01*
X269390Y-13468D01*
X269323Y-13402D01*
X269271Y-13342D01*
X269234Y-13283D01*
X269205Y-13239D01*
X269182Y-13209D01*
X269175Y-13202D01*
X269123Y-13106D01*
X269079Y-13009D01*
X269042Y-12921D01*
X269012Y-12839D01*
X268990Y-12765D01*
X268975Y-12706D01*
X268960Y-12669D01*
Y-12654D01*
X268923Y-12425D01*
X268909Y-12321D01*
X268901Y-12225D01*
X268894Y-12144D01*
X268886Y-12077D01*
Y-12040D01*
Y-12025D01*
X269419D01*
X269434Y-12218D01*
X269449Y-12395D01*
X269478Y-12543D01*
X269508Y-12669D01*
X269538Y-12765D01*
X269567Y-12839D01*
X269582Y-12884D01*
X269589Y-12891D01*
Y-12898D01*
X269619Y-12958D01*
X269656Y-13002D01*
X269730Y-13083D01*
X269811Y-13135D01*
X269893Y-13180D01*
X269967Y-13202D01*
X270026Y-13209D01*
X270063Y-13217D01*
X270078D01*
X270144Y-13209D01*
X270211Y-13194D01*
X270278Y-13172D01*
X270329Y-13143D01*
X270374Y-13120D01*
X270403Y-13098D01*
X270426Y-13083D01*
X270433Y-13076D01*
X270500Y-13017D01*
X270566Y-12943D01*
X270640Y-12861D01*
X270707Y-12787D01*
X270766Y-12721D01*
X270810Y-12662D01*
X270840Y-12625D01*
X270855Y-12610D01*
X270958Y-12491D01*
X271047Y-12395D01*
X271136Y-12321D01*
X271210Y-12255D01*
X271277Y-12210D01*
X271321Y-12173D01*
X271358Y-12158D01*
X271365Y-12151D01*
X271454Y-12107D01*
X271550Y-12077D01*
X271639Y-12055D01*
X271721Y-12040D01*
X271795Y-12033D01*
X271846Y-12025D01*
X271898D01*
X272009Y-12033D01*
D02*
G37*
G36*
X179206Y-285131D02*
X179406Y-285153D01*
X179598Y-285183D01*
X179776Y-285227D01*
X179939Y-285279D01*
X180087Y-285331D01*
X180227Y-285397D01*
X180353Y-285456D01*
X180464Y-285516D01*
X180560Y-285575D01*
X180642Y-285634D01*
X180708Y-285686D01*
X180767Y-285730D01*
X180804Y-285760D01*
X180827Y-285782D01*
X180834Y-285789D01*
X180952Y-285923D01*
X181056Y-286056D01*
X181145Y-286204D01*
X181219Y-286352D01*
X181285Y-286507D01*
X181337Y-286655D01*
X181382Y-286803D01*
X181419Y-286944D01*
X181441Y-287077D01*
X181463Y-287203D01*
X181478Y-287314D01*
X181493Y-287410D01*
Y-287491D01*
X181500Y-287551D01*
Y-287588D01*
Y-287602D01*
X181493Y-287832D01*
X181470Y-288039D01*
X181441Y-288224D01*
X181411Y-288387D01*
X181396Y-288461D01*
X181382Y-288520D01*
X181367Y-288579D01*
X181352Y-288624D01*
X181337Y-288661D01*
X181330Y-288683D01*
X181322Y-288698D01*
Y-288705D01*
X181248Y-288875D01*
X181167Y-289023D01*
X181086Y-289156D01*
X180997Y-289267D01*
X180923Y-289356D01*
X180864Y-289423D01*
X180827Y-289467D01*
X180812Y-289475D01*
Y-289482D01*
X180686Y-289593D01*
X180553Y-289689D01*
X180420Y-289763D01*
X180294Y-289830D01*
X180183Y-289882D01*
X180094Y-289919D01*
X180064Y-289933D01*
X180042Y-289941D01*
X180027Y-289948D01*
X180020D01*
X179842Y-290000D01*
X179665Y-290037D01*
X179487Y-290059D01*
X179332Y-290074D01*
X179191Y-290089D01*
X179139D01*
X179088Y-290096D01*
X178991D01*
X178829Y-290089D01*
X178673Y-290074D01*
X178518Y-290052D01*
X178385Y-290030D01*
X178266Y-290007D01*
X178214Y-289993D01*
X178177Y-289985D01*
X178140Y-289978D01*
X178118Y-289970D01*
X178103Y-289963D01*
X178096D01*
X177926Y-289911D01*
X177763Y-289859D01*
X177622Y-289808D01*
X177489Y-289756D01*
X177386Y-289719D01*
X177304Y-289682D01*
X177275Y-289667D01*
X177252Y-289660D01*
X177245Y-289652D01*
X177238D01*
Y-287595D01*
X179147D01*
Y-288157D01*
X177867D01*
Y-289334D01*
X178052Y-289401D01*
X178140Y-289423D01*
X178229Y-289445D01*
X178303Y-289467D01*
X178362Y-289482D01*
X178399Y-289489D01*
X178414D01*
X178636Y-289526D01*
X178740Y-289534D01*
X178836Y-289541D01*
X178917Y-289549D01*
X179028D01*
X179184Y-289541D01*
X179324Y-289526D01*
X179458Y-289504D01*
X179591Y-289467D01*
X179709Y-289430D01*
X179813Y-289386D01*
X179916Y-289341D01*
X180005Y-289290D01*
X180087Y-289245D01*
X180153Y-289201D01*
X180212Y-289156D01*
X180264Y-289119D01*
X180301Y-289082D01*
X180331Y-289060D01*
X180346Y-289045D01*
X180353Y-289038D01*
X180442Y-288934D01*
X180516Y-288823D01*
X180582Y-288712D01*
X180634Y-288594D01*
X180686Y-288468D01*
X180723Y-288350D01*
X180782Y-288120D01*
X180797Y-288009D01*
X180812Y-287913D01*
X180827Y-287817D01*
X180834Y-287743D01*
X180841Y-287676D01*
Y-287632D01*
Y-287595D01*
Y-287588D01*
X180834Y-287425D01*
X180819Y-287277D01*
X180797Y-287129D01*
X180767Y-286996D01*
X180730Y-286870D01*
X180693Y-286759D01*
X180649Y-286655D01*
X180605Y-286559D01*
X180568Y-286470D01*
X180523Y-286396D01*
X180486Y-286337D01*
X180449Y-286285D01*
X180420Y-286241D01*
X180397Y-286211D01*
X180383Y-286196D01*
X180375Y-286189D01*
X180286Y-286100D01*
X180183Y-286019D01*
X180087Y-285952D01*
X179983Y-285886D01*
X179872Y-285841D01*
X179768Y-285797D01*
X179665Y-285760D01*
X179561Y-285738D01*
X179472Y-285715D01*
X179384Y-285701D01*
X179302Y-285686D01*
X179236Y-285678D01*
X179176Y-285671D01*
X178969D01*
X178851Y-285678D01*
X178747Y-285693D01*
X178651Y-285701D01*
X178577Y-285715D01*
X178518Y-285730D01*
X178481Y-285738D01*
X178466D01*
X178362Y-285760D01*
X178266Y-285789D01*
X178185Y-285819D01*
X178111Y-285841D01*
X178044Y-285863D01*
X178000Y-285886D01*
X177970Y-285893D01*
X177963Y-285900D01*
X177830Y-285974D01*
X177763Y-286004D01*
X177711Y-286041D01*
X177659Y-286071D01*
X177622Y-286093D01*
X177600Y-286108D01*
X177593Y-286115D01*
X177526Y-286159D01*
X177467Y-286196D01*
X177415Y-286226D01*
X177371Y-286256D01*
X177341Y-286278D01*
X177319Y-286293D01*
X177304Y-286307D01*
X177238D01*
Y-285560D01*
X177423Y-285479D01*
X177593Y-285405D01*
X177748Y-285353D01*
X177889Y-285301D01*
X178000Y-285271D01*
X178044Y-285257D01*
X178089Y-285242D01*
X178118Y-285234D01*
X178140D01*
X178155Y-285227D01*
X178163D01*
X178318Y-285190D01*
X178473Y-285168D01*
X178607Y-285146D01*
X178732Y-285138D01*
X178843Y-285131D01*
X178917Y-285123D01*
X178991D01*
X179206Y-285131D01*
D02*
G37*
G36*
X171207Y-290000D02*
X170000D01*
X169764Y-289993D01*
X169556Y-289985D01*
X169379Y-289970D01*
X169297Y-289963D01*
X169223Y-289956D01*
X169157Y-289948D01*
X169105Y-289941D01*
X169053Y-289933D01*
X169016Y-289926D01*
X168987Y-289919D01*
X168957Y-289911D01*
X168942D01*
X168794Y-289874D01*
X168654Y-289830D01*
X168528Y-289778D01*
X168424Y-289734D01*
X168335Y-289689D01*
X168269Y-289652D01*
X168224Y-289630D01*
X168210Y-289623D01*
X168039Y-289504D01*
X167891Y-289371D01*
X167766Y-289230D01*
X167655Y-289097D01*
X167566Y-288986D01*
X167536Y-288934D01*
X167507Y-288890D01*
X167484Y-288853D01*
X167470Y-288823D01*
X167455Y-288809D01*
Y-288801D01*
X167359Y-288594D01*
X167285Y-288394D01*
X167233Y-288194D01*
X167203Y-288009D01*
X167188Y-287928D01*
X167181Y-287854D01*
X167174Y-287787D01*
Y-287728D01*
X167166Y-287684D01*
Y-287647D01*
Y-287625D01*
Y-287617D01*
X167181Y-287366D01*
X167211Y-287136D01*
X167255Y-286929D01*
X167277Y-286840D01*
X167299Y-286759D01*
X167329Y-286677D01*
X167351Y-286611D01*
X167373Y-286559D01*
X167396Y-286507D01*
X167418Y-286470D01*
X167425Y-286441D01*
X167440Y-286426D01*
Y-286418D01*
X167551Y-286233D01*
X167677Y-286078D01*
X167803Y-285937D01*
X167921Y-285819D01*
X168032Y-285730D01*
X168121Y-285656D01*
X168158Y-285634D01*
X168180Y-285619D01*
X168195Y-285604D01*
X168202D01*
X168313Y-285538D01*
X168432Y-285486D01*
X168550Y-285434D01*
X168661Y-285397D01*
X168757Y-285368D01*
X168839Y-285345D01*
X168868Y-285331D01*
X168883D01*
X168898Y-285323D01*
X168905D01*
X169068Y-285286D01*
X169253Y-285264D01*
X169438Y-285242D01*
X169616Y-285234D01*
X169697Y-285227D01*
X169771D01*
X169838Y-285220D01*
X171207D01*
Y-290000D01*
D02*
G37*
G36*
X264076Y-10131D02*
X264195Y-10146D01*
X264313Y-10168D01*
X264424Y-10197D01*
X264624Y-10271D01*
X264713Y-10316D01*
X264794Y-10353D01*
X264868Y-10397D01*
X264927Y-10442D01*
X264987Y-10479D01*
X265031Y-10516D01*
X265068Y-10545D01*
X265098Y-10567D01*
X265112Y-10582D01*
X265120Y-10590D01*
X265201Y-10678D01*
X265275Y-10775D01*
X265342Y-10871D01*
X265401Y-10967D01*
X265445Y-11071D01*
X265482Y-11167D01*
X265542Y-11352D01*
X265564Y-11441D01*
X265579Y-11522D01*
X265586Y-11589D01*
X265593Y-11655D01*
X265601Y-11707D01*
Y-11744D01*
Y-11766D01*
Y-11774D01*
X265593Y-11929D01*
X265579Y-12062D01*
X265556Y-12188D01*
X265527Y-12292D01*
X265505Y-12380D01*
X265482Y-12447D01*
X265468Y-12484D01*
X265460Y-12499D01*
X265401Y-12610D01*
X265334Y-12706D01*
X265268Y-12787D01*
X265194Y-12861D01*
X265135Y-12921D01*
X265083Y-12958D01*
X265053Y-12987D01*
X265038Y-12995D01*
X264950Y-13054D01*
X264861Y-13106D01*
X264779Y-13143D01*
X264705Y-13172D01*
X264646Y-13194D01*
X264594Y-13209D01*
X264565Y-13224D01*
X264557D01*
X264372Y-13254D01*
X264284Y-13261D01*
X264202Y-13268D01*
X264128Y-13276D01*
X263914D01*
X263803Y-13261D01*
X263706Y-13254D01*
X263625Y-13239D01*
X263551Y-13224D01*
X263499Y-13217D01*
X263470Y-13202D01*
X263455D01*
X263351Y-13172D01*
X263255Y-13128D01*
X263159Y-13083D01*
X263070Y-13046D01*
X263003Y-13002D01*
X262944Y-12972D01*
X262907Y-12950D01*
X262892Y-12943D01*
X262907Y-13076D01*
X262929Y-13209D01*
X262959Y-13328D01*
X262989Y-13439D01*
X263026Y-13550D01*
X263063Y-13646D01*
X263107Y-13735D01*
X263144Y-13809D01*
X263188Y-13883D01*
X263225Y-13942D01*
X263262Y-13994D01*
X263292Y-14038D01*
X263322Y-14075D01*
X263344Y-14097D01*
X263351Y-14112D01*
X263359Y-14119D01*
X263440Y-14193D01*
X263521Y-14260D01*
X263610Y-14312D01*
X263699Y-14364D01*
X263795Y-14401D01*
X263884Y-14438D01*
X264062Y-14489D01*
X264143Y-14504D01*
X264224Y-14519D01*
X264291Y-14526D01*
X264350Y-14534D01*
X264402Y-14541D01*
X264469D01*
X264617Y-14534D01*
X264676Y-14526D01*
X264735Y-14519D01*
X264779D01*
X264816Y-14512D01*
X264839Y-14504D01*
X264846D01*
X264905Y-14489D01*
X264957Y-14467D01*
X265001Y-14452D01*
X265038Y-14438D01*
X265068Y-14423D01*
X265090Y-14415D01*
X265098Y-14408D01*
X265135D01*
Y-15022D01*
X265046Y-15044D01*
X264964Y-15059D01*
X264927Y-15067D01*
X264898Y-15074D01*
X264876D01*
X264765Y-15089D01*
X264661Y-15096D01*
X264557D01*
X264343Y-15089D01*
X264143Y-15067D01*
X263973Y-15037D01*
X263817Y-15000D01*
X263758Y-14985D01*
X263699Y-14963D01*
X263647Y-14948D01*
X263603Y-14933D01*
X263573Y-14919D01*
X263551Y-14911D01*
X263536Y-14904D01*
X263529D01*
X263373Y-14822D01*
X263233Y-14734D01*
X263107Y-14637D01*
X262996Y-14541D01*
X262915Y-14460D01*
X262848Y-14393D01*
X262811Y-14349D01*
X262796Y-14341D01*
Y-14334D01*
X262693Y-14193D01*
X262604Y-14045D01*
X262530Y-13905D01*
X262471Y-13764D01*
X262426Y-13646D01*
X262411Y-13594D01*
X262397Y-13550D01*
X262382Y-13520D01*
X262374Y-13490D01*
X262367Y-13476D01*
Y-13468D01*
X262315Y-13276D01*
X262278Y-13076D01*
X262256Y-12884D01*
X262234Y-12706D01*
Y-12625D01*
X262226Y-12558D01*
Y-12491D01*
X262219Y-12432D01*
Y-12388D01*
Y-12358D01*
Y-12336D01*
Y-12329D01*
X262226Y-12092D01*
X262241Y-11877D01*
X262263Y-11692D01*
X262278Y-11611D01*
X262293Y-11537D01*
X262308Y-11470D01*
X262323Y-11411D01*
X262330Y-11367D01*
X262345Y-11322D01*
X262352Y-11293D01*
X262360Y-11270D01*
X262367Y-11256D01*
Y-11248D01*
X262426Y-11100D01*
X262493Y-10960D01*
X262567Y-10841D01*
X262633Y-10745D01*
X262693Y-10664D01*
X262744Y-10604D01*
X262774Y-10575D01*
X262789Y-10560D01*
X262878Y-10486D01*
X262966Y-10419D01*
X263048Y-10360D01*
X263129Y-10316D01*
X263203Y-10279D01*
X263255Y-10257D01*
X263292Y-10242D01*
X263307Y-10234D01*
X263418Y-10197D01*
X263529Y-10168D01*
X263640Y-10153D01*
X263736Y-10138D01*
X263825Y-10131D01*
X263891Y-10123D01*
X263951D01*
X264076Y-10131D01*
D02*
G37*
G36*
X289059D02*
X289236Y-10153D01*
X289399Y-10175D01*
X289547Y-10205D01*
X289666Y-10242D01*
X289710Y-10257D01*
X289754Y-10264D01*
X289784Y-10279D01*
X289806Y-10286D01*
X289821Y-10294D01*
X289828D01*
X289984Y-10360D01*
X290124Y-10434D01*
X290250Y-10516D01*
X290354Y-10590D01*
X290443Y-10664D01*
X290509Y-10715D01*
X290546Y-10752D01*
X290561Y-10767D01*
X290672Y-10893D01*
X290768Y-11026D01*
X290850Y-11159D01*
X290916Y-11285D01*
X290968Y-11396D01*
X291012Y-11478D01*
X291027Y-11515D01*
X291035Y-11537D01*
X291042Y-11552D01*
Y-11559D01*
X291094Y-11737D01*
X291138Y-11922D01*
X291168Y-12099D01*
X291183Y-12262D01*
X291190Y-12336D01*
X291197Y-12403D01*
Y-12462D01*
X291205Y-12514D01*
Y-12558D01*
Y-12588D01*
Y-12610D01*
Y-12617D01*
X291197Y-12839D01*
X291175Y-13054D01*
X291153Y-13239D01*
X291116Y-13394D01*
X291101Y-13468D01*
X291086Y-13527D01*
X291072Y-13587D01*
X291064Y-13631D01*
X291049Y-13668D01*
X291042Y-13690D01*
X291035Y-13705D01*
Y-13712D01*
X290968Y-13883D01*
X290887Y-14031D01*
X290805Y-14164D01*
X290731Y-14275D01*
X290657Y-14364D01*
X290605Y-14430D01*
X290568Y-14475D01*
X290554Y-14489D01*
X290428Y-14600D01*
X290302Y-14689D01*
X290176Y-14771D01*
X290065Y-14837D01*
X289962Y-14882D01*
X289888Y-14919D01*
X289858Y-14933D01*
X289836Y-14941D01*
X289821Y-14948D01*
X289814D01*
X289651Y-14993D01*
X289481Y-15030D01*
X289325Y-15052D01*
X289177Y-15074D01*
X289051Y-15081D01*
X289000D01*
X288955Y-15089D01*
X288763D01*
X288674Y-15081D01*
X288585Y-15074D01*
X288511Y-15067D01*
X288452Y-15059D01*
X288400Y-15052D01*
X288371Y-15044D01*
X288363D01*
X288200Y-15007D01*
X288126Y-14993D01*
X288060Y-14978D01*
X288008Y-14963D01*
X287971Y-14956D01*
X287941Y-14948D01*
X287934D01*
X287853Y-14919D01*
X287779Y-14896D01*
X287719Y-14874D01*
X287660Y-14852D01*
X287623Y-14830D01*
X287586Y-14822D01*
X287571Y-14808D01*
X287564D01*
X287453Y-14756D01*
X287342Y-14704D01*
X287305Y-14689D01*
X287268Y-14674D01*
X287246Y-14660D01*
X287238D01*
Y-13912D01*
X287290D01*
X287423Y-14023D01*
X287557Y-14119D01*
X287682Y-14201D01*
X287801Y-14267D01*
X287897Y-14319D01*
X287978Y-14356D01*
X288008Y-14371D01*
X288030Y-14378D01*
X288038Y-14386D01*
X288045D01*
X288193Y-14438D01*
X288348Y-14475D01*
X288489Y-14504D01*
X288622Y-14519D01*
X288741Y-14534D01*
X288785D01*
X288822Y-14541D01*
X288903D01*
X289029Y-14534D01*
X289140Y-14526D01*
X289251Y-14504D01*
X289347Y-14482D01*
X289429Y-14467D01*
X289488Y-14445D01*
X289525Y-14438D01*
X289540Y-14430D01*
X289643Y-14386D01*
X289747Y-14327D01*
X289836Y-14267D01*
X289910Y-14208D01*
X289969Y-14156D01*
X290021Y-14112D01*
X290050Y-14082D01*
X290058Y-14075D01*
X290139Y-13986D01*
X290206Y-13890D01*
X290265Y-13794D01*
X290317Y-13698D01*
X290361Y-13616D01*
X290391Y-13550D01*
X290406Y-13505D01*
X290413Y-13498D01*
Y-13490D01*
X290457Y-13350D01*
X290487Y-13194D01*
X290517Y-13054D01*
X290531Y-12913D01*
X290539Y-12795D01*
Y-12743D01*
X290546Y-12699D01*
Y-12669D01*
Y-12639D01*
Y-12625D01*
Y-12617D01*
X290539Y-12440D01*
X290524Y-12284D01*
X290509Y-12136D01*
X290487Y-12010D01*
X290465Y-11907D01*
X290443Y-11833D01*
X290435Y-11803D01*
Y-11781D01*
X290428Y-11774D01*
Y-11766D01*
X290376Y-11633D01*
X290317Y-11515D01*
X290265Y-11411D01*
X290206Y-11322D01*
X290154Y-11256D01*
X290117Y-11204D01*
X290087Y-11167D01*
X290080Y-11159D01*
X289991Y-11071D01*
X289902Y-10997D01*
X289814Y-10930D01*
X289732Y-10878D01*
X289666Y-10841D01*
X289614Y-10812D01*
X289577Y-10797D01*
X289562Y-10789D01*
X289451Y-10752D01*
X289340Y-10723D01*
X289229Y-10701D01*
X289125Y-10686D01*
X289044Y-10678D01*
X288970Y-10671D01*
X288911D01*
X288748Y-10678D01*
X288593Y-10693D01*
X288452Y-10723D01*
X288326Y-10745D01*
X288223Y-10775D01*
X288141Y-10804D01*
X288112Y-10812D01*
X288089Y-10819D01*
X288082Y-10826D01*
X288075D01*
X287927Y-10886D01*
X287786Y-10960D01*
X287653Y-11041D01*
X287534Y-11115D01*
X287438Y-11189D01*
X287357Y-11248D01*
X287327Y-11270D01*
X287305Y-11285D01*
X287298Y-11293D01*
X287290Y-11300D01*
X287238D01*
Y-10545D01*
X287409Y-10464D01*
X287571Y-10397D01*
X287719Y-10338D01*
X287845Y-10294D01*
X287949Y-10264D01*
X288030Y-10234D01*
X288060Y-10227D01*
X288082D01*
X288089Y-10220D01*
X288097D01*
X288237Y-10190D01*
X288378Y-10160D01*
X288511Y-10146D01*
X288622Y-10138D01*
X288726Y-10131D01*
X288800Y-10123D01*
X288866D01*
X289059Y-10131D01*
D02*
G37*
G36*
X296000Y-15000D02*
X294794D01*
X294557Y-14993D01*
X294350Y-14985D01*
X294172Y-14970D01*
X294091Y-14963D01*
X294017Y-14956D01*
X293950Y-14948D01*
X293898Y-14941D01*
X293847Y-14933D01*
X293810Y-14926D01*
X293780Y-14919D01*
X293750Y-14911D01*
X293736D01*
X293588Y-14874D01*
X293447Y-14830D01*
X293321Y-14778D01*
X293218Y-14734D01*
X293129Y-14689D01*
X293062Y-14652D01*
X293018Y-14630D01*
X293003Y-14623D01*
X292833Y-14504D01*
X292685Y-14371D01*
X292559Y-14230D01*
X292448Y-14097D01*
X292359Y-13986D01*
X292330Y-13934D01*
X292300Y-13890D01*
X292278Y-13853D01*
X292263Y-13823D01*
X292248Y-13809D01*
Y-13801D01*
X292152Y-13594D01*
X292078Y-13394D01*
X292026Y-13194D01*
X291997Y-13009D01*
X291982Y-12928D01*
X291974Y-12854D01*
X291967Y-12787D01*
Y-12728D01*
X291960Y-12684D01*
Y-12647D01*
Y-12625D01*
Y-12617D01*
X291974Y-12366D01*
X292004Y-12136D01*
X292048Y-11929D01*
X292071Y-11840D01*
X292093Y-11759D01*
X292122Y-11677D01*
X292145Y-11611D01*
X292167Y-11559D01*
X292189Y-11507D01*
X292211Y-11470D01*
X292219Y-11441D01*
X292233Y-11426D01*
Y-11418D01*
X292344Y-11233D01*
X292470Y-11078D01*
X292596Y-10937D01*
X292714Y-10819D01*
X292825Y-10730D01*
X292914Y-10656D01*
X292951Y-10634D01*
X292973Y-10619D01*
X292988Y-10604D01*
X292996D01*
X293107Y-10538D01*
X293225Y-10486D01*
X293343Y-10434D01*
X293454Y-10397D01*
X293551Y-10368D01*
X293632Y-10345D01*
X293662Y-10331D01*
X293676D01*
X293691Y-10323D01*
X293699D01*
X293861Y-10286D01*
X294046Y-10264D01*
X294231Y-10242D01*
X294409Y-10234D01*
X294490Y-10227D01*
X294564D01*
X294631Y-10220D01*
X296000D01*
Y-15000D01*
D02*
G37*
G36*
X278662D02*
X277811D01*
X276064Y-10220D01*
X276716D01*
X278218Y-14438D01*
X279727Y-10220D01*
X280401D01*
X278662Y-15000D01*
D02*
G37*
G36*
X259962D02*
X259111D01*
X257365Y-10220D01*
X258016D01*
X259518Y-14438D01*
X261028Y-10220D01*
X261701D01*
X259962Y-15000D01*
D02*
G37*
G36*
X136128Y-290000D02*
X135536D01*
Y-285730D01*
X133271Y-290000D01*
X132479D01*
Y-285220D01*
X133071D01*
Y-289127D01*
X135143Y-285220D01*
X136128D01*
Y-290000D01*
D02*
G37*
G36*
X436507Y-93500D02*
X435871D01*
Y-91717D01*
X435242D01*
X435057Y-91709D01*
X434887Y-91694D01*
X434746Y-91680D01*
X434620Y-91657D01*
X434524Y-91635D01*
X434450Y-91613D01*
X434406Y-91606D01*
X434391Y-91598D01*
X434265Y-91546D01*
X434154Y-91487D01*
X434050Y-91428D01*
X433969Y-91369D01*
X433895Y-91310D01*
X433843Y-91265D01*
X433814Y-91236D01*
X433799Y-91228D01*
X433725Y-91154D01*
X433666Y-91073D01*
X433614Y-90991D01*
X433569Y-90917D01*
X433532Y-90858D01*
X433510Y-90806D01*
X433495Y-90777D01*
X433488Y-90762D01*
X433451Y-90658D01*
X433421Y-90555D01*
X433407Y-90451D01*
X433392Y-90362D01*
X433384Y-90288D01*
X433377Y-90222D01*
Y-90185D01*
Y-90170D01*
X433384Y-90022D01*
X433399Y-89881D01*
X433429Y-89763D01*
X433451Y-89667D01*
X433481Y-89585D01*
X433510Y-89526D01*
X433525Y-89497D01*
X433532Y-89482D01*
X433592Y-89386D01*
X433658Y-89297D01*
X433732Y-89215D01*
X433799Y-89149D01*
X433858Y-89097D01*
X433910Y-89053D01*
X433939Y-89030D01*
X433954Y-89023D01*
X434043Y-88971D01*
X434132Y-88919D01*
X434221Y-88882D01*
X434309Y-88853D01*
X434376Y-88823D01*
X434435Y-88808D01*
X434472Y-88794D01*
X434487D01*
X434605Y-88771D01*
X434724Y-88749D01*
X434850Y-88734D01*
X434961Y-88727D01*
X435064Y-88720D01*
X436507D01*
Y-93500D01*
D02*
G37*
G36*
X431187Y-88771D02*
X431201Y-88838D01*
X431216Y-88897D01*
X431238Y-88949D01*
X431253Y-88986D01*
X431268Y-89016D01*
X431275Y-89030D01*
X431283Y-89038D01*
X431349Y-89119D01*
X431431Y-89178D01*
X431460Y-89208D01*
X431490Y-89223D01*
X431505Y-89230D01*
X431512Y-89238D01*
X431564Y-89260D01*
X431616Y-89275D01*
X431734Y-89304D01*
X431786Y-89319D01*
X431830Y-89326D01*
X431860Y-89334D01*
X431867D01*
X432030Y-89349D01*
X432104Y-89356D01*
X432171D01*
X432223Y-89363D01*
X432297D01*
Y-89800D01*
X431298D01*
Y-93012D01*
X432297D01*
Y-93500D01*
X429707D01*
Y-93012D01*
X430683D01*
Y-88697D01*
X431179D01*
X431187Y-88771D01*
D02*
G37*
G36*
X439393Y-89230D02*
X438379D01*
Y-92020D01*
Y-92109D01*
X438387Y-92190D01*
Y-92264D01*
X438394Y-92323D01*
X438402Y-92375D01*
Y-92420D01*
X438409Y-92442D01*
Y-92449D01*
X438439Y-92575D01*
X438453Y-92627D01*
X438476Y-92671D01*
X438490Y-92708D01*
X438505Y-92738D01*
X438513Y-92753D01*
X438520Y-92760D01*
X438557Y-92804D01*
X438594Y-92841D01*
X438683Y-92901D01*
X438720Y-92923D01*
X438749Y-92938D01*
X438772Y-92952D01*
X438779D01*
X438846Y-92975D01*
X438927Y-92989D01*
X439001Y-93004D01*
X439075Y-93012D01*
X439142D01*
X439193Y-93019D01*
X439245D01*
X439393Y-93012D01*
X439460Y-93004D01*
X439519Y-92997D01*
X439571Y-92989D01*
X439608Y-92982D01*
X439637Y-92975D01*
X439645D01*
X439778Y-92938D01*
X439830Y-92923D01*
X439882Y-92908D01*
X439919Y-92893D01*
X439948Y-92886D01*
X439963Y-92878D01*
X440000D01*
Y-93478D01*
X439933Y-93485D01*
X439859Y-93500D01*
X439793Y-93507D01*
X439726Y-93515D01*
X439667Y-93522D01*
X439623Y-93530D01*
X439586Y-93537D01*
X439578D01*
X439489Y-93544D01*
X439401Y-93552D01*
X439334Y-93559D01*
X439275D01*
X439223Y-93567D01*
X439164D01*
X439045Y-93559D01*
X438934Y-93552D01*
X438727Y-93515D01*
X438550Y-93463D01*
X438468Y-93433D01*
X438402Y-93396D01*
X438335Y-93367D01*
X438283Y-93337D01*
X438239Y-93308D01*
X438194Y-93285D01*
X438165Y-93263D01*
X438143Y-93248D01*
X438135Y-93234D01*
X438128D01*
X438061Y-93167D01*
X438002Y-93093D01*
X437950Y-93019D01*
X437906Y-92938D01*
X437839Y-92775D01*
X437787Y-92619D01*
X437765Y-92479D01*
X437758Y-92420D01*
X437750Y-92368D01*
X437743Y-92323D01*
Y-92294D01*
Y-92272D01*
Y-92264D01*
Y-88720D01*
X439393D01*
Y-89230D01*
D02*
G37*
G36*
X131207Y-290000D02*
X130000D01*
X129764Y-289993D01*
X129556Y-289985D01*
X129379Y-289970D01*
X129297Y-289963D01*
X129223Y-289956D01*
X129157Y-289948D01*
X129105Y-289941D01*
X129053Y-289933D01*
X129016Y-289926D01*
X128987Y-289919D01*
X128957Y-289911D01*
X128942D01*
X128794Y-289874D01*
X128654Y-289830D01*
X128528Y-289778D01*
X128424Y-289734D01*
X128335Y-289689D01*
X128269Y-289652D01*
X128224Y-289630D01*
X128210Y-289623D01*
X128039Y-289504D01*
X127891Y-289371D01*
X127766Y-289230D01*
X127655Y-289097D01*
X127566Y-288986D01*
X127536Y-288934D01*
X127507Y-288890D01*
X127484Y-288853D01*
X127470Y-288823D01*
X127455Y-288809D01*
Y-288801D01*
X127359Y-288594D01*
X127285Y-288394D01*
X127233Y-288194D01*
X127203Y-288009D01*
X127188Y-287928D01*
X127181Y-287854D01*
X127174Y-287787D01*
Y-287728D01*
X127166Y-287684D01*
Y-287647D01*
Y-287625D01*
Y-287617D01*
X127181Y-287366D01*
X127211Y-287136D01*
X127255Y-286929D01*
X127277Y-286840D01*
X127299Y-286759D01*
X127329Y-286677D01*
X127351Y-286611D01*
X127373Y-286559D01*
X127396Y-286507D01*
X127418Y-286470D01*
X127425Y-286441D01*
X127440Y-286426D01*
Y-286418D01*
X127551Y-286233D01*
X127677Y-286078D01*
X127803Y-285937D01*
X127921Y-285819D01*
X128032Y-285730D01*
X128121Y-285656D01*
X128158Y-285634D01*
X128180Y-285619D01*
X128195Y-285604D01*
X128202D01*
X128313Y-285538D01*
X128432Y-285486D01*
X128550Y-285434D01*
X128661Y-285397D01*
X128757Y-285368D01*
X128839Y-285345D01*
X128868Y-285331D01*
X128883D01*
X128898Y-285323D01*
X128905D01*
X129068Y-285286D01*
X129253Y-285264D01*
X129438Y-285242D01*
X129616Y-285234D01*
X129697Y-285227D01*
X129771D01*
X129838Y-285220D01*
X131207D01*
Y-290000D01*
D02*
G37*
G36*
X176128D02*
X175536D01*
Y-285730D01*
X173271Y-290000D01*
X172479D01*
Y-285220D01*
X173071D01*
Y-289127D01*
X175143Y-285220D01*
X176128D01*
Y-290000D01*
D02*
G37*
G36*
X139206Y-285131D02*
X139406Y-285153D01*
X139598Y-285183D01*
X139776Y-285227D01*
X139939Y-285279D01*
X140087Y-285331D01*
X140227Y-285397D01*
X140353Y-285456D01*
X140464Y-285516D01*
X140560Y-285575D01*
X140642Y-285634D01*
X140708Y-285686D01*
X140767Y-285730D01*
X140804Y-285760D01*
X140827Y-285782D01*
X140834Y-285789D01*
X140952Y-285923D01*
X141056Y-286056D01*
X141145Y-286204D01*
X141219Y-286352D01*
X141285Y-286507D01*
X141337Y-286655D01*
X141382Y-286803D01*
X141419Y-286944D01*
X141441Y-287077D01*
X141463Y-287203D01*
X141478Y-287314D01*
X141493Y-287410D01*
Y-287491D01*
X141500Y-287551D01*
Y-287588D01*
Y-287602D01*
X141493Y-287832D01*
X141470Y-288039D01*
X141441Y-288224D01*
X141411Y-288387D01*
X141396Y-288461D01*
X141382Y-288520D01*
X141367Y-288579D01*
X141352Y-288624D01*
X141337Y-288661D01*
X141330Y-288683D01*
X141322Y-288698D01*
Y-288705D01*
X141248Y-288875D01*
X141167Y-289023D01*
X141086Y-289156D01*
X140997Y-289267D01*
X140923Y-289356D01*
X140864Y-289423D01*
X140827Y-289467D01*
X140812Y-289475D01*
Y-289482D01*
X140686Y-289593D01*
X140553Y-289689D01*
X140420Y-289763D01*
X140294Y-289830D01*
X140183Y-289882D01*
X140094Y-289919D01*
X140064Y-289933D01*
X140042Y-289941D01*
X140027Y-289948D01*
X140020D01*
X139842Y-290000D01*
X139665Y-290037D01*
X139487Y-290059D01*
X139332Y-290074D01*
X139191Y-290089D01*
X139139D01*
X139088Y-290096D01*
X138991D01*
X138829Y-290089D01*
X138673Y-290074D01*
X138518Y-290052D01*
X138385Y-290030D01*
X138266Y-290007D01*
X138214Y-289993D01*
X138177Y-289985D01*
X138140Y-289978D01*
X138118Y-289970D01*
X138103Y-289963D01*
X138096D01*
X137926Y-289911D01*
X137763Y-289859D01*
X137622Y-289808D01*
X137489Y-289756D01*
X137386Y-289719D01*
X137304Y-289682D01*
X137275Y-289667D01*
X137252Y-289660D01*
X137245Y-289652D01*
X137238D01*
Y-287595D01*
X139147D01*
Y-288157D01*
X137867D01*
Y-289334D01*
X138052Y-289401D01*
X138140Y-289423D01*
X138229Y-289445D01*
X138303Y-289467D01*
X138362Y-289482D01*
X138399Y-289489D01*
X138414D01*
X138636Y-289526D01*
X138740Y-289534D01*
X138836Y-289541D01*
X138917Y-289549D01*
X139028D01*
X139184Y-289541D01*
X139324Y-289526D01*
X139458Y-289504D01*
X139591Y-289467D01*
X139709Y-289430D01*
X139813Y-289386D01*
X139916Y-289341D01*
X140005Y-289290D01*
X140087Y-289245D01*
X140153Y-289201D01*
X140212Y-289156D01*
X140264Y-289119D01*
X140301Y-289082D01*
X140331Y-289060D01*
X140346Y-289045D01*
X140353Y-289038D01*
X140442Y-288934D01*
X140516Y-288823D01*
X140582Y-288712D01*
X140634Y-288594D01*
X140686Y-288468D01*
X140723Y-288350D01*
X140782Y-288120D01*
X140797Y-288009D01*
X140812Y-287913D01*
X140827Y-287817D01*
X140834Y-287743D01*
X140841Y-287676D01*
Y-287632D01*
Y-287595D01*
Y-287588D01*
X140834Y-287425D01*
X140819Y-287277D01*
X140797Y-287129D01*
X140767Y-286996D01*
X140730Y-286870D01*
X140693Y-286759D01*
X140649Y-286655D01*
X140605Y-286559D01*
X140568Y-286470D01*
X140523Y-286396D01*
X140486Y-286337D01*
X140449Y-286285D01*
X140420Y-286241D01*
X140397Y-286211D01*
X140383Y-286196D01*
X140375Y-286189D01*
X140286Y-286100D01*
X140183Y-286019D01*
X140087Y-285952D01*
X139983Y-285886D01*
X139872Y-285841D01*
X139768Y-285797D01*
X139665Y-285760D01*
X139561Y-285738D01*
X139472Y-285715D01*
X139384Y-285701D01*
X139302Y-285686D01*
X139236Y-285678D01*
X139176Y-285671D01*
X138969D01*
X138851Y-285678D01*
X138747Y-285693D01*
X138651Y-285701D01*
X138577Y-285715D01*
X138518Y-285730D01*
X138481Y-285738D01*
X138466D01*
X138362Y-285760D01*
X138266Y-285789D01*
X138185Y-285819D01*
X138111Y-285841D01*
X138044Y-285863D01*
X138000Y-285886D01*
X137970Y-285893D01*
X137963Y-285900D01*
X137830Y-285974D01*
X137763Y-286004D01*
X137711Y-286041D01*
X137659Y-286071D01*
X137622Y-286093D01*
X137600Y-286108D01*
X137593Y-286115D01*
X137526Y-286159D01*
X137467Y-286196D01*
X137415Y-286226D01*
X137371Y-286256D01*
X137341Y-286278D01*
X137319Y-286293D01*
X137304Y-286307D01*
X137238D01*
Y-285560D01*
X137423Y-285479D01*
X137593Y-285405D01*
X137748Y-285353D01*
X137889Y-285301D01*
X138000Y-285271D01*
X138044Y-285257D01*
X138089Y-285242D01*
X138118Y-285234D01*
X138140D01*
X138155Y-285227D01*
X138163D01*
X138318Y-285190D01*
X138473Y-285168D01*
X138607Y-285146D01*
X138732Y-285138D01*
X138843Y-285131D01*
X138917Y-285123D01*
X138991D01*
X139206Y-285131D01*
D02*
G37*
%LPC*%
G36*
X435871Y-89267D02*
X435131D01*
X435035Y-89275D01*
X434953Y-89282D01*
X434879Y-89289D01*
X434820Y-89297D01*
X434783Y-89304D01*
X434753Y-89312D01*
X434746D01*
X434605Y-89356D01*
X434546Y-89378D01*
X434494Y-89400D01*
X434450Y-89423D01*
X434420Y-89445D01*
X434398Y-89452D01*
X434391Y-89460D01*
X434332Y-89504D01*
X434272Y-89556D01*
X434228Y-89600D01*
X434191Y-89652D01*
X434161Y-89689D01*
X434139Y-89726D01*
X434132Y-89748D01*
X434124Y-89756D01*
X434095Y-89822D01*
X434073Y-89896D01*
X434058Y-89970D01*
X434043Y-90037D01*
Y-90096D01*
X434036Y-90140D01*
Y-90170D01*
Y-90185D01*
X434043Y-90333D01*
X434058Y-90392D01*
X434065Y-90451D01*
X434080Y-90496D01*
X434095Y-90533D01*
X434102Y-90555D01*
Y-90562D01*
X434132Y-90621D01*
X434161Y-90688D01*
X434198Y-90740D01*
X434228Y-90792D01*
X434265Y-90829D01*
X434295Y-90858D01*
X434309Y-90880D01*
X434317Y-90888D01*
X434376Y-90940D01*
X434443Y-90984D01*
X434568Y-91051D01*
X434620Y-91073D01*
X434665Y-91088D01*
X434702Y-91102D01*
X434709D01*
X434805Y-91125D01*
X434909Y-91139D01*
X435012Y-91154D01*
X435116Y-91162D01*
X435205D01*
X435271Y-91169D01*
X435871D01*
Y-89267D01*
D02*
G37*
G36*
X295364Y-10767D02*
X294609D01*
X294468Y-10775D01*
X294335Y-10789D01*
X294224Y-10797D01*
X294135Y-10812D01*
X294069Y-10826D01*
X294024Y-10834D01*
X294009D01*
X293891Y-10863D01*
X293780Y-10893D01*
X293676Y-10930D01*
X293580Y-10967D01*
X293506Y-11004D01*
X293454Y-11026D01*
X293417Y-11048D01*
X293403Y-11056D01*
X293269Y-11145D01*
X293151Y-11241D01*
X293047Y-11344D01*
X292966Y-11441D01*
X292899Y-11529D01*
X292855Y-11596D01*
X292840Y-11626D01*
X292825Y-11648D01*
X292818Y-11655D01*
Y-11663D01*
X292751Y-11811D01*
X292700Y-11973D01*
X292670Y-12129D01*
X292640Y-12277D01*
X292626Y-12410D01*
Y-12469D01*
X292618Y-12514D01*
Y-12558D01*
Y-12588D01*
Y-12602D01*
Y-12610D01*
X292626Y-12810D01*
X292648Y-12987D01*
X292677Y-13150D01*
X292707Y-13283D01*
X292744Y-13394D01*
X292759Y-13439D01*
X292774Y-13476D01*
X292788Y-13505D01*
X292796Y-13527D01*
X292803Y-13535D01*
Y-13542D01*
X292877Y-13675D01*
X292959Y-13794D01*
X293047Y-13897D01*
X293136Y-13979D01*
X293218Y-14053D01*
X293277Y-14097D01*
X293321Y-14134D01*
X293329Y-14142D01*
X293336D01*
X293447Y-14201D01*
X293558Y-14253D01*
X293662Y-14297D01*
X293758Y-14327D01*
X293839Y-14356D01*
X293906Y-14371D01*
X293950Y-14386D01*
X293965D01*
X294098Y-14408D01*
X294231Y-14423D01*
X294372Y-14438D01*
X294498Y-14445D01*
X294609D01*
X294653Y-14452D01*
X295364D01*
Y-10767D01*
D02*
G37*
G36*
X170570Y-285767D02*
X169815D01*
X169675Y-285775D01*
X169542Y-285789D01*
X169431Y-285797D01*
X169342Y-285812D01*
X169275Y-285826D01*
X169231Y-285834D01*
X169216D01*
X169098Y-285863D01*
X168987Y-285893D01*
X168883Y-285930D01*
X168787Y-285967D01*
X168713Y-286004D01*
X168661Y-286026D01*
X168624Y-286048D01*
X168609Y-286056D01*
X168476Y-286145D01*
X168358Y-286241D01*
X168254Y-286344D01*
X168173Y-286441D01*
X168106Y-286529D01*
X168062Y-286596D01*
X168047Y-286626D01*
X168032Y-286648D01*
X168025Y-286655D01*
Y-286663D01*
X167958Y-286811D01*
X167906Y-286973D01*
X167877Y-287129D01*
X167847Y-287277D01*
X167832Y-287410D01*
Y-287469D01*
X167825Y-287514D01*
Y-287558D01*
Y-287588D01*
Y-287602D01*
Y-287610D01*
X167832Y-287810D01*
X167854Y-287987D01*
X167884Y-288150D01*
X167914Y-288283D01*
X167951Y-288394D01*
X167965Y-288439D01*
X167980Y-288476D01*
X167995Y-288505D01*
X168002Y-288527D01*
X168010Y-288535D01*
Y-288542D01*
X168084Y-288675D01*
X168165Y-288794D01*
X168254Y-288897D01*
X168343Y-288979D01*
X168424Y-289053D01*
X168483Y-289097D01*
X168528Y-289134D01*
X168535Y-289142D01*
X168543D01*
X168654Y-289201D01*
X168765Y-289253D01*
X168868Y-289297D01*
X168964Y-289327D01*
X169046Y-289356D01*
X169112Y-289371D01*
X169157Y-289386D01*
X169172D01*
X169305Y-289408D01*
X169438Y-289423D01*
X169579Y-289438D01*
X169704Y-289445D01*
X169815D01*
X169860Y-289452D01*
X170570D01*
Y-285767D01*
D02*
G37*
G36*
X264002Y-10656D02*
X263958D01*
X263817Y-10664D01*
X263751Y-10678D01*
X263699Y-10686D01*
X263655Y-10701D01*
X263618Y-10715D01*
X263595Y-10723D01*
X263588D01*
X263521Y-10745D01*
X263462Y-10782D01*
X263403Y-10812D01*
X263351Y-10849D01*
X263314Y-10878D01*
X263285Y-10908D01*
X263262Y-10923D01*
X263255Y-10930D01*
X263188Y-10997D01*
X263137Y-11071D01*
X263085Y-11152D01*
X263048Y-11226D01*
X263018Y-11293D01*
X262996Y-11344D01*
X262981Y-11381D01*
X262974Y-11396D01*
X262937Y-11515D01*
X262915Y-11648D01*
X262892Y-11774D01*
X262885Y-11899D01*
X262878Y-12018D01*
X262870Y-12062D01*
Y-12107D01*
Y-12144D01*
Y-12166D01*
Y-12181D01*
Y-12188D01*
Y-12255D01*
Y-12306D01*
X262878Y-12336D01*
Y-12351D01*
X262885Y-12403D01*
Y-12440D01*
Y-12469D01*
Y-12484D01*
X263055Y-12565D01*
X263137Y-12602D01*
X263218Y-12625D01*
X263277Y-12647D01*
X263329Y-12662D01*
X263359Y-12676D01*
X263373D01*
X263558Y-12713D01*
X263640Y-12728D01*
X263721Y-12736D01*
X263780D01*
X263832Y-12743D01*
X263877D01*
X264025Y-12736D01*
X264091D01*
X264143Y-12728D01*
X264195Y-12721D01*
X264232D01*
X264254Y-12713D01*
X264261D01*
X264380Y-12676D01*
X264432Y-12654D01*
X264483Y-12632D01*
X264520Y-12610D01*
X264550Y-12595D01*
X264565Y-12588D01*
X264572Y-12580D01*
X264646Y-12528D01*
X264705Y-12469D01*
X264757Y-12410D01*
X264794Y-12358D01*
X264831Y-12314D01*
X264853Y-12277D01*
X264861Y-12255D01*
X264868Y-12247D01*
X264898Y-12173D01*
X264913Y-12092D01*
X264927Y-12003D01*
X264942Y-11929D01*
Y-11855D01*
X264950Y-11803D01*
Y-11766D01*
Y-11751D01*
X264935Y-11566D01*
X264905Y-11404D01*
X264868Y-11270D01*
X264816Y-11152D01*
X264765Y-11063D01*
X264728Y-10997D01*
X264698Y-10960D01*
X264683Y-10945D01*
X264572Y-10849D01*
X264454Y-10775D01*
X264335Y-10723D01*
X264217Y-10693D01*
X264113Y-10671D01*
X264032Y-10664D01*
X264002Y-10656D01*
D02*
G37*
G36*
X130570Y-285767D02*
X129815D01*
X129675Y-285775D01*
X129542Y-285789D01*
X129431Y-285797D01*
X129342Y-285812D01*
X129275Y-285826D01*
X129231Y-285834D01*
X129216D01*
X129098Y-285863D01*
X128987Y-285893D01*
X128883Y-285930D01*
X128787Y-285967D01*
X128713Y-286004D01*
X128661Y-286026D01*
X128624Y-286048D01*
X128609Y-286056D01*
X128476Y-286145D01*
X128358Y-286241D01*
X128254Y-286344D01*
X128173Y-286441D01*
X128106Y-286529D01*
X128062Y-286596D01*
X128047Y-286626D01*
X128032Y-286648D01*
X128025Y-286655D01*
Y-286663D01*
X127958Y-286811D01*
X127906Y-286973D01*
X127877Y-287129D01*
X127847Y-287277D01*
X127832Y-287410D01*
Y-287469D01*
X127825Y-287514D01*
Y-287558D01*
Y-287588D01*
Y-287602D01*
Y-287610D01*
X127832Y-287810D01*
X127854Y-287987D01*
X127884Y-288150D01*
X127914Y-288283D01*
X127951Y-288394D01*
X127965Y-288439D01*
X127980Y-288476D01*
X127995Y-288505D01*
X128002Y-288527D01*
X128010Y-288535D01*
Y-288542D01*
X128084Y-288675D01*
X128165Y-288794D01*
X128254Y-288897D01*
X128343Y-288979D01*
X128424Y-289053D01*
X128483Y-289097D01*
X128528Y-289134D01*
X128535Y-289142D01*
X128543D01*
X128654Y-289201D01*
X128765Y-289253D01*
X128868Y-289297D01*
X128964Y-289327D01*
X129046Y-289356D01*
X129112Y-289371D01*
X129157Y-289386D01*
X129172D01*
X129305Y-289408D01*
X129438Y-289423D01*
X129579Y-289438D01*
X129704Y-289445D01*
X129815D01*
X129860Y-289452D01*
X130570D01*
Y-285767D01*
D02*
G37*
%LPD*%
D30*
X306618Y-13500D02*
G03*
X306618Y-13500I-1118J0D01*
G01*
D52*
X311692Y-8434D02*
G03*
X311951Y-18231I-6192J-5066D01*
G01*
X307500Y-30001D02*
X303501D01*
X323000Y-13501D02*
X319001D01*
X321001Y-11502D02*
Y-15500D01*
D53*
X130669Y-300331D02*
X139331D01*
X130669D02*
Y-291669D01*
X139331D01*
Y-300331D02*
Y-291669D01*
X421500Y-99500D02*
X428500D01*
X421500D02*
Y-84500D01*
X428500D01*
Y-99500D02*
Y-84500D01*
X170669Y-300331D02*
X179331D01*
X170669D02*
Y-291669D01*
X179331D01*
Y-300331D02*
Y-291669D01*
D56*
X305500Y-27500D02*
Y-22000D01*
X307000Y-13500D02*
X317000D01*
M02*
