%FSLAX25Y25*%
%MOIN*%
G70*
G01*
G75*
G04 Layer_Color=255*
%ADD10R,0.04725X0.13779*%
%ADD11R,0.04725X0.13779*%
%ADD12R,0.06000X0.10000*%
%ADD13R,0.03500X0.03000*%
%ADD14R,0.05500X0.04000*%
%ADD15R,0.04000X0.05500*%
%ADD16R,0.06000X0.06000*%
%ADD17R,0.02756X0.05315*%
%ADD18R,0.02756X0.07087*%
G04:AMPARAMS|DCode=19|XSize=74.8mil|YSize=129.92mil|CornerRadius=0mil|HoleSize=0mil|Usage=FLASHONLY|Rotation=0.000|XOffset=0mil|YOffset=0mil|HoleType=Round|Shape=Octagon|*
%AMOCTAGOND19*
4,1,8,-0.01870,0.06496,0.01870,0.06496,0.03740,0.04626,0.03740,-0.04626,0.01870,-0.06496,-0.01870,-0.06496,-0.03740,-0.04626,-0.03740,0.04626,-0.01870,0.06496,0.0*
%
%ADD19OCTAGOND19*%

%ADD20R,0.01496X0.07874*%
%ADD21R,0.01496X0.07874*%
%ADD22O,0.06000X0.11024*%
%ADD23R,0.06000X0.11024*%
%ADD24R,0.17716X0.07874*%
%ADD25R,0.03000X0.03500*%
%ADD26R,0.10000X0.06000*%
%ADD27R,0.07500X0.10000*%
%ADD28C,0.04000*%
%ADD29C,0.01200*%
%ADD30C,0.02500*%
%ADD31C,0.02000*%
%ADD32C,0.01500*%
%ADD33C,0.05000*%
%ADD34C,0.03000*%
%ADD35C,0.08000*%
%ADD36C,0.05906*%
%ADD37R,0.05906X0.05906*%
%ADD38R,0.10236X0.10236*%
%ADD39C,0.10236*%
%ADD40R,0.05906X0.05906*%
%ADD41O,0.07874X0.15748*%
%ADD42O,0.15748X0.07874*%
%ADD43O,0.16535X0.07874*%
%ADD44C,0.06000*%
%ADD45R,0.05906X0.05906*%
%ADD46R,0.09449X0.09449*%
%ADD47C,0.09449*%
%ADD48C,0.06500*%
%ADD49C,0.02000*%
%ADD50R,0.05000X0.06000*%
D16*
X135000Y-296000D02*
D03*
X175000D02*
D03*
D35*
X445000Y-52323D02*
D03*
X360355Y-52323D02*
D03*
X330827Y-52323D02*
D03*
X330827Y-135000D02*
D03*
X445000Y-135000D02*
D03*
X345591Y-135000D02*
D03*
X360355Y-135000D02*
D03*
X293000Y-122343D02*
D03*
X293000Y-102657D02*
D03*
D36*
X40000Y-222165D02*
D03*
X30000D02*
D03*
X40000Y-212165D02*
D03*
X30000D02*
D03*
X40000Y-202165D02*
D03*
X30000D02*
D03*
X40000Y-192165D02*
D03*
X30000D02*
D03*
X40000Y-182165D02*
D03*
X30000D02*
D03*
X40000Y-172165D02*
D03*
X30000D02*
D03*
X40000Y-162165D02*
D03*
X30000D02*
D03*
X40000Y-152165D02*
D03*
X30000D02*
D03*
X40000Y-142165D02*
D03*
X30000D02*
D03*
X40000Y-132165D02*
D03*
X115000Y-210000D02*
D03*
Y-220000D02*
D03*
X120000Y-20000D02*
D03*
X130000D02*
D03*
X140000D02*
D03*
Y-250000D02*
D03*
X70000Y-240000D02*
D03*
X80000D02*
D03*
X107500Y-90000D02*
D03*
X117500D02*
D03*
X70000Y-255000D02*
D03*
X80000D02*
D03*
X132500Y-90000D02*
D03*
X142500D02*
D03*
X92500Y-162500D02*
D03*
Y-172500D02*
D03*
X180000Y-250000D02*
D03*
X100000Y-220000D02*
D03*
Y-210000D02*
D03*
X242500Y-15000D02*
D03*
D37*
X30000Y-132165D02*
D03*
D38*
X425000Y-220000D02*
D03*
D39*
Y-180000D02*
D03*
D40*
X115000Y-200000D02*
D03*
X100000D02*
D03*
D41*
X267315Y-42339D02*
D03*
D42*
X287000Y-30528D02*
D03*
D43*
Y-54937D02*
D03*
D44*
X146815Y-168500D02*
D03*
X166500D02*
D03*
X225000Y-250000D02*
D03*
X255000Y-97000D02*
D03*
X205000Y-75000D02*
D03*
X25000Y-250000D02*
D03*
X225000Y-100000D02*
D03*
X25000D02*
D03*
X207000Y-239000D02*
D03*
X110000Y-172500D02*
D03*
X295500Y-210000D02*
D03*
X324000Y-25000D02*
D03*
X384000D02*
D03*
D45*
X110000Y-20000D02*
D03*
X130000Y-250000D02*
D03*
X170000D02*
D03*
X232500Y-15000D02*
D03*
D46*
X165000Y-312500D02*
D03*
X125000D02*
D03*
D47*
X185000D02*
D03*
X145000D02*
D03*
D48*
X402000Y-26250D02*
D03*
X430000Y-33750D02*
D03*
D50*
X425000Y-95500D02*
D03*
Y-88500D02*
D03*
M02*
