G04*
G04 #@! TF.GenerationSoftware,Altium Limited,Altium Designer,20.0.9 (164)*
G04*
G04 Layer_Color=16711935*
%FSLAX24Y24*%
%MOIN*%
G70*
G01*
G75*
%ADD13C,0.0079*%
%ADD15C,0.0039*%
%ADD48C,0.0500*%
%ADD82C,0.0827*%
%ADD83C,0.0386*%
%ADD84R,0.0740X0.0740*%
%ADD85C,0.0740*%
%ADD86R,0.0740X0.0740*%
%ADD87C,0.0434*%
%ADD88R,0.0434X0.0434*%
%ADD89C,0.0512*%
%ADD90R,0.0512X0.0512*%
%ADD160R,0.0200X0.1050*%
G04:AMPARAMS|DCode=161|XSize=70.9mil|YSize=55.1mil|CornerRadius=13.4mil|HoleSize=0mil|Usage=FLASHONLY|Rotation=180.000|XOffset=0mil|YOffset=0mil|HoleType=Round|Shape=RoundedRectangle|*
%AMROUNDEDRECTD161*
21,1,0.0709,0.0283,0,0,180.0*
21,1,0.0441,0.0551,0,0,180.0*
1,1,0.0268,-0.0220,0.0142*
1,1,0.0268,0.0220,0.0142*
1,1,0.0268,0.0220,-0.0142*
1,1,0.0268,-0.0220,-0.0142*
%
%ADD161ROUNDEDRECTD161*%
G04:AMPARAMS|DCode=162|XSize=70.9mil|YSize=55.1mil|CornerRadius=13.4mil|HoleSize=0mil|Usage=FLASHONLY|Rotation=270.000|XOffset=0mil|YOffset=0mil|HoleType=Round|Shape=RoundedRectangle|*
%AMROUNDEDRECTD162*
21,1,0.0709,0.0283,0,0,270.0*
21,1,0.0441,0.0551,0,0,270.0*
1,1,0.0268,-0.0142,-0.0220*
1,1,0.0268,-0.0142,0.0220*
1,1,0.0268,0.0142,0.0220*
1,1,0.0268,0.0142,-0.0220*
%
%ADD162ROUNDEDRECTD162*%
D13*
X11968Y20551D02*
Y20945D01*
X11339Y20551D02*
Y20945D01*
X11968Y19134D02*
Y19528D01*
X11339Y19134D02*
Y19528D01*
X15866Y29094D02*
Y29488D01*
X16496Y29094D02*
Y29488D01*
X11535Y45748D02*
Y46142D01*
X12165Y45748D02*
Y46142D01*
X10551Y38661D02*
X10945D01*
X10551Y38031D02*
X10945D01*
X8740Y38307D02*
Y38701D01*
X8110Y38307D02*
Y38701D01*
X21378Y44291D02*
Y44685D01*
X20748Y44291D02*
Y44685D01*
X23504Y26654D02*
Y27047D01*
X22874Y26654D02*
Y27047D01*
X22520Y26654D02*
Y27047D01*
X21890Y26654D02*
Y27047D01*
X20433Y28583D02*
X20827D01*
X20433Y27953D02*
X20827D01*
X21693D02*
X22087D01*
X21693Y28583D02*
X22087D01*
X19488Y31575D02*
X19882D01*
X19488Y30945D02*
X19882D01*
X21181Y30197D02*
Y30591D01*
X20551Y30197D02*
Y30591D01*
X21693Y28898D02*
X22087D01*
X21693Y29528D02*
X22087D01*
X15118Y33386D02*
Y33780D01*
X14488Y33386D02*
Y33780D01*
X19488Y29921D02*
X19882D01*
X19488Y30551D02*
X19882D01*
X12283Y33386D02*
Y33780D01*
X11654Y33386D02*
Y33780D01*
X22283Y30197D02*
Y30591D01*
X21654Y30197D02*
Y30591D01*
X12598Y33386D02*
Y33780D01*
X13228Y33386D02*
Y33780D01*
X14173Y33386D02*
Y33780D01*
X13543Y33386D02*
Y33780D01*
X9764Y30030D02*
Y30423D01*
X9134Y30030D02*
Y30423D01*
X11654Y31417D02*
Y31811D01*
X11024Y31417D02*
Y31811D01*
X9764Y31417D02*
Y31811D01*
X9134Y31417D02*
Y31811D01*
X20906Y20748D02*
Y21142D01*
X20276Y20748D02*
Y21142D01*
Y19409D02*
Y19803D01*
X20906Y19409D02*
Y19803D01*
X11024Y30030D02*
Y30423D01*
X11654Y30030D02*
Y30423D01*
X15551Y29094D02*
Y29488D01*
X14921Y29094D02*
Y29488D01*
X10787Y11142D02*
Y11535D01*
X11417Y11142D02*
Y11535D01*
X11968Y3947D02*
Y4341D01*
X11339Y3947D02*
Y4341D01*
X16850Y45472D02*
Y45866D01*
X17480Y45472D02*
Y45866D01*
X24567Y19882D02*
Y20276D01*
X23937Y19882D02*
Y20276D01*
X10551Y39528D02*
X10945D01*
X10551Y38898D02*
X10945D01*
X10551Y40630D02*
X10945D01*
X10551Y41260D02*
X10945D01*
X10551Y40394D02*
X10945D01*
X10551Y39764D02*
X10945D01*
X10551Y41417D02*
X10945D01*
X10551Y42047D02*
X10945D01*
X22008Y22087D02*
Y22480D01*
X21378Y22087D02*
Y22480D01*
X22008Y20748D02*
Y21142D01*
X21378Y20748D02*
Y21142D01*
Y19409D02*
Y19803D01*
X22008Y19409D02*
Y19803D01*
Y18071D02*
Y18465D01*
X21378Y18071D02*
Y18465D01*
D15*
X994Y49213D02*
G03*
X-0Y48213I6J-1000D01*
G01*
X31496Y48218D02*
G03*
X30496Y49213I-1000J-6D01*
G01*
X0Y994D02*
G03*
X1000Y-0I1000J6D01*
G01*
X30502Y0D02*
G03*
X31496Y1000I-6J1000D01*
G01*
X31496D02*
Y48218D01*
X994Y49213D02*
X30496D01*
X0Y994D02*
Y48213D01*
X1004Y0D02*
X30502D01*
D48*
X1234Y3937D02*
G03*
X1234Y3937I-250J0D01*
G01*
X28596Y46457D02*
G03*
X28596Y46457I-250J0D01*
G01*
D82*
X14248Y872D02*
D03*
X3998Y48372D02*
D03*
X5998D02*
D03*
X17248Y872D02*
D03*
D83*
X18786Y43756D02*
D03*
X17986D02*
D03*
X18386Y41756D02*
D03*
D84*
X27248Y2303D02*
D03*
X9248Y3303D02*
D03*
X7689Y34736D02*
D03*
D85*
X26248Y2303D02*
D03*
X25248D02*
D03*
X24248D02*
D03*
X23248D02*
D03*
X22248D02*
D03*
X8248Y3303D02*
D03*
X7248D02*
D03*
X6248D02*
D03*
X5248D02*
D03*
X4248D02*
D03*
X9248Y2303D02*
D03*
X8248D02*
D03*
X7248D02*
D03*
X6248D02*
D03*
X5248D02*
D03*
X4248D02*
D03*
X2748Y43803D02*
D03*
Y42803D02*
D03*
Y41803D02*
D03*
Y40803D02*
D03*
Y39803D02*
D03*
Y38803D02*
D03*
Y37803D02*
D03*
Y36803D02*
D03*
Y35803D02*
D03*
Y34803D02*
D03*
Y33803D02*
D03*
Y32803D02*
D03*
Y31803D02*
D03*
Y30803D02*
D03*
Y29803D02*
D03*
Y28803D02*
D03*
Y27803D02*
D03*
Y26803D02*
D03*
Y25803D02*
D03*
X3748Y44803D02*
D03*
Y43803D02*
D03*
Y42803D02*
D03*
Y41803D02*
D03*
Y40803D02*
D03*
Y39803D02*
D03*
Y38803D02*
D03*
Y37803D02*
D03*
Y36803D02*
D03*
Y35803D02*
D03*
Y34803D02*
D03*
Y33803D02*
D03*
Y32803D02*
D03*
Y31803D02*
D03*
Y30803D02*
D03*
Y29803D02*
D03*
Y28803D02*
D03*
Y27803D02*
D03*
Y26803D02*
D03*
Y25803D02*
D03*
X8689Y34736D02*
D03*
X7689Y35736D02*
D03*
X8689D02*
D03*
X23217Y40406D02*
D03*
Y41406D02*
D03*
X22217Y40406D02*
D03*
X26748Y22803D02*
D03*
Y21803D02*
D03*
Y20803D02*
D03*
Y19803D02*
D03*
Y18803D02*
D03*
Y17803D02*
D03*
Y16803D02*
D03*
Y15803D02*
D03*
Y14803D02*
D03*
Y13803D02*
D03*
Y12803D02*
D03*
Y11803D02*
D03*
Y10803D02*
D03*
Y9803D02*
D03*
Y8803D02*
D03*
Y7803D02*
D03*
Y6803D02*
D03*
Y5803D02*
D03*
Y4803D02*
D03*
X27748Y23803D02*
D03*
Y22803D02*
D03*
Y21803D02*
D03*
Y20803D02*
D03*
Y19803D02*
D03*
Y18803D02*
D03*
Y17803D02*
D03*
Y16803D02*
D03*
Y15803D02*
D03*
Y14803D02*
D03*
Y13803D02*
D03*
Y12803D02*
D03*
Y11803D02*
D03*
Y10803D02*
D03*
Y9803D02*
D03*
Y8803D02*
D03*
Y7803D02*
D03*
Y6803D02*
D03*
Y5803D02*
D03*
Y4803D02*
D03*
X3748Y22803D02*
D03*
Y21803D02*
D03*
Y20803D02*
D03*
Y19803D02*
D03*
Y18803D02*
D03*
Y17803D02*
D03*
Y16803D02*
D03*
Y15803D02*
D03*
Y14803D02*
D03*
Y13803D02*
D03*
Y12803D02*
D03*
Y11803D02*
D03*
Y10803D02*
D03*
Y9803D02*
D03*
Y8803D02*
D03*
Y7803D02*
D03*
Y6803D02*
D03*
Y5803D02*
D03*
Y4803D02*
D03*
X4748Y23803D02*
D03*
Y22803D02*
D03*
Y21803D02*
D03*
Y20803D02*
D03*
Y19803D02*
D03*
Y18803D02*
D03*
Y17803D02*
D03*
Y16803D02*
D03*
Y15803D02*
D03*
Y14803D02*
D03*
Y13803D02*
D03*
Y12803D02*
D03*
Y11803D02*
D03*
Y10803D02*
D03*
Y9803D02*
D03*
Y8803D02*
D03*
Y7803D02*
D03*
Y6803D02*
D03*
Y5803D02*
D03*
Y4803D02*
D03*
X27748Y43803D02*
D03*
Y42803D02*
D03*
Y41803D02*
D03*
Y40803D02*
D03*
Y39803D02*
D03*
Y38803D02*
D03*
Y37803D02*
D03*
Y36803D02*
D03*
Y35803D02*
D03*
Y34803D02*
D03*
Y33803D02*
D03*
Y32803D02*
D03*
Y31803D02*
D03*
Y30803D02*
D03*
Y29803D02*
D03*
Y28803D02*
D03*
Y27803D02*
D03*
Y26803D02*
D03*
Y25803D02*
D03*
X28748Y44803D02*
D03*
Y43803D02*
D03*
Y42803D02*
D03*
Y41803D02*
D03*
Y40803D02*
D03*
Y39803D02*
D03*
Y38803D02*
D03*
Y37803D02*
D03*
Y36803D02*
D03*
Y35803D02*
D03*
Y34803D02*
D03*
Y33803D02*
D03*
Y32803D02*
D03*
Y31803D02*
D03*
Y30803D02*
D03*
Y29803D02*
D03*
Y28803D02*
D03*
Y27803D02*
D03*
Y26803D02*
D03*
Y25803D02*
D03*
D86*
X2748Y44803D02*
D03*
X22217Y41406D02*
D03*
X26748Y23803D02*
D03*
X3748D02*
D03*
X27748Y44803D02*
D03*
D87*
X8911Y39945D02*
D03*
X8411D02*
D03*
X8911Y40445D02*
D03*
X8411D02*
D03*
X8911Y40945D02*
D03*
X8411D02*
D03*
X8911Y41445D02*
D03*
X8411D02*
D03*
X8911Y41945D02*
D03*
D88*
X8411D02*
D03*
D89*
X20079Y9843D02*
D03*
X21079D02*
D03*
D90*
X22079D02*
D03*
D160*
X22217Y40881D02*
D03*
X23217D02*
D03*
D161*
X11654Y20974D02*
D03*
Y20522D02*
D03*
Y19557D02*
D03*
Y19104D02*
D03*
X16181Y29065D02*
D03*
Y29518D02*
D03*
X11850Y45718D02*
D03*
Y46171D02*
D03*
X8425Y38730D02*
D03*
Y38278D02*
D03*
X21063Y44715D02*
D03*
Y44262D02*
D03*
X23189Y27077D02*
D03*
Y26624D02*
D03*
X22205Y27077D02*
D03*
Y26624D02*
D03*
X20866Y30620D02*
D03*
Y30167D02*
D03*
X14803Y33809D02*
D03*
Y33356D02*
D03*
X11968Y33809D02*
D03*
Y33356D02*
D03*
X21969Y30620D02*
D03*
Y30167D02*
D03*
X12913Y33356D02*
D03*
Y33809D02*
D03*
X13858D02*
D03*
Y33356D02*
D03*
X9449Y30453D02*
D03*
Y30000D02*
D03*
X11339Y31841D02*
D03*
Y31388D02*
D03*
X9449Y31841D02*
D03*
Y31388D02*
D03*
X20591Y21171D02*
D03*
Y20719D02*
D03*
Y19380D02*
D03*
Y19833D02*
D03*
X11339Y30000D02*
D03*
Y30453D02*
D03*
X15236Y29518D02*
D03*
Y29065D02*
D03*
X11102Y11112D02*
D03*
Y11565D02*
D03*
X11654Y4370D02*
D03*
Y3917D02*
D03*
X17165Y45443D02*
D03*
Y45896D02*
D03*
X24252Y20305D02*
D03*
Y19852D02*
D03*
X21693Y22510D02*
D03*
Y22057D02*
D03*
Y21171D02*
D03*
Y20719D02*
D03*
Y19380D02*
D03*
Y19833D02*
D03*
Y18494D02*
D03*
Y18041D02*
D03*
D162*
X10522Y38346D02*
D03*
X10974D02*
D03*
X20404Y28268D02*
D03*
X20856D02*
D03*
X22116D02*
D03*
X21663D02*
D03*
X19459Y31260D02*
D03*
X19911D02*
D03*
X22116Y29213D02*
D03*
X21663D02*
D03*
X19911Y30236D02*
D03*
X19459D02*
D03*
X10522Y39213D02*
D03*
X10974D02*
D03*
Y40945D02*
D03*
X10522D02*
D03*
Y40079D02*
D03*
X10974D02*
D03*
Y41732D02*
D03*
X10522D02*
D03*
M02*
