G04*
G04 #@! TF.GenerationSoftware,Altium Limited,Altium Designer,20.0.9 (164)*
G04*
G04 Layer_Color=8388736*
%FSLAX24Y24*%
%MOIN*%
G70*
G01*
G75*
%ADD15C,0.0039*%
%ADD48C,0.0500*%
G04:AMPARAMS|DCode=49|XSize=82.7mil|YSize=716.5mil|CornerRadius=0mil|HoleSize=0mil|Usage=FLASHONLY|Rotation=135.000|XOffset=0mil|YOffset=0mil|HoleType=Round|Shape=Rectangle|*
%AMROTATEDRECTD49*
4,1,4,0.2826,0.2241,-0.2241,-0.2826,-0.2826,-0.2241,0.2241,0.2826,0.2826,0.2241,0.0*
%
%ADD49ROTATEDRECTD49*%

G04:AMPARAMS|DCode=50|XSize=82.7mil|YSize=716.5mil|CornerRadius=0mil|HoleSize=0mil|Usage=FLASHONLY|Rotation=45.000|XOffset=0mil|YOffset=0mil|HoleType=Round|Shape=Rectangle|*
%AMROTATEDRECTD50*
4,1,4,0.2241,-0.2826,-0.2826,0.2241,-0.2241,0.2826,0.2826,-0.2241,0.2241,-0.2826,0.0*
%
%ADD50ROTATEDRECTD50*%

%ADD51R,0.0827X0.3150*%
%ADD52R,0.3150X0.0827*%
%ADD53R,0.0512X0.0591*%
%ADD54C,0.0350*%
%ADD55R,0.0552X0.0650*%
%ADD56R,0.0394X0.0552*%
%ADD57R,0.0709X0.1103*%
%ADD58R,0.0394X0.0788*%
%ADD59R,0.0138X0.0237*%
%ADD60R,0.0247X0.0237*%
%ADD61R,0.0434X0.0394*%
%ADD62R,0.0296X0.0257*%
G04:AMPARAMS|DCode=63|XSize=15.8mil|YSize=74.9mil|CornerRadius=5mil|HoleSize=0mil|Usage=FLASHONLY|Rotation=315.000|XOffset=0mil|YOffset=0mil|HoleType=Round|Shape=RoundedRectangle|*
%AMROUNDEDRECTD63*
21,1,0.0158,0.0650,0,0,315.0*
21,1,0.0059,0.0749,0,0,315.0*
1,1,0.0099,-0.0209,-0.0251*
1,1,0.0099,-0.0251,-0.0209*
1,1,0.0099,0.0209,0.0251*
1,1,0.0099,0.0251,0.0209*
%
%ADD63ROUNDEDRECTD63*%
G04:AMPARAMS|DCode=64|XSize=15.8mil|YSize=74.9mil|CornerRadius=5mil|HoleSize=0mil|Usage=FLASHONLY|Rotation=225.000|XOffset=0mil|YOffset=0mil|HoleType=Round|Shape=RoundedRectangle|*
%AMROUNDEDRECTD64*
21,1,0.0158,0.0650,0,0,225.0*
21,1,0.0059,0.0749,0,0,225.0*
1,1,0.0099,-0.0251,0.0209*
1,1,0.0099,-0.0209,0.0251*
1,1,0.0099,0.0251,-0.0209*
1,1,0.0099,0.0209,-0.0251*
%
%ADD64ROUNDEDRECTD64*%
%ADD65O,0.0158X0.0749*%
%ADD66O,0.0749X0.0158*%
%ADD67R,0.0552X0.0631*%
%ADD68R,0.0788X0.0631*%
%ADD69R,0.0355X0.0355*%
%ADD70R,0.0158X0.0355*%
%ADD71R,0.0749X0.0788*%
%ADD72R,0.0788X0.0788*%
%ADD73R,0.0867X0.0670*%
%ADD74R,0.0197X0.0572*%
%ADD75R,0.0394X0.0434*%
%ADD76R,0.0284X0.0284*%
%ADD77R,0.0205X0.0221*%
%ADD78R,0.0512X0.0827*%
%ADD79R,0.0257X0.0296*%
%ADD80R,0.0284X0.0284*%
%ADD81R,0.0221X0.0205*%
%ADD82C,0.0827*%
%ADD83C,0.0386*%
%ADD84R,0.0740X0.0740*%
%ADD85C,0.0740*%
%ADD86R,0.0740X0.0740*%
%ADD87C,0.0434*%
%ADD88R,0.0434X0.0434*%
%ADD89C,0.0512*%
%ADD90R,0.0512X0.0512*%
D15*
X994Y49213D02*
G03*
X-0Y48213I6J-1000D01*
G01*
X31496Y48218D02*
G03*
X30496Y49213I-1000J-6D01*
G01*
X0Y994D02*
G03*
X1000Y-0I1000J6D01*
G01*
X30502Y0D02*
G03*
X31496Y1000I-6J1000D01*
G01*
X31496D02*
Y48218D01*
X994Y49213D02*
X30496D01*
X0Y994D02*
Y48213D01*
X1004Y0D02*
X30502D01*
D48*
X1234Y3937D02*
G03*
X1234Y3937I-250J0D01*
G01*
X28596Y46457D02*
G03*
X28596Y46457I-250J0D01*
G01*
D49*
X18685Y21866D02*
D03*
X12811Y27740D02*
D03*
D50*
X12811Y21866D02*
D03*
X18685Y27740D02*
D03*
D51*
X11398Y41339D02*
D03*
X15768Y41339D02*
D03*
D52*
X13583Y43524D02*
D03*
Y39154D02*
D03*
D53*
X20256Y31614D02*
D03*
Y30748D02*
D03*
X20925D02*
D03*
Y31614D02*
D03*
D54*
X18636Y42756D02*
D03*
Y42256D02*
D03*
X18136Y43256D02*
D03*
X18636D02*
D03*
X18136Y42756D02*
D03*
Y42256D02*
D03*
D55*
X8957Y7096D02*
D03*
Y10226D02*
D03*
X10728Y7096D02*
D03*
Y10226D02*
D03*
X9941Y20935D02*
D03*
Y17805D02*
D03*
X8169Y20935D02*
D03*
Y17805D02*
D03*
D56*
X16339Y46791D02*
D03*
X15157D02*
D03*
D57*
X15748Y47815D02*
D03*
D58*
Y46909D02*
D03*
D59*
X21043Y45846D02*
D03*
X21240D02*
D03*
X21043Y45492D02*
D03*
X21240D02*
D03*
X11265Y44370D02*
D03*
X11068D02*
D03*
X11265Y44724D02*
D03*
X11068D02*
D03*
D60*
X21491Y45492D02*
D03*
X20792D02*
D03*
Y45846D02*
D03*
X21491D02*
D03*
X11516Y44370D02*
D03*
X10817D02*
D03*
X11516Y44724D02*
D03*
X10817D02*
D03*
D61*
X15157Y15945D02*
D03*
Y16575D02*
D03*
X20108Y46324D02*
D03*
Y45694D02*
D03*
X19518Y46324D02*
D03*
Y45694D02*
D03*
X15748Y15945D02*
D03*
Y16575D02*
D03*
X12165Y47598D02*
D03*
Y48228D02*
D03*
X16654Y41142D02*
D03*
Y41772D02*
D03*
X10276Y42205D02*
D03*
Y42835D02*
D03*
X9724Y36299D02*
D03*
Y36929D02*
D03*
X20591Y19528D02*
D03*
Y18898D02*
D03*
X21535Y22047D02*
D03*
Y21417D02*
D03*
X3031Y2323D02*
D03*
Y2953D02*
D03*
X19528Y28740D02*
D03*
Y29370D02*
D03*
X13346Y31614D02*
D03*
Y30984D02*
D03*
X22323Y22480D02*
D03*
Y23110D02*
D03*
X20591Y20709D02*
D03*
Y20079D02*
D03*
X19488Y19961D02*
D03*
Y19331D02*
D03*
X11299Y20906D02*
D03*
Y20276D02*
D03*
X13780Y46732D02*
D03*
Y47362D02*
D03*
X24252Y20394D02*
D03*
Y19764D02*
D03*
X12559Y19606D02*
D03*
Y18976D02*
D03*
X11890Y20236D02*
D03*
Y19606D02*
D03*
X10000Y22205D02*
D03*
Y21575D02*
D03*
X17874Y18307D02*
D03*
Y18937D02*
D03*
D62*
X22874Y46457D02*
D03*
Y46063D02*
D03*
X19488Y42717D02*
D03*
Y42323D02*
D03*
X9646Y33976D02*
D03*
Y34370D02*
D03*
X10630Y11142D02*
D03*
Y10748D02*
D03*
D63*
X21121Y25304D02*
D03*
X20982Y25443D02*
D03*
X20843Y25583D02*
D03*
X20703Y25722D02*
D03*
X20564Y25861D02*
D03*
X20425Y26000D02*
D03*
X20286Y26139D02*
D03*
X20147Y26279D02*
D03*
X20007Y26418D02*
D03*
X19868Y26557D02*
D03*
X19729Y26696D02*
D03*
X19590Y26835D02*
D03*
X19451Y26975D02*
D03*
X19311Y27114D02*
D03*
X19172Y27253D02*
D03*
X19033Y27392D02*
D03*
X18894Y27531D02*
D03*
X18755Y27671D02*
D03*
X18615Y27810D02*
D03*
X18476Y27949D02*
D03*
X18337Y28088D02*
D03*
X18198Y28227D02*
D03*
X18059Y28367D02*
D03*
X17919Y28506D02*
D03*
X17780Y28645D02*
D03*
X17641Y28784D02*
D03*
X17502Y28923D02*
D03*
X17363Y29062D02*
D03*
X17223Y29202D02*
D03*
X17084Y29341D02*
D03*
X16945Y29480D02*
D03*
X16806Y29619D02*
D03*
X16667Y29758D02*
D03*
X16528Y29898D02*
D03*
X16388Y30037D02*
D03*
X16249Y30176D02*
D03*
X10375Y24302D02*
D03*
X10514Y24163D02*
D03*
X10654Y24024D02*
D03*
X10793Y23884D02*
D03*
X10932Y23745D02*
D03*
X11071Y23606D02*
D03*
X11210Y23467D02*
D03*
X11349Y23328D02*
D03*
X11489Y23188D02*
D03*
X11628Y23049D02*
D03*
X11767Y22910D02*
D03*
X11906Y22771D02*
D03*
X12045Y22632D02*
D03*
X12185Y22493D02*
D03*
X12324Y22353D02*
D03*
X12463Y22214D02*
D03*
X12602Y22075D02*
D03*
X12741Y21936D02*
D03*
X12881Y21797D02*
D03*
X13020Y21657D02*
D03*
X13159Y21518D02*
D03*
X13298Y21379D02*
D03*
X13437Y21240D02*
D03*
X13577Y21101D02*
D03*
X13716Y20961D02*
D03*
X13855Y20822D02*
D03*
X13994Y20683D02*
D03*
X14133Y20544D02*
D03*
X14273Y20405D02*
D03*
X14412Y20265D02*
D03*
X14551Y20126D02*
D03*
X14690Y19987D02*
D03*
X14829Y19848D02*
D03*
X14969Y19709D02*
D03*
X15108Y19569D02*
D03*
X15247Y19430D02*
D03*
D64*
Y30176D02*
D03*
X15108Y30037D02*
D03*
X14969Y29898D02*
D03*
X14829Y29758D02*
D03*
X14690Y29619D02*
D03*
X14551Y29480D02*
D03*
X14412Y29341D02*
D03*
X14273Y29202D02*
D03*
X14133Y29062D02*
D03*
X13994Y28923D02*
D03*
X13855Y28784D02*
D03*
X13716Y28645D02*
D03*
X13577Y28506D02*
D03*
X13437Y28367D02*
D03*
X13298Y28227D02*
D03*
X13159Y28088D02*
D03*
X13020Y27949D02*
D03*
X12881Y27810D02*
D03*
X12741Y27671D02*
D03*
X12602Y27531D02*
D03*
X12463Y27392D02*
D03*
X12324Y27253D02*
D03*
X12185Y27114D02*
D03*
X12045Y26975D02*
D03*
X11906Y26835D02*
D03*
X11767Y26696D02*
D03*
X11628Y26557D02*
D03*
X11489Y26418D02*
D03*
X11349Y26279D02*
D03*
X11210Y26139D02*
D03*
X11071Y26000D02*
D03*
X10932Y25861D02*
D03*
X10793Y25722D02*
D03*
X10654Y25583D02*
D03*
X10514Y25443D02*
D03*
X10375Y25304D02*
D03*
X16249Y19430D02*
D03*
X16388Y19569D02*
D03*
X16528Y19709D02*
D03*
X16667Y19848D02*
D03*
X16806Y19987D02*
D03*
X16945Y20126D02*
D03*
X17084Y20265D02*
D03*
X17223Y20405D02*
D03*
X17363Y20544D02*
D03*
X17502Y20683D02*
D03*
X17641Y20822D02*
D03*
X17780Y20961D02*
D03*
X17919Y21101D02*
D03*
X18059Y21240D02*
D03*
X18198Y21379D02*
D03*
X18337Y21518D02*
D03*
X18476Y21657D02*
D03*
X18615Y21797D02*
D03*
X18755Y21936D02*
D03*
X18894Y22075D02*
D03*
X19033Y22214D02*
D03*
X19172Y22353D02*
D03*
X19311Y22493D02*
D03*
X19451Y22632D02*
D03*
X19590Y22771D02*
D03*
X19729Y22910D02*
D03*
X19868Y23049D02*
D03*
X20007Y23188D02*
D03*
X20147Y23328D02*
D03*
X20286Y23467D02*
D03*
X20425Y23606D02*
D03*
X20564Y23745D02*
D03*
X20703Y23884D02*
D03*
X20843Y24024D02*
D03*
X20982Y24163D02*
D03*
X21121Y24302D02*
D03*
D65*
X15059Y43524D02*
D03*
X14862D02*
D03*
X14665D02*
D03*
X14468D02*
D03*
X14272D02*
D03*
X14075D02*
D03*
X13878D02*
D03*
X13681D02*
D03*
X13484D02*
D03*
X13287D02*
D03*
X13091D02*
D03*
X12894D02*
D03*
X12697D02*
D03*
X12500D02*
D03*
X12303D02*
D03*
X12106D02*
D03*
Y39154D02*
D03*
X12303D02*
D03*
X12500D02*
D03*
X12697D02*
D03*
X12894D02*
D03*
X13091D02*
D03*
X13287D02*
D03*
X13484D02*
D03*
X13681D02*
D03*
X13878D02*
D03*
X14075D02*
D03*
X14272D02*
D03*
X14468D02*
D03*
X14665D02*
D03*
X14862D02*
D03*
X15059D02*
D03*
D66*
X11398Y42815D02*
D03*
Y42618D02*
D03*
Y42421D02*
D03*
Y42224D02*
D03*
Y42028D02*
D03*
Y41831D02*
D03*
Y41634D02*
D03*
Y41437D02*
D03*
Y41240D02*
D03*
Y41043D02*
D03*
Y40846D02*
D03*
Y40650D02*
D03*
Y40453D02*
D03*
Y40256D02*
D03*
Y40059D02*
D03*
Y39862D02*
D03*
X15768D02*
D03*
Y40059D02*
D03*
Y40256D02*
D03*
Y40453D02*
D03*
Y40650D02*
D03*
Y40846D02*
D03*
Y41043D02*
D03*
Y41240D02*
D03*
Y41437D02*
D03*
Y41634D02*
D03*
Y41831D02*
D03*
Y42028D02*
D03*
Y42224D02*
D03*
Y42421D02*
D03*
Y42618D02*
D03*
Y42815D02*
D03*
D67*
X12992Y47795D02*
D03*
Y46299D02*
D03*
D68*
X24646Y47274D02*
D03*
Y48002D02*
D03*
X23386D02*
D03*
Y47274D02*
D03*
D69*
X12657Y2539D02*
D03*
X12067D02*
D03*
D70*
X13278Y34587D02*
D03*
X13494D02*
D03*
X13278Y35177D02*
D03*
X13494D02*
D03*
D71*
X8346Y48425D02*
D03*
X11339D02*
D03*
X21181D02*
D03*
X18189D02*
D03*
D72*
X9370D02*
D03*
X10315D02*
D03*
X20157D02*
D03*
X19213D02*
D03*
D73*
X8622Y47421D02*
D03*
X11063D02*
D03*
X20906D02*
D03*
X18465D02*
D03*
D74*
X9331Y47372D02*
D03*
X9587D02*
D03*
X9843D02*
D03*
X10098D02*
D03*
X10354D02*
D03*
X20197D02*
D03*
X19941D02*
D03*
X19685D02*
D03*
X19429D02*
D03*
X19173D02*
D03*
D75*
X8543Y26969D02*
D03*
X9173D02*
D03*
X13091Y44409D02*
D03*
X13720D02*
D03*
X13071Y38307D02*
D03*
X13701D02*
D03*
X9213Y27559D02*
D03*
X9843D02*
D03*
X9724Y28189D02*
D03*
X10354D02*
D03*
X14902Y44409D02*
D03*
X14272D02*
D03*
X22433Y3372D02*
D03*
X23063D02*
D03*
X24843Y27362D02*
D03*
X24213D02*
D03*
X12520Y29921D02*
D03*
X11890D02*
D03*
X24291Y26575D02*
D03*
X23661D02*
D03*
D76*
X13957Y35630D02*
D03*
X13602D02*
D03*
X21201Y29528D02*
D03*
X21555D02*
D03*
X22500Y29528D02*
D03*
X22146D02*
D03*
X16319Y46102D02*
D03*
X15965D02*
D03*
X12815Y35630D02*
D03*
X13169D02*
D03*
D77*
X21575Y31091D02*
D03*
Y31350D02*
D03*
D78*
X22362Y28780D02*
D03*
X21339D02*
D03*
D79*
X16535Y42815D02*
D03*
X16929D02*
D03*
X15059Y38386D02*
D03*
X14665D02*
D03*
X12520Y3031D02*
D03*
X12126D02*
D03*
X23386Y46457D02*
D03*
X23780D02*
D03*
D80*
X22165Y45453D02*
D03*
Y45807D02*
D03*
X9646Y30059D02*
D03*
Y30413D02*
D03*
X14370Y46870D02*
D03*
Y47224D02*
D03*
D81*
X20559Y32303D02*
D03*
X20819D02*
D03*
D82*
X14248Y872D02*
D03*
X3998Y48372D02*
D03*
X5998D02*
D03*
X17248Y872D02*
D03*
D83*
X18786Y43756D02*
D03*
X17986D02*
D03*
X18386Y41756D02*
D03*
D84*
X27248Y2303D02*
D03*
X9248Y3303D02*
D03*
X7689Y34736D02*
D03*
D85*
X26248Y2303D02*
D03*
X25248D02*
D03*
X24248D02*
D03*
X23248D02*
D03*
X22248D02*
D03*
X8248Y3303D02*
D03*
X7248D02*
D03*
X6248D02*
D03*
X5248D02*
D03*
X4248D02*
D03*
X9248Y2303D02*
D03*
X8248D02*
D03*
X7248D02*
D03*
X6248D02*
D03*
X5248D02*
D03*
X4248D02*
D03*
X2748Y43803D02*
D03*
Y42803D02*
D03*
Y41803D02*
D03*
Y40803D02*
D03*
Y39803D02*
D03*
Y38803D02*
D03*
Y37803D02*
D03*
Y36803D02*
D03*
Y35803D02*
D03*
Y34803D02*
D03*
Y33803D02*
D03*
Y32803D02*
D03*
Y31803D02*
D03*
Y30803D02*
D03*
Y29803D02*
D03*
Y28803D02*
D03*
Y27803D02*
D03*
Y26803D02*
D03*
Y25803D02*
D03*
X3748Y44803D02*
D03*
Y43803D02*
D03*
Y42803D02*
D03*
Y41803D02*
D03*
Y40803D02*
D03*
Y39803D02*
D03*
Y38803D02*
D03*
Y37803D02*
D03*
Y36803D02*
D03*
Y35803D02*
D03*
Y34803D02*
D03*
Y33803D02*
D03*
Y32803D02*
D03*
Y31803D02*
D03*
Y30803D02*
D03*
Y29803D02*
D03*
Y28803D02*
D03*
Y27803D02*
D03*
Y26803D02*
D03*
Y25803D02*
D03*
X8689Y34736D02*
D03*
X7689Y35736D02*
D03*
X8689D02*
D03*
X23217Y40406D02*
D03*
Y41406D02*
D03*
X22217Y40406D02*
D03*
X26748Y22803D02*
D03*
Y21803D02*
D03*
Y20803D02*
D03*
Y19803D02*
D03*
Y18803D02*
D03*
Y17803D02*
D03*
Y16803D02*
D03*
Y15803D02*
D03*
Y14803D02*
D03*
Y13803D02*
D03*
Y12803D02*
D03*
Y11803D02*
D03*
Y10803D02*
D03*
Y9803D02*
D03*
Y8803D02*
D03*
Y7803D02*
D03*
Y6803D02*
D03*
Y5803D02*
D03*
Y4803D02*
D03*
X27748Y23803D02*
D03*
Y22803D02*
D03*
Y21803D02*
D03*
Y20803D02*
D03*
Y19803D02*
D03*
Y18803D02*
D03*
Y17803D02*
D03*
Y16803D02*
D03*
Y15803D02*
D03*
Y14803D02*
D03*
Y13803D02*
D03*
Y12803D02*
D03*
Y11803D02*
D03*
Y10803D02*
D03*
Y9803D02*
D03*
Y8803D02*
D03*
Y7803D02*
D03*
Y6803D02*
D03*
Y5803D02*
D03*
Y4803D02*
D03*
X3748Y22803D02*
D03*
Y21803D02*
D03*
Y20803D02*
D03*
Y19803D02*
D03*
Y18803D02*
D03*
Y17803D02*
D03*
Y16803D02*
D03*
Y15803D02*
D03*
Y14803D02*
D03*
Y13803D02*
D03*
Y12803D02*
D03*
Y11803D02*
D03*
Y10803D02*
D03*
Y9803D02*
D03*
Y8803D02*
D03*
Y7803D02*
D03*
Y6803D02*
D03*
Y5803D02*
D03*
Y4803D02*
D03*
X4748Y23803D02*
D03*
Y22803D02*
D03*
Y21803D02*
D03*
Y20803D02*
D03*
Y19803D02*
D03*
Y18803D02*
D03*
Y17803D02*
D03*
Y16803D02*
D03*
Y15803D02*
D03*
Y14803D02*
D03*
Y13803D02*
D03*
Y12803D02*
D03*
Y11803D02*
D03*
Y10803D02*
D03*
Y9803D02*
D03*
Y8803D02*
D03*
Y7803D02*
D03*
Y6803D02*
D03*
Y5803D02*
D03*
Y4803D02*
D03*
X27748Y43803D02*
D03*
Y42803D02*
D03*
Y41803D02*
D03*
Y40803D02*
D03*
Y39803D02*
D03*
Y38803D02*
D03*
Y37803D02*
D03*
Y36803D02*
D03*
Y35803D02*
D03*
Y34803D02*
D03*
Y33803D02*
D03*
Y32803D02*
D03*
Y31803D02*
D03*
Y30803D02*
D03*
Y29803D02*
D03*
Y28803D02*
D03*
Y27803D02*
D03*
Y26803D02*
D03*
Y25803D02*
D03*
X28748Y44803D02*
D03*
Y43803D02*
D03*
Y42803D02*
D03*
Y41803D02*
D03*
Y40803D02*
D03*
Y39803D02*
D03*
Y38803D02*
D03*
Y37803D02*
D03*
Y36803D02*
D03*
Y35803D02*
D03*
Y34803D02*
D03*
Y33803D02*
D03*
Y32803D02*
D03*
Y31803D02*
D03*
Y30803D02*
D03*
Y29803D02*
D03*
Y28803D02*
D03*
Y27803D02*
D03*
Y26803D02*
D03*
Y25803D02*
D03*
D86*
X2748Y44803D02*
D03*
X22217Y41406D02*
D03*
X26748Y23803D02*
D03*
X3748D02*
D03*
X27748Y44803D02*
D03*
D87*
X8911Y39945D02*
D03*
X8411D02*
D03*
X8911Y40445D02*
D03*
X8411D02*
D03*
X8911Y40945D02*
D03*
X8411D02*
D03*
X8911Y41445D02*
D03*
X8411D02*
D03*
X8911Y41945D02*
D03*
D88*
X8411D02*
D03*
D89*
X20079Y9843D02*
D03*
X21079D02*
D03*
D90*
X22079D02*
D03*
M02*
