G04*
G04 #@! TF.GenerationSoftware,Altium Limited,Altium Designer,20.0.9 (164)*
G04*
G04 Layer_Physical_Order=3*
G04 Layer_Color=32768*
%FSLAX24Y24*%
%MOIN*%
G70*
G01*
G75*
%ADD15C,0.0039*%
%ADD136C,0.0400*%
%ADD137C,0.0394*%
%ADD138R,0.4724X0.4724*%
%ADD139R,0.1496X0.1772*%
%ADD140C,0.0557*%
%ADD141C,0.0504*%
G04:AMPARAMS|DCode=142|XSize=75.433mil|YSize=75.433mil|CornerRadius=0mil|HoleSize=0mil|Usage=FLASHONLY|Rotation=0.000|XOffset=0mil|YOffset=0mil|HoleType=Round|Shape=Relief|Width=9.8mil|Gap=7.9mil|Entries=4|*
%AMTHD142*
7,0,0,0.0754,0.0597,0.0098,45*
%
%ADD142THD142*%
%ADD143C,0.0433*%
G04:AMPARAMS|DCode=144|XSize=62.992mil|YSize=62.992mil|CornerRadius=0mil|HoleSize=0mil|Usage=FLASHONLY|Rotation=0.000|XOffset=0mil|YOffset=0mil|HoleType=Round|Shape=Relief|Width=9.8mil|Gap=7.9mil|Entries=4|*
%AMTHD144*
7,0,0,0.0630,0.0472,0.0098,45*
%
%ADD144THD144*%
G04:AMPARAMS|DCode=145|XSize=59.055mil|YSize=59.055mil|CornerRadius=0mil|HoleSize=0mil|Usage=FLASHONLY|Rotation=0.000|XOffset=0mil|YOffset=0mil|HoleType=Round|Shape=Relief|Width=9.8mil|Gap=7.9mil|Entries=4|*
%AMTHD145*
7,0,0,0.0591,0.0433,0.0098,45*
%
%ADD145THD145*%
%ADD146C,0.0394*%
%ADD147C,0.1407*%
%ADD148C,0.0256*%
D15*
X994Y49213D02*
G03*
X-0Y48213I6J-1000D01*
G01*
X31496Y48218D02*
G03*
X30496Y49213I-1000J-6D01*
G01*
X0Y994D02*
G03*
X1000Y-0I1000J6D01*
G01*
X30502Y0D02*
G03*
X31496Y1000I-6J1000D01*
G01*
X31496D02*
Y48218D01*
X994Y49213D02*
X30496D01*
X0Y994D02*
Y48213D01*
X1004Y0D02*
X30502D01*
D136*
X994Y49213D02*
G03*
X-0Y48213I6J-1000D01*
G01*
X31496Y48218D02*
G03*
X30496Y49213I-1000J-6D01*
G01*
X30502Y0D02*
G03*
X31496Y1000I-6J1000D01*
G01*
X0Y994D02*
G03*
X1000Y-0I1000J6D01*
G01*
X0Y994D02*
Y48213D01*
X-0D02*
X0D01*
X994Y49213D02*
X30496D01*
Y49213D01*
X31496Y48218D02*
X31496D01*
X31496Y1000D02*
Y48218D01*
Y1000D02*
X31496D01*
X1004Y0D02*
X30502D01*
X1000Y-0D02*
X1004Y0D01*
D137*
X17323Y6693D02*
Y6732D01*
D138*
X15157Y8858D02*
D03*
D139*
X15315Y16240D02*
D03*
D140*
X14248Y872D02*
D03*
X27248Y2303D02*
D03*
X26248D02*
D03*
X25248D02*
D03*
X24248D02*
D03*
X22248D02*
D03*
X9248Y3303D02*
D03*
X8248D02*
D03*
X7248D02*
D03*
X6248D02*
D03*
X4248D02*
D03*
X9248Y2303D02*
D03*
X8248D02*
D03*
X7248D02*
D03*
X6248D02*
D03*
X4248D02*
D03*
X2748Y44803D02*
D03*
Y43803D02*
D03*
Y42803D02*
D03*
Y41803D02*
D03*
Y40803D02*
D03*
Y39803D02*
D03*
Y38803D02*
D03*
Y37803D02*
D03*
Y35803D02*
D03*
Y34803D02*
D03*
Y33803D02*
D03*
Y32803D02*
D03*
Y31803D02*
D03*
Y30803D02*
D03*
Y29803D02*
D03*
Y28803D02*
D03*
Y27803D02*
D03*
Y26803D02*
D03*
Y25803D02*
D03*
X3748Y44803D02*
D03*
Y43803D02*
D03*
Y42803D02*
D03*
Y41803D02*
D03*
Y40803D02*
D03*
Y39803D02*
D03*
Y38803D02*
D03*
Y37803D02*
D03*
Y36803D02*
D03*
Y35803D02*
D03*
Y34803D02*
D03*
Y33803D02*
D03*
Y32803D02*
D03*
Y31803D02*
D03*
Y30803D02*
D03*
Y29803D02*
D03*
Y28803D02*
D03*
Y27803D02*
D03*
Y26803D02*
D03*
Y25803D02*
D03*
X7689Y34736D02*
D03*
X8689D02*
D03*
X7689Y35736D02*
D03*
X8689D02*
D03*
X23217Y40406D02*
D03*
Y41406D02*
D03*
X22217Y40406D02*
D03*
Y41406D02*
D03*
X5998Y48372D02*
D03*
X26748Y23803D02*
D03*
Y22803D02*
D03*
Y21803D02*
D03*
Y20803D02*
D03*
Y19803D02*
D03*
Y18803D02*
D03*
Y17803D02*
D03*
Y16803D02*
D03*
Y15803D02*
D03*
Y14803D02*
D03*
Y13803D02*
D03*
Y12803D02*
D03*
Y11803D02*
D03*
Y10803D02*
D03*
Y9803D02*
D03*
Y8803D02*
D03*
Y7803D02*
D03*
Y6803D02*
D03*
Y5803D02*
D03*
Y4803D02*
D03*
X27748Y23803D02*
D03*
Y22803D02*
D03*
Y21803D02*
D03*
Y20803D02*
D03*
Y19803D02*
D03*
Y18803D02*
D03*
Y17803D02*
D03*
Y16803D02*
D03*
Y15803D02*
D03*
Y14803D02*
D03*
Y13803D02*
D03*
Y12803D02*
D03*
Y11803D02*
D03*
Y10803D02*
D03*
Y9803D02*
D03*
Y8803D02*
D03*
Y7803D02*
D03*
Y5803D02*
D03*
Y4803D02*
D03*
X3748Y23803D02*
D03*
Y22803D02*
D03*
Y21803D02*
D03*
Y20803D02*
D03*
Y19803D02*
D03*
Y18803D02*
D03*
Y17803D02*
D03*
Y16803D02*
D03*
Y15803D02*
D03*
Y14803D02*
D03*
Y13803D02*
D03*
Y12803D02*
D03*
Y11803D02*
D03*
Y10803D02*
D03*
Y9803D02*
D03*
Y8803D02*
D03*
Y7803D02*
D03*
Y6803D02*
D03*
Y5803D02*
D03*
Y4803D02*
D03*
X4748Y23803D02*
D03*
Y22803D02*
D03*
Y21803D02*
D03*
Y20803D02*
D03*
Y19803D02*
D03*
Y18803D02*
D03*
Y17803D02*
D03*
Y16803D02*
D03*
Y15803D02*
D03*
Y14803D02*
D03*
Y13803D02*
D03*
Y12803D02*
D03*
Y11803D02*
D03*
Y10803D02*
D03*
Y9803D02*
D03*
Y8803D02*
D03*
Y7803D02*
D03*
Y6803D02*
D03*
Y5803D02*
D03*
Y4803D02*
D03*
X27748Y44803D02*
D03*
Y43803D02*
D03*
Y42803D02*
D03*
Y41803D02*
D03*
Y40803D02*
D03*
Y39803D02*
D03*
Y38803D02*
D03*
Y37803D02*
D03*
Y36803D02*
D03*
Y35803D02*
D03*
Y34803D02*
D03*
Y33803D02*
D03*
Y32803D02*
D03*
Y31803D02*
D03*
Y30803D02*
D03*
Y29803D02*
D03*
Y28803D02*
D03*
Y27803D02*
D03*
Y26803D02*
D03*
Y25803D02*
D03*
X28748Y44803D02*
D03*
Y43803D02*
D03*
Y42803D02*
D03*
Y41803D02*
D03*
Y40803D02*
D03*
Y38803D02*
D03*
Y37803D02*
D03*
Y36803D02*
D03*
Y35803D02*
D03*
Y34803D02*
D03*
Y33803D02*
D03*
Y32803D02*
D03*
Y31803D02*
D03*
Y30803D02*
D03*
Y29803D02*
D03*
Y28803D02*
D03*
Y27803D02*
D03*
Y26803D02*
D03*
Y25803D02*
D03*
D141*
X18786Y43756D02*
D03*
X17986D02*
D03*
X18386Y41756D02*
D03*
D142*
X23248Y2303D02*
D03*
X5248Y3303D02*
D03*
Y2303D02*
D03*
X2748Y36803D02*
D03*
X3998Y48372D02*
D03*
X17248Y872D02*
D03*
X27748Y6803D02*
D03*
X28748Y39803D02*
D03*
D143*
X8911Y39945D02*
D03*
X8411D02*
D03*
X8911Y40445D02*
D03*
X8411D02*
D03*
X8911Y40945D02*
D03*
Y41445D02*
D03*
Y41945D02*
D03*
X8411D02*
D03*
D144*
Y40945D02*
D03*
Y41445D02*
D03*
D145*
X20079Y9843D02*
D03*
D146*
X22079D02*
D03*
X21079D02*
D03*
D147*
X30118Y1378D02*
D03*
X1378Y47835D02*
D03*
X30118D02*
D03*
X1378Y1378D02*
D03*
D148*
X23150Y38307D02*
D03*
X20413Y31988D02*
D03*
X18968Y28441D02*
D03*
X21260Y30945D02*
D03*
X20197Y29882D02*
D03*
X22874Y27677D02*
D03*
X23898Y27362D02*
D03*
X23661Y26929D02*
D03*
X19921Y28268D02*
D03*
X22441D02*
D03*
X21220Y28268D02*
D03*
X5512Y24409D02*
D03*
X9449Y15669D02*
D03*
X5709Y15472D02*
D03*
X10472Y15000D02*
D03*
X10551Y14449D02*
D03*
X9685Y14016D02*
D03*
X9724Y10669D02*
D03*
X11535Y18504D02*
D03*
X6496D02*
D03*
X6693Y18803D02*
D03*
X7283Y21260D02*
D03*
X7087Y21457D02*
D03*
X6890Y21260D02*
D03*
X6693Y21457D02*
D03*
X7559Y17323D02*
D03*
X20917Y26492D02*
D03*
X20658Y26512D02*
D03*
X20638Y26770D02*
D03*
X20380Y26790D02*
D03*
X20360Y27049D02*
D03*
X20101Y27068D02*
D03*
X20082Y27327D02*
D03*
X19823Y27347D02*
D03*
X19544Y27625D02*
D03*
X19525Y27884D02*
D03*
X18988Y28182D02*
D03*
X9961Y28583D02*
D03*
X5906Y25512D02*
D03*
X12230Y27903D02*
D03*
X10560Y23373D02*
D03*
X8701Y20000D02*
D03*
X9094D02*
D03*
X8898Y20197D02*
D03*
X9685D02*
D03*
X9882Y20000D02*
D03*
X10079Y20197D02*
D03*
X10276Y20000D02*
D03*
X6102Y19606D02*
D03*
X5906Y19409D02*
D03*
X5709Y19213D02*
D03*
X5748Y16575D02*
D03*
X15157Y16850D02*
D03*
Y15551D02*
D03*
X12835Y13661D02*
D03*
X12244Y16427D02*
D03*
X17219Y19574D02*
D03*
X17483Y19588D02*
D03*
X17497Y19852D02*
D03*
X17762Y19866D02*
D03*
X17776Y20131D02*
D03*
X18040Y20145D02*
D03*
X18054Y20409D02*
D03*
X20079Y20039D02*
D03*
X17795Y21782D02*
D03*
X20591Y18543D02*
D03*
X18753Y21102D02*
D03*
X21102Y20709D02*
D03*
X20281Y22636D02*
D03*
X20546Y22650D02*
D03*
X20003Y22358D02*
D03*
X20267Y22372D02*
D03*
X19989Y22094D02*
D03*
X21102Y19961D02*
D03*
X19724Y22080D02*
D03*
X20709Y23044D02*
D03*
X20876Y22598D02*
D03*
X21157Y22874D02*
D03*
X21102Y23207D02*
D03*
X19843Y19331D02*
D03*
X22323Y21535D02*
D03*
X22008Y21929D02*
D03*
X21693Y23740D02*
D03*
X21486Y23937D02*
D03*
X22323Y23465D02*
D03*
X11654Y5709D02*
D03*
X10039Y3303D02*
D03*
X11220Y5118D02*
D03*
X8740Y5315D02*
D03*
X10236Y11024D02*
D03*
X10630Y11417D02*
D03*
X9882Y13504D02*
D03*
X10079Y13307D02*
D03*
X10276Y12913D02*
D03*
X10039Y10669D02*
D03*
X11102Y10748D02*
D03*
Y11929D02*
D03*
X12362Y3425D02*
D03*
X12244Y4528D02*
D03*
X12362Y4291D02*
D03*
X11850Y16890D02*
D03*
X11654Y17795D02*
D03*
Y17507D02*
D03*
X12047Y16654D02*
D03*
X12441Y16903D02*
D03*
X12638Y17378D02*
D03*
Y4921D02*
D03*
X10118Y36063D02*
D03*
X8858Y27559D02*
D03*
X9370Y28189D02*
D03*
X11890Y30315D02*
D03*
X12165Y46654D02*
D03*
X12371Y45669D02*
D03*
X12874D02*
D03*
X16063Y45394D02*
D03*
X21063Y43819D02*
D03*
X21043Y45207D02*
D03*
X22874Y45748D02*
D03*
X24094Y46457D02*
D03*
X10128Y46575D02*
D03*
X9813D02*
D03*
X8898Y37402D02*
D03*
X9213Y37598D02*
D03*
X9961Y40079D02*
D03*
X11988Y41240D02*
D03*
X16654Y40827D02*
D03*
X13740Y39685D02*
D03*
X14370Y38386D02*
D03*
X14173Y38583D02*
D03*
X13071Y37953D02*
D03*
X11457Y38346D02*
D03*
X10039D02*
D03*
X12244Y40079D02*
D03*
Y40354D02*
D03*
X12362Y40945D02*
D03*
X12205Y41732D02*
D03*
X9921Y42205D02*
D03*
X10689Y42421D02*
D03*
X10886Y42618D02*
D03*
X11378Y45020D02*
D03*
X13091Y44724D02*
D03*
X16319Y45650D02*
D03*
X17126Y47087D02*
D03*
X16811Y46772D02*
D03*
X17165Y46417D02*
D03*
Y44528D02*
D03*
Y44961D02*
D03*
X17185Y42815D02*
D03*
X17598Y42756D02*
D03*
Y42244D02*
D03*
X19173Y42756D02*
D03*
X19161Y42256D02*
D03*
X11969Y34134D02*
D03*
X14488Y34055D02*
D03*
X14621Y30787D02*
D03*
X14336D02*
D03*
X13268Y34094D02*
D03*
X13504Y34213D02*
D03*
X13243Y32884D02*
D03*
X13529D02*
D03*
X11339Y32283D02*
D03*
X11811Y31299D02*
D03*
X9921Y29764D02*
D03*
X9961Y32244D02*
D03*
X12165Y36890D02*
D03*
X9449Y30920D02*
D03*
X18504Y20118D02*
D03*
X2677Y21654D02*
D03*
X2283Y20551D02*
D03*
X2087Y19646D02*
D03*
X9094Y16024D02*
D03*
X8701Y16299D02*
D03*
X8701Y17008D02*
D03*
X23346Y19291D02*
D03*
X23559Y18803D02*
D03*
X24134Y22441D02*
D03*
X24331Y22953D02*
D03*
Y24094D02*
D03*
X25945Y41063D02*
D03*
X22441Y30620D02*
D03*
X20000Y35709D02*
D03*
X23228Y29449D02*
D03*
X8169Y21634D02*
D03*
X11535Y46654D02*
D03*
X21084Y26102D02*
D03*
X8169Y23031D02*
D03*
X1378Y24921D02*
D03*
X866Y24803D02*
D03*
X1614Y24331D02*
D03*
X984Y25591D02*
D03*
X7795Y28386D02*
D03*
X8465Y27874D02*
D03*
X8169Y27264D02*
D03*
X10838Y26512D02*
D03*
X11117Y26790D02*
D03*
X11395Y27068D02*
D03*
X11673Y27347D02*
D03*
X11952Y27625D02*
D03*
X11122Y27063D02*
D03*
X11401Y27341D02*
D03*
X11679Y27620D02*
D03*
X10287Y26228D02*
D03*
X10281Y25955D02*
D03*
X7559Y20000D02*
D03*
X7756Y20315D02*
D03*
X10838Y23095D02*
D03*
X10565Y23100D02*
D03*
X10287Y23379D02*
D03*
X10844Y22822D02*
D03*
X12192Y20830D02*
D03*
X10945Y20866D02*
D03*
X10844Y26784D02*
D03*
X10189Y25118D02*
D03*
X10039Y24803D02*
D03*
X9764Y24488D02*
D03*
X10281Y23652D02*
D03*
X10013Y23661D02*
D03*
X11534Y22399D02*
D03*
X12097Y21569D02*
D03*
X11540Y22126D02*
D03*
X11818Y21848D02*
D03*
X12091Y21842D02*
D03*
X11813Y22120D02*
D03*
X11266Y22409D02*
D03*
X13065Y20868D02*
D03*
X13344Y20589D02*
D03*
X13071Y20595D02*
D03*
X12792Y20873D02*
D03*
X13349Y20316D02*
D03*
X12787Y21146D02*
D03*
X13900Y20032D02*
D03*
X13906Y19760D02*
D03*
X14184Y19481D02*
D03*
X14179Y19754D02*
D03*
X14457Y19476D02*
D03*
X14463Y19203D02*
D03*
X14741Y18925D02*
D03*
X14736Y19197D02*
D03*
X12514Y28455D02*
D03*
X12508Y28182D02*
D03*
X12362Y28885D02*
D03*
X12638Y28888D02*
D03*
X14045Y29986D02*
D03*
X13767Y29707D02*
D03*
X13488Y29429D02*
D03*
X14318Y29991D02*
D03*
X14040Y29713D02*
D03*
X13761Y29435D02*
D03*
X13483Y29156D02*
D03*
X12932Y28872D02*
D03*
X21260Y26299D02*
D03*
X21299Y25906D02*
D03*
X21496Y25709D02*
D03*
Y25197D02*
D03*
X22223Y14291D02*
D03*
X26260Y14488D02*
D03*
X22205Y14588D02*
D03*
X26102Y15512D02*
D03*
X21560D02*
D03*
X20066Y17283D02*
D03*
X26142Y17087D02*
D03*
X20541D02*
D03*
X22441Y18268D02*
D03*
X24079Y20803D02*
D03*
X16760Y19197D02*
D03*
X26181Y16102D02*
D03*
X16968Y18711D02*
D03*
X24764Y19803D02*
D03*
X25787Y20079D02*
D03*
X26181Y18110D02*
D03*
X20426Y17480D02*
D03*
X26181Y18504D02*
D03*
X20114Y18071D02*
D03*
X24331Y25803D02*
D03*
X28346Y24291D02*
D03*
X25394Y21535D02*
D03*
X25591Y21024D02*
D03*
X26181Y21378D02*
D03*
X28150Y24764D02*
D03*
X26969Y24961D02*
D03*
X25157Y21929D02*
D03*
X22362Y20551D02*
D03*
X15236Y28661D02*
D03*
X15748Y29843D02*
D03*
X6071Y41803D02*
D03*
X25071Y31803D02*
D03*
X24567Y30803D02*
D03*
X25197Y23425D02*
D03*
X25000Y22717D02*
D03*
X24606Y22244D02*
D03*
X23780Y20276D02*
D03*
X23701Y19764D02*
D03*
X22598Y12992D02*
D03*
X22795Y12795D02*
D03*
X28425Y16299D02*
D03*
X29331Y16850D02*
D03*
X29921Y23228D02*
D03*
X29134Y16575D02*
D03*
X12917Y19606D02*
D03*
X18701Y17814D02*
D03*
X18189Y18307D02*
D03*
X21122Y36555D02*
D03*
X21142Y36299D02*
D03*
X16741Y30668D02*
D03*
X17019Y30389D02*
D03*
X16760Y30409D02*
D03*
X17039Y30131D02*
D03*
X17298Y30111D02*
D03*
X17576Y29833D02*
D03*
X17317Y29852D02*
D03*
X20709Y35315D02*
D03*
X17596Y29574D02*
D03*
X17854Y29554D02*
D03*
X17874Y29295D02*
D03*
X18133Y29276D02*
D03*
X18152Y29017D02*
D03*
X18411Y28997D02*
D03*
X18431Y28739D02*
D03*
X18690Y28719D02*
D03*
X19173Y29042D02*
D03*
X13543Y36024D02*
D03*
X13228D02*
D03*
X19655Y45261D02*
D03*
X19970D02*
D03*
X11890Y20527D02*
D03*
X25394Y12874D02*
D03*
Y13465D02*
D03*
M02*
